# Blender 5.0.1
# www.blender.org

mtllib material.mtl
o center_B
v -0.000000 -0.000000 -0.299458
v -0.096412 -0.000000 -0.299458
v -0.000000 0.096412 -0.299458
v -0.000000 -0.096412 -0.299458
v 0.096412 0.000000 -0.299458
v 0.096886 0.000000 -0.299372
v 0.093127 0.024953 -0.299458
v 0.093127 -0.024953 -0.299458
v 0.093598 -0.025265 -0.299392
v 0.083495 -0.048206 -0.299458
v 0.083949 -0.048564 -0.299399
v 0.068174 -0.068174 -0.299458
v 0.068586 -0.068586 -0.299401
v 0.048206 -0.083495 -0.299458
v 0.048564 -0.083949 -0.299399
v 0.024953 -0.093127 -0.299458
v 0.025265 -0.093598 -0.299392
v 0.025880 -0.094007 -0.299213
v -0.000000 -0.096886 -0.299372
v -0.000000 -0.097272 -0.299136
v -0.025265 -0.093598 -0.299392
v -0.024953 -0.093127 -0.299458
v -0.048564 -0.083949 -0.299399
v -0.025880 -0.094007 -0.299213
v -0.049089 -0.084402 -0.299239
v -0.026635 -0.094244 -0.298967
v -0.049638 -0.084732 -0.299019
v -0.000000 -0.097465 -0.298814
v -0.060882 -0.099880 -0.287329
v -0.061742 -0.100022 -0.286917
v -0.075922 -0.096819 -0.287219
v -0.000000 -0.100020 -0.287388
v -0.000000 -0.100091 -0.286946
v 0.060882 -0.099880 -0.287330
v 0.061742 -0.100022 -0.286917
v 0.075922 -0.096819 -0.287219
v 0.026635 -0.094243 -0.298967
v 0.049638 -0.084732 -0.299019
v 0.049089 -0.084402 -0.299239
v 0.069496 -0.069496 -0.299034
v 0.069070 -0.069070 -0.299246
v 0.084732 -0.049638 -0.299019
v 0.088446 -0.088446 -0.287192
v 0.088804 -0.088804 -0.286848
v 0.096819 -0.075922 -0.287219
v 0.097062 -0.076449 -0.286861
v 0.099880 -0.060882 -0.287330
v 0.100022 -0.061742 -0.286917
v 0.100019 0.000000 -0.287388
v 0.094243 -0.026635 -0.298967
v 0.094007 -0.025880 -0.299213
v 0.097465 0.000000 -0.298815
v 0.097272 0.000000 -0.299136
v 0.094243 0.026635 -0.298967
v 0.094007 0.025880 -0.299213
v 0.084732 0.049638 -0.299019
v 0.099880 0.060882 -0.287330
v 0.100022 0.061742 -0.286917
v 0.096819 0.075922 -0.287219
v 0.097062 0.076449 -0.286861
v 0.088446 0.088446 -0.287192
v 0.088804 0.088804 -0.286848
v 0.075922 0.096819 -0.287219
v 0.069496 0.069496 -0.299034
v 0.069070 0.069070 -0.299246
v 0.049638 0.084732 -0.299019
v 0.049088 0.084402 -0.299239
v 0.026635 0.094243 -0.298967
v 0.025880 0.094007 -0.299213
v -0.000000 0.097465 -0.298815
v 0.060882 0.099880 -0.287330
v 0.061742 0.100022 -0.286917
v -0.000000 0.100020 -0.287388
v -0.000000 0.100091 -0.286946
v -0.060883 0.099880 -0.287329
v -0.061742 0.100022 -0.286917
v -0.075922 0.096819 -0.287219
v -0.026635 0.094243 -0.298967
v -0.025881 0.094007 -0.299213
v -0.049638 0.084732 -0.299019
v -0.049089 0.084402 -0.299239
v -0.069496 0.069496 -0.299034
v -0.069070 0.069070 -0.299246
v -0.084733 0.049638 -0.299019
v -0.088446 0.088446 -0.287192
v -0.088804 0.088804 -0.286848
v -0.096819 0.075922 -0.287219
v -0.097062 0.076449 -0.286861
v -0.099880 0.060882 -0.287329
v -0.100022 0.061742 -0.286917
v -0.100020 -0.000000 -0.287388
v -0.094244 0.026635 -0.298967
v -0.094007 0.025880 -0.299212
v -0.097466 -0.000000 -0.298814
v -0.097272 -0.000000 -0.299136
v -0.094244 -0.026635 -0.298967
v -0.094007 -0.025880 -0.299212
v -0.084732 -0.049638 -0.299019
v -0.099880 -0.060882 -0.287329
v -0.100022 -0.061742 -0.286917
v -0.096819 -0.075922 -0.287219
v -0.097062 -0.076449 -0.286861
v -0.088446 -0.088446 -0.287192
v -0.088804 -0.088804 -0.286848
v -0.069496 -0.069496 -0.299034
v -0.069070 -0.069070 -0.299246
v -0.068586 -0.068586 -0.299401
v -0.084402 -0.049089 -0.299239
v -0.083949 -0.048564 -0.299399
v -0.083496 -0.048206 -0.299458
v -0.093598 -0.025265 -0.299392
v -0.093127 -0.024953 -0.299458
v -0.096886 -0.000000 -0.299372
v -0.093598 0.025265 -0.299392
v -0.093127 0.024953 -0.299458
v -0.083950 0.048564 -0.299399
v -0.083496 0.048206 -0.299458
v -0.084402 0.049089 -0.299239
v -0.068586 0.068586 -0.299401
v -0.068174 0.068174 -0.299458
v -0.048565 0.083949 -0.299399
v -0.048206 0.083495 -0.299458
v -0.025265 0.093598 -0.299392
v -0.024954 0.093127 -0.299458
v -0.000000 0.096886 -0.299372
v -0.000000 0.097272 -0.299136
v 0.025265 0.093598 -0.299392
v 0.024953 0.093127 -0.299458
v 0.048564 0.083949 -0.299400
v 0.048206 0.083496 -0.299458
v 0.068586 0.068586 -0.299401
v 0.068174 0.068174 -0.299458
v 0.083949 0.048564 -0.299400
v 0.083495 0.048206 -0.299458
v 0.093598 0.025265 -0.299392
v 0.084402 0.049089 -0.299239
v -0.068174 -0.068174 -0.299458
v -0.048206 -0.083496 -0.299458
v -0.089066 -0.089066 -0.286354
v -0.076449 -0.097062 -0.286861
v -0.076835 -0.097239 -0.286358
v -0.076976 -0.097304 -0.285844
v -0.062372 -0.100125 -0.286373
v -0.062602 -0.100163 -0.285844
v -0.000000 -0.100144 -0.286381
v -0.000000 -0.100163 -0.285844
v 0.062372 -0.100125 -0.286373
v 0.062602 -0.100163 -0.285844
v 0.076835 -0.097239 -0.286358
v 0.076976 -0.097304 -0.285844
v 0.089066 -0.089066 -0.286354
v 0.076449 -0.097062 -0.286861
v 0.089162 -0.089162 -0.285844
v 0.097239 -0.076835 -0.286358
v 0.097304 -0.076976 -0.285844
v 0.100125 -0.062372 -0.286373
v 0.100163 -0.062602 -0.285844
v 0.100144 0.000000 -0.286381
v 0.100163 0.000000 -0.285844
v 0.100125 0.062372 -0.286373
v 0.100091 0.000000 -0.286946
v 0.100163 0.062602 -0.285844
v 0.097239 0.076835 -0.286358
v 0.097304 0.076976 -0.285844
v 0.089066 0.089066 -0.286354
v 0.089162 0.089162 -0.285844
v 0.076835 0.097239 -0.286358
v 0.076976 0.097304 -0.285844
v 0.076449 0.097062 -0.286861
v 0.062371 0.100125 -0.286373
v 0.062602 0.100163 -0.285844
v -0.000000 0.100144 -0.286381
v -0.000000 0.100163 -0.285844
v -0.062372 0.100125 -0.286373
v -0.062602 0.100163 -0.285844
v -0.076835 0.097239 -0.286358
v -0.076976 0.097304 -0.285844
v -0.089066 0.089066 -0.286354
v -0.076449 0.097062 -0.286861
v -0.089162 0.089162 -0.285844
v -0.097239 0.076835 -0.286358
v -0.097304 0.076976 -0.285844
v -0.100125 0.062372 -0.286373
v -0.100163 0.062602 -0.285844
v -0.100144 -0.000000 -0.286381
v -0.100163 -0.000000 -0.285844
v -0.100092 -0.000000 -0.286946
v -0.100125 -0.062372 -0.286373
v -0.100163 -0.062602 -0.285844
v -0.097239 -0.076835 -0.286358
v -0.097304 -0.076976 -0.285844
v -0.089162 -0.089162 -0.285844
v -0.097304 -0.076976 -0.100799
v -0.097190 -0.076929 -0.100349
v -0.100163 -0.062602 -0.100799
v -0.089162 -0.089162 -0.100799
v -0.089075 -0.089075 -0.100349
v -0.076976 -0.097304 -0.100799
v -0.076929 -0.097190 -0.100349
v -0.062602 -0.100163 -0.100799
v -0.062590 -0.100043 -0.100349
v 0.000000 -0.100163 -0.100799
v 0.000000 -0.100043 -0.100353
v 0.062602 -0.100163 -0.100799
v 0.062590 -0.100042 -0.100349
v 0.076976 -0.097304 -0.100799
v 0.076929 -0.097190 -0.100349
v 0.089162 -0.089162 -0.100799
v 0.089075 -0.089075 -0.100349
v 0.097304 -0.076976 -0.100799
v 0.097190 -0.076929 -0.100349
v 0.100163 -0.062602 -0.100799
v 0.100043 -0.062590 -0.100349
v 0.100163 0.000000 -0.100799
v 0.100043 0.000000 -0.100353
v 0.100163 0.062602 -0.100799
v 0.100042 0.062590 -0.100349
v 0.097304 0.076976 -0.100799
v 0.097190 0.076929 -0.100349
v 0.089162 0.089162 -0.100799
v 0.089075 0.089075 -0.100349
v 0.076976 0.097304 -0.100799
v 0.076929 0.097190 -0.100349
v 0.062602 0.100163 -0.100799
v 0.062590 0.100043 -0.100349
v -0.000000 0.100163 -0.100799
v -0.000000 0.100043 -0.100353
v -0.062602 0.100163 -0.100799
v -0.062590 0.100042 -0.100349
v -0.076976 0.097304 -0.100799
v -0.076929 0.097190 -0.100349
v -0.089162 0.089162 -0.100799
v -0.089075 0.089075 -0.100349
v -0.097304 0.076976 -0.100799
v -0.097190 0.076929 -0.100349
v -0.100163 0.062602 -0.100799
v -0.100043 0.062590 -0.100349
v -0.100163 -0.000000 -0.100799
v -0.100043 -0.000000 -0.100353
v -0.099713 -0.000000 -0.100035
v -0.100042 -0.062590 -0.100349
v -0.099713 -0.062558 -0.100019
v -0.099262 -0.062513 -0.099898
v -0.096879 -0.076800 -0.100019
v -0.096455 -0.076624 -0.099898
v -0.088837 -0.088837 -0.100019
v -0.088512 -0.088512 -0.099898
v -0.076800 -0.096880 -0.100019
v -0.076624 -0.096455 -0.099898
v -0.062558 -0.099713 -0.100019
v -0.062513 -0.099262 -0.099898
v 0.000000 -0.099713 -0.100035
v 0.000000 -0.099262 -0.099931
v 0.062558 -0.099712 -0.100019
v 0.062513 -0.099262 -0.099898
v 0.076800 -0.096879 -0.100019
v 0.076624 -0.096455 -0.099898
v 0.088837 -0.088837 -0.100019
v 0.088512 -0.088512 -0.099898
v 0.096880 -0.076800 -0.100019
v 0.096455 -0.076624 -0.099898
v 0.099713 -0.062558 -0.100019
v 0.099262 -0.062513 -0.099898
v 0.099713 0.000000 -0.100035
v 0.099262 0.000000 -0.099931
v 0.099712 0.062558 -0.100019
v 0.099262 0.062513 -0.099898
v 0.096879 0.076800 -0.100019
v 0.096455 0.076624 -0.099898
v 0.088837 0.088837 -0.100019
v 0.088512 0.088512 -0.099898
v 0.076800 0.096880 -0.100019
v 0.076624 0.096455 -0.099898
v 0.062558 0.099713 -0.100019
v 0.062513 0.099262 -0.099898
v -0.000000 0.099713 -0.100035
v -0.000000 0.099262 -0.099931
v -0.062558 0.099712 -0.100019
v -0.062513 0.099262 -0.099898
v -0.076800 0.096879 -0.100019
v -0.076624 0.096455 -0.099898
v -0.088837 0.088837 -0.100019
v -0.088512 0.088512 -0.099898
v -0.096880 0.076800 -0.100019
v -0.096455 0.076624 -0.099898
v -0.099713 0.062558 -0.100019
v -0.099262 0.062513 -0.099898
v -0.099262 -0.000000 -0.099931
v -0.000000 -0.000000 -0.103596
v 0.084402 -0.049089 -0.299239
vn -0.0030 -0.0065 -1.0000
vn -0.0065 -0.0040 -1.0000
vn -0.0715 0.0561 -0.9959
vn 0.0064 -0.0031 -1.0000
vn 0.0040 -0.0065 -1.0000
vn -0.1622 -0.0500 -0.9855
vn -0.0065 0.0031 -1.0000
vn -0.0040 0.0065 -1.0000
vn 0.0561 0.0715 -0.9959
vn 0.0031 0.0065 -1.0000
vn 0.0065 0.0040 -1.0000
vn 0.0501 -0.1623 -0.9855
vn -0.0056 -0.0018 -1.0000
vn 0.3580 -0.0000 -0.9337
vn 0.1380 -0.0116 -0.9904
vn 0.2399 -0.0788 -0.9676
vn 0.1578 -0.0895 -0.9834
vn 0.0829 -0.0635 -0.9945
vn 0.0874 -0.1519 -0.9845
vn 0.0537 -0.1996 -0.9784
vn 0.0485 -0.1301 -0.9903
vn 0.0118 -0.3674 -0.9300
vn 0.0964 -0.3613 -0.9274
vn 0.0292 -0.7155 -0.6980
vn -0.0536 -0.1996 -0.9784
vn -0.0116 -0.1381 -0.9903
vn -0.0874 -0.1520 -0.9845
vn -0.1598 -0.4818 -0.8616
vn -0.1478 -0.2575 -0.9549
vn -0.0990 -0.7680 -0.6328
vn -0.2205 -0.4082 -0.8859
vn 0.0009 -0.9772 -0.2125
vn -0.0813 -0.7748 -0.6269
vn -0.2034 -0.4058 -0.8911
vn -0.0000 -0.9580 -0.2868
vn -0.0439 -0.9654 -0.2569
vn -0.0000 -0.9927 -0.1204
vn 0.0813 -0.7749 -0.6269
vn 0.0389 -0.9652 -0.2586
vn 0.0293 -0.6327 -0.7738
vn 0.2033 -0.4058 -0.8911
vn 0.2902 -0.7032 -0.6491
vn 0.2205 -0.4081 -0.8859
vn 0.1474 -0.2576 -0.9550
vn 0.2051 -0.1945 -0.9592
vn 0.2873 -0.2384 -0.9277
vn 0.2873 -0.2872 -0.9138
vn 0.4076 -0.2212 -0.8860
vn 0.2575 -0.1477 -0.9549
vn 0.5129 -0.0659 -0.8559
vn 0.7032 -0.2902 -0.6491
vn 0.4883 -0.4883 -0.7232
vn 0.9652 -0.0388 -0.2586
vn 0.8084 -0.0615 -0.5854
vn 0.7680 -0.0987 -0.6328
vn 0.9927 -0.0000 -0.1204
vn 0.9791 0.0601 -0.1944
vn 0.9772 -0.0000 -0.2125
vn 0.3613 -0.0956 -0.9275
vn 0.6973 -0.0000 -0.7168
vn 0.5050 0.1307 -0.8531
vn 0.7617 0.1368 -0.6334
vn 0.2801 0.1634 -0.9460
vn 0.7832 0.1061 -0.6127
vn 0.3552 0.2089 -0.9111
vn 0.4057 0.2036 -0.8910
vn 0.8343 0.0495 -0.5491
vn 0.7032 0.2902 -0.6491
vn 0.2872 0.2873 -0.9138
vn 0.4883 0.4884 -0.7232
vn 0.2884 0.2884 -0.9130
vn 0.2899 0.7031 -0.6494
vn 0.2033 0.4058 -0.8911
vn 0.1945 0.2051 -0.9592
vn 0.2329 0.3768 -0.8965
vn 0.1634 0.2801 -0.9460
vn 0.0990 0.7680 -0.6327
vn 0.0813 0.7748 -0.6269
vn -0.0009 0.9772 -0.2125
vn 0.1298 0.5055 -0.8530
vn -0.0000 0.6973 -0.7168
vn -0.0000 0.9580 -0.2868
vn 0.0439 0.9654 -0.2569
vn -0.0000 0.9927 -0.1205
vn -0.0813 0.7748 -0.6269
vn -0.0389 0.9652 -0.2585
vn -0.0293 0.6327 -0.7739
vn -0.2033 0.4058 -0.8911
vn -0.2902 0.7032 -0.6491
vn -0.2205 0.4082 -0.8859
vn -0.1634 0.2801 -0.9460
vn -0.0952 0.3613 -0.9276
vn -0.2051 0.1945 -0.9592
vn -0.2873 0.2385 -0.9277
vn -0.2873 0.2872 -0.9138
vn -0.4077 0.2212 -0.8859
vn -0.2576 0.1478 -0.9549
vn -0.5129 0.0658 -0.8559
vn -0.7032 0.2901 -0.6491
vn -0.4883 0.4883 -0.7232
vn -0.9652 0.0388 -0.2586
vn -0.8084 0.0615 -0.5854
vn -0.7680 0.0987 -0.6328
vn -0.9927 -0.0000 -0.1205
vn -0.9791 -0.0601 -0.1944
vn -0.9772 -0.0000 -0.2125
vn -0.3613 0.0956 -0.9275
vn -0.6973 -0.0000 -0.7167
vn -0.5050 -0.1307 -0.8531
vn -0.7617 -0.1368 -0.6334
vn -0.2801 -0.1634 -0.9460
vn -0.7832 -0.1061 -0.6127
vn -0.3552 -0.2089 -0.9111
vn -0.4057 -0.2036 -0.8910
vn -0.8343 -0.0495 -0.5492
vn -0.7032 -0.2902 -0.6491
vn -0.2872 -0.2873 -0.9138
vn -0.4883 -0.4884 -0.7232
vn -0.2884 -0.2884 -0.9130
vn -0.2885 -0.7138 -0.6382
vn -0.1945 -0.2051 -0.9592
vn -0.1168 -0.1159 -0.9864
vn -0.1520 -0.0874 -0.9845
vn -0.1996 -0.0535 -0.9784
vn -0.1300 -0.0484 -0.9903
vn -0.0006 0.0011 -1.0000
vn -0.3580 -0.0000 -0.9337
vn -0.1380 0.0116 -0.9904
vn -0.2129 0.0226 -0.9768
vn -0.1532 0.0821 -0.9848
vn -0.0829 0.0635 -0.9945
vn -0.1161 0.1168 -0.9863
vn -0.0873 0.1520 -0.9845
vn -0.0536 0.1996 -0.9784
vn -0.0484 0.1300 -0.9903
vn -0.0118 0.3675 -0.9300
vn 0.0536 0.1996 -0.9784
vn 0.0116 0.1380 -0.9904
vn 0.0873 0.1520 -0.9845
vn 0.0646 0.0823 -0.9945
vn 0.1169 0.1169 -0.9862
vn 0.1519 0.0873 -0.9845
vn 0.2208 0.0791 -0.9721
vn -0.8461 -0.3707 -0.3829
vn -0.6313 -0.6313 -0.4505
vn -0.3513 -0.8541 -0.3834
vn -0.0409 -0.9904 -0.1318
vn -0.3863 -0.9224 -0.0022
vn -0.0395 -0.9992 0.0022
vn -0.0002 -1.0000 0.0086
vn -0.0000 -0.9979 -0.0654
vn 0.0375 -0.9902 -0.1344
vn 0.0373 -0.9993 -0.0004
vn 0.3515 -0.8539 -0.3839
vn 0.3827 -0.9239 -0.0026
vn 0.6313 -0.6313 -0.4505
vn 0.7071 -0.7071 -0.0017
vn 0.9239 -0.3827 -0.0025
vn 0.8593 -0.3549 -0.3683
vn 0.9993 -0.0371 -0.0003
vn 0.9786 -0.1645 -0.1235
vn 1.0000 -0.0000 0.0086
vn 0.9979 0.0010 -0.0646
vn 0.9902 0.0375 -0.1344
vn 0.9993 0.0372 -0.0003
vn 0.8539 0.3515 -0.3839
vn 0.9239 0.3827 -0.0026
vn 0.6313 0.6313 -0.4506
vn 0.7071 0.7071 -0.0017
vn 0.3863 0.9224 -0.0022
vn 0.3515 0.8539 -0.3839
vn 0.0395 0.9992 0.0022
vn 0.0374 0.9902 -0.1344
vn 0.0002 1.0000 0.0087
vn -0.0000 0.9979 -0.0655
vn -0.0375 0.9902 -0.1344
vn -0.0373 0.9993 -0.0004
vn -0.3515 0.8539 -0.3839
vn -0.3827 0.9239 -0.0026
vn -0.6313 0.6313 -0.4506
vn -0.7071 0.7071 -0.0017
vn -0.9239 0.3827 -0.0026
vn -0.8593 0.3549 -0.3684
vn -0.9993 0.0372 -0.0003
vn -0.9786 0.1645 -0.1235
vn -1.0000 -0.0000 0.0086
vn -0.9979 -0.0008 -0.0646
vn -0.9902 -0.0374 -0.1344
vn -0.9993 -0.0371 -0.0002
vn -0.9239 -0.3827 -0.0025
vn -0.6072 -0.7849 -0.1232
vn -0.9993 -0.0371 0.0003
vn -0.8581 -0.4960 0.1331
vn -0.7968 -0.3294 0.5066
vn -0.7875 -0.6032 0.1263
vn -0.6097 -0.6097 0.5064
vn -0.3827 -0.9239 0.0005
vn -0.3298 -0.7966 0.5066
vn -0.0370 -0.9993 -0.0000
vn -0.0330 -0.8643 0.5019
vn -0.0000 -1.0000 0.0030
vn -0.0000 -0.8610 0.5085
vn 0.0330 -0.8643 0.5018
vn 0.1942 -0.9534 0.2309
vn 0.3298 -0.7966 0.5066
vn 0.3791 -0.8885 0.2586
vn 0.6097 -0.6097 0.5064
vn 0.6903 -0.6759 0.2581
vn 0.9239 -0.3827 0.0005
vn 0.7966 -0.3298 0.5066
vn 0.9993 -0.0371 0.0003
vn 0.8643 -0.0330 0.5019
vn 1.0000 -0.0000 0.0021
vn 0.8611 -0.0000 0.5084
vn 0.8645 0.0330 0.5015
vn 0.9993 0.0369 -0.0002
vn 0.7968 0.3294 0.5066
vn 0.9239 0.3827 0.0010
vn 0.7071 0.7071 0.0005
vn 0.6097 0.6097 0.5064
vn 0.3827 0.9239 0.0005
vn 0.3298 0.7966 0.5066
vn 0.0370 0.9993 -0.0000
vn 0.0330 0.8643 0.5019
vn -0.0000 1.0000 0.0030
vn -0.0000 0.8611 0.5084
vn -0.0331 0.8643 0.5018
vn -0.1942 0.9534 0.2309
vn -0.3299 0.7966 0.5066
vn -0.3791 0.8886 0.2581
vn -0.7071 0.7071 0.0001
vn -0.6097 0.6097 0.5066
vn -0.7966 0.3299 0.5066
vn -0.8964 0.3603 0.2581
vn -0.9993 0.0369 -0.0002
vn -0.8643 0.0331 0.5018
vn -1.0000 -0.0000 0.0021
vn -0.8611 -0.0000 0.5084
vn -0.8373 -0.0937 0.5387
vn -0.4816 0.0678 0.8738
vn -0.4766 -0.0000 0.8791
vn -0.4951 -0.0189 0.8686
vn -0.4570 -0.1882 0.8693
vn 0.0087 0.0155 0.9998
vn -0.1237 -0.1553 0.9801
vn 0.0063 0.0135 0.9999
vn -0.3494 -0.3494 0.8694
vn 0.0058 0.0119 0.9999
vn -0.1891 -0.4565 0.8694
vn -0.0190 -0.4949 0.8687
vn 0.0101 0.0049 0.9999
vn -0.0000 -0.4766 0.8791
vn -0.0000 0.0256 0.9997
vn -0.0102 0.0048 0.9999
vn 0.0318 -0.5335 0.8452
vn -0.0110 0.0109 0.9999
vn 0.1722 -0.4841 0.8579
vn -0.0097 0.0097 0.9999
vn 0.3441 -0.3815 0.8579
vn 0.4566 -0.1891 0.8693
vn -0.0101 0.0105 0.9999
vn 0.4950 -0.0190 0.8687
vn -0.0049 0.0101 0.9999
vn 0.4766 -0.0000 0.8791
vn -0.0255 -0.0000 0.9997
vn -0.0047 -0.0112 0.9999
vn 0.4950 0.0190 0.8687
vn -0.0087 -0.0155 0.9998
vn 0.4566 0.1891 0.8693
vn -0.0060 -0.0133 0.9999
vn 0.3493 0.3493 0.8695
vn 0.1891 0.4566 0.8693
vn -0.0105 -0.0101 0.9999
vn 0.0190 0.4949 0.8687
vn -0.0101 -0.0049 0.9999
vn -0.0000 0.4766 0.8791
vn -0.0000 -0.0256 0.9997
vn 0.0102 -0.0049 0.9999
vn -0.0318 0.5335 0.8452
vn 0.0110 -0.0109 0.9999
vn -0.1721 0.4842 0.8579
vn 0.0098 -0.0097 0.9999
vn -0.3444 0.3813 0.8579
vn -0.4565 0.1891 0.8694
vn 0.0101 -0.0105 0.9999
vn 0.0049 -0.0101 0.9999
vn -0.1032 -0.1294 0.9862
vn 0.1161 -0.1169 -0.9863
vn -0.0000 -0.0000 -1.0000
vn -0.0000 -0.0000 1.0000
vt 0.568544 0.939024
vt 0.527314 0.857429
vt 0.512223 0.745968
vt 0.722416 0.857429
vt 0.681186 0.939024
vt 0.624865 0.968890
vt 0.527314 0.634506
vt 0.568544 0.552911
vt 0.624865 0.523045
vt 0.681186 0.552911
vt 0.722416 0.634506
vt 0.737507 0.745968
vt 0.595711 0.530641
vt 0.624865 0.521949
vt 0.654019 0.530641
vt 0.654383 0.529552
vt 0.681605 0.551861
vt 0.704515 0.588337
vt 0.722946 0.633678
vt 0.734219 0.687551
vt 0.733669 0.688271
vt 0.738061 0.745968
vt 0.734697 0.686127
vt 0.738511 0.745968
vt 0.734219 0.804384
vt 0.733669 0.803664
vt 0.722946 0.858257
vt 0.734697 0.805808
vt 0.723475 0.859469
vt 0.734973 0.807553
vt 0.723861 0.860740
vt 0.738738 0.745968
vt 0.741559 0.886739
vt 0.737983 0.921512
vt 0.741722 0.745968
vt 0.741724 0.888727
vt 0.741806 0.745968
vt 0.741559 0.605197
vt 0.741724 0.603208
vt 0.734973 0.684382
vt 0.737983 0.570423
vt 0.738266 0.569204
vt 0.723861 0.631195
vt 0.723475 0.632466
vt 0.705562 0.586265
vt 0.706060 0.585281
vt 0.728200 0.541464
vt 0.682859 0.550051
vt 0.682217 0.550815
vt 0.713567 0.522104
vt 0.714183 0.521544
vt 0.728618 0.540637
vt 0.697001 0.514699
vt 0.695996 0.515027
vt 0.655984 0.528060
vt 0.624865 0.514538
vt 0.624865 0.514704
vt 0.624865 0.520610
vt 0.655102 0.528607
vt 0.624865 0.521058
vt 0.594628 0.528607
vt 0.593746 0.528060
vt 0.567513 0.550815
vt 0.553734 0.515027
vt 0.566871 0.550051
vt 0.536163 0.522104
vt 0.552730 0.514699
vt 0.535547 0.521544
vt 0.521530 0.541464
vt 0.521112 0.540637
vt 0.543671 0.585281
vt 0.511464 0.569204
vt 0.511748 0.570423
vt 0.544168 0.586265
vt 0.525869 0.631195
vt 0.526255 0.632466
vt 0.514757 0.684382
vt 0.508171 0.605197
vt 0.510993 0.745968
vt 0.515034 0.686127
vt 0.511219 0.745968
vt 0.508009 0.745968
vt 0.508006 0.603209
vt 0.507925 0.745968
vt 0.508171 0.886739
vt 0.508006 0.888727
vt 0.514757 0.807553
vt 0.511748 0.921512
vt 0.511464 0.922731
vt 0.525869 0.860740
vt 0.526255 0.859469
vt 0.515034 0.805808
vt 0.544168 0.905670
vt 0.543671 0.906654
vt 0.521530 0.950471
vt 0.566871 0.941884
vt 0.567513 0.941121
vt 0.536163 0.969831
vt 0.535547 0.970392
vt 0.521112 0.951299
vt 0.552730 0.977236
vt 0.553734 0.976909
vt 0.593746 0.963876
vt 0.624865 0.977397
vt 0.624865 0.977231
vt 0.624865 0.971326
vt 0.594628 0.963328
vt 0.624865 0.970877
vt 0.655102 0.963328
vt 0.655984 0.963876
vt 0.682217 0.941121
vt 0.695996 0.976909
vt 0.682859 0.941884
vt 0.713567 0.969831
vt 0.697001 0.977236
vt 0.714183 0.970392
vt 0.728200 0.950471
vt 0.728618 0.951298
vt 0.706060 0.906654
vt 0.738266 0.922731
vt 0.705562 0.905670
vt 0.704997 0.904552
vt 0.681605 0.940074
vt 0.654383 0.962384
vt 0.654019 0.961295
vt 0.704515 0.903598
vt 0.624865 0.969986
vt 0.595711 0.961295
vt 0.595347 0.962384
vt 0.568126 0.940074
vt 0.545215 0.903598
vt 0.544733 0.904552
vt 0.526784 0.858257
vt 0.515511 0.804384
vt 0.516061 0.803664
vt 0.511669 0.745968
vt 0.515511 0.687551
vt 0.516061 0.688271
vt 0.526784 0.633678
vt 0.545215 0.588337
vt 0.544733 0.587384
vt 0.568126 0.551861
vt 0.595347 0.529552
vt 0.714634 0.970802
vt 0.728924 0.951904
vt 0.738473 0.923624
vt 0.741845 0.890182
vt 0.738549 0.923950
vt 0.741890 0.890715
vt 0.741890 0.745968
vt 0.741867 0.745968
vt 0.741845 0.601753
vt 0.741890 0.601220
vt 0.738473 0.568312
vt 0.738549 0.567985
vt 0.728924 0.540031
vt 0.729036 0.539809
vt 0.714799 0.520983
vt 0.714634 0.521133
vt 0.698005 0.514372
vt 0.697736 0.514460
vt 0.624865 0.514372
vt 0.624865 0.514417
vt 0.551994 0.514460
vt 0.551725 0.514372
vt 0.535096 0.521133
vt 0.534931 0.520983
vt 0.520806 0.540031
vt 0.520694 0.539809
vt 0.511181 0.567985
vt 0.511257 0.568312
vt 0.507841 0.601220
vt 0.507885 0.601753
vt 0.507841 0.745968
vt 0.507863 0.745968
vt 0.507885 0.890182
vt 0.507841 0.890715
vt 0.511257 0.923624
vt 0.511181 0.923950
vt 0.520806 0.951904
vt 0.520694 0.952126
vt 0.534931 0.970953
vt 0.535096 0.970802
vt 0.551725 0.977563
vt 0.551994 0.977476
vt 0.624865 0.977563
vt 0.624865 0.977519
vt 0.697736 0.977476
vt 0.698005 0.977563
vt 0.714799 0.970953
vt 0.729036 0.952126
vt 0.616917 0.260622
vt 0.561709 0.269275
vt 0.616917 0.269275
vt 0.616917 0.251969
vt 0.561709 0.260622
vt 0.714744 0.970689
vt 0.728934 0.951925
vt 0.738416 0.923841
vt 0.616917 0.243315
vt 0.561709 0.251969
vt 0.741890 0.890715
vt 0.741749 0.890687
vt 0.616917 0.234662
vt 0.561709 0.243315
vt 0.741890 0.745968
vt 0.741749 0.745968
vt 0.616917 0.197699
vt 0.561709 0.234662
vt 0.741749 0.601248
vt 0.561709 0.160736
vt 0.616917 0.160736
vt 0.741890 0.601220
vt 0.738416 0.568094
vt 0.561709 0.152082
vt 0.616917 0.152082
vt 0.738549 0.567985
vt 0.728934 0.540011
vt 0.561709 0.143429
vt 0.616917 0.143429
vt 0.714744 0.521246
vt 0.561709 0.134775
vt 0.616917 0.134775
vt 0.697991 0.514651
vt 0.561709 0.126122
vt 0.616917 0.126122
vt 0.624865 0.514651
vt 0.561709 0.089159
vt 0.616917 0.089159
vt 0.551739 0.514651
vt 0.561709 0.052196
vt 0.534986 0.521246
vt 0.616917 0.043542
vt 0.616917 0.052196
vt 0.520796 0.540011
vt 0.616917 0.034889
vt 0.561709 0.043542
vt 0.511314 0.568094
vt 0.616917 0.460395
vt 0.561709 0.469048
vt 0.616917 0.469048
vt 0.507982 0.601248
vt 0.616917 0.451742
vt 0.561709 0.460395
vt 0.507982 0.745968
vt 0.616917 0.414778
vt 0.561709 0.451742
vt 0.507982 0.890687
vt 0.561709 0.377815
vt 0.616917 0.377815
vt 0.511314 0.923841
vt 0.561709 0.369162
vt 0.616917 0.369162
vt 0.520796 0.951925
vt 0.561709 0.360508
vt 0.616917 0.360508
vt 0.534986 0.970689
vt 0.561709 0.351855
vt 0.616917 0.351855
vt 0.551739 0.977284
vt 0.561709 0.343202
vt 0.616917 0.343202
vt 0.624865 0.977284
vt 0.616917 0.306239
vt 0.697992 0.977284
vt 0.561709 0.306239
vt 0.551777 0.976521
vt 0.624865 0.976522
vt 0.697954 0.976521
vt 0.714594 0.969971
vt 0.714388 0.968989
vt 0.697902 0.975479
vt 0.728277 0.950623
vt 0.728657 0.951375
vt 0.737557 0.923137
vt 0.738053 0.923544
vt 0.741363 0.890612
vt 0.740836 0.890510
vt 0.741363 0.745968
vt 0.740837 0.745968
vt 0.740836 0.601426
vt 0.741363 0.601323
vt 0.737557 0.568798
vt 0.738053 0.568392
vt 0.728277 0.541312
vt 0.728657 0.540561
vt 0.714594 0.521965
vt 0.714388 0.522946
vt 0.697954 0.515414
vt 0.697902 0.516456
vt 0.624865 0.515413
vt 0.624865 0.516455
vt 0.551829 0.516456
vt 0.551777 0.515414
vt 0.535342 0.522946
vt 0.535137 0.521965
vt 0.521453 0.541312
vt 0.521074 0.540561
vt 0.511677 0.568392
vt 0.512173 0.568798
vt 0.508367 0.601323
vt 0.508894 0.601426
vt 0.508367 0.745968
vt 0.508893 0.745968
vt 0.508894 0.890510
vt 0.508367 0.890612
vt 0.512173 0.923137
vt 0.511677 0.923544
vt 0.521453 0.950623
vt 0.521074 0.951375
vt 0.535137 0.969971
vt 0.535342 0.968989
vt 0.551829 0.975479
vt 0.624865 0.975481
vt 0.617753 0.138759
vt 0.623669 0.150475
vt 0.646536 0.152157
vt 0.669402 0.150502
vt 0.675322 0.138794
vt 0.676172 0.093541
vt 0.623687 0.036544
vt 0.617767 0.048252
vt 0.616917 0.093505
vt 0.675336 0.048287
vt 0.669420 0.036572
vt 0.646554 0.034889
vt 0.704997 0.587384
vt 0.624865 0.745968
vt 0.561709 0.197699
vt 0.561709 0.034889
vt 0.561709 0.414778
vt 0.658942 0.093523
vt 0.616917 0.130425
vt 0.620123 0.145781
vt 0.627880 0.152135
vt 0.665191 0.152157
vt 0.672951 0.145813
vt 0.676161 0.130461
vt 0.627898 0.034889
vt 0.620139 0.041233
vt 0.616928 0.056586
vt 0.676172 0.056621
vt 0.672967 0.041265
vt 0.665209 0.034911
s 1
usemtl multitexture
f 117/1/1 122/2/2 3/3/3
f 138/4/4 110/5/5 2/6/6
f 130/7/7 134/8/8 5/9/9
f 10/10/10 14/11/11 4/12/12
f 7/13/13 6/14/14 5/9/9
f 6/14/14 8/15/15 5/9/9
f 9/16/16 10/10/10 8/15/15
f 11/17/17 12/18/18 10/10/10
f 12/18/18 15/19/19 14/11/11
f 14/11/11 17/20/20 16/21/21
f 19/22/22 16/21/21 17/20/20
f 15/19/19 18/23/23 17/20/20
f 20/24/24 17/20/20 18/23/23
f 20/24/24 21/25/25 19/22/22
f 19/22/22 22/26/26 4/12/12
f 138/4/4 21/25/25 23/27/27
f 23/27/27 24/28/28 25/29/29
f 25/29/29 26/30/30 27/31/31
f 28/32/32 24/28/28 20/24/24
f 27/31/31 29/33/33 31/34/34
f 26/30/30 32/35/35 29/33/33
f 30/36/36 31/34/34 29/33/33
f 33/37/37 29/33/33 32/35/35
f 33/37/37 34/38/38 35/39/39
f 37/40/40 32/35/35 28/32/32
f 35/39/39 36/41/41 152/42/42
f 34/38/38 38/43/43 36/41/41
f 39/44/44 37/40/40 18/23/23
f 28/32/32 18/23/23 37/40/40
f 41/45/45 38/43/43 39/44/44
f 36/41/41 40/46/46 43/47/47
f 42/48/48 41/45/45 290/49/49
f 45/50/50 40/46/46 42/48/48
f 43/47/47 46/51/51 44/52/52
f 152/42/42 43/47/47 44/52/52
f 45/50/50 48/53/53 46/51/51
f 47/54/54 42/48/48 50/55/55
f 47/54/54 161/56/56 48/53/53
f 49/57/57 50/55/55 52/58/58
f 50/55/55 290/49/49 51/59/59
f 52/58/58 51/59/59 53/60/60
f 55/61/61 52/58/58 53/60/60
f 54/62/62 49/57/57 52/58/58
f 136/63/63 54/62/62 55/61/61
f 57/64/64 56/65/65 59/66/66
f 58/67/67 59/66/66 60/68/68
f 161/56/56 57/64/64 58/67/67
f 60/68/68 61/69/69 62/70/70
f 59/66/66 64/71/71 61/69/69
f 169/72/72 61/69/69 63/73/73
f 64/71/71 63/73/73 61/69/69
f 65/74/74 56/65/65 136/63/63
f 65/74/74 66/75/75 64/71/71
f 67/76/76 68/77/77 66/75/75
f 66/75/75 71/78/78 63/73/73
f 70/79/79 69/80/80 126/81/81
f 68/77/77 73/82/82 71/78/78
f 72/83/83 63/73/73 71/78/78
f 74/84/84 71/78/78 73/82/82
f 74/84/84 75/85/85 76/86/86
f 78/87/87 73/82/82 70/79/79
f 76/86/86 77/88/88 179/89/89
f 75/85/85 80/90/90 77/88/88
f 81/91/91 78/87/87 79/92/92
f 70/79/79 79/92/92 78/87/87
f 83/93/93 80/90/90 81/91/91
f 77/88/88 82/94/94 85/95/95
f 84/96/96 83/93/93 118/97/97
f 87/98/98 82/94/94 84/96/96
f 85/95/95 88/99/99 86/100/100
f 179/89/89 85/95/95 86/100/100
f 87/98/98 90/101/101 88/99/99
f 89/102/102 84/96/96 92/103/103
f 89/102/102 187/104/104 90/101/101
f 91/105/105 92/103/103 94/106/106
f 92/103/103 118/97/97 93/107/107
f 94/106/106 93/107/107 95/108/108
f 97/109/109 94/106/106 95/108/108
f 96/110/110 91/105/105 94/106/106
f 108/111/111 96/110/110 97/109/109
f 99/112/112 98/113/113 101/114/114
f 100/115/115 101/114/114 102/116/116
f 187/104/104 99/112/112 100/115/115
f 102/116/116 103/117/117 104/118/118
f 101/114/114 105/119/119 103/117/117
f 140/120/120 103/117/117 31/34/34
f 105/119/119 31/34/34 103/117/117
f 106/121/121 98/113/113 108/111/111
f 106/121/121 27/31/31 105/119/119
f 107/122/122 108/111/111 109/123/123
f 107/122/122 25/29/29 106/121/121
f 109/123/123 97/109/109 111/124/124
f 110/5/5 111/124/124 112/125/125
f 137/126/126 109/123/123 110/5/5
f 112/125/125 113/127/127 2/6/6
f 111/124/124 95/108/108 113/127/127
f 113/127/127 115/128/128 2/6/6
f 95/108/108 114/129/129 113/127/127
f 114/129/129 117/1/1 115/128/128
f 93/107/107 116/130/130 114/129/129
f 116/130/130 120/131/131 117/1/1
f 118/97/97 119/132/132 116/130/130
f 120/131/131 121/133/133 122/2/2
f 119/132/132 81/91/91 121/133/133
f 122/2/2 123/134/134 124/135/135
f 121/133/133 79/92/92 123/134/134
f 125/136/136 124/135/135 123/134/134
f 126/81/81 123/134/134 79/92/92
f 126/81/81 127/137/137 125/136/136
f 125/136/136 128/138/138 3/3/3
f 130/7/7 127/137/137 129/139/139
f 129/139/139 69/80/80 67/76/76
f 132/140/140 129/139/139 131/141/141
f 131/141/141 67/76/76 65/74/74
f 132/140/140 133/142/142 134/8/8
f 131/141/141 136/63/63 133/142/142
f 134/8/8 135/143/143 7/13/13
f 133/142/142 55/61/61 135/143/143
f 135/143/143 53/60/60 6/14/14
f 137/126/126 23/27/27 107/122/122
f 190/144/144 104/118/118 139/145/145
f 141/146/146 104/118/118 140/120/120
f 143/147/147 140/120/120 30/36/36
f 142/148/148 139/145/145 141/146/146
f 144/149/149 141/146/146 143/147/147
f 146/150/150 143/147/147 145/151/151
f 145/151/151 30/36/36 33/37/37
f 146/150/150 147/152/152 148/153/153
f 145/151/151 35/39/39 147/152/152
f 148/153/153 149/154/154 150/155/155
f 147/152/152 152/42/42 149/154/154
f 150/155/155 151/156/156 153/157/157
f 149/154/154 44/52/52 151/156/156
f 151/156/156 155/158/158 153/157/157
f 44/52/52 154/159/159 151/156/156
f 154/159/159 157/160/160 155/158/158
f 46/51/51 156/161/161 154/159/159
f 156/161/161 159/162/162 157/160/160
f 48/53/53 158/163/163 156/161/161
f 159/162/162 160/164/164 162/165/165
f 158/163/163 58/67/67 160/164/164
f 162/165/165 163/166/166 164/167/167
f 160/164/164 60/68/68 163/166/166
f 164/167/167 165/168/168 166/169/169
f 163/166/166 62/70/70 165/168/168
f 168/170/170 165/168/168 167/171/171
f 167/171/171 62/70/70 169/72/72
f 171/172/172 167/171/171 170/173/173
f 170/173/173 169/72/72 72/83/83
f 173/174/174 170/173/173 172/175/175
f 172/175/175 72/83/83 74/84/84
f 173/174/174 174/176/176 175/177/177
f 172/175/175 76/86/86 174/176/176
f 175/177/177 176/178/178 177/179/179
f 174/176/176 179/89/89 176/178/178
f 177/179/179 178/180/180 180/181/181
f 176/178/178 86/100/100 178/180/180
f 178/180/180 182/182/182 180/181/181
f 86/100/100 181/183/183 178/180/180
f 181/183/183 184/184/184 182/182/182
f 88/99/99 183/185/185 181/183/183
f 183/185/185 186/186/186 184/184/184
f 90/101/101 185/187/187 183/185/185
f 186/186/186 188/188/188 189/189/189
f 185/187/187 100/115/115 188/188/188
f 189/189/189 190/144/144 191/190/190
f 188/188/188 102/116/116 190/144/144
f 191/190/190 139/145/145 192/191/191
f 191/192/190 195/193/192 189/194/189
f 192/195/191 193/196/193 191/192/190
f 194/197/194 195/189/192 193/190/193
f 194/197/194 196/191/195 197/198/196
f 197/198/196 198/148/197 199/199/198
f 142/200/148 196/201/195 192/195/191
f 199/199/198 200/202/199 201/203/200
f 144/204/149 198/205/197 142/200/148
f 201/203/200 202/206/201 203/207/202
f 146/208/150 200/209/199 144/204/149
f 202/206/201 205/210/203 203/207/202
f 204/211/204 146/208/150 148/212/153
f 204/213/204 207/214/205 205/210/203
f 206/215/206 148/212/153 150/216/155
f 206/217/206 209/218/207 207/214/205
f 208/219/208 150/216/155 153/220/157
f 209/218/207 210/158/209 211/221/210
f 210/222/209 153/220/157 155/223/158
f 211/221/210 212/160/211 213/224/212
f 212/225/211 155/223/158 157/226/160
f 213/224/212 214/162/213 215/227/214
f 214/228/213 157/226/160 159/229/162
f 217/230/215 214/162/213 216/165/216
f 159/229/162 216/231/216 214/228/213
f 219/232/217 216/165/216 218/167/218
f 164/233/167 216/231/216 162/234/165
f 219/232/217 220/169/219 221/235/220
f 166/236/169 218/237/218 164/233/167
f 221/235/220 222/170/221 223/238/222
f 168/239/170 220/240/219 166/241/169
f 223/238/222 224/172/223 225/242/224
f 171/243/172 222/244/221 168/239/170
f 225/242/224 226/174/225 227/245/226
f 173/246/174 224/247/223 171/243/172
f 226/174/225 229/248/227 227/245/226
f 228/249/228 173/246/174 175/250/177
f 228/177/228 231/251/229 229/248/227
f 230/252/230 175/250/177 177/253/179
f 231/251/229 232/181/231 233/254/232
f 232/255/231 177/253/179 180/256/181
f 232/181/231 235/257/233 233/254/232
f 234/258/234 180/256/181 182/259/182
f 235/257/233 236/184/235 237/260/236
f 236/261/235 182/259/182 184/262/184
f 237/260/236 238/186/237 239/263/238
f 186/264/186 236/261/235 184/262/184
f 241/265/239 238/186/237 195/189/192
f 189/194/189 238/266/237 186/264/186
f 286/267/240 239/263/238 240/268/241
f 242/269/242 239/263/238 241/265/239
f 244/270/243 241/265/239 194/197/194
f 245/271/244 242/269/242 244/270/243
f 243/272/245 240/268/241 242/269/242
f 247/273/246 244/270/243 246/274/247
f 244/270/243 197/198/196 246/274/247
f 249/275/248 246/274/247 248/276/249
f 248/276/249 197/198/196 199/199/198
f 249/275/248 250/277/250 251/278/251
f 248/276/249 201/203/200 250/277/250
f 251/278/251 252/279/252 253/280/253
f 250/277/250 203/207/202 252/279/252
f 252/279/252 255/281/254 253/280/253
f 203/207/202 254/282/255 252/279/252
f 254/282/255 257/283/256 255/281/254
f 205/210/203 256/284/257 254/282/255
f 256/284/257 259/285/258 257/283/256
f 256/284/257 209/218/207 258/286/259
f 259/285/258 260/287/260 261/288/261
f 209/218/207 260/287/260 258/286/259
f 261/288/261 262/289/262 263/290/263
f 260/287/260 213/224/212 262/289/262
f 263/290/263 264/291/264 265/292/265
f 262/289/262 215/227/214 264/291/264
f 267/293/266 264/291/264 266/294/267
f 266/294/267 215/227/214 217/230/215
f 269/295/268 266/294/267 268/296/269
f 268/296/269 217/230/215 219/232/217
f 271/297/270 268/296/269 270/298/271
f 268/296/269 221/235/220 270/298/271
f 271/297/270 272/299/272 273/300/273
f 272/299/272 221/235/220 223/238/222
f 273/300/273 274/301/274 275/302/275
f 272/299/272 225/242/224 274/301/274
f 275/302/275 276/303/276 277/304/277
f 274/301/274 227/245/226 276/303/276
f 276/303/276 279/305/278 277/304/277
f 227/245/226 278/306/279 276/303/276
f 278/306/279 281/307/280 279/305/278
f 229/248/227 280/308/281 278/306/279
f 280/308/281 283/309/282 281/307/280
f 231/251/229 282/310/283 280/308/281
f 283/309/282 284/311/284 285/312/285
f 282/310/283 235/257/233 284/311/284
f 285/312/285 286/267/240 287/313/286
f 284/311/284 237/260/236 286/267/240
f 287/313/286 240/268/241 288/314/287
f 281/315/280 285/316/285 288/317/287
f 245/318/244 249/319/248 253/320/253
f 269/321/268 273/322/273 277/323/277
f 257/324/256 261/325/261 265/326/265
f 53/60/60 9/16/16 6/14/14
f 51/59/59 11/17/17 9/16/16
f 290/49/49 13/327/288 11/17/17
f 13/327/288 39/44/44 15/19/19
f 3/3/3 1/328/289 2/6/6
f 2/6/6 115/128/128 117/1/1
f 117/1/1 120/131/131 122/2/2
f 122/2/2 124/135/135 3/3/3
f 3/3/3 2/6/6 117/1/1
f 2/6/6 1/328/289 4/12/12
f 4/12/12 22/26/26 138/4/4
f 138/4/4 137/126/126 110/5/5
f 110/5/5 112/125/125 2/6/6
f 2/6/6 4/12/12 138/4/4
f 5/9/9 1/328/289 3/3/3
f 3/3/3 128/138/138 130/7/7
f 130/7/7 132/140/140 134/8/8
f 134/8/8 7/13/13 5/9/9
f 5/9/9 3/3/3 130/7/7
f 4/12/12 1/328/289 5/9/9
f 5/9/9 8/15/15 10/10/10
f 10/10/10 12/18/18 14/11/11
f 14/11/11 16/21/21 4/12/12
f 4/12/12 5/9/9 10/10/10
f 7/13/13 135/143/143 6/14/14
f 6/14/14 9/16/16 8/15/15
f 9/16/16 11/17/17 10/10/10
f 11/17/17 13/327/288 12/18/18
f 12/18/18 13/327/288 15/19/19
f 14/11/11 15/19/19 17/20/20
f 19/22/22 4/12/12 16/21/21
f 15/19/19 39/44/44 18/23/23
f 20/24/24 19/22/22 17/20/20
f 20/24/24 24/28/28 21/25/25
f 19/22/22 21/25/25 22/26/26
f 138/4/4 22/26/26 21/25/25
f 23/27/27 21/25/25 24/28/28
f 25/29/29 24/28/28 26/30/30
f 28/32/32 26/30/30 24/28/28
f 27/31/31 26/30/30 29/33/33
f 26/30/30 28/32/32 32/35/35
f 30/36/36 140/120/120 31/34/34
f 33/37/37 30/36/36 29/33/33
f 33/37/37 32/35/35 34/38/38
f 37/40/40 34/38/38 32/35/35
f 35/39/39 34/38/38 36/41/41
f 34/38/38 37/40/40 38/43/43
f 39/44/44 38/43/43 37/40/40
f 28/32/32 20/24/24 18/23/23
f 41/45/45 40/46/46 38/43/43
f 36/41/41 38/43/43 40/46/46
f 42/48/48 40/46/46 41/45/45
f 45/50/50 43/47/47 40/46/46
f 43/47/47 45/50/50 46/51/51
f 152/42/42 36/41/41 43/47/47
f 45/50/50 47/54/54 48/53/53
f 47/54/54 45/50/50 42/48/48
f 47/54/54 49/57/57 161/56/56
f 49/57/57 47/54/54 50/55/55
f 50/55/55 42/48/48 290/49/49
f 52/58/58 50/55/55 51/59/59
f 55/61/61 54/62/62 52/58/58
f 54/62/62 57/64/64 49/57/57
f 136/63/63 56/65/65 54/62/62
f 57/64/64 54/62/62 56/65/65
f 58/67/67 57/64/64 59/66/66
f 161/56/56 49/57/57 57/64/64
f 60/68/68 59/66/66 61/69/69
f 59/66/66 56/65/65 64/71/71
f 169/72/72 62/70/70 61/69/69
f 64/71/71 66/75/75 63/73/73
f 65/74/74 64/71/71 56/65/65
f 65/74/74 67/76/76 66/75/75
f 67/76/76 69/80/80 68/77/77
f 66/75/75 68/77/77 71/78/78
f 70/79/79 68/77/77 69/80/80
f 68/77/77 70/79/79 73/82/82
f 72/83/83 169/72/72 63/73/73
f 74/84/84 72/83/83 71/78/78
f 74/84/84 73/82/82 75/85/85
f 78/87/87 75/85/85 73/82/82
f 76/86/86 75/85/85 77/88/88
f 75/85/85 78/87/87 80/90/90
f 81/91/91 80/90/90 78/87/87
f 70/79/79 126/81/81 79/92/92
f 83/93/93 82/94/94 80/90/90
f 77/88/88 80/90/90 82/94/94
f 84/96/96 82/94/94 83/93/93
f 87/98/98 85/95/95 82/94/94
f 85/95/95 87/98/98 88/99/99
f 179/89/89 77/88/88 85/95/95
f 87/98/98 89/102/102 90/101/101
f 89/102/102 87/98/98 84/96/96
f 89/102/102 91/105/105 187/104/104
f 91/105/105 89/102/102 92/103/103
f 92/103/103 84/96/96 118/97/97
f 94/106/106 92/103/103 93/107/107
f 97/109/109 96/110/110 94/106/106
f 96/110/110 99/112/112 91/105/105
f 108/111/111 98/113/113 96/110/110
f 99/112/112 96/110/110 98/113/113
f 100/115/115 99/112/112 101/114/114
f 187/104/104 91/105/105 99/112/112
f 102/116/116 101/114/114 103/117/117
f 101/114/114 98/113/113 105/119/119
f 140/120/120 104/118/118 103/117/117
f 105/119/119 27/31/31 31/34/34
f 106/121/121 105/119/119 98/113/113
f 106/121/121 25/29/29 27/31/31
f 107/122/122 106/121/121 108/111/111
f 107/122/122 23/27/27 25/29/29
f 109/123/123 108/111/111 97/109/109
f 110/5/5 109/123/123 111/124/124
f 137/126/126 107/122/122 109/123/123
f 112/125/125 111/124/124 113/127/127
f 111/124/124 97/109/109 95/108/108
f 113/127/127 114/129/129 115/128/128
f 95/108/108 93/107/107 114/129/129
f 114/129/129 116/130/130 117/1/1
f 93/107/107 118/97/97 116/130/130
f 116/130/130 119/132/132 120/131/131
f 118/97/97 83/93/93 119/132/132
f 120/131/131 119/132/132 121/133/133
f 119/132/132 83/93/93 81/91/91
f 122/2/2 121/133/133 123/134/134
f 121/133/133 81/91/91 79/92/92
f 125/136/136 3/3/3 124/135/135
f 126/81/81 125/136/136 123/134/134
f 126/81/81 69/80/80 127/137/137
f 125/136/136 127/137/137 128/138/138
f 130/7/7 128/138/138 127/137/137
f 129/139/139 127/137/137 69/80/80
f 132/140/140 130/7/7 129/139/139
f 131/141/141 129/139/139 67/76/76
f 132/140/140 131/141/141 133/142/142
f 131/141/141 65/74/74 136/63/63
f 134/8/8 133/142/142 135/143/143
f 133/142/142 136/63/63 55/61/61
f 135/143/143 55/61/61 53/60/60
f 137/126/126 138/4/4 23/27/27
f 190/144/144 102/116/116 104/118/118
f 141/146/146 139/145/145 104/118/118
f 143/147/147 141/146/146 140/120/120
f 142/148/148 192/191/191 139/145/145
f 144/149/149 142/148/148 141/146/146
f 146/150/150 144/149/149 143/147/147
f 145/151/151 143/147/147 30/36/36
f 146/150/150 145/151/151 147/152/152
f 145/151/151 33/37/37 35/39/39
f 148/153/153 147/152/152 149/154/154
f 147/152/152 35/39/39 152/42/42
f 150/155/155 149/154/154 151/156/156
f 149/154/154 152/42/42 44/52/52
f 151/156/156 154/159/159 155/158/158
f 44/52/52 46/51/51 154/159/159
f 154/159/159 156/161/161 157/160/160
f 46/51/51 48/53/53 156/161/161
f 156/161/161 158/163/163 159/162/162
f 48/53/53 161/56/56 158/163/163
f 159/162/162 158/163/163 160/164/164
f 158/163/163 161/56/56 58/67/67
f 162/165/165 160/164/164 163/166/166
f 160/164/164 58/67/67 60/68/68
f 164/167/167 163/166/166 165/168/168
f 163/166/166 60/68/68 62/70/70
f 168/170/170 166/169/169 165/168/168
f 167/171/171 165/168/168 62/70/70
f 171/172/172 168/170/170 167/171/171
f 170/173/173 167/171/171 169/72/72
f 173/174/174 171/172/172 170/173/173
f 172/175/175 170/173/173 72/83/83
f 173/174/174 172/175/175 174/176/176
f 172/175/175 74/84/84 76/86/86
f 175/177/177 174/176/176 176/178/178
f 174/176/176 76/86/86 179/89/89
f 177/179/179 176/178/178 178/180/180
f 176/178/178 179/89/89 86/100/100
f 178/180/180 181/183/183 182/182/182
f 86/100/100 88/99/99 181/183/183
f 181/183/183 183/185/185 184/184/184
f 88/99/99 90/101/101 183/185/185
f 183/185/185 185/187/187 186/186/186
f 90/101/101 187/104/104 185/187/187
f 186/186/186 185/187/187 188/188/188
f 185/187/187 187/104/104 100/115/115
f 189/189/189 188/188/188 190/144/144
f 188/188/188 100/115/115 102/116/116
f 191/190/190 190/144/144 139/145/145
f 191/192/190 193/196/193 195/193/192
f 192/195/191 196/201/195 193/196/193
f 194/197/194 241/265/239 195/189/192
f 194/197/194 193/190/193 196/191/195
f 197/198/196 196/191/195 198/148/197
f 142/200/148 198/205/197 196/201/195
f 199/199/198 198/148/197 200/202/199
f 144/204/149 200/209/199 198/205/197
f 201/203/200 200/202/199 202/206/201
f 146/208/150 202/329/201 200/209/199
f 202/206/201 204/213/204 205/210/203
f 204/211/204 202/329/201 146/208/150
f 204/213/204 206/217/206 207/214/205
f 206/215/206 204/211/204 148/212/153
f 206/217/206 208/157/208 209/218/207
f 208/219/208 206/215/206 150/216/155
f 209/218/207 208/157/208 210/158/209
f 210/222/209 208/219/208 153/220/157
f 211/221/210 210/158/209 212/160/211
f 212/225/211 210/222/209 155/223/158
f 213/224/212 212/160/211 214/162/213
f 214/228/213 212/225/211 157/226/160
f 217/230/215 215/227/214 214/162/213
f 159/229/162 162/234/165 216/231/216
f 219/232/217 217/230/215 216/165/216
f 164/233/167 218/237/218 216/231/216
f 219/232/217 218/167/218 220/169/219
f 166/236/169 220/330/219 218/237/218
f 221/235/220 220/169/219 222/170/221
f 168/239/170 222/244/221 220/240/219
f 223/238/222 222/170/221 224/172/223
f 171/243/172 224/247/223 222/244/221
f 225/242/224 224/172/223 226/174/225
f 173/246/174 226/331/225 224/247/223
f 226/174/225 228/177/228 229/248/227
f 228/249/228 226/331/225 173/246/174
f 228/177/228 230/179/230 231/251/229
f 230/252/230 228/249/228 175/250/177
f 231/251/229 230/179/230 232/181/231
f 232/255/231 230/252/230 177/253/179
f 232/181/231 234/182/234 235/257/233
f 234/258/234 232/255/231 180/256/181
f 235/257/233 234/182/234 236/184/235
f 236/261/235 234/258/234 182/259/182
f 237/260/236 236/184/235 238/186/237
f 186/264/186 238/266/237 236/261/235
f 241/265/239 239/263/238 238/186/237
f 189/194/189 195/193/192 238/266/237
f 286/267/240 237/260/236 239/263/238
f 242/269/242 240/268/241 239/263/238
f 244/270/243 242/269/242 241/265/239
f 245/271/244 243/272/245 242/269/242
f 243/272/245 288/314/287 240/268/241
f 247/273/246 245/271/244 244/270/243
f 244/270/243 194/197/194 197/198/196
f 249/275/248 247/273/246 246/274/247
f 248/276/249 246/274/247 197/198/196
f 249/275/248 248/276/249 250/277/250
f 248/276/249 199/199/198 201/203/200
f 251/278/251 250/277/250 252/279/252
f 250/277/250 201/203/200 203/207/202
f 252/279/252 254/282/255 255/281/254
f 203/207/202 205/210/203 254/282/255
f 254/282/255 256/284/257 257/283/256
f 205/210/203 207/214/205 256/284/257
f 256/284/257 258/286/259 259/285/258
f 256/284/257 207/214/205 209/218/207
f 259/285/258 258/286/259 260/287/260
f 209/218/207 211/221/210 260/287/260
f 261/288/261 260/287/260 262/289/262
f 260/287/260 211/221/210 213/224/212
f 263/290/263 262/289/262 264/291/264
f 262/289/262 213/224/212 215/227/214
f 267/293/266 265/292/265 264/291/264
f 266/294/267 264/291/264 215/227/214
f 269/295/268 267/293/266 266/294/267
f 268/296/269 266/294/267 217/230/215
f 271/297/270 269/295/268 268/296/269
f 268/296/269 219/232/217 221/235/220
f 271/297/270 270/298/271 272/299/272
f 272/299/272 270/298/271 221/235/220
f 273/300/273 272/299/272 274/301/274
f 272/299/272 223/238/222 225/242/224
f 275/302/275 274/301/274 276/303/276
f 274/301/274 225/242/224 227/245/226
f 276/303/276 278/306/279 279/305/278
f 227/245/226 229/248/227 278/306/279
f 278/306/279 280/308/281 281/307/280
f 229/248/227 231/251/229 280/308/281
f 280/308/281 282/310/283 283/309/282
f 231/251/229 233/254/232 282/310/283
f 283/309/282 282/310/283 284/311/284
f 282/310/283 233/254/232 235/257/233
f 285/312/285 284/311/284 286/267/240
f 284/311/284 235/257/233 237/260/236
f 287/313/286 286/267/240 240/268/241
f 288/317/287 289/332/290 277/323/277
f 277/323/277 279/333/278 281/315/280
f 281/315/280 283/334/282 285/316/285
f 285/316/285 287/335/286 288/317/287
f 288/317/287 277/323/277 281/315/280
f 253/320/253 289/332/290 288/317/287
f 288/317/287 243/336/245 245/318/244
f 245/318/244 247/337/246 249/319/248
f 249/319/248 251/338/251 253/320/253
f 253/320/253 288/317/287 245/318/244
f 277/323/277 289/332/290 265/326/265
f 265/326/265 267/339/266 269/321/268
f 269/321/268 271/340/270 273/322/273
f 273/322/273 275/341/275 277/323/277
f 277/323/277 265/326/265 269/321/268
f 265/326/265 289/332/290 253/320/253
f 253/320/253 255/342/254 257/324/256
f 257/324/256 259/343/258 261/325/261
f 261/325/261 263/344/263 265/326/265
f 265/326/265 253/320/253 257/324/256
f 53/60/60 51/59/59 9/16/16
f 51/59/59 290/49/49 11/17/17
f 290/49/49 41/45/45 13/327/288
f 13/327/288 41/45/45 39/44/44
