# Blender 5.0.1
# www.blender.org

mtllib DB.mtl
o edge_DB
v -0.100163 -0.137076 -0.137396
v -0.100163 -0.295334 -0.137396
v -0.100164 -0.295334 -0.295654
v -0.100164 -0.137076 -0.295654
v -0.097932 -0.125858 -0.126178
v -0.097304 -0.122702 -0.128039
v -0.097304 -0.127719 -0.123022
v -0.097304 -0.123084 -0.126119
v -0.097304 -0.124171 -0.124492
v -0.097304 -0.125799 -0.123404
v -0.089162 -0.113592 -0.111216
v -0.089162 -0.115499 -0.110836
v -0.076976 -0.105413 -0.103069
v -0.089162 -0.111976 -0.112296
v -0.076976 -0.103816 -0.104136
v -0.089162 -0.110895 -0.113913
v -0.076976 -0.102749 -0.105733
v -0.089162 -0.110516 -0.115820
v -0.076976 -0.102374 -0.107617
v -0.089162 -0.110516 -0.295654
v -0.076976 -0.102374 -0.295654
v -0.088915 -0.110763 -0.297379
v -0.097304 -0.122702 -0.295654
v -0.096981 -0.122836 -0.297379
v -0.096061 -0.123217 -0.298841
v -0.099820 -0.137110 -0.297379
v -0.098843 -0.137206 -0.298841
v -0.099820 -0.295334 -0.297379
v -0.099406 -0.297102 -0.297422
v -0.098843 -0.295334 -0.298841
v -0.097381 -0.295334 -0.299819
v -0.098614 -0.297012 -0.298612
v -0.097424 -0.297102 -0.299404
v -0.098258 -0.297936 -0.298257
v -0.097335 -0.298292 -0.298612
v -0.098614 -0.298292 -0.297333
v -0.098843 -0.298521 -0.295654
v -0.097424 -0.299084 -0.297422
v -0.095656 -0.299498 -0.297379
v -0.097381 -0.299498 -0.295654
v -0.095656 -0.299841 -0.295654
v -0.097381 -0.299498 -0.137670
v -0.098843 -0.298521 -0.137526
v -0.095656 -0.299841 -0.137840
v -0.094683 -0.299498 -0.124108
v -0.096061 -0.298521 -0.123537
v -0.093058 -0.299841 -0.124781
v -0.087156 -0.299498 -0.112843
v -0.088210 -0.298521 -0.111788
v -0.085912 -0.299841 -0.114086
v -0.075891 -0.299498 -0.105315
v -0.076461 -0.298521 -0.103938
v -0.075218 -0.299841 -0.106940
v -0.062328 -0.299498 -0.102618
v -0.062472 -0.298521 -0.101155
v -0.062158 -0.299841 -0.104342
v 0.062328 -0.299498 -0.102618
v 0.062472 -0.298521 -0.101155
v 0.062158 -0.299841 -0.104342
v 0.075890 -0.299498 -0.105315
v 0.076461 -0.298521 -0.103938
v 0.087156 -0.299498 -0.112843
v 0.075217 -0.299841 -0.106940
v 0.085912 -0.299841 -0.114086
v 0.093058 -0.299841 -0.124781
v 0.094683 -0.299498 -0.124108
v 0.095656 -0.299841 -0.137840
v 0.097381 -0.299498 -0.137670
v 0.095656 -0.299841 -0.295654
v 0.097381 -0.299498 -0.295654
v 0.095656 -0.299498 -0.297379
v 0.097424 -0.299084 -0.297422
v 0.095656 -0.298521 -0.298842
v 0.095656 -0.297059 -0.299819
v 0.097334 -0.298292 -0.298612
v -0.095656 -0.298521 -0.298841
v -0.095656 -0.297059 -0.299819
v -0.095656 -0.295334 -0.300162
v -0.095656 -0.137520 -0.300162
v 0.095656 -0.295334 -0.300162
v 0.097381 -0.295334 -0.299819
v 0.095656 -0.137520 -0.300162
v 0.097381 -0.137350 -0.299819
v 0.093058 -0.124461 -0.300162
v 0.094683 -0.123788 -0.299819
v 0.085912 -0.113766 -0.300162
v 0.087156 -0.112522 -0.299819
v 0.075217 -0.106620 -0.300162
v 0.075890 -0.104995 -0.299819
v 0.062158 -0.104022 -0.300162
v 0.062328 -0.102297 -0.299819
v -0.062158 -0.104022 -0.300162
v -0.062328 -0.102297 -0.299819
v -0.075218 -0.106620 -0.300162
v -0.075891 -0.104995 -0.299819
v -0.085912 -0.113766 -0.300162
v -0.087156 -0.112522 -0.299819
v -0.093058 -0.124461 -0.300162
v -0.094683 -0.123788 -0.299819
v -0.097381 -0.137350 -0.299819
v -0.088210 -0.111468 -0.298841
v -0.076461 -0.103617 -0.298841
v -0.076842 -0.102697 -0.297379
v -0.062472 -0.100835 -0.298841
v -0.062568 -0.099858 -0.297379
v 0.062472 -0.100835 -0.298841
v 0.062568 -0.099858 -0.297379
v 0.076461 -0.103617 -0.298841
v 0.076842 -0.102697 -0.297379
v 0.088210 -0.111468 -0.298842
v 0.088914 -0.110764 -0.297379
v 0.096060 -0.123217 -0.298842
v 0.096981 -0.122836 -0.297379
v 0.098843 -0.137206 -0.298842
v 0.099820 -0.137110 -0.297379
v 0.098843 -0.295334 -0.298842
v 0.098614 -0.297012 -0.298612
v 0.099820 -0.295334 -0.297379
v 0.100163 -0.295334 -0.295654
v 0.099406 -0.297102 -0.297422
v 0.099820 -0.297059 -0.295654
v 0.098614 -0.298292 -0.297333
v 0.098258 -0.297936 -0.298257
v 0.098843 -0.298521 -0.295654
v 0.098843 -0.298521 -0.137526
v 0.099820 -0.297059 -0.137430
v 0.096060 -0.298521 -0.123537
v 0.096981 -0.297059 -0.123156
v 0.088210 -0.298521 -0.111788
v 0.088914 -0.297059 -0.111084
v 0.089162 -0.295334 -0.110837
v 0.076842 -0.297059 -0.103017
v 0.076976 -0.295334 -0.102694
v 0.062568 -0.297059 -0.100178
v 0.062602 -0.295334 -0.099835
v -0.062568 -0.297059 -0.100178
v -0.062602 -0.295334 -0.099835
v -0.076842 -0.297059 -0.103017
v -0.076976 -0.295334 -0.102694
v -0.088915 -0.297059 -0.111084
v -0.089162 -0.295334 -0.110836
v -0.096981 -0.297059 -0.123156
v -0.097304 -0.295334 -0.123022
v -0.099820 -0.297059 -0.137430
v -0.099820 -0.297059 -0.295654
v -0.076976 -0.107297 -0.102694
v -0.062602 -0.104396 -0.099835
v -0.062602 -0.102528 -0.100207
v 0.062602 -0.104396 -0.099835
v 0.062602 -0.102528 -0.100207
v 0.076976 -0.107297 -0.102694
v 0.076976 -0.105413 -0.103069
v 0.089162 -0.115499 -0.110836
v 0.089162 -0.113592 -0.111216
v 0.097304 -0.127719 -0.123022
v 0.097304 -0.125799 -0.123404
v 0.097932 -0.125858 -0.126178
v 0.097304 -0.295334 -0.123022
v 0.100163 -0.295334 -0.137396
v 0.100163 -0.137076 -0.137396
v 0.100163 -0.137076 -0.295654
v 0.097304 -0.122702 -0.295654
v 0.089162 -0.110516 -0.295654
v 0.097304 -0.122702 -0.128039
v 0.097304 -0.123084 -0.126119
v 0.089162 -0.110516 -0.115820
v 0.089162 -0.110896 -0.113913
v 0.076976 -0.102374 -0.107617
v 0.076976 -0.102749 -0.105733
v 0.062602 -0.099515 -0.104716
v 0.076976 -0.102374 -0.295654
v 0.062602 -0.099515 -0.295654
v -0.062602 -0.099515 -0.295654
v -0.062602 -0.099515 -0.104716
v -0.062602 -0.099886 -0.102848
v -0.062602 -0.100944 -0.101265
v 0.062602 -0.099886 -0.102848
v 0.062602 -0.100944 -0.101265
v 0.076976 -0.103816 -0.104136
v 0.089162 -0.111976 -0.112296
v 0.097304 -0.124171 -0.124492
v 0.097424 -0.297102 -0.299405
vn -0.9266 -0.0948 0.3640
vn -0.9822 0.1264 0.1392
vn -0.9999 0.0062 0.0153
vn -0.9995 -0.0039 0.0313
vn -0.9997 0.0158 0.0158
vn -1.0000 -0.0022 -0.0022
vn -0.9995 0.0313 -0.0039
vn -0.9996 0.0165 0.0219
vn -0.9250 0.3714 0.0807
vn -0.9268 0.3628 -0.0970
vn -0.9217 0.3880 0.0007
vn -0.9902 0.0986 0.0986
vn -0.8977 0.4071 0.1686
vn -0.8977 0.1686 0.4071
vn -0.9902 0.0986 0.0987
vn -0.9217 0.0007 0.3880
vn -0.9090 0.2947 0.2947
vn -0.7854 0.4006 0.4719
vn -0.9067 0.2986 0.2978
vn -0.8977 0.1687 0.4071
vn -0.7069 0.2801 0.6494
vn -0.8953 0.1729 0.4105
vn -0.9216 0.0007 0.3881
vn -0.3503 0.2805 0.8936
vn -0.7899 0.2456 0.5618
vn -0.7039 0.0015 0.7103
vn -0.4413 0.5455 0.7125
vn -0.8129 0.4187 0.4048
vn -0.7950 0.2322 0.5605
vn -0.4851 0.8131 0.3217
vn -0.8240 0.5163 0.2332
vn -0.5076 0.6093 0.6092
vn -0.7975 0.5611 0.2217
vn -0.9273 0.2797 0.2486
vn -0.8174 0.4074 0.4073
vn -0.3889 0.9212 -0.0135
vn -0.7811 0.6237 -0.0298
vn -0.4779 0.8116 0.3361
vn -0.7071 0.7070 -0.0111
vn -0.9181 0.3868 0.0865
vn -0.7950 0.5605 0.2321
vn -0.6604 0.7394 0.1311
vn -0.3802 0.9249 0.0088
vn -0.7031 0.7111 -0.0019
vn -0.8853 0.4425 0.1432
vn -0.7033 0.7109 0.0097
vn -0.9219 0.3875 -0.0020
vn -0.3620 0.8430 -0.3980
vn -0.7495 0.6409 -0.1655
vn -0.3800 0.9250 -0.0019
vn -0.6573 0.6401 -0.3977
vn -0.9378 0.3050 -0.1660
vn -0.7031 0.7111 -0.0020
vn -0.8523 0.3395 -0.3980
vn -0.9873 -0.0552 -0.1492
vn -0.9219 0.3874 -0.0021
vn -0.5439 0.6669 -0.5092
vn -0.6375 0.2771 -0.7189
vn -0.8518 0.3525 -0.3876
vn -0.6473 0.2536 -0.7188
vn -0.8611 -0.0789 -0.5022
vn -0.9236 0.0137 -0.3831
vn -0.9623 0.1930 -0.1915
vn -0.9995 0.0313 -0.0040
vn -0.7067 0.0100 -0.7074
vn -0.8156 0.1947 -0.5450
vn -0.9236 0.0152 -0.3831
vn -0.9237 -0.0016 -0.3831
vn -0.8726 -0.3453 -0.3453
vn -0.6740 -0.0692 -0.7355
vn -0.8231 -0.4022 -0.4009
vn -0.9255 0.0026 -0.3786
vn -0.3825 0.0046 -0.9239
vn -0.5449 0.1951 -0.8155
vn -0.7067 0.0114 -0.7074
vn -0.4009 -0.4022 -0.8231
vn -0.7356 -0.0692 -0.6739
vn -0.3783 0.0021 -0.9257
vn -0.3142 -0.3972 -0.8623
vn -0.5218 -0.6088 -0.5976
vn -0.6845 -0.2501 -0.6848
vn -0.6676 -0.2761 -0.6914
vn -0.5774 -0.5773 -0.5773
vn -0.8726 -0.3454 -0.3454
vn -0.3972 -0.8623 -0.3142
vn -0.6088 -0.5976 -0.5218
vn -0.2728 -0.6683 -0.6920
vn -0.6676 -0.6914 -0.2761
vn -0.7356 -0.6739 -0.0693
vn -0.4009 -0.8231 -0.4022
vn -0.3783 -0.9257 0.0021
vn -0.8231 -0.4009 -0.4022
vn -0.6740 -0.7355 -0.0692
vn -0.9256 -0.3786 0.0026
vn -0.4022 -0.8231 -0.4009
vn -0.0688 -0.6739 -0.7356
vn 0.0024 -0.9257 -0.3782
vn -0.4279 -0.9004 -0.0786
vn -0.0781 -0.9004 -0.4280
vn 0.0144 -0.9998 0.0141
vn -0.1892 -0.9624 0.1951
vn -0.0017 -1.0000 -0.0014
vn -0.3825 -0.9240 0.0060
vn -0.5431 -0.8167 0.1951
vn -0.3825 -0.9239 0.0046
vn -0.7067 -0.7074 0.0114
vn -0.6353 -0.7672 -0.0882
vn -0.3505 -0.9276 0.1294
vn -0.6491 -0.7119 0.2681
vn -0.3401 -0.9360 -0.0910
vn -0.0041 -0.9999 -0.0159
vn -0.3514 -0.9250 0.1448
vn -0.6177 -0.7706 0.1570
vn -0.2742 -0.9274 0.2544
vn -0.4969 -0.7116 0.4968
vn -0.3480 -0.9363 0.0475
vn -0.0102 -0.9999 -0.0134
vn -0.2692 -0.9247 0.2691
vn -0.5108 -0.7700 0.3823
vn -0.1551 -0.9277 0.3397
vn -0.2682 -0.7119 0.6491
vn 0.0134 -0.9999 0.0101
vn -0.0474 -0.9363 0.3480
vn -0.2691 -0.9247 0.2691
vn -0.1294 -0.9276 0.3505
vn 0.0856 -0.7660 0.6371
vn -0.2681 -0.7119 0.6491
vn 0.0159 -0.9999 0.0041
vn 0.0895 -0.9358 0.3411
vn -0.1448 -0.9250 0.3514
vn 0.1950 -0.8170 0.5426
vn 0.0057 -0.9239 0.3825
vn 0.0141 -0.7075 0.7066
vn 0.1951 -0.9625 0.1886
vn -0.0018 -1.0000 0.0013
vn 0.0075 -0.9239 0.3825
vn -0.0855 -0.7660 0.6371
vn 0.1294 -0.9276 0.3504
vn 0.2681 -0.7119 0.6491
vn -0.0894 -0.9357 0.3411
vn -0.0159 -0.9999 0.0041
vn 0.1448 -0.9250 0.3513
vn 0.4906 -0.7066 0.5100
vn 0.0947 -0.8736 0.4773
vn 0.2691 -0.9247 0.2692
vn 0.0475 -0.9363 0.3480
vn -0.0134 -0.9999 0.0101
vn 0.2691 -0.9247 0.2691
vn -0.0000 -1.0000 -0.0000
vn -0.0003 -1.0000 0.0013
vn -0.0014 -1.0000 -0.0009
vn 0.3474 -0.9239 0.1602
vn -0.0330 -0.9940 0.1038
vn 0.0003 -1.0000 0.0001
vn 0.3842 -0.9230 0.0216
vn 0.0093 -0.9940 0.1087
vn 0.0017 -1.0000 -0.0000
vn 0.3827 -0.9239 -0.0006
vn 0.1914 -0.9623 -0.1935
vn 0.0015 -1.0000 -0.0018
vn 0.0782 -0.9004 -0.4280
vn 0.4279 -0.9004 -0.0786
vn -0.0144 -0.9998 0.0141
vn -0.0005 -0.9239 -0.3826
vn -0.1933 -0.9623 -0.1914
vn -0.0015 -1.0000 -0.0019
vn 0.0689 -0.6739 -0.7356
vn 0.4022 -0.8231 -0.4009
vn -0.0025 -0.9257 -0.3782
vn -0.0003 -0.7071 -0.7071
vn -0.1951 -0.8155 -0.5449
vn -0.0018 -0.9239 -0.3827
vn 0.4022 -0.4009 -0.8231
vn 0.0689 -0.7356 -0.6739
vn -0.0024 -0.3782 -0.9257
vn -0.1951 -0.5464 -0.8145
vn -0.0017 -0.3827 -0.9239
vn -0.0689 -0.7356 -0.6739
vn -0.4022 -0.4009 -0.8231
vn 0.0025 -0.3782 -0.9257
vn -0.0782 -0.4280 -0.9004
vn -0.4279 -0.0785 -0.9004
vn 0.0144 0.0141 -0.9998
vn -0.1933 -0.1932 -0.9619
vn -0.0006 -0.3826 -0.9239
vn -0.0015 -0.0019 -1.0000
vn -0.0017 -0.0014 -1.0000
vn -0.1913 0.1951 -0.9619
vn -0.3824 0.0061 -0.9240
vn -0.0000 -0.0000 -1.0000
vn -0.0008 -0.0022 -1.0000
vn 0.4279 -0.0786 -0.9004
vn 0.0781 -0.4279 -0.9004
vn -0.0144 0.0141 -0.9998
vn 0.1892 0.1951 -0.9624
vn 0.0017 -0.0014 -1.0000
vn 0.3825 0.0060 -0.9240
vn 0.3401 -0.0910 -0.9360
vn 0.0041 -0.0159 -0.9999
vn 0.3513 0.1448 -0.9250
vn 0.2818 0.2595 -0.9237
vn 0.0833 -0.0703 -0.9940
vn 0.0002 0.0002 -1.0000
vn 0.1602 0.3474 -0.9239
vn 0.1038 -0.0330 -0.9940
vn 0.0001 0.0003 -1.0000
vn 0.0231 0.3841 -0.9230
vn 0.1087 0.0093 -0.9940
vn -0.0000 0.0014 -1.0000
vn -0.0057 0.3826 -0.9239
vn -0.1938 0.1914 -0.9622
vn -0.0000 0.0013 -1.0000
vn 0.0894 0.3411 -0.9358
vn 0.0159 0.0041 -0.9999
vn -0.1448 0.3513 -0.9250
vn -0.0145 -0.0085 -0.9999
vn -0.3037 0.1780 -0.9360
vn -0.1448 0.3514 -0.9250
vn -0.0101 -0.0134 -0.9999
vn -0.3480 0.0475 -0.9363
vn -0.2692 0.2691 -0.9247
vn -0.0041 -0.0159 -0.9999
vn -0.3401 -0.0910 -0.9360
vn -0.3514 0.1448 -0.9250
vn -0.3505 0.1294 -0.9276
vn -0.6353 -0.0882 -0.7672
vn -0.6491 0.2681 -0.7119
vn -0.2742 0.2544 -0.9274
vn -0.6177 0.1570 -0.7706
vn -0.4968 0.4968 -0.7116
vn -0.1570 0.6177 -0.7706
vn -0.2544 0.2742 -0.9274
vn -0.2471 0.8242 -0.5096
vn -0.4827 0.5007 -0.7185
vn -0.6519 0.6519 -0.3874
vn 0.0758 0.8628 -0.4998
vn -0.2537 0.6473 -0.7188
vn -0.3525 0.8518 -0.3876
vn 0.0855 0.6371 -0.7660
vn -0.1294 0.3505 -0.9276
vn -0.2681 0.6491 -0.7119
vn -0.0170 0.9236 -0.3830
vn -0.1961 0.8153 -0.5448
vn -0.0142 0.7067 -0.7074
vn -0.1950 0.5426 -0.8170
vn -0.0057 0.3825 -0.9239
vn -0.0141 0.7066 -0.7074
vn 0.0318 0.9265 -0.3749
vn 0.3862 0.7071 -0.5924
vn 0.0142 0.7067 -0.7074
vn 0.0283 0.7107 -0.7030
vn 0.2691 0.4041 -0.8743
vn 0.0075 0.3826 -0.9239
vn 0.3655 0.8504 -0.3786
vn 0.6280 0.5057 -0.5915
vn 0.2682 0.6491 -0.7118
vn 0.5108 0.3823 -0.7700
vn 0.1551 0.3397 -0.9277
vn 0.2682 0.6491 -0.7119
vn 0.6634 0.6456 -0.3783
vn 0.7740 0.2261 -0.5914
vn 0.4969 0.4969 -0.7115
vn 0.6177 0.1570 -0.7706
vn 0.2742 0.2544 -0.9274
vn 0.4969 0.4968 -0.7115
vn 0.8611 -0.0789 -0.5022
vn 0.6473 0.2537 -0.7188
vn 0.8518 0.3525 -0.3876
vn 0.6353 -0.0882 -0.7672
vn 0.3505 0.1294 -0.9276
vn 0.6491 0.2681 -0.7119
vn 0.8144 0.1947 -0.5468
vn 0.7067 0.0100 -0.7074
vn 0.9236 0.0151 -0.3831
vn 0.5431 0.1951 -0.8167
vn 0.3825 0.0046 -0.9239
vn 0.7067 0.0114 -0.7074
vn 0.7356 -0.0693 -0.6739
vn 0.4009 -0.4022 -0.8231
vn 0.3783 0.0021 -0.9257
vn 0.8231 -0.4022 -0.4009
vn 0.6740 -0.0692 -0.7355
vn 0.9256 0.0026 -0.3786
vn 0.9237 -0.0016 -0.3830
vn 1.0000 -0.0022 -0.0022
vn 0.8726 -0.3453 -0.3453
vn 0.9619 0.1929 -0.1935
vn 0.9236 0.0138 -0.3831
vn 0.9995 0.0313 -0.0039
vn 0.6740 -0.7355 -0.0692
vn 0.8231 -0.4009 -0.4022
vn 0.9256 -0.3786 0.0026
vn 0.9237 -0.3830 -0.0016
vn 0.8726 -0.3454 -0.3454
vn 0.6676 -0.6914 -0.2762
vn 0.5774 -0.5773 -0.5774
vn 0.6676 -0.2762 -0.6914
vn 0.5774 -0.5773 -0.5773
vn 0.3972 -0.3142 -0.8623
vn 0.6088 -0.5218 -0.5976
vn 0.2728 -0.6920 -0.6683
vn 0.3141 -0.8623 -0.3972
vn 0.5217 -0.5976 -0.6088
vn 0.6844 -0.6848 -0.2502
vn 0.4009 -0.8231 -0.4022
vn 0.7356 -0.6739 -0.0692
vn 0.3783 -0.9257 0.0021
vn 0.9237 -0.3831 -0.0001
vn 0.8154 -0.5448 -0.1959
vn 0.7072 -0.7070 -0.0018
vn 0.7072 -0.7071 -0.0004
vn 0.5449 -0.8154 -0.1953
vn 0.3828 -0.9238 -0.0021
vn 0.9267 -0.3747 0.0282
vn 0.7071 -0.5924 0.3862
vn 0.7067 -0.7074 0.0114
vn 0.7108 -0.7029 0.0255
vn 0.4041 -0.8743 0.2691
vn 0.3825 -0.9239 0.0061
vn 0.5439 -0.5092 0.6669
vn 0.6375 -0.7189 0.2771
vn 0.8518 -0.3876 0.3525
vn 0.6484 -0.7069 0.2827
vn 0.2708 -0.8737 0.4041
vn 0.3514 -0.9250 0.1448
vn 0.6455 -0.3784 0.6634
vn 0.2261 -0.5914 0.7740
vn 0.4968 -0.7115 0.4969
vn 0.6945 0.0089 0.7195
vn 0.2963 -0.2185 0.9298
vn 0.6519 -0.3873 0.6519
vn 0.9171 0.0088 0.3985
vn 0.6299 -0.2185 0.7453
vn 0.8518 -0.3875 0.3525
vn -0.0655 -0.1564 0.9855
vn 0.3396 -0.3979 0.8523
vn 0.3799 -0.0019 0.9250
vn -0.0758 -0.4998 0.8628
vn 0.2537 -0.7188 0.6473
vn 0.3524 -0.3876 0.8518
vn 0.1943 -0.1940 0.9616
vn 0.0170 -0.3831 0.9235
vn 0.0203 -0.0018 0.9998
vn 0.1955 -0.5471 0.8139
vn 0.0124 -0.7075 0.7066
vn 0.0188 -0.3831 0.9235
vn -0.3395 -0.3980 0.8523
vn 0.0655 -0.1564 0.9855
vn -0.3800 -0.0019 0.9250
vn -0.2536 -0.7188 0.6473
vn 0.0758 -0.4998 0.8628
vn -0.3525 -0.3876 0.8518
vn -0.6401 -0.3977 0.6573
vn -0.2983 -0.1724 0.9388
vn -0.7031 -0.0020 0.7111
vn -0.4827 -0.7185 0.5007
vn -0.2471 -0.5096 0.8242
vn -0.6519 -0.3874 0.6519
vn -0.8429 -0.3980 0.3620
vn -0.6330 -0.1748 0.7542
vn -0.9219 -0.0021 0.3875
vn -0.8241 -0.5096 0.2471
vn -0.5007 -0.7185 0.4827
vn -0.9873 -0.1493 -0.0552
vn -0.8523 -0.3979 0.3396
vn -0.9219 -0.0021 0.3874
vn -0.8611 -0.5022 -0.0789
vn -0.6473 -0.7188 0.2537
vn -0.8518 -0.3875 0.3525
vn -0.9619 -0.1935 0.1929
vn -0.9236 -0.3831 0.0138
vn -0.8144 -0.5467 0.1947
vn -0.7067 -0.7074 0.0100
vn -0.9236 -0.3831 0.0151
vn -0.9237 -0.3830 -0.0016
vn -0.7033 0.0097 0.7109
vn -0.8853 0.1432 0.4425
vn -0.9219 -0.0020 0.3875
vn -0.3802 0.0089 0.9249
vn -0.6604 0.1312 0.7394
vn -0.7031 -0.0019 0.7111
vn -0.0205 0.0073 0.9998
vn -0.3475 0.1090 0.9313
vn -0.3799 -0.0018 0.9250
vn 0.0544 0.2011 0.9781
vn -0.4673 0.3521 0.8109
vn -0.3806 0.0018 0.9247
vn 0.1188 0.0407 0.9921
vn -0.0250 0.3828 0.9235
vn -0.0204 0.0020 0.9998
vn 0.0196 0.0058 0.9998
vn -0.0185 0.0088 0.9998
vn -0.0203 -0.0018 0.9998
vn 0.0332 -0.0114 0.9994
vn 0.5145 0.0803 0.8537
vn 0.0270 0.3825 0.9236
vn 0.3475 0.1089 0.9313
vn 0.0205 0.0073 0.9998
vn 0.3799 -0.0018 0.9250
vn 0.3889 -0.0135 0.9212
vn 0.7811 -0.0298 0.6237
vn 0.4779 0.3361 0.8116
vn 0.6604 0.1311 0.7394
vn 0.3802 0.0088 0.9249
vn 0.7031 -0.0019 0.7111
vn 0.7071 -0.0111 0.7070
vn 0.9181 0.0865 0.3868
vn 0.7950 0.2321 0.5604
vn 0.8853 0.1432 0.4425
vn 0.7033 0.0097 0.7109
vn 0.9219 -0.0020 0.3875
vn 0.8977 0.1686 0.4071
vn 0.9217 0.0006 0.3880
vn 0.9902 0.0986 0.0987
vn 0.9996 0.0219 0.0165
vn 0.9250 0.0807 0.3714
vn 0.9268 -0.0970 0.3628
vn 0.9990 0.0057 0.0435
vn 0.8671 -0.2190 0.4474
vn 0.9236 -0.3830 0.0152
vn 1.0000 -0.0022 -0.0007
vn 0.9618 -0.1913 -0.1960
vn 0.9238 -0.3830 -0.0016
vn 0.9995 -0.0039 0.0313
vn 0.9997 0.0158 0.0158
vn 0.9266 0.3640 -0.0948
vn 0.9822 0.1392 0.1264
vn 0.9999 0.0153 0.0062
vn 0.9873 -0.0552 -0.1493
vn 0.8523 0.3396 -0.3979
vn 0.9219 0.3874 -0.0021
vn 0.7115 0.7026 0.0094
vn 0.9298 0.2964 -0.2185
vn 0.6519 0.6519 -0.3873
vn 0.7033 0.7109 0.0097
vn 0.8853 0.4425 0.1431
vn 0.9219 0.3875 -0.0020
vn 0.9217 0.3880 0.0007
vn 0.8977 0.4071 0.1686
vn 0.9902 0.0986 0.0986
vn 0.9181 0.3868 0.0865
vn 0.7071 0.7070 -0.0111
vn 0.7950 0.5604 0.2321
vn 0.7811 0.6237 -0.0298
vn 0.3889 0.9212 -0.0135
vn 0.4779 0.8116 0.3361
vn 0.3802 0.9249 0.0089
vn 0.6604 0.7394 0.1312
vn 0.7031 0.7111 -0.0019
vn 0.5145 0.8537 0.0804
vn 0.0332 0.9994 -0.0114
vn 0.0270 0.9235 0.3825
vn 0.0205 0.9998 0.0073
vn 0.3475 0.9313 0.1090
vn 0.3799 0.9250 -0.0018
vn 0.0325 0.9994 0.0084
vn 0.4474 0.8671 -0.2190
vn 0.0188 0.9235 -0.3830
vn 0.7495 0.6409 -0.1655
vn 0.3620 0.8430 -0.3980
vn 0.3800 0.9250 -0.0019
vn -0.0186 0.9998 -0.0016
vn -0.1964 0.9617 -0.1913
vn -0.0188 0.9236 -0.3830
vn 0.0185 0.9998 -0.0086
vn -0.0197 0.9998 -0.0057
vn 0.0204 0.9998 0.0019
vn 0.0655 0.9855 -0.1564
vn -0.3396 0.8523 -0.3979
vn -0.3799 0.9250 -0.0019
vn -0.3475 0.9313 0.1089
vn -0.0205 0.9998 0.0073
vn -0.3799 0.9250 -0.0018
vn -0.0332 0.9994 -0.0114
vn -0.5145 0.8537 0.0803
vn -0.0270 0.9236 0.3825
vn 0.1270 0.9323 0.3388
vn -0.0185 0.9998 0.0018
vn -0.0269 0.9236 0.3825
vn -0.0392 0.9287 0.3688
vn -0.5461 0.7353 0.4014
vn -0.0292 0.7068 0.7068
vn 0.1294 0.7325 0.6683
vn -0.0250 0.9237 0.3824
vn 0.5461 0.7353 0.4014
vn 0.0391 0.9287 0.3688
vn 0.0292 0.7068 0.7068
vn 0.0392 0.3687 0.9287
vn 0.5461 0.4014 0.7353
vn 0.1270 0.4196 0.8988
vn -0.0273 0.7070 0.7067
vn -0.0269 0.3826 0.9235
vn 0.4851 0.3217 0.8131
vn 0.8240 0.2332 0.5163
vn 0.5076 0.6092 0.6093
vn 0.8240 0.5163 0.2332
vn 0.4851 0.8131 0.3217
vn 0.5076 0.6093 0.6092
vn 0.7975 0.2217 0.5611
vn 0.9273 0.2486 0.2797
vn 0.8174 0.4073 0.4074
vn 0.9273 0.2797 0.2486
vn 0.7975 0.5611 0.2217
vn 0.8174 0.4074 0.4073
vn 0.9090 0.2947 0.2947
vn 0.0397 0.5750 0.8172
vn -0.4976 0.6233 0.6032
vn -0.4778 0.3362 0.8116
vn -0.9826 0.1552 0.1021
vn -0.9995 -0.0039 0.0314
vn -0.9220 0.0102 0.3871
vn -0.9273 -0.1013 0.3604
vn -0.9973 0.0368 0.0629
vn -0.9220 0.3871 0.0102
vn -0.9995 0.0314 -0.0039
vn -0.9826 0.1021 0.1552
vn -0.9791 0.1197 -0.1644
vn -0.9290 0.3511 -0.1170
vn -0.7975 0.2217 0.5611
vn -0.8174 0.4073 0.4074
vn -0.9273 0.2486 0.2797
vn -0.7071 -0.0111 0.7070
vn -0.7950 0.2321 0.5605
vn -0.9181 0.0865 0.3868
vn -0.3889 -0.0135 0.9212
vn -0.4779 0.3361 0.8116
vn -0.7811 -0.0298 0.6237
vn -0.4851 0.3217 0.8131
vn -0.5076 0.6092 0.6093
vn -0.8240 0.2332 0.5163
vn -0.4413 0.7126 0.5454
vn -0.7950 0.5605 0.2322
vn -0.8129 0.4048 0.4187
vn -0.7854 0.4719 0.4006
vn -0.9067 0.2978 0.2986
vn -0.3503 0.8936 0.2805
vn -0.7039 0.7103 0.0015
vn -0.7899 0.5618 0.2456
vn -0.7069 0.6494 0.2802
vn -0.9216 0.3881 0.0007
vn -0.8953 0.4105 0.1729
vn -0.7037 0.7104 -0.0082
vn -0.3807 0.9247 0.0018
vn -0.4009 0.9111 -0.0964
vn -0.9215 0.3883 -0.0094
vn -0.7172 0.6901 -0.0974
vn -0.2964 0.9297 -0.2185
vn -0.6519 0.6519 -0.3873
vn -0.6945 0.7195 0.0089
vn -0.6299 0.7453 -0.2185
vn -0.8518 0.3525 -0.3875
vn -0.9171 0.3985 0.0088
vn -0.8671 0.4474 -0.2190
vn -0.9236 0.0152 -0.3830
vn -0.9990 0.0435 0.0057
vn -0.6634 0.6456 -0.3784
vn -0.4969 0.4969 -0.7115
vn -0.7741 0.2261 -0.5914
vn -0.7071 0.3862 -0.5924
vn -0.9267 0.0282 -0.3747
vn -0.9618 -0.1960 -0.1913
vn -0.9237 -0.0016 -0.3830
vn -1.0000 -0.0007 -0.0021
vn -0.8154 -0.1958 -0.5448
vn -0.7072 -0.0018 -0.7070
vn -0.9237 -0.0001 -0.3831
vn -0.7653 0.0557 -0.6413
vn -0.6620 -0.2806 -0.6950
vn -0.9164 -0.2459 -0.3157
vn -0.5449 -0.1953 -0.8154
vn -0.3828 -0.0021 -0.9238
vn -0.7071 -0.0004 -0.7071
vn -0.3157 -0.2459 -0.9164
vn -0.6713 -0.2807 -0.6860
vn -0.6414 0.0557 -0.7652
vn -0.3971 -0.3142 -0.8623
vn -0.2728 -0.6920 -0.6683
vn -0.6088 -0.5218 -0.5976
vn -0.3142 -0.8623 -0.3971
vn -0.6845 -0.6848 -0.2501
vn -0.5218 -0.5976 -0.6088
vn -0.6415 -0.7651 0.0557
vn -0.6713 -0.6860 -0.2807
vn -0.3158 -0.9164 -0.2459
vn -0.9164 -0.3157 -0.2459
vn -0.6620 -0.6950 -0.2806
vn -0.7653 -0.6413 0.0557
vn -0.2459 -0.9164 -0.3158
vn -0.3030 -0.6693 -0.6784
vn 0.0560 -0.7653 -0.6412
vn -0.3060 -0.9513 0.0368
vn -0.3580 -0.8624 -0.3580
vn 0.0372 -0.9514 -0.3057
vn -0.3827 -0.9239 -0.0007
vn -0.0015 -1.0000 -0.0018
vn -0.1935 -0.9618 -0.1934
vn -0.7071 -0.7071 -0.0004
vn -0.3828 -0.9238 -0.0021
vn -0.5467 -0.8143 -0.1953
vn -0.7109 -0.7029 0.0255
vn -0.3826 -0.9239 0.0061
vn -0.4040 -0.8743 0.2691
vn -0.3842 -0.9230 0.0216
vn -0.0016 -1.0000 -0.0000
vn -0.0093 -0.9940 0.1087
vn -0.6484 -0.7068 0.2827
vn -0.3514 -0.9249 0.1448
vn -0.2708 -0.8737 0.4040
vn -0.3474 -0.9239 0.1602
vn -0.0002 -1.0000 0.0001
vn 0.0331 -0.9941 0.1038
vn -0.4906 -0.7065 0.5100
vn -0.2692 -0.9247 0.2692
vn -0.0948 -0.8736 0.4773
vn -0.1038 -0.9940 -0.0330
vn -0.0001 -1.0000 0.0002
vn -0.1602 -0.9239 0.3474
vn -0.2691 -0.8743 0.4041
vn -0.0075 -0.9239 0.3826
vn -0.0283 -0.7030 0.7107
vn -0.1087 -0.9940 0.0093
vn -0.0000 -1.0000 0.0013
vn -0.0231 -0.9230 0.3841
vn -0.0123 -0.7074 0.7067
vn -0.1953 -0.8139 0.5472
vn -0.0057 -0.9239 0.3826
vn -0.1938 -0.9617 0.1941
vn 0.0283 -0.7030 0.7107
vn 0.0075 -0.9239 0.3826
vn 0.2690 -0.8743 0.4040
vn 0.0231 -0.9230 0.3841
vn 0.1087 -0.9940 0.0093
vn 0.5108 -0.7700 0.3823
vn 0.2682 -0.7119 0.6491
vn 0.1551 -0.9277 0.3397
vn 0.1601 -0.9239 0.3474
vn 0.0001 -1.0000 0.0003
vn 0.1038 -0.9941 -0.0330
vn -0.0009 -1.0000 0.0014
vn 0.0021 -1.0000 -0.0010
vn -0.0003 -1.0000 -0.0023
vn 0.0016 -1.0000 -0.0000
vn -0.0013 -1.0000 0.0002
vn 0.0013 -1.0000 0.0002
vn -0.0001 -1.0000 0.0003
vn -0.0004 -1.0000 -0.0002
vn 0.0002 -1.0000 0.0004
vn -0.0003 -1.0000 0.0001
vn -0.0002 -1.0000 -0.0017
vn -0.0017 -1.0000 0.0003
vn 0.0008 -1.0000 -0.0022
vn -0.0013 -1.0000 0.0003
vn 0.0012 -1.0000 0.0006
vn -0.0003 -1.0000 0.0003
vn -0.0007 -1.0000 -0.0015
vn 0.3480 -0.9363 0.0475
vn 0.2692 -0.9247 0.2691
vn 0.0102 -0.9999 -0.0134
vn 0.3401 -0.9360 -0.0910
vn 0.3513 -0.9250 0.1448
vn 0.0042 -0.9999 -0.0159
vn 0.1913 -0.9619 0.1951
vn 0.0017 -1.0000 -0.0014
vn -0.0372 -0.9514 -0.3057
vn 0.3580 -0.8624 -0.3580
vn 0.3060 -0.9513 0.0369
vn 0.1950 -0.9619 -0.1913
vn 0.0018 -0.9239 -0.3826
vn 0.0003 -1.0000 -0.0019
vn -0.0560 -0.7653 -0.6412
vn 0.3030 -0.6693 -0.6784
vn 0.2459 -0.9164 -0.3157
vn 0.1950 -0.8155 -0.5449
vn 0.0015 -0.7071 -0.7071
vn 0.0005 -0.9239 -0.3827
vn 0.2459 -0.3158 -0.9164
vn 0.3030 -0.6785 -0.6692
vn -0.0560 -0.6412 -0.7653
vn 0.0006 -0.3827 -0.9239
vn 0.1950 -0.5434 -0.8165
vn 0.0560 -0.6412 -0.7653
vn -0.3030 -0.6784 -0.6693
vn -0.2459 -0.3157 -0.9164
vn 0.0372 -0.3058 -0.9514
vn -0.3580 -0.3580 -0.8624
vn -0.3060 0.0368 -0.9513
vn 0.0003 -0.0018 -1.0000
vn 0.0017 -0.3826 -0.9239
vn 0.1950 -0.1895 -0.9623
vn -0.1914 -0.1935 -0.9623
vn -0.0015 -0.0018 -1.0000
vn -0.3827 -0.0006 -0.9239
vn 0.0013 0.0002 -1.0000
vn -0.0013 0.0002 -1.0000
vn 0.0002 -0.0016 -1.0000
vn 0.0009 0.0014 -1.0000
vn 0.0015 -0.0018 -1.0000
vn -0.0021 -0.0010 -1.0000
vn 0.0003 -0.0023 -1.0000
vn -0.0016 -0.0000 -1.0000
vn 0.0001 0.0013 -1.0000
vn 0.0015 -0.0006 -1.0000
vn 0.0001 -0.0023 -1.0000
vn 0.3060 0.0368 -0.9513
vn 0.3580 -0.3580 -0.8624
vn -0.0372 -0.3057 -0.9514
vn 0.3827 -0.0007 -0.9239
vn 0.1935 -0.1934 -0.9618
vn 0.3842 0.0216 -0.9230
vn 0.0016 -0.0000 -1.0000
vn 0.0092 0.1087 -0.9940
vn 0.1780 0.3037 -0.9360
vn 0.3514 0.1448 -0.9250
vn -0.0085 0.0145 -0.9999
vn 0.0475 0.3480 -0.9363
vn 0.2691 0.2691 -0.9247
vn -0.0134 0.0101 -0.9999
vn -0.0895 0.3411 -0.9358
vn 0.1448 0.3514 -0.9250
vn -0.0159 0.0041 -0.9999
vn 0.1951 0.1913 -0.9619
vn 0.0075 0.3825 -0.9239
vn -0.0018 0.0013 -1.0000
vn -0.0231 0.3841 -0.9230
vn -0.1087 0.0093 -0.9940
vn 0.0703 0.0833 -0.9940
vn -0.0002 0.0002 -1.0000
vn -0.2595 0.2818 -0.9237
vn 0.0330 0.1038 -0.9940
vn -0.0003 0.0001 -1.0000
vn -0.3474 0.1602 -0.9239
vn -0.0093 0.1087 -0.9940
vn -0.3841 0.0216 -0.9230
vn -0.4041 0.2691 -0.8742
vn -0.3826 0.0061 -0.9239
vn -0.7109 0.0255 -0.7029
vn -0.2708 0.4040 -0.8737
vn -0.3514 0.1449 -0.9249
vn -0.6484 0.2827 -0.7069
vn -0.2827 0.6484 -0.7069
vn -0.1449 0.3515 -0.9249
vn -0.4040 0.2708 -0.8737
vn -0.3655 0.8503 -0.3786
vn -0.2682 0.6491 -0.7118
vn -0.6280 0.5057 -0.5915
vn -0.0318 0.9265 -0.3749
vn -0.0142 0.7066 -0.7074
vn -0.3863 0.7071 -0.5923
vn -0.0283 0.7107 -0.7030
vn -0.0075 0.3826 -0.9239
vn -0.2691 0.4040 -0.8743
vn 0.1955 0.8154 -0.5449
vn 0.0188 0.9235 -0.3831
vn 0.0124 0.7066 -0.7075
vn 0.0123 0.7067 -0.7074
vn 0.1953 0.5472 -0.8139
vn -0.0758 0.8628 -0.4998
vn 0.3525 0.8518 -0.3876
vn 0.2536 0.6473 -0.7188
vn -0.0856 0.6371 -0.7660
vn 0.2681 0.6491 -0.7119
vn 0.1294 0.3505 -0.9276
vn 0.2471 0.8242 -0.5096
vn 0.6519 0.6519 -0.3874
vn 0.4827 0.5007 -0.7185
vn 0.4906 0.5100 -0.7066
vn 0.2692 0.2692 -0.9247
vn 0.0947 0.4773 -0.8736
vn 0.5440 0.6669 -0.5092
vn 0.6375 0.2771 -0.7189
vn 0.6484 0.2827 -0.7069
vn 0.3514 0.1448 -0.9249
vn 0.2708 0.4040 -0.8737
vn 0.9267 0.0281 -0.3747
vn 0.7071 0.3863 -0.5923
vn 0.7109 0.0255 -0.7029
vn 0.3826 0.0061 -0.9239
vn 0.4040 0.2691 -0.8743
vn 0.9237 -0.0001 -0.3831
vn 0.7072 -0.0018 -0.7070
vn 0.8166 -0.1958 -0.5430
vn 0.7071 -0.0004 -0.7071
vn 0.3828 -0.0021 -0.9238
vn 0.5467 -0.1953 -0.8142
vn 0.6414 0.0557 -0.7651
vn 0.6713 -0.2807 -0.6860
vn 0.3158 -0.2459 -0.9164
vn 0.9164 -0.2459 -0.3158
vn 0.6620 -0.2806 -0.6950
vn 0.7653 0.0556 -0.6413
vn 1.0000 -0.0007 -0.0022
vn 0.9622 -0.1960 -0.1892
vn 0.7653 -0.6413 0.0557
vn 0.6620 -0.6950 -0.2806
vn 0.9164 -0.3157 -0.2459
vn 0.3142 -0.3971 -0.8623
vn 0.6845 -0.2501 -0.6848
vn 0.5218 -0.6088 -0.5976
vn 0.3972 -0.8623 -0.3142
vn 0.2729 -0.6683 -0.6920
vn 0.6088 -0.5976 -0.5218
vn 0.3157 -0.9164 -0.2459
vn 0.6713 -0.6860 -0.2807
vn 0.6414 -0.7652 0.0557
vn 0.8156 -0.5449 0.1947
vn 0.9236 -0.3831 0.0152
vn 0.7067 -0.7075 0.0100
vn 0.5449 -0.8155 0.1951
vn 0.7066 -0.7075 0.0114
vn 0.3825 -0.9240 0.0046
vn 0.8611 -0.5022 -0.0789
vn 0.6473 -0.7188 0.2536
vn 0.6353 -0.7672 -0.0882
vn 0.6491 -0.7119 0.2681
vn 0.3504 -0.9276 0.1294
vn 0.6634 -0.3784 0.6456
vn 0.4969 -0.7115 0.4968
vn 0.7740 -0.5914 0.2261
vn 0.6177 -0.7706 0.1570
vn 0.4968 -0.7116 0.4968
vn 0.2742 -0.9274 0.2544
vn 0.6670 -0.5092 0.5439
vn 0.3525 -0.3876 0.8518
vn 0.2772 -0.7189 0.6375
vn 0.7495 -0.1655 0.6409
vn 0.3800 -0.0019 0.9250
vn 0.3620 -0.3980 0.8429
vn 0.9378 -0.1660 0.3050
vn 0.7031 -0.0020 0.7110
vn 0.6573 -0.3977 0.6401
vn 0.0325 0.0083 0.9994
vn 0.0188 -0.3830 0.9235
vn 0.4474 -0.2190 0.8671
vn 0.0318 -0.3749 0.9265
vn 0.0142 -0.7074 0.7067
vn 0.3862 -0.5923 0.7071
vn -0.0186 -0.0016 0.9998
vn -0.0188 -0.3830 0.9236
vn -0.1963 -0.1886 0.9622
vn -0.0170 -0.3829 0.9236
vn -0.0141 -0.7074 0.7067
vn -0.1961 -0.5425 0.8169
vn -0.4474 -0.2190 0.8671
vn -0.0325 0.0084 0.9994
vn -0.3862 -0.5923 0.7071
vn -0.0142 -0.7074 0.7067
vn -0.0318 -0.3749 0.9265
vn -0.7453 -0.2185 0.6299
vn -0.3910 0.0094 0.9204
vn -0.6280 -0.5915 0.5057
vn -0.2682 -0.7118 0.6491
vn -0.3655 -0.3786 0.8503
vn -0.9298 -0.2185 0.2963
vn -0.6519 -0.3873 0.6519
vn -0.7115 0.0095 0.7026
vn -0.8503 -0.3785 0.3655
vn -0.6491 -0.7118 0.2682
vn -0.5057 -0.5915 0.6280
vn -0.9990 0.0057 0.0435
vn -0.9236 -0.3830 0.0152
vn -0.8671 -0.2190 0.4474
vn -0.9267 -0.3748 0.0281
vn -0.7067 -0.7074 0.0115
vn -0.7071 -0.5923 0.3863
vn -1.0000 -0.0022 -0.0007
vn -0.9622 -0.1892 -0.1960
vn -0.9237 -0.3831 -0.0001
vn -0.7072 -0.7070 -0.0018
vn -0.8166 -0.5430 -0.1958
vn -0.7172 -0.0974 0.6901
vn -0.9215 -0.0094 0.3883
vn -0.4009 -0.0964 0.9111
vn -0.3807 0.0018 0.9247
vn -0.7037 -0.0082 0.7104
vn -0.0423 -0.0856 0.9954
vn -0.0204 0.0019 0.9998
vn -0.3804 -0.0079 0.9248
vn -0.0332 -0.0114 0.9994
vn -0.0270 0.3825 0.9235
vn -0.5145 0.0804 0.8537
vn 0.0185 0.0018 0.9998
vn 0.0269 0.3825 0.9236
vn -0.1270 0.3388 0.9323
vn 0.0185 -0.0086 0.9998
vn 0.0204 0.0019 0.9998
vn -0.0197 -0.0057 0.9998
vn -0.0544 0.2010 0.9781
vn 0.3806 0.0019 0.9247
vn 0.4673 0.3521 0.8109
vn 0.3804 -0.0079 0.9248
vn 0.0423 -0.0856 0.9954
vn 0.3503 0.2805 0.8936
vn 0.7039 0.0015 0.7103
vn 0.7899 0.2456 0.5618
vn 0.7037 -0.0082 0.7104
vn 0.3807 0.0018 0.9247
vn 0.4009 -0.0964 0.9111
vn 0.7069 0.2802 0.6494
vn 0.9216 0.0007 0.3881
vn 0.8953 0.1729 0.4105
vn 0.9215 -0.0094 0.3883
vn 0.7172 -0.0974 0.6901
vn 0.9220 0.0102 0.3871
vn 0.9995 -0.0039 0.0314
vn 0.9826 0.1552 0.1021
vn 0.9791 -0.1644 0.1197
vn 0.9290 -0.1170 0.3511
vn 0.9873 -0.1492 -0.0552
vn 0.9219 -0.0021 0.3874
vn 0.8523 -0.3979 0.3395
vn 0.9624 -0.1914 0.1929
vn 0.9236 -0.3831 0.0137
vn 0.9826 0.1021 0.1552
vn 0.9995 0.0314 -0.0039
vn 0.9220 0.3871 0.0102
vn 0.9273 0.3604 -0.1013
vn 0.9973 0.0629 0.0368
vn 0.9990 0.0435 0.0057
vn 0.9236 0.0152 -0.3830
vn 0.8671 0.4474 -0.2190
vn 0.6330 0.7542 -0.1747
vn 0.9219 0.3874 -0.0020
vn 0.8429 0.3620 -0.3980
vn 0.7172 0.6901 -0.0974
vn 0.7039 0.7103 0.0015
vn 0.9215 0.3883 -0.0094
vn 0.8953 0.4105 0.1729
vn 0.9216 0.3881 0.0007
vn 0.7069 0.6494 0.2801
vn 0.7899 0.5618 0.2456
vn 0.3503 0.8936 0.2805
vn 0.4009 0.9111 -0.0964
vn 0.3807 0.9247 0.0018
vn 0.7037 0.7104 -0.0082
vn 0.4673 0.8109 0.3521
vn 0.3806 0.9247 0.0018
vn -0.0544 0.9781 0.2011
vn 0.0423 0.9954 -0.0856
vn 0.3804 0.9248 -0.0079
vn -0.0655 0.9855 -0.1564
vn 0.3799 0.9250 -0.0019
vn 0.3395 0.8523 -0.3980
vn 0.6945 0.7195 0.0089
vn 0.6519 0.6520 -0.3873
vn 0.2963 0.9298 -0.2184
vn 0.1943 0.9621 -0.1914
vn 0.0203 0.9998 -0.0018
vn 0.0170 0.9235 -0.3832
vn 0.0196 0.9998 0.0058
vn -0.0203 0.9998 -0.0018
vn -0.0185 0.9998 0.0088
vn -0.0325 0.9994 0.0083
vn -0.0188 0.9235 -0.3830
vn -0.4474 0.8671 -0.2190
vn -0.3804 0.9248 -0.0079
vn -0.0204 0.9998 0.0019
vn -0.0423 0.9954 -0.0856
vn 0.0544 0.9781 0.2010
vn -0.3806 0.9247 0.0019
vn -0.4673 0.8109 0.3521
vn 0.0251 0.9235 0.3828
vn 0.0204 0.9998 0.0020
vn -0.1188 0.9921 0.0407
vn 0.0397 0.8172 0.5750
vn -0.4778 0.8116 0.3362
vn -0.4976 0.6031 0.6234
vn 0.0273 0.7067 0.7070
vn 0.0269 0.9235 0.3826
vn -0.1270 0.8988 0.4196
vn 0.4976 0.6032 0.6233
vn 0.4778 0.8116 0.3362
vn -0.0397 0.8172 0.5750
vn -0.0397 0.5750 0.8172
vn 0.4778 0.3362 0.8116
vn 0.4976 0.6234 0.6031
vn 0.0251 0.3824 0.9237
vn -0.1294 0.6683 0.7325
vn 0.4413 0.5454 0.7126
vn 0.7950 0.2322 0.5605
vn 0.8129 0.4187 0.4048
vn 0.8129 0.4048 0.4187
vn 0.7950 0.5605 0.2322
vn 0.4413 0.7125 0.5455
vn 0.7854 0.4006 0.4719
vn 0.9067 0.2986 0.2978
vn 0.9067 0.2978 0.2986
vn 0.8977 0.4071 0.1687
vn 0.7854 0.4719 0.4007
vn -0.0391 0.3688 0.9287
vn -0.5461 0.4014 0.7353
vt 0.621521 0.159885
vt 0.544058 0.157403
vt 0.549197 0.148507
vt 0.621521 0.148500
vt 0.621517 0.025553
vt 0.549193 0.025560
vt 0.693849 0.025564
vt 0.698123 0.036954
vt 0.621526 0.036938
vt 0.698989 0.034460
vt 0.699000 0.036686
vt 0.544047 0.159630
vt 0.544925 0.159897
vt 0.699776 0.035900
vt 0.543272 0.158844
vt 0.538465 0.171080
vt 0.539347 0.171288
vt 0.535607 0.182670
vt 0.534736 0.182559
vt 0.537653 0.170432
vt 0.708312 0.059615
vt 0.705395 0.047488
vt 0.709169 0.059239
vt 0.704582 0.048137
vt 0.707441 0.059727
vt 0.703700 0.048345
vt 0.621525 0.059710
vt 0.621526 0.048324
vt 0.735551 0.607222
vt 0.727896 0.581825
vt 0.737370 0.605914
vt 0.726494 0.584211
vt 0.713728 0.565714
vt 0.712959 0.568807
vt 0.697232 0.559767
vt 0.712199 0.571854
vt 0.697023 0.563088
vt 0.523324 0.560000
vt 0.696814 0.566393
vt 0.523394 0.563325
vt 0.521341 0.563936
vt 0.523463 0.566592
vt 0.696608 0.569695
vt 0.521568 0.569487
vt 0.523514 0.569795
vt 0.520339 0.566995
vt 0.521585 0.566772
vt 0.266974 0.417138
vt 0.265747 0.419627
vt 0.265338 0.417462
vt 0.266748 0.422685
vt 0.266991 0.419850
vt 0.268869 0.420030
vt 0.268920 0.416830
vt 0.268800 0.423294
vt 0.265059 0.413957
vt 0.267016 0.413745
vt 0.268924 0.413635
vt 0.441680 0.413632
vt 0.441884 0.416932
vt 0.442091 0.420231
vt 0.456709 0.411748
vt 0.457465 0.414782
vt 0.455953 0.408708
vt 0.468993 0.397749
vt 0.470367 0.400086
vt 0.467616 0.395410
vt 0.477220 0.376861
vt 0.479005 0.378145
vt 0.482207 0.352018
vt 0.475432 0.375576
vt 0.480270 0.351666
vt 0.480269 0.119591
vt 0.482206 0.119239
vt 0.478331 0.119942
vt 0.477219 0.094397
vt 0.479004 0.093114
vt 0.475431 0.095682
vt 0.470367 0.071175
vt 0.468992 0.073509
vt 0.467615 0.075848
vt 0.455952 0.062552
vt 0.478332 0.351315
vt 0.456709 0.059512
vt 0.441884 0.054327
vt 0.441680 0.057628
vt 0.268920 0.054430
vt 0.268924 0.057624
vt 0.267016 0.057514
vt 0.265059 0.057303
vt 0.266974 0.054122
vt 0.521566 0.932772
vt 0.519650 0.929589
vt 0.521608 0.929377
vt 0.519651 0.572670
vt 0.521609 0.572882
vt 0.523519 0.572992
vt 0.523517 0.929267
vt 0.696402 0.572997
vt 0.722357 0.911031
vt 0.730184 0.611079
vt 0.523513 0.932464
vt 0.696401 0.929265
vt 0.696606 0.932568
vt 0.710685 0.924338
vt 0.711442 0.927380
vt 0.723735 0.913372
vt 0.731968 0.892467
vt 0.730179 0.891182
vt 0.735021 0.867254
vt 0.733081 0.866903
vt 0.735020 0.635008
vt 0.733081 0.635358
vt 0.731973 0.609794
vt 0.723737 0.588894
vt 0.722360 0.591235
vt 0.711443 0.574891
vt 0.710685 0.577934
vt 0.725112 0.586556
vt 0.733759 0.608510
vt 0.738900 0.634300
vt 0.736959 0.634655
vt 0.736959 0.867607
vt 0.738900 0.867962
vt 0.733755 0.893752
vt 0.735547 0.895042
vt 0.725111 0.915710
vt 0.726492 0.918057
vt 0.712198 0.930416
vt 0.697021 0.939175
vt 0.712957 0.933463
vt 0.696813 0.935870
vt 0.523393 0.938933
vt 0.523462 0.935667
vt 0.521340 0.938323
vt 0.523323 0.942259
vt 0.697230 0.942496
vt 0.268868 0.051229
vt 0.266748 0.048575
vt 0.268800 0.047965
vt 0.268730 0.044642
vt 0.266991 0.051409
vt 0.265747 0.051632
vt 0.521583 0.935487
vt 0.520337 0.935263
vt 0.519928 0.933096
vt 0.442091 0.051028
vt 0.442299 0.047725
vt 0.457465 0.056478
vt 0.471747 0.068830
vt 0.458224 0.053433
vt 0.473149 0.066449
vt 0.480795 0.091825
vt 0.458993 0.050342
vt 0.486094 0.118529
vt 0.482613 0.090520
vt 0.484145 0.118884
vt 0.486095 0.352728
vt 0.484146 0.352373
vt 0.480796 0.379433
vt 0.482614 0.380738
vt 0.471747 0.402432
vt 0.473150 0.404812
vt 0.458223 0.417827
vt 0.458993 0.420917
vt 0.442507 0.426853
vt 0.442299 0.423534
vt 0.268730 0.426618
vt 0.621521 0.171271
vt 0.621522 0.182657
vt 0.621522 0.194043
vt 0.534276 0.194044
vt 0.534276 0.291295
vt 0.533403 0.194009
vt 0.621522 0.291297
vt 0.534736 0.302780
vt 0.533403 0.291331
vt 0.535608 0.302668
vt 0.621521 0.302683
vt 0.538466 0.314258
vt 0.539348 0.314050
vt 0.621521 0.314069
vt 0.544048 0.325708
vt 0.544926 0.325441
vt 0.621520 0.325455
vt 0.544059 0.327935
vt 0.549199 0.336830
vt 0.442507 0.044407
vt 0.621520 0.336841
vt 0.621514 0.459782
vt 0.549193 0.459771
vt 0.621523 0.202510
vt 0.698987 0.204995
vt 0.693847 0.213891
vt 0.713728 0.936556
vt 0.727896 0.920439
vt 0.621523 0.191124
vt 0.698120 0.202501
vt 0.698998 0.202769
vt 0.703698 0.191110
vt 0.704581 0.191318
vt 0.707439 0.179729
vt 0.708311 0.179840
vt 0.621523 0.179738
vt 0.708771 0.168355
vt 0.709645 0.168390
vt 0.621522 0.168352
vt 0.740850 0.868317
vt 0.737366 0.896348
vt 0.740850 0.633945
vt 0.708772 0.071100
vt 0.621524 0.071095
vt 0.709646 0.071065
vt 0.710521 0.070957
vt 0.710521 0.168498
vt 0.709167 0.180216
vt 0.533880 0.303156
vt 0.532528 0.291438
vt 0.532528 0.193901
vt 0.537654 0.314906
vt 0.705393 0.191967
vt 0.543273 0.326494
vt 0.699773 0.203554
vt 0.533879 0.182183
vt 0.621527 0.025553
vt 0.519930 0.569163
vt 0.265338 0.053798
vt 0.621524 0.213895
s 0
usemtl multitexture
f 143/1/1 5/2/2 1/3/3
f 2/4/4 1/3/5 3/5/6
f 3/5/6 1/3/5 4/6/7
f 1/7/8 6/8/9 23/9/10
f 6/8/11 5/10/12 8/11/13
f 10/12/14 5/2/15 7/13/16
f 8/11/13 5/10/12 9/14/17
f 9/15/17 5/2/12 10/12/14
f 11/16/18 9/15/19 10/12/20
f 12/17/21 10/12/22 7/13/23
f 146/18/24 11/16/25 12/17/26
f 13/19/27 14/20/28 11/16/29
f 17/21/30 14/22/31 15/23/32
f 16/24/33 9/14/34 14/22/35
f 19/25/36 16/24/37 17/21/38
f 18/26/39 8/11/40 16/24/41
f 18/26/42 21/27/43 20/28/44
f 6/8/45 20/28/46 23/9/47
f 103/29/48 20/30/49 21/31/50
f 22/32/51 23/33/52 20/30/53
f 24/34/54 4/35/55 23/33/56
f 22/32/57 25/36/58 24/34/59
f 25/36/60 26/37/61 24/34/59
f 26/37/62 3/38/63 4/35/64
f 27/39/65 28/40/66 26/37/67
f 28/40/68 29/41/69 3/38/6
f 30/42/70 29/41/71 28/40/72
f 100/43/73 30/42/74 27/39/75
f 33/44/76 30/42/77 31/45/78
f 33/44/79 34/46/80 32/47/81
f 32/47/82 34/46/83 29/41/84
f 38/48/85 34/49/86 35/50/87
f 29/51/84 34/49/83 36/52/88
f 37/53/89 38/48/90 40/54/91
f 29/51/92 37/53/93 145/55/94
f 38/48/95 76/56/96 39/57/97
f 40/54/98 39/57/99 41/58/100
f 40/54/101 44/59/102 42/60/103
f 37/53/104 42/60/105 43/61/106
f 43/61/107 45/62/108 46/63/109
f 42/60/110 47/64/111 45/62/112
f 46/63/113 48/65/114 49/66/115
f 45/62/116 50/67/117 48/65/118
f 49/66/119 51/68/120 52/69/121
f 50/67/122 51/68/123 48/65/124
f 51/68/125 55/70/126 52/69/127
f 53/71/128 54/72/129 51/68/130
f 55/70/131 57/73/132 58/74/133
f 54/72/134 59/75/135 57/73/136
f 58/74/137 60/76/138 61/77/139
f 57/73/140 63/78/141 60/76/142
f 129/79/143 60/76/144 62/80/145
f 60/76/146 64/81/147 62/80/148
f 65/82/149 56/83/150 44/59/151
f 66/84/152 64/81/153 65/82/154
f 68/85/155 65/82/156 67/86/157
f 70/87/158 67/86/159 69/88/160
f 71/89/161 70/87/162 69/88/163
f 39/57/164 69/88/165 41/58/166
f 73/90/167 72/91/168 71/89/169
f 76/56/170 71/89/171 39/57/172
f 182/92/173 73/93/174 74/94/175
f 74/94/176 76/95/170 77/96/177
f 76/95/178 33/44/179 77/96/180
f 77/96/181 31/45/182 78/97/183
f 80/98/184 77/96/185 78/97/186
f 79/99/187 31/45/188 100/43/189
f 86/100/190 78/97/191 94/101/190
f 81/102/192 74/94/193 80/98/194
f 81/102/195 82/103/196 83/104/197
f 83/104/198 84/105/199 85/106/200
f 87/107/201 84/105/202 86/100/203
f 89/108/204 86/100/205 88/109/206
f 91/110/207 88/109/208 90/111/209
f 93/112/210 90/111/211 92/113/212
f 93/112/213 94/101/214 95/114/215
f 94/101/216 97/115/217 95/114/218
f 96/116/219 99/117/220 97/115/221
f 98/118/222 100/43/223 99/117/224
f 99/117/225 27/39/226 25/36/227
f 97/115/228 25/36/229 101/119/230
f 102/120/231 97/115/232 101/119/230
f 103/29/233 101/119/234 22/32/235
f 105/121/236 102/120/237 103/29/238
f 104/122/239 95/114/240 102/120/241
f 105/121/242 106/123/243 104/122/244
f 106/123/245 93/112/246 104/122/247
f 107/124/248 108/125/249 106/123/250
f 106/123/251 89/108/252 91/110/253
f 109/126/254 110/127/255 108/125/256
f 110/127/257 89/108/258 108/125/259
f 111/128/260 112/129/261 110/127/262
f 112/129/263 87/107/264 110/127/265
f 115/130/266 112/129/267 113/131/268
f 114/132/269 85/106/270 112/129/271
f 118/133/272 114/132/273 115/130/274
f 116/134/275 83/104/276 114/132/277
f 116/134/278 182/92/279 81/102/280
f 120/135/281 116/134/282 118/133/283
f 118/133/284 119/136/285 120/135/286
f 119/136/287 115/130/288 161/137/289
f 124/138/290 120/139/291 121/140/292
f 119/141/285 121/140/293 120/139/286
f 120/139/294 122/142/295 123/143/296
f 117/144/297 120/135/294 123/145/298
f 182/92/299 123/145/300 75/146/301
f 72/91/302 123/143/303 122/142/304
f 72/91/305 124/138/306 70/87/307
f 121/140/308 125/147/309 124/138/310
f 124/138/311 68/85/312 70/87/313
f 126/148/314 127/149/315 125/147/316
f 125/147/317 66/84/318 68/85/319
f 130/150/320 127/149/321 128/151/322
f 127/149/323 62/80/324 66/84/325
f 130/150/326 61/77/327 129/79/328
f 131/152/329 132/153/330 130/150/331
f 158/154/332 130/150/333 128/151/334
f 135/155/335 132/153/336 133/156/337
f 134/157/338 61/77/339 132/153/340
f 137/158/341 134/157/342 135/155/343
f 136/159/344 58/74/345 134/157/346
f 138/160/347 137/158/348 139/161/349
f 52/69/350 136/159/351 138/160/352
f 140/162/353 139/161/354 141/163/355
f 49/66/356 138/160/357 140/162/358
f 142/164/359 141/163/360 143/165/361
f 142/164/362 49/66/363 140/162/358
f 2/166/364 142/164/365 143/165/366
f 144/167/367 46/63/368 142/164/369
f 3/168/370 144/167/371 2/166/4
f 145/55/372 43/61/373 144/167/374
f 3/168/6 29/51/69 145/55/375
f 141/169/376 7/13/377 143/1/378
f 139/170/379 12/17/380 141/169/381
f 137/171/382 146/18/383 139/170/384
f 147/172/385 13/19/386 146/18/387
f 149/173/388 148/174/389 147/172/390
f 135/175/391 147/172/392 137/171/393
f 149/173/394 152/176/395 150/177/396
f 151/178/397 135/175/398 133/179/399
f 151/178/400 154/180/401 152/176/402
f 153/181/403 133/179/404 131/182/405
f 153/181/406 156/183/407 154/180/408
f 155/184/409 131/182/410 158/185/411
f 156/183/412 155/184/413 157/186/414
f 160/187/415 155/184/416 158/185/417
f 159/188/418 128/151/419 126/148/420
f 119/141/421 126/148/422 121/140/423
f 159/189/424 119/190/285 160/187/425
f 119/190/285 161/191/289 160/187/425
f 162/192/426 157/193/427 160/194/428
f 161/137/429 113/131/430 162/195/431
f 163/196/432 113/131/433 111/128/434
f 163/197/435 164/198/436 162/192/437
f 164/198/438 165/199/439 157/193/440
f 165/199/441 166/200/442 167/201/443
f 167/201/444 168/202/445 169/203/446
f 171/204/447 166/200/448 163/197/449
f 169/203/450 170/205/451 177/206/452
f 172/207/453 168/202/454 171/204/455
f 172/208/456 109/126/457 107/124/458
f 163/196/459 109/126/460 171/209/461
f 173/210/462 107/124/463 105/121/464
f 172/207/465 174/211/466 170/205/467
f 173/210/468 103/29/469 21/31/470
f 19/25/471 173/212/472 21/27/473
f 174/211/474 17/21/475 175/213/476
f 177/206/477 174/211/478 175/213/479
f 175/213/480 15/23/481 176/214/482
f 178/215/483 175/213/484 176/214/482
f 179/216/485 177/206/486 178/215/487
f 150/177/488 179/217/489 178/218/487
f 150/177/490 176/219/491 148/174/492
f 152/176/493 180/220/494 179/217/495
f 180/221/496 169/203/497 179/216/498
f 154/180/499 181/222/500 180/220/501
f 181/223/502 167/201/503 180/221/504
f 165/199/439 181/223/505 157/193/440
f 181/222/505 156/183/412 157/186/440
f 148/174/506 15/224/507 13/19/508
f 1/3/509 2/4/510 143/1/511
f 143/1/512 7/13/16 5/2/513
f 23/9/514 4/225/515 1/7/516
f 1/7/517 5/10/12 6/8/518
f 11/16/519 14/20/520 9/15/521
f 12/17/522 11/16/523 10/12/524
f 146/18/525 13/19/526 11/16/527
f 13/19/528 15/224/529 14/20/530
f 17/21/531 16/24/532 14/22/533
f 16/24/534 8/11/13 9/14/535
f 19/25/536 18/26/537 16/24/538
f 18/26/539 6/8/540 8/11/541
f 18/26/542 19/25/543 21/27/544
f 6/8/545 18/26/537 20/28/546
f 103/29/547 22/32/548 20/30/549
f 22/32/550 24/34/551 23/33/552
f 24/34/553 26/37/554 4/35/555
f 22/32/556 101/119/557 25/36/558
f 25/36/559 27/39/75 26/37/560
f 26/37/561 28/40/562 3/38/563
f 27/39/564 30/42/565 28/40/566
f 30/42/567 32/47/568 29/41/569
f 100/43/570 31/45/571 30/42/572
f 33/44/573 32/47/574 30/42/575
f 33/44/576 35/226/577 34/46/578
f 38/48/579 36/52/580 34/49/581
f 37/53/582 36/52/583 38/48/584
f 29/51/585 36/52/586 37/53/587
f 38/48/588 35/50/589 76/56/590
f 40/54/591 38/48/592 39/57/593
f 40/54/594 41/58/595 44/59/596
f 37/53/597 40/54/598 42/60/599
f 43/61/600 42/60/601 45/62/602
f 42/60/603 44/59/604 47/64/605
f 46/63/606 45/62/607 48/65/608
f 45/62/609 47/64/610 50/67/611
f 49/66/612 48/65/613 51/68/614
f 50/67/615 53/71/616 51/68/617
f 51/68/618 54/72/619 55/70/620
f 53/71/621 56/83/622 54/72/623
f 55/70/624 54/72/619 57/73/625
f 54/72/626 56/83/622 59/75/627
f 58/74/628 57/73/629 60/76/630
f 57/73/631 59/75/622 63/78/632
f 129/79/633 61/77/634 60/76/635
f 60/76/636 63/78/637 64/81/638
f 44/59/639 41/58/595 69/88/640
f 69/88/641 67/86/642 65/82/149
f 65/82/149 64/81/149 63/78/149
f 63/78/149 59/75/622 56/83/643
f 56/83/644 53/71/645 50/67/646
f 50/67/647 47/64/648 44/59/649
f 44/59/650 69/88/651 65/82/149
f 65/82/149 63/78/149 56/83/652
f 56/83/653 50/67/654 44/59/655
f 66/84/656 62/80/657 64/81/658
f 68/85/659 66/84/660 65/82/661
f 70/87/662 68/85/319 67/86/663
f 71/89/664 72/91/665 70/87/666
f 39/57/667 71/89/668 69/88/669
f 73/90/670 75/227/671 72/91/672
f 76/56/673 73/90/674 71/89/675
f 182/92/676 75/146/677 73/93/678
f 74/94/679 73/93/674 76/95/680
f 76/95/681 35/226/682 33/44/683
f 77/96/684 33/44/685 31/45/686
f 80/98/687 74/94/688 77/96/689
f 79/99/690 78/97/691 31/45/692
f 94/101/190 92/113/212 90/111/693
f 90/111/694 88/109/190 86/100/190
f 86/100/190 84/105/190 82/103/695
f 82/103/696 80/98/697 78/97/698
f 78/97/699 79/99/700 98/118/190
f 98/118/190 96/116/190 94/101/190
f 94/101/190 90/111/701 86/100/190
f 86/100/190 82/103/702 78/97/691
f 78/97/703 98/118/190 94/101/190
f 81/102/704 182/92/705 74/94/706
f 81/102/707 80/98/697 82/103/708
f 83/104/709 82/103/710 84/105/711
f 87/107/712 85/106/713 84/105/714
f 89/108/715 87/107/716 86/100/717
f 91/110/718 89/108/719 88/109/720
f 93/112/721 91/110/722 90/111/723
f 93/112/724 92/113/209 94/101/725
f 94/101/726 96/116/727 97/115/728
f 96/116/729 98/118/730 99/117/731
f 98/118/732 79/99/700 100/43/733
f 99/117/734 100/43/735 27/39/736
f 97/115/737 99/117/738 25/36/739
f 102/120/740 95/114/741 97/115/742
f 103/29/743 102/120/744 101/119/745
f 105/121/746 104/122/747 102/120/748
f 104/122/749 93/112/750 95/114/751
f 105/121/752 107/124/753 106/123/754
f 106/123/755 91/110/253 93/112/756
f 107/124/757 109/126/758 108/125/759
f 106/123/760 108/125/761 89/108/762
f 109/126/763 111/128/764 110/127/765
f 110/127/766 87/107/767 89/108/768
f 111/128/769 113/131/268 112/129/770
f 112/129/771 85/106/772 87/107/773
f 115/130/774 114/132/277 112/129/775
f 114/132/776 83/104/777 85/106/778
f 118/133/779 116/134/780 114/132/781
f 116/134/782 81/102/783 83/104/784
f 116/134/785 117/144/786 182/92/787
f 120/135/788 117/144/789 116/134/790
f 119/136/791 118/133/284 115/130/792
f 124/138/793 122/142/794 120/139/795
f 182/92/796 117/144/797 123/145/798
f 72/91/799 75/227/800 123/143/801
f 72/91/802 122/142/803 124/138/804
f 121/140/805 126/148/806 125/147/807
f 124/138/808 125/147/809 68/85/810
f 126/148/811 128/151/322 127/149/812
f 125/147/813 127/149/814 66/84/815
f 130/150/816 129/79/817 127/149/818
f 127/149/819 129/79/820 62/80/821
f 130/150/822 132/153/823 61/77/824
f 131/152/825 133/156/826 132/153/827
f 158/154/828 131/152/829 130/150/830
f 135/155/831 134/157/832 132/153/833
f 134/157/834 58/74/835 61/77/836
f 137/158/837 136/159/838 134/157/839
f 136/159/840 55/70/841 58/74/842
f 138/160/843 136/159/838 137/158/844
f 52/69/845 55/70/846 136/159/847
f 140/162/848 138/160/352 139/161/849
f 49/66/850 52/69/851 138/160/852
f 142/164/853 140/162/854 141/163/855
f 142/164/856 46/63/857 49/66/858
f 2/166/859 144/167/860 142/164/861
f 144/167/862 43/61/863 46/63/864
f 3/168/865 145/55/375 144/167/866
f 145/55/867 37/53/868 43/61/869
f 141/169/870 12/17/26 7/13/871
f 139/170/872 146/18/873 12/17/874
f 137/171/875 147/172/876 146/18/877
f 147/172/878 148/174/879 13/19/880
f 149/173/881 150/177/882 148/174/883
f 135/175/884 149/173/885 147/172/886
f 149/173/887 151/178/888 152/176/889
f 151/178/890 149/173/885 135/175/891
f 151/178/892 153/181/893 154/180/894
f 153/181/895 151/178/896 133/179/897
f 153/181/898 155/184/899 156/183/900
f 155/184/901 153/181/893 131/182/902
f 158/185/903 159/189/904 160/187/905
f 160/187/906 157/186/440 155/184/907
f 159/188/908 158/154/909 128/151/910
f 119/141/911 159/188/424 126/148/912
f 160/194/913 161/228/914 162/192/915
f 162/192/916 164/198/438 157/193/917
f 161/137/918 115/130/919 113/131/920
f 163/196/921 162/195/922 113/131/923
f 163/197/924 166/200/925 164/198/926
f 165/199/927 164/198/928 166/200/929
f 167/201/930 166/200/925 168/202/931
f 171/204/932 168/202/933 166/200/934
f 169/203/935 168/202/936 170/205/937
f 172/207/938 170/205/467 168/202/939
f 172/208/940 171/209/941 109/126/942
f 163/196/943 111/128/944 109/126/945
f 173/210/946 172/208/947 107/124/948
f 172/207/949 173/212/950 174/211/951
f 173/210/952 105/121/953 103/29/954
f 19/25/955 174/211/956 173/212/957
f 174/211/958 19/25/959 17/21/960
f 177/206/961 170/205/962 174/211/963
f 175/213/964 17/21/965 15/23/966
f 178/215/967 177/206/968 175/213/969
f 179/216/970 169/203/971 177/206/972
f 150/177/973 152/176/974 179/217/975
f 150/177/976 178/218/487 176/219/977
f 152/176/978 154/180/979 180/220/980
f 180/221/981 167/201/982 169/203/983
f 154/180/984 156/183/412 181/222/985
f 181/223/986 165/199/987 167/201/988
f 148/174/989 176/219/482 15/224/990
