# Blender 5.0.1
# www.blender.org

mtllib material.mtl
o edge_DF
v 0.100164 -0.137076 0.137396
v 0.100164 -0.295334 0.137396
v 0.100164 -0.295334 0.295654
v 0.100164 -0.137076 0.295654
v 0.097932 -0.125858 0.126178
v 0.097304 -0.122702 0.128039
v 0.097304 -0.127719 0.123022
v 0.097304 -0.123084 0.126119
v 0.097304 -0.124171 0.124492
v 0.097304 -0.125799 0.123404
v 0.089162 -0.113592 0.111216
v 0.089162 -0.115499 0.110836
v 0.076976 -0.105413 0.103069
v 0.089162 -0.111976 0.112296
v 0.076976 -0.103816 0.104136
v 0.089162 -0.110895 0.113913
v 0.076976 -0.102749 0.105733
v 0.089162 -0.110516 0.115820
v 0.076976 -0.102374 0.107617
v 0.089162 -0.110516 0.295654
v 0.076976 -0.102374 0.295654
v 0.088915 -0.110763 0.297379
v 0.097304 -0.122702 0.295654
v 0.096981 -0.122836 0.297379
v 0.096061 -0.123217 0.298841
v 0.099820 -0.137110 0.297379
v 0.098843 -0.137206 0.298841
v 0.099821 -0.295334 0.297379
v 0.099406 -0.297102 0.297422
v 0.098843 -0.295334 0.298841
v 0.097381 -0.295334 0.299818
v 0.098614 -0.297012 0.298612
v 0.097424 -0.297102 0.299404
v 0.098259 -0.297936 0.298256
v 0.097335 -0.298292 0.298612
v 0.098614 -0.298292 0.297333
v 0.098843 -0.298521 0.295654
v 0.097424 -0.299084 0.297422
v 0.095656 -0.299498 0.297379
v 0.097381 -0.299498 0.295654
v 0.095656 -0.299841 0.295654
v 0.097381 -0.299498 0.137670
v 0.098843 -0.298521 0.137526
v 0.095656 -0.299841 0.137840
v 0.094683 -0.299498 0.124108
v 0.096061 -0.298521 0.123537
v 0.093059 -0.299841 0.124781
v 0.087156 -0.299498 0.112842
v 0.088210 -0.298521 0.111788
v 0.085913 -0.299841 0.114086
v 0.075891 -0.299498 0.105315
v 0.076461 -0.298521 0.103938
v 0.075218 -0.299841 0.106940
v 0.062328 -0.299498 0.102617
v 0.062472 -0.298521 0.101155
v 0.062158 -0.299841 0.104342
v -0.062328 -0.299498 0.102617
v -0.062472 -0.298521 0.101155
v -0.062158 -0.299841 0.104342
v -0.075890 -0.299498 0.105315
v -0.076461 -0.298521 0.103938
v -0.087156 -0.299498 0.112842
v -0.075217 -0.299841 0.106940
v -0.085912 -0.299841 0.114086
v -0.093058 -0.299841 0.124781
v -0.094683 -0.299498 0.124108
v -0.095656 -0.299841 0.137840
v -0.097381 -0.299498 0.137670
v -0.095656 -0.299841 0.295654
v -0.097380 -0.299498 0.295654
v -0.095656 -0.299498 0.297379
v -0.097424 -0.299084 0.297422
v -0.095656 -0.298521 0.298841
v -0.095656 -0.297059 0.299818
v -0.097334 -0.298292 0.298612
v 0.095656 -0.298521 0.298841
v 0.095656 -0.297059 0.299818
v 0.095656 -0.295334 0.300161
v 0.095656 -0.137520 0.300161
v -0.095656 -0.295334 0.300162
v -0.097380 -0.295334 0.299818
v -0.095656 -0.137520 0.300162
v -0.097381 -0.137350 0.299818
v -0.093058 -0.124461 0.300162
v -0.094683 -0.123788 0.299818
v -0.085912 -0.113766 0.300162
v -0.087156 -0.112522 0.299818
v -0.075217 -0.106620 0.300162
v -0.075890 -0.104995 0.299818
v -0.062158 -0.104022 0.300162
v -0.062328 -0.102297 0.299818
v 0.062158 -0.104022 0.300162
v 0.062328 -0.102297 0.299818
v 0.075218 -0.106620 0.300162
v 0.075891 -0.104995 0.299818
v 0.085913 -0.113766 0.300161
v 0.087156 -0.112522 0.299818
v 0.093059 -0.124460 0.300161
v 0.094683 -0.123787 0.299818
v 0.097381 -0.137350 0.299818
v 0.088210 -0.111468 0.298841
v 0.076461 -0.103617 0.298841
v 0.076842 -0.102697 0.297379
v 0.062472 -0.100835 0.298841
v 0.062569 -0.099858 0.297379
v -0.062472 -0.100835 0.298841
v -0.062568 -0.099858 0.297379
v -0.076461 -0.103617 0.298841
v -0.076842 -0.102697 0.297379
v -0.088210 -0.111468 0.298841
v -0.088914 -0.110764 0.297379
v -0.096060 -0.123217 0.298841
v -0.096981 -0.122836 0.297379
v -0.098843 -0.137206 0.298841
v -0.099820 -0.137110 0.297379
v -0.098843 -0.295334 0.298841
v -0.098614 -0.297012 0.298612
v -0.099820 -0.295334 0.297379
v -0.100163 -0.295334 0.295654
v -0.099406 -0.297102 0.297422
v -0.099820 -0.297059 0.295654
v -0.098614 -0.298292 0.297333
v -0.098258 -0.297936 0.298256
v -0.098843 -0.298521 0.295654
v -0.098843 -0.298521 0.137526
v -0.099820 -0.297059 0.137430
v -0.096060 -0.298521 0.123537
v -0.096981 -0.297059 0.123156
v -0.088210 -0.298521 0.111788
v -0.088914 -0.297059 0.111084
v -0.089162 -0.295334 0.110836
v -0.076842 -0.297059 0.103017
v -0.076976 -0.295334 0.102694
v -0.062568 -0.297059 0.100178
v -0.062602 -0.295334 0.099835
v 0.062569 -0.297059 0.100178
v 0.062602 -0.295334 0.099835
v 0.076843 -0.297059 0.103017
v 0.076976 -0.295334 0.102694
v 0.088915 -0.297059 0.111084
v 0.089162 -0.295334 0.110836
v 0.096981 -0.297059 0.123156
v 0.097304 -0.295334 0.123022
v 0.099821 -0.297059 0.137430
v 0.099821 -0.297059 0.295654
v 0.076976 -0.107297 0.102694
v 0.062602 -0.104396 0.099835
v 0.062602 -0.102528 0.100206
v -0.062602 -0.104396 0.099835
v -0.062602 -0.102528 0.100207
v -0.076976 -0.107297 0.102694
v -0.076976 -0.105413 0.103069
v -0.089162 -0.115499 0.110836
v -0.089162 -0.113592 0.111216
v -0.097304 -0.127719 0.123022
v -0.097304 -0.125799 0.123404
v -0.097932 -0.125858 0.126178
v -0.097304 -0.295334 0.123022
v -0.100163 -0.295334 0.137396
v -0.100163 -0.137076 0.137396
v -0.100163 -0.137076 0.295654
v -0.097304 -0.122702 0.295654
v -0.089162 -0.110516 0.295654
v -0.097304 -0.122702 0.128039
v -0.097304 -0.123084 0.126119
v -0.089162 -0.110516 0.115820
v -0.089162 -0.110895 0.113913
v -0.076976 -0.102374 0.107617
v -0.076976 -0.102749 0.105733
v -0.062602 -0.099515 0.104716
v -0.076976 -0.102374 0.295654
v -0.062602 -0.099515 0.295654
v 0.062602 -0.099515 0.295654
v 0.062602 -0.099515 0.104716
v 0.062602 -0.099886 0.102848
v 0.062602 -0.100944 0.101265
v -0.062602 -0.099886 0.102848
v -0.062602 -0.100944 0.101265
v -0.076976 -0.103816 0.104136
v -0.089162 -0.111976 0.112296
v -0.097304 -0.124171 0.124492
v -0.097424 -0.297102 0.299404
vn 0.9266 -0.0948 -0.3640
vn 0.9822 0.1264 -0.1392
vn 0.9999 0.0062 -0.0153
vn 0.9995 -0.0039 -0.0313
vn 0.9997 0.0158 -0.0158
vn 1.0000 -0.0021 0.0021
vn 0.9995 0.0313 0.0039
vn 0.9996 0.0165 -0.0219
vn 0.9250 0.3714 -0.0807
vn 0.9268 0.3628 0.0970
vn 0.9217 0.3880 -0.0007
vn 0.9902 0.0986 -0.0986
vn 0.8977 0.4071 -0.1686
vn 0.8977 0.1686 -0.4071
vn 0.9217 0.0007 -0.3880
vn 0.9090 0.2947 -0.2947
vn 0.7854 0.4007 -0.4719
vn 0.9067 0.2986 -0.2978
vn 0.8977 0.1687 -0.4071
vn 0.7069 0.2801 -0.6494
vn 0.8953 0.1729 -0.4105
vn 0.9216 0.0007 -0.3881
vn 0.3503 0.2805 -0.8936
vn 0.7899 0.2456 -0.5618
vn 0.7039 0.0015 -0.7103
vn 0.4413 0.5455 -0.7125
vn 0.8129 0.4187 -0.4048
vn 0.7950 0.2322 -0.5605
vn 0.4851 0.8131 -0.3217
vn 0.8240 0.5163 -0.2332
vn 0.5076 0.6093 -0.6092
vn 0.7975 0.5611 -0.2217
vn 0.9273 0.2797 -0.2486
vn 0.8174 0.4074 -0.4073
vn 0.3889 0.9212 0.0135
vn 0.7811 0.6237 0.0298
vn 0.4779 0.8116 -0.3361
vn 0.7071 0.7070 0.0111
vn 0.9181 0.3868 -0.0865
vn 0.7950 0.5604 -0.2321
vn 0.6604 0.7394 -0.1311
vn 0.3802 0.9249 -0.0088
vn 0.7031 0.7111 0.0019
vn 0.8853 0.4425 -0.1432
vn 0.7033 0.7109 -0.0097
vn 0.9219 0.3875 0.0020
vn 0.3620 0.8430 0.3980
vn 0.7495 0.6410 0.1655
vn 0.3800 0.9250 0.0019
vn 0.6573 0.6401 0.3977
vn 0.9378 0.3050 0.1660
vn 0.7031 0.7111 0.0020
vn 0.8523 0.3395 0.3980
vn 0.9873 -0.0552 0.1492
vn 0.9219 0.3874 0.0021
vn 0.5439 0.6670 0.5092
vn 0.6375 0.2771 0.7189
vn 0.8518 0.3525 0.3876
vn 0.6473 0.2536 0.7188
vn 0.8611 -0.0789 0.5022
vn 0.9236 0.0137 0.3831
vn 0.9623 0.1930 0.1915
vn 0.9995 0.0313 0.0040
vn 0.7067 0.0100 0.7074
vn 0.8156 0.1947 0.5450
vn 0.9236 0.0152 0.3831
vn 0.9237 -0.0016 0.3831
vn 0.8726 -0.3453 0.3453
vn 1.0000 -0.0022 0.0022
vn 0.6740 -0.0692 0.7355
vn 0.8231 -0.4022 0.4009
vn 0.9256 0.0026 0.3786
vn 0.3825 0.0046 0.9239
vn 0.5449 0.1951 0.8155
vn 0.7067 0.0114 0.7074
vn 0.4009 -0.4022 0.8231
vn 0.7356 -0.0692 0.6739
vn 0.3783 0.0021 0.9257
vn 0.3142 -0.3972 0.8623
vn 0.5218 -0.6088 0.5976
vn 0.6844 -0.2501 0.6848
vn 0.6676 -0.2762 0.6914
vn 0.5774 -0.5774 0.5773
vn 0.8726 -0.3454 0.3454
vn 0.3972 -0.8623 0.3142
vn 0.6087 -0.5976 0.5218
vn 0.2728 -0.6683 0.6920
vn 0.6676 -0.6914 0.2762
vn 0.7356 -0.6738 0.0693
vn 0.4009 -0.8231 0.4022
vn 0.3783 -0.9257 -0.0021
vn 0.8231 -0.4009 0.4022
vn 0.6740 -0.7355 0.0692
vn 0.9255 -0.3786 -0.0026
vn 0.4022 -0.8231 0.4009
vn 0.0689 -0.6739 0.7356
vn -0.0024 -0.9257 0.3782
vn 0.4280 -0.9004 0.0786
vn 0.0781 -0.9004 0.4280
vn -0.0144 -0.9998 -0.0141
vn 0.1892 -0.9624 -0.1951
vn 0.0017 -1.0000 0.0014
vn 0.3825 -0.9240 -0.0060
vn 0.5431 -0.8167 -0.1951
vn 0.3825 -0.9239 -0.0046
vn 0.7067 -0.7075 -0.0114
vn 0.6353 -0.7672 0.0882
vn 0.3504 -0.9276 -0.1294
vn 0.6491 -0.7119 -0.2681
vn 0.3401 -0.9360 0.0910
vn 0.0042 -0.9999 0.0159
vn 0.3514 -0.9250 -0.1448
vn 0.3396 -0.9277 -0.1551
vn 0.3822 -0.7700 -0.5108
vn 0.6491 -0.7119 -0.2682
vn 0.3480 -0.9363 -0.0475
vn 0.0102 -0.9999 0.0134
vn 0.2692 -0.9247 -0.2691
vn 0.5108 -0.7700 -0.3823
vn 0.1551 -0.9277 -0.3397
vn 0.2682 -0.7119 -0.6491
vn 0.3037 -0.9360 -0.1780
vn 0.0145 -0.9999 0.0085
vn 0.1448 -0.9250 -0.3513
vn 0.1294 -0.9276 -0.3505
vn -0.0856 -0.7660 -0.6371
vn 0.2681 -0.7119 -0.6491
vn -0.0159 -0.9999 -0.0041
vn -0.0894 -0.9358 -0.3411
vn 0.1448 -0.9250 -0.3514
vn -0.1950 -0.8170 -0.5426
vn -0.0057 -0.9239 -0.3826
vn -0.0141 -0.7074 -0.7066
vn -0.1950 -0.9625 -0.1886
vn 0.0018 -1.0000 -0.0014
vn -0.0075 -0.9239 -0.3825
vn 0.0856 -0.7660 -0.6371
vn -0.1294 -0.9276 -0.3505
vn -0.2681 -0.7119 -0.6491
vn 0.0894 -0.9358 -0.3411
vn 0.0159 -0.9999 -0.0042
vn -0.1448 -0.9250 -0.3514
vn -0.4906 -0.7066 -0.5100
vn -0.0947 -0.8736 -0.4773
vn -0.2691 -0.9247 -0.2692
vn -0.0475 -0.9363 -0.3480
vn 0.0134 -0.9999 -0.0101
vn -0.2691 -0.9247 -0.2691
vn -0.0000 -1.0000 -0.0000
vn 0.0003 -1.0000 -0.0013
vn 0.0014 -1.0000 0.0009
vn -0.3474 -0.9239 -0.1602
vn 0.0331 -0.9940 -0.1038
vn -0.0002 -1.0000 -0.0001
vn -0.3842 -0.9230 -0.0216
vn -0.0093 -0.9940 -0.1087
vn -0.0017 -1.0000 -0.0000
vn -0.3827 -0.9239 0.0006
vn -0.1914 -0.9622 0.1935
vn -0.0016 -1.0000 0.0018
vn -0.0782 -0.9004 0.4280
vn -0.4280 -0.9004 0.0786
vn 0.0144 -0.9998 -0.0141
vn 0.1950 -0.9623 0.1896
vn 0.0003 -1.0000 0.0018
vn 0.0017 -0.9239 0.3826
vn -0.0689 -0.6739 0.7356
vn -0.4022 -0.8231 0.4009
vn 0.0025 -0.9257 0.3782
vn 0.0003 -0.7071 0.7071
vn 0.1951 -0.8155 0.5449
vn 0.0017 -0.9239 0.3827
vn -0.4022 -0.4009 0.8231
vn -0.0688 -0.7356 0.6739
vn 0.0025 -0.3782 0.9257
vn 0.1951 -0.5464 0.8145
vn 0.0017 -0.3827 0.9239
vn 0.0689 -0.7356 0.6739
vn 0.4022 -0.4009 0.8231
vn -0.0025 -0.3782 0.9257
vn 0.0782 -0.4280 0.9004
vn 0.4280 -0.0786 0.9004
vn -0.0144 0.0141 0.9998
vn 0.1933 -0.1932 0.9619
vn 0.0006 -0.3826 0.9239
vn 0.0015 -0.0019 1.0000
vn 0.0017 -0.0014 1.0000
vn 0.1913 0.1951 0.9619
vn 0.3825 0.0061 0.9240
vn -0.0000 -0.0000 1.0000
vn 0.0008 -0.0022 1.0000
vn -0.4279 -0.0786 0.9004
vn -0.0781 -0.4280 0.9004
vn 0.0144 0.0141 0.9998
vn -0.1892 0.1951 0.9624
vn -0.0017 -0.0014 1.0000
vn -0.3825 0.0060 0.9240
vn -0.3401 -0.0910 0.9360
vn -0.0041 -0.0159 0.9999
vn -0.3513 0.1448 0.9250
vn -0.2818 0.2595 0.9237
vn -0.0833 -0.0703 0.9940
vn -0.0002 0.0002 1.0000
vn -0.1602 0.3474 0.9239
vn -0.1038 -0.0330 0.9940
vn -0.0001 0.0003 1.0000
vn -0.0231 0.3841 0.9230
vn -0.1087 0.0093 0.9940
vn -0.0000 0.0014 1.0000
vn 0.0057 0.3826 0.9239
vn 0.1938 0.1914 0.9622
vn -0.0000 0.0013 1.0000
vn -0.0894 0.3411 0.9357
vn -0.0159 0.0041 0.9999
vn 0.1448 0.3514 0.9250
vn 0.0145 -0.0085 0.9999
vn 0.3037 0.1780 0.9360
vn 0.1448 0.3513 0.9250
vn 0.0101 -0.0134 0.9999
vn 0.3480 0.0475 0.9363
vn 0.2691 0.2691 0.9247
vn 0.0041 -0.0159 0.9999
vn 0.3401 -0.0910 0.9360
vn 0.3514 0.1448 0.9250
vn 0.3505 0.1294 0.9276
vn 0.6353 -0.0881 0.7672
vn 0.6491 0.2681 0.7119
vn 0.3823 0.5109 0.7700
vn 0.3397 0.1551 0.9277
vn 0.6491 0.2682 0.7119
vn 0.1551 0.3396 0.9277
vn 0.5108 0.3822 0.7700
vn 0.2682 0.6491 0.7119
vn 0.2471 0.8241 0.5096
vn 0.4827 0.5006 0.7186
vn 0.6519 0.6519 0.3874
vn -0.0758 0.8628 0.4998
vn 0.2537 0.6473 0.7188
vn 0.3524 0.8518 0.3876
vn -0.0856 0.6371 0.7660
vn 0.1294 0.3504 0.9276
vn 0.2681 0.6491 0.7119
vn 0.0170 0.9236 0.3830
vn 0.1961 0.8153 0.5448
vn 0.0142 0.7067 0.7074
vn 0.1950 0.5426 0.8170
vn 0.0057 0.3825 0.9239
vn 0.0141 0.7066 0.7075
vn -0.0318 0.9265 0.3749
vn -0.3862 0.7071 0.5923
vn -0.0142 0.7067 0.7074
vn -0.0283 0.7107 0.7030
vn -0.2691 0.4040 0.8743
vn -0.0075 0.3826 0.9239
vn -0.6669 0.5440 0.5092
vn -0.2771 0.6375 0.7189
vn -0.3525 0.8518 0.3876
vn -0.5108 0.3823 0.7700
vn -0.1551 0.3396 0.9277
vn -0.2682 0.6491 0.7119
vn -0.6634 0.6456 0.3784
vn -0.7740 0.2261 0.5914
vn -0.4969 0.4969 0.7115
vn -0.6177 0.1570 0.7706
vn -0.2742 0.2544 0.9274
vn -0.4969 0.4968 0.7115
vn -0.8611 -0.0789 0.5022
vn -0.6473 0.2537 0.7188
vn -0.8518 0.3525 0.3876
vn -0.6353 -0.0881 0.7672
vn -0.3505 0.1294 0.9276
vn -0.6491 0.2681 0.7119
vn -0.8144 0.1947 0.5468
vn -0.7067 0.0100 0.7075
vn -0.9236 0.0151 0.3831
vn -0.5431 0.1951 0.8167
vn -0.3825 0.0046 0.9239
vn -0.7067 0.0114 0.7075
vn -0.7356 -0.0692 0.6739
vn -0.4009 -0.4022 0.8231
vn -0.3783 0.0022 0.9257
vn -0.8231 -0.4022 0.4009
vn -0.6740 -0.0692 0.7355
vn -0.9256 0.0026 0.3786
vn -0.9237 -0.0016 0.3830
vn -1.0000 -0.0022 0.0022
vn -0.8726 -0.3453 0.3453
vn -0.9619 0.1929 0.1935
vn -0.9236 0.0138 0.3831
vn -0.9995 0.0313 0.0039
vn -0.6740 -0.7355 0.0692
vn -0.8231 -0.4009 0.4022
vn -0.9255 -0.3786 -0.0026
vn -0.9237 -0.3831 0.0016
vn -0.8726 -0.3454 0.3454
vn -0.6676 -0.6914 0.2762
vn -0.5774 -0.5773 0.5773
vn -0.6676 -0.2762 0.6914
vn -0.5774 -0.5773 0.5774
vn -0.3972 -0.3142 0.8623
vn -0.6087 -0.5218 0.5976
vn -0.2728 -0.6920 0.6683
vn -0.3142 -0.8623 0.3972
vn -0.5218 -0.5976 0.6088
vn -0.6845 -0.6848 0.2501
vn -0.4009 -0.8231 0.4022
vn -0.7356 -0.6739 0.0692
vn -0.3782 -0.9257 -0.0021
vn -0.9237 -0.3831 0.0001
vn -0.8154 -0.5448 0.1959
vn -0.7072 -0.7070 0.0018
vn -0.7071 -0.7071 0.0004
vn -0.5449 -0.8155 0.1953
vn -0.3828 -0.9238 0.0021
vn -0.9267 -0.3747 -0.0282
vn -0.7071 -0.5924 -0.3862
vn -0.7067 -0.7074 -0.0114
vn -0.7108 -0.7029 -0.0255
vn -0.4040 -0.8743 -0.2691
vn -0.3825 -0.9239 -0.0061
vn -0.5439 -0.5092 -0.6670
vn -0.6375 -0.7189 -0.2771
vn -0.8517 -0.3876 -0.3525
vn -0.6484 -0.7068 -0.2827
vn -0.2708 -0.8737 -0.4041
vn -0.3514 -0.9249 -0.1448
vn -0.6456 -0.3784 -0.6634
vn -0.2261 -0.5914 -0.7740
vn -0.4968 -0.7115 -0.4969
vn -0.2983 -0.1724 -0.9388
vn -0.6402 -0.3977 -0.6573
vn -0.7031 -0.0020 -0.7111
vn -0.6330 -0.1747 -0.7542
vn -0.8430 -0.3980 -0.3620
vn -0.9219 -0.0021 -0.3875
vn 0.0655 -0.1564 -0.9855
vn -0.3396 -0.3979 -0.8523
vn -0.3799 -0.0019 -0.9250
vn 0.0758 -0.4998 -0.8628
vn -0.2537 -0.7188 -0.6473
vn -0.3524 -0.3876 -0.8518
vn -0.0186 -0.0016 -0.9998
vn -0.1964 -0.1913 -0.9617
vn -0.0188 -0.3830 -0.9236
vn -0.1955 -0.5471 -0.8139
vn -0.0124 -0.7075 -0.7066
vn -0.0188 -0.3831 -0.9235
vn 0.3395 -0.3979 -0.8523
vn -0.0655 -0.1564 -0.9855
vn 0.3800 -0.0019 -0.9250
vn 0.2536 -0.7188 -0.6473
vn -0.0758 -0.4998 -0.8628
vn 0.3525 -0.3876 -0.8518
vn 0.6401 -0.3978 -0.6573
vn 0.2983 -0.1725 -0.9388
vn 0.7031 -0.0020 -0.7111
vn 0.4827 -0.7185 -0.5007
vn 0.2471 -0.5096 -0.8241
vn 0.6519 -0.3874 -0.6519
vn 0.8430 -0.3980 -0.3620
vn 0.6330 -0.1747 -0.7542
vn 0.9219 -0.0021 -0.3875
vn 0.8241 -0.5096 -0.2471
vn 0.5007 -0.7185 -0.4827
vn 0.9873 -0.1493 0.0552
vn 0.8523 -0.3979 -0.3396
vn 0.9219 -0.0021 -0.3874
vn 0.8611 -0.5022 0.0789
vn 0.6473 -0.7188 -0.2536
vn 0.8518 -0.3875 -0.3525
vn 0.9619 -0.1935 -0.1929
vn 0.9236 -0.3831 -0.0138
vn 0.8144 -0.5467 -0.1947
vn 0.7067 -0.7074 -0.0100
vn 0.9236 -0.3831 -0.0151
vn 0.8726 -0.3454 0.3453
vn 0.9237 -0.3830 0.0016
vn 0.7033 0.0097 -0.7109
vn 0.8853 0.1432 -0.4425
vn 0.9219 -0.0020 -0.3875
vn 0.3802 0.0089 -0.9249
vn 0.6604 0.1312 -0.7394
vn 0.7031 -0.0019 -0.7111
vn 0.0205 0.0073 -0.9998
vn 0.3475 0.1090 -0.9313
vn 0.3799 -0.0018 -0.9250
vn -0.0544 0.2011 -0.9781
vn 0.4673 0.3521 -0.8109
vn 0.3806 0.0018 -0.9247
vn -0.1188 0.0407 -0.9921
vn 0.0250 0.3828 -0.9235
vn 0.0204 0.0020 -0.9998
vn -0.0196 0.0058 -0.9998
vn 0.0185 0.0088 -0.9998
vn 0.0203 -0.0018 -0.9998
vn -0.0332 -0.0114 -0.9994
vn -0.5145 0.0803 -0.8537
vn -0.0270 0.3825 -0.9236
vn -0.3475 0.1089 -0.9313
vn -0.0205 0.0073 -0.9998
vn -0.3799 -0.0018 -0.9250
vn -0.3889 -0.0135 -0.9212
vn -0.7811 -0.0298 -0.6237
vn -0.4779 0.3361 -0.8116
vn -0.6604 0.1311 -0.7394
vn -0.3802 0.0088 -0.9249
vn -0.7031 -0.0019 -0.7111
vn -0.7071 -0.0111 -0.7070
vn -0.9181 0.0865 -0.3868
vn -0.7950 0.2321 -0.5605
vn -0.8853 0.1432 -0.4425
vn -0.7033 0.0097 -0.7109
vn -0.9219 -0.0020 -0.3875
vn -0.8977 0.1686 -0.4071
vn -0.9217 0.0007 -0.3880
vn -0.9902 0.0986 -0.0986
vn -0.9996 0.0219 -0.0165
vn -0.9250 0.0807 -0.3714
vn -0.9268 -0.0970 -0.3628
vn -0.9990 0.0057 -0.0435
vn -0.8671 -0.2190 -0.4474
vn -0.9236 -0.3830 -0.0152
vn -1.0000 -0.0022 0.0007
vn -0.9618 -0.1913 0.1960
vn -0.9237 -0.3830 0.0016
vn -0.9995 -0.0039 -0.0313
vn -0.9997 0.0158 -0.0158
vn -0.9266 0.3640 0.0948
vn -0.9822 0.1392 -0.1264
vn -0.9999 0.0153 -0.0062
vn -0.9873 -0.0552 0.1493
vn -0.8523 0.3396 0.3979
vn -0.9219 0.3874 0.0021
vn -0.7115 0.7026 -0.0094
vn -0.9297 0.2964 0.2185
vn -0.6519 0.6519 0.3873
vn -0.7033 0.7109 -0.0097
vn -0.8853 0.4425 -0.1431
vn -0.9219 0.3875 0.0020
vn -0.9217 0.3880 -0.0007
vn -0.8977 0.4071 -0.1686
vn -0.9181 0.3868 -0.0865
vn -0.7071 0.7070 0.0111
vn -0.7950 0.5605 -0.2321
vn -0.7811 0.6237 0.0298
vn -0.3889 0.9212 0.0135
vn -0.4779 0.8116 -0.3361
vn -0.3802 0.9249 -0.0089
vn -0.6604 0.7394 -0.1312
vn -0.7031 0.7111 0.0019
vn -0.5145 0.8537 -0.0804
vn -0.0332 0.9994 0.0114
vn -0.0270 0.9235 -0.3825
vn -0.0205 0.9998 -0.0073
vn -0.3475 0.9313 -0.1090
vn -0.3799 0.9250 0.0018
vn -0.0325 0.9994 -0.0084
vn -0.4474 0.8671 0.2190
vn -0.0188 0.9235 0.3830
vn -0.7495 0.6409 0.1655
vn -0.3620 0.8430 0.3980
vn -0.3800 0.9250 0.0019
vn 0.1943 0.9616 0.1941
vn 0.0170 0.9235 0.3832
vn 0.0203 0.9998 0.0018
vn -0.0185 0.9998 0.0086
vn 0.0197 0.9998 0.0057
vn -0.0204 0.9998 -0.0019
vn -0.0655 0.9855 0.1564
vn 0.3396 0.8523 0.3979
vn 0.3799 0.9250 0.0018
vn 0.3475 0.9313 -0.1089
vn 0.0205 0.9998 -0.0073
vn 0.0332 0.9994 0.0114
vn 0.5145 0.8537 -0.0803
vn 0.0270 0.9236 -0.3825
vn -0.1270 0.9323 -0.3388
vn 0.0185 0.9998 -0.0018
vn 0.0269 0.9236 -0.3825
vn 0.0392 0.9287 -0.3688
vn 0.5461 0.7353 -0.4014
vn 0.0292 0.7068 -0.7068
vn -0.1294 0.7325 -0.6683
vn 0.0250 0.9237 -0.3824
vn -0.5461 0.7353 -0.4014
vn -0.0391 0.9287 -0.3688
vn -0.0292 0.7068 -0.7068
vn -0.0392 0.3687 -0.9287
vn -0.5461 0.4014 -0.7353
vn -0.1270 0.4196 -0.8988
vn 0.0273 0.7070 -0.7067
vn 0.0269 0.3826 -0.9235
vn -0.4851 0.3217 -0.8131
vn -0.8240 0.2332 -0.5163
vn -0.5076 0.6092 -0.6093
vn -0.8240 0.5163 -0.2332
vn -0.4851 0.8131 -0.3217
vn -0.5076 0.6093 -0.6092
vn -0.7975 0.2217 -0.5611
vn -0.9273 0.2486 -0.2797
vn -0.8174 0.4073 -0.4074
vn -0.9273 0.2797 -0.2486
vn -0.7975 0.5611 -0.2217
vn -0.8174 0.4074 -0.4073
vn -0.9090 0.2947 -0.2947
vn -0.0397 0.5750 -0.8172
vn 0.4976 0.6233 -0.6032
vn 0.4778 0.3362 -0.8116
vn 0.9826 0.1552 -0.1021
vn 0.9995 -0.0039 -0.0314
vn 0.9220 0.0102 -0.3871
vn 0.9273 -0.1013 -0.3604
vn 0.9973 0.0368 -0.0629
vn 0.9220 0.3871 -0.0102
vn 0.9995 0.0314 0.0039
vn 0.9826 0.1021 -0.1552
vn 0.9791 0.1197 0.1644
vn 0.9290 0.3511 0.1170
vn 0.7975 0.2217 -0.5610
vn 0.8174 0.4073 -0.4074
vn 0.9273 0.2486 -0.2797
vn 0.7071 -0.0111 -0.7070
vn 0.7950 0.2321 -0.5605
vn 0.9181 0.0865 -0.3868
vn 0.3889 -0.0135 -0.9212
vn 0.4779 0.3361 -0.8116
vn 0.7811 -0.0298 -0.6237
vn 0.4851 0.3217 -0.8131
vn 0.5076 0.6092 -0.6093
vn 0.8240 0.2332 -0.5163
vn 0.4413 0.7126 -0.5454
vn 0.7950 0.5605 -0.2322
vn 0.8129 0.4048 -0.4187
vn 0.7854 0.4719 -0.4006
vn 0.9067 0.2978 -0.2986
vn 0.3503 0.8936 -0.2805
vn 0.7039 0.7103 -0.0015
vn 0.7899 0.5618 -0.2456
vn 0.7069 0.6494 -0.2802
vn 0.9216 0.3881 -0.0007
vn 0.8953 0.4105 -0.1729
vn 0.7037 0.7104 0.0082
vn 0.3807 0.9247 -0.0018
vn 0.4009 0.9111 0.0964
vn 0.9215 0.3883 0.0094
vn 0.7172 0.6901 0.0974
vn 0.2964 0.9298 0.2185
vn 0.6519 0.6519 0.3873
vn 0.6945 0.7195 -0.0090
vn 0.6299 0.7453 0.2185
vn 0.9171 0.3985 -0.0089
vn 0.8671 0.4474 0.2190
vn 0.9236 0.0152 0.3830
vn 0.9990 0.0435 -0.0057
vn 0.6634 0.6456 0.3783
vn 0.4969 0.4968 0.7115
vn 0.7741 0.2261 0.5914
vn 0.7071 0.3862 0.5924
vn 0.9267 0.0282 0.3747
vn 0.9618 -0.1960 0.1913
vn 0.9237 -0.0016 0.3830
vn 1.0000 -0.0007 0.0021
vn 0.8154 -0.1958 0.5448
vn 0.7072 -0.0018 0.7070
vn 0.9237 -0.0001 0.3831
vn 0.7653 0.0556 0.6413
vn 0.6620 -0.2806 0.6950
vn 0.9164 -0.2459 0.3158
vn 0.5449 -0.1953 0.8155
vn 0.3828 -0.0021 0.9238
vn 0.7071 -0.0004 0.7071
vn 0.3157 -0.2459 0.9164
vn 0.6713 -0.2807 0.6860
vn 0.6414 0.0557 0.7652
vn 0.3972 -0.3142 0.8623
vn 0.2729 -0.6921 0.6683
vn 0.6088 -0.5218 0.5976
vn 0.3142 -0.8623 0.3971
vn 0.6845 -0.6848 0.2501
vn 0.5218 -0.5976 0.6087
vn 0.6414 -0.7651 -0.0557
vn 0.6713 -0.6860 0.2807
vn 0.3158 -0.9164 0.2459
vn 0.9164 -0.3157 0.2459
vn 0.6620 -0.6950 0.2806
vn 0.7653 -0.6413 -0.0557
vn 0.2459 -0.9164 0.3158
vn 0.3030 -0.6693 0.6784
vn -0.0560 -0.7653 0.6412
vn 0.3060 -0.9513 -0.0369
vn 0.3580 -0.8624 0.3580
vn -0.0372 -0.9514 0.3057
vn 0.3827 -0.9239 0.0007
vn 0.0015 -1.0000 0.0018
vn 0.1935 -0.9618 0.1934
vn 0.7072 -0.7070 0.0004
vn 0.3828 -0.9238 0.0021
vn 0.5467 -0.8142 0.1953
vn 0.7109 -0.7029 -0.0255
vn 0.3826 -0.9239 -0.0061
vn 0.4041 -0.8742 -0.2691
vn 0.3842 -0.9230 -0.0216
vn 0.0016 -1.0000 -0.0000
vn 0.0093 -0.9940 -0.1087
vn 0.4773 -0.8736 -0.0947
vn 0.2692 -0.9247 -0.2692
vn 0.5100 -0.7066 -0.4906
vn 0.3474 -0.9239 -0.1602
vn 0.0002 -1.0000 -0.0001
vn -0.0331 -0.9941 -0.1038
vn 0.4906 -0.7066 -0.5100
vn 0.0947 -0.8736 -0.4773
vn 0.2595 -0.9237 -0.2818
vn 0.0002 -1.0000 -0.0002
vn -0.0703 -0.9940 -0.0832
vn 0.2691 -0.8743 -0.4041
vn 0.0075 -0.9239 -0.3826
vn 0.0283 -0.7030 -0.7106
vn 0.1087 -0.9940 -0.0093
vn -0.0000 -1.0000 -0.0014
vn 0.0231 -0.9230 -0.3841
vn 0.0123 -0.7074 -0.7067
vn 0.1953 -0.8139 -0.5472
vn 0.0057 -0.9239 -0.3826
vn -0.0000 -1.0000 -0.0013
vn 0.1938 -0.9617 -0.1941
vn -0.0283 -0.7030 -0.7107
vn -0.0075 -0.9239 -0.3826
vn -0.2691 -0.8743 -0.4040
vn -0.0231 -0.9230 -0.3841
vn -0.1087 -0.9940 -0.0093
vn -0.5108 -0.7700 -0.3823
vn -0.2682 -0.7119 -0.6491
vn -0.1551 -0.9277 -0.3397
vn -0.1602 -0.9239 -0.3474
vn -0.0001 -1.0000 -0.0003
vn -0.1038 -0.9940 0.0330
vn 0.0009 -1.0000 -0.0014
vn -0.0021 -1.0000 0.0010
vn 0.0003 -1.0000 0.0023
vn -0.0002 -1.0000 -0.0002
vn 0.0013 -1.0000 -0.0002
vn -0.0013 -1.0000 -0.0002
vn 0.0002 -1.0000 0.0016
vn 0.0016 -1.0000 -0.0003
vn -0.0008 -1.0000 0.0022
vn 0.0013 -1.0000 -0.0003
vn -0.0012 -1.0000 -0.0006
vn 0.0007 -1.0000 0.0015
vn -0.3480 -0.9363 -0.0474
vn -0.0101 -0.9999 0.0134
vn -0.3401 -0.9360 0.0910
vn -0.3513 -0.9250 -0.1448
vn -0.0041 -0.9999 0.0159
vn -0.1914 -0.9619 -0.1951
vn -0.0017 -1.0000 0.0014
vn 0.0372 -0.9514 0.3057
vn -0.3580 -0.8624 0.3579
vn -0.3059 -0.9513 -0.0369
vn -0.0006 -0.9239 0.3827
vn -0.0015 -1.0000 0.0018
vn -0.1933 -0.9619 0.1932
vn 0.0559 -0.7653 0.6412
vn -0.3031 -0.6692 0.6784
vn -0.2459 -0.9164 0.3158
vn -0.1950 -0.8155 0.5449
vn -0.0015 -0.7071 0.7071
vn -0.0005 -0.9239 0.3827
vn -0.2459 -0.3158 0.9164
vn -0.3030 -0.6784 0.6692
vn 0.0560 -0.6412 0.7653
vn -0.0006 -0.3827 0.9239
vn -0.1950 -0.5434 0.8165
vn -0.0559 -0.6413 0.7653
vn 0.3031 -0.6785 0.6692
vn 0.2459 -0.3158 0.9164
vn -0.0372 -0.3057 0.9514
vn 0.3580 -0.3580 0.8624
vn 0.3060 0.0369 0.9513
vn -0.0003 -0.0018 1.0000
vn -0.0017 -0.3826 0.9239
vn -0.1950 -0.1896 0.9623
vn 0.1914 -0.1935 0.9623
vn 0.0015 -0.0018 1.0000
vn 0.3827 -0.0007 0.9239
vn -0.0013 0.0002 1.0000
vn 0.0013 0.0002 1.0000
vn -0.0002 -0.0016 1.0000
vn -0.0009 0.0014 1.0000
vn -0.0015 -0.0018 1.0000
vn 0.0021 -0.0010 1.0000
vn -0.0003 -0.0023 1.0000
vn 0.0017 -0.0000 1.0000
vn -0.0001 0.0013 1.0000
vn -0.0015 -0.0006 1.0000
vn -0.0001 -0.0023 1.0000
vn -0.3060 0.0369 0.9513
vn -0.3580 -0.3580 0.8624
vn 0.0372 -0.3057 0.9514
vn -0.3827 -0.0007 0.9239
vn -0.1935 -0.1934 0.9618
vn -0.3841 0.0216 0.9230
vn -0.0016 -0.0000 1.0000
vn -0.0093 0.1087 0.9940
vn -0.1780 0.3037 0.9360
vn 0.0085 0.0145 0.9999
vn -0.0475 0.3480 0.9363
vn -0.2691 0.2691 0.9248
vn 0.0134 0.0101 0.9999
vn 0.0895 0.3411 0.9358
vn -0.1448 0.3514 0.9250
vn 0.0159 0.0041 0.9999
vn -0.1951 0.1913 0.9619
vn -0.0075 0.3825 0.9239
vn 0.0018 0.0013 1.0000
vn 0.0231 0.3841 0.9230
vn 0.1087 0.0093 0.9940
vn -0.0703 0.0833 0.9940
vn 0.0002 0.0002 1.0000
vn 0.2595 0.2818 0.9237
vn -0.0330 0.1038 0.9940
vn 0.0002 0.0001 1.0000
vn 0.3474 0.1602 0.9239
vn 0.0093 0.1087 0.9940
vn 0.0016 -0.0000 1.0000
vn 0.3841 0.0216 0.9230
vn 0.4041 0.2691 0.8743
vn 0.3825 0.0061 0.9239
vn 0.7109 0.0255 0.7029
vn 0.5100 0.4905 0.7066
vn 0.2692 0.2691 0.9247
vn 0.4773 0.0947 0.8736
vn 0.0947 0.4773 0.8736
vn 0.2691 0.2692 0.9247
vn 0.4906 0.5100 0.7066
vn 0.3655 0.8504 0.3785
vn 0.2682 0.6492 0.7118
vn 0.6280 0.5057 0.5915
vn 0.0318 0.9265 0.3749
vn 0.3863 0.7071 0.5923
vn 0.0283 0.7107 0.7029
vn 0.0075 0.3826 0.9239
vn 0.2690 0.4040 0.8743
vn -0.1954 0.8154 0.5449
vn -0.0188 0.9235 0.3831
vn -0.0124 0.7066 0.7075
vn -0.0123 0.7068 0.7074
vn -0.1953 0.5472 0.8139
vn 0.0758 0.8628 0.4998
vn -0.2536 0.6473 0.7188
vn 0.0856 0.6371 0.7660
vn -0.2681 0.6491 0.7119
vn -0.1294 0.3505 0.9276
vn -0.6456 0.6634 0.3784
vn -0.4968 0.4969 0.7115
vn -0.2262 0.7740 0.5914
vn -0.4906 0.5100 0.7066
vn -0.2692 0.2692 0.9247
vn -0.0947 0.4773 0.8736
vn -0.5439 0.6670 0.5092
vn -0.6375 0.2772 0.7189
vn -0.6484 0.2827 0.7069
vn -0.3514 0.1448 0.9249
vn -0.2708 0.4041 0.8737
vn -0.9267 0.0282 0.3747
vn -0.7067 0.0115 0.7074
vn -0.7071 0.3862 0.5923
vn -0.7108 0.0255 0.7029
vn -0.3825 0.0061 0.9239
vn -0.4040 0.2690 0.8743
vn -0.9237 -0.0001 0.3831
vn -0.7072 -0.0018 0.7070
vn -0.8166 -0.1959 0.5430
vn -0.7071 -0.0004 0.7071
vn -0.3828 -0.0021 0.9238
vn -0.5467 -0.1953 0.8142
vn -0.6414 0.0557 0.7652
vn -0.6713 -0.2807 0.6860
vn -0.3158 -0.2459 0.9164
vn -0.9164 -0.2459 0.3158
vn -0.6620 -0.2806 0.6950
vn -0.7653 0.0557 0.6413
vn -1.0000 -0.0007 0.0022
vn -0.9622 -0.1960 0.1892
vn -0.7653 -0.6413 -0.0557
vn -0.6620 -0.6950 0.2806
vn -0.9164 -0.3158 0.2459
vn -0.3143 -0.3972 0.8623
vn -0.6845 -0.2501 0.6848
vn -0.5218 -0.6088 0.5976
vn -0.3971 -0.8623 0.3142
vn -0.2728 -0.6683 0.6921
vn -0.6088 -0.5976 0.5218
vn -0.3158 -0.9164 0.2459
vn -0.6713 -0.6860 0.2807
vn -0.6414 -0.7651 -0.0557
vn -0.8156 -0.5450 -0.1947
vn -0.9236 -0.3831 -0.0152
vn -0.7067 -0.7075 -0.0100
vn -0.5449 -0.8155 -0.1951
vn -0.7066 -0.7075 -0.0114
vn -0.3825 -0.9239 -0.0046
vn -0.8611 -0.5022 0.0789
vn -0.8518 -0.3876 -0.3525
vn -0.6473 -0.7188 -0.2536
vn -0.6353 -0.7672 0.0882
vn -0.6491 -0.7119 -0.2681
vn -0.3504 -0.9276 -0.1294
vn -0.6634 -0.3784 -0.6456
vn -0.4969 -0.7115 -0.4968
vn -0.7741 -0.5913 -0.2261
vn -0.6177 -0.7706 -0.1570
vn -0.4968 -0.7116 -0.4968
vn -0.2741 -0.9274 -0.2544
vn -0.6670 -0.5092 -0.5439
vn -0.3525 -0.3876 -0.8518
vn -0.2772 -0.7189 -0.6375
vn -0.3910 0.0094 -0.9203
vn -0.7453 -0.2185 -0.6299
vn -0.7115 0.0094 -0.7026
vn -0.6519 -0.3873 -0.6519
vn -0.9298 -0.2184 -0.2963
vn -0.0325 0.0083 -0.9994
vn -0.0188 -0.3830 -0.9235
vn -0.4474 -0.2190 -0.8671
vn -0.0318 -0.3749 -0.9265
vn -0.0142 -0.7074 -0.7067
vn -0.3862 -0.5923 -0.7071
vn 0.1943 -0.1914 -0.9621
vn 0.0203 -0.0019 -0.9998
vn 0.0170 -0.3832 -0.9235
vn 0.0170 -0.3829 -0.9236
vn 0.0141 -0.7074 -0.7067
vn 0.1961 -0.5425 -0.8169
vn 0.4474 -0.2190 -0.8671
vn 0.0188 -0.3830 -0.9235
vn 0.0325 0.0084 -0.9994
vn 0.3862 -0.5923 -0.7071
vn 0.0142 -0.7074 -0.7067
vn 0.0318 -0.3749 -0.9265
vn 0.7453 -0.2185 -0.6299
vn 0.3525 -0.3875 -0.8518
vn 0.3910 0.0094 -0.9203
vn 0.6280 -0.5915 -0.5057
vn 0.2682 -0.7118 -0.6492
vn 0.3655 -0.3786 -0.8503
vn 0.9297 -0.2185 -0.2964
vn 0.6519 -0.3873 -0.6519
vn 0.7115 0.0095 -0.7026
vn 0.8503 -0.3785 -0.3655
vn 0.6491 -0.7118 -0.2682
vn 0.5057 -0.5915 -0.6280
vn 0.9990 0.0057 -0.0435
vn 0.9236 -0.3830 -0.0152
vn 0.8671 -0.2190 -0.4474
vn 0.9267 -0.3748 -0.0281
vn 0.7067 -0.7074 -0.0115
vn 0.7070 -0.5924 -0.3862
vn 1.0000 -0.0022 0.0007
vn 0.9622 -0.1892 0.1960
vn 0.9237 -0.3831 0.0001
vn 0.7072 -0.7070 0.0018
vn 0.8166 -0.5430 0.1958
vn 0.7172 -0.0974 -0.6901
vn 0.9215 -0.0094 -0.3883
vn 0.4009 -0.0964 -0.9111
vn 0.3807 0.0018 -0.9247
vn 0.7037 -0.0082 -0.7104
vn 0.0423 -0.0856 -0.9954
vn 0.0204 0.0019 -0.9998
vn 0.3804 -0.0079 -0.9248
vn 0.0332 -0.0114 -0.9994
vn 0.0270 0.3825 -0.9235
vn 0.5145 0.0804 -0.8537
vn -0.0185 0.0018 -0.9998
vn -0.0269 0.3825 -0.9236
vn 0.1270 0.3388 -0.9323
vn -0.0185 -0.0086 -0.9998
vn -0.0204 0.0019 -0.9998
vn 0.0197 -0.0057 -0.9998
vn 0.0544 0.2010 -0.9781
vn -0.3806 0.0019 -0.9247
vn -0.4673 0.3521 -0.8109
vn -0.3804 -0.0079 -0.9248
vn -0.0423 -0.0856 -0.9954
vn -0.3503 0.2805 -0.8936
vn -0.7039 0.0015 -0.7103
vn -0.7899 0.2456 -0.5618
vn -0.7037 -0.0082 -0.7104
vn -0.3807 0.0018 -0.9247
vn -0.4009 -0.0964 -0.9111
vn -0.7069 0.2802 -0.6494
vn -0.9216 0.0007 -0.3881
vn -0.8953 0.1729 -0.4105
vn -0.9215 -0.0094 -0.3883
vn -0.7172 -0.0974 -0.6901
vn -0.9220 0.0102 -0.3871
vn -0.9995 -0.0039 -0.0314
vn -0.9826 0.1552 -0.1021
vn -0.9791 -0.1644 -0.1197
vn -0.9290 -0.1170 -0.3511
vn -0.9873 -0.1492 0.0552
vn -0.9219 -0.0021 -0.3874
vn -0.8523 -0.3980 -0.3395
vn -0.9624 -0.1914 -0.1929
vn -0.9236 -0.3831 -0.0137
vn -0.9826 0.1021 -0.1552
vn -0.9995 0.0314 0.0039
vn -0.9220 0.3871 -0.0102
vn -0.9273 0.3604 0.1013
vn -0.9973 0.0629 -0.0368
vn -0.9990 0.0435 -0.0057
vn -0.9236 0.0152 0.3830
vn -0.8671 0.4474 0.2190
vn -0.6330 0.7542 0.1748
vn -0.8429 0.3620 0.3980
vn -0.7172 0.6901 0.0974
vn -0.7039 0.7103 -0.0015
vn -0.9215 0.3883 0.0094
vn -0.8953 0.4105 -0.1729
vn -0.9216 0.3881 -0.0007
vn -0.7069 0.6494 -0.2802
vn -0.7899 0.5618 -0.2456
vn -0.3503 0.8936 -0.2805
vn -0.4009 0.9111 0.0964
vn -0.3807 0.9247 -0.0018
vn -0.7037 0.7104 0.0082
vn -0.4673 0.8109 -0.3521
vn -0.3806 0.9247 -0.0018
vn 0.0544 0.9781 -0.2010
vn -0.0423 0.9954 0.0856
vn -0.3804 0.9248 0.0079
vn 0.0655 0.9855 0.1564
vn -0.3799 0.9250 0.0019
vn -0.3395 0.8523 0.3979
vn -0.6945 0.7195 -0.0089
vn -0.2964 0.9298 0.2184
vn -0.0186 0.9998 0.0016
vn -0.0188 0.9236 0.3830
vn -0.1963 0.9622 0.1886
vn -0.0196 0.9998 -0.0058
vn 0.0185 0.9998 -0.0088
vn 0.0325 0.9994 -0.0083
vn 0.0188 0.9235 0.3830
vn 0.4474 0.8671 0.2190
vn 0.3804 0.9248 0.0079
vn 0.0204 0.9998 -0.0019
vn 0.0423 0.9954 0.0856
vn -0.0544 0.9781 -0.2010
vn 0.3806 0.9247 -0.0019
vn 0.4673 0.8109 -0.3521
vn -0.0251 0.9235 -0.3828
vn -0.0204 0.9998 -0.0020
vn 0.1188 0.9921 -0.0407
vn -0.0397 0.8172 -0.5750
vn 0.4778 0.8116 -0.3362
vn 0.4976 0.6031 -0.6234
vn -0.0273 0.7067 -0.7070
vn -0.0269 0.9235 -0.3826
vn 0.1270 0.8988 -0.4196
vn -0.4976 0.6032 -0.6233
vn -0.4778 0.8116 -0.3362
vn 0.0397 0.8172 -0.5750
vn 0.0397 0.5750 -0.8172
vn -0.4778 0.3362 -0.8116
vn -0.4976 0.6234 -0.6031
vn -0.0251 0.3824 -0.9237
vn 0.1294 0.6683 -0.7325
vn -0.4413 0.5454 -0.7126
vn -0.7950 0.2322 -0.5605
vn -0.8129 0.4187 -0.4048
vn -0.8129 0.4048 -0.4187
vn -0.7950 0.5605 -0.2322
vn -0.4413 0.7125 -0.5455
vn -0.7854 0.4006 -0.4719
vn -0.9067 0.2986 -0.2978
vn -0.9067 0.2978 -0.2986
vn -0.8977 0.4071 -0.1687
vn -0.7854 0.4719 -0.4006
vn 0.0391 0.3688 -0.9287
vn 0.5461 0.4014 -0.7353
vt 0.621521 0.159885
vt 0.544058 0.157403
vt 0.549197 0.148507
vt 0.621521 0.148500
vt 0.621517 0.025553
vt 0.549193 0.025560
vt 0.693849 0.025564
vt 0.698123 0.036954
vt 0.621526 0.036938
vt 0.698989 0.034460
vt 0.699000 0.036686
vt 0.544047 0.159630
vt 0.544925 0.159897
vt 0.699776 0.035900
vt 0.543272 0.158844
vt 0.538465 0.171080
vt 0.539347 0.171288
vt 0.535607 0.182670
vt 0.534736 0.182559
vt 0.537653 0.170432
vt 0.708312 0.059615
vt 0.705395 0.047488
vt 0.709169 0.059239
vt 0.704582 0.048137
vt 0.707441 0.059727
vt 0.703700 0.048345
vt 0.621525 0.059710
vt 0.621526 0.048324
vt 0.985551 0.607222
vt 0.977896 0.581825
vt 0.987370 0.605914
vt 0.976494 0.584211
vt 0.963728 0.565714
vt 0.962959 0.568807
vt 0.947232 0.559767
vt 0.962199 0.571854
vt 0.947023 0.563088
vt 0.773324 0.560000
vt 0.946814 0.566393
vt 0.773394 0.563325
vt 0.771341 0.563936
vt 0.773463 0.566592
vt 0.946608 0.569695
vt 0.771568 0.569487
vt 0.773514 0.569795
vt 0.770339 0.566995
vt 0.771585 0.566772
vt 0.266974 0.428856
vt 0.265747 0.431346
vt 0.265338 0.429180
vt 0.266748 0.434403
vt 0.266991 0.431569
vt 0.268868 0.431749
vt 0.268920 0.428549
vt 0.268800 0.435013
vt 0.265059 0.425676
vt 0.267016 0.425464
vt 0.268924 0.425354
vt 0.441680 0.425351
vt 0.441884 0.428651
vt 0.442091 0.431950
vt 0.456709 0.423466
vt 0.457465 0.426501
vt 0.455953 0.420426
vt 0.470367 0.411804
vt 0.467616 0.407129
vt 0.468993 0.409468
vt 0.477220 0.388580
vt 0.479005 0.389863
vt 0.475432 0.387295
vt 0.482207 0.363737
vt 0.480270 0.363384
vt 0.480269 0.131310
vt 0.482206 0.130957
vt 0.478331 0.131661
vt 0.477219 0.106116
vt 0.479004 0.104833
vt 0.475431 0.107400
vt 0.470367 0.082893
vt 0.468992 0.085228
vt 0.467615 0.087567
vt 0.455952 0.074271
vt 0.478332 0.363034
vt 0.456709 0.071231
vt 0.441884 0.066046
vt 0.441680 0.069347
vt 0.268920 0.066148
vt 0.268924 0.069343
vt 0.267016 0.069233
vt 0.265059 0.069021
vt 0.266974 0.065841
vt 0.771566 0.932772
vt 0.769650 0.929589
vt 0.771608 0.929377
vt 0.769651 0.572670
vt 0.771609 0.572882
vt 0.773519 0.572992
vt 0.773517 0.929267
vt 0.946402 0.572997
vt 0.972357 0.911031
vt 0.980184 0.611079
vt 0.773513 0.932464
vt 0.946401 0.929265
vt 0.946606 0.932568
vt 0.960685 0.924338
vt 0.961442 0.927380
vt 0.973735 0.913372
vt 0.981968 0.892467
vt 0.980179 0.891182
vt 0.985021 0.867254
vt 0.983081 0.866903
vt 0.985020 0.635008
vt 0.983081 0.635358
vt 0.981973 0.609794
vt 0.973737 0.588894
vt 0.972360 0.591235
vt 0.961443 0.574891
vt 0.960685 0.577934
vt 0.975112 0.586556
vt 0.983759 0.608510
vt 0.988900 0.634300
vt 0.986959 0.634655
vt 0.986959 0.867607
vt 0.988900 0.867962
vt 0.983755 0.893752
vt 0.976492 0.918057
vt 0.985547 0.895042
vt 0.975111 0.915710
vt 0.962198 0.930416
vt 0.947021 0.939175
vt 0.962957 0.933463
vt 0.946813 0.935870
vt 0.773393 0.938933
vt 0.773462 0.935667
vt 0.771340 0.938323
vt 0.773323 0.942259
vt 0.947230 0.942496
vt 0.268868 0.062948
vt 0.266748 0.060294
vt 0.268800 0.059684
vt 0.268730 0.056361
vt 0.266991 0.063128
vt 0.265747 0.063351
vt 0.771583 0.935487
vt 0.770337 0.935263
vt 0.769928 0.933096
vt 0.442091 0.062747
vt 0.442299 0.059444
vt 0.457465 0.068196
vt 0.471747 0.080549
vt 0.458224 0.065152
vt 0.482613 0.102239
vt 0.473149 0.078167
vt 0.458993 0.062061
vt 0.486094 0.130247
vt 0.480795 0.103544
vt 0.484145 0.130603
vt 0.484146 0.364092
vt 0.480796 0.391152
vt 0.486095 0.364447
vt 0.482614 0.392457
vt 0.471747 0.414151
vt 0.473150 0.416531
vt 0.458223 0.429546
vt 0.458993 0.432636
vt 0.442507 0.438572
vt 0.442299 0.435253
vt 0.268730 0.438336
vt 0.621521 0.171271
vt 0.621522 0.182657
vt 0.621522 0.194043
vt 0.534276 0.194044
vt 0.534276 0.291295
vt 0.533403 0.194009
vt 0.621522 0.291297
vt 0.534736 0.302780
vt 0.533403 0.291331
vt 0.535608 0.302668
vt 0.621521 0.302683
vt 0.538466 0.314258
vt 0.539348 0.314050
vt 0.621521 0.314069
vt 0.544048 0.325708
vt 0.544926 0.325441
vt 0.621520 0.325455
vt 0.544059 0.327935
vt 0.549199 0.336830
vt 0.442507 0.056126
vt 0.621520 0.336841
vt 0.621514 0.459782
vt 0.549193 0.459771
vt 0.621523 0.202510
vt 0.698987 0.204995
vt 0.693847 0.213891
vt 0.963728 0.936556
vt 0.977896 0.920439
vt 0.621523 0.191124
vt 0.698120 0.202501
vt 0.698998 0.202769
vt 0.703698 0.191110
vt 0.704581 0.191318
vt 0.707439 0.179729
vt 0.708311 0.179840
vt 0.621523 0.179738
vt 0.708771 0.168355
vt 0.709645 0.168390
vt 0.621522 0.168352
vt 0.990850 0.868317
vt 0.987366 0.896348
vt 0.990850 0.633945
vt 0.708772 0.071100
vt 0.621524 0.071095
vt 0.709646 0.071065
vt 0.710521 0.070957
vt 0.710521 0.168498
vt 0.709167 0.180216
vt 0.533880 0.303156
vt 0.532528 0.291438
vt 0.532528 0.193901
vt 0.537654 0.314906
vt 0.705393 0.191967
vt 0.543273 0.326494
vt 0.699773 0.203554
vt 0.533879 0.182183
vt 0.621527 0.025553
vt 0.769930 0.569163
vt 0.265338 0.065517
vt 0.621524 0.213895
s 0
usemtl multitexture
f 143/1/1 5/2/2 1/3/3
f 2/4/4 1/3/5 3/5/6
f 3/5/6 1/3/5 4/6/7
f 1/7/8 6/8/9 23/9/10
f 6/8/11 5/10/12 8/11/13
f 10/12/14 5/2/12 7/13/15
f 8/11/13 5/10/12 9/14/16
f 9/15/16 5/2/12 10/12/14
f 11/16/17 9/15/18 10/12/19
f 12/17/20 10/12/21 7/13/22
f 146/18/23 11/16/24 12/17/25
f 13/19/26 14/20/27 11/16/28
f 17/21/29 14/22/30 15/23/31
f 16/24/32 9/14/33 14/22/34
f 19/25/35 16/24/36 17/21/37
f 18/26/38 8/11/39 16/24/40
f 18/26/41 21/27/42 20/28/43
f 6/8/44 20/28/45 23/9/46
f 103/29/47 20/30/48 21/31/49
f 22/32/50 23/33/51 20/30/52
f 24/34/53 4/35/54 23/33/55
f 22/32/56 25/36/57 24/34/58
f 25/36/59 26/37/60 24/34/58
f 26/37/61 3/38/62 4/35/63
f 27/39/64 28/40/65 26/37/66
f 28/40/67 29/41/68 3/38/69
f 30/42/70 29/41/71 28/40/72
f 100/43/73 30/42/74 27/39/75
f 33/44/76 30/42/77 31/45/78
f 33/44/79 34/46/80 32/47/81
f 32/47/82 34/46/83 29/41/84
f 38/48/85 34/49/86 35/50/87
f 29/51/84 34/49/83 36/52/88
f 37/53/89 38/48/90 40/54/91
f 29/51/92 37/53/93 145/55/94
f 38/48/95 76/56/96 39/57/97
f 40/54/98 39/57/99 41/58/100
f 40/54/101 44/59/102 42/60/103
f 37/53/104 42/60/105 43/61/106
f 43/61/107 45/62/108 46/63/109
f 42/60/110 47/64/111 45/62/112
f 45/62/113 49/65/114 46/63/115
f 45/62/116 50/66/117 48/67/118
f 49/65/119 51/68/120 52/69/121
f 48/67/122 53/70/123 51/68/124
f 51/68/125 55/71/126 52/69/127
f 53/70/128 54/72/129 51/68/130
f 55/71/131 57/73/132 58/74/133
f 54/72/134 59/75/135 57/73/136
f 58/74/137 60/76/138 61/77/139
f 57/73/140 63/78/141 60/76/142
f 129/79/143 60/76/144 62/80/145
f 60/76/146 64/81/147 62/80/148
f 65/82/149 56/83/150 44/59/151
f 66/84/152 64/81/153 65/82/154
f 68/85/155 65/82/156 67/86/157
f 70/87/158 67/86/159 69/88/160
f 71/89/161 70/87/162 69/88/163
f 71/89/164 41/58/165 39/57/166
f 73/90/167 72/91/168 71/89/169
f 76/56/170 71/89/171 39/57/172
f 182/92/173 73/93/174 74/94/175
f 74/94/176 76/95/170 77/96/177
f 76/95/178 33/44/179 77/96/180
f 77/96/181 31/45/182 78/97/183
f 80/98/184 77/96/185 78/97/186
f 79/99/187 31/45/188 100/43/189
f 86/100/190 78/97/191 94/101/190
f 81/102/192 74/94/193 80/98/194
f 81/102/195 82/103/196 83/104/197
f 83/104/198 84/105/199 85/106/200
f 87/107/201 84/105/202 86/100/203
f 89/108/204 86/100/205 88/109/206
f 91/110/207 88/109/208 90/111/209
f 93/112/210 90/111/211 92/113/212
f 93/112/213 94/101/214 95/114/215
f 94/101/216 97/115/217 95/114/218
f 96/116/219 99/117/220 97/115/221
f 98/118/222 100/43/223 99/117/224
f 99/117/225 27/39/226 25/36/227
f 101/119/228 99/117/229 25/36/230
f 95/114/231 101/119/232 102/120/233
f 103/29/234 101/119/235 22/32/236
f 105/121/237 102/120/238 103/29/239
f 104/122/240 95/114/241 102/120/242
f 105/121/243 106/123/244 104/122/245
f 106/123/246 93/112/247 104/122/248
f 107/124/249 108/125/250 106/123/251
f 106/123/252 89/108/253 91/110/254
f 111/126/255 108/125/256 109/127/257
f 110/128/258 89/108/259 108/125/260
f 111/126/261 112/129/262 110/128/263
f 112/129/264 87/107/265 110/128/266
f 115/130/267 112/129/268 113/131/269
f 114/132/270 85/106/271 112/129/272
f 118/133/273 114/132/274 115/130/275
f 116/134/276 83/104/277 114/132/278
f 116/134/279 182/92/280 81/102/281
f 120/135/282 116/134/283 118/133/284
f 118/133/285 119/136/286 120/135/287
f 119/136/288 115/130/289 161/137/290
f 124/138/291 120/139/292 121/140/293
f 119/141/286 121/140/294 120/139/287
f 120/139/295 122/142/296 123/143/297
f 117/144/298 120/135/295 123/145/299
f 182/92/300 123/145/301 75/146/302
f 72/91/303 123/143/304 122/142/305
f 72/91/306 124/138/307 70/87/308
f 121/140/309 125/147/310 124/138/311
f 124/138/312 68/85/313 70/87/314
f 126/148/315 127/149/316 125/147/317
f 125/147/318 66/84/319 68/85/320
f 130/150/321 127/149/322 128/151/323
f 127/149/324 62/80/325 66/84/326
f 130/150/327 61/77/328 129/79/329
f 133/152/330 130/150/331 131/153/332
f 131/153/333 128/151/334 158/154/335
f 135/155/336 132/156/337 133/152/338
f 134/157/339 61/77/340 132/156/341
f 135/155/342 136/158/343 134/157/344
f 136/158/345 58/74/346 134/157/347
f 138/159/348 137/160/349 139/161/350
f 52/69/351 136/158/352 138/159/353
f 140/162/354 139/161/355 141/163/356
f 49/65/357 138/159/358 140/162/359
f 142/164/360 141/163/361 143/165/362
f 142/164/363 49/65/364 140/162/359
f 2/166/365 142/164/366 143/165/367
f 144/167/368 46/63/369 142/164/370
f 3/168/371 144/167/372 2/166/4
f 145/55/373 43/61/374 144/167/375
f 3/168/69 29/51/376 145/55/377
f 141/169/378 7/13/379 143/1/380
f 139/170/381 12/17/382 141/169/383
f 137/171/384 146/18/385 139/170/386
f 147/172/387 13/19/388 146/18/389
f 149/173/390 148/174/391 147/172/392
f 135/175/393 147/172/394 137/171/395
f 149/173/396 152/176/397 150/177/398
f 151/178/399 135/175/400 133/179/401
f 151/178/402 154/180/403 152/176/404
f 153/181/405 133/179/406 131/182/407
f 153/181/408 156/183/409 154/180/410
f 155/184/411 131/182/412 158/185/413
f 156/183/414 155/184/415 157/186/416
f 160/187/417 155/184/418 158/185/419
f 159/188/420 128/151/421 126/148/422
f 119/141/423 126/148/424 121/140/425
f 159/189/426 119/190/286 160/187/427
f 119/190/286 161/191/290 160/187/427
f 162/192/428 157/193/429 160/194/430
f 161/137/431 113/131/432 162/195/433
f 163/196/434 113/131/435 111/126/436
f 163/197/437 164/198/438 162/192/439
f 164/198/440 165/199/441 157/193/416
f 165/199/442 166/200/443 167/201/444
f 167/201/445 168/202/446 169/203/447
f 171/204/448 166/200/449 163/197/450
f 169/203/451 170/205/452 177/206/453
f 172/207/454 168/202/455 171/204/456
f 172/208/457 109/127/458 107/124/459
f 163/196/460 109/127/461 171/209/462
f 172/208/463 105/121/464 173/210/465
f 172/207/466 174/211/467 170/205/468
f 173/210/469 103/29/470 21/31/471
f 19/25/472 173/212/473 21/27/471
f 174/211/474 17/21/475 175/213/476
f 177/206/477 174/211/478 175/213/479
f 175/213/480 15/23/481 176/214/482
f 178/215/483 175/213/484 176/214/482
f 179/216/485 177/206/486 178/215/487
f 150/177/488 179/217/489 178/218/487
f 150/177/490 176/219/491 148/174/492
f 152/176/493 180/220/494 179/217/495
f 180/221/496 169/203/497 179/216/498
f 154/180/499 181/222/500 180/220/501
f 181/223/502 167/201/503 180/221/504
f 165/199/441 181/223/505 157/193/416
f 181/222/505 156/183/414 157/186/416
f 148/174/506 15/224/507 13/19/508
f 1/3/509 2/4/510 143/1/511
f 143/1/512 7/13/15 5/2/513
f 23/9/514 4/225/515 1/7/516
f 1/7/517 5/10/12 6/8/518
f 11/16/519 14/20/520 9/15/521
f 12/17/522 11/16/523 10/12/524
f 146/18/525 13/19/526 11/16/527
f 13/19/528 15/224/529 14/20/530
f 17/21/531 16/24/532 14/22/533
f 16/24/534 8/11/13 9/14/535
f 19/25/536 18/26/537 16/24/538
f 18/26/539 6/8/540 8/11/541
f 18/26/542 19/25/543 21/27/544
f 6/8/545 18/26/537 20/28/546
f 103/29/547 22/32/548 20/30/549
f 22/32/550 24/34/58 23/33/551
f 24/34/552 26/37/553 4/35/554
f 22/32/555 101/119/556 25/36/557
f 25/36/558 27/39/75 26/37/559
f 26/37/560 28/40/561 3/38/562
f 27/39/563 30/42/564 28/40/565
f 30/42/566 32/47/567 29/41/568
f 100/43/569 31/45/570 30/42/571
f 33/44/572 32/47/573 30/42/574
f 33/44/575 35/226/576 34/46/577
f 38/48/578 36/52/579 34/49/580
f 37/53/581 36/52/582 38/48/583
f 29/51/584 36/52/585 37/53/586
f 38/48/587 35/50/588 76/56/589
f 40/54/590 38/48/591 39/57/592
f 40/54/593 41/58/594 44/59/595
f 37/53/596 40/54/597 42/60/598
f 43/61/599 42/60/600 45/62/601
f 42/60/602 44/59/603 47/64/604
f 45/62/605 48/67/606 49/65/607
f 45/62/608 47/64/609 50/66/610
f 49/65/611 48/67/606 51/68/612
f 48/67/613 50/66/614 53/70/615
f 51/68/616 54/72/617 55/71/618
f 53/70/619 56/83/620 54/72/621
f 55/71/622 54/72/617 57/73/623
f 54/72/624 56/83/625 59/75/626
f 58/74/627 57/73/628 60/76/629
f 57/73/630 59/75/620 63/78/631
f 129/79/632 61/77/633 60/76/634
f 60/76/635 63/78/636 64/81/637
f 44/59/638 41/58/594 69/88/639
f 69/88/640 67/86/157 65/82/149
f 65/82/149 64/81/641 63/78/149
f 63/78/149 59/75/625 56/83/642
f 56/83/643 53/70/149 50/66/149
f 50/66/149 47/64/149 44/59/644
f 44/59/645 69/88/646 65/82/149
f 65/82/149 63/78/149 56/83/647
f 56/83/648 50/66/149 44/59/649
f 66/84/650 62/80/148 64/81/651
f 68/85/652 66/84/653 65/82/654
f 70/87/655 68/85/320 67/86/656
f 71/89/657 72/91/658 70/87/659
f 71/89/660 69/88/661 41/58/662
f 73/90/663 75/227/664 72/91/665
f 76/56/666 73/90/667 71/89/668
f 182/92/669 75/146/670 73/93/671
f 74/94/672 73/93/667 76/95/673
f 76/95/674 35/226/675 33/44/676
f 77/96/677 33/44/678 31/45/679
f 80/98/680 74/94/681 77/96/682
f 79/99/683 78/97/684 31/45/685
f 94/101/190 92/113/212 90/111/686
f 90/111/687 88/109/190 86/100/190
f 86/100/190 84/105/190 82/103/688
f 82/103/689 80/98/690 78/97/691
f 78/97/692 79/99/693 98/118/190
f 98/118/190 96/116/190 94/101/190
f 94/101/190 90/111/694 86/100/190
f 86/100/190 82/103/695 78/97/684
f 78/97/696 98/118/190 94/101/190
f 81/102/697 182/92/698 74/94/699
f 81/102/700 80/98/690 82/103/701
f 83/104/702 82/103/703 84/105/704
f 87/107/705 85/106/200 84/105/706
f 89/108/707 87/107/708 86/100/709
f 91/110/710 89/108/711 88/109/712
f 93/112/713 91/110/714 90/111/715
f 93/112/716 92/113/209 94/101/717
f 94/101/718 96/116/719 97/115/720
f 96/116/721 98/118/722 99/117/723
f 98/118/724 79/99/725 100/43/726
f 99/117/727 100/43/728 27/39/729
f 101/119/730 97/115/731 99/117/732
f 95/114/733 97/115/734 101/119/735
f 103/29/736 102/120/737 101/119/738
f 105/121/739 104/122/245 102/120/740
f 104/122/741 93/112/742 95/114/743
f 105/121/744 107/124/745 106/123/746
f 106/123/747 91/110/254 93/112/748
f 107/124/749 109/127/257 108/125/750
f 106/123/751 108/125/752 89/108/753
f 111/126/754 110/128/755 108/125/756
f 110/128/757 87/107/758 89/108/759
f 111/126/760 113/131/269 112/129/761
f 112/129/762 85/106/763 87/107/764
f 115/130/765 114/132/766 112/129/767
f 114/132/768 83/104/769 85/106/770
f 118/133/771 116/134/772 114/132/773
f 116/134/774 81/102/775 83/104/776
f 116/134/777 117/144/778 182/92/779
f 120/135/780 117/144/781 116/134/782
f 119/136/783 118/133/285 115/130/784
f 124/138/785 122/142/786 120/139/787
f 182/92/788 117/144/789 123/145/790
f 72/91/791 75/227/792 123/143/793
f 72/91/794 122/142/795 124/138/796
f 121/140/797 126/148/798 125/147/799
f 124/138/800 125/147/801 68/85/802
f 126/148/803 128/151/804 127/149/805
f 125/147/806 127/149/807 66/84/808
f 130/150/809 129/79/810 127/149/811
f 127/149/812 129/79/813 62/80/814
f 130/150/815 132/156/816 61/77/817
f 133/152/818 132/156/816 130/150/819
f 131/153/820 130/150/821 128/151/822
f 135/155/823 134/157/824 132/156/825
f 134/157/826 58/74/827 61/77/828
f 135/155/829 137/160/830 136/158/831
f 136/158/832 55/71/833 58/74/834
f 138/159/835 136/158/836 137/160/837
f 52/69/838 55/71/839 136/158/840
f 140/162/841 138/159/842 139/161/843
f 49/65/844 52/69/845 138/159/846
f 142/164/847 140/162/848 141/163/849
f 142/164/850 46/63/851 49/65/852
f 2/166/853 144/167/854 142/164/855
f 144/167/856 43/61/857 46/63/858
f 3/168/859 145/55/377 144/167/860
f 145/55/861 37/53/862 43/61/863
f 141/169/864 12/17/25 7/13/865
f 139/170/866 146/18/867 12/17/868
f 137/171/869 147/172/870 146/18/871
f 147/172/872 148/174/873 13/19/874
f 149/173/875 150/177/876 148/174/877
f 135/175/878 149/173/879 147/172/880
f 149/173/881 151/178/882 152/176/883
f 151/178/884 149/173/879 135/175/885
f 151/178/886 153/181/887 154/180/888
f 153/181/889 151/178/890 133/179/891
f 153/181/892 155/184/893 156/183/894
f 155/184/895 153/181/887 131/182/896
f 158/185/897 159/189/898 160/187/899
f 160/187/900 157/186/416 155/184/901
f 159/188/902 158/154/903 128/151/904
f 119/141/905 159/188/426 126/148/906
f 160/194/907 161/228/908 162/192/909
f 162/192/910 164/198/440 157/193/911
f 161/137/912 115/130/913 113/131/914
f 163/196/915 162/195/433 113/131/916
f 163/197/917 166/200/918 164/198/919
f 165/199/920 164/198/921 166/200/922
f 167/201/923 166/200/918 168/202/924
f 171/204/925 168/202/926 166/200/927
f 169/203/928 168/202/929 170/205/930
f 172/207/931 170/205/468 168/202/932
f 172/208/933 171/209/934 109/127/935
f 163/196/936 111/126/436 109/127/937
f 172/208/938 107/124/939 105/121/940
f 172/207/941 173/212/465 174/211/942
f 173/210/943 105/121/944 103/29/945
f 19/25/946 174/211/947 173/212/948
f 174/211/949 19/25/950 17/21/951
f 177/206/952 170/205/953 174/211/954
f 175/213/955 17/21/956 15/23/957
f 178/215/958 177/206/959 175/213/960
f 179/216/961 169/203/962 177/206/963
f 150/177/964 152/176/965 179/217/966
f 150/177/967 178/218/487 176/219/968
f 152/176/969 154/180/970 180/220/971
f 180/221/972 167/201/973 169/203/974
f 154/180/975 156/183/414 181/222/976
f 181/223/977 165/199/978 167/201/979
f 148/174/980 176/219/482 15/224/981
