# Blender 5.0.1
# www.blender.org

mtllib DL.mtl
o edge_DL
v -0.137076 -0.137198 -0.100163
v -0.295334 -0.137198 -0.100163
v -0.295334 -0.295456 -0.100163
v -0.137076 -0.295456 -0.100163
v -0.125858 -0.125980 -0.097932
v -0.122702 -0.127841 -0.097304
v -0.127719 -0.122824 -0.097304
v -0.123084 -0.125921 -0.097304
v -0.124171 -0.124294 -0.097304
v -0.125799 -0.123206 -0.097304
v -0.113592 -0.111018 -0.089162
v -0.115499 -0.110639 -0.089162
v -0.105413 -0.102871 -0.076976
v -0.111976 -0.112098 -0.089162
v -0.103816 -0.103938 -0.076976
v -0.110896 -0.113715 -0.089162
v -0.102749 -0.105535 -0.076976
v -0.110516 -0.115622 -0.089162
v -0.102374 -0.107419 -0.076976
v -0.110516 -0.295456 -0.089162
v -0.102374 -0.295456 -0.076976
v -0.110764 -0.297181 -0.088915
v -0.122702 -0.295456 -0.097304
v -0.122836 -0.297181 -0.096981
v -0.123217 -0.298644 -0.096061
v -0.137110 -0.297181 -0.099820
v -0.137206 -0.298644 -0.098843
v -0.295334 -0.297181 -0.099820
v -0.297102 -0.297224 -0.099406
v -0.295334 -0.298644 -0.098843
v -0.295334 -0.299621 -0.097381
v -0.297012 -0.298414 -0.098614
v -0.297102 -0.299207 -0.097424
v -0.297936 -0.298059 -0.098258
v -0.298292 -0.298414 -0.097334
v -0.298292 -0.297135 -0.098614
v -0.298521 -0.295456 -0.098843
v -0.299084 -0.297224 -0.097424
v -0.299498 -0.297181 -0.095656
v -0.299498 -0.295456 -0.097381
v -0.299841 -0.295456 -0.095656
v -0.299498 -0.137472 -0.097381
v -0.298521 -0.137328 -0.098843
v -0.299841 -0.137642 -0.095656
v -0.299498 -0.123910 -0.094683
v -0.298521 -0.123339 -0.096061
v -0.299841 -0.124583 -0.093058
v -0.299498 -0.112645 -0.087156
v -0.298521 -0.111590 -0.088210
v -0.299841 -0.113888 -0.085912
v -0.299498 -0.105117 -0.075890
v -0.298521 -0.103740 -0.076461
v -0.299841 -0.106742 -0.075217
v -0.299498 -0.102420 -0.062328
v -0.298521 -0.100957 -0.062472
v -0.299841 -0.104144 -0.062158
v -0.299498 -0.102420 0.062328
v -0.298521 -0.100957 0.062472
v -0.299841 -0.104144 0.062158
v -0.299498 -0.105117 0.075890
v -0.298521 -0.103740 0.076461
v -0.299498 -0.112645 0.087156
v -0.299841 -0.106742 0.075217
v -0.299841 -0.113888 0.085912
v -0.299841 -0.124583 0.093058
v -0.299498 -0.123910 0.094683
v -0.299841 -0.137642 0.095656
v -0.299498 -0.137472 0.097381
v -0.299841 -0.295456 0.095656
v -0.299498 -0.295456 0.097381
v -0.299498 -0.297181 0.095656
v -0.299084 -0.297225 0.097424
v -0.298521 -0.298644 0.095656
v -0.297059 -0.299621 0.095656
v -0.298292 -0.298414 0.097334
v -0.298521 -0.298644 -0.095656
v -0.297059 -0.299621 -0.095656
v -0.295334 -0.299964 -0.095656
v -0.137520 -0.299964 -0.095656
v -0.295334 -0.299964 0.095656
v -0.295334 -0.299621 0.097381
v -0.137520 -0.299964 0.095656
v -0.137350 -0.299621 0.097381
v -0.124461 -0.299964 0.093058
v -0.123788 -0.299621 0.094683
v -0.113766 -0.299964 0.085912
v -0.112522 -0.299621 0.087156
v -0.106620 -0.299964 0.075217
v -0.104995 -0.299621 0.075890
v -0.104022 -0.299964 0.062158
v -0.102297 -0.299621 0.062328
v -0.104022 -0.299964 -0.062158
v -0.102297 -0.299621 -0.062328
v -0.106620 -0.299964 -0.075217
v -0.104995 -0.299621 -0.075890
v -0.113766 -0.299964 -0.085912
v -0.112522 -0.299621 -0.087156
v -0.124461 -0.299964 -0.093058
v -0.123788 -0.299621 -0.094683
v -0.137350 -0.299621 -0.097381
v -0.111468 -0.298644 -0.088210
v -0.103617 -0.298644 -0.076461
v -0.102697 -0.297181 -0.076842
v -0.100835 -0.298644 -0.062472
v -0.099858 -0.297181 -0.062568
v -0.100835 -0.298644 0.062472
v -0.099858 -0.297181 0.062568
v -0.103617 -0.298644 0.076461
v -0.102697 -0.297181 0.076842
v -0.111468 -0.298644 0.088210
v -0.110764 -0.297181 0.088914
v -0.123217 -0.298644 0.096061
v -0.122836 -0.297181 0.096981
v -0.137206 -0.298644 0.098843
v -0.137110 -0.297181 0.099820
v -0.295334 -0.298644 0.098843
v -0.297012 -0.298414 0.098614
v -0.295334 -0.297181 0.099820
v -0.295334 -0.295456 0.100163
v -0.297102 -0.297225 0.099406
v -0.297059 -0.295456 0.099820
v -0.298292 -0.297135 0.098614
v -0.297936 -0.298059 0.098258
v -0.298521 -0.295456 0.098843
v -0.298521 -0.137328 0.098843
v -0.297059 -0.137232 0.099820
v -0.298521 -0.123339 0.096061
v -0.297059 -0.122958 0.096981
v -0.298521 -0.111590 0.088210
v -0.297059 -0.110886 0.088915
v -0.295334 -0.110639 0.089162
v -0.297059 -0.102820 0.076842
v -0.295334 -0.102496 0.076976
v -0.297059 -0.099980 0.062568
v -0.295334 -0.099637 0.062602
v -0.297059 -0.099980 -0.062568
v -0.295334 -0.099637 -0.062602
v -0.297059 -0.102819 -0.076842
v -0.295334 -0.102496 -0.076976
v -0.297059 -0.110886 -0.088914
v -0.295334 -0.110639 -0.089162
v -0.297059 -0.122958 -0.096981
v -0.295334 -0.122824 -0.097304
v -0.297059 -0.137232 -0.099820
v -0.297059 -0.295456 -0.099820
v -0.107297 -0.102496 -0.076976
v -0.104396 -0.099637 -0.062602
v -0.102528 -0.100009 -0.062602
v -0.104396 -0.099637 0.062602
v -0.102528 -0.100009 0.062602
v -0.107297 -0.102496 0.076976
v -0.105413 -0.102871 0.076976
v -0.115499 -0.110639 0.089162
v -0.113592 -0.111018 0.089162
v -0.127719 -0.122824 0.097304
v -0.125799 -0.123206 0.097304
v -0.125858 -0.125980 0.097932
v -0.295334 -0.122824 0.097304
v -0.295334 -0.137198 0.100163
v -0.137076 -0.137198 0.100163
v -0.137076 -0.295456 0.100163
v -0.122702 -0.295456 0.097304
v -0.110516 -0.295456 0.089162
v -0.122702 -0.127841 0.097304
v -0.123084 -0.125921 0.097304
v -0.110516 -0.115622 0.089162
v -0.110895 -0.113715 0.089162
v -0.102374 -0.107419 0.076976
v -0.102749 -0.105535 0.076976
v -0.099515 -0.104518 0.062602
v -0.102374 -0.295456 0.076976
v -0.099515 -0.295456 0.062602
v -0.099515 -0.295456 -0.062602
v -0.099515 -0.104518 -0.062602
v -0.099886 -0.102650 -0.062602
v -0.100944 -0.101067 -0.062602
v -0.099886 -0.102650 0.062602
v -0.100944 -0.101067 0.062602
v -0.103816 -0.103938 0.076976
v -0.111976 -0.112098 0.089162
v -0.124171 -0.124294 0.097304
v -0.297102 -0.299207 0.097424
vn -0.0948 0.3640 -0.9266
vn 0.1264 0.1392 -0.9822
vn 0.0062 0.0153 -0.9999
vn -0.0039 0.0313 -0.9995
vn 0.0158 0.0158 -0.9997
vn -0.0021 -0.0021 -1.0000
vn 0.0313 -0.0039 -0.9995
vn 0.0165 0.0219 -0.9996
vn 0.3714 0.0807 -0.9250
vn 0.3628 -0.0970 -0.9268
vn 0.3880 0.0007 -0.9217
vn 0.0987 0.0986 -0.9902
vn 0.4071 0.1686 -0.8977
vn 0.1686 0.4071 -0.8977
vn 0.0986 0.0986 -0.9902
vn 0.0007 0.3880 -0.9217
vn 0.2947 0.2947 -0.9090
vn 0.4006 0.4719 -0.7854
vn 0.2986 0.2978 -0.9067
vn 0.2801 0.6494 -0.7069
vn 0.1729 0.4105 -0.8953
vn 0.0007 0.3881 -0.9216
vn 0.2805 0.8936 -0.3503
vn 0.2456 0.5618 -0.7899
vn 0.0015 0.7103 -0.7039
vn 0.5455 0.7125 -0.4413
vn 0.4187 0.4048 -0.8129
vn 0.2322 0.5605 -0.7950
vn 0.8131 0.3217 -0.4851
vn 0.5163 0.2332 -0.8240
vn 0.6093 0.6092 -0.5076
vn 0.5611 0.2217 -0.7976
vn 0.2797 0.2486 -0.9273
vn 0.4074 0.4073 -0.8174
vn 0.9212 -0.0135 -0.3889
vn 0.6237 -0.0298 -0.7811
vn 0.8116 0.3361 -0.4779
vn 0.7070 -0.0111 -0.7071
vn 0.3868 0.0865 -0.9181
vn 0.5605 0.2321 -0.7950
vn 0.7394 0.1311 -0.6604
vn 0.9249 0.0088 -0.3802
vn 0.7111 -0.0019 -0.7031
vn 0.4425 0.1432 -0.8853
vn 0.7109 0.0097 -0.7033
vn 0.3875 -0.0020 -0.9219
vn 0.8429 -0.3980 -0.3620
vn 0.6409 -0.1655 -0.7495
vn 0.9250 -0.0019 -0.3800
vn 0.6401 -0.3977 -0.6573
vn 0.3050 -0.1660 -0.9378
vn 0.7110 -0.0020 -0.7031
vn 0.3395 -0.3979 -0.8523
vn -0.0552 -0.1492 -0.9873
vn 0.3874 -0.0020 -0.9219
vn 0.6670 -0.5092 -0.5439
vn 0.2771 -0.7189 -0.6375
vn 0.3525 -0.3876 -0.8518
vn 0.2536 -0.7188 -0.6473
vn -0.0789 -0.5022 -0.8611
vn 0.0137 -0.3831 -0.9236
vn 0.1930 -0.1915 -0.9623
vn 0.0313 -0.0040 -0.9995
vn 0.0100 -0.7074 -0.7067
vn 0.1947 -0.5450 -0.8156
vn 0.0152 -0.3831 -0.9236
vn -0.0016 -0.3831 -0.9237
vn -0.3453 -0.3453 -0.8726
vn -0.0022 -0.0022 -1.0000
vn -0.0692 -0.7355 -0.6740
vn -0.4022 -0.4009 -0.8231
vn 0.0026 -0.3786 -0.9256
vn 0.0046 -0.9239 -0.3825
vn 0.1951 -0.8155 -0.5449
vn 0.0114 -0.7074 -0.7067
vn -0.4022 -0.8231 -0.4009
vn -0.0692 -0.6739 -0.7356
vn 0.0021 -0.9257 -0.3783
vn -0.3972 -0.8623 -0.3142
vn -0.6088 -0.5976 -0.5217
vn -0.2502 -0.6848 -0.6844
vn -0.2761 -0.6914 -0.6676
vn -0.5773 -0.5773 -0.5774
vn -0.3454 -0.3454 -0.8726
vn -0.8623 -0.3142 -0.3972
vn -0.5976 -0.5218 -0.6088
vn -0.6683 -0.6920 -0.2728
vn -0.6914 -0.2762 -0.6676
vn -0.6738 -0.0693 -0.7356
vn -0.8231 -0.4022 -0.4009
vn -0.9257 0.0021 -0.3783
vn -0.4009 -0.4022 -0.8231
vn -0.7355 -0.0692 -0.6740
vn -0.3786 0.0026 -0.9255
vn -0.8231 -0.4009 -0.4023
vn -0.6739 -0.7356 -0.0689
vn -0.9257 -0.3782 0.0024
vn -0.9004 -0.0786 -0.4280
vn -0.9004 -0.4280 -0.0781
vn -0.9998 0.0141 0.0144
vn -0.9624 0.1951 -0.1892
vn -1.0000 -0.0014 -0.0017
vn -0.9240 0.0060 -0.3825
vn -0.8167 0.1951 -0.5431
vn -0.9239 0.0046 -0.3825
vn -0.7074 0.0114 -0.7067
vn -0.7672 -0.0882 -0.6353
vn -0.9276 0.1294 -0.3505
vn -0.7119 0.2681 -0.6491
vn -0.9360 -0.0910 -0.3401
vn -0.9999 -0.0159 -0.0041
vn -0.9250 0.1448 -0.3513
vn -0.7706 0.1570 -0.6177
vn -0.9274 0.2544 -0.2742
vn -0.7115 0.4968 -0.4969
vn -0.9363 0.0475 -0.3480
vn -0.9999 -0.0134 -0.0101
vn -0.9247 0.2691 -0.2691
vn -0.7700 0.3823 -0.5108
vn -0.9277 0.3397 -0.1551
vn -0.7119 0.6491 -0.2682
vn -0.9360 0.1781 -0.3037
vn -0.9999 -0.0085 -0.0145
vn -0.9250 0.3514 -0.1448
vn -0.9276 0.3505 -0.1294
vn -0.7660 0.6371 0.0856
vn -0.7119 0.6491 -0.2681
vn -0.9999 0.0041 0.0159
vn -0.9358 0.3411 0.0895
vn -0.8170 0.5426 0.1950
vn -0.9239 0.3825 0.0057
vn -0.7075 0.7066 0.0141
vn -0.9625 0.1886 0.1951
vn -1.0000 0.0013 -0.0018
vn -0.9239 0.3825 0.0075
vn -0.7660 0.6371 -0.0856
vn -0.9276 0.3505 0.1294
vn -0.7119 0.6491 0.2681
vn -0.9357 0.3411 -0.0894
vn -0.9999 0.0041 -0.0159
vn -0.9250 0.3513 0.1448
vn -0.7706 0.6177 0.1570
vn -0.9274 0.2742 0.2544
vn -0.7116 0.4969 0.4968
vn -0.9363 0.3480 0.0475
vn -0.9999 0.0101 -0.0134
vn -0.9247 0.2691 0.2691
vn -1.0000 -0.0000 0.0003
vn -1.0000 0.0013 -0.0003
vn -1.0000 -0.0009 -0.0014
vn -0.9239 0.1602 0.3474
vn -0.9940 0.1038 -0.0330
vn -1.0000 0.0001 0.0002
vn -0.9230 0.0216 0.3841
vn -0.9940 0.1087 0.0093
vn -1.0000 -0.0000 0.0016
vn -0.9239 -0.0006 0.3827
vn -0.9623 -0.1935 0.1914
vn -1.0000 -0.0018 0.0015
vn -0.9004 -0.4280 0.0782
vn -0.9004 -0.0786 0.4279
vn -0.9998 0.0141 -0.0144
vn -0.9623 -0.1896 -0.1950
vn -1.0000 -0.0019 -0.0003
vn -0.9239 -0.3826 -0.0017
vn -0.6739 -0.7356 0.0689
vn -0.8231 -0.4009 0.4022
vn -0.9257 -0.3782 -0.0025
vn -0.8165 -0.5434 -0.1950
vn -0.9239 -0.3827 -0.0006
vn -0.7071 -0.7071 -0.0015
vn -0.4009 -0.8231 0.4023
vn -0.7356 -0.6739 0.0689
vn -0.3782 -0.9257 -0.0025
vn -0.5464 -0.8145 -0.1951
vn -0.7071 -0.7071 -0.0003
vn -0.3827 -0.9239 -0.0017
vn -0.7356 -0.6739 -0.0689
vn -0.4009 -0.8231 -0.4022
vn -0.3782 -0.9257 0.0024
vn -0.4280 -0.9004 -0.0782
vn -0.0785 -0.9004 -0.4280
vn 0.0141 -0.9998 0.0144
vn -0.1932 -0.9619 -0.1933
vn -0.3827 -0.9239 -0.0006
vn -0.0018 -1.0000 -0.0015
vn -0.0014 -1.0000 -0.0017
vn 0.1951 -0.9619 -0.1913
vn 0.0061 -0.9239 -0.3825
vn -0.0000 -1.0000 -0.0000
vn -0.0022 -1.0000 -0.0008
vn 0.0003 -1.0000 -0.0002
vn -0.0786 -0.9004 0.4280
vn -0.4280 -0.9004 0.0782
vn 0.0141 -0.9998 -0.0144
vn 0.1951 -0.9624 0.1892
vn -0.0014 -1.0000 0.0016
vn 0.0060 -0.9239 0.3825
vn -0.0910 -0.9360 0.3401
vn -0.0159 -0.9999 0.0042
vn 0.1448 -0.9250 0.3514
vn 0.2595 -0.9237 0.2818
vn -0.0702 -0.9940 0.0833
vn 0.0002 -1.0000 0.0002
vn 0.3474 -0.9239 0.1601
vn -0.0330 -0.9940 0.1038
vn 0.0003 -1.0000 0.0001
vn 0.3841 -0.9230 0.0231
vn 0.0093 -0.9940 0.1087
vn 0.0014 -1.0000 -0.0000
vn 0.3826 -0.9239 -0.0057
vn 0.1915 -0.9622 -0.1938
vn 0.3411 -0.9357 0.0894
vn 0.0041 -0.9999 0.0159
vn 0.3513 -0.9250 -0.1448
vn -0.0085 -0.9999 -0.0145
vn 0.1780 -0.9360 -0.3037
vn -0.0134 -0.9999 -0.0101
vn 0.0475 -0.9363 -0.3480
vn 0.2691 -0.9247 -0.2691
vn -0.0159 -0.9999 -0.0041
vn -0.0910 -0.9360 -0.3401
vn 0.1448 -0.9250 -0.3514
vn 0.1294 -0.9276 -0.3505
vn -0.0882 -0.7672 -0.6353
vn 0.2681 -0.7119 -0.6491
vn 0.5108 -0.7700 -0.3823
vn 0.1551 -0.9277 -0.3396
vn 0.2682 -0.7119 -0.6491
vn 0.3397 -0.9277 -0.1551
vn 0.3823 -0.7700 -0.5108
vn 0.6491 -0.7119 -0.2682
vn 0.8242 -0.5096 -0.2471
vn 0.5007 -0.7185 -0.4827
vn 0.6519 -0.3874 -0.6519
vn 0.8628 -0.4998 0.0758
vn 0.6473 -0.7188 -0.2537
vn 0.8518 -0.3876 -0.3524
vn 0.6371 -0.7660 0.0855
vn 0.3505 -0.9276 -0.1294
vn 0.6491 -0.7119 -0.2681
vn 0.9236 -0.3830 -0.0170
vn 0.8153 -0.5448 -0.1961
vn 0.7067 -0.7074 -0.0142
vn 0.5426 -0.8170 -0.1950
vn 0.7066 -0.7074 -0.0141
vn 0.9265 -0.3749 0.0318
vn 0.7071 -0.5923 0.3863
vn 0.7067 -0.7074 0.0142
vn 0.7107 -0.7030 0.0283
vn 0.4041 -0.8743 0.2691
vn 0.3826 -0.9239 0.0075
vn 0.5439 -0.5092 0.6669
vn 0.6375 -0.7189 0.2771
vn 0.8517 -0.3876 0.3525
vn 0.3823 -0.7700 0.5108
vn 0.3397 -0.9277 0.1551
vn 0.6491 -0.7118 0.2682
vn 0.6456 -0.3784 0.6634
vn 0.2261 -0.5914 0.7740
vn 0.4969 -0.7115 0.4969
vn 0.1570 -0.7706 0.6177
vn 0.2544 -0.9274 0.2742
vn 0.4968 -0.7116 0.4969
vn -0.0789 -0.5022 0.8611
vn 0.2537 -0.7188 0.6473
vn 0.3524 -0.3876 0.8518
vn -0.0881 -0.7672 0.6353
vn 0.1294 -0.9276 0.3505
vn 0.2681 -0.7119 0.6491
vn 0.1947 -0.5467 0.8144
vn 0.0100 -0.7075 0.7067
vn 0.0151 -0.3831 0.9236
vn 0.1951 -0.8167 0.5431
vn 0.0046 -0.9239 0.3825
vn 0.0114 -0.7075 0.7067
vn -0.0693 -0.6739 0.7356
vn -0.4022 -0.8231 0.4009
vn 0.0021 -0.9257 0.3783
vn -0.4022 -0.4009 0.8231
vn -0.0692 -0.7355 0.6740
vn 0.0026 -0.3786 0.9256
vn -0.0016 -0.3830 0.9237
vn -0.0022 -0.0022 1.0000
vn -0.3453 -0.3453 0.8726
vn 0.1929 -0.1935 0.9619
vn 0.0138 -0.3831 0.9236
vn 0.0313 -0.0039 0.9995
vn -0.7355 -0.0692 0.6740
vn -0.4009 -0.4022 0.8231
vn -0.3786 0.0026 0.9256
vn -0.3830 -0.0016 0.9237
vn -0.3454 -0.3454 0.8726
vn -0.6914 -0.2762 0.6676
vn -0.5773 -0.5773 0.5774
vn -0.2762 -0.6914 0.6676
vn -0.3142 -0.8623 0.3971
vn -0.5218 -0.5976 0.6088
vn -0.6920 -0.6683 0.2728
vn -0.8623 -0.3972 0.3141
vn -0.5976 -0.6088 0.5218
vn -0.6848 -0.2501 0.6844
vn -0.8231 -0.4022 0.4009
vn -0.6739 -0.0692 0.7356
vn -0.9257 0.0021 0.3783
vn -0.3831 -0.0001 0.9237
vn -0.5448 -0.1959 0.8154
vn -0.7070 -0.0018 0.7072
vn -0.7071 -0.0004 0.7072
vn -0.8154 -0.1953 0.5449
vn -0.9238 -0.0021 0.3828
vn -0.3747 0.0282 0.9267
vn -0.5924 0.3863 0.7070
vn -0.7074 0.0114 0.7067
vn -0.7029 0.0255 0.7109
vn -0.8743 0.2691 0.4040
vn -0.9239 0.0061 0.3825
vn -0.5092 0.6669 0.5439
vn -0.7189 0.2771 0.6375
vn -0.3876 0.3525 0.8518
vn -0.7700 0.5108 0.3823
vn -0.9277 0.1551 0.3396
vn -0.7119 0.2682 0.6491
vn -0.3784 0.6634 0.6456
vn -0.5914 0.7740 0.2261
vn -0.7115 0.4969 0.4969
vn 0.0089 0.7195 0.6945
vn -0.2185 0.9298 0.2964
vn -0.3873 0.6519 0.6519
vn 0.0088 0.3985 0.9171
vn -0.2185 0.7453 0.6299
vn -0.3875 0.3525 0.8518
vn -0.1564 0.9855 -0.0655
vn -0.3979 0.8523 0.3396
vn -0.0019 0.9250 0.3799
vn -0.4998 0.8628 -0.0758
vn -0.7188 0.6473 0.2537
vn -0.3876 0.8518 0.3525
vn -0.1940 0.9616 0.1943
vn -0.3832 0.9235 0.0170
vn -0.0018 0.9998 0.0203
vn -0.3829 0.9236 0.0170
vn -0.5448 0.8153 0.1961
vn -0.7074 0.7067 0.0142
vn -0.3979 0.8523 -0.3395
vn -0.1564 0.9855 0.0655
vn -0.0019 0.9250 -0.3799
vn -0.7188 0.6473 -0.2536
vn -0.4998 0.8628 0.0758
vn -0.3876 0.8518 -0.3525
vn -0.3977 0.6573 -0.6401
vn -0.1725 0.9388 -0.2983
vn -0.0020 0.7111 -0.7031
vn -0.5092 0.5439 -0.6670
vn -0.7189 0.6375 -0.2771
vn -0.3980 0.3620 -0.8429
vn -0.1747 0.7542 -0.6330
vn -0.0021 0.3874 -0.9219
vn -0.5096 0.2471 -0.8241
vn -0.7185 0.4827 -0.5007
vn -0.3874 0.6519 -0.6519
vn -0.1493 -0.0552 -0.9873
vn -0.3979 0.3396 -0.8523
vn -0.5022 -0.0789 -0.8611
vn -0.7188 0.2537 -0.6473
vn -0.3875 0.3525 -0.8518
vn -0.1935 0.1929 -0.9619
vn -0.3831 0.0138 -0.9236
vn -0.5467 0.1947 -0.8144
vn -0.7074 0.0100 -0.7067
vn -0.3831 0.0151 -0.9236
vn -0.3830 -0.0016 -0.9237
vn 0.0097 0.7109 -0.7033
vn 0.1431 0.4425 -0.8853
vn -0.0020 0.3875 -0.9219
vn 0.0089 0.9249 -0.3802
vn 0.1312 0.7394 -0.6604
vn -0.0019 0.7111 -0.7031
vn 0.0073 0.9998 -0.0205
vn 0.1090 0.9313 -0.3475
vn -0.0018 0.9250 -0.3799
vn 0.2010 0.9781 0.0544
vn 0.3521 0.8109 -0.4673
vn 0.0018 0.9247 -0.3806
vn 0.0407 0.9921 0.1188
vn 0.3828 0.9235 -0.0251
vn 0.0020 0.9998 -0.0204
vn 0.0058 0.9998 0.0196
vn 0.0088 0.9998 -0.0185
vn -0.0018 0.9998 -0.0203
vn -0.0114 0.9994 0.0332
vn 0.0803 0.8537 0.5145
vn 0.3825 0.9236 0.0270
vn 0.1089 0.9313 0.3475
vn 0.0073 0.9998 0.0205
vn -0.0018 0.9250 0.3799
vn -0.0135 0.9212 0.3889
vn -0.0298 0.6237 0.7811
vn 0.3361 0.8116 0.4779
vn 0.1311 0.7394 0.6604
vn 0.0088 0.9249 0.3802
vn -0.0019 0.7111 0.7031
vn -0.0111 0.7070 0.7071
vn 0.0865 0.3868 0.9181
vn 0.2321 0.5605 0.7950
vn 0.1432 0.4425 0.8853
vn 0.0097 0.7109 0.7033
vn -0.0020 0.3875 0.9219
vn 0.1686 0.4071 0.8977
vn 0.0007 0.3880 0.9217
vn 0.0986 0.0986 0.9902
vn 0.0219 0.0165 0.9996
vn 0.0807 0.3714 0.9250
vn -0.0970 0.3628 0.9268
vn 0.0057 0.0435 0.9990
vn -0.2190 0.4474 0.8671
vn -0.3830 0.0152 0.9236
vn -0.0022 -0.0007 1.0000
vn -0.1913 -0.1960 0.9618
vn -0.3830 -0.0016 0.9238
vn -0.0039 0.0313 0.9995
vn -0.0021 -0.0021 1.0000
vn 0.0158 0.0158 0.9997
vn 0.3640 -0.0948 0.9266
vn 0.1392 0.1264 0.9822
vn 0.0153 0.0062 0.9999
vn -0.0552 -0.1493 0.9873
vn 0.3396 -0.3979 0.8523
vn 0.3874 -0.0021 0.9219
vn 0.7026 0.0095 0.7115
vn 0.2964 -0.2185 0.9298
vn 0.6519 -0.3873 0.6519
vn 0.7109 0.0097 0.7033
vn 0.4425 0.1431 0.8853
vn 0.3875 -0.0020 0.9219
vn 0.3880 0.0007 0.9217
vn 0.4070 0.1686 0.8977
vn 0.3868 0.0865 0.9181
vn 0.7070 -0.0111 0.7071
vn 0.5605 0.2321 0.7950
vn 0.6237 -0.0298 0.7811
vn 0.9212 -0.0135 0.3889
vn 0.8116 0.3361 0.4779
vn 0.9249 0.0089 0.3802
vn 0.7394 0.1312 0.6604
vn 0.7111 -0.0019 0.7031
vn 0.8537 0.0804 0.5145
vn 0.9994 -0.0114 0.0332
vn 0.9235 0.3825 0.0270
vn 0.9998 0.0073 0.0205
vn 0.9313 0.1090 0.3475
vn 0.9250 -0.0018 0.3799
vn 0.9994 0.0084 0.0325
vn 0.8671 -0.2190 0.4474
vn 0.9236 -0.3830 0.0188
vn 0.6409 -0.1655 0.7495
vn 0.8430 -0.3980 0.3620
vn 0.9250 -0.0019 0.3800
vn 0.9998 -0.0016 -0.0186
vn 0.9617 -0.1913 -0.1964
vn 0.9236 -0.3830 -0.0188
vn 0.9998 0.0058 -0.0196
vn 0.9998 0.0088 0.0185
vn 0.9998 -0.0018 0.0203
vn 0.9855 -0.1564 0.0655
vn 0.8523 -0.3979 -0.3396
vn 0.9250 -0.0019 -0.3799
vn 0.9313 0.1089 -0.3475
vn 0.9998 0.0073 -0.0205
vn 0.9250 -0.0018 -0.3799
vn 0.9994 -0.0114 -0.0332
vn 0.8537 0.0803 -0.5145
vn 0.9236 0.3825 -0.0270
vn 0.9323 0.3388 0.1270
vn 0.9998 0.0018 -0.0185
vn 0.9236 0.3825 -0.0269
vn 0.9287 0.3688 -0.0392
vn 0.7353 0.4014 -0.5461
vn 0.7068 0.7068 -0.0292
vn 0.7325 0.6683 0.1294
vn 0.9237 0.3824 -0.0251
vn 0.7353 0.4014 0.5461
vn 0.9287 0.3688 0.0391
vn 0.7068 0.7068 0.0292
vn 0.3688 0.9287 0.0392
vn 0.4014 0.7353 0.5461
vn 0.4196 0.8988 0.1270
vn 0.7070 0.7067 -0.0273
vn 0.3826 0.9235 -0.0269
vn 0.3217 0.8131 0.4851
vn 0.2332 0.5163 0.8240
vn 0.6092 0.6093 0.5076
vn 0.5163 0.2332 0.8240
vn 0.8131 0.3217 0.4851
vn 0.6093 0.6092 0.5076
vn 0.2217 0.5611 0.7975
vn 0.2486 0.2797 0.9273
vn 0.4073 0.4074 0.8174
vn 0.2797 0.2486 0.9273
vn 0.5611 0.2217 0.7975
vn 0.4074 0.4073 0.8174
vn 0.4071 0.1686 0.8977
vn 0.2947 0.2947 0.9090
vn 0.5750 0.8172 0.0397
vn 0.6233 0.6032 -0.4976
vn 0.3362 0.8116 -0.4778
vn 0.1552 0.1021 -0.9826
vn -0.0039 0.0314 -0.9995
vn 0.0102 0.3871 -0.9220
vn -0.1013 0.3604 -0.9273
vn 0.0368 0.0629 -0.9973
vn 0.3871 0.0102 -0.9220
vn 0.0314 -0.0039 -0.9995
vn 0.1021 0.1552 -0.9826
vn 0.1197 -0.1644 -0.9791
vn 0.3511 -0.1170 -0.9290
vn 0.2217 0.5611 -0.7975
vn 0.4073 0.4074 -0.8174
vn 0.2486 0.2797 -0.9273
vn -0.0111 0.7070 -0.7071
vn 0.2321 0.5605 -0.7950
vn 0.0865 0.3868 -0.9181
vn -0.0135 0.9212 -0.3889
vn 0.3361 0.8116 -0.4779
vn -0.0298 0.6237 -0.7811
vn 0.3217 0.8131 -0.4851
vn 0.6092 0.6093 -0.5076
vn 0.2332 0.5163 -0.8240
vn 0.7126 0.5454 -0.4413
vn 0.5605 0.2322 -0.7950
vn 0.4048 0.4187 -0.8129
vn 0.4719 0.4006 -0.7854
vn 0.2978 0.2986 -0.9067
vn 0.8936 0.2805 -0.3503
vn 0.7103 0.0015 -0.7039
vn 0.5618 0.2456 -0.7899
vn 0.6494 0.2802 -0.7069
vn 0.3881 0.0007 -0.9216
vn 0.4105 0.1729 -0.8953
vn 0.7104 -0.0082 -0.7037
vn 0.9247 0.0018 -0.3807
vn 0.9111 -0.0964 -0.4009
vn 0.3883 -0.0094 -0.9215
vn 0.6901 -0.0974 -0.7172
vn 0.9298 -0.2185 -0.2964
vn 0.6519 -0.3873 -0.6519
vn 0.7195 0.0089 -0.6945
vn 0.7453 -0.2185 -0.6299
vn 0.3525 -0.3875 -0.8518
vn 0.3985 0.0088 -0.9171
vn 0.4474 -0.2190 -0.8671
vn 0.0152 -0.3830 -0.9236
vn 0.0435 0.0057 -0.9990
vn 0.6456 -0.3784 -0.6634
vn 0.4968 -0.7115 -0.4969
vn 0.2261 -0.5914 -0.7740
vn 0.3862 -0.5923 -0.7071
vn 0.0282 -0.3747 -0.9267
vn -0.1960 -0.1913 -0.9618
vn -0.0016 -0.3830 -0.9237
vn -0.0007 -0.0021 -1.0000
vn -0.1958 -0.5448 -0.8154
vn -0.0018 -0.7070 -0.7072
vn -0.0001 -0.3831 -0.9237
vn 0.0557 -0.6413 -0.7653
vn -0.2806 -0.6950 -0.6620
vn -0.2459 -0.3157 -0.9164
vn -0.1953 -0.8155 -0.5449
vn -0.0021 -0.9238 -0.3828
vn -0.0004 -0.7071 -0.7071
vn -0.2459 -0.9164 -0.3158
vn -0.2807 -0.6860 -0.6713
vn 0.0558 -0.7652 -0.6414
vn -0.3142 -0.8623 -0.3972
vn -0.6920 -0.6683 -0.2729
vn -0.5217 -0.5976 -0.6088
vn -0.8623 -0.3972 -0.3142
vn -0.6848 -0.2502 -0.6844
vn -0.5976 -0.6088 -0.5218
vn -0.7652 0.0557 -0.6414
vn -0.6860 -0.2807 -0.6712
vn -0.9164 -0.2459 -0.3157
vn -0.3157 -0.2459 -0.9164
vn -0.6949 -0.2806 -0.6620
vn -0.6413 0.0557 -0.7653
vn -0.9164 -0.3158 -0.2459
vn -0.6693 -0.6784 -0.3030
vn -0.7653 -0.6412 0.0560
vn -0.9513 0.0369 -0.3060
vn -0.8624 -0.3580 -0.3580
vn -0.9514 -0.3057 0.0372
vn -0.9239 -0.0007 -0.3827
vn -1.0000 -0.0018 -0.0015
vn -0.9618 -0.1934 -0.1935
vn -0.7071 -0.0004 -0.7071
vn -0.9238 -0.0021 -0.3828
vn -0.8142 -0.1953 -0.5467
vn -0.7029 0.0255 -0.7108
vn -0.9239 0.0061 -0.3826
vn -0.8743 0.2691 -0.4040
vn -0.9230 0.0216 -0.3842
vn -1.0000 -0.0000 -0.0016
vn -0.9940 0.1087 -0.0093
vn -0.7069 0.2827 -0.6484
vn -0.9249 0.1448 -0.3514
vn -0.8737 0.4040 -0.2708
vn -0.9239 0.1602 -0.3474
vn -1.0000 0.0001 -0.0003
vn -0.9940 0.1038 0.0330
vn -0.7066 0.5100 -0.4906
vn -0.9247 0.2692 -0.2692
vn -0.8736 0.4773 -0.0947
vn -0.9237 0.2818 -0.2595
vn -1.0000 0.0002 -0.0002
vn -0.9940 0.0833 0.0703
vn -0.8743 0.4041 -0.2691
vn -0.9239 0.3826 -0.0075
vn -0.7030 0.7107 -0.0283
vn -0.9940 0.0093 -0.1087
vn -1.0000 0.0013 -0.0000
vn -0.9230 0.3841 -0.0231
vn -0.7074 0.7067 -0.0123
vn -0.8139 0.5472 -0.1953
vn -0.9239 0.3826 -0.0057
vn -0.9617 0.1941 -0.1938
vn -0.7030 0.7107 0.0283
vn -0.9239 0.3826 0.0075
vn -0.8743 0.4040 0.2691
vn -0.9230 0.3841 0.0231
vn -0.9940 0.0093 0.1087
vn -0.7069 0.6484 0.2827
vn -0.9249 0.3514 0.1448
vn -0.8737 0.2708 0.4040
vn -0.9239 0.3474 0.1601
vn -1.0000 0.0002 0.0001
vn -0.9941 -0.0330 0.1038
vn -1.0000 0.0014 -0.0009
vn -1.0000 -0.0010 0.0021
vn -1.0000 -0.0023 -0.0003
vn -1.0000 -0.0000 0.0017
vn -1.0000 0.0003 -0.0000
vn -1.0000 -0.0003 0.0002
vn -1.0000 -0.0000 -0.0000
vn -1.0000 0.0002 -0.0003
vn -1.0000 0.0002 -0.0013
vn -1.0000 0.0002 0.0013
vn -1.0000 -0.0016 -0.0002
vn -1.0000 0.0003 -0.0016
vn -1.0000 -0.0022 0.0008
vn -1.0000 0.0002 0.0002
vn -1.0000 -0.0001 0.0003
vn -1.0000 0.0003 0.0001
vn -1.0000 0.0003 -0.0013
vn -1.0000 0.0006 0.0012
vn -1.0000 -0.0015 -0.0007
vn -0.9363 0.0475 0.3480
vn -0.9248 0.2691 0.2691
vn -0.9999 -0.0134 0.0101
vn -0.9360 -0.0910 0.3401
vn -0.9250 0.1448 0.3514
vn -0.9999 -0.0159 0.0042
vn -0.9619 0.1951 0.1913
vn -0.9240 0.0061 0.3824
vn -1.0000 -0.0014 0.0017
vn -0.9514 -0.3057 -0.0372
vn -0.8624 -0.3580 0.3580
vn -0.9513 0.0369 0.3059
vn -0.9239 -0.3826 0.0006
vn -1.0000 -0.0019 0.0015
vn -0.9619 -0.1931 0.1933
vn -0.7653 -0.6413 -0.0560
vn -0.6693 -0.6784 0.3030
vn -0.9164 -0.3158 0.2459
vn -0.7071 -0.7071 0.0003
vn -0.9239 -0.3827 0.0017
vn -0.8145 -0.5464 0.1951
vn -0.3157 -0.9164 0.2459
vn -0.6784 -0.6693 0.3030
vn -0.6412 -0.7653 -0.0560
vn -0.3827 -0.9239 0.0005
vn -0.7071 -0.7071 0.0015
vn -0.5434 -0.8165 0.1950
vn -0.6412 -0.7653 0.0560
vn -0.6784 -0.6693 -0.3031
vn -0.3157 -0.9164 -0.2459
vn -0.3058 -0.9514 0.0372
vn -0.3580 -0.8624 -0.3580
vn 0.0369 -0.9513 -0.3059
vn -0.0018 -1.0000 0.0003
vn -0.3826 -0.9239 0.0017
vn -0.1896 -0.9623 0.1950
vn -0.1935 -0.9623 -0.1914
vn -0.0006 -0.9239 -0.3827
vn -0.0000 -1.0000 -0.0003
vn 0.0013 -1.0000 -0.0000
vn 0.0002 -1.0000 0.0013
vn 0.0002 -1.0000 -0.0013
vn 0.0001 -1.0000 0.0003
vn -0.0016 -1.0000 0.0002
vn 0.0014 -1.0000 0.0009
vn -0.0018 -1.0000 0.0015
vn -0.0010 -1.0000 -0.0021
vn -0.0023 -1.0000 0.0003
vn -0.0000 -1.0000 -0.0017
vn 0.0003 -1.0000 -0.0000
vn -0.0003 -1.0000 -0.0002
vn 0.0002 -1.0000 0.0003
vn 0.0013 -1.0000 0.0001
vn -0.0006 -1.0000 0.0015
vn -0.0023 -1.0000 0.0001
vn 0.0001 -1.0000 -0.0003
vn 0.0368 -0.9513 0.3060
vn -0.3580 -0.8624 0.3579
vn -0.3057 -0.9514 -0.0372
vn -0.0007 -0.9239 0.3827
vn -0.1935 -0.9618 0.1935
vn 0.0216 -0.9230 0.3842
vn -0.0000 -1.0000 0.0017
vn 0.1087 -0.9940 0.0093
vn 0.3037 -0.9360 0.1780
vn 0.1448 -0.9250 0.3513
vn 0.0145 -0.9999 -0.0085
vn 0.3480 -0.9363 0.0474
vn 0.2691 -0.9247 0.2691
vn 0.0101 -0.9999 -0.0134
vn 0.3411 -0.9358 -0.0894
vn 0.3514 -0.9250 0.1448
vn 0.0041 -0.9999 -0.0159
vn 0.1913 -0.9620 0.1950
vn 0.3825 -0.9239 0.0075
vn 0.0013 -1.0000 -0.0018
vn 0.3841 -0.9230 -0.0231
vn 0.0093 -0.9940 -0.1087
vn 0.0833 -0.9940 0.0703
vn 0.0002 -1.0000 -0.0002
vn 0.2818 -0.9237 -0.2595
vn 0.1038 -0.9940 0.0330
vn 0.1601 -0.9239 -0.3474
vn 0.1087 -0.9940 -0.0093
vn 0.0216 -0.9230 -0.3842
vn 0.2691 -0.8743 -0.4041
vn 0.0061 -0.9239 -0.3826
vn 0.0255 -0.7029 -0.7108
vn 0.4905 -0.7066 -0.5100
vn 0.2692 -0.9247 -0.2692
vn 0.0947 -0.8737 -0.4772
vn 0.4773 -0.8736 -0.0947
vn 0.2692 -0.9247 -0.2691
vn 0.5100 -0.7066 -0.4906
vn 0.8504 -0.3785 -0.3655
vn 0.6491 -0.7118 -0.2682
vn 0.5057 -0.5915 -0.6280
vn 0.9265 -0.3749 -0.0318
vn 0.7066 -0.7074 -0.0142
vn 0.7071 -0.5923 -0.3863
vn 0.7107 -0.7030 -0.0283
vn 0.3826 -0.9239 -0.0075
vn 0.4041 -0.8743 -0.2691
vn 0.8154 -0.5449 0.1954
vn 0.9235 -0.3831 0.0188
vn 0.7066 -0.7075 0.0124
vn 0.7067 -0.7074 0.0123
vn 0.5472 -0.8139 0.1953
vn 0.8628 -0.4998 -0.0758
vn 0.8518 -0.3876 0.3525
vn 0.6473 -0.7188 0.2536
vn 0.6371 -0.7660 -0.0856
vn 0.6491 -0.7119 0.2681
vn 0.3504 -0.9276 0.1294
vn 0.6634 -0.3784 0.6456
vn 0.4969 -0.7115 0.4968
vn 0.7741 -0.5913 0.2261
vn 0.5100 -0.7066 0.4906
vn 0.2692 -0.9247 0.2692
vn 0.4773 -0.8736 0.0947
vn 0.6669 -0.5092 0.5439
vn 0.3525 -0.3876 0.8517
vn 0.2771 -0.7189 0.6375
vn 0.2827 -0.7068 0.6484
vn 0.1448 -0.9249 0.3514
vn 0.4041 -0.8737 0.2708
vn 0.0282 -0.3747 0.9267
vn 0.0115 -0.7074 0.7067
vn 0.3862 -0.5923 0.7071
vn 0.0255 -0.7029 0.7108
vn 0.0061 -0.9239 0.3825
vn 0.2691 -0.8743 0.4040
vn -0.0001 -0.3831 0.9237
vn -0.0018 -0.7070 0.7072
vn -0.1959 -0.5430 0.8166
vn -0.0004 -0.7071 0.7071
vn -0.0021 -0.9238 0.3828
vn -0.1953 -0.8142 0.5467
vn 0.0557 -0.7651 0.6415
vn -0.2807 -0.6860 0.6713
vn -0.2458 -0.9164 0.3158
vn -0.2459 -0.3158 0.9164
vn -0.2806 -0.6950 0.6620
vn 0.0557 -0.6413 0.7653
vn -0.0007 -0.0022 1.0000
vn -0.1960 -0.1892 0.9622
vn -0.6413 0.0557 0.7653
vn -0.6950 -0.2806 0.6620
vn -0.3157 -0.2459 0.9164
vn -0.3972 -0.8623 0.3142
vn -0.2501 -0.6848 0.6845
vn -0.6088 -0.5976 0.5218
vn -0.8623 -0.3142 0.3972
vn -0.6683 -0.6920 0.2729
vn -0.5976 -0.5218 0.6088
vn -0.9164 -0.2459 0.3158
vn -0.6860 -0.2807 0.6713
vn -0.7652 0.0557 0.6414
vn -0.5449 0.1947 0.8156
vn -0.3831 0.0152 0.9236
vn -0.7075 0.0100 0.7067
vn -0.8155 0.1951 0.5449
vn -0.7075 0.0114 0.7066
vn -0.9240 0.0046 0.3825
vn -0.5022 -0.0789 0.8611
vn -0.7188 0.2536 0.6473
vn -0.7672 -0.0882 0.6353
vn -0.7119 0.2681 0.6491
vn -0.9276 0.1294 0.3504
vn -0.3784 0.6456 0.6634
vn -0.7115 0.4968 0.4969
vn -0.5913 0.2261 0.7741
vn -0.7066 0.4906 0.5100
vn -0.9247 0.2692 0.2692
vn -0.8736 0.0947 0.4773
vn -0.5092 0.5439 0.6670
vn -0.3876 0.8517 0.3525
vn -0.7189 0.6375 0.2771
vn -0.1655 0.6409 0.7495
vn -0.0019 0.9250 0.3800
vn -0.3980 0.8429 0.3620
vn -0.1660 0.3050 0.9378
vn -0.0020 0.7111 0.7031
vn -0.3977 0.6401 0.6573
vn 0.0084 0.9994 0.0325
vn -0.3830 0.9236 0.0188
vn -0.2190 0.8671 0.4474
vn -0.3749 0.9265 0.0318
vn -0.5923 0.7071 0.3862
vn -0.0016 0.9998 -0.0186
vn -0.3830 0.9236 -0.0188
vn -0.1886 0.9622 -0.1963
vn -0.5449 0.8154 -0.1955
vn -0.3831 0.9235 -0.0188
vn -0.7075 0.7066 -0.0124
vn -0.2190 0.8671 -0.4474
vn -0.3830 0.9235 -0.0188
vn 0.0084 0.9994 -0.0325
vn -0.5923 0.7071 -0.3862
vn -0.7074 0.7067 -0.0142
vn -0.3749 0.9265 -0.0318
vn -0.2185 0.6299 -0.7453
vn -0.3875 0.8518 -0.3525
vn 0.0094 0.9203 -0.3910
vn -0.3784 0.6634 -0.6456
vn -0.7115 0.4969 -0.4969
vn -0.5914 0.7741 -0.2261
vn -0.2185 0.2964 -0.9298
vn -0.3873 0.6519 -0.6519
vn 0.0095 0.7026 -0.7115
vn -0.3785 0.3655 -0.8503
vn -0.7118 0.2682 -0.6491
vn -0.5915 0.6280 -0.5057
vn 0.0057 0.0435 -0.9990
vn -0.3830 0.0152 -0.9236
vn -0.2190 0.4474 -0.8671
vn -0.3747 0.0282 -0.9267
vn -0.7074 0.0115 -0.7067
vn -0.5923 0.3863 -0.7071
vn -0.0022 -0.0007 -1.0000
vn -0.1892 -0.1960 -0.9622
vn -0.3831 -0.0001 -0.9237
vn -0.7070 -0.0018 -0.7072
vn -0.5430 -0.1958 -0.8166
vn -0.0974 0.6901 -0.7172
vn -0.0094 0.3883 -0.9215
vn -0.0964 0.9111 -0.4009
vn 0.0018 0.9247 -0.3807
vn -0.0082 0.7104 -0.7037
vn -0.0856 0.9954 -0.0423
vn 0.0019 0.9998 -0.0204
vn -0.0079 0.9248 -0.3804
vn -0.0114 0.9994 -0.0332
vn 0.3825 0.9235 -0.0270
vn 0.0804 0.8537 -0.5145
vn 0.0018 0.9998 0.0185
vn 0.3825 0.9236 0.0269
vn 0.3388 0.9323 -0.1270
vn -0.0086 0.9998 0.0185
vn 0.0019 0.9998 0.0204
vn -0.0057 0.9998 -0.0197
vn 0.2010 0.9781 -0.0544
vn 0.0019 0.9247 0.3806
vn 0.3521 0.8109 0.4673
vn -0.0079 0.9248 0.3804
vn -0.0856 0.9954 0.0423
vn 0.2805 0.8936 0.3503
vn 0.0015 0.7103 0.7039
vn 0.2456 0.5618 0.7899
vn -0.0082 0.7104 0.7037
vn 0.0018 0.9247 0.3807
vn -0.0964 0.9111 0.4009
vn 0.2802 0.6494 0.7069
vn 0.0007 0.3881 0.9216
vn 0.1729 0.4105 0.8953
vn -0.0094 0.3883 0.9215
vn -0.0974 0.6901 0.7171
vn 0.0102 0.3871 0.9220
vn -0.0039 0.0314 0.9995
vn 0.1552 0.1021 0.9826
vn -0.1644 0.1197 0.9791
vn -0.1170 0.3511 0.9290
vn -0.1492 -0.0552 0.9873
vn -0.0021 0.3874 0.9219
vn -0.3979 0.3395 0.8523
vn -0.1914 0.1929 0.9624
vn -0.3831 0.0137 0.9236
vn 0.1021 0.1552 0.9826
vn 0.0314 -0.0039 0.9995
vn 0.3871 0.0102 0.9220
vn 0.3604 -0.1013 0.9273
vn 0.0629 0.0368 0.9973
vn 0.0435 0.0057 0.9990
vn 0.0152 -0.3830 0.9236
vn 0.4474 -0.2190 0.8671
vn 0.7542 -0.1748 0.6330
vn 0.3620 -0.3980 0.8429
vn 0.6901 -0.0974 0.7172
vn 0.7103 0.0015 0.7039
vn 0.3883 -0.0094 0.9215
vn 0.4105 0.1729 0.8953
vn 0.3881 0.0007 0.9216
vn 0.6494 0.2801 0.7069
vn 0.5618 0.2456 0.7899
vn 0.8936 0.2805 0.3503
vn 0.9111 -0.0964 0.4009
vn 0.9247 0.0018 0.3807
vn 0.7104 -0.0082 0.7037
vn 0.8109 0.3521 0.4673
vn 0.9247 0.0018 0.3806
vn 0.9781 0.2010 -0.0544
vn 0.9954 -0.0856 0.0423
vn 0.9998 0.0019 0.0204
vn 0.9248 -0.0079 0.3804
vn 0.9855 -0.1564 -0.0655
vn 0.8523 -0.3980 0.3395
vn 0.7195 0.0089 0.6945
vn 0.9298 -0.2184 0.2964
vn 0.9621 -0.1914 0.1943
vn 0.9235 -0.3832 0.0170
vn 0.9998 -0.0086 -0.0185
vn 0.9998 0.0019 -0.0204
vn 0.9998 -0.0057 0.0197
vn 0.9994 0.0083 -0.0325
vn 0.9235 -0.3830 -0.0188
vn 0.8671 -0.2190 -0.4474
vn 0.9248 -0.0079 -0.3804
vn 0.9954 -0.0856 -0.0423
vn 0.9781 0.2010 0.0544
vn 0.9247 0.0019 -0.3807
vn 0.8109 0.3521 -0.4673
vn 0.9235 0.3828 0.0250
vn 0.9998 0.0020 0.0204
vn 0.9921 0.0407 -0.1188
vn 0.8172 0.5750 0.0397
vn 0.8116 0.3362 -0.4778
vn 0.6031 0.6234 -0.4976
vn 0.7067 0.7070 0.0273
vn 0.9235 0.3826 0.0269
vn 0.8988 0.4196 -0.1270
vn 0.6032 0.6233 0.4976
vn 0.8116 0.3362 0.4778
vn 0.8172 0.5750 -0.0397
vn 0.5750 0.8172 -0.0397
vn 0.3362 0.8116 0.4778
vn 0.6234 0.6031 0.4976
vn 0.3824 0.9237 0.0250
vn 0.6683 0.7325 -0.1294
vn 0.5454 0.7126 0.4413
vn 0.2322 0.5605 0.7950
vn 0.4187 0.4048 0.8129
vn 0.4048 0.4187 0.8129
vn 0.5605 0.2322 0.7950
vn 0.7125 0.5455 0.4413
vn 0.4006 0.4719 0.7854
vn 0.2986 0.2978 0.9067
vn 0.2978 0.2986 0.9067
vn 0.4719 0.4006 0.7854
vn 0.3688 0.9287 -0.0391
vn 0.4014 0.7353 -0.5461
vt 0.621521 0.159885
vt 0.544058 0.157403
vt 0.549197 0.148507
vt 0.621521 0.148500
vt 0.621517 0.025553
vt 0.549193 0.025560
vt 0.693849 0.025564
vt 0.698123 0.036954
vt 0.621526 0.036938
vt 0.698989 0.034460
vt 0.699000 0.036686
vt 0.544047 0.159630
vt 0.544925 0.159897
vt 0.699776 0.035900
vt 0.543272 0.158844
vt 0.538465 0.171080
vt 0.539347 0.171288
vt 0.535607 0.182670
vt 0.534736 0.182559
vt 0.537653 0.170432
vt 0.708312 0.059615
vt 0.705395 0.047488
vt 0.709169 0.059239
vt 0.704582 0.048137
vt 0.707441 0.059727
vt 0.703700 0.048345
vt 0.621525 0.059710
vt 0.621526 0.048324
vt 0.476169 0.095379
vt 0.468514 0.069983
vt 0.477988 0.094071
vt 0.467112 0.072368
vt 0.454346 0.053871
vt 0.453577 0.056964
vt 0.437850 0.047924
vt 0.452817 0.060011
vt 0.437641 0.051245
vt 0.263942 0.048157
vt 0.437432 0.054551
vt 0.264012 0.051483
vt 0.261959 0.052093
vt 0.264081 0.054749
vt 0.437225 0.057852
vt 0.262186 0.057644
vt 0.264132 0.057952
vt 0.260957 0.055153
vt 0.262203 0.054929
vt 0.016974 0.417138
vt 0.015747 0.419627
vt 0.015338 0.417462
vt 0.016748 0.422685
vt 0.016992 0.419850
vt 0.018868 0.420030
vt 0.018920 0.416830
vt 0.018800 0.423294
vt 0.015059 0.413957
vt 0.017016 0.413745
vt 0.018924 0.413635
vt 0.191680 0.413632
vt 0.191884 0.416932
vt 0.192091 0.420231
vt 0.206709 0.411748
vt 0.207465 0.414782
vt 0.205953 0.408708
vt 0.218993 0.397749
vt 0.220367 0.400086
vt 0.217616 0.395410
vt 0.227220 0.376861
vt 0.229005 0.378145
vt 0.225432 0.375576
vt 0.232207 0.352018
vt 0.230270 0.351666
vt 0.230269 0.119591
vt 0.232206 0.119239
vt 0.228331 0.119942
vt 0.227219 0.094397
vt 0.229004 0.093114
vt 0.225431 0.095682
vt 0.218992 0.073509
vt 0.220367 0.071175
vt 0.217615 0.075848
vt 0.205952 0.062552
vt 0.228332 0.351315
vt 0.206709 0.059512
vt 0.191884 0.054327
vt 0.191680 0.057628
vt 0.018920 0.054430
vt 0.018924 0.057624
vt 0.017016 0.057514
vt 0.015059 0.057303
vt 0.016974 0.054122
vt 0.262184 0.420929
vt 0.260268 0.417746
vt 0.262226 0.417534
vt 0.260269 0.060827
vt 0.262227 0.061039
vt 0.264137 0.061149
vt 0.264135 0.417424
vt 0.437020 0.061154
vt 0.462975 0.399188
vt 0.470802 0.099236
vt 0.264131 0.420621
vt 0.437019 0.417422
vt 0.437224 0.420725
vt 0.451303 0.412495
vt 0.452060 0.415537
vt 0.464353 0.401529
vt 0.472586 0.380625
vt 0.470797 0.379339
vt 0.475638 0.355411
vt 0.473699 0.355060
vt 0.475638 0.123165
vt 0.473699 0.123515
vt 0.472591 0.097951
vt 0.464355 0.077052
vt 0.462978 0.079393
vt 0.452061 0.063048
vt 0.451303 0.066091
vt 0.465730 0.074713
vt 0.474377 0.096667
vt 0.479518 0.122458
vt 0.477577 0.122812
vt 0.477577 0.355764
vt 0.479518 0.356119
vt 0.474372 0.381909
vt 0.467110 0.406214
vt 0.476165 0.383199
vt 0.465729 0.403868
vt 0.452816 0.418574
vt 0.437639 0.427332
vt 0.453575 0.421620
vt 0.437430 0.424027
vt 0.264011 0.427091
vt 0.264080 0.423824
vt 0.261958 0.426480
vt 0.263941 0.430416
vt 0.437848 0.430654
vt 0.018868 0.051229
vt 0.016748 0.048575
vt 0.018800 0.047965
vt 0.018730 0.044642
vt 0.016991 0.051409
vt 0.015747 0.051632
vt 0.262201 0.423644
vt 0.260955 0.423421
vt 0.260546 0.421253
vt 0.192091 0.051028
vt 0.192299 0.047725
vt 0.207465 0.056478
vt 0.221747 0.068830
vt 0.208224 0.053433
vt 0.223149 0.066449
vt 0.230795 0.091825
vt 0.208993 0.050342
vt 0.236094 0.118529
vt 0.232613 0.090520
vt 0.234145 0.118884
vt 0.236095 0.352728
vt 0.230796 0.379433
vt 0.232614 0.380738
vt 0.234146 0.352373
vt 0.221747 0.402432
vt 0.223150 0.404812
vt 0.208223 0.417827
vt 0.208993 0.420917
vt 0.192507 0.426853
vt 0.192299 0.423534
vt 0.018730 0.426618
vt 0.621521 0.171271
vt 0.621522 0.182657
vt 0.621522 0.194043
vt 0.534276 0.194044
vt 0.534276 0.291295
vt 0.533403 0.194009
vt 0.621522 0.291297
vt 0.534736 0.302780
vt 0.533403 0.291331
vt 0.535608 0.302668
vt 0.621521 0.302683
vt 0.538466 0.314258
vt 0.539348 0.314050
vt 0.621521 0.314069
vt 0.544048 0.325708
vt 0.544926 0.325441
vt 0.621520 0.325455
vt 0.544059 0.327935
vt 0.549199 0.336830
vt 0.192507 0.044407
vt 0.621520 0.336841
vt 0.621514 0.459782
vt 0.549193 0.459771
vt 0.621523 0.202510
vt 0.698987 0.204995
vt 0.693847 0.213891
vt 0.454346 0.424713
vt 0.468514 0.408596
vt 0.621523 0.191124
vt 0.698120 0.202501
vt 0.698998 0.202769
vt 0.703698 0.191110
vt 0.704581 0.191318
vt 0.707439 0.179729
vt 0.708311 0.179840
vt 0.621523 0.179738
vt 0.708771 0.168355
vt 0.709645 0.168390
vt 0.621522 0.168352
vt 0.481468 0.356474
vt 0.477984 0.384505
vt 0.481468 0.122102
vt 0.621524 0.071095
vt 0.708772 0.071100
vt 0.709646 0.071065
vt 0.710521 0.070957
vt 0.710521 0.168498
vt 0.709167 0.180216
vt 0.533880 0.303156
vt 0.532528 0.291438
vt 0.532528 0.193901
vt 0.537654 0.314906
vt 0.705393 0.191967
vt 0.543273 0.326494
vt 0.699773 0.203554
vt 0.533879 0.182183
vt 0.621527 0.025553
vt 0.260548 0.057320
vt 0.015338 0.053798
vt 0.621524 0.213895
s 0
usemtl multitexture
f 143/1/1 5/2/2 1/3/3
f 2/4/4 1/3/5 3/5/6
f 3/5/6 1/3/5 4/6/7
f 1/7/8 6/8/9 23/9/10
f 6/8/11 5/10/12 8/11/13
f 10/12/14 5/2/15 7/13/16
f 8/11/13 5/10/15 9/14/17
f 9/15/17 5/2/15 10/12/14
f 11/16/18 9/15/19 10/12/14
f 12/17/20 10/12/21 7/13/22
f 146/18/23 11/16/24 12/17/25
f 13/19/26 14/20/27 11/16/28
f 17/21/29 14/22/30 15/23/31
f 16/24/32 9/14/33 14/22/34
f 19/25/35 16/24/36 17/21/37
f 18/26/38 8/11/39 16/24/40
f 18/26/41 21/27/42 20/28/43
f 6/8/44 20/28/45 23/9/46
f 103/29/47 20/30/48 21/31/49
f 22/32/50 23/33/51 20/30/52
f 24/34/53 4/35/54 23/33/55
f 22/32/56 25/36/57 24/34/58
f 25/36/59 26/37/60 24/34/58
f 26/37/61 3/38/62 4/35/63
f 27/39/64 28/40/65 26/37/66
f 28/40/67 29/41/68 3/38/69
f 30/42/70 29/41/71 28/40/72
f 100/43/73 30/42/74 27/39/75
f 33/44/76 30/42/77 31/45/78
f 33/44/79 34/46/80 32/47/81
f 32/47/82 34/46/83 29/41/84
f 38/48/85 34/49/86 35/50/87
f 29/51/84 34/49/83 36/52/88
f 37/53/89 38/48/90 40/54/91
f 29/51/92 37/53/93 145/55/94
f 38/48/95 76/56/96 39/57/97
f 40/54/98 39/57/99 41/58/100
f 40/54/101 44/59/102 42/60/103
f 37/53/104 42/60/105 43/61/106
f 43/61/107 45/62/108 46/63/109
f 42/60/110 47/64/111 45/62/112
f 46/63/113 48/65/114 49/66/115
f 45/62/116 50/67/117 48/65/118
f 49/66/119 51/68/120 52/69/121
f 48/65/122 53/70/123 51/68/124
f 51/68/125 55/71/126 52/69/127
f 53/70/128 54/72/129 51/68/124
f 55/71/130 57/73/131 58/74/132
f 54/72/133 59/75/134 57/73/135
f 58/74/136 60/76/137 61/77/138
f 57/73/139 63/78/140 60/76/141
f 61/77/142 62/79/143 129/80/144
f 60/76/145 64/81/146 62/79/147
f 65/82/148 56/83/149 44/59/150
f 66/84/151 64/81/152 65/82/153
f 68/85/154 65/82/155 67/86/156
f 70/87/157 67/86/158 69/88/159
f 71/89/160 70/87/161 69/88/162
f 71/89/163 41/58/164 39/57/165
f 73/90/166 72/91/167 71/89/168
f 73/90/169 39/57/170 76/56/171
f 182/92/172 73/93/173 74/94/174
f 74/94/175 76/95/176 77/96/177
f 76/95/178 33/44/179 77/96/180
f 77/96/181 31/45/182 78/97/183
f 80/98/184 77/96/185 78/97/186
f 79/99/187 31/45/188 100/43/189
f 86/100/190 78/97/191 94/101/192
f 81/102/193 74/94/194 80/98/195
f 81/102/196 82/103/197 83/104/198
f 83/104/199 84/105/200 85/106/201
f 87/107/202 84/105/203 86/100/204
f 89/108/205 86/100/206 88/109/207
f 91/110/208 88/109/209 90/111/210
f 93/112/211 90/111/212 92/113/210
f 93/112/213 94/101/214 95/114/215
f 94/101/216 97/115/217 95/114/215
f 96/116/218 99/117/219 97/115/220
f 98/118/221 100/43/222 99/117/223
f 99/117/224 27/39/225 25/36/226
f 101/119/227 99/117/228 25/36/229
f 95/114/230 101/119/231 102/120/232
f 103/29/233 101/119/234 22/32/235
f 105/121/236 102/120/237 103/29/238
f 104/122/239 95/114/240 102/120/241
f 105/121/242 106/123/243 104/122/244
f 106/123/245 93/112/211 104/122/246
f 107/124/247 108/125/248 106/123/249
f 106/123/250 89/108/251 91/110/252
f 111/126/253 108/125/254 109/127/255
f 110/128/256 89/108/257 108/125/258
f 111/126/259 112/129/260 110/128/261
f 112/129/262 87/107/263 110/128/264
f 115/130/265 112/129/266 113/131/267
f 114/132/268 85/106/269 112/129/270
f 118/133/271 114/132/272 115/130/273
f 116/134/274 83/104/275 114/132/276
f 116/134/277 182/92/278 81/102/279
f 120/135/280 116/134/281 118/133/282
f 118/133/283 119/136/284 120/135/285
f 119/136/286 115/130/287 161/137/288
f 124/138/289 120/139/290 121/140/291
f 119/141/284 121/140/292 120/139/285
f 120/139/293 122/142/294 123/143/295
f 117/144/296 120/135/293 123/145/295
f 182/92/297 123/145/298 75/146/299
f 72/91/300 123/143/301 122/142/302
f 72/91/303 124/138/304 70/87/305
f 121/140/306 125/147/307 124/138/308
f 124/138/309 68/85/310 70/87/311
f 126/148/312 127/149/313 125/147/314
f 125/147/315 66/84/316 68/85/317
f 130/150/318 127/149/319 128/151/320
f 129/80/321 66/84/322 127/149/323
f 130/150/324 61/77/325 129/80/326
f 131/152/327 132/153/328 130/150/329
f 158/154/330 130/150/331 128/151/332
f 135/155/333 132/153/334 133/156/335
f 134/157/336 61/77/337 132/153/338
f 137/158/339 134/157/340 135/155/341
f 134/157/342 55/71/343 58/74/344
f 138/159/345 137/158/346 139/160/347
f 52/69/348 136/161/349 138/159/350
f 140/162/351 139/160/352 141/163/353
f 140/162/354 52/69/355 138/159/350
f 142/164/356 141/163/357 143/165/358
f 142/164/359 49/66/360 140/162/361
f 2/166/362 142/164/363 143/165/358
f 144/167/364 46/63/365 142/164/366
f 3/168/367 144/167/368 2/166/4
f 145/55/369 43/61/370 144/167/371
f 3/168/69 29/51/68 145/55/372
f 141/169/373 7/13/374 143/1/375
f 139/170/376 12/17/377 141/169/378
f 137/171/379 146/18/380 139/170/381
f 147/172/382 13/19/383 146/18/384
f 149/173/385 148/174/386 147/172/387
f 135/175/388 147/172/389 137/171/390
f 149/173/391 152/176/392 150/177/393
f 151/178/394 135/175/395 133/179/396
f 151/178/397 154/180/398 152/176/399
f 153/181/400 133/179/401 131/182/402
f 153/181/403 156/183/404 154/180/405
f 155/184/406 131/182/407 158/185/408
f 156/183/409 155/184/410 157/186/411
f 160/187/412 155/184/413 158/185/414
f 159/188/415 128/151/416 126/148/417
f 119/141/418 126/148/419 121/140/420
f 159/189/421 119/190/422 160/187/423
f 119/190/422 161/191/288 160/187/423
f 162/192/424 157/193/425 160/194/426
f 161/137/427 113/131/428 162/195/429
f 163/196/430 113/131/431 111/126/432
f 163/197/433 164/198/434 162/192/435
f 164/198/436 165/199/437 157/193/411
f 165/199/438 166/200/439 167/201/440
f 167/201/441 168/202/442 169/203/443
f 171/204/444 166/200/445 163/197/446
f 169/203/447 170/205/448 177/206/449
f 172/207/450 168/202/451 171/204/452
f 172/208/453 109/127/454 107/124/455
f 163/196/456 109/127/457 171/209/458
f 173/210/459 107/124/460 105/121/461
f 173/211/462 170/205/463 172/207/464
f 173/210/465 103/29/466 21/31/467
f 19/25/468 173/211/469 21/27/470
f 174/212/471 17/21/472 175/213/473
f 177/206/474 174/212/475 175/213/476
f 175/213/477 15/23/478 176/214/479
f 178/215/480 175/213/481 176/214/479
f 179/216/482 177/206/483 178/215/484
f 150/177/485 179/217/486 178/218/484
f 150/177/487 176/219/488 148/174/489
f 152/176/490 180/220/491 179/217/492
f 180/221/493 169/203/494 179/216/495
f 154/180/496 181/222/497 180/220/498
f 181/223/499 167/201/500 180/221/501
f 165/199/502 181/223/503 157/193/411
f 181/222/503 156/183/409 157/186/411
f 148/174/504 15/224/505 13/19/506
f 1/3/507 2/4/508 143/1/509
f 143/1/510 7/13/16 5/2/511
f 23/9/512 4/225/513 1/7/514
f 1/7/515 5/10/15 6/8/516
f 11/16/517 14/20/518 9/15/519
f 12/17/520 11/16/521 10/12/522
f 146/18/523 13/19/524 11/16/525
f 13/19/526 15/224/527 14/20/528
f 17/21/529 16/24/530 14/22/531
f 16/24/532 8/11/13 9/14/533
f 19/25/534 18/26/535 16/24/536
f 18/26/537 6/8/538 8/11/539
f 18/26/540 19/25/541 21/27/542
f 6/8/543 18/26/535 20/28/544
f 103/29/545 22/32/546 20/30/547
f 22/32/548 24/34/549 23/33/550
f 24/34/551 26/37/552 4/35/553
f 22/32/554 101/119/555 25/36/556
f 25/36/557 27/39/75 26/37/558
f 26/37/559 28/40/560 3/38/561
f 27/39/562 30/42/563 28/40/564
f 30/42/565 32/47/566 29/41/567
f 100/43/568 31/45/569 30/42/570
f 33/44/571 32/47/572 30/42/573
f 33/44/574 35/226/575 34/46/576
f 38/48/577 36/52/578 34/49/579
f 37/53/580 36/52/581 38/48/582
f 29/51/583 36/52/584 37/53/585
f 38/48/586 35/50/587 76/56/588
f 40/54/589 38/48/590 39/57/591
f 40/54/592 41/58/593 44/59/594
f 37/53/595 40/54/596 42/60/597
f 43/61/598 42/60/599 45/62/600
f 42/60/601 44/59/602 47/64/603
f 46/63/604 45/62/605 48/65/606
f 45/62/607 47/64/608 50/67/609
f 49/66/610 48/65/611 51/68/612
f 48/65/613 50/67/614 53/70/615
f 51/68/616 54/72/617 55/71/618
f 53/70/619 56/83/620 54/72/621
f 55/71/622 54/72/617 57/73/623
f 54/72/624 56/83/620 59/75/625
f 58/74/626 57/73/627 60/76/628
f 57/73/629 59/75/620 63/78/630
f 61/77/631 60/76/632 62/79/633
f 60/76/634 63/78/635 64/81/636
f 44/59/637 41/58/593 69/88/638
f 69/88/639 67/86/640 65/82/641
f 65/82/642 64/81/643 63/78/644
f 63/78/148 59/75/620 56/83/645
f 56/83/646 53/70/643 50/67/643
f 50/67/643 47/64/643 44/59/647
f 44/59/648 69/88/649 65/82/650
f 65/82/651 63/78/652 56/83/653
f 56/83/654 50/67/643 44/59/655
f 66/84/656 62/79/657 64/81/658
f 68/85/659 66/84/660 65/82/661
f 70/87/662 68/85/663 67/86/664
f 71/89/665 72/91/666 70/87/667
f 71/89/668 69/88/669 41/58/670
f 73/90/671 75/227/672 72/91/673
f 73/90/674 71/89/675 39/57/676
f 182/92/677 75/146/678 73/93/679
f 74/94/680 73/93/681 76/95/682
f 76/95/683 35/226/684 33/44/685
f 77/96/686 33/44/687 31/45/688
f 80/98/689 74/94/690 77/96/691
f 79/99/692 78/97/186 31/45/693
f 94/101/694 92/113/695 90/111/696
f 90/111/697 88/109/207 86/100/190
f 86/100/190 84/105/698 82/103/699
f 82/103/700 80/98/701 78/97/702
f 78/97/703 79/99/704 98/118/705
f 98/118/706 96/116/190 94/101/707
f 94/101/694 90/111/708 86/100/190
f 86/100/190 82/103/709 78/97/186
f 78/97/710 98/118/711 94/101/207
f 81/102/712 182/92/713 74/94/714
f 81/102/715 80/98/701 82/103/716
f 83/104/717 82/103/718 84/105/719
f 87/107/720 85/106/721 84/105/722
f 89/108/723 87/107/724 86/100/725
f 91/110/726 89/108/727 88/109/728
f 93/112/729 91/110/730 90/111/731
f 93/112/732 92/113/210 94/101/733
f 94/101/734 96/116/735 97/115/736
f 96/116/737 98/118/711 99/117/738
f 98/118/739 79/99/704 100/43/740
f 99/117/741 100/43/742 27/39/743
f 101/119/744 97/115/745 99/117/746
f 95/114/747 97/115/748 101/119/749
f 103/29/750 102/120/751 101/119/752
f 105/121/753 104/122/754 102/120/755
f 104/122/756 93/112/757 95/114/758
f 105/121/759 107/124/760 106/123/761
f 106/123/762 91/110/252 93/112/763
f 107/124/764 109/127/765 108/125/766
f 106/123/767 108/125/768 89/108/769
f 111/126/770 110/128/771 108/125/772
f 110/128/773 87/107/774 89/108/775
f 111/126/776 113/131/777 112/129/778
f 112/129/779 85/106/780 87/107/781
f 115/130/782 114/132/783 112/129/784
f 114/132/785 83/104/786 85/106/787
f 118/133/788 116/134/789 114/132/790
f 116/134/791 81/102/792 83/104/793
f 116/134/794 117/144/795 182/92/796
f 120/135/797 117/144/798 116/134/799
f 119/136/800 118/133/283 115/130/801
f 124/138/802 122/142/803 120/139/804
f 182/92/805 117/144/806 123/145/807
f 72/91/808 75/227/809 123/143/810
f 72/91/811 122/142/812 124/138/813
f 121/140/814 126/148/815 125/147/816
f 124/138/817 125/147/818 68/85/819
f 126/148/820 128/151/320 127/149/821
f 125/147/822 127/149/823 66/84/824
f 130/150/825 129/80/826 127/149/827
f 129/80/828 62/79/829 66/84/830
f 130/150/831 132/153/832 61/77/833
f 131/152/834 133/156/835 132/153/836
f 158/154/837 131/152/838 130/150/839
f 135/155/840 134/157/841 132/153/842
f 134/157/843 58/74/344 61/77/844
f 137/158/845 136/161/846 134/157/847
f 134/157/848 136/161/849 55/71/850
f 138/159/851 136/161/852 137/158/853
f 52/69/854 55/71/855 136/161/856
f 140/162/857 138/159/858 139/160/859
f 140/162/860 49/66/861 52/69/862
f 142/164/863 140/162/864 141/163/865
f 142/164/866 46/63/867 49/66/868
f 2/166/869 144/167/870 142/164/871
f 144/167/872 43/61/873 46/63/874
f 3/168/875 145/55/372 144/167/876
f 145/55/877 37/53/878 43/61/879
f 141/169/880 12/17/25 7/13/881
f 139/170/882 146/18/883 12/17/884
f 137/171/885 147/172/886 146/18/887
f 147/172/888 148/174/889 13/19/890
f 149/173/891 150/177/892 148/174/893
f 135/175/894 149/173/895 147/172/896
f 149/173/897 151/178/898 152/176/899
f 151/178/900 149/173/895 135/175/901
f 151/178/902 153/181/903 154/180/904
f 153/181/905 151/178/906 133/179/907
f 153/181/908 155/184/909 156/183/910
f 155/184/911 153/181/903 131/182/912
f 158/185/913 159/189/914 160/187/915
f 160/187/916 157/186/411 155/184/917
f 159/188/918 158/154/919 128/151/920
f 119/141/921 159/188/421 126/148/922
f 160/194/923 161/228/924 162/192/925
f 162/192/926 164/198/436 157/193/927
f 161/137/928 115/130/929 113/131/930
f 163/196/931 162/195/429 113/131/932
f 163/197/933 166/200/934 164/198/935
f 165/199/936 164/198/937 166/200/938
f 167/201/939 166/200/934 168/202/940
f 171/204/941 168/202/942 166/200/943
f 169/203/944 168/202/945 170/205/946
f 172/207/947 170/205/948 168/202/949
f 172/208/950 171/209/458 109/127/951
f 163/196/952 111/126/432 109/127/953
f 173/210/954 172/208/464 107/124/955
f 173/211/956 174/212/957 170/205/958
f 173/210/959 105/121/960 103/29/961
f 19/25/962 174/212/957 173/211/963
f 174/212/964 19/25/965 17/21/966
f 177/206/967 170/205/968 174/212/969
f 175/213/970 17/21/971 15/23/972
f 178/215/973 177/206/974 175/213/975
f 179/216/976 169/203/977 177/206/978
f 150/177/979 152/176/980 179/217/981
f 150/177/982 178/218/484 176/219/983
f 152/176/984 154/180/985 180/220/986
f 180/221/987 167/201/988 169/203/989
f 154/180/990 156/183/409 181/222/991
f 181/223/992 165/199/502 167/201/993
f 148/174/994 176/219/479 15/224/995
