# Blender 5.0.1
# www.blender.org

mtllib material.mtl
o corner_DLB
v -0.295654 -0.295654 -0.300162
v -0.295654 -0.297379 -0.299819
v -0.297379 -0.295654 -0.299819
v -0.295654 -0.104342 -0.300162
v -0.104342 -0.295654 -0.300162
v -0.102617 -0.295654 -0.299819
v -0.104342 -0.297379 -0.299819
v -0.104342 -0.104342 -0.300162
v -0.104342 -0.102617 -0.299819
v -0.102617 -0.104342 -0.299819
v -0.102574 -0.102574 -0.299404
v -0.101155 -0.104342 -0.298841
v -0.100178 -0.104342 -0.297379
v -0.101384 -0.102664 -0.298612
v -0.101155 -0.295654 -0.298841
v -0.101384 -0.297332 -0.298612
v -0.100178 -0.295654 -0.297379
v -0.099835 -0.295654 -0.295654
v -0.100592 -0.297422 -0.297422
v -0.100178 -0.297379 -0.295654
v -0.101384 -0.298612 -0.297333
v -0.101740 -0.298256 -0.298257
v -0.102664 -0.298612 -0.298612
v -0.104342 -0.298841 -0.298841
v -0.102574 -0.297422 -0.299405
v -0.102574 -0.299404 -0.297422
v -0.102617 -0.299818 -0.295654
v -0.104342 -0.299818 -0.297379
v -0.104342 -0.300161 -0.295654
v -0.295654 -0.299818 -0.297379
v -0.295654 -0.300161 -0.295654
v -0.297422 -0.299404 -0.297422
v -0.295654 -0.298841 -0.298841
v -0.297332 -0.298612 -0.298612
v -0.297422 -0.297422 -0.299404
v -0.298256 -0.298256 -0.298257
v -0.298612 -0.297332 -0.298612
v -0.298612 -0.298612 -0.297333
v -0.298841 -0.298841 -0.295654
v -0.299404 -0.297422 -0.297422
v -0.299818 -0.297379 -0.295654
v -0.299818 -0.295654 -0.297379
v -0.300161 -0.295654 -0.295654
v -0.298841 -0.295654 -0.298841
v -0.299818 -0.104342 -0.297379
v -0.300162 -0.104342 -0.295654
v -0.299404 -0.102574 -0.297422
v -0.298841 -0.104342 -0.298841
v -0.297379 -0.104342 -0.299818
v -0.298612 -0.102664 -0.298612
v -0.297422 -0.102574 -0.299404
v -0.298256 -0.101740 -0.298257
v -0.297333 -0.101384 -0.298612
v -0.298612 -0.101384 -0.297333
v -0.297422 -0.100592 -0.297422
v -0.297379 -0.100178 -0.295654
v -0.295654 -0.100178 -0.297379
v -0.295654 -0.099835 -0.295654
v -0.295654 -0.099835 -0.104342
v -0.104342 -0.099835 -0.295654
v -0.104342 -0.099835 -0.104342
v -0.104342 -0.100178 -0.102618
v -0.102617 -0.100178 -0.104342
v -0.102678 -0.100677 -0.102678
v -0.101346 -0.101346 -0.102721
v -0.102721 -0.101346 -0.101346
v -0.101750 -0.101750 -0.101750
v -0.101346 -0.102721 -0.101346
v -0.102678 -0.102678 -0.100677
v -0.100677 -0.102678 -0.102678
v -0.100178 -0.104342 -0.102618
v -0.100178 -0.102617 -0.104342
v -0.099835 -0.104342 -0.104342
v -0.099835 -0.104342 -0.295654
v -0.099835 -0.295654 -0.104342
v -0.100178 -0.295654 -0.102618
v -0.100178 -0.297379 -0.104342
v -0.100592 -0.297422 -0.102574
v -0.101155 -0.298841 -0.104342
v -0.101384 -0.298612 -0.102664
v -0.102617 -0.299818 -0.104342
v -0.101155 -0.298841 -0.295654
v -0.104342 -0.300161 -0.104342
v -0.102574 -0.299404 -0.102574
v -0.104342 -0.299818 -0.102618
v -0.102664 -0.298612 -0.101384
v -0.104342 -0.298841 -0.101155
v -0.101740 -0.298256 -0.101740
v -0.102574 -0.297422 -0.100592
v -0.102617 -0.295654 -0.100178
v -0.104342 -0.297379 -0.100178
v -0.101384 -0.297332 -0.101384
v -0.101155 -0.295654 -0.101155
v -0.101155 -0.104342 -0.101155
v -0.102617 -0.104342 -0.100178
v -0.104342 -0.104342 -0.099835
v -0.104342 -0.102617 -0.100178
v -0.295654 -0.104342 -0.099835
v -0.104342 -0.295654 -0.099835
v -0.295654 -0.295654 -0.099835
v -0.297379 -0.295654 -0.100178
v -0.295654 -0.297379 -0.100178
v -0.297422 -0.297422 -0.100592
v -0.297332 -0.298612 -0.101384
v -0.298612 -0.297333 -0.101384
v -0.298256 -0.298256 -0.101740
v -0.298612 -0.298612 -0.102664
v -0.299404 -0.297422 -0.102574
v -0.298841 -0.298841 -0.104342
v -0.297422 -0.299404 -0.102574
v -0.297379 -0.299818 -0.104342
v -0.295654 -0.299818 -0.102617
v -0.295654 -0.300161 -0.104342
v -0.295654 -0.298841 -0.101155
v -0.297379 -0.299818 -0.295654
v -0.299818 -0.297379 -0.104342
v -0.300161 -0.295654 -0.104342
v -0.299818 -0.295654 -0.102617
v -0.300161 -0.104342 -0.104342
v -0.299818 -0.104342 -0.102618
v -0.299818 -0.102617 -0.104342
v -0.299404 -0.102574 -0.102574
v -0.298841 -0.101155 -0.104342
v -0.299818 -0.102617 -0.295654
v -0.298841 -0.101155 -0.295654
v -0.298612 -0.101384 -0.102664
v -0.297379 -0.100178 -0.104342
v -0.297422 -0.100592 -0.102574
v -0.295654 -0.100178 -0.102618
v -0.297333 -0.101384 -0.101384
v -0.297422 -0.102574 -0.100592
v -0.295654 -0.101155 -0.101155
v -0.298256 -0.101740 -0.101740
v -0.298612 -0.102664 -0.101384
v -0.298841 -0.104342 -0.101155
v -0.297379 -0.104342 -0.100178
v -0.298841 -0.295654 -0.101155
v -0.295654 -0.102617 -0.100178
v -0.104342 -0.101155 -0.101155
v -0.100178 -0.102617 -0.295654
v -0.100592 -0.102574 -0.297422
v -0.101155 -0.101155 -0.295654
v -0.101384 -0.101384 -0.297333
v -0.102617 -0.100178 -0.295654
v -0.101155 -0.101155 -0.104342
v -0.102574 -0.100592 -0.297422
v -0.104342 -0.100178 -0.297379
v -0.102664 -0.101384 -0.298612
v -0.104342 -0.101155 -0.298841
v -0.101740 -0.101740 -0.298257
v -0.295654 -0.101155 -0.298841
v -0.295654 -0.102617 -0.299818
vn -0.0782 -0.4280 -0.9004
vn -0.4280 -0.0782 -0.9004
vn 0.0141 0.0141 -0.9998
vn -0.0006 -0.0018 -1.0000
vn -0.1950 -0.1914 -0.9619
vn -0.0018 -0.3827 -0.9239
vn -0.0018 0.0006 -1.0000
vn -0.1913 0.1950 -0.9619
vn -0.3826 0.0017 -0.9239
vn 0.0010 -0.0023 -1.0000
vn -0.0023 0.0010 -1.0000
vn 0.0018 0.0018 -1.0000
vn 0.4280 -0.0782 -0.9004
vn 0.0782 -0.4280 -0.9004
vn -0.0141 0.0141 -0.9998
vn 0.3826 0.0005 -0.9239
vn 0.1914 0.1933 -0.9623
vn 0.0782 0.4280 -0.9004
vn 0.4280 0.0782 -0.9004
vn -0.0141 -0.0141 -0.9998
vn -0.0005 0.3826 -0.9239
vn -0.1933 0.1914 -0.9623
vn -0.0018 0.0018 -1.0000
vn 0.4009 0.4022 -0.8231
vn 0.7356 0.0689 -0.6739
vn 0.3782 -0.0024 -0.9257
vn 0.7071 0.0003 -0.7071
vn 0.5449 0.1951 -0.8155
vn 0.3827 0.0017 -0.9239
vn 0.6739 0.0689 -0.7356
vn 0.8231 0.4022 -0.4009
vn 0.9257 -0.0025 -0.3782
vn 0.9239 0.0005 -0.3827
vn 0.8155 0.1950 -0.5449
vn 0.7071 0.0015 -0.7071
vn 0.7356 -0.0688 -0.6739
vn 0.4009 -0.4022 -0.8231
vn 0.3782 0.0025 -0.9257
vn 0.8231 -0.4022 -0.4009
vn 0.6739 -0.0689 -0.7356
vn 0.9256 0.0029 -0.3786
vn 1.0000 -0.0018 -0.0018
vn 0.8726 -0.3453 -0.3453
vn 0.9237 -0.0013 -0.3830
vn 1.0000 0.0023 -0.0035
vn 0.9619 0.1954 -0.1913
vn 0.9239 0.0018 -0.3826
vn 0.6739 -0.7356 -0.0689
vn 0.8231 -0.4009 -0.4022
vn 0.9256 -0.3786 0.0029
vn 0.9237 -0.3830 -0.0013
vn 0.8726 -0.3453 -0.3454
vn 0.8726 -0.3454 -0.3454
vn 0.5774 -0.5773 -0.5774
vn 0.6676 -0.2762 -0.6914
vn 0.6676 -0.6914 -0.2761
vn 0.5774 -0.5773 -0.5773
vn 0.3973 -0.3142 -0.8622
vn 0.6088 -0.5218 -0.5976
vn 0.2729 -0.6920 -0.6683
vn 0.3141 -0.8623 -0.3972
vn 0.5218 -0.5976 -0.6088
vn 0.6844 -0.6848 -0.2501
vn 0.4022 -0.4009 -0.8231
vn 0.0689 -0.7356 -0.6739
vn -0.0024 -0.3782 -0.9257
vn 0.0689 -0.6739 -0.7356
vn 0.4022 -0.8231 -0.4009
vn -0.0024 -0.9257 -0.3782
vn 0.0782 -0.9004 -0.4280
vn 0.4280 -0.9004 -0.0782
vn -0.0141 -0.9998 0.0141
vn 0.4009 -0.8231 -0.4022
vn 0.7356 -0.6739 -0.0689
vn 0.3782 -0.9257 0.0025
vn 0.1933 -0.9619 -0.1932
vn 0.0005 -0.9239 -0.3827
vn 0.0018 -1.0000 -0.0018
vn 0.1951 -0.8145 -0.5464
vn 0.0003 -0.7072 -0.7071
vn 0.0017 -0.9239 -0.3827
vn -0.4280 -0.9004 -0.0782
vn -0.0781 -0.9004 -0.4280
vn 0.0141 -0.9998 0.0141
vn -0.4022 -0.8231 -0.4009
vn -0.0689 -0.6739 -0.7356
vn 0.0025 -0.9257 -0.3782
vn -0.0689 -0.7356 -0.6739
vn -0.4022 -0.4009 -0.8231
vn 0.0025 -0.3782 -0.9257
vn 0.1950 -0.5435 -0.8165
vn 0.0005 -0.3827 -0.9239
vn 0.0015 -0.7071 -0.7071
vn -0.3142 -0.3972 -0.8623
vn -0.5218 -0.6088 -0.5976
vn -0.6920 -0.2728 -0.6683
vn -0.3972 -0.8623 -0.3142
vn -0.6088 -0.5976 -0.5217
vn -0.2729 -0.6683 -0.6920
vn -0.8623 -0.3142 -0.3972
vn -0.5976 -0.5218 -0.6088
vn -0.6683 -0.6920 -0.2729
vn -0.8231 -0.4009 -0.4023
vn -0.6739 -0.7356 -0.0689
vn -0.9257 -0.3782 0.0024
vn -0.7356 -0.6739 -0.0689
vn -0.4009 -0.8231 -0.4023
vn -0.3782 -0.9257 0.0024
vn -0.9004 -0.0782 -0.4280
vn -0.9004 -0.4280 -0.0781
vn -0.9998 0.0141 0.0141
vn -0.6739 -0.0689 -0.7356
vn -0.8231 -0.4022 -0.4009
vn -0.9257 0.0024 -0.3782
vn -0.9239 0.0005 -0.3826
vn -0.9623 0.1933 -0.1914
vn -1.0000 0.0018 -0.0018
vn -0.7071 0.0003 -0.7071
vn -0.8155 0.1951 -0.5449
vn -0.9239 0.0017 -0.3827
vn -0.9004 0.4280 -0.0782
vn -0.9004 0.0781 -0.4280
vn -0.9998 -0.0141 0.0141
vn -0.8231 0.4022 -0.4010
vn -0.6739 0.0689 -0.7356
vn -0.9257 -0.0025 -0.3782
vn -0.7357 0.0689 -0.6738
vn -0.4009 0.4022 -0.8231
vn -0.3782 -0.0024 -0.9257
vn -0.3827 0.0005 -0.9239
vn -0.5449 0.1950 -0.8155
vn -0.7071 0.0015 -0.7071
vn -0.3972 0.3141 -0.8623
vn -0.6088 0.5217 -0.5976
vn -0.2502 0.6844 -0.6848
vn -0.8623 0.3972 -0.3142
vn -0.5976 0.6088 -0.5218
vn -0.6683 0.2729 -0.6920
vn -0.2762 0.6676 -0.6914
vn -0.5773 0.5774 -0.5774
vn -0.3454 0.8726 -0.3454
vn -0.5773 0.5774 -0.5773
vn -0.6914 0.6677 -0.2762
vn -0.0018 1.0000 -0.0018
vn -0.3453 0.8726 -0.3453
vn -0.3830 0.9237 -0.0013
vn -0.4009 0.8231 -0.4022
vn -0.7356 0.6739 -0.0689
vn -0.3786 0.9256 0.0029
vn -0.0689 0.6739 -0.7356
vn -0.4022 0.8231 -0.4009
vn 0.0029 0.9256 -0.3786
vn -0.0014 0.9237 -0.3830
vn -0.0006 1.0000 -0.0018
vn -0.1950 0.9619 -0.1913
vn -0.0013 0.9237 -0.3830
vn -0.0035 1.0000 0.0023
vn -0.1913 0.9619 0.1954
vn -0.3826 0.9239 0.0018
vn -0.0035 1.0000 0.0035
vn 0.0018 1.0000 0.0018
vn 0.0035 1.0000 -0.0035
vn -0.1952 0.9623 0.1896
vn -0.0023 1.0000 0.0035
vn -0.0017 0.9239 0.3826
vn 0.0016 0.9238 0.3828
vn 0.3417 0.8755 0.3417
vn 0.3828 0.9238 0.0016
vn 0.3828 0.9238 0.0003
vn 0.1915 0.9626 0.1917
vn 0.4186 0.7962 0.4369
vn 0.7827 0.6074 0.1359
vn 0.4329 0.8996 0.0569
vn 0.1359 0.6074 0.7827
vn 0.4369 0.7962 0.4186
vn 0.0570 0.8996 0.4329
vn 0.3417 0.8755 0.3418
vn 0.5773 0.5774 0.5774
vn 0.6768 0.6768 0.2897
vn 0.2897 0.6768 0.6768
vn 0.5774 0.5774 0.5773
vn 0.3418 0.8755 0.3417
vn 0.8755 0.3417 0.3417
vn 0.5774 0.5773 0.5773
vn 0.6768 0.2897 0.6768
vn 0.6768 0.2898 0.6768
vn 0.3417 0.3418 0.8755
vn 0.6768 0.6768 0.2898
vn 0.5774 0.5773 0.5774
vn 0.8754 0.3418 0.3418
vn 0.3418 0.3417 0.8755
vn 0.5773 0.5773 0.5774
vn 1.0000 0.0018 0.0018
vn 0.9238 0.0016 0.3828
vn 0.7962 0.4369 0.4186
vn 0.6074 0.1359 0.7827
vn 0.8996 0.0570 0.4329
vn 0.6074 0.7827 0.1359
vn 0.7962 0.4186 0.4369
vn 0.8996 0.4329 0.0569
vn 0.9238 0.3828 0.0016
vn 1.0000 0.0018 0.0006
vn 0.9619 0.1913 0.1950
vn 0.9238 0.3828 0.0015
vn 0.9238 0.0003 0.3828
vn 0.9626 0.1917 0.1915
vn 1.0000 0.0035 -0.0035
vn 1.0000 -0.0035 0.0035
vn 0.9004 -0.0782 0.4280
vn 0.9004 -0.4280 0.0781
vn 0.9998 0.0124 -0.0123
vn 1.0000 -0.0018 -0.0006
vn 0.9619 -0.1914 -0.1950
vn 0.8231 -0.4009 0.4022
vn 0.6739 -0.7356 0.0689
vn 0.9257 -0.3782 -0.0024
vn 0.9237 -0.3831 -0.0001
vn 0.8155 -0.5449 -0.1950
vn 0.7071 -0.7071 -0.0015
vn 0.7356 -0.6739 0.0689
vn 0.4009 -0.8231 0.4022
vn 0.3782 -0.9257 -0.0025
vn 0.7071 -0.7071 -0.0003
vn 0.5449 -0.8155 -0.1951
vn 0.3827 -0.9239 -0.0018
vn 0.4280 -0.9004 0.0782
vn 0.0782 -0.9004 0.4280
vn -0.0141 -0.9998 -0.0141
vn 0.3826 -0.9239 -0.0005
vn 0.1914 -0.9623 -0.1933
vn 0.4022 -0.8231 0.4009
vn 0.0688 -0.6739 0.7356
vn -0.0024 -0.9257 0.3782
vn 0.3971 -0.8623 0.3142
vn 0.6087 -0.5976 0.5218
vn 0.2728 -0.6683 0.6920
vn 0.0689 -0.7356 0.6739
vn 0.4022 -0.4009 0.8231
vn -0.0025 -0.3782 0.9257
vn 0.3142 -0.3972 0.8623
vn 0.5218 -0.6088 0.5976
vn 0.6921 -0.2728 0.6683
vn 0.0782 -0.4280 0.9004
vn 0.4280 -0.0782 0.9004
vn -0.0124 0.0123 0.9998
vn 0.4009 -0.4022 0.8231
vn 0.7356 -0.0689 0.6739
vn 0.3782 0.0025 0.9257
vn 0.6739 -0.0689 0.7356
vn 0.8231 -0.4022 0.4009
vn 0.9257 0.0025 0.3782
vn 0.8623 -0.3142 0.3972
vn 0.5976 -0.5218 0.6088
vn 0.6683 -0.6921 0.2728
vn 0.7071 0.0006 0.7071
vn 0.8155 0.1951 0.5449
vn 0.9238 0.0015 0.3829
vn 0.3829 0.0003 0.9238
vn 0.5449 0.1950 0.8155
vn 0.7071 0.0018 0.7071
vn 0.7827 0.1359 0.6074
vn 0.4186 0.4368 0.7962
vn 0.4329 0.0569 0.8996
vn 0.0018 0.0006 1.0000
vn 0.1913 0.1950 0.9619
vn 0.3828 0.0015 0.9238
vn 0.3828 0.0016 0.9238
vn 0.3417 0.3417 0.8755
vn 0.0018 0.0018 1.0000
vn 0.0016 0.3828 0.9238
vn 0.0003 0.3828 0.9238
vn 0.1917 0.1915 0.9626
vn -0.0018 -0.0018 1.0000
vn -0.0035 0.0035 1.0000
vn 0.0035 -0.0035 1.0000
vn -0.3826 0.0005 0.9239
vn -0.1914 0.1933 0.9623
vn -0.3830 -0.0013 0.9237
vn -0.3453 -0.3453 0.8726
vn -0.3453 -0.3454 0.8726
vn -0.0013 -0.3830 0.9237
vn -0.0001 -0.3830 0.9237
vn -0.1917 -0.1915 0.9626
vn -0.4022 -0.4009 0.8231
vn -0.0689 -0.7356 0.6739
vn 0.0029 -0.3786 0.9256
vn -0.7356 -0.0689 0.6739
vn -0.4009 -0.4022 0.8231
vn -0.3786 0.0029 0.9256
vn -0.3454 -0.3454 0.8726
vn -0.5773 -0.5774 0.5774
vn -0.2762 -0.6914 0.6676
vn -0.6914 -0.2762 0.6676
vn -0.5773 -0.5773 0.5774
vn -0.8623 -0.3972 0.3142
vn -0.5976 -0.6088 0.5217
vn -0.6848 -0.2501 0.6844
vn -0.3142 -0.8623 0.3972
vn -0.5218 -0.5976 0.6088
vn -0.6920 -0.6683 0.2729
vn -0.6739 -0.7356 0.0689
vn -0.8231 -0.4009 0.4022
vn -0.9257 -0.3782 -0.0025
vn -0.4009 -0.8231 0.4022
vn -0.7356 -0.6739 0.0689
vn -0.3782 -0.9257 -0.0024
vn -0.0782 -0.9004 0.4280
vn -0.4280 -0.9004 0.0781
vn 0.0141 -0.9998 -0.0141
vn -0.0689 -0.6739 0.7356
vn -0.4022 -0.8231 0.4009
vn 0.0024 -0.9257 0.3782
vn -0.0006 -1.0000 0.0018
vn -0.1950 -0.9619 0.1913
vn -0.0018 -0.9239 0.3826
vn -0.0005 -0.9239 0.3827
vn -0.1950 -0.8155 0.5449
vn -0.0015 -0.7071 0.7071
vn 0.1947 -0.5464 0.8146
vn 0.0003 -0.7071 0.7071
vn 0.0017 -0.3827 0.9239
vn -0.0018 -1.0000 -0.0006
vn -0.1913 -0.9620 -0.1950
vn -0.3826 -0.9239 -0.0018
vn 0.0010 -1.0000 0.0023
vn -0.0023 -1.0000 -0.0010
vn -0.3827 -0.9239 -0.0005
vn -0.5449 -0.8155 -0.1950
vn -0.7071 -0.7071 -0.0015
vn -0.7071 -0.7071 -0.0003
vn -0.8155 -0.5449 -0.1951
vn -0.9239 -0.3827 -0.0018
vn -0.9004 -0.4280 0.0782
vn -0.9004 -0.0782 0.4280
vn -0.9998 0.0141 -0.0141
vn -0.9239 -0.3826 -0.0005
vn -0.9623 -0.1914 -0.1933
vn -1.0000 -0.0018 -0.0018
vn -1.0000 0.0006 0.0018
vn -0.9619 0.1950 0.1913
vn -0.9239 0.0018 0.3826
vn -1.0000 0.0010 -0.0023
vn -1.0000 -0.0023 0.0010
vn -1.0000 0.0018 0.0018
vn -0.9004 0.0782 0.4280
vn -0.9004 0.4280 0.0782
vn -0.9998 -0.0141 -0.0141
vn -0.9239 0.3826 0.0005
vn -0.9623 0.1914 0.1933
vn -0.8231 0.4009 0.4022
vn -0.6739 0.7356 0.0689
vn -0.9257 0.3782 -0.0024
vn -0.7071 0.7071 0.0003
vn -0.8155 0.5449 0.1951
vn -0.9239 0.3827 0.0017
vn -0.6739 0.7356 -0.0689
vn -0.8231 0.4009 -0.4022
vn -0.9257 0.3782 0.0024
vn -0.3827 0.9239 0.0005
vn -0.5449 0.8155 0.1950
vn -0.7071 0.7071 0.0015
vn -0.7356 0.6739 0.0689
vn -0.4009 0.8231 0.4022
vn -0.3782 0.9257 -0.0024
vn -0.4280 0.9004 0.0782
vn -0.0781 0.9004 0.4280
vn 0.0124 0.9998 -0.0124
vn -0.4022 0.8231 0.4009
vn -0.0688 0.6739 0.7356
vn 0.0024 0.9257 0.3782
vn -0.3972 0.8623 0.3142
vn -0.6088 0.5976 0.5218
vn -0.2729 0.6683 0.6920
vn -0.0689 0.7356 0.6739
vn -0.4022 0.4009 0.8231
vn 0.0025 0.3782 0.9257
vn -0.3142 0.3972 0.8623
vn -0.5218 0.6088 0.5976
vn -0.6920 0.2728 0.6683
vn -0.8623 0.3142 0.3972
vn -0.5976 0.5218 0.6088
vn -0.6683 0.6920 0.2729
vn -0.4009 0.4022 0.8231
vn -0.7356 0.0689 0.6739
vn -0.3782 -0.0024 0.9257
vn -0.6739 0.0689 0.7356
vn -0.8231 0.4022 0.4009
vn -0.9257 -0.0025 0.3782
vn -0.7071 0.0003 0.7071
vn -0.5450 0.1947 0.8156
vn -0.3827 0.0018 0.9239
vn -0.9239 0.0005 0.3827
vn -0.8155 0.1950 0.5449
vn -0.7072 0.0015 0.7071
vn -0.8231 -0.4023 0.4009
vn -0.6739 -0.0689 0.7356
vn -0.9257 0.0024 0.3782
vn -0.0782 0.4280 0.9004
vn -0.4280 0.0782 0.9004
vn 0.0124 -0.0123 0.9998
vn 0.0006 0.7071 0.7071
vn 0.1951 0.5449 0.8155
vn 0.0015 0.3829 0.9238
vn 0.0003 0.9238 0.3829
vn 0.1950 0.8155 0.5449
vn 0.0018 0.7071 0.7071
vn 0.4369 0.4186 0.7962
vn 0.1359 0.7827 0.6074
vn 0.0570 0.4329 0.8996
vn 0.9004 0.0782 -0.4280
vn 0.9004 0.4280 -0.0781
vn 0.9998 -0.0124 0.0123
vn 0.8231 0.4009 -0.4022
vn 0.6739 0.7356 -0.0689
vn 0.9257 0.3782 0.0024
vn 0.9238 0.3829 0.0003
vn 0.8155 0.5449 0.1950
vn 0.7071 0.7071 0.0018
vn 0.7356 0.6739 -0.0689
vn 0.4009 0.8231 -0.4022
vn 0.3782 0.9257 0.0025
vn 0.7071 0.7071 0.0006
vn 0.5449 0.8155 0.1951
vn 0.3829 0.9238 0.0015
vn 0.4280 0.9004 -0.0782
vn 0.0782 0.9004 -0.4280
vn -0.0123 0.9998 0.0124
vn 0.4022 0.8231 -0.4009
vn 0.0689 0.6739 -0.7356
vn -0.0024 0.9257 -0.3782
vn 0.3972 0.8623 -0.3142
vn 0.6088 0.5976 -0.5218
vn 0.2728 0.6683 -0.6920
vn 0.0689 0.7356 -0.6739
vn 0.4022 0.4009 -0.8231
vn -0.0024 0.3783 -0.9257
vn 0.3142 0.3972 -0.8623
vn 0.5218 0.6088 -0.5976
vn 0.6920 0.2729 -0.6683
vn 0.8623 0.3142 -0.3971
vn 0.5976 0.5218 -0.6088
vn 0.6683 0.6921 -0.2728
vn -0.0001 0.9237 -0.3831
vn -0.1950 0.8155 -0.5449
vn -0.0015 0.7071 -0.7071
vn -0.0003 0.7071 -0.7071
vn -0.1951 0.5449 -0.8155
vn -0.0017 0.3827 -0.9239
vn -0.4023 0.4009 -0.8231
vn -0.0689 0.7356 -0.6739
vn 0.0024 0.3782 -0.9257
vn -0.4280 0.0782 -0.9004
vn -0.0781 0.4280 -0.9004
vn 0.0141 -0.0141 -0.9998
vn -0.4009 -0.4022 -0.8231
vn -0.7356 -0.0688 -0.6739
vn -0.3782 0.0024 -0.9257
vn 0.0372 -0.3058 -0.9514
vn -0.3580 -0.3580 -0.8624
vn -0.3057 0.0372 -0.9514
vn 0.1934 -0.1914 -0.9623
vn 0.0018 -0.0018 -1.0000
vn -0.1914 -0.1933 -0.9623
vn -0.0018 -0.0018 -1.0000
vn -0.3826 -0.0005 -0.9239
vn 0.0023 -0.0010 -1.0000
vn -0.0010 0.0023 -1.0000
vn 0.3058 0.0371 -0.9514
vn 0.3579 -0.3580 -0.8624
vn -0.0372 -0.3057 -0.9514
vn 0.1914 -0.1950 -0.9619
vn 0.3826 -0.0017 -0.9239
vn 0.0018 -0.0006 -1.0000
vn -0.0372 0.3058 -0.9514
vn 0.3580 0.3580 -0.8624
vn 0.3057 -0.0372 -0.9514
vn 0.1950 0.1913 -0.9619
vn 0.0017 0.3826 -0.9239
vn 0.0006 0.0018 -1.0000
vn 0.3157 0.2459 -0.9164
vn 0.6784 0.3030 -0.6693
vn 0.6412 -0.0560 -0.7653
vn 0.5449 -0.1950 -0.8155
vn 0.7071 -0.0015 -0.7071
vn 0.3827 -0.0005 -0.9239
vn 0.7653 -0.0560 -0.6412
vn 0.6693 0.3031 -0.6784
vn 0.9164 0.2459 -0.3157
vn 0.8155 -0.1951 -0.5449
vn 0.9237 -0.0013 -0.3831
vn 0.7071 -0.0003 -0.7071
vn 0.6412 0.0560 -0.7653
vn 0.6713 -0.2807 -0.6860
vn 0.3157 -0.2459 -0.9164
vn 0.9164 -0.2459 -0.3158
vn 0.6620 -0.2806 -0.6950
vn 0.7653 0.0560 -0.6412
vn 0.9626 -0.1917 -0.1915
vn 0.9237 -0.0001 -0.3830
vn 0.7653 -0.6412 0.0560
vn 0.6620 -0.6950 -0.2806
vn 0.9164 -0.3158 -0.2459
vn 0.3142 -0.3971 -0.8623
vn 0.6844 -0.2501 -0.6848
vn 0.5218 -0.6087 -0.5976
vn 0.3972 -0.8623 -0.3142
vn 0.2729 -0.6683 -0.6920
vn 0.6088 -0.5976 -0.5218
vn 0.2459 -0.3158 -0.9164
vn 0.3030 -0.6784 -0.6692
vn -0.0560 -0.6412 -0.7653
vn -0.0560 -0.7653 -0.6412
vn 0.3030 -0.6693 -0.6784
vn 0.2458 -0.9164 -0.3158
vn -0.0372 -0.9514 -0.3058
vn 0.3580 -0.8624 -0.3580
vn 0.3057 -0.9514 0.0372
vn 0.3157 -0.9164 -0.2459
vn 0.6713 -0.6860 -0.2807
vn 0.6412 -0.7653 0.0560
vn -0.0006 -1.0000 -0.0018
vn -0.0017 -0.9239 -0.3826
vn -0.1950 -0.9623 -0.1896
vn -0.0005 -0.9239 -0.3827
vn -0.0015 -0.7072 -0.7071
vn -0.1950 -0.8165 -0.5434
vn -0.3058 -0.9514 0.0372
vn -0.3580 -0.8624 -0.3580
vn 0.0372 -0.9514 -0.3057
vn -0.2459 -0.9164 -0.3158
vn -0.3030 -0.6693 -0.6784
vn 0.0560 -0.7653 -0.6412
vn 0.0560 -0.6413 -0.7653
vn -0.3030 -0.6784 -0.6693
vn -0.2458 -0.3158 -0.9164
vn -0.0003 -0.7071 -0.7071
vn -0.0017 -0.3827 -0.9239
vn -0.1951 -0.5464 -0.8145
vn -0.3972 -0.3142 -0.8623
vn -0.2728 -0.6921 -0.6683
vn -0.6087 -0.5218 -0.5976
vn -0.3142 -0.8623 -0.3972
vn -0.6920 -0.6683 -0.2729
vn -0.5218 -0.5976 -0.6088
vn -0.8623 -0.3971 -0.3142
vn -0.6683 -0.2728 -0.6920
vn -0.5976 -0.6088 -0.5218
vn -0.9164 -0.3157 -0.2459
vn -0.6693 -0.6784 -0.3030
vn -0.7654 -0.6412 0.0561
vn -0.6412 -0.7653 0.0560
vn -0.6784 -0.6693 -0.3030
vn -0.3157 -0.9164 -0.2459
vn -0.9514 0.0372 -0.3057
vn -0.8624 -0.3580 -0.3580
vn -0.9514 -0.3057 0.0372
vn -0.7653 0.0560 -0.6412
vn -0.6693 -0.3030 -0.6784
vn -0.9165 -0.2458 -0.3157
vn -0.9620 -0.1950 -0.1913
vn -0.9239 -0.0017 -0.3826
vn -1.0000 -0.0006 -0.0018
vn -0.8155 -0.1950 -0.5449
vn -0.7071 -0.0015 -0.7071
vn -0.9239 -0.0005 -0.3827
vn -0.9514 0.3057 0.0372
vn -0.8624 0.3580 -0.3579
vn -0.9514 -0.0372 -0.3057
vn -0.9164 0.2459 -0.3157
vn -0.6693 0.3030 -0.6784
vn -0.7654 -0.0560 -0.6412
vn -0.6412 -0.0561 -0.7653
vn -0.6784 0.3030 -0.6693
vn -0.3157 0.2458 -0.9165
vn -0.5449 -0.1951 -0.8155
vn -0.3827 -0.0017 -0.9239
vn -0.7071 -0.0003 -0.7071
vn -0.3141 0.3972 -0.8623
vn -0.6920 0.2729 -0.6683
vn -0.5218 0.6088 -0.5976
vn -0.8623 0.3142 -0.3972
vn -0.6848 0.6845 -0.2501
vn -0.5976 0.5218 -0.6088
vn -0.3158 0.9164 -0.2459
vn -0.6950 0.6620 -0.2806
vn -0.6412 0.7653 0.0560
vn 0.0560 0.7653 -0.6412
vn -0.2806 0.6620 -0.6950
vn -0.2459 0.9164 -0.3158
vn 0.1933 0.9623 -0.1914
vn 0.0005 0.9239 -0.3827
vn -0.1915 0.9626 -0.1917
vn -0.3830 0.9237 -0.0001
vn 0.0003 0.9238 0.3828
vn 0.1917 0.9623 0.1932
vn 0.1914 0.9619 -0.1952
vn 0.3827 0.9239 -0.0018
vn 0.0035 1.0000 -0.0023
vn 0.2511 0.9459 0.2057
vn 0.6308 0.7397 0.2343
vn 0.5792 0.8022 -0.1450
vn -0.1450 0.8021 0.5793
vn 0.2343 0.7397 0.6308
vn 0.2057 0.9459 0.2511
vn 0.9459 0.2057 0.2511
vn 0.7397 0.2343 0.6308
vn 0.8022 -0.1450 0.5792
vn 0.8021 0.5793 -0.1449
vn 0.7397 0.6308 0.2343
vn 0.9459 0.2511 0.2057
vn 0.9623 0.1914 -0.1933
vn 0.9239 0.3826 -0.0005
vn 0.9619 -0.1952 0.1913
vn 0.9239 -0.0018 0.3826
vn 1.0000 -0.0023 0.0035
vn 0.9514 0.0372 0.3057
vn 0.8624 -0.3580 0.3579
vn 0.9514 -0.3057 -0.0372
vn 0.9623 -0.1914 0.1933
vn 0.9239 -0.3826 0.0005
vn 0.9164 -0.3157 0.2459
vn 0.6693 -0.6784 0.3030
vn 0.7653 -0.6412 -0.0560
vn 0.8156 -0.5450 0.1947
vn 0.9239 -0.3827 0.0018
vn 0.7071 -0.7071 0.0003
vn 0.6412 -0.7653 -0.0560
vn 0.6784 -0.6693 0.3030
vn 0.3157 -0.9164 0.2459
vn 0.5449 -0.8155 0.1950
vn 0.7071 -0.7071 0.0015
vn 0.3827 -0.9239 0.0005
vn 0.3057 -0.9514 -0.0372
vn 0.3580 -0.8624 0.3580
vn -0.0372 -0.9514 0.3057
vn 0.1913 -0.9619 0.1950
vn 0.3826 -0.9239 0.0018
vn 0.0018 -1.0000 0.0006
vn 0.2459 -0.9164 0.3157
vn 0.3031 -0.6692 0.6784
vn -0.0560 -0.7653 0.6412
vn 0.3143 -0.8623 0.3972
vn 0.6921 -0.6683 0.2728
vn 0.5218 -0.5976 0.6088
vn -0.0560 -0.6412 0.7653
vn 0.3030 -0.6784 0.6693
vn 0.2459 -0.3158 0.9164
vn 0.3971 -0.3142 0.8623
vn 0.2728 -0.6921 0.6683
vn 0.6087 -0.5218 0.5976
vn -0.0372 -0.3057 0.9514
vn 0.3580 -0.3580 0.8624
vn 0.3057 0.0372 0.9514
vn 0.3158 -0.2459 0.9164
vn 0.6784 -0.3031 0.6692
vn 0.6412 0.0560 0.7653
vn 0.7653 0.0560 0.6412
vn 0.6693 -0.3031 0.6784
vn 0.9164 -0.2459 0.3158
vn 0.8623 -0.3971 0.3142
vn 0.6683 -0.2728 0.6920
vn 0.5976 -0.6087 0.5218
vn 0.8155 -0.1950 0.5449
vn 0.7071 -0.0015 0.7071
vn 0.9239 -0.0005 0.3827
vn 0.5449 -0.1949 0.8155
vn 0.3827 -0.0018 0.9239
vn 0.7071 -0.0003 0.7071
vn 0.5793 -0.1450 0.8021
vn 0.6308 0.2343 0.7397
vn 0.2511 0.2056 0.9459
vn 0.1914 -0.1933 0.9623
vn 0.3827 -0.0005 0.9239
vn -0.1952 0.1914 0.9619
vn -0.0018 0.3826 0.9239
vn -0.0023 0.0035 1.0000
vn -0.1914 -0.1950 0.9620
vn -0.0018 -0.0006 1.0000
vn 0.1954 -0.1913 0.9619
vn 0.0018 -0.3826 0.9239
vn 0.0023 -0.0035 1.0000
vn -0.2459 -0.3158 0.9164
vn -0.2806 -0.6950 0.6620
vn 0.0560 -0.6412 0.7653
vn -0.6412 0.0560 0.7653
vn -0.6950 -0.2806 0.6620
vn -0.3158 -0.2459 0.9164
vn -0.8623 -0.3142 0.3972
vn -0.6683 -0.6920 0.2729
vn -0.5976 -0.5218 0.6088
vn -0.3971 -0.8623 0.3142
vn -0.2501 -0.6848 0.6845
vn -0.6088 -0.5976 0.5218
vn -0.7653 -0.6412 -0.0560
vn -0.6693 -0.6784 0.3030
vn -0.9164 -0.3158 0.2459
vn -0.3158 -0.9164 0.2459
vn -0.6784 -0.6693 0.3030
vn -0.6412 -0.7653 -0.0560
vn 0.0371 -0.9514 0.3057
vn -0.3580 -0.8624 0.3580
vn -0.3057 -0.9514 -0.0372
vn 0.0560 -0.7653 0.6412
vn -0.2807 -0.6860 0.6713
vn -0.2459 -0.9164 0.3158
vn 0.1933 -0.9623 0.1914
vn 0.0018 -1.0000 0.0018
vn 0.0005 -0.9239 0.3826
vn 0.1951 -0.8155 0.5449
vn 0.0018 -0.9239 0.3827
vn -0.0001 -0.3831 0.9237
vn -0.1950 -0.5434 0.8165
vn -0.1914 -0.9623 0.1933
vn -0.0018 -1.0000 0.0018
vn -0.3826 -0.9239 0.0005
vn 0.0023 -1.0000 0.0010
vn -0.0010 -1.0000 -0.0023
vn -0.5449 -0.8155 0.1951
vn -0.3827 -0.9239 0.0018
vn -0.7071 -0.7071 0.0003
vn -0.8155 -0.5449 0.1950
vn -0.7071 -0.7071 0.0015
vn -0.9239 -0.3827 0.0005
vn -0.9514 -0.3057 -0.0372
vn -0.8624 -0.3580 0.3580
vn -0.9514 0.0372 0.3057
vn -0.9619 -0.1913 0.1950
vn -0.9239 -0.3826 0.0017
vn -1.0000 -0.0018 0.0006
vn -0.9623 -0.1933 0.1914
vn -1.0000 -0.0018 0.0018
vn -0.9239 -0.0005 0.3826
vn -1.0000 0.0023 -0.0010
vn -1.0000 -0.0010 0.0023
vn -0.9514 -0.0372 0.3057
vn -0.8624 0.3580 0.3579
vn -0.9514 0.3057 -0.0372
vn -0.9619 0.1913 -0.1950
vn -0.9239 0.3826 -0.0018
vn -1.0000 0.0018 -0.0006
vn -0.9164 0.3158 0.2459
vn -0.6692 0.6785 0.3030
vn -0.7653 0.6412 -0.0560
vn -0.8155 0.5449 -0.1950
vn -0.7071 0.7071 -0.0015
vn -0.9239 0.3827 -0.0005
vn -0.7653 0.6412 0.0560
vn -0.6860 0.6713 -0.2807
vn -0.9165 0.3157 -0.2458
vn -0.5449 0.8155 -0.1951
vn -0.3831 0.9237 -0.0013
vn -0.7071 0.7071 -0.0003
vn -0.6412 0.7653 -0.0560
vn -0.6784 0.6693 0.3030
vn -0.3158 0.9164 0.2459
vn -0.3057 0.9514 -0.0372
vn -0.3580 0.8624 0.3580
vn 0.0372 0.9514 0.3057
vn -0.2459 0.9164 0.3158
vn -0.3031 0.6692 0.6784
vn 0.0560 0.7653 0.6412
vn -0.3142 0.8623 0.3972
vn -0.6920 0.6683 0.2728
vn -0.5218 0.5976 0.6088
vn 0.0560 0.6412 0.7653
vn -0.3031 0.6784 0.6692
vn -0.2459 0.3158 0.9164
vn -0.3971 0.3143 0.8623
vn -0.2729 0.6920 0.6683
vn -0.6088 0.5218 0.5976
vn -0.8623 0.3972 0.3142
vn -0.6683 0.2729 0.6920
vn -0.5976 0.6088 0.5218
vn -0.3157 0.2459 0.9164
vn -0.6784 0.3030 0.6693
vn -0.6412 -0.0560 0.7653
vn -0.7653 -0.0560 0.6412
vn -0.6693 0.3031 0.6784
vn -0.9164 0.2459 0.3157
vn -0.5449 -0.1950 0.8155
vn -0.7071 -0.0015 0.7072
vn -0.3831 -0.0001 0.9237
vn -0.8155 -0.1951 0.5449
vn -0.9239 -0.0017 0.3827
vn -0.7071 -0.0003 0.7071
vn -0.9164 -0.2459 0.3157
vn -0.6860 -0.2807 0.6713
vn -0.7653 0.0560 0.6412
vn 0.0372 0.3057 0.9514
vn -0.3580 0.3579 0.8624
vn -0.3057 -0.0372 0.9514
vn -0.1950 0.5449 0.8155
vn -0.0015 0.7071 0.7071
vn -0.0005 0.3827 0.9239
vn -0.1949 0.8155 0.5449
vn -0.0018 0.9239 0.3827
vn -0.0003 0.7071 0.7071
vn 0.2057 0.2511 0.9459
vn 0.2343 0.6308 0.7397
vn -0.1450 0.5792 0.8022
vn 0.9514 -0.0372 -0.3057
vn 0.8624 0.3580 -0.3580
vn 0.9514 0.3057 0.0372
vn 0.9164 0.3158 -0.2459
vn 0.6693 0.6784 -0.3030
vn 0.7653 0.6412 0.0560
vn 0.8155 0.5449 -0.1949
vn 0.9239 0.3827 -0.0018
vn 0.7071 0.7071 -0.0003
vn 0.6412 0.7653 0.0560
vn 0.6784 0.6693 -0.3030
vn 0.3157 0.9164 -0.2459
vn 0.5449 0.8155 -0.1950
vn 0.7071 0.7071 -0.0015
vn 0.3827 0.9239 -0.0005
vn 0.3057 0.9514 0.0372
vn 0.3579 0.8624 -0.3580
vn -0.0372 0.9514 -0.3057
vn 0.2459 0.9164 -0.3158
vn 0.3030 0.6692 -0.6784
vn -0.0560 0.7653 -0.6412
vn 0.3142 0.8623 -0.3971
vn 0.6921 0.6683 -0.2728
vn 0.5218 0.5976 -0.6088
vn -0.0560 0.6412 -0.7653
vn 0.3030 0.6784 -0.6693
vn 0.2458 0.3157 -0.9165
vn 0.3972 0.3141 -0.8623
vn 0.2729 0.6920 -0.6683
vn 0.6088 0.5218 -0.5976
vn 0.8623 0.3971 -0.3142
vn 0.6683 0.2728 -0.6920
vn 0.5976 0.6087 -0.5218
vn 0.1947 0.8156 -0.5449
vn 0.0017 0.9239 -0.3827
vn 0.0003 0.7071 -0.7071
vn 0.1950 0.5449 -0.8155
vn 0.0015 0.7071 -0.7071
vn 0.0005 0.3827 -0.9239
vn -0.2459 0.3157 -0.9164
vn -0.2807 0.6713 -0.6860
vn 0.0560 0.6412 -0.7653
vn -0.3057 -0.0372 -0.9514
vn -0.3580 0.3580 -0.8624
vn 0.0372 0.3057 -0.9514
vn -0.3157 -0.2459 -0.9164
vn -0.6784 -0.3030 -0.6692
vn -0.6412 0.0560 -0.7653
vt 0.511949 0.538974
vt 0.513946 0.535121
vt 0.513978 0.539034
vt 0.511977 0.969692
vt 0.737151 0.538964
vt 0.737221 0.535041
vt 0.514015 0.969556
vt 0.737184 0.969465
vt 0.514014 0.973428
vt 0.737276 0.973135
vt 0.739088 0.969634
vt 0.739156 0.538961
vt 0.739163 0.973273
vt 0.737469 0.976780
vt 0.739769 0.979015
vt 0.737766 0.980570
vt 0.513962 0.977308
vt 0.511935 0.973807
vt 0.511701 0.980535
vt 0.513894 0.981265
vt 0.513823 0.985293
vt 0.738121 0.984653
vt 0.487356 0.469568
vt 0.489629 0.472804
vt 0.487426 0.473542
vt 0.487498 0.477590
vt 0.510626 0.976831
vt 0.511957 0.977097
vt 0.489369 0.469352
vt 0.490704 0.469080
vt 0.510186 0.974205
vt 0.489388 0.466051
vt 0.509885 0.969952
vt 0.491436 0.462185
vt 0.489344 0.461928
vt 0.487305 0.465673
vt 0.487305 0.461789
vt 0.487297 0.030525
vt 0.489331 0.030462
vt 0.487328 0.026596
vt 0.489442 0.026385
vt 0.491401 0.030280
vt 0.509885 0.538792
vt 0.511840 0.534910
vt 0.510447 0.532224
vt 0.511739 0.531607
vt 0.490841 0.023691
vt 0.491160 0.026193
vt 0.238578 0.463670
vt 0.239976 0.466366
vt 0.238679 0.466986
vt 0.236559 0.467456
vt 0.236464 0.463458
vt 0.487423 0.022595
vt 0.238468 0.459591
vt 0.236432 0.459530
vt 0.240540 0.459773
vt 0.238445 0.027221
vt 0.236402 0.027357
vt 0.240540 0.026964
vt 0.236405 0.023468
vt 0.238490 0.023094
vt 0.737354 0.531017
vt 0.739350 0.534957
vt 0.513851 0.531139
vt 0.740915 0.532431
vt 0.741054 0.534996
vt 0.239808 0.020065
vt 0.240245 0.022702
vt 0.742835 0.534498
vt 0.238734 0.016338
vt 0.238473 0.019791
vt 0.236606 0.011545
vt 0.236532 0.015594
vt 0.236459 0.019571
vt 0.741165 0.538861
vt 0.743216 0.538727
vt 0.745303 0.538589
vt 0.742949 0.970573
vt 0.011448 0.012203
vt 0.011805 0.016298
vt 0.515306 0.470700
vt 0.515306 0.257842
vt 0.625647 0.470700
vt 0.625647 0.257842
vt 0.736326 0.255615
vt 0.625648 0.258009
vt 0.625647 0.256041
vt 0.737303 0.254941
vt 0.736500 0.257635
vt 0.737741 0.256952
vt 0.515306 0.255885
vt 0.738820 0.255478
vt 0.736186 0.253740
vt 0.737620 0.253163
vt 0.738061 0.254015
vt 0.737041 0.253435
vt 0.738542 0.252552
vt 0.737761 0.252046
vt 0.736990 0.251948
vt 0.739938 0.251002
vt 0.738891 0.250667
vt 0.737919 0.250396
vt 0.739584 0.253396
vt 0.515306 0.250015
vt 0.625647 0.251971
vt 0.515306 0.251971
vt 0.740132 0.037158
vt 0.625647 0.250015
vt 0.625647 0.037156
vt 0.515306 0.037156
vt 0.260334 0.475567
vt 0.263188 0.472895
vt 0.262833 0.476982
vt 0.261184 0.471339
vt 0.263484 0.469103
vt 0.261790 0.465595
vt 0.263677 0.465455
vt 0.261863 0.461956
vt 0.263766 0.461784
vt 0.259972 0.462327
vt 0.260579 0.467931
vt 0.260310 0.465812
vt 0.258813 0.466765
vt 0.258006 0.462898
vt 0.259744 0.469542
vt 0.256621 0.468404
vt 0.255888 0.463584
vt 0.258149 0.472620
vt 0.261678 0.468450
vt 0.739112 0.037157
vt 0.736984 0.250208
vt 0.738091 0.037156
vt 0.736045 0.250124
vt 0.737071 0.037156
vt 0.736088 0.251937
vt 0.625647 0.250135
vt 0.736050 0.037156
vt 0.006612 0.026319
vt 0.004217 0.459956
vt 0.004489 0.025632
vt 0.006313 0.459819
vt 0.006693 0.464063
vt 0.255581 0.030185
vt 0.258053 0.026086
vt 0.257673 0.030322
vt 0.259726 0.030456
vt 0.008371 0.459685
vt 0.259976 0.024014
vt 0.259837 0.026583
vt 0.008481 0.463567
vt 0.008619 0.466142
vt 0.010191 0.463608
vt 0.261544 0.026544
vt 0.261339 0.023169
vt 0.012194 0.467574
vt 0.012330 0.463529
vt 0.263543 0.022595
vt 0.263676 0.026626
vt 0.261739 0.030555
vt 0.263748 0.030557
vt 0.010389 0.459587
vt 0.012403 0.459585
vt 0.012385 0.027434
vt 0.010478 0.027261
vt 0.012295 0.023755
vt 0.010404 0.023615
vt 0.012102 0.020099
vt 0.009796 0.017859
vt 0.008944 0.013622
vt 0.006754 0.016576
vt 0.009191 0.021274
vt 0.008354 0.019660
vt 0.007421 0.022444
vt 0.005224 0.020801
vt 0.008921 0.023398
vt 0.010291 0.020754
vt 0.008582 0.026890
vt 0.625647 0.252104
vt 0.625647 0.254072
vt 0.740618 0.983242
vt 0.742804 0.980299
vt 0.625647 0.253928
vt 0.515306 0.253928
vt 0.742141 0.974442
vt 0.744334 0.976084
vt 0.625647 0.255885
vt 0.745070 0.971259
vt 0.740981 0.970003
vt 0.740374 0.975608
vt 0.740643 0.973489
vt 0.739276 0.976127
vt 0.741209 0.977219
vt 0.491141 0.466444
vt 0.510127 0.534717
vt 0.489544 0.023069
vt 0.240297 0.463863
vt 0.739555 0.531588
vt 0.009984 0.466992
s 0
usemtl multitexture
f 2/1/1 3/2/2 1/3/3
f 1/3/4 7/4/5 2/1/6
f 4/5/7 3/2/8 49/6/9
f 5/7/10 4/5/11 8/8/12
f 6/9/13 7/4/14 5/7/15
f 10/10/16 5/7/17 8/8/12
f 9/11/18 10/10/19 8/8/20
f 152/12/21 8/8/22 4/5/23
f 11/13/24 12/14/25 10/10/26
f 12/14/27 6/9/28 10/10/29
f 12/14/30 141/15/31 13/16/32
f 13/16/33 15/17/34 12/14/35
f 15/17/36 25/18/37 6/9/38
f 19/19/39 15/17/40 17/20/41
f 18/21/42 19/19/43 17/20/44
f 74/22/45 17/20/46 13/16/47
f 82/23/48 19/24/49 20/25/50
f 20/25/51 19/24/52 18/26/42
f 19/19/53 22/27/54 16/28/55
f 21/29/56 22/30/57 19/24/53
f 25/18/58 22/27/59 23/31/60
f 26/32/61 22/30/62 21/29/63
f 25/18/64 24/33/65 7/4/66
f 24/34/67 26/32/68 28/35/69
f 28/35/70 27/36/71 29/37/72
f 26/32/73 82/23/74 27/36/75
f 31/38/76 28/35/77 29/37/78
f 30/39/79 24/34/80 28/35/81
f 115/40/82 30/39/83 31/38/84
f 32/41/85 33/42/86 30/39/87
f 33/43/88 35/44/89 2/1/90
f 33/43/91 7/4/92 24/33/93
f 35/44/94 36/45/95 37/46/96
f 32/41/97 36/47/98 34/48/99
f 40/49/100 36/50/101 38/51/102
f 40/49/103 39/52/104 41/53/105
f 39/54/106 32/41/107 115/40/108
f 42/55/109 41/53/110 43/56/111
f 44/57/112 40/49/113 42/55/114
f 45/58/115 43/56/116 46/59/117
f 48/60/118 42/55/119 45/58/120
f 124/61/121 45/58/122 46/59/123
f 47/62/124 48/60/125 45/58/126
f 48/63/127 51/64/128 49/6/129
f 49/6/130 44/65/131 48/63/132
f 51/64/133 52/66/134 53/67/135
f 47/62/136 52/68/137 50/69/138
f 53/67/139 52/66/140 55/70/141
f 55/71/141 52/68/142 54/72/143
f 58/73/144 55/71/145 56/74/146
f 55/71/147 125/75/148 56/74/149
f 151/76/150 55/70/151 57/77/152
f 57/77/153 55/70/145 58/78/144
f 58/78/154 147/79/155 57/77/156
f 59/80/157 56/74/158 127/81/159
f 59/82/160 61/83/161 58/84/144
f 58/84/144 61/83/161 60/85/162
f 62/86/163 59/87/164 129/88/165
f 62/86/166 64/89/167 61/90/161
f 61/90/161 64/89/167 63/91/168
f 63/92/169 60/85/170 61/83/161
f 64/89/171 145/93/172 63/91/173
f 139/94/174 64/89/175 62/86/176
f 64/89/177 67/95/178 65/96/179
f 66/97/180 67/95/181 64/89/182
f 70/98/183 67/95/184 68/99/185
f 68/99/186 67/95/178 69/100/187
f 65/96/188 67/95/189 70/98/190
f 69/100/191 67/95/192 66/97/180
f 73/101/193 70/98/183 71/102/194
f 70/98/195 94/103/196 71/102/197
f 145/93/198 70/98/199 72/104/200
f 72/104/201 70/98/183 73/101/193
f 73/105/202 140/106/203 72/107/204
f 71/102/205 75/108/206 73/101/193
f 74/109/207 73/105/193 18/110/42
f 18/110/42 73/105/193 75/111/208
f 76/112/209 77/113/210 75/114/211
f 18/26/212 77/113/213 20/25/51
f 78/115/214 79/116/215 77/113/216
f 20/25/217 79/116/218 82/23/219
f 79/116/220 84/117/221 81/118/222
f 82/23/223 81/118/224 27/36/225
f 81/118/226 85/119/227 83/120/228
f 27/36/229 83/120/230 29/37/78
f 84/117/231 87/121/232 85/119/233
f 84/117/234 88/122/235 86/123/236
f 87/121/237 89/124/238 91/125/239
f 89/124/240 88/122/241 92/126/242
f 91/125/243 90/127/244 99/128/245
f 89/124/246 93/129/247 90/127/248
f 93/129/249 78/115/250 76/112/251
f 78/115/252 88/122/253 80/130/254
f 94/103/255 76/131/256 71/102/257
f 95/132/258 93/133/259 94/103/260
f 94/103/261 69/100/262 95/132/263
f 96/134/264 90/135/265 95/132/266
f 95/132/267 69/100/268 96/134/269
f 96/134/269 69/100/268 97/136/270
f 97/136/271 98/137/272 96/134/269
f 100/110/273 96/134/269 98/137/274
f 99/138/275 96/134/269 100/110/273
f 136/139/276 100/140/277 98/141/274
f 101/142/278 103/143/279 100/140/273
f 100/144/273 103/145/280 102/146/281
f 102/146/282 99/128/283 100/144/273
f 103/145/284 114/147/285 102/146/286
f 137/148/287 103/143/288 101/142/289
f 103/145/290 106/149/291 104/150/292
f 105/151/293 106/152/294 103/143/290
f 108/153/295 106/152/296 105/151/297
f 110/154/298 106/149/299 107/155/300
f 109/156/301 108/153/302 116/157/303
f 110/154/304 109/158/305 111/159/306
f 112/160/307 111/159/308 113/161/309
f 114/147/310 110/154/311 112/160/312
f 113/161/313 85/119/314 112/160/315
f 112/160/316 87/121/317 114/147/318
f 102/146/319 87/121/320 91/125/321
f 31/38/322 111/159/323 115/40/324
f 83/120/325 31/38/326 29/37/78
f 115/40/327 109/158/328 39/54/329
f 39/52/330 116/157/331 41/53/332
f 116/157/333 118/162/334 117/163/335
f 41/53/336 117/163/337 43/56/338
f 119/164/339 118/162/340 120/165/341
f 46/59/342 117/163/343 119/164/344
f 120/165/345 121/166/346 119/164/347
f 121/166/348 46/59/349 119/164/344
f 122/167/350 123/168/351 121/166/352
f 123/168/353 124/61/354 121/166/355
f 125/75/356 47/62/357 124/61/358
f 127/81/359 125/75/360 123/168/361
f 123/168/362 128/169/363 127/81/364
f 127/81/365 129/170/366 59/80/367
f 128/169/368 132/171/369 129/170/370
f 128/169/371 133/172/372 130/173/373
f 132/171/374 131/174/375 138/175/376
f 131/174/377 133/172/378 134/176/379
f 122/167/380 133/172/381 126/177/382
f 131/174/383 135/178/384 136/139/385
f 135/178/386 122/167/387 120/165/388
f 135/178/389 101/142/390 136/139/391
f 120/165/392 137/148/393 135/178/394
f 108/153/395 137/148/396 118/162/397
f 138/175/398 136/139/399 98/141/400
f 139/94/401 138/179/402 97/136/403
f 62/86/404 132/180/405 139/94/406
f 69/100/407 139/94/408 97/136/409
f 13/16/410 140/181/411 74/22/412
f 141/15/413 142/182/414 140/181/415
f 72/107/416 142/183/417 145/184/418
f 142/182/419 146/185/420 144/186/421
f 145/184/422 144/187/423 63/92/424
f 144/186/425 147/79/426 60/188/427
f 146/185/428 149/189/429 147/79/430
f 146/185/431 150/190/432 148/191/433
f 149/189/434 11/13/435 9/11/436
f 11/13/437 150/190/438 14/192/439
f 141/15/440 150/190/441 143/193/442
f 57/77/443 149/189/444 151/76/445
f 151/76/446 9/11/447 152/12/448
f 51/64/449 151/76/450 152/12/451
f 49/6/452 152/12/453 4/5/454
f 35/44/455 44/65/456 3/2/457
f 2/1/458 35/44/459 3/2/460
f 1/3/461 5/7/462 7/4/92
f 4/5/463 1/3/464 3/2/465
f 5/7/466 1/3/464 4/5/467
f 6/9/468 25/18/469 7/4/470
f 10/10/471 6/9/472 5/7/473
f 9/11/474 11/13/475 10/10/476
f 152/12/477 9/11/478 8/8/479
f 11/13/480 14/192/481 12/14/482
f 12/14/483 15/17/484 6/9/485
f 12/14/486 14/192/487 141/15/488
f 13/16/489 17/20/490 15/17/491
f 15/17/492 16/28/493 25/18/494
f 19/19/495 16/28/496 15/17/497
f 74/22/498 18/21/42 17/20/499
f 82/23/500 21/29/501 19/24/502
f 25/18/503 16/28/504 22/27/505
f 26/32/506 23/194/507 22/30/508
f 25/18/509 23/31/510 24/33/511
f 24/34/512 23/194/513 26/32/514
f 28/35/515 26/32/516 27/36/517
f 26/32/518 21/29/519 82/23/520
f 31/38/521 30/39/522 28/35/523
f 30/39/524 33/42/525 24/34/526
f 115/40/527 32/41/528 30/39/529
f 32/41/530 34/48/531 33/42/532
f 33/43/533 34/195/534 35/44/535
f 33/43/536 2/1/537 7/4/538
f 35/44/539 34/195/540 36/45/541
f 32/41/542 38/196/543 36/47/544
f 40/49/545 37/197/546 36/50/547
f 40/49/548 38/51/549 39/52/550
f 39/54/551 38/196/552 32/41/553
f 42/55/554 40/49/555 41/53/556
f 44/57/557 37/197/558 40/49/559
f 45/58/560 42/55/561 43/56/562
f 48/60/563 44/57/564 42/55/565
f 124/61/566 47/62/567 45/58/568
f 47/62/569 50/69/570 48/60/571
f 48/63/572 50/198/573 51/64/574
f 49/6/575 3/2/576 44/65/577
f 51/64/578 50/198/579 52/66/580
f 47/62/581 54/72/582 52/68/583
f 55/71/584 54/72/585 125/75/586
f 151/76/587 53/67/588 55/70/589
f 58/78/590 60/188/162 147/79/591
f 59/80/592 58/73/144 56/74/593
f 62/86/594 61/90/161 59/87/595
f 63/92/596 144/187/597 60/85/598
f 64/89/599 65/96/600 145/93/601
f 139/94/602 66/97/603 64/89/604
f 70/98/605 68/99/606 94/103/607
f 145/93/608 65/96/609 70/98/610
f 73/105/611 74/109/207 140/106/612
f 71/102/613 76/131/614 75/108/615
f 76/112/616 78/115/617 77/113/618
f 18/26/619 75/114/208 77/113/620
f 78/115/621 80/130/622 79/116/623
f 20/25/624 77/113/625 79/116/626
f 79/116/627 80/130/628 84/117/629
f 82/23/630 79/116/631 81/118/632
f 81/118/633 84/117/634 85/119/635
f 27/36/636 81/118/637 83/120/638
f 84/117/639 86/123/640 87/121/641
f 84/117/642 80/130/643 88/122/644
f 87/121/645 86/123/646 89/124/647
f 89/124/648 86/123/649 88/122/650
f 91/125/651 89/124/652 90/127/653
f 89/124/654 92/126/655 93/129/656
f 93/129/657 92/126/658 78/115/659
f 78/115/660 92/126/661 88/122/662
f 94/103/663 93/133/664 76/131/665
f 95/132/666 90/135/667 93/133/668
f 94/103/669 68/99/670 69/100/671
f 96/134/672 99/138/275 90/135/673
f 97/136/674 138/179/675 98/137/676
f 136/139/677 101/142/278 100/140/678
f 102/146/679 91/125/680 99/128/681
f 103/145/682 104/150/683 114/147/684
f 137/148/685 105/151/686 103/143/687
f 108/153/688 107/199/689 106/152/690
f 110/154/691 104/150/692 106/149/693
f 109/156/694 107/199/695 108/153/696
f 110/154/697 107/155/698 109/158/699
f 112/160/700 110/154/701 111/159/702
f 114/147/703 104/150/704 110/154/705
f 113/161/706 83/120/707 85/119/708
f 112/160/709 85/119/710 87/121/320
f 102/146/711 114/147/318 87/121/712
f 31/38/713 113/161/714 111/159/715
f 83/120/716 113/161/714 31/38/717
f 115/40/718 111/159/719 109/158/720
f 39/52/721 109/156/722 116/157/723
f 116/157/724 108/153/725 118/162/726
f 41/53/727 116/157/728 117/163/729
f 119/164/730 117/163/731 118/162/732
f 46/59/733 43/56/338 117/163/734
f 120/165/735 122/167/736 121/166/737
f 121/166/738 124/61/739 46/59/740
f 122/167/741 126/177/742 123/168/743
f 123/168/744 125/75/745 124/61/746
f 125/75/747 54/72/748 47/62/749
f 127/81/750 56/74/751 125/75/752
f 123/168/753 126/177/754 128/169/755
f 127/81/756 128/169/757 129/170/758
f 128/169/759 130/173/760 132/171/761
f 128/169/762 126/177/763 133/172/764
f 132/171/765 130/173/766 131/174/767
f 131/174/768 130/173/769 133/172/770
f 122/167/771 134/176/772 133/172/773
f 131/174/774 134/176/775 135/178/776
f 135/178/777 134/176/778 122/167/779
f 135/178/780 137/148/781 101/142/782
f 120/165/783 118/162/784 137/148/785
f 108/153/786 105/151/787 137/148/788
f 138/175/789 131/174/790 136/139/791
f 139/94/792 132/180/793 138/179/794
f 62/86/795 129/88/796 132/180/797
f 69/100/798 66/97/799 139/94/800
f 13/16/801 141/15/802 140/181/803
f 141/15/804 143/193/805 142/182/806
f 72/107/807 140/106/808 142/183/809
f 142/182/810 143/193/811 146/185/812
f 145/184/813 142/183/814 144/187/815
f 144/186/816 146/185/817 147/79/818
f 146/185/819 148/191/820 149/189/821
f 146/185/822 143/193/823 150/190/824
f 149/189/825 148/191/826 11/13/827
f 11/13/828 148/191/829 150/190/830
f 141/15/831 14/192/832 150/190/833
f 57/77/834 147/79/835 149/189/836
f 151/76/837 149/189/838 9/11/839
f 51/64/840 53/67/841 151/76/842
f 49/6/843 51/64/844 152/12/845
f 35/44/846 37/46/847 44/65/848
