# Blender 5.0.1
# www.blender.org

mtllib DLF.mtl
o corner_DLF
v -0.300161 -0.295654 0.295654
v -0.299818 -0.297379 0.295654
v -0.299818 -0.295654 0.297379
v -0.300161 -0.104342 0.295654
v -0.300162 -0.295654 0.104342
v -0.299818 -0.295654 0.102617
v -0.299818 -0.297379 0.104342
v -0.300161 -0.104342 0.104342
v -0.299818 -0.102617 0.104342
v -0.299818 -0.104342 0.102617
v -0.299404 -0.102574 0.102574
v -0.298841 -0.104342 0.101155
v -0.297379 -0.104342 0.100178
v -0.298612 -0.102664 0.101384
v -0.298841 -0.295654 0.101155
v -0.298612 -0.297332 0.101384
v -0.297379 -0.295654 0.100178
v -0.295654 -0.295654 0.099835
v -0.297422 -0.297422 0.100592
v -0.295654 -0.297379 0.100178
v -0.297333 -0.298612 0.101384
v -0.298256 -0.298256 0.101740
v -0.298612 -0.298612 0.102664
v -0.298841 -0.298841 0.104342
v -0.299404 -0.297422 0.102574
v -0.297422 -0.299404 0.102574
v -0.295654 -0.299818 0.102617
v -0.297379 -0.299818 0.104342
v -0.295654 -0.300161 0.104342
v -0.297379 -0.299818 0.295654
v -0.295654 -0.300161 0.295654
v -0.297422 -0.299404 0.297422
v -0.298841 -0.298841 0.295654
v -0.298612 -0.298612 0.297332
v -0.299404 -0.297422 0.297422
v -0.298256 -0.298256 0.298256
v -0.298612 -0.297332 0.298612
v -0.297333 -0.298612 0.298612
v -0.295654 -0.298841 0.298841
v -0.297422 -0.297422 0.299404
v -0.295654 -0.297379 0.299818
v -0.297379 -0.295654 0.299818
v -0.295654 -0.295654 0.300161
v -0.298841 -0.295654 0.298841
v -0.297379 -0.104342 0.299818
v -0.295654 -0.104342 0.300161
v -0.297422 -0.102574 0.299404
v -0.298841 -0.104342 0.298841
v -0.299818 -0.104342 0.297379
v -0.298612 -0.102664 0.298612
v -0.299404 -0.102574 0.297422
v -0.298256 -0.101740 0.298256
v -0.298612 -0.101384 0.297332
v -0.297332 -0.101384 0.298612
v -0.297422 -0.100592 0.297422
v -0.295654 -0.100178 0.297379
v -0.297379 -0.100178 0.295654
v -0.295654 -0.099835 0.295654
v -0.104342 -0.099835 0.295654
v -0.295654 -0.099835 0.104342
v -0.104342 -0.099835 0.104342
v -0.102617 -0.100178 0.104342
v -0.104342 -0.100178 0.102617
v -0.102678 -0.100677 0.102678
v -0.102721 -0.101346 0.101346
v -0.101346 -0.101346 0.102720
v -0.101750 -0.101750 0.101750
v -0.101346 -0.102721 0.101346
v -0.100677 -0.102678 0.102678
v -0.102678 -0.102678 0.100677
v -0.102617 -0.104342 0.100178
v -0.104342 -0.102617 0.100178
v -0.104342 -0.104342 0.099835
v -0.295654 -0.104342 0.099835
v -0.104342 -0.295654 0.099835
v -0.102617 -0.295654 0.100178
v -0.104342 -0.297379 0.100178
v -0.102574 -0.297422 0.100592
v -0.104342 -0.298841 0.101155
v -0.102664 -0.298612 0.101384
v -0.104342 -0.299818 0.102617
v -0.295654 -0.298841 0.101155
v -0.104342 -0.300161 0.104342
v -0.102574 -0.299404 0.102574
v -0.102617 -0.299818 0.104342
v -0.101384 -0.298612 0.102664
v -0.101155 -0.298841 0.104342
v -0.101740 -0.298256 0.101740
v -0.100592 -0.297422 0.102574
v -0.100178 -0.295654 0.102617
v -0.100178 -0.297379 0.104342
v -0.101384 -0.297332 0.101384
v -0.101155 -0.295654 0.101155
v -0.101155 -0.104342 0.101155
v -0.100178 -0.104342 0.102617
v -0.099835 -0.104342 0.104342
v -0.100178 -0.102617 0.104342
v -0.099835 -0.104342 0.295654
v -0.099835 -0.295654 0.104342
v -0.099835 -0.295654 0.295654
v -0.100178 -0.295654 0.297379
v -0.100178 -0.297379 0.295654
v -0.100592 -0.297422 0.297422
v -0.101384 -0.298612 0.297332
v -0.101384 -0.297333 0.298612
v -0.101740 -0.298256 0.298256
v -0.102664 -0.298612 0.298612
v -0.102574 -0.297422 0.299404
v -0.104342 -0.298841 0.298841
v -0.102574 -0.299404 0.297422
v -0.104342 -0.299818 0.297379
v -0.102617 -0.299818 0.295654
v -0.104342 -0.300161 0.295654
v -0.101155 -0.298841 0.295654
v -0.295654 -0.299818 0.297379
v -0.104342 -0.297379 0.299818
v -0.104342 -0.295654 0.300161
v -0.102617 -0.295654 0.299818
v -0.104342 -0.104342 0.300161
v -0.102617 -0.104342 0.299818
v -0.104342 -0.102617 0.299818
v -0.102574 -0.102574 0.299404
v -0.104342 -0.101155 0.298841
v -0.295654 -0.102617 0.299818
v -0.295654 -0.101155 0.298841
v -0.102664 -0.101384 0.298612
v -0.104342 -0.100178 0.297379
v -0.102574 -0.100592 0.297422
v -0.102617 -0.100178 0.295654
v -0.101384 -0.101384 0.297332
v -0.100592 -0.102574 0.297422
v -0.101155 -0.101155 0.295654
v -0.101740 -0.101740 0.298256
v -0.101384 -0.102664 0.298612
v -0.101155 -0.104342 0.298841
v -0.100178 -0.104342 0.297379
v -0.101155 -0.295654 0.298841
v -0.100178 -0.102617 0.295654
v -0.101155 -0.101155 0.104342
v -0.295654 -0.102617 0.100178
v -0.297422 -0.102574 0.100592
v -0.295654 -0.101155 0.101155
v -0.297332 -0.101384 0.101384
v -0.295654 -0.100178 0.102617
v -0.104342 -0.101155 0.101155
v -0.297422 -0.100592 0.102574
v -0.297379 -0.100178 0.104342
v -0.298612 -0.101384 0.102664
v -0.298841 -0.101155 0.104342
v -0.298256 -0.101740 0.101740
v -0.298841 -0.101155 0.295654
v -0.299818 -0.102617 0.295654
vn -0.9004 -0.4280 0.0782
vn -0.9004 -0.0782 0.4280
vn -0.9998 0.0141 -0.0141
vn -1.0000 -0.0018 0.0006
vn -0.9619 -0.1913 0.1950
vn -0.9239 -0.3826 0.0017
vn -1.0000 0.0006 0.0018
vn -0.9620 0.1950 0.1913
vn -0.9239 0.0017 0.3826
vn -1.0000 -0.0023 -0.0010
vn -1.0000 0.0010 0.0023
vn -1.0000 0.0018 -0.0018
vn -0.9004 -0.0782 -0.4280
vn -0.9004 -0.4280 -0.0782
vn -0.9998 0.0141 0.0141
vn -0.9239 0.0005 -0.3826
vn -0.9623 0.1933 -0.1914
vn -0.9004 0.4280 -0.0782
vn -0.9004 0.0781 -0.4280
vn -0.9998 -0.0141 0.0141
vn -0.9239 0.3826 0.0005
vn -0.9623 0.1914 0.1933
vn -1.0000 0.0018 0.0018
vn -0.8231 0.4022 -0.4009
vn -0.6739 0.0689 -0.7356
vn -0.9257 -0.0024 -0.3782
vn -0.7071 0.0003 -0.7071
vn -0.8155 0.1951 -0.5449
vn -0.9239 0.0018 -0.3827
vn -0.7356 0.0689 -0.6739
vn -0.4009 0.4022 -0.8231
vn -0.3782 -0.0025 -0.9257
vn -0.3827 0.0005 -0.9239
vn -0.5449 0.1950 -0.8155
vn -0.7071 0.0015 -0.7071
vn -0.6739 -0.0689 -0.7356
vn -0.8231 -0.4022 -0.4009
vn -0.9257 0.0025 -0.3782
vn -0.4009 -0.4022 -0.8231
vn -0.7356 -0.0689 -0.6739
vn -0.3786 0.0029 -0.9256
vn -0.0018 -0.0018 -1.0000
vn -0.3453 -0.3453 -0.8726
vn -0.3830 -0.0013 -0.9238
vn -0.0035 0.0023 -1.0000
vn -0.1913 0.1954 -0.9619
vn -0.3826 0.0018 -0.9239
vn -0.0689 -0.7356 -0.6739
vn -0.4022 -0.4009 -0.8231
vn 0.0029 -0.3786 -0.9256
vn -0.0013 -0.3830 -0.9237
vn -0.3454 -0.3453 -0.8726
vn -0.3454 -0.3454 -0.8726
vn -0.5774 -0.5773 -0.5774
vn -0.6914 -0.2762 -0.6676
vn -0.2762 -0.6914 -0.6676
vn -0.5773 -0.5773 -0.5774
vn -0.8623 -0.3142 -0.3972
vn -0.5976 -0.5218 -0.6088
vn -0.6683 -0.6920 -0.2729
vn -0.3972 -0.8623 -0.3141
vn -0.6088 -0.5976 -0.5218
vn -0.2501 -0.6848 -0.6844
vn -0.8231 -0.4009 -0.4023
vn -0.6739 -0.7356 -0.0689
vn -0.9257 -0.3782 0.0024
vn -0.7357 -0.6738 -0.0689
vn -0.4009 -0.8231 -0.4022
vn -0.3783 -0.9257 0.0024
vn -0.4280 -0.9004 -0.0782
vn -0.0782 -0.9004 -0.4280
vn 0.0141 -0.9998 0.0141
vn -0.4023 -0.8231 -0.4009
vn -0.0689 -0.6739 -0.7356
vn 0.0024 -0.9257 -0.3782
vn -0.1931 -0.9619 -0.1933
vn -0.3826 -0.9239 -0.0005
vn -0.0018 -1.0000 -0.0018
vn -0.7071 -0.7071 0.0003
vn -0.5449 -0.8155 0.1951
vn -0.3827 -0.9239 0.0017
vn -0.0782 -0.9004 0.4280
vn -0.4280 -0.9004 0.0781
vn 0.0141 -0.9998 -0.0141
vn -0.4009 -0.8231 0.4022
vn -0.7356 -0.6739 0.0688
vn -0.3782 -0.9257 -0.0024
vn -0.6739 -0.7357 0.0689
vn -0.8231 -0.4009 0.4022
vn -0.9257 -0.3782 -0.0024
vn -0.9239 -0.3827 0.0005
vn -0.8155 -0.5449 0.1950
vn -0.7071 -0.7071 0.0015
vn -0.8623 -0.3971 0.3142
vn -0.5976 -0.6088 0.5218
vn -0.6683 -0.2728 0.6921
vn -0.3142 -0.8623 0.3972
vn -0.5218 -0.5976 0.6087
vn -0.6920 -0.6683 0.2728
vn -0.3972 -0.3141 0.8623
vn -0.6088 -0.5217 0.5976
vn -0.2729 -0.6920 0.6683
vn -0.4023 -0.4009 0.8231
vn -0.0689 -0.7356 0.6739
vn 0.0024 -0.3782 0.9257
vn -0.0689 -0.6739 0.7356
vn -0.4022 -0.8231 0.4009
vn 0.0025 -0.9257 0.3782
vn -0.4280 -0.0782 0.9004
vn -0.0781 -0.4280 0.9004
vn 0.0141 0.0141 0.9998
vn -0.7356 -0.0689 0.6739
vn -0.4009 -0.4023 0.8231
vn -0.3782 0.0024 0.9257
vn -0.3826 0.0005 0.9239
vn -0.1914 0.1933 0.9623
vn -0.0018 0.0018 1.0000
vn -0.7071 0.0003 0.7071
vn -0.5449 0.1951 0.8155
vn -0.3827 0.0018 0.9239
vn -0.0782 0.4280 0.9004
vn -0.4280 0.0782 0.9004
vn 0.0141 -0.0141 0.9998
vn -0.4009 0.4022 0.8231
vn -0.7356 0.0689 0.6739
vn -0.3782 -0.0024 0.9257
vn -0.6739 0.0689 0.7356
vn -0.8231 0.4022 0.4009
vn -0.9257 -0.0024 0.3782
vn -0.9239 0.0005 0.3827
vn -0.8155 0.1950 0.5449
vn -0.7071 0.0015 0.7071
vn -0.8623 0.3142 0.3972
vn -0.5976 0.5217 0.6088
vn -0.6848 0.6844 0.2502
vn -0.3142 0.3972 0.8623
vn -0.5218 0.6087 0.5976
vn -0.6921 0.2728 0.6683
vn -0.6914 0.6676 0.2762
vn -0.5773 0.5774 0.5773
vn -0.3454 0.8726 0.3454
vn -0.2762 0.6676 0.6914
vn -0.0018 1.0000 0.0018
vn -0.3453 0.8726 0.3453
vn -0.0013 0.9238 0.3830
vn -0.4022 0.8231 0.4009
vn -0.0688 0.6739 0.7356
vn 0.0029 0.9256 0.3786
vn -0.7356 0.6739 0.0689
vn -0.4009 0.8231 0.4022
vn -0.3786 0.9256 -0.0029
vn -0.3830 0.9237 0.0013
vn -0.3453 0.8726 0.3454
vn -0.0018 1.0000 0.0006
vn -0.1913 0.9619 0.1950
vn -0.3830 0.9238 0.0013
vn -0.1950 0.9623 0.1896
vn -0.0006 1.0000 0.0018
vn 0.0035 1.0000 0.0035
vn 0.0018 1.0000 -0.0018
vn -0.0035 1.0000 -0.0035
vn 0.0018 1.0000 -0.0006
vn 0.1913 0.9619 -0.1950
vn 0.3828 0.9238 -0.0015
vn 0.3828 0.9238 -0.0016
vn 0.3417 0.8755 -0.3417
vn 0.0016 0.9238 -0.3828
vn -0.1933 0.9619 -0.1932
vn -0.0005 0.9239 -0.3827
vn 0.4369 0.7962 -0.4186
vn 0.1359 0.6074 -0.7827
vn 0.0569 0.8996 -0.4329
vn 0.7827 0.6074 -0.1359
vn 0.4186 0.7962 -0.4369
vn 0.4329 0.8996 -0.0569
vn 0.3418 0.8755 -0.3417
vn 0.5774 0.5774 -0.5773
vn 0.2898 0.6768 -0.6767
vn 0.6768 0.6768 -0.2897
vn 0.5773 0.5774 -0.5774
vn 0.3417 0.8755 -0.3418
vn 0.3417 0.3418 -0.8755
vn 0.5773 0.5773 -0.5774
vn 0.6768 0.2897 -0.6768
vn 0.6768 0.2898 -0.6768
vn 0.8755 0.3417 -0.3417
vn 0.2898 0.6768 -0.6768
vn 0.5774 0.5773 -0.5774
vn 0.3418 0.3417 -0.8755
vn 0.8755 0.3417 -0.3418
vn 0.5774 0.5773 -0.5773
vn 0.0018 0.0018 -1.0000
vn 0.3417 0.3417 -0.8755
vn 0.3828 0.0016 -0.9238
vn 0.4186 0.4369 -0.7962
vn 0.7827 0.1359 -0.6074
vn 0.4329 0.0570 -0.8996
vn 0.1359 0.7827 -0.6074
vn 0.4369 0.4186 -0.7962
vn 0.0569 0.4329 -0.8996
vn 0.0016 0.3828 -0.9238
vn 0.0006 0.0018 -1.0000
vn 0.1950 0.1913 -0.9619
vn 0.0015 0.3828 -0.9238
vn 0.3828 0.0003 -0.9238
vn 0.1915 0.1917 -0.9626
vn -0.0035 0.0035 -1.0000
vn 0.0035 -0.0035 -1.0000
vn 0.4280 -0.0782 -0.9004
vn 0.0781 -0.4280 -0.9004
vn -0.0123 0.0124 -0.9998
vn -0.0006 -0.0018 -1.0000
vn -0.1950 -0.1913 -0.9619
vn 0.4022 -0.4009 -0.8231
vn 0.0688 -0.7356 -0.6739
vn -0.0024 -0.3782 -0.9257
vn -0.0001 -0.3830 -0.9237
vn -0.1950 -0.5449 -0.8155
vn -0.0015 -0.7071 -0.7071
vn 0.0689 -0.6739 -0.7356
vn 0.4022 -0.8231 -0.4009
vn -0.0024 -0.9257 -0.3782
vn -0.0003 -0.7071 -0.7071
vn -0.1951 -0.8155 -0.5449
vn -0.0018 -0.9239 -0.3827
vn 0.0782 -0.9004 -0.4280
vn 0.4280 -0.9004 -0.0782
vn -0.0141 -0.9998 0.0141
vn 0.1933 -0.9619 -0.1932
vn 0.0006 -0.9239 -0.3827
vn 0.0018 -1.0000 -0.0018
vn 0.4009 -0.8231 -0.4022
vn 0.7356 -0.6739 -0.0688
vn 0.3782 -0.9257 0.0024
vn 0.3142 -0.8623 -0.3972
vn 0.5218 -0.5976 -0.6088
vn 0.6921 -0.6683 -0.2728
vn 0.6739 -0.7356 -0.0689
vn 0.8231 -0.4009 -0.4022
vn 0.9257 -0.3782 0.0025
vn 0.8623 -0.3972 -0.3142
vn 0.5976 -0.6088 -0.5218
vn 0.6683 -0.2728 -0.6920
vn 0.9004 -0.4280 -0.0782
vn 0.9004 -0.0781 -0.4280
vn 0.9998 0.0123 0.0124
vn 0.8231 -0.4022 -0.4009
vn 0.6739 -0.0689 -0.7356
vn 0.9257 0.0025 -0.3782
vn 0.7356 -0.0689 -0.6739
vn 0.4009 -0.4022 -0.8231
vn 0.3782 0.0025 -0.9257
vn 0.3972 -0.3142 -0.8623
vn 0.6088 -0.5218 -0.5976
vn 0.2728 -0.6921 -0.6683
vn 0.7071 0.0006 -0.7071
vn 0.5449 0.1951 -0.8155
vn 0.3828 0.0015 -0.9238
vn 0.9238 0.0003 -0.3829
vn 0.8155 0.1950 -0.5449
vn 0.7071 0.0018 -0.7071
vn 0.6074 0.1359 -0.7827
vn 0.7962 0.4369 -0.4186
vn 0.8996 0.0570 -0.4329
vn 1.0000 0.0006 -0.0018
vn 0.9619 0.1950 -0.1913
vn 0.9238 0.0015 -0.3828
vn 0.9238 0.0016 -0.3828
vn 1.0000 0.0018 -0.0018
vn 0.9238 0.3828 -0.0016
vn 0.9238 0.3828 -0.0003
vn 0.9626 0.1915 -0.1917
vn 1.0000 -0.0018 0.0018
vn 1.0000 0.0035 0.0035
vn 1.0000 -0.0035 -0.0035
vn 0.9239 0.0005 0.3827
vn 0.9623 0.1933 0.1914
vn 0.9237 -0.0013 0.3830
vn 0.8726 -0.3454 0.3453
vn 0.8726 -0.3453 0.3453
vn 0.9237 -0.3830 0.0013
vn 0.9237 -0.3830 0.0001
vn 0.9626 -0.1915 0.1917
vn 0.8231 -0.4009 0.4022
vn 0.6739 -0.7356 0.0689
vn 0.9256 -0.3786 -0.0029
vn 0.6739 -0.0689 0.7356
vn 0.8231 -0.4022 0.4009
vn 0.9256 0.0029 0.3786
vn 0.8726 -0.3454 0.3454
vn 0.5774 -0.5774 0.5773
vn 0.6676 -0.6914 0.2762
vn 0.6676 -0.2762 0.6914
vn 0.5774 -0.5773 0.5773
vn 0.3142 -0.3971 0.8623
vn 0.5218 -0.6087 0.5976
vn 0.6845 -0.2501 0.6848
vn 0.3972 -0.8623 0.3142
vn 0.6088 -0.5976 0.5218
vn 0.2728 -0.6683 0.6920
vn 0.0689 -0.7356 0.6739
vn 0.4022 -0.4009 0.8231
vn -0.0025 -0.3782 0.9257
vn 0.4022 -0.8231 0.4009
vn 0.0689 -0.6739 0.7356
vn -0.0025 -0.9257 0.3782
vn 0.4280 -0.9004 0.0782
vn 0.0782 -0.9004 0.4280
vn -0.0141 -0.9998 -0.0141
vn 0.7356 -0.6739 0.0689
vn 0.4009 -0.8231 0.4022
vn 0.3782 -0.9257 -0.0025
vn 0.0018 -1.0000 0.0006
vn 0.1914 -0.9619 0.1950
vn 0.3827 -0.9239 0.0018
vn 0.3827 -0.9239 0.0005
vn 0.5449 -0.8155 0.1950
vn 0.7071 -0.7071 0.0015
vn 0.7071 -0.7071 0.0003
vn 0.8155 -0.5449 0.1951
vn 0.9237 -0.3831 0.0013
vn -0.0006 -1.0000 0.0018
vn -0.1951 -0.9619 0.1914
vn -0.0018 -0.9239 0.3827
vn 0.0023 -1.0000 -0.0010
vn -0.0010 -1.0000 0.0023
vn -0.0005 -0.9239 0.3827
vn -0.1951 -0.8155 0.5449
vn -0.0015 -0.7071 0.7071
vn -0.0003 -0.7071 0.7071
vn -0.1951 -0.5449 0.8155
vn -0.0017 -0.3827 0.9239
vn 0.0782 -0.4280 0.9004
vn 0.4280 -0.0781 0.9004
vn -0.0141 0.0141 0.9998
vn 0.1933 -0.1932 0.9619
vn 0.0005 -0.3827 0.9239
vn 0.0018 -0.0018 1.0000
vn 0.0018 0.0006 1.0000
vn 0.1914 0.1950 0.9619
vn 0.3826 0.0017 0.9239
vn -0.0010 -0.0023 1.0000
vn 0.0023 0.0010 1.0000
vn 0.4280 0.0782 0.9004
vn 0.0781 0.4280 0.9004
vn -0.0141 -0.0141 0.9998
vn 0.0005 0.3826 0.9239
vn 0.1933 0.1914 0.9623
vn 0.0018 0.0018 1.0000
vn 0.4022 0.4009 0.8231
vn 0.0689 0.7356 0.6739
vn -0.0025 0.3782 0.9257
vn 0.0003 0.7071 0.7071
vn 0.1951 0.5449 0.8155
vn 0.0017 0.3827 0.9239
vn -0.0689 0.7356 0.6739
vn -0.4022 0.4009 0.8231
vn 0.0025 0.3782 0.9257
vn 0.0005 0.9239 0.3827
vn 0.1950 0.8155 0.5449
vn 0.0015 0.7071 0.7071
vn 0.0689 0.6739 0.7356
vn 0.4022 0.8231 0.4009
vn -0.0025 0.9257 0.3782
vn 0.0782 0.9004 0.4280
vn 0.4280 0.9004 0.0781
vn -0.0124 0.9998 -0.0123
vn 0.4009 0.8231 0.4022
vn 0.7356 0.6739 0.0688
vn 0.3782 0.9257 -0.0025
vn 0.3142 0.8623 0.3972
vn 0.5218 0.5976 0.6088
vn 0.6921 0.6683 0.2728
vn 0.6739 0.7356 0.0689
vn 0.8231 0.4009 0.4022
vn 0.9257 0.3782 -0.0025
vn 0.8623 0.3972 0.3142
vn 0.5976 0.6088 0.5218
vn 0.6683 0.2728 0.6920
vn 0.3972 0.3142 0.8623
vn 0.6088 0.5218 0.5976
vn 0.2728 0.6920 0.6683
vn 0.8231 0.4022 0.4009
vn 0.6739 0.0689 0.7356
vn 0.9257 -0.0025 0.3782
vn 0.7356 0.0689 0.6739
vn 0.4009 0.4022 0.8231
vn 0.3782 -0.0025 0.9257
vn 0.7071 0.0003 0.7071
vn 0.8156 0.1947 0.5449
vn 0.9239 0.0017 0.3827
vn 0.3827 0.0005 0.9239
vn 0.5449 0.1950 0.8155
vn 0.7071 0.0015 0.7071
vn 0.4009 -0.4022 0.8231
vn 0.7356 -0.0689 0.6739
vn 0.3782 0.0025 0.9257
vn 0.9004 0.4280 0.0782
vn 0.9004 0.0782 0.4280
vn 0.9998 -0.0123 -0.0124
vn 0.7071 0.7071 -0.0006
vn 0.8155 0.5449 -0.1951
vn 0.9238 0.3829 -0.0015
vn 0.3829 0.9238 -0.0003
vn 0.5449 0.8155 -0.1950
vn 0.7071 0.7071 -0.0018
vn 0.7962 0.4186 -0.4369
vn 0.6074 0.7827 -0.1359
vn 0.8996 0.4329 -0.0570
vn -0.4280 0.0782 -0.9004
vn -0.0781 0.4280 -0.9004
vn 0.0123 -0.0124 -0.9998
vn -0.4022 0.4009 -0.8231
vn -0.0689 0.7356 -0.6739
vn 0.0025 0.3782 -0.9257
vn 0.0003 0.3829 -0.9238
vn 0.1950 0.5449 -0.8155
vn 0.0018 0.7071 -0.7071
vn -0.0689 0.6739 -0.7356
vn -0.4022 0.8231 -0.4009
vn 0.0025 0.9257 -0.3782
vn -0.1949 0.8145 -0.5464
vn -0.0003 0.7071 -0.7071
vn -0.0017 0.9239 -0.3827
vn -0.0782 0.9004 -0.4280
vn -0.4280 0.9004 -0.0782
vn 0.0124 0.9998 0.0123
vn -0.4009 0.8231 -0.4022
vn -0.7356 0.6739 -0.0689
vn -0.3782 0.9257 0.0025
vn -0.3142 0.8623 -0.3972
vn -0.5218 0.5976 -0.6088
vn -0.6921 0.6683 -0.2728
vn -0.6739 0.7356 -0.0689
vn -0.8231 0.4009 -0.4022
vn -0.9257 0.3782 0.0025
vn -0.8623 0.3972 -0.3142
vn -0.5976 0.6088 -0.5218
vn -0.6683 0.2728 -0.6921
vn -0.3972 0.3142 -0.8623
vn -0.6088 0.5218 -0.5976
vn -0.2728 0.6920 -0.6683
vn -0.3831 0.9237 0.0001
vn -0.5449 0.8155 0.1950
vn -0.7071 0.7071 0.0015
vn -0.7071 0.7071 0.0003
vn -0.8155 0.5449 0.1951
vn -0.9239 0.3827 0.0017
vn -0.8231 0.4009 0.4023
vn -0.6739 0.7356 0.0689
vn -0.9257 0.3782 -0.0024
vn -0.9004 0.0782 0.4280
vn -0.9004 0.4280 0.0782
vn -0.9998 -0.0141 -0.0141
vn -0.8231 -0.4022 0.4009
vn -0.6739 -0.0688 0.7356
vn -0.9257 0.0025 0.3782
vn -0.9514 -0.3058 -0.0372
vn -0.8624 -0.3580 0.3580
vn -0.9514 0.0372 0.3057
vn -0.9623 -0.1914 -0.1933
vn -1.0000 -0.0018 -0.0018
vn -0.9239 -0.3826 -0.0005
vn -0.9623 -0.1933 0.1914
vn -1.0000 -0.0018 0.0018
vn -0.9239 -0.0005 0.3826
vn -1.0000 -0.0010 -0.0023
vn -1.0000 0.0023 0.0010
vn -0.9514 0.0372 -0.3057
vn -0.8624 -0.3580 -0.3580
vn -0.9514 -0.3057 0.0372
vn -0.9619 -0.1950 -0.1913
vn -0.9239 -0.0017 -0.3826
vn -1.0000 -0.0006 -0.0018
vn -0.9514 0.3057 0.0372
vn -0.8624 0.3580 -0.3580
vn -0.9514 -0.0372 -0.3057
vn -0.9619 0.1913 -0.1950
vn -0.9239 0.3826 -0.0017
vn -1.0000 0.0018 -0.0006
vn -0.9164 0.2459 -0.3157
vn -0.6693 0.3030 -0.6784
vn -0.7653 -0.0560 -0.6412
vn -0.8155 -0.1950 -0.5449
vn -0.7071 -0.0015 -0.7071
vn -0.9239 -0.0005 -0.3827
vn -0.6412 -0.0560 -0.7653
vn -0.6784 0.3030 -0.6693
vn -0.3158 0.2458 -0.9164
vn -0.5449 -0.1951 -0.8155
vn -0.3831 -0.0013 -0.9237
vn -0.7071 -0.0003 -0.7071
vn -0.7653 0.0560 -0.6412
vn -0.6860 -0.2807 -0.6713
vn -0.9164 -0.2459 -0.3157
vn -0.3158 -0.2459 -0.9164
vn -0.6950 -0.2806 -0.6620
vn -0.6412 0.0560 -0.7653
vn -0.1915 -0.1917 -0.9626
vn -0.3830 -0.0001 -0.9237
vn 0.0560 -0.6412 -0.7653
vn -0.2806 -0.6950 -0.6620
vn -0.2459 -0.3158 -0.9164
vn -0.8623 -0.3971 -0.3142
vn -0.6848 -0.2501 -0.6844
vn -0.5976 -0.6087 -0.5218
vn -0.3142 -0.8623 -0.3972
vn -0.6920 -0.6683 -0.2729
vn -0.5218 -0.5976 -0.6088
vn -0.9164 -0.3158 -0.2459
vn -0.6693 -0.6784 -0.3030
vn -0.7653 -0.6413 0.0560
vn -0.6412 -0.7653 0.0560
vn -0.6784 -0.6693 -0.3030
vn -0.3157 -0.9165 -0.2458
vn -0.3058 -0.9514 0.0372
vn -0.3580 -0.8624 -0.3580
vn 0.0372 -0.9514 -0.3057
vn -0.2459 -0.9165 -0.3157
vn -0.2806 -0.6860 -0.6713
vn 0.0560 -0.7653 -0.6412
vn -0.0018 -1.0000 0.0006
vn -0.3826 -0.9239 0.0017
vn -0.1896 -0.9623 0.1950
vn -0.5449 -0.8155 -0.1950
vn -0.7070 -0.7072 -0.0015
vn -0.3827 -0.9239 -0.0005
vn 0.0372 -0.9514 0.3057
vn -0.3580 -0.8624 0.3579
vn -0.3057 -0.9514 -0.0372
vn -0.3158 -0.9164 0.2459
vn -0.6784 -0.6693 0.3030
vn -0.6412 -0.7653 -0.0560
vn -0.7653 -0.6412 -0.0560
vn -0.6693 -0.6784 0.3031
vn -0.9164 -0.3157 0.2459
vn -0.8155 -0.5449 -0.1951
vn -0.9239 -0.3827 -0.0017
vn -0.7072 -0.7071 -0.0003
vn -0.8623 -0.3143 0.3971
vn -0.6683 -0.6921 0.2728
vn -0.5976 -0.5218 0.6088
vn -0.3971 -0.8623 0.3142
vn -0.2728 -0.6683 0.6921
vn -0.6087 -0.5976 0.5218
vn -0.3142 -0.3972 0.8623
vn -0.6920 -0.2729 0.6683
vn -0.5218 -0.6088 0.5976
vn -0.2459 -0.3157 0.9164
vn -0.3030 -0.6784 0.6693
vn 0.0560 -0.6412 0.7653
vn 0.0560 -0.7653 0.6412
vn -0.3030 -0.6693 0.6784
vn -0.2459 -0.9164 0.3158
vn -0.3057 0.0372 0.9514
vn -0.3580 -0.3580 0.8624
vn 0.0372 -0.3057 0.9514
vn -0.6412 0.0560 0.7653
vn -0.6784 -0.3030 0.6693
vn -0.3157 -0.2459 0.9164
vn -0.1913 -0.1950 0.9619
vn -0.3826 -0.0017 0.9239
vn -0.0018 -0.0006 1.0000
vn -0.5449 -0.1950 0.8155
vn -0.7071 -0.0015 0.7071
vn -0.3827 -0.0005 0.9239
vn 0.0372 0.3057 0.9514
vn -0.3579 0.3580 0.8624
vn -0.3057 -0.0372 0.9514
vn -0.3158 0.2459 0.9164
vn -0.6784 0.3030 0.6693
vn -0.6412 -0.0560 0.7653
vn -0.7653 -0.0560 0.6412
vn -0.6693 0.3030 0.6784
vn -0.9164 0.2459 0.3157
vn -0.8155 -0.1951 0.5449
vn -0.9239 -0.0017 0.3827
vn -0.7071 -0.0003 0.7071
vn -0.8623 0.3972 0.3142
vn -0.6683 0.2729 0.6920
vn -0.5976 0.6088 0.5217
vn -0.3971 0.3143 0.8623
vn -0.2501 0.6845 0.6848
vn -0.6087 0.5218 0.5976
vn -0.2459 0.9164 0.3157
vn -0.2806 0.6620 0.6950
vn 0.0560 0.7654 0.6412
vn -0.6412 0.7653 -0.0560
vn -0.6950 0.6620 0.2806
vn -0.3157 0.9164 0.2459
vn -0.1914 0.9623 -0.1933
vn -0.3827 0.9239 -0.0005
vn 0.0006 0.9239 0.3826
vn 0.1933 0.9619 0.1932
vn 0.1914 0.9623 0.1933
vn 0.3826 0.9239 0.0005
vn 0.0006 1.0000 -0.0018
vn 0.0015 0.9238 -0.3828
vn 0.1950 0.9623 -0.1896
vn 0.2057 0.9459 -0.2511
vn 0.2343 0.7397 -0.6308
vn -0.1450 0.8022 -0.5792
vn 0.5793 0.8021 0.1449
vn 0.6308 0.7397 -0.2343
vn 0.2511 0.9459 -0.2057
vn 0.2511 0.2057 -0.9459
vn 0.6308 0.2343 -0.7397
vn 0.5792 -0.1450 -0.8021
vn -0.1450 0.5793 -0.8021
vn 0.2343 0.6308 -0.7397
vn 0.2057 0.2511 -0.9459
vn -0.1933 0.1914 -0.9623
vn -0.0005 0.3826 -0.9239
vn 0.1913 -0.1952 -0.9619
vn 0.3826 -0.0018 -0.9239
vn 0.0035 -0.0023 -1.0000
vn 0.3057 0.0372 -0.9514
vn 0.3580 -0.3580 -0.8624
vn -0.0372 -0.3057 -0.9514
vn 0.1933 -0.1914 -0.9623
vn 0.0005 -0.3826 -0.9239
vn 0.2459 -0.3158 -0.9164
vn 0.3030 -0.6784 -0.6693
vn -0.0560 -0.6412 -0.7653
vn 0.1947 -0.5450 -0.8155
vn 0.0017 -0.3827 -0.9239
vn 0.0003 -0.7071 -0.7071
vn -0.0560 -0.7653 -0.6412
vn 0.3030 -0.6693 -0.6784
vn 0.2458 -0.9164 -0.3158
vn 0.1950 -0.8155 -0.5449
vn 0.0015 -0.7071 -0.7071
vn 0.0005 -0.9239 -0.3827
vn -0.0372 -0.9514 -0.3057
vn 0.3580 -0.8624 -0.3579
vn 0.3057 -0.9514 0.0372
vn -0.0006 -1.0000 -0.0018
vn -0.0017 -0.9239 -0.3826
vn -0.1950 -0.9623 -0.1896
vn 0.3157 -0.9164 -0.2459
vn 0.6784 -0.6693 -0.3031
vn 0.6412 -0.7653 0.0560
vn 0.3971 -0.8623 -0.3142
vn 0.2728 -0.6683 -0.6921
vn 0.6088 -0.5976 -0.5218
vn 0.7653 -0.6412 0.0560
vn 0.6693 -0.6784 -0.3030
vn 0.9164 -0.3158 -0.2458
vn 0.8623 -0.3142 -0.3971
vn 0.6683 -0.6920 -0.2728
vn 0.5976 -0.5218 -0.6088
vn 0.9514 -0.3057 0.0372
vn 0.8624 -0.3580 -0.3580
vn 0.9514 0.0372 -0.3057
vn 0.9164 -0.2459 -0.3158
vn 0.6692 -0.3031 -0.6784
vn 0.7653 0.0560 -0.6412
vn 0.6412 0.0560 -0.7653
vn 0.6784 -0.3031 -0.6692
vn 0.3158 -0.2459 -0.9164
vn 0.3142 -0.3972 -0.8623
vn 0.6920 -0.2729 -0.6683
vn 0.5218 -0.6088 -0.5976
vn 0.5449 -0.1950 -0.8155
vn 0.7071 -0.0015 -0.7071
vn 0.3827 -0.0005 -0.9239
vn 0.8155 -0.1949 -0.5449
vn 0.9239 -0.0018 -0.3827
vn 0.7071 -0.0003 -0.7071
vn 0.8021 -0.1450 -0.5793
vn 0.7397 0.2343 -0.6308
vn 0.9459 0.2057 -0.2511
vn 0.9623 -0.1933 -0.1914
vn 0.9239 -0.0005 -0.3827
vn 0.9619 0.1913 0.1952
vn 0.9239 0.3826 0.0018
vn 1.0000 0.0035 0.0023
vn 0.9619 -0.1950 0.1914
vn 1.0000 -0.0006 0.0018
vn 0.9619 -0.1913 -0.1954
vn 0.9239 -0.3827 -0.0017
vn 1.0000 -0.0035 -0.0023
vn 0.9164 -0.3158 0.2459
vn 0.6620 -0.6950 0.2806
vn 0.7653 -0.6412 -0.0560
vn 0.7653 0.0560 0.6412
vn 0.6620 -0.2806 0.6950
vn 0.9165 -0.2459 0.3157
vn 0.3971 -0.3142 0.8623
vn 0.2728 -0.6921 0.6683
vn 0.6088 -0.5218 0.5976
vn 0.3142 -0.8623 0.3971
vn 0.6844 -0.6848 0.2501
vn 0.5218 -0.5976 0.6088
vn -0.0560 -0.6412 0.7653
vn 0.3030 -0.6784 0.6693
vn 0.2459 -0.3158 0.9164
vn 0.2459 -0.9164 0.3157
vn 0.3030 -0.6692 0.6784
vn -0.0559 -0.7653 0.6412
vn 0.3058 -0.9514 -0.0372
vn 0.3579 -0.8624 0.3580
vn -0.0372 -0.9514 0.3057
vn 0.6412 -0.7653 -0.0560
vn 0.6713 -0.6860 0.2807
vn 0.3157 -0.9164 0.2459
vn 0.1914 -0.9623 -0.1933
vn 0.3827 -0.9239 -0.0005
vn 0.5449 -0.8155 -0.1951
vn 0.3827 -0.9239 -0.0018
vn 0.7071 -0.7071 -0.0003
vn 0.8155 -0.5449 -0.1950
vn 0.7071 -0.7071 -0.0015
vn 0.9239 -0.3827 -0.0005
vn 0.1933 -0.9623 0.1914
vn 0.0018 -1.0000 0.0018
vn 0.0005 -0.9239 0.3827
vn 0.0010 -1.0000 -0.0023
vn -0.0023 -1.0000 0.0010
vn 0.1951 -0.8155 0.5449
vn 0.0018 -0.9239 0.3827
vn 0.0003 -0.7071 0.7071
vn 0.1950 -0.5449 0.8155
vn 0.0015 -0.7071 0.7071
vn -0.0372 -0.3058 0.9514
vn 0.3580 -0.3580 0.8624
vn 0.3057 0.0372 0.9514
vn -0.0006 -0.0018 1.0000
vn -0.0017 -0.3826 0.9239
vn -0.1950 -0.1896 0.9623
vn 0.1914 -0.1933 0.9623
vn 0.3826 -0.0005 0.9239
vn -0.0023 -0.0010 1.0000
vn 0.0010 0.0023 1.0000
vn 0.3057 -0.0372 0.9514
vn 0.3579 0.3580 0.8624
vn -0.0372 0.3057 0.9514
vn -0.1950 0.1913 0.9619
vn -0.0018 0.3826 0.9239
vn -0.0006 0.0018 1.0000
vn 0.2459 0.3158 0.9164
vn 0.3030 0.6785 0.6692
vn -0.0560 0.6413 0.7653
vn -0.1950 0.5449 0.8155
vn -0.0015 0.7071 0.7071
vn -0.0005 0.3827 0.9239
vn 0.0560 0.6412 0.7653
vn -0.2807 0.6713 0.6860
vn -0.2459 0.3158 0.9164
vn -0.1951 0.8155 0.5449
vn -0.0013 0.9237 0.3831
vn -0.0003 0.7071 0.7071
vn -0.0559 0.7653 0.6412
vn 0.3031 0.6693 0.6784
vn 0.2459 0.9164 0.3158
vn -0.0372 0.9514 0.3057
vn 0.3580 0.8624 0.3580
vn 0.3057 0.9514 -0.0372
vn 0.3158 0.9164 0.2459
vn 0.6784 0.6693 0.3030
vn 0.6412 0.7653 -0.0560
vn 0.3971 0.8623 0.3142
vn 0.2728 0.6683 0.6920
vn 0.6088 0.5976 0.5218
vn 0.7653 0.6412 -0.0560
vn 0.6692 0.6784 0.3031
vn 0.9164 0.3158 0.2459
vn 0.8623 0.3142 0.3972
vn 0.6683 0.6920 0.2729
vn 0.5976 0.5218 0.6088
vn 0.3142 0.3971 0.8623
vn 0.6921 0.2728 0.6683
vn 0.5218 0.6088 0.5976
vn 0.9164 0.2459 0.3158
vn 0.6693 0.3030 0.6784
vn 0.7653 -0.0560 0.6412
vn 0.6413 -0.0559 0.7653
vn 0.6784 0.3031 0.6692
vn 0.3158 0.2459 0.9164
vn 0.8155 -0.1951 0.5449
vn 0.7071 -0.0015 0.7071
vn 0.9237 -0.0001 0.3831
vn 0.5449 -0.1951 0.8155
vn 0.3827 -0.0018 0.9239
vn 0.7071 -0.0003 0.7071
vn 0.3157 -0.2459 0.9164
vn 0.6713 -0.2807 0.6860
vn 0.6412 0.0559 0.7653
vn 0.9514 0.3057 -0.0372
vn 0.8624 0.3580 0.3580
vn 0.9514 -0.0372 0.3057
vn 0.8155 0.5449 0.1950
vn 0.7071 0.7071 0.0015
vn 0.9239 0.3827 0.0005
vn 0.5449 0.8155 0.1949
vn 0.3827 0.9239 0.0018
vn 0.7071 0.7071 0.0003
vn 0.9459 0.2511 -0.2057
vn 0.7397 0.6308 -0.2343
vn 0.8022 0.5792 0.1450
vn -0.3057 -0.0372 -0.9514
vn -0.3579 0.3580 -0.8624
vn 0.0372 0.3057 -0.9514
vn -0.2459 0.3158 -0.9164
vn -0.3030 0.6784 -0.6693
vn 0.0560 0.6412 -0.7653
vn -0.1949 0.5449 -0.8155
vn -0.0018 0.3827 -0.9239
vn 0.0560 0.7653 -0.6412
vn -0.3030 0.6692 -0.6784
vn -0.2459 0.9164 -0.3157
vn 0.0003 0.9238 -0.3829
vn 0.1950 0.8165 -0.5434
vn 0.0372 0.9514 -0.3057
vn -0.3580 0.8624 -0.3579
vn -0.3056 0.9514 0.0372
vn -0.3158 0.9164 -0.2459
vn -0.6784 0.6692 -0.3030
vn -0.6412 0.7653 0.0560
vn -0.3971 0.8623 -0.3142
vn -0.2728 0.6683 -0.6921
vn -0.6088 0.5976 -0.5218
vn -0.7653 0.6412 0.0559
vn -0.6693 0.6784 -0.3031
vn -0.9164 0.3157 -0.2459
vn -0.8623 0.3142 -0.3971
vn -0.6683 0.6920 -0.2728
vn -0.5976 0.5218 -0.6087
vn -0.3142 0.3971 -0.8623
vn -0.6921 0.2728 -0.6683
vn -0.5218 0.6088 -0.5976
vn -0.5450 0.8156 -0.1947
vn -0.3827 0.9239 -0.0017
vn -0.7071 0.7071 -0.0003
vn -0.8155 0.5449 -0.1950
vn -0.7071 0.7071 -0.0015
vn -0.9239 0.3827 -0.0005
vn -0.9164 0.3157 0.2459
vn -0.6860 0.6713 0.2807
vn -0.7653 0.6412 -0.0560
vn -0.9514 -0.0371 0.3058
vn -0.8624 0.3580 0.3580
vn -0.9514 0.3057 -0.0372
vn -0.9164 -0.2459 0.3158
vn -0.6692 -0.3030 0.6784
vn -0.7653 0.0560 0.6412
vt 0.011655 0.030478
vt 0.013651 0.026626
vt 0.013683 0.030539
vt 0.011682 0.461197
vt 0.236856 0.030469
vt 0.236926 0.026545
vt 0.013721 0.461061
vt 0.236889 0.460970
vt 0.013719 0.464933
vt 0.236981 0.464639
vt 0.238794 0.461139
vt 0.238861 0.030466
vt 0.238868 0.464778
vt 0.237174 0.468285
vt 0.239474 0.470520
vt 0.237471 0.472075
vt 0.013667 0.468813
vt 0.011640 0.465312
vt 0.011406 0.472040
vt 0.013599 0.472769
vt 0.013528 0.476797
vt 0.237826 0.476157
vt 0.488150 0.467956
vt 0.490423 0.471193
vt 0.488220 0.471931
vt 0.488292 0.475978
vt 0.010331 0.468336
vt 0.011662 0.468602
vt 0.490163 0.467740
vt 0.491498 0.467468
vt 0.009891 0.465710
vt 0.490182 0.464439
vt 0.009590 0.461457
vt 0.492230 0.460573
vt 0.490138 0.460316
vt 0.488099 0.464062
vt 0.488099 0.460177
vt 0.488091 0.028913
vt 0.492195 0.028669
vt 0.490125 0.028851
vt 0.488122 0.024984
vt 0.490236 0.024773
vt 0.009590 0.030297
vt 0.011545 0.026415
vt 0.010152 0.023729
vt 0.011444 0.023112
vt 0.491635 0.022079
vt 0.491954 0.024582
vt 0.988873 0.976071
vt 0.990271 0.978768
vt 0.988974 0.979387
vt 0.986854 0.979857
vt 0.986759 0.975860
vt 0.488217 0.020984
vt 0.988763 0.971992
vt 0.986727 0.971932
vt 0.990835 0.972175
vt 0.988740 0.539622
vt 0.986697 0.539759
vt 0.990835 0.539365
vt 0.986700 0.535870
vt 0.988785 0.535495
vt 0.237059 0.022521
vt 0.239056 0.026462
vt 0.013556 0.022643
vt 0.240620 0.023936
vt 0.240759 0.026500
vt 0.990103 0.532466
vt 0.990540 0.535103
vt 0.242540 0.026003
vt 0.989029 0.528739
vt 0.988768 0.532192
vt 0.986901 0.523947
vt 0.986827 0.527996
vt 0.986754 0.531972
vt 0.240870 0.030366
vt 0.242921 0.030231
vt 0.245008 0.030093
vt 0.242654 0.462078
vt 0.762100 0.528700
vt 0.515306 0.470700
vt 0.515306 0.257842
vt 0.625647 0.470700
vt 0.625647 0.257842
vt 0.736500 0.257635
vt 0.625647 0.256041
vt 0.736326 0.255615
vt 0.737303 0.254941
vt 0.737741 0.256952
vt 0.625647 0.255885
vt 0.738820 0.255478
vt 0.736186 0.253740
vt 0.737620 0.253163
vt 0.738061 0.254015
vt 0.737041 0.253435
vt 0.738542 0.252552
vt 0.737761 0.252046
vt 0.736990 0.251948
vt 0.739938 0.251002
vt 0.738891 0.250667
vt 0.737919 0.250396
vt 0.739584 0.253396
vt 0.515306 0.250015
vt 0.625647 0.251971
vt 0.515306 0.251971
vt 0.740132 0.037158
vt 0.625647 0.250015
vt 0.625647 0.037156
vt 0.515306 0.037156
vt 0.261128 0.473955
vt 0.263982 0.471284
vt 0.263627 0.475370
vt 0.261978 0.469727
vt 0.264278 0.467491
vt 0.262584 0.463984
vt 0.264471 0.463843
vt 0.262657 0.460345
vt 0.264560 0.460172
vt 0.260766 0.460716
vt 0.261373 0.466319
vt 0.261104 0.464201
vt 0.259607 0.465153
vt 0.258800 0.461287
vt 0.260538 0.467930
vt 0.257415 0.466792
vt 0.256682 0.461972
vt 0.258943 0.471008
vt 0.262472 0.466838
vt 0.739112 0.037157
vt 0.736984 0.250208
vt 0.738091 0.037156
vt 0.736045 0.250124
vt 0.737071 0.037156
vt 0.736088 0.251937
vt 0.625647 0.250135
vt 0.736050 0.037156
vt 0.756907 0.538720
vt 0.754512 0.972358
vt 0.754784 0.538033
vt 0.756608 0.972221
vt 0.756988 0.976465
vt 0.256376 0.028573
vt 0.258847 0.024475
vt 0.258467 0.028710
vt 0.260520 0.028844
vt 0.758666 0.972087
vt 0.260770 0.022402
vt 0.260631 0.024972
vt 0.758776 0.975968
vt 0.758914 0.978544
vt 0.760486 0.976010
vt 0.262338 0.024932
vt 0.262133 0.021557
vt 0.762488 0.979975
vt 0.762625 0.975931
vt 0.264337 0.020984
vt 0.264470 0.025014
vt 0.262533 0.028943
vt 0.264542 0.028945
vt 0.760684 0.971988
vt 0.762698 0.971987
vt 0.762680 0.539835
vt 0.760773 0.539663
vt 0.762590 0.536157
vt 0.760699 0.536016
vt 0.762397 0.532501
vt 0.760091 0.530261
vt 0.759239 0.526024
vt 0.761743 0.524604
vt 0.757049 0.528977
vt 0.759486 0.533676
vt 0.758649 0.532062
vt 0.757716 0.534845
vt 0.755519 0.533203
vt 0.759216 0.535799
vt 0.760586 0.533155
vt 0.758877 0.539292
vt 0.625647 0.252104
vt 0.625647 0.254072
vt 0.240323 0.474747
vt 0.242509 0.471804
vt 0.625647 0.253928
vt 0.515306 0.253928
vt 0.241846 0.465947
vt 0.244039 0.467588
vt 0.515306 0.255885
vt 0.244775 0.462764
vt 0.240686 0.461508
vt 0.240079 0.467113
vt 0.240348 0.464994
vt 0.238981 0.467632
vt 0.240914 0.468724
vt 0.491935 0.464832
vt 0.009832 0.026222
vt 0.490338 0.021457
vt 0.990592 0.976265
vt 0.239260 0.023093
vt 0.625648 0.258009
vt 0.760279 0.979393
s 0
usemtl multitexture
f 2/1/1 3/2/2 1/3/3
f 1/3/4 7/4/5 2/1/6
f 4/5/7 3/2/8 49/6/9
f 5/7/10 4/5/11 8/8/12
f 6/9/13 7/4/14 5/7/15
f 10/10/16 5/7/17 8/8/12
f 9/11/18 10/10/19 8/8/20
f 152/12/21 8/8/22 4/5/23
f 11/13/24 12/14/25 10/10/26
f 12/14/27 6/9/28 10/10/29
f 12/14/30 141/15/31 13/16/32
f 13/16/33 15/17/34 12/14/35
f 15/17/36 25/18/37 6/9/38
f 19/19/39 15/17/40 17/20/41
f 18/21/42 19/19/43 17/20/44
f 74/22/45 17/20/46 13/16/47
f 82/23/48 19/24/49 20/25/50
f 20/25/51 19/24/52 18/26/42
f 19/19/53 22/27/54 16/28/55
f 21/29/56 22/30/57 19/24/53
f 25/18/58 22/27/59 23/31/60
f 26/32/61 22/30/62 21/29/63
f 25/18/64 24/33/65 7/4/66
f 24/34/67 26/32/68 28/35/69
f 28/35/70 27/36/71 29/37/72
f 26/32/73 82/23/74 27/36/75
f 31/38/76 28/35/77 29/37/78
f 33/39/79 28/35/80 30/40/81
f 115/41/82 30/40/83 31/38/84
f 32/42/85 33/39/86 30/40/87
f 33/43/88 35/44/89 2/1/90
f 2/1/91 24/33/92 33/43/93
f 35/44/94 36/45/95 37/46/96
f 32/42/97 36/47/98 34/48/99
f 40/49/100 36/50/101 38/51/102
f 40/49/103 39/52/104 41/53/105
f 39/54/106 32/42/107 115/41/108
f 42/55/109 41/53/110 43/56/111
f 44/57/112 40/49/113 42/55/114
f 45/58/115 43/56/116 46/59/117
f 48/60/118 42/55/119 45/58/120
f 124/61/121 45/58/122 46/59/123
f 47/62/124 48/60/125 45/58/126
f 48/63/127 51/64/128 49/6/129
f 49/6/130 44/65/131 48/63/132
f 51/64/133 52/66/134 53/67/135
f 47/62/136 52/68/137 50/69/138
f 53/67/139 52/66/140 55/70/141
f 55/71/141 52/68/140 54/72/142
f 58/73/143 55/71/144 56/74/145
f 55/71/146 125/75/147 56/74/148
f 151/76/149 55/70/150 57/77/151
f 57/77/152 55/70/153 58/78/143
f 58/78/154 147/79/155 57/77/156
f 127/80/157 58/73/158 56/74/145
f 59/81/159 61/82/160 58/83/143
f 58/83/143 61/82/160 60/84/161
f 61/85/162 129/86/163 62/87/164
f 62/87/165 64/88/166 61/85/160
f 61/85/160 64/88/166 63/89/167
f 61/82/168 144/90/169 60/84/161
f 64/88/170 145/91/171 63/89/172
f 139/92/173 64/88/174 62/87/175
f 64/88/176 67/93/177 65/94/178
f 66/95/179 67/93/180 64/88/181
f 70/96/182 67/93/183 68/97/184
f 68/97/185 67/93/177 69/98/186
f 65/94/187 67/93/188 70/96/189
f 69/98/190 67/93/191 66/95/179
f 73/99/192 70/96/193 71/100/194
f 70/96/195 94/101/196 71/100/197
f 145/91/198 70/96/199 72/102/200
f 72/102/201 70/96/193 73/99/192
f 73/103/202 140/104/203 72/105/204
f 71/100/205 75/106/206 73/99/192
f 74/107/207 73/103/192 18/108/42
f 18/108/42 73/103/192 75/109/208
f 76/110/209 77/111/210 75/112/211
f 18/26/212 77/111/213 20/25/51
f 78/113/214 79/114/215 77/111/216
f 20/25/217 79/114/218 82/23/219
f 79/114/220 84/115/221 81/116/222
f 82/23/223 81/116/224 27/36/225
f 81/116/226 85/117/227 83/118/228
f 29/37/229 81/116/230 83/118/231
f 84/115/232 87/119/233 85/117/234
f 84/115/235 88/120/236 86/121/237
f 87/119/238 89/122/239 91/123/240
f 89/122/241 88/120/242 92/124/243
f 91/123/244 90/125/245 99/126/246
f 89/122/247 93/127/248 90/125/249
f 93/127/250 78/113/251 76/110/252
f 78/113/253 88/120/254 80/128/255
f 94/101/256 76/129/257 71/100/258
f 95/130/259 93/131/260 94/101/261
f 94/101/262 69/98/263 95/130/264
f 96/132/265 90/133/266 95/130/267
f 95/130/268 69/98/186 96/132/269
f 96/132/269 69/98/186 97/134/270
f 97/134/271 98/135/272 96/132/269
f 100/108/273 96/132/269 98/135/274
f 99/136/275 96/132/269 100/108/273
f 136/137/276 100/138/277 98/139/274
f 101/140/278 103/141/279 100/138/273
f 100/142/273 103/143/280 102/144/281
f 102/144/282 99/126/283 100/142/273
f 103/143/284 114/145/285 102/144/286
f 137/146/287 103/141/288 101/140/289
f 103/143/290 106/147/291 104/148/292
f 105/149/293 106/150/294 103/141/290
f 108/151/295 106/150/296 105/149/297
f 110/152/298 106/147/299 107/153/300
f 109/154/301 108/151/302 116/155/303
f 110/152/304 109/156/305 111/157/306
f 112/158/307 111/157/308 113/159/309
f 114/145/310 110/152/311 112/158/312
f 113/159/313 85/117/314 112/158/315
f 112/158/316 87/119/317 114/145/318
f 114/145/319 91/123/320 102/144/321
f 31/38/322 111/157/323 115/41/324
f 83/118/325 31/38/326 29/37/78
f 115/41/327 109/156/328 39/54/329
f 39/52/330 116/155/331 41/53/332
f 116/155/333 118/160/334 117/161/335
f 43/56/336 116/155/337 117/161/338
f 119/162/339 118/160/340 120/163/341
f 43/56/342 119/162/343 46/59/117
f 120/163/344 121/164/345 119/162/346
f 121/164/347 46/59/348 119/162/349
f 122/165/350 123/166/351 121/164/352
f 123/166/353 124/61/354 121/164/355
f 125/75/356 47/62/357 124/61/358
f 127/80/359 125/75/360 123/166/361
f 123/166/362 128/167/363 127/80/364
f 127/80/365 129/168/366 59/169/367
f 128/167/368 132/170/369 129/168/370
f 128/167/371 133/171/372 130/172/373
f 132/170/374 131/173/375 138/174/376
f 131/173/377 133/171/378 134/175/379
f 122/165/380 133/171/381 126/176/382
f 131/173/383 135/177/384 136/137/385
f 135/177/386 122/165/387 120/163/388
f 135/177/389 101/140/390 136/137/391
f 120/163/392 137/146/393 135/177/394
f 108/151/395 137/146/396 118/160/397
f 138/174/398 136/137/399 98/139/400
f 139/92/401 138/178/402 97/134/403
f 62/87/404 132/179/405 139/92/406
f 69/98/407 139/92/408 97/134/409
f 13/16/410 140/180/411 74/22/412
f 141/15/413 142/181/414 140/180/415
f 72/105/416 142/182/417 145/183/418
f 142/181/419 146/184/420 144/185/421
f 63/186/422 142/182/423 144/90/424
f 144/185/425 147/79/426 60/187/427
f 146/184/428 149/188/429 147/79/430
f 146/184/431 150/189/432 148/190/433
f 149/188/434 11/13/435 9/11/436
f 11/13/437 150/189/438 14/191/439
f 141/15/440 150/189/441 143/192/442
f 57/77/443 149/188/444 151/76/445
f 151/76/446 9/11/447 152/12/448
f 51/64/449 151/76/450 152/12/451
f 49/6/452 152/12/453 4/5/454
f 35/44/455 44/65/456 3/2/457
f 2/1/458 35/44/459 3/2/460
f 1/3/461 5/7/462 7/4/463
f 4/5/464 1/3/465 3/2/466
f 5/7/467 1/3/465 4/5/468
f 6/9/469 25/18/470 7/4/471
f 10/10/472 6/9/473 5/7/474
f 9/11/475 11/13/476 10/10/477
f 152/12/478 9/11/479 8/8/480
f 11/13/481 14/191/482 12/14/483
f 12/14/484 15/17/485 6/9/486
f 12/14/487 14/191/488 141/15/489
f 13/16/490 17/20/491 15/17/492
f 15/17/493 16/28/494 25/18/495
f 19/19/496 16/28/497 15/17/498
f 74/22/499 18/21/42 17/20/500
f 82/23/501 21/29/502 19/24/503
f 25/18/504 16/28/505 22/27/506
f 26/32/507 23/193/508 22/30/509
f 25/18/510 23/31/511 24/33/512
f 24/34/513 23/193/514 26/32/515
f 28/35/516 26/32/517 27/36/518
f 26/32/519 21/29/520 82/23/521
f 31/38/522 30/40/523 28/35/524
f 33/39/525 24/34/526 28/35/527
f 115/41/528 32/42/529 30/40/530
f 32/42/531 34/48/532 33/39/533
f 33/43/534 34/194/535 35/44/536
f 2/1/537 7/4/538 24/33/539
f 35/44/540 34/194/541 36/45/542
f 32/42/543 38/195/544 36/47/545
f 40/49/546 37/196/547 36/50/548
f 40/49/549 38/51/550 39/52/551
f 39/54/552 38/195/553 32/42/554
f 42/55/555 40/49/556 41/53/557
f 44/57/558 37/196/559 40/49/560
f 45/58/561 42/55/562 43/56/563
f 48/60/564 44/57/565 42/55/566
f 124/61/567 47/62/568 45/58/569
f 47/62/570 50/69/571 48/60/572
f 48/63/573 50/197/574 51/64/575
f 49/6/576 3/2/577 44/65/578
f 51/64/579 50/197/580 52/66/581
f 47/62/582 54/72/583 52/68/584
f 55/71/585 54/72/586 125/75/587
f 151/76/588 53/67/589 55/70/590
f 58/78/591 60/187/161 147/79/592
f 127/80/593 59/169/159 58/73/594
f 61/85/595 59/198/159 129/86/596
f 61/82/597 63/186/598 144/90/599
f 64/88/600 65/94/601 145/91/602
f 139/92/603 66/95/604 64/88/605
f 70/96/606 68/97/607 94/101/608
f 145/91/609 65/94/610 70/96/611
f 73/103/612 74/107/207 140/104/613
f 71/100/614 76/129/615 75/106/616
f 76/110/617 78/113/618 77/111/619
f 18/26/620 75/112/208 77/111/621
f 78/113/622 80/128/623 79/114/624
f 20/25/625 77/111/626 79/114/627
f 79/114/628 80/128/629 84/115/630
f 82/23/631 79/114/632 81/116/633
f 81/116/634 84/115/635 85/117/636
f 29/37/637 27/36/638 81/116/639
f 84/115/640 86/121/641 87/119/642
f 84/115/643 80/128/644 88/120/645
f 87/119/646 86/121/647 89/122/648
f 89/122/649 86/121/650 88/120/651
f 91/123/652 89/122/653 90/125/654
f 89/122/655 92/124/656 93/127/657
f 93/127/658 92/124/659 78/113/660
f 78/113/661 92/124/662 88/120/663
f 94/101/664 93/131/665 76/129/666
f 95/130/667 90/133/668 93/131/669
f 94/101/670 68/97/671 69/98/672
f 96/132/673 99/136/275 90/133/674
f 97/134/675 138/178/676 98/135/677
f 136/137/678 101/140/278 100/138/679
f 102/144/680 91/123/681 99/126/682
f 103/143/683 104/148/684 114/145/685
f 137/146/686 105/149/687 103/141/688
f 108/151/689 107/199/690 106/150/691
f 110/152/692 104/148/693 106/147/694
f 109/154/695 107/199/696 108/151/697
f 110/152/698 107/153/699 109/156/700
f 112/158/701 110/152/702 111/157/703
f 114/145/704 104/148/705 110/152/706
f 113/159/707 83/118/231 85/117/708
f 112/158/709 85/117/710 87/119/711
f 114/145/712 87/119/713 91/123/714
f 31/38/715 113/159/716 111/157/717
f 83/118/718 113/159/716 31/38/719
f 115/41/720 111/157/721 109/156/722
f 39/52/723 109/154/724 116/155/337
f 116/155/725 108/151/726 118/160/727
f 43/56/728 41/53/729 116/155/730
f 119/162/731 117/161/338 118/160/732
f 43/56/733 117/161/338 119/162/734
f 120/163/735 122/165/736 121/164/737
f 121/164/738 124/61/739 46/59/740
f 122/165/741 126/176/742 123/166/743
f 123/166/744 125/75/745 124/61/746
f 125/75/747 54/72/748 47/62/749
f 127/80/750 56/74/751 125/75/752
f 123/166/753 126/176/754 128/167/755
f 127/80/756 128/167/757 129/168/758
f 128/167/759 130/172/760 132/170/761
f 128/167/762 126/176/763 133/171/764
f 132/170/765 130/172/766 131/173/767
f 131/173/768 130/172/769 133/171/770
f 122/165/771 134/175/772 133/171/773
f 131/173/774 134/175/775 135/177/776
f 135/177/777 134/175/778 122/165/779
f 135/177/780 137/146/781 101/140/782
f 120/163/783 118/160/784 137/146/785
f 108/151/786 105/149/787 137/146/788
f 138/174/789 131/173/790 136/137/791
f 139/92/792 132/179/793 138/178/794
f 62/87/795 129/86/796 132/179/797
f 69/98/798 66/95/799 139/92/800
f 13/16/801 141/15/802 140/180/803
f 141/15/804 143/192/805 142/181/806
f 72/105/807 140/104/808 142/182/423
f 142/181/809 143/192/810 146/184/811
f 63/186/812 145/183/418 142/182/813
f 144/185/814 146/184/815 147/79/816
f 146/184/817 148/190/818 149/188/819
f 146/184/820 143/192/821 150/189/822
f 149/188/823 148/190/824 11/13/825
f 11/13/826 148/190/827 150/189/828
f 141/15/829 14/191/830 150/189/831
f 57/77/832 147/79/833 149/188/834
f 151/76/835 149/188/836 9/11/837
f 51/64/838 53/67/839 151/76/840
f 49/6/841 51/64/842 152/12/843
f 35/44/844 37/46/845 44/65/846
