# Blender 5.0.1
# www.blender.org

mtllib DR.mtl
o edge_DR
v 0.137076 -0.137231 0.100163
v 0.295334 -0.137231 0.100163
v 0.295334 -0.295489 0.100163
v 0.137076 -0.295489 0.100163
v 0.125858 -0.126013 0.097932
v 0.122702 -0.127874 0.097304
v 0.127719 -0.122857 0.097304
v 0.123084 -0.125954 0.097304
v 0.124171 -0.124326 0.097304
v 0.125799 -0.123238 0.097304
v 0.113592 -0.111050 0.089162
v 0.115499 -0.110671 0.089162
v 0.105413 -0.102903 0.076976
v 0.111976 -0.112130 0.089162
v 0.103816 -0.103970 0.076976
v 0.110896 -0.113747 0.089162
v 0.102749 -0.105568 0.076976
v 0.110516 -0.115654 0.089162
v 0.102374 -0.107452 0.076976
v 0.110516 -0.295489 0.089162
v 0.102374 -0.295489 0.076976
v 0.110764 -0.297214 0.088914
v 0.122702 -0.295489 0.097304
v 0.122836 -0.297214 0.096981
v 0.123217 -0.298676 0.096060
v 0.137110 -0.297214 0.099820
v 0.137206 -0.298676 0.098843
v 0.295334 -0.297214 0.099820
v 0.297102 -0.297257 0.099406
v 0.295334 -0.298676 0.098843
v 0.295334 -0.299653 0.097381
v 0.297012 -0.298447 0.098614
v 0.297102 -0.299239 0.097424
v 0.297936 -0.298091 0.098258
v 0.298292 -0.298447 0.097334
v 0.298292 -0.297167 0.098614
v 0.298521 -0.295489 0.098843
v 0.299084 -0.297257 0.097424
v 0.299498 -0.297214 0.095656
v 0.299498 -0.295489 0.097381
v 0.299841 -0.295489 0.095656
v 0.299498 -0.137505 0.097381
v 0.298521 -0.137361 0.098843
v 0.299841 -0.137675 0.095656
v 0.299498 -0.123942 0.094683
v 0.298521 -0.123372 0.096061
v 0.299841 -0.124615 0.093058
v 0.299498 -0.112677 0.087156
v 0.298521 -0.111623 0.088210
v 0.299841 -0.113920 0.085912
v 0.299498 -0.105150 0.075890
v 0.298521 -0.103772 0.076461
v 0.299841 -0.106774 0.075217
v 0.299498 -0.102452 0.062328
v 0.298521 -0.100990 0.062472
v 0.299841 -0.104177 0.062158
v 0.299498 -0.102452 -0.062328
v 0.298521 -0.100989 -0.062472
v 0.299841 -0.104177 -0.062158
v 0.299498 -0.105149 -0.075891
v 0.298521 -0.103772 -0.076461
v 0.299498 -0.112677 -0.087156
v 0.299841 -0.106774 -0.075217
v 0.299841 -0.113920 -0.085912
v 0.299841 -0.124615 -0.093058
v 0.299498 -0.123942 -0.094683
v 0.299841 -0.137674 -0.095656
v 0.299498 -0.137505 -0.097381
v 0.299841 -0.295489 -0.095656
v 0.299498 -0.295489 -0.097381
v 0.299498 -0.297213 -0.095656
v 0.299084 -0.297257 -0.097424
v 0.298521 -0.298676 -0.095656
v 0.297059 -0.299653 -0.095656
v 0.298292 -0.298446 -0.097335
v 0.298521 -0.298676 0.095656
v 0.297059 -0.299653 0.095656
v 0.295334 -0.299996 0.095656
v 0.137520 -0.299996 0.095656
v 0.295334 -0.299996 -0.095656
v 0.295334 -0.299653 -0.097381
v 0.137520 -0.299996 -0.095656
v 0.137350 -0.299653 -0.097381
v 0.124461 -0.299996 -0.093058
v 0.123788 -0.299653 -0.094683
v 0.113766 -0.299996 -0.085912
v 0.112522 -0.299653 -0.087156
v 0.106620 -0.299996 -0.075218
v 0.104995 -0.299653 -0.075891
v 0.104022 -0.299996 -0.062158
v 0.102297 -0.299653 -0.062328
v 0.104022 -0.299996 0.062158
v 0.102297 -0.299653 0.062328
v 0.106620 -0.299996 0.075217
v 0.104995 -0.299653 0.075890
v 0.113766 -0.299996 0.085912
v 0.112522 -0.299653 0.087156
v 0.124461 -0.299996 0.093058
v 0.123788 -0.299653 0.094683
v 0.137350 -0.299653 0.097381
v 0.111468 -0.298676 0.088210
v 0.103618 -0.298676 0.076461
v 0.102697 -0.297214 0.076842
v 0.100835 -0.298676 0.062472
v 0.099858 -0.297214 0.062568
v 0.100835 -0.298676 -0.062472
v 0.099858 -0.297213 -0.062568
v 0.103617 -0.298676 -0.076461
v 0.102697 -0.297213 -0.076842
v 0.111468 -0.298676 -0.088210
v 0.110763 -0.297213 -0.088915
v 0.123217 -0.298676 -0.096061
v 0.122836 -0.297213 -0.096981
v 0.137206 -0.298676 -0.098843
v 0.137110 -0.297213 -0.099820
v 0.295334 -0.298676 -0.098843
v 0.297012 -0.298446 -0.098614
v 0.295334 -0.297213 -0.099820
v 0.295334 -0.295489 -0.100163
v 0.297102 -0.297257 -0.099406
v 0.297059 -0.295489 -0.099820
v 0.298292 -0.297167 -0.098614
v 0.297936 -0.298091 -0.098258
v 0.298521 -0.295489 -0.098843
v 0.298521 -0.137361 -0.098843
v 0.297059 -0.137264 -0.099820
v 0.298521 -0.123372 -0.096061
v 0.297059 -0.122990 -0.096981
v 0.298521 -0.111622 -0.088210
v 0.297059 -0.110918 -0.088915
v 0.295334 -0.110671 -0.089162
v 0.297059 -0.102852 -0.076842
v 0.295334 -0.102528 -0.076976
v 0.297059 -0.100012 -0.062568
v 0.295334 -0.099669 -0.062602
v 0.297059 -0.100013 0.062568
v 0.295334 -0.099669 0.062602
v 0.297059 -0.102852 0.076842
v 0.295334 -0.102529 0.076976
v 0.297059 -0.110918 0.088914
v 0.295334 -0.110671 0.089162
v 0.297059 -0.122990 0.096981
v 0.295334 -0.122857 0.097304
v 0.297059 -0.137264 0.099820
v 0.297059 -0.295489 0.099820
v 0.107297 -0.102529 0.076976
v 0.104396 -0.099669 0.062602
v 0.102528 -0.100041 0.062602
v 0.104396 -0.099669 -0.062602
v 0.102528 -0.100041 -0.062602
v 0.107297 -0.102528 -0.076976
v 0.105413 -0.102903 -0.076976
v 0.115499 -0.110671 -0.089162
v 0.113592 -0.111050 -0.089162
v 0.127719 -0.122856 -0.097304
v 0.125799 -0.123238 -0.097304
v 0.125858 -0.126013 -0.097932
v 0.295334 -0.122856 -0.097304
v 0.295334 -0.137231 -0.100163
v 0.137076 -0.137230 -0.100163
v 0.137076 -0.295489 -0.100163
v 0.122702 -0.295489 -0.097304
v 0.110516 -0.295489 -0.089162
v 0.122702 -0.127873 -0.097304
v 0.123084 -0.125954 -0.097304
v 0.110516 -0.115654 -0.089162
v 0.110895 -0.113747 -0.089162
v 0.102374 -0.107451 -0.076976
v 0.102749 -0.105567 -0.076976
v 0.099515 -0.104550 -0.062602
v 0.102374 -0.295489 -0.076976
v 0.099515 -0.295489 -0.062602
v 0.099515 -0.295489 0.062602
v 0.099515 -0.104550 0.062602
v 0.099886 -0.102683 0.062602
v 0.100944 -0.101099 0.062602
v 0.099886 -0.102682 -0.062602
v 0.100944 -0.101099 -0.062602
v 0.103816 -0.103970 -0.076976
v 0.111976 -0.112130 -0.089162
v 0.124171 -0.124326 -0.097304
v 0.297102 -0.299239 -0.097424
vn 0.0948 0.3640 0.9266
vn -0.1264 0.1392 0.9822
vn -0.0062 0.0153 0.9999
vn 0.0039 0.0313 0.9995
vn -0.0158 0.0158 0.9997
vn 0.0021 -0.0021 1.0000
vn -0.0313 -0.0039 0.9995
vn -0.0165 0.0219 0.9996
vn -0.3714 0.0807 0.9250
vn -0.3628 -0.0970 0.9268
vn -0.3880 0.0007 0.9217
vn -0.0987 0.0986 0.9902
vn -0.4071 0.1686 0.8977
vn -0.1686 0.4071 0.8977
vn -0.0986 0.0987 0.9902
vn -0.0007 0.3880 0.9217
vn -0.0986 0.0986 0.9902
vn -0.2947 0.2947 0.9090
vn -0.4006 0.4719 0.7854
vn -0.2986 0.2978 0.9067
vn -0.1687 0.4071 0.8977
vn -0.2801 0.6494 0.7069
vn -0.1729 0.4105 0.8953
vn -0.0007 0.3881 0.9216
vn -0.2805 0.8936 0.3503
vn -0.2456 0.5618 0.7899
vn -0.0015 0.7103 0.7039
vn -0.5454 0.7126 0.4413
vn -0.4187 0.4048 0.8129
vn -0.2322 0.5605 0.7950
vn -0.8131 0.3217 0.4851
vn -0.5163 0.2332 0.8240
vn -0.6093 0.6092 0.5076
vn -0.5610 0.2217 0.7976
vn -0.2797 0.2486 0.9273
vn -0.4074 0.4073 0.8174
vn -0.9212 -0.0135 0.3889
vn -0.6237 -0.0298 0.7811
vn -0.8116 0.3361 0.4779
vn -0.7070 -0.0111 0.7072
vn -0.3868 0.0865 0.9181
vn -0.5605 0.2321 0.7950
vn -0.7394 0.1311 0.6604
vn -0.9249 0.0088 0.3802
vn -0.7111 -0.0019 0.7031
vn -0.4425 0.1432 0.8853
vn -0.7109 0.0097 0.7033
vn -0.3875 -0.0020 0.9219
vn -0.8430 -0.3980 0.3620
vn -0.6410 -0.1655 0.7495
vn -0.9250 -0.0019 0.3800
vn -0.6401 -0.3977 0.6573
vn -0.3050 -0.1660 0.9378
vn -0.7110 -0.0020 0.7032
vn -0.3395 -0.3979 0.8523
vn 0.0552 -0.1492 0.9873
vn -0.3874 -0.0020 0.9219
vn -0.6670 -0.5092 0.5439
vn -0.2771 -0.7189 0.6375
vn -0.3525 -0.3876 0.8518
vn -0.2536 -0.7188 0.6473
vn 0.0789 -0.5022 0.8611
vn -0.0137 -0.3831 0.9236
vn -0.1930 -0.1915 0.9623
vn -0.0313 -0.0040 0.9995
vn -0.0100 -0.7074 0.7067
vn -0.1947 -0.5450 0.8156
vn -0.0152 -0.3831 0.9236
vn 0.0016 -0.3831 0.9237
vn 0.3454 -0.3453 0.8726
vn 0.0022 -0.0022 1.0000
vn 0.0692 -0.7355 0.6740
vn 0.4022 -0.4009 0.8231
vn -0.0026 -0.3786 0.9256
vn -0.0046 -0.9239 0.3825
vn -0.1951 -0.8155 0.5449
vn -0.0114 -0.7074 0.7067
vn 0.4022 -0.8231 0.4009
vn 0.0692 -0.6739 0.7356
vn -0.0021 -0.9257 0.3782
vn 0.3972 -0.8623 0.3142
vn 0.6088 -0.5976 0.5218
vn 0.2501 -0.6848 0.6845
vn 0.2762 -0.6914 0.6676
vn 0.5773 -0.5774 0.5774
vn 0.3454 -0.3454 0.8726
vn 0.8623 -0.3142 0.3972
vn 0.5976 -0.5218 0.6088
vn 0.6683 -0.6920 0.2729
vn 0.5773 -0.5773 0.5774
vn 0.6914 -0.2762 0.6676
vn 0.6739 -0.0693 0.7356
vn 0.8231 -0.4022 0.4009
vn 0.9257 0.0021 0.3783
vn 0.4009 -0.4022 0.8231
vn 0.7355 -0.0692 0.6740
vn 0.3786 0.0026 0.9256
vn 0.8231 -0.4009 0.4022
vn 0.6739 -0.7356 0.0689
vn 0.9257 -0.3782 -0.0025
vn 0.9004 -0.0786 0.4279
vn 0.9004 -0.4280 0.0781
vn 0.9998 0.0141 -0.0144
vn 0.9624 0.1951 0.1892
vn 1.0000 -0.0014 0.0017
vn 0.9240 0.0060 0.3825
vn 0.8167 0.1951 0.5431
vn 0.9239 0.0046 0.3825
vn 0.7074 0.0114 0.7067
vn 0.7672 -0.0882 0.6353
vn 0.9276 0.1294 0.3504
vn 0.7119 0.2681 0.6491
vn 0.9360 -0.0910 0.3401
vn 0.9999 -0.0159 0.0041
vn 0.9250 0.1448 0.3513
vn 0.7706 0.1570 0.6177
vn 0.9274 0.2544 0.2742
vn 0.7115 0.4968 0.4969
vn 0.9363 0.0475 0.3480
vn 0.9999 -0.0134 0.0102
vn 0.9247 0.2691 0.2692
vn 0.7700 0.3823 0.5108
vn 0.9277 0.3396 0.1551
vn 0.7119 0.6491 0.2682
vn 0.9360 0.1781 0.3037
vn 0.9999 -0.0085 0.0145
vn 0.9250 0.3513 0.1448
vn 0.9276 0.3505 0.1294
vn 0.7660 0.6371 -0.0856
vn 0.7119 0.6491 0.2681
vn 0.9999 0.0041 -0.0159
vn 0.9358 0.3411 -0.0895
vn 0.9250 0.3514 0.1448
vn 0.8170 0.5426 -0.1950
vn 0.9239 0.3825 -0.0057
vn 0.7074 0.7066 -0.0141
vn 0.9239 0.3826 -0.0057
vn 0.9622 0.1914 -0.1938
vn 1.0000 0.0013 -0.0000
vn 0.7660 0.6371 0.0856
vn 0.9276 0.3504 -0.1294
vn 0.7119 0.6491 -0.2681
vn 0.9357 0.3411 0.0894
vn 0.9999 0.0041 0.0159
vn 0.9250 0.3514 -0.1448
vn 0.7706 0.6177 -0.1570
vn 0.9274 0.2742 -0.2544
vn 0.7115 0.4969 -0.4968
vn 0.9363 0.3480 -0.0475
vn 0.9999 0.0101 0.0134
vn 0.9247 0.2691 -0.2691
vn 1.0000 -0.0000 -0.0003
vn 1.0000 0.0013 0.0003
vn 1.0000 -0.0009 0.0014
vn 0.9239 0.1602 -0.3474
vn 0.9940 0.1038 0.0330
vn 1.0000 0.0001 -0.0002
vn 0.9230 0.0216 -0.3842
vn 0.9940 0.1087 -0.0093
vn 1.0000 -0.0000 -0.0016
vn 0.9239 -0.0006 -0.3827
vn 0.9623 -0.1935 -0.1914
vn 1.0000 -0.0018 -0.0015
vn 0.9004 -0.4280 -0.0782
vn 0.9004 -0.0786 -0.4280
vn 0.9998 0.0141 0.0144
vn 0.9623 -0.1896 0.1950
vn 1.0000 -0.0019 0.0003
vn 0.9239 -0.3826 0.0017
vn 0.6739 -0.7356 -0.0689
vn 0.8231 -0.4009 -0.4022
vn 0.9257 -0.3782 0.0025
vn 0.7071 -0.7071 0.0003
vn 0.8155 -0.5449 0.1951
vn 0.9239 -0.3827 0.0018
vn 0.4009 -0.8231 -0.4022
vn 0.7356 -0.6739 -0.0688
vn 0.3782 -0.9257 0.0025
vn 0.5464 -0.8145 0.1951
vn 0.3827 -0.9239 0.0017
vn 0.7356 -0.6739 0.0689
vn 0.4009 -0.8231 0.4022
vn 0.3782 -0.9257 -0.0025
vn 0.4280 -0.9004 0.0782
vn 0.0786 -0.9004 0.4279
vn -0.0141 -0.9998 -0.0144
vn 0.1932 -0.9619 0.1933
vn 0.3826 -0.9239 0.0006
vn 0.0019 -1.0000 0.0015
vn 0.0014 -1.0000 0.0017
vn -0.1951 -0.9619 0.1913
vn -0.0061 -0.9240 0.3825
vn -0.0000 -1.0000 -0.0000
vn 0.0022 -1.0000 0.0008
vn 0.0786 -0.9004 -0.4280
vn 0.4280 -0.9004 -0.0782
vn -0.0141 -0.9998 0.0144
vn -0.1951 -0.9624 -0.1892
vn 0.0014 -1.0000 -0.0017
vn -0.0060 -0.9240 -0.3825
vn 0.0910 -0.9360 -0.3401
vn 0.0159 -0.9999 -0.0041
vn -0.1448 -0.9250 -0.3513
vn -0.2595 -0.9237 -0.2818
vn 0.0703 -0.9940 -0.0833
vn -0.0002 -1.0000 -0.0002
vn -0.3474 -0.9239 -0.1602
vn 0.0331 -0.9940 -0.1038
vn -0.0002 -1.0000 -0.0001
vn -0.3841 -0.9230 -0.0231
vn -0.0092 -0.9940 -0.1087
vn -0.0013 -1.0000 -0.0000
vn -0.3826 -0.9239 0.0057
vn -0.1914 -0.9622 0.1938
vn -0.3411 -0.9357 -0.0894
vn -0.0041 -0.9999 -0.0159
vn -0.3514 -0.9250 0.1448
vn 0.0085 -0.9999 0.0145
vn -0.1780 -0.9360 0.3037
vn -0.3513 -0.9250 0.1448
vn 0.0134 -0.9999 0.0101
vn -0.0475 -0.9363 0.3480
vn -0.2691 -0.9247 0.2691
vn 0.0159 -0.9999 0.0041
vn 0.0910 -0.9360 0.3401
vn -0.1448 -0.9250 0.3514
vn -0.1294 -0.9276 0.3505
vn 0.0882 -0.7672 0.6353
vn -0.2681 -0.7119 0.6491
vn -0.2544 -0.9274 0.2742
vn -0.1570 -0.7706 0.6177
vn -0.4968 -0.7115 0.4969
vn -0.3397 -0.9277 0.1551
vn -0.3823 -0.7700 0.5108
vn -0.6491 -0.7119 0.2682
vn -0.8242 -0.5096 0.2471
vn -0.5007 -0.7185 0.4827
vn -0.6519 -0.3874 0.6518
vn -0.8628 -0.4998 -0.0758
vn -0.6473 -0.7188 0.2537
vn -0.8518 -0.3876 0.3524
vn -0.6371 -0.7660 -0.0856
vn -0.3504 -0.9276 0.1294
vn -0.6491 -0.7119 0.2681
vn -0.9236 -0.3830 0.0170
vn -0.8153 -0.5448 0.1961
vn -0.7066 -0.7074 0.0142
vn -0.5426 -0.8170 0.1950
vn -0.7066 -0.7075 0.0141
vn -0.9265 -0.3749 -0.0318
vn -0.7070 -0.5924 -0.3863
vn -0.7067 -0.7074 -0.0142
vn -0.7107 -0.7029 -0.0283
vn -0.4041 -0.8743 -0.2691
vn -0.3826 -0.9239 -0.0075
vn -0.5439 -0.5092 -0.6669
vn -0.6375 -0.7189 -0.2771
vn -0.8518 -0.3876 -0.3525
vn -0.3823 -0.7700 -0.5108
vn -0.3396 -0.9277 -0.1551
vn -0.6491 -0.7119 -0.2682
vn -0.6456 -0.3783 -0.6634
vn -0.2262 -0.5914 -0.7740
vn -0.4969 -0.7115 -0.4969
vn -0.1570 -0.7705 -0.6177
vn -0.2544 -0.9274 -0.2742
vn -0.4968 -0.7116 -0.4969
vn 0.0789 -0.5022 -0.8611
vn -0.2536 -0.7188 -0.6473
vn -0.3525 -0.3876 -0.8518
vn 0.0882 -0.7672 -0.6353
vn -0.1294 -0.9276 -0.3504
vn -0.2681 -0.7119 -0.6491
vn -0.1947 -0.5467 -0.8144
vn -0.0100 -0.7075 -0.7067
vn -0.0151 -0.3831 -0.9236
vn -0.1951 -0.8167 -0.5431
vn -0.0046 -0.9239 -0.3825
vn -0.0114 -0.7075 -0.7067
vn 0.0692 -0.6739 -0.7356
vn 0.4022 -0.8231 -0.4009
vn -0.0021 -0.9257 -0.3783
vn 0.4022 -0.4009 -0.8231
vn 0.0692 -0.7355 -0.6740
vn -0.0026 -0.3786 -0.9256
vn 0.0016 -0.3830 -0.9237
vn 0.0022 -0.0022 -1.0000
vn 0.3453 -0.3453 -0.8726
vn -0.1930 -0.1935 -0.9619
vn -0.0138 -0.3831 -0.9236
vn -0.0313 -0.0039 -0.9995
vn 0.7355 -0.0692 -0.6740
vn 0.4009 -0.4022 -0.8231
vn 0.3786 0.0026 -0.9256
vn 0.3830 -0.0016 -0.9237
vn 0.3453 -0.3454 -0.8726
vn 0.3454 -0.3454 -0.8726
vn 0.6914 -0.2762 -0.6676
vn 0.5773 -0.5773 -0.5774
vn 0.2762 -0.6914 -0.6676
vn 0.5773 -0.5774 -0.5774
vn 0.3142 -0.8623 -0.3972
vn 0.5218 -0.5976 -0.6088
vn 0.6921 -0.6683 -0.2728
vn 0.8623 -0.3972 -0.3141
vn 0.5976 -0.6088 -0.5217
vn 0.6848 -0.2501 -0.6844
vn 0.8231 -0.4022 -0.4009
vn 0.6739 -0.0692 -0.7356
vn 0.9257 0.0021 -0.3783
vn 0.3831 -0.0001 -0.9237
vn 0.5448 -0.1959 -0.8154
vn 0.7070 -0.0018 -0.7072
vn 0.7071 -0.0004 -0.7071
vn 0.8155 -0.1953 -0.5449
vn 0.9238 -0.0021 -0.3828
vn 0.3747 0.0282 -0.9267
vn 0.5923 0.3863 -0.7070
vn 0.7074 0.0114 -0.7067
vn 0.7029 0.0255 -0.7109
vn 0.8743 0.2691 -0.4040
vn 0.9239 0.0061 -0.3825
vn 0.3785 0.3655 -0.8504
vn 0.5916 0.6280 -0.5057
vn 0.7118 0.2682 -0.6491
vn 0.7069 0.2827 -0.6484
vn 0.8737 0.4040 -0.2708
vn 0.9249 0.1449 -0.3514
vn 0.3784 0.6634 -0.6456
vn 0.5914 0.7740 -0.2262
vn 0.7115 0.4969 -0.4969
vn 0.1724 0.9388 -0.2983
vn 0.3977 0.6573 -0.6402
vn 0.0020 0.7111 -0.7031
vn -0.0088 0.3985 -0.9171
vn 0.2185 0.7453 -0.6299
vn 0.3875 0.3525 -0.8518
vn 0.1564 0.9855 0.0655
vn 0.3979 0.8523 -0.3396
vn 0.0019 0.9250 -0.3799
vn 0.4998 0.8628 0.0758
vn 0.7188 0.6473 -0.2537
vn 0.3876 0.8518 -0.3525
vn 0.1941 0.9616 -0.1943
vn 0.3832 0.9235 -0.0170
vn 0.0018 0.9998 -0.0203
vn 0.3829 0.9236 -0.0170
vn 0.5448 0.8153 -0.1961
vn 0.7074 0.7067 -0.0142
vn 0.3979 0.8523 0.3395
vn 0.1564 0.9855 -0.0655
vn 0.0019 0.9250 0.3800
vn 0.7188 0.6473 0.2536
vn 0.4998 0.8628 -0.0758
vn 0.3876 0.8518 0.3525
vn 0.3977 0.6573 0.6401
vn 0.1724 0.9388 0.2983
vn 0.0020 0.7111 0.7031
vn 0.7185 0.5007 0.4827
vn 0.5096 0.8242 0.2471
vn 0.3874 0.6519 0.6518
vn 0.3980 0.3620 0.8430
vn 0.1747 0.7542 0.6330
vn 0.0020 0.3874 0.9219
vn 0.5096 0.2471 0.8242
vn 0.7185 0.4827 0.5007
vn 0.3874 0.6519 0.6519
vn 0.1493 -0.0552 0.9873
vn 0.3979 0.3396 0.8523
vn 0.0021 0.3874 0.9219
vn 0.5022 -0.0789 0.8611
vn 0.7188 0.2537 0.6473
vn 0.3876 0.3524 0.8518
vn 0.1935 0.1929 0.9619
vn 0.3831 0.0138 0.9236
vn 0.5467 0.1947 0.8144
vn 0.7074 0.0100 0.7067
vn 0.3830 0.0151 0.9236
vn 0.3453 -0.3453 0.8726
vn 0.3830 -0.0016 0.9237
vn -0.0097 0.7109 0.7033
vn -0.1431 0.4425 0.8853
vn 0.0020 0.3875 0.9219
vn -0.0089 0.9249 0.3802
vn -0.1312 0.7394 0.6604
vn 0.0019 0.7111 0.7031
vn -0.0073 0.9998 0.0205
vn -0.1090 0.9313 0.3475
vn 0.0018 0.9250 0.3799
vn -0.2010 0.9781 -0.0544
vn -0.3521 0.8109 0.4673
vn -0.0018 0.9247 0.3806
vn -0.0407 0.9921 -0.1188
vn -0.3828 0.9235 0.0251
vn -0.0020 0.9998 0.0204
vn -0.0058 0.9998 -0.0196
vn -0.0088 0.9998 0.0185
vn 0.0018 0.9998 0.0203
vn 0.0114 0.9994 -0.0332
vn -0.0804 0.8537 -0.5145
vn -0.3825 0.9236 -0.0270
vn -0.1089 0.9313 -0.3475
vn -0.0073 0.9998 -0.0205
vn 0.0018 0.9250 -0.3799
vn 0.0135 0.9212 -0.3889
vn 0.0298 0.6237 -0.7811
vn -0.3361 0.8116 -0.4779
vn -0.1311 0.7394 -0.6604
vn -0.0088 0.9249 -0.3802
vn 0.0019 0.7111 -0.7031
vn 0.0111 0.7070 -0.7071
vn -0.0865 0.3868 -0.9181
vn -0.2321 0.5605 -0.7950
vn -0.1432 0.4425 -0.8853
vn -0.0097 0.7109 -0.7033
vn 0.0020 0.3875 -0.9219
vn -0.1686 0.4071 -0.8977
vn -0.0007 0.3880 -0.9217
vn -0.0986 0.0986 -0.9902
vn -0.0219 0.0165 -0.9996
vn -0.0807 0.3714 -0.9250
vn 0.0970 0.3628 -0.9268
vn -0.0057 0.0435 -0.9990
vn 0.2190 0.4474 -0.8671
vn 0.3830 0.0152 -0.9236
vn 0.0022 -0.0007 -1.0000
vn 0.1913 -0.1960 -0.9618
vn 0.0039 0.0313 -0.9995
vn -0.0158 0.0158 -0.9997
vn -0.3640 -0.0948 -0.9266
vn -0.1392 0.1264 -0.9822
vn -0.0153 0.0062 -0.9999
vn 0.0552 -0.1493 -0.9873
vn -0.3396 -0.3979 -0.8523
vn -0.3874 -0.0021 -0.9219
vn -0.7026 0.0095 -0.7115
vn -0.2964 -0.2185 -0.9297
vn -0.6519 -0.3873 -0.6519
vn -0.7109 0.0097 -0.7033
vn -0.4425 0.1432 -0.8853
vn -0.3875 -0.0020 -0.9219
vn -0.3880 0.0007 -0.9217
vn -0.4071 0.1686 -0.8977
vn -0.3868 0.0865 -0.9181
vn -0.7070 -0.0111 -0.7071
vn -0.5605 0.2321 -0.7950
vn -0.6237 -0.0298 -0.7811
vn -0.9212 -0.0135 -0.3889
vn -0.8116 0.3361 -0.4779
vn -0.9249 0.0089 -0.3802
vn -0.7394 0.1312 -0.6604
vn -0.7111 -0.0019 -0.7031
vn -0.8537 0.0804 -0.5145
vn -0.9994 -0.0114 -0.0332
vn -0.9235 0.3825 -0.0270
vn -0.9998 0.0073 -0.0205
vn -0.9313 0.1090 -0.3475
vn -0.9250 -0.0018 -0.3799
vn -0.9994 0.0084 -0.0325
vn -0.8671 -0.2190 -0.4474
vn -0.9235 -0.3830 -0.0188
vn -0.9203 0.0094 -0.3910
vn -0.6299 -0.2185 -0.7453
vn -0.9998 -0.0016 0.0186
vn -0.9617 -0.1913 0.1964
vn -0.9236 -0.3830 0.0188
vn -0.9998 -0.0086 -0.0185
vn -0.9998 -0.0057 0.0197
vn -0.9998 0.0019 -0.0204
vn -0.9855 -0.1564 -0.0655
vn -0.8523 -0.3979 0.3396
vn -0.9250 -0.0019 0.3799
vn -0.9313 0.1089 0.3475
vn -0.9998 0.0073 0.0205
vn -0.9250 -0.0018 0.3799
vn -0.9994 -0.0114 0.0332
vn -0.8537 0.0803 0.5145
vn -0.9236 0.3825 0.0270
vn -0.9323 0.3388 -0.1270
vn -0.9998 0.0018 0.0185
vn -0.9236 0.3825 0.0269
vn -0.9287 0.3688 0.0392
vn -0.7353 0.4014 0.5461
vn -0.7068 0.7068 0.0292
vn -0.7325 0.6683 -0.1294
vn -0.9237 0.3824 0.0251
vn -0.7353 0.4014 -0.5461
vn -0.9287 0.3688 -0.0391
vn -0.7068 0.7068 -0.0292
vn -0.3688 0.9287 -0.0392
vn -0.4014 0.7353 -0.5461
vn -0.4196 0.8988 -0.1270
vn -0.7070 0.7067 0.0273
vn -0.3826 0.9235 0.0269
vn -0.3217 0.8131 -0.4851
vn -0.2332 0.5163 -0.8240
vn -0.6092 0.6093 -0.5076
vn -0.5163 0.2332 -0.8240
vn -0.8131 0.3217 -0.4851
vn -0.6092 0.6092 -0.5076
vn -0.2217 0.5611 -0.7976
vn -0.2486 0.2797 -0.9273
vn -0.4073 0.4074 -0.8174
vn -0.2797 0.2486 -0.9273
vn -0.5611 0.2217 -0.7975
vn -0.4074 0.4073 -0.8174
vn -0.2947 0.2947 -0.9090
vn -0.5750 0.8172 -0.0397
vn -0.6233 0.6032 0.4976
vn -0.3362 0.8116 0.4778
vn -0.1552 0.1021 0.9826
vn 0.0039 0.0314 0.9995
vn -0.0102 0.3871 0.9220
vn 0.1013 0.3604 0.9273
vn -0.0368 0.0629 0.9973
vn -0.3871 0.0102 0.9220
vn -0.0314 -0.0039 0.9995
vn -0.1021 0.1552 0.9826
vn -0.1197 -0.1644 0.9791
vn -0.3511 -0.1170 0.9290
vn -0.2217 0.5611 0.7975
vn -0.4073 0.4074 0.8174
vn -0.2486 0.2797 0.9273
vn 0.0111 0.7070 0.7071
vn -0.2321 0.5605 0.7950
vn -0.0865 0.3868 0.9181
vn 0.0135 0.9212 0.3889
vn -0.3361 0.8116 0.4779
vn 0.0298 0.6237 0.7811
vn -0.3217 0.8131 0.4851
vn -0.6092 0.6093 0.5076
vn -0.2332 0.5163 0.8240
vn -0.7126 0.5454 0.4413
vn -0.5605 0.2322 0.7950
vn -0.4048 0.4187 0.8129
vn -0.4719 0.4006 0.7854
vn -0.2978 0.2986 0.9067
vn -0.8936 0.2805 0.3503
vn -0.7103 0.0015 0.7039
vn -0.5618 0.2456 0.7899
vn -0.6494 0.2802 0.7069
vn -0.3881 0.0007 0.9216
vn -0.4105 0.1729 0.8953
vn -0.7104 -0.0082 0.7037
vn -0.9247 0.0018 0.3807
vn -0.9111 -0.0964 0.4009
vn -0.3883 -0.0094 0.9215
vn -0.6901 -0.0974 0.7172
vn -0.9297 -0.2185 0.2964
vn -0.6519 -0.3873 0.6519
vn -0.7195 0.0090 0.6945
vn -0.7453 -0.2185 0.6299
vn -0.3525 -0.3875 0.8518
vn -0.3985 0.0088 0.9171
vn -0.4474 -0.2190 0.8671
vn -0.0152 -0.3830 0.9236
vn -0.0435 0.0057 0.9990
vn -0.6455 -0.3784 0.6634
vn -0.2261 -0.5914 0.7741
vn -0.3862 -0.5924 0.7071
vn -0.0282 -0.3747 0.9267
vn 0.1960 -0.1913 0.9618
vn 0.0016 -0.3830 0.9237
vn 0.0007 -0.0021 1.0000
vn 0.1958 -0.5448 0.8154
vn 0.0018 -0.7070 0.7072
vn 0.0001 -0.3831 0.9237
vn -0.0557 -0.6413 0.7653
vn 0.2806 -0.6950 0.6620
vn 0.2459 -0.3158 0.9164
vn 0.1953 -0.8155 0.5449
vn 0.0021 -0.9238 0.3828
vn 0.0004 -0.7071 0.7071
vn 0.2459 -0.9164 0.3158
vn 0.2807 -0.6860 0.6713
vn -0.0558 -0.7652 0.6414
vn 0.3143 -0.8623 0.3972
vn 0.6921 -0.6683 0.2728
vn 0.5218 -0.5976 0.6088
vn 0.8623 -0.3972 0.3142
vn 0.6848 -0.2501 0.6845
vn 0.5976 -0.6088 0.5218
vn 0.7651 0.0557 0.6414
vn 0.6860 -0.2807 0.6713
vn 0.9164 -0.2459 0.3158
vn 0.3158 -0.2459 0.9164
vn 0.6950 -0.2806 0.6620
vn 0.6413 0.0557 0.7653
vn 0.9164 -0.3158 0.2459
vn 0.6693 -0.6784 0.3030
vn 0.7653 -0.6412 -0.0560
vn 0.9513 0.0368 0.3060
vn 0.8624 -0.3580 0.3580
vn 0.9514 -0.3057 -0.0372
vn 0.9239 -0.0007 0.3827
vn 1.0000 -0.0018 0.0015
vn 0.9618 -0.1934 0.1935
vn 0.7071 -0.0004 0.7071
vn 0.9238 -0.0021 0.3828
vn 0.8142 -0.1953 0.5467
vn 0.7029 0.0255 0.7109
vn 0.9239 0.0061 0.3826
vn 0.8743 0.2691 0.4040
vn 0.9230 0.0216 0.3841
vn 1.0000 -0.0000 0.0016
vn 0.9940 0.1087 0.0092
vn 0.7069 0.2827 0.6484
vn 0.9249 0.1448 0.3514
vn 0.8737 0.4040 0.2708
vn 0.9239 0.1602 0.3474
vn 1.0000 0.0001 0.0002
vn 0.9941 0.1038 -0.0331
vn 0.7066 0.5100 0.4906
vn 0.9247 0.2692 0.2692
vn 0.8736 0.4773 0.0947
vn 0.9237 0.2818 0.2595
vn 1.0000 0.0002 0.0002
vn 0.9940 0.0833 -0.0702
vn 0.8743 0.4041 0.2691
vn 0.9239 0.3826 0.0075
vn 0.7030 0.7107 0.0283
vn 0.9940 0.0093 0.1087
vn 0.9230 0.3841 0.0231
vn 0.7074 0.7067 0.0123
vn 0.8139 0.5472 0.1953
vn 0.9619 0.1913 0.1951
vn 0.9239 0.3825 0.0075
vn 1.0000 0.0013 -0.0018
vn 0.7029 0.7107 -0.0283
vn 0.9239 0.3826 -0.0075
vn 0.8743 0.4040 -0.2690
vn 0.9230 0.3841 -0.0231
vn 0.9940 0.0093 -0.1087
vn 0.7069 0.6484 -0.2827
vn 0.9249 0.3514 -0.1448
vn 0.8737 0.2708 -0.4040
vn 0.9239 0.3474 -0.1602
vn 1.0000 0.0002 -0.0001
vn 0.9940 -0.0330 -0.1038
vn 1.0000 0.0014 0.0009
vn 1.0000 -0.0010 -0.0021
vn 1.0000 -0.0023 0.0003
vn 1.0000 -0.0000 -0.0017
vn 1.0000 0.0003 -0.0000
vn 1.0000 -0.0003 -0.0002
vn 1.0000 -0.0000 -0.0000
vn 1.0000 0.0002 0.0003
vn 1.0000 0.0002 0.0013
vn 1.0000 0.0002 -0.0013
vn 1.0000 -0.0016 0.0002
vn 1.0000 0.0003 0.0016
vn 1.0000 -0.0022 -0.0008
vn 1.0000 0.0002 -0.0002
vn 1.0000 -0.0001 -0.0003
vn 1.0000 0.0003 -0.0001
vn 1.0000 0.0003 0.0013
vn 1.0000 0.0006 -0.0012
vn 1.0000 -0.0015 0.0007
vn 0.9363 0.0475 -0.3480
vn 0.9248 0.2691 -0.2691
vn 0.9999 -0.0134 -0.0101
vn 0.9360 -0.0910 -0.3401
vn 0.9250 0.1448 -0.3514
vn 0.9999 -0.0159 -0.0041
vn 0.9619 0.1951 -0.1913
vn 1.0000 -0.0014 -0.0017
vn 0.9514 -0.3057 0.0372
vn 0.8624 -0.3580 -0.3580
vn 0.9513 0.0369 -0.3060
vn 0.9239 -0.3826 -0.0006
vn 1.0000 -0.0019 -0.0015
vn 0.9620 -0.1931 -0.1933
vn 0.7653 -0.6412 0.0560
vn 0.6693 -0.6784 -0.3031
vn 0.9164 -0.3158 -0.2459
vn 0.8155 -0.5449 -0.1951
vn 0.7071 -0.7071 -0.0015
vn 0.9239 -0.3827 -0.0005
vn 0.3157 -0.9164 -0.2459
vn 0.6784 -0.6693 -0.3030
vn 0.6412 -0.7654 0.0560
vn 0.3827 -0.9239 -0.0006
vn 0.5434 -0.8165 -0.1950
vn 0.6412 -0.7653 -0.0560
vn 0.6784 -0.6693 0.3030
vn 0.3158 -0.9164 0.2459
vn 0.3057 -0.9514 -0.0372
vn 0.3580 -0.8624 0.3580
vn -0.0369 -0.9513 0.3060
vn 0.0018 -1.0000 -0.0003
vn 0.3826 -0.9239 -0.0017
vn 0.1896 -0.9623 -0.1950
vn 0.1935 -0.9623 0.1914
vn 0.0018 -1.0000 0.0015
vn 0.0007 -0.9239 0.3827
vn -0.0002 -1.0000 -0.0013
vn -0.0002 -1.0000 0.0013
vn 0.0016 -1.0000 -0.0002
vn -0.0014 -1.0000 -0.0009
vn 0.0018 -1.0000 -0.0015
vn 0.0010 -1.0000 0.0021
vn 0.0023 -1.0000 -0.0003
vn -0.0000 -1.0000 0.0016
vn -0.0013 -1.0000 -0.0001
vn 0.0006 -1.0000 -0.0015
vn 0.0023 -1.0000 -0.0001
vn -0.0368 -0.9513 -0.3060
vn 0.3580 -0.8624 -0.3579
vn 0.3057 -0.9514 0.0372
vn 0.0007 -0.9239 -0.3827
vn 0.1934 -0.9618 -0.1935
vn -0.0216 -0.9230 -0.3842
vn -0.0000 -1.0000 -0.0016
vn -0.1087 -0.9940 -0.0092
vn -0.3037 -0.9360 -0.1780
vn -0.0145 -0.9999 0.0085
vn -0.3480 -0.9363 -0.0475
vn -0.2691 -0.9248 -0.2691
vn -0.0101 -0.9999 0.0134
vn -0.3411 -0.9358 0.0895
vn -0.3514 -0.9250 -0.1448
vn -0.0041 -0.9999 0.0159
vn -0.1913 -0.9619 -0.1951
vn -0.3825 -0.9239 -0.0075
vn -0.0013 -1.0000 0.0018
vn -0.3841 -0.9230 0.0231
vn -0.0014 -1.0000 -0.0000
vn -0.0093 -0.9940 0.1087
vn -0.0833 -0.9940 -0.0703
vn -0.0002 -1.0000 0.0002
vn -0.2818 -0.9237 0.2595
vn -0.1038 -0.9940 -0.0330
vn -0.0001 -1.0000 0.0003
vn -0.1602 -0.9239 0.3474
vn -0.1087 -0.9940 0.0093
vn -0.0216 -0.9230 0.3841
vn -0.2691 -0.8743 0.4041
vn -0.0061 -0.9239 0.3826
vn -0.0255 -0.7029 0.7108
vn -0.4040 -0.8737 0.2708
vn -0.1449 -0.9249 0.3514
vn -0.2827 -0.7069 0.6484
vn -0.4773 -0.8736 0.0947
vn -0.2692 -0.9247 0.2691
vn -0.5100 -0.7066 0.4906
vn -0.8504 -0.3785 0.3655
vn -0.6491 -0.7118 0.2682
vn -0.5057 -0.5915 0.6280
vn -0.9265 -0.3749 0.0318
vn -0.7067 -0.7074 0.0142
vn -0.7071 -0.5923 0.3863
vn -0.7107 -0.7029 0.0283
vn -0.3826 -0.9239 0.0075
vn -0.4040 -0.8743 0.2690
vn -0.8154 -0.5448 -0.1955
vn -0.7066 -0.7075 -0.0124
vn -0.7067 -0.7074 -0.0123
vn -0.5472 -0.8139 -0.1953
vn -0.8628 -0.4998 0.0758
vn -0.6473 -0.7188 -0.2536
vn -0.6371 -0.7660 0.0856
vn -0.6491 -0.7119 -0.2681
vn -0.3504 -0.9276 -0.1294
vn -0.6634 -0.3784 -0.6456
vn -0.4969 -0.7115 -0.4968
vn -0.7741 -0.5913 -0.2261
vn -0.5100 -0.7066 -0.4906
vn -0.2692 -0.9247 -0.2692
vn -0.4773 -0.8736 -0.0947
vn -0.6669 -0.5092 -0.5439
vn -0.2771 -0.7189 -0.6375
vn -0.2827 -0.7068 -0.6484
vn -0.1449 -0.9249 -0.3514
vn -0.4041 -0.8737 -0.2708
vn -0.0281 -0.3747 -0.9267
vn -0.0115 -0.7074 -0.7067
vn -0.3862 -0.5924 -0.7071
vn -0.0255 -0.7029 -0.7109
vn -0.0061 -0.9239 -0.3825
vn -0.2691 -0.8743 -0.4040
vn 0.0001 -0.3831 -0.9237
vn 0.0018 -0.7070 -0.7072
vn 0.1959 -0.5430 -0.8166
vn 0.0004 -0.7071 -0.7071
vn 0.0021 -0.9238 -0.3828
vn 0.1953 -0.8142 -0.5467
vn -0.0557 -0.7652 -0.6414
vn 0.2807 -0.6860 -0.6713
vn 0.2459 -0.9164 -0.3158
vn 0.2459 -0.3158 -0.9164
vn 0.2806 -0.6950 -0.6620
vn -0.0557 -0.6413 -0.7653
vn 0.0007 -0.0021 -1.0000
vn 0.1960 -0.1892 -0.9622
vn 0.6413 0.0557 -0.7653
vn 0.6950 -0.2806 -0.6620
vn 0.3158 -0.2459 -0.9164
vn 0.3972 -0.8623 -0.3143
vn 0.2501 -0.6848 -0.6845
vn 0.6088 -0.5976 -0.5218
vn 0.8623 -0.3142 -0.3972
vn 0.6683 -0.6920 -0.2729
vn 0.5976 -0.5218 -0.6088
vn 0.9164 -0.2459 -0.3158
vn 0.6860 -0.2807 -0.6713
vn 0.7652 0.0557 -0.6414
vn 0.5449 0.1947 -0.8156
vn 0.3831 0.0152 -0.9236
vn 0.7075 0.0100 -0.7067
vn 0.8155 0.1951 -0.5449
vn 0.9239 0.0046 -0.3825
vn 0.5022 -0.0789 -0.8611
vn 0.3876 0.3525 -0.8518
vn 0.7188 0.2536 -0.6473
vn 0.7672 -0.0882 -0.6353
vn 0.7119 0.2681 -0.6491
vn 0.9276 0.1294 -0.3504
vn 0.5096 0.2471 -0.8242
vn 0.3874 0.6519 -0.6519
vn 0.7186 0.4827 -0.5007
vn 0.7706 0.1570 -0.6177
vn 0.7115 0.4968 -0.4969
vn 0.9274 0.2544 -0.2742
vn 0.5092 0.5439 -0.6669
vn 0.7189 0.6375 -0.2771
vn -0.0094 0.9204 -0.3910
vn 0.2185 0.6299 -0.7453
vn 0.1660 0.3050 -0.9378
vn 0.3977 0.6401 -0.6573
vn -0.0083 0.9994 -0.0325
vn 0.3830 0.9235 -0.0188
vn 0.2190 0.8671 -0.4474
vn 0.3749 0.9265 -0.0318
vn 0.5923 0.7071 -0.3863
vn 0.0016 0.9998 0.0186
vn 0.3830 0.9236 0.0188
vn 0.1886 0.9622 0.1963
vn 0.5449 0.8154 0.1955
vn 0.3831 0.9235 0.0188
vn 0.7075 0.7066 0.0124
vn 0.2190 0.8671 0.4474
vn 0.3830 0.9235 0.0188
vn -0.0084 0.9994 0.0325
vn 0.5923 0.7071 0.3862
vn 0.7074 0.7067 0.0142
vn 0.3749 0.9265 0.0318
vn 0.2185 0.6299 0.7453
vn -0.0094 0.9203 0.3910
vn 0.5915 0.5057 0.6280
vn 0.7118 0.6491 0.2682
vn 0.3786 0.8503 0.3655
vn 0.2185 0.2964 0.9297
vn 0.3873 0.6519 0.6519
vn -0.0094 0.7026 0.7115
vn 0.3786 0.3655 0.8503
vn 0.7118 0.2682 0.6491
vn 0.5915 0.6280 0.5057
vn -0.0057 0.0435 0.9990
vn 0.3830 0.0152 0.9236
vn 0.2190 0.4474 0.8671
vn 0.3747 0.0281 0.9267
vn 0.7074 0.0115 0.7067
vn 0.5923 0.3862 0.7071
vn 0.0022 -0.0007 1.0000
vn 0.1892 -0.1960 0.9622
vn 0.3831 -0.0001 0.9237
vn 0.7070 -0.0018 0.7072
vn 0.5430 -0.1958 0.8166
vn 0.0974 0.6901 0.7172
vn 0.0094 0.3883 0.9215
vn 0.0964 0.9111 0.4009
vn -0.0018 0.9247 0.3807
vn 0.0082 0.7104 0.7037
vn 0.0856 0.9954 0.0423
vn -0.0019 0.9998 0.0204
vn 0.0079 0.9248 0.3804
vn 0.0114 0.9994 0.0332
vn -0.3825 0.9235 0.0270
vn -0.0804 0.8537 0.5145
vn -0.0018 0.9998 -0.0185
vn -0.3825 0.9236 -0.0269
vn -0.3388 0.9323 0.1270
vn 0.0086 0.9998 -0.0185
vn -0.0019 0.9998 -0.0204
vn 0.0057 0.9998 0.0197
vn -0.2010 0.9781 0.0544
vn -0.0019 0.9247 -0.3806
vn -0.3521 0.8109 -0.4673
vn 0.0079 0.9248 -0.3804
vn 0.0856 0.9954 -0.0423
vn -0.2805 0.8936 -0.3503
vn -0.0015 0.7103 -0.7039
vn -0.2456 0.5618 -0.7899
vn 0.0082 0.7104 -0.7037
vn -0.0018 0.9247 -0.3807
vn 0.0964 0.9111 -0.4009
vn -0.2802 0.6494 -0.7069
vn -0.0007 0.3881 -0.9216
vn -0.1729 0.4105 -0.8953
vn 0.0094 0.3883 -0.9215
vn 0.0974 0.6901 -0.7171
vn -0.0102 0.3871 -0.9220
vn 0.0039 0.0314 -0.9995
vn -0.1552 0.1021 -0.9826
vn 0.1644 0.1197 -0.9791
vn 0.1170 0.3511 -0.9290
vn 0.1492 -0.0552 -0.9873
vn 0.0021 0.3874 -0.9219
vn 0.3979 0.3395 -0.8523
vn 0.1914 0.1930 -0.9623
vn 0.3831 0.0137 -0.9236
vn -0.1021 0.1552 -0.9826
vn -0.0314 -0.0039 -0.9995
vn -0.3871 0.0102 -0.9220
vn -0.3604 -0.1013 -0.9273
vn -0.0629 0.0368 -0.9973
vn -0.0435 0.0057 -0.9990
vn -0.0152 -0.3830 -0.9236
vn -0.4474 -0.2190 -0.8671
vn -0.7542 -0.1747 -0.6330
vn -0.3620 -0.3980 -0.8429
vn -0.6901 -0.0974 -0.7172
vn -0.7103 0.0015 -0.7039
vn -0.3883 -0.0094 -0.9215
vn -0.4105 0.1729 -0.8953
vn -0.3881 0.0007 -0.9216
vn -0.6494 0.2801 -0.7069
vn -0.5618 0.2456 -0.7899
vn -0.8936 0.2805 -0.3503
vn -0.9111 -0.0964 -0.4009
vn -0.9247 0.0018 -0.3807
vn -0.7104 -0.0082 -0.7037
vn -0.8109 0.3521 -0.4673
vn -0.9247 0.0018 -0.3806
vn -0.9781 0.2010 0.0544
vn -0.9954 -0.0856 -0.0423
vn -0.9248 -0.0079 -0.3804
vn -0.9855 -0.1564 0.0655
vn -0.9250 -0.0019 -0.3800
vn -0.8523 -0.3979 -0.3395
vn -0.9388 -0.1724 -0.2983
vn -0.7111 -0.0020 -0.7031
vn -0.6573 -0.3977 -0.6401
vn -0.9621 -0.1914 -0.1943
vn -0.9998 -0.0018 -0.0203
vn -0.9235 -0.3832 -0.0170
vn -0.9998 0.0058 -0.0196
vn -0.9998 -0.0018 0.0203
vn -0.9998 0.0088 0.0185
vn -0.9994 0.0083 0.0325
vn -0.9235 -0.3830 0.0188
vn -0.8671 -0.2190 0.4474
vn -0.9248 -0.0079 0.3804
vn -0.9998 0.0019 0.0204
vn -0.9954 -0.0856 0.0423
vn -0.9781 0.2010 -0.0544
vn -0.9247 0.0019 0.3806
vn -0.8109 0.3521 0.4673
vn -0.9235 0.3828 -0.0250
vn -0.9998 0.0020 -0.0204
vn -0.9921 0.0407 0.1188
vn -0.8172 0.5750 -0.0397
vn -0.8116 0.3362 0.4778
vn -0.6031 0.6234 0.4976
vn -0.7067 0.7070 -0.0273
vn -0.9235 0.3826 -0.0269
vn -0.8988 0.4196 0.1270
vn -0.6032 0.6233 -0.4976
vn -0.8116 0.3362 -0.4778
vn -0.8172 0.5750 0.0397
vn -0.5750 0.8172 0.0397
vn -0.3362 0.8116 -0.4778
vn -0.6234 0.6031 -0.4976
vn -0.3824 0.9237 -0.0250
vn -0.6683 0.7325 0.1294
vn -0.5454 0.7126 -0.4413
vn -0.2322 0.5605 -0.7950
vn -0.4187 0.4048 -0.8129
vn -0.4048 0.4187 -0.8129
vn -0.5605 0.2322 -0.7950
vn -0.7125 0.5455 -0.4413
vn -0.4006 0.4719 -0.7854
vn -0.2986 0.2978 -0.9067
vn -0.2978 0.2986 -0.9067
vn -0.4719 0.4006 -0.7854
vn -0.3688 0.9287 0.0391
vn -0.4014 0.7353 0.5461
vt 0.621521 0.159885
vt 0.544058 0.157403
vt 0.549197 0.148507
vt 0.621521 0.148500
vt 0.621517 0.025553
vt 0.549193 0.025560
vt 0.693849 0.025564
vt 0.698123 0.036954
vt 0.621526 0.036938
vt 0.698989 0.034460
vt 0.699000 0.036686
vt 0.544047 0.159630
vt 0.544925 0.159897
vt 0.699776 0.035900
vt 0.543272 0.158844
vt 0.538465 0.171080
vt 0.539347 0.171288
vt 0.535607 0.182670
vt 0.534736 0.182559
vt 0.537653 0.170432
vt 0.708312 0.059615
vt 0.705395 0.047488
vt 0.709169 0.059239
vt 0.704582 0.048137
vt 0.707441 0.059727
vt 0.703700 0.048345
vt 0.621525 0.059710
vt 0.621526 0.048324
vt 0.481091 0.092457
vt 0.473435 0.067061
vt 0.482910 0.091149
vt 0.472034 0.069446
vt 0.459268 0.050949
vt 0.458498 0.054042
vt 0.442771 0.045003
vt 0.457739 0.057089
vt 0.442562 0.048324
vt 0.268864 0.045235
vt 0.442354 0.051629
vt 0.268934 0.048561
vt 0.266881 0.049171
vt 0.269003 0.051827
vt 0.442147 0.054930
vt 0.267107 0.054722
vt 0.269054 0.055030
vt 0.265878 0.052231
vt 0.267124 0.052007
vt 0.266974 0.917138
vt 0.265747 0.919627
vt 0.265338 0.917462
vt 0.266748 0.922685
vt 0.266991 0.919850
vt 0.268869 0.920030
vt 0.268920 0.916830
vt 0.268800 0.923294
vt 0.265059 0.913957
vt 0.267016 0.913745
vt 0.268924 0.913635
vt 0.441680 0.913632
vt 0.441884 0.916932
vt 0.442091 0.920231
vt 0.456709 0.911748
vt 0.457465 0.914782
vt 0.455953 0.908708
vt 0.468993 0.897749
vt 0.470367 0.900086
vt 0.467616 0.895410
vt 0.477220 0.876861
vt 0.479005 0.878145
vt 0.475432 0.875576
vt 0.482207 0.852018
vt 0.480270 0.851666
vt 0.480269 0.619591
vt 0.482206 0.619239
vt 0.478332 0.851315
vt 0.478331 0.619942
vt 0.477219 0.594397
vt 0.479004 0.593114
vt 0.475431 0.595682
vt 0.468992 0.573509
vt 0.470367 0.571175
vt 0.467615 0.575848
vt 0.455952 0.562552
vt 0.456709 0.559512
vt 0.441884 0.554327
vt 0.441680 0.557628
vt 0.268920 0.554430
vt 0.268924 0.557624
vt 0.267016 0.557514
vt 0.265059 0.557303
vt 0.266974 0.554122
vt 0.267106 0.418007
vt 0.265189 0.414824
vt 0.267147 0.414612
vt 0.265191 0.057905
vt 0.267149 0.058117
vt 0.269058 0.058227
vt 0.269057 0.414502
vt 0.441942 0.058232
vt 0.467897 0.396266
vt 0.475724 0.096314
vt 0.269053 0.417699
vt 0.441941 0.414501
vt 0.442145 0.417804
vt 0.456224 0.409573
vt 0.456981 0.412615
vt 0.469275 0.398607
vt 0.477508 0.377703
vt 0.475718 0.376417
vt 0.480560 0.352489
vt 0.478621 0.352138
vt 0.480560 0.120243
vt 0.478620 0.120593
vt 0.477513 0.095029
vt 0.469277 0.074130
vt 0.467899 0.076471
vt 0.456982 0.060127
vt 0.456225 0.063169
vt 0.470652 0.071792
vt 0.479299 0.093745
vt 0.484439 0.119536
vt 0.482498 0.119890
vt 0.482498 0.352842
vt 0.484439 0.353197
vt 0.479294 0.378987
vt 0.472031 0.403292
vt 0.481086 0.380277
vt 0.470650 0.400946
vt 0.457737 0.415652
vt 0.442560 0.424411
vt 0.458497 0.418698
vt 0.442352 0.421105
vt 0.268933 0.424169
vt 0.269001 0.420902
vt 0.266879 0.423558
vt 0.268862 0.427494
vt 0.442769 0.427732
vt 0.268868 0.551229
vt 0.266748 0.548575
vt 0.268800 0.547965
vt 0.268730 0.544642
vt 0.266991 0.551409
vt 0.265747 0.551632
vt 0.267123 0.420722
vt 0.265877 0.420499
vt 0.265468 0.418331
vt 0.442091 0.551028
vt 0.442299 0.547725
vt 0.457465 0.556478
vt 0.458224 0.553433
vt 0.471747 0.568830
vt 0.482613 0.590520
vt 0.473149 0.566449
vt 0.458993 0.550342
vt 0.486094 0.618529
vt 0.480795 0.591825
vt 0.484145 0.618884
vt 0.486095 0.852728
vt 0.480796 0.879433
vt 0.482614 0.880738
vt 0.484146 0.852373
vt 0.471747 0.902432
vt 0.473150 0.904812
vt 0.458223 0.917827
vt 0.458993 0.920917
vt 0.442507 0.926853
vt 0.442299 0.923534
vt 0.268730 0.926618
vt 0.621521 0.171271
vt 0.621522 0.182657
vt 0.621522 0.194043
vt 0.534276 0.194044
vt 0.534276 0.291295
vt 0.533403 0.194009
vt 0.621522 0.291297
vt 0.534736 0.302780
vt 0.533403 0.291331
vt 0.535608 0.302668
vt 0.621521 0.302683
vt 0.538466 0.314258
vt 0.539348 0.314050
vt 0.621521 0.314069
vt 0.544048 0.325708
vt 0.544926 0.325441
vt 0.621520 0.325455
vt 0.544059 0.327935
vt 0.549199 0.336830
vt 0.442507 0.544407
vt 0.621520 0.336841
vt 0.621514 0.459782
vt 0.549193 0.459771
vt 0.621523 0.202510
vt 0.698987 0.204995
vt 0.693847 0.213891
vt 0.459268 0.421791
vt 0.473435 0.405674
vt 0.621523 0.191124
vt 0.698120 0.202501
vt 0.698998 0.202769
vt 0.703698 0.191110
vt 0.704581 0.191318
vt 0.707439 0.179729
vt 0.708311 0.179840
vt 0.621523 0.179738
vt 0.708771 0.168355
vt 0.709645 0.168390
vt 0.621522 0.168352
vt 0.486389 0.353553
vt 0.482906 0.381583
vt 0.486389 0.119181
vt 0.708772 0.071100
vt 0.621524 0.071095
vt 0.709646 0.071065
vt 0.710521 0.070957
vt 0.710521 0.168498
vt 0.709167 0.180216
vt 0.533880 0.303156
vt 0.532528 0.291438
vt 0.532528 0.193901
vt 0.537654 0.314906
vt 0.705393 0.191967
vt 0.543273 0.326494
vt 0.699773 0.203554
vt 0.533879 0.182183
vt 0.621527 0.025553
vt 0.265469 0.054398
vt 0.265338 0.553798
vt 0.621524 0.213895
s 0
usemtl multitexture
f 143/1/1 5/2/2 1/3/3
f 2/4/4 1/3/5 3/5/6
f 3/5/6 1/3/5 4/6/7
f 1/7/8 6/8/9 23/9/10
f 6/8/11 5/10/12 8/11/13
f 10/12/14 5/2/15 7/13/16
f 8/11/13 5/10/17 9/14/18
f 9/15/18 5/2/17 10/12/14
f 11/16/19 9/15/20 10/12/21
f 12/17/22 10/12/23 7/13/24
f 146/18/25 11/16/26 12/17/27
f 13/19/28 14/20/29 11/16/30
f 17/21/31 14/22/32 15/23/33
f 16/24/34 9/14/35 14/22/36
f 19/25/37 16/24/38 17/21/39
f 18/26/40 8/11/41 16/24/42
f 18/26/43 21/27/44 20/28/45
f 6/8/46 20/28/47 23/9/48
f 103/29/49 20/30/50 21/31/51
f 22/32/52 23/33/53 20/30/54
f 24/34/55 4/35/56 23/33/57
f 22/32/58 25/36/59 24/34/60
f 25/36/61 26/37/62 24/34/60
f 26/37/63 3/38/64 4/35/65
f 27/39/66 28/40/67 26/37/68
f 28/40/69 29/41/70 3/38/71
f 30/42/72 29/41/73 28/40/74
f 100/43/75 30/42/76 27/39/77
f 33/44/78 30/42/79 31/45/80
f 33/44/81 34/46/82 32/47/83
f 32/47/84 34/46/85 29/41/86
f 38/48/87 34/49/88 35/50/89
f 29/51/86 34/49/90 36/52/91
f 37/53/92 38/48/93 40/54/94
f 29/51/95 37/53/96 145/55/97
f 38/48/98 76/56/99 39/57/100
f 40/54/101 39/57/102 41/58/103
f 40/54/104 44/59/105 42/60/106
f 37/53/107 42/60/108 43/61/109
f 43/61/110 45/62/111 46/63/112
f 42/60/113 47/64/114 45/62/115
f 46/63/116 48/65/117 49/66/118
f 45/62/119 50/67/120 48/65/121
f 49/66/122 51/68/123 52/69/124
f 48/65/125 53/70/126 51/68/127
f 51/68/128 55/71/129 52/69/130
f 53/70/131 54/72/132 51/68/133
f 55/71/134 57/73/135 58/74/136
f 57/73/137 56/75/138 59/76/139
f 58/74/140 60/77/141 61/78/142
f 57/73/143 63/79/144 60/77/145
f 61/78/146 62/80/147 129/81/148
f 60/77/149 64/82/150 62/80/151
f 65/83/152 56/75/153 44/59/154
f 66/84/155 64/82/156 65/83/157
f 68/85/158 65/83/159 67/86/160
f 70/87/161 67/86/162 69/88/163
f 71/89/164 70/87/165 69/88/166
f 71/89/167 41/58/168 39/57/169
f 73/90/170 72/91/171 71/89/172
f 76/56/173 71/89/174 39/57/175
f 182/92/176 73/93/177 74/94/178
f 74/94/179 76/95/173 77/96/180
f 76/95/181 33/44/182 77/96/183
f 77/96/184 31/45/185 78/97/186
f 80/98/187 77/96/188 78/97/189
f 79/99/190 31/45/191 100/43/192
f 86/100/193 78/97/194 94/101/193
f 81/102/195 74/94/196 80/98/197
f 81/102/198 82/103/199 83/104/200
f 83/104/201 84/105/202 85/106/203
f 87/107/204 84/105/205 86/100/206
f 89/108/207 86/100/208 88/109/209
f 91/110/210 88/109/211 90/111/212
f 93/112/213 90/111/214 92/113/212
f 93/112/215 94/101/216 95/114/217
f 94/101/218 97/115/219 95/114/220
f 96/116/221 99/117/222 97/115/223
f 98/118/224 100/43/225 99/117/226
f 99/117/227 27/39/228 25/36/229
f 97/115/230 25/36/231 101/119/232
f 95/114/233 101/119/234 102/120/235
f 103/29/236 101/119/237 22/32/238
f 105/121/239 102/120/240 103/29/241
f 104/122/242 95/114/243 102/120/244
f 105/121/245 106/123/246 104/122/247
f 106/123/248 93/112/213 104/122/249
f 107/124/250 108/125/251 106/123/252
f 106/123/253 89/108/254 91/110/255
f 111/126/256 108/125/257 109/127/258
f 110/128/259 89/108/260 108/125/261
f 111/126/262 112/129/263 110/128/264
f 112/129/265 87/107/266 110/128/267
f 115/130/268 112/129/269 113/131/270
f 114/132/271 85/106/272 112/129/273
f 118/133/274 114/132/275 115/130/276
f 116/134/277 83/104/278 114/132/279
f 116/134/280 182/92/281 81/102/282
f 120/135/283 116/134/284 118/133/285
f 118/133/286 119/136/287 120/135/288
f 119/136/289 115/130/290 161/137/291
f 124/138/292 120/139/293 121/140/294
f 119/141/287 121/140/295 120/139/296
f 120/139/297 122/142/298 123/143/299
f 117/144/300 120/135/297 123/145/301
f 182/92/302 123/145/303 75/146/304
f 72/91/305 123/143/306 122/142/307
f 72/91/308 124/138/309 70/87/310
f 121/140/311 125/147/312 124/138/313
f 124/138/314 68/85/315 70/87/316
f 126/148/317 127/149/318 125/147/319
f 125/147/320 66/84/321 68/85/322
f 128/150/323 129/81/324 127/149/325
f 127/149/326 62/80/327 66/84/328
f 130/151/329 61/78/330 129/81/331
f 133/152/332 130/151/333 131/153/334
f 158/154/335 130/151/336 128/150/337
f 135/155/338 132/156/339 133/152/340
f 134/157/341 61/78/342 132/156/343
f 137/158/344 134/157/345 135/155/346
f 134/157/347 55/71/348 58/74/349
f 138/159/350 137/158/351 139/160/352
f 52/69/353 136/161/354 138/159/355
f 140/162/356 139/160/357 141/163/358
f 49/66/359 138/159/360 140/162/361
f 142/164/362 141/163/363 143/165/364
f 142/164/365 49/66/366 140/162/367
f 2/166/368 142/164/369 143/165/370
f 144/167/371 46/63/372 142/164/373
f 3/168/374 144/167/375 2/166/4
f 145/55/376 43/61/377 144/167/378
f 3/168/71 29/51/379 145/55/380
f 141/169/381 7/13/382 143/1/383
f 139/170/384 12/17/385 141/169/386
f 137/171/387 146/18/388 139/170/389
f 147/172/390 13/19/391 146/18/392
f 149/173/393 148/174/394 147/172/395
f 135/175/396 147/172/397 137/171/398
f 149/173/399 152/176/400 150/177/401
f 151/178/402 135/175/403 133/179/404
f 151/178/405 154/180/406 152/176/407
f 153/181/408 133/179/409 131/182/410
f 153/181/411 156/183/412 154/180/413
f 155/184/414 131/182/415 158/185/416
f 156/183/417 155/184/418 157/186/419
f 160/187/420 155/184/421 158/185/422
f 159/188/423 128/150/424 126/148/425
f 119/141/426 126/148/427 121/140/295
f 159/189/428 119/190/287 160/187/429
f 119/190/287 161/191/291 160/187/429
f 162/192/430 157/193/431 160/194/432
f 161/137/433 113/131/434 162/195/435
f 163/196/436 113/131/437 111/126/438
f 163/197/439 164/198/440 162/192/441
f 164/198/442 165/199/443 157/193/419
f 165/199/444 166/200/445 167/201/446
f 167/201/447 168/202/448 169/203/449
f 171/204/450 166/200/451 163/197/452
f 169/203/453 170/205/454 177/206/455
f 172/207/456 168/202/457 171/204/458
f 172/208/459 109/127/460 107/124/461
f 171/209/462 111/126/463 109/127/258
f 173/210/464 107/124/465 105/121/466
f 172/207/467 174/211/468 170/205/469
f 173/210/470 103/29/471 21/31/472
f 19/25/473 173/212/474 21/27/475
f 174/211/476 17/21/477 175/213/478
f 177/206/479 174/211/480 175/213/481
f 175/213/482 15/23/483 176/214/484
f 178/215/485 175/213/486 176/214/484
f 179/216/487 177/206/488 178/215/489
f 150/177/490 179/217/491 178/218/489
f 150/177/492 176/219/493 148/174/494
f 152/176/495 180/220/496 179/217/497
f 180/221/498 169/203/499 179/216/500
f 154/180/501 181/222/502 180/220/503
f 181/223/504 167/201/505 180/221/506
f 165/199/443 181/223/507 157/193/419
f 181/222/507 156/183/417 157/186/419
f 148/174/508 15/224/509 13/19/510
f 1/3/511 2/4/512 143/1/513
f 143/1/514 7/13/16 5/2/515
f 23/9/516 4/225/517 1/7/518
f 1/7/519 5/10/17 6/8/520
f 11/16/521 14/20/522 9/15/523
f 12/17/524 11/16/525 10/12/526
f 146/18/527 13/19/528 11/16/529
f 13/19/530 15/224/531 14/20/532
f 17/21/533 16/24/534 14/22/535
f 16/24/536 8/11/13 9/14/537
f 19/25/538 18/26/539 16/24/540
f 18/26/541 6/8/542 8/11/543
f 18/26/544 19/25/545 21/27/546
f 6/8/547 18/26/539 20/28/548
f 103/29/549 22/32/550 20/30/551
f 22/32/552 24/34/553 23/33/554
f 24/34/555 26/37/556 4/35/557
f 22/32/558 101/119/232 25/36/559
f 25/36/560 27/39/77 26/37/561
f 26/37/562 28/40/563 3/38/564
f 27/39/565 30/42/566 28/40/567
f 30/42/568 32/47/569 29/41/570
f 100/43/571 31/45/572 30/42/573
f 33/44/574 32/47/575 30/42/576
f 33/44/577 35/226/578 34/46/579
f 38/48/580 36/52/581 34/49/582
f 37/53/583 36/52/584 38/48/585
f 29/51/586 36/52/587 37/53/588
f 38/48/589 35/50/590 76/56/591
f 40/54/592 38/48/593 39/57/594
f 40/54/595 41/58/596 44/59/597
f 37/53/598 40/54/599 42/60/600
f 43/61/601 42/60/602 45/62/603
f 42/60/604 44/59/605 47/64/606
f 46/63/607 45/62/608 48/65/609
f 45/62/610 47/64/611 50/67/612
f 49/66/613 48/65/614 51/68/615
f 48/65/616 50/67/617 53/70/618
f 51/68/619 54/72/620 55/71/621
f 53/70/622 56/75/139 54/72/623
f 55/71/624 54/72/620 57/73/625
f 57/73/626 54/72/627 56/75/628
f 58/74/629 57/73/630 60/77/631
f 57/73/632 59/76/139 63/79/633
f 61/78/634 60/77/635 62/80/636
f 60/77/637 63/79/638 64/82/639
f 44/59/640 41/58/596 69/88/641
f 69/88/642 67/86/643 65/83/644
f 65/83/645 64/82/646 63/79/647
f 63/79/152 59/76/139 56/75/648
f 56/75/649 53/70/646 50/67/646
f 50/67/646 47/64/646 44/59/650
f 44/59/651 69/88/652 65/83/653
f 65/83/654 63/79/655 56/75/656
f 56/75/657 50/67/646 44/59/658
f 66/84/659 62/80/660 64/82/661
f 68/85/662 66/84/663 65/83/664
f 70/87/665 68/85/322 67/86/666
f 71/89/667 72/91/668 70/87/669
f 71/89/670 69/88/671 41/58/672
f 73/90/673 75/227/674 72/91/675
f 76/56/676 73/90/677 71/89/678
f 182/92/679 75/146/680 73/93/681
f 74/94/682 73/93/677 76/95/683
f 76/95/684 35/226/685 33/44/686
f 77/96/687 33/44/688 31/45/689
f 80/98/690 74/94/691 77/96/692
f 79/99/693 78/97/694 31/45/695
f 94/101/193 92/113/212 90/111/696
f 90/111/697 88/109/193 86/100/193
f 86/100/193 84/105/193 82/103/698
f 82/103/699 80/98/700 78/97/701
f 78/97/702 79/99/703 98/118/193
f 98/118/193 96/116/193 94/101/193
f 94/101/193 90/111/704 86/100/193
f 86/100/193 82/103/705 78/97/694
f 78/97/706 98/118/193 94/101/193
f 81/102/707 182/92/708 74/94/709
f 81/102/710 80/98/700 82/103/711
f 83/104/712 82/103/713 84/105/714
f 87/107/715 85/106/203 84/105/716
f 89/108/717 87/107/718 86/100/719
f 91/110/720 89/108/721 88/109/722
f 93/112/723 91/110/724 90/111/725
f 93/112/726 92/113/727 94/101/728
f 94/101/729 96/116/730 97/115/731
f 96/116/732 98/118/733 99/117/734
f 98/118/735 79/99/703 100/43/736
f 99/117/737 100/43/738 27/39/739
f 97/115/740 99/117/741 25/36/742
f 95/114/743 97/115/744 101/119/745
f 103/29/746 102/120/747 101/119/748
f 105/121/749 104/122/750 102/120/751
f 104/122/752 93/112/753 95/114/754
f 105/121/755 107/124/461 106/123/756
f 106/123/757 91/110/255 93/112/758
f 107/124/759 109/127/258 108/125/760
f 106/123/761 108/125/762 89/108/763
f 111/126/764 110/128/765 108/125/766
f 110/128/767 87/107/768 89/108/769
f 111/126/770 113/131/270 112/129/771
f 112/129/772 85/106/773 87/107/774
f 115/130/775 114/132/776 112/129/777
f 114/132/778 83/104/779 85/106/780
f 118/133/781 116/134/782 114/132/783
f 116/134/784 81/102/785 83/104/786
f 116/134/787 117/144/788 182/92/789
f 120/135/790 117/144/791 116/134/792
f 119/136/793 118/133/286 115/130/794
f 124/138/795 122/142/796 120/139/797
f 182/92/798 117/144/799 123/145/800
f 72/91/801 75/227/802 123/143/803
f 72/91/804 122/142/805 124/138/806
f 121/140/807 126/148/808 125/147/809
f 124/138/810 125/147/319 68/85/811
f 126/148/812 128/150/813 127/149/814
f 125/147/815 127/149/816 66/84/817
f 128/150/818 130/151/819 129/81/820
f 127/149/821 129/81/822 62/80/823
f 130/151/824 132/156/343 61/78/825
f 133/152/826 132/156/343 130/151/827
f 158/154/828 131/153/334 130/151/829
f 135/155/830 134/157/831 132/156/832
f 134/157/833 58/74/349 61/78/834
f 137/158/835 136/161/836 134/157/837
f 134/157/838 136/161/839 55/71/840
f 138/159/841 136/161/842 137/158/843
f 52/69/844 55/71/845 136/161/846
f 140/162/847 138/159/355 139/160/848
f 49/66/849 52/69/850 138/159/851
f 142/164/852 140/162/853 141/163/854
f 142/164/855 46/63/856 49/66/857
f 2/166/858 144/167/859 142/164/860
f 144/167/861 43/61/862 46/63/863
f 3/168/864 145/55/380 144/167/865
f 145/55/866 37/53/867 43/61/868
f 141/169/869 12/17/27 7/13/870
f 139/170/871 146/18/872 12/17/873
f 137/171/874 147/172/875 146/18/876
f 147/172/877 148/174/878 13/19/879
f 149/173/880 150/177/881 148/174/882
f 135/175/883 149/173/884 147/172/885
f 149/173/886 151/178/887 152/176/888
f 151/178/889 149/173/884 135/175/890
f 151/178/891 153/181/892 154/180/893
f 153/181/894 151/178/895 133/179/896
f 153/181/897 155/184/898 156/183/899
f 155/184/900 153/181/892 131/182/901
f 158/185/902 159/189/903 160/187/904
f 160/187/905 157/186/419 155/184/906
f 159/188/907 158/154/908 128/150/909
f 119/141/910 159/188/428 126/148/911
f 160/194/912 161/228/913 162/192/914
f 162/192/915 164/198/442 157/193/916
f 161/137/917 115/130/918 113/131/919
f 163/196/920 162/195/435 113/131/921
f 163/197/922 166/200/923 164/198/924
f 165/199/925 164/198/926 166/200/927
f 167/201/928 166/200/923 168/202/929
f 171/204/930 168/202/931 166/200/932
f 169/203/933 168/202/934 170/205/935
f 172/207/936 170/205/469 168/202/937
f 172/208/938 171/209/939 109/127/940
f 171/209/941 163/196/942 111/126/943
f 173/210/944 172/208/945 107/124/946
f 172/207/947 173/212/948 174/211/949
f 173/210/950 105/121/951 103/29/952
f 19/25/953 174/211/954 173/212/955
f 174/211/956 19/25/957 17/21/958
f 177/206/959 170/205/960 174/211/961
f 175/213/962 17/21/963 15/23/964
f 178/215/965 177/206/966 175/213/967
f 179/216/968 169/203/969 177/206/970
f 150/177/971 152/176/972 179/217/973
f 150/177/974 178/218/489 176/219/975
f 152/176/976 154/180/977 180/220/978
f 180/221/979 167/201/980 169/203/981
f 154/180/982 156/183/417 181/222/983
f 181/223/984 165/199/443 167/201/985
f 148/174/986 176/219/484 15/224/987
