# Blender 5.0.1
# www.blender.org

mtllib DRB.mtl
o corner_DRB
v 0.300161 -0.295654 -0.295654
v 0.299818 -0.297379 -0.295654
v 0.299818 -0.295654 -0.297379
v 0.300161 -0.104342 -0.295654
v 0.300161 -0.295654 -0.104342
v 0.299818 -0.295654 -0.102617
v 0.299818 -0.297379 -0.104342
v 0.300161 -0.104342 -0.104342
v 0.299818 -0.102617 -0.104342
v 0.299818 -0.104342 -0.102617
v 0.299404 -0.102574 -0.102574
v 0.298841 -0.104342 -0.101155
v 0.297379 -0.104342 -0.100178
v 0.298612 -0.102664 -0.101384
v 0.298841 -0.295654 -0.101155
v 0.298612 -0.297332 -0.101384
v 0.297379 -0.295654 -0.100178
v 0.295654 -0.295654 -0.099835
v 0.297422 -0.297422 -0.100592
v 0.295654 -0.297379 -0.100178
v 0.297332 -0.298612 -0.101384
v 0.298256 -0.298256 -0.101740
v 0.298612 -0.298612 -0.102664
v 0.298841 -0.298841 -0.104342
v 0.299404 -0.297422 -0.102574
v 0.297422 -0.299404 -0.102574
v 0.295654 -0.299818 -0.102617
v 0.297379 -0.299818 -0.104342
v 0.295654 -0.300161 -0.104342
v 0.297379 -0.299818 -0.295654
v 0.295654 -0.300161 -0.295654
v 0.297422 -0.299404 -0.297422
v 0.298841 -0.298841 -0.295654
v 0.298612 -0.298612 -0.297332
v 0.299404 -0.297422 -0.297422
v 0.298256 -0.298256 -0.298256
v 0.298612 -0.297332 -0.298612
v 0.297332 -0.298612 -0.298612
v 0.295654 -0.298841 -0.298841
v 0.297422 -0.297422 -0.299404
v 0.295654 -0.297379 -0.299818
v 0.297379 -0.295654 -0.299818
v 0.295654 -0.295654 -0.300161
v 0.298841 -0.295654 -0.298841
v 0.297379 -0.104342 -0.299818
v 0.295654 -0.104342 -0.300161
v 0.297422 -0.102574 -0.299404
v 0.298841 -0.104342 -0.298841
v 0.299818 -0.104342 -0.297379
v 0.298612 -0.102664 -0.298612
v 0.299404 -0.102574 -0.297422
v 0.298256 -0.101740 -0.298256
v 0.298612 -0.101384 -0.297333
v 0.297332 -0.101384 -0.298612
v 0.297422 -0.100592 -0.297422
v 0.295654 -0.100178 -0.297379
v 0.297379 -0.100178 -0.295654
v 0.295654 -0.099835 -0.295654
v 0.104342 -0.099835 -0.295654
v 0.295654 -0.099835 -0.104342
v 0.104342 -0.099835 -0.104342
v 0.102617 -0.100178 -0.104342
v 0.104342 -0.100178 -0.102617
v 0.102678 -0.100677 -0.102678
v 0.102720 -0.101346 -0.101346
v 0.101345 -0.101346 -0.102721
v 0.101750 -0.101750 -0.101750
v 0.101345 -0.102721 -0.101346
v 0.100676 -0.102678 -0.102678
v 0.102678 -0.102678 -0.100677
v 0.102617 -0.104342 -0.100178
v 0.104342 -0.102617 -0.100178
v 0.104342 -0.104342 -0.099835
v 0.295654 -0.104342 -0.099835
v 0.104342 -0.295654 -0.099835
v 0.102617 -0.295654 -0.100178
v 0.104342 -0.297379 -0.100178
v 0.102574 -0.297422 -0.100592
v 0.104342 -0.298841 -0.101155
v 0.102664 -0.298612 -0.101384
v 0.104342 -0.299818 -0.102617
v 0.295654 -0.298841 -0.101155
v 0.104342 -0.300161 -0.104342
v 0.102574 -0.299404 -0.102574
v 0.102617 -0.299818 -0.104342
v 0.101384 -0.298612 -0.102664
v 0.101155 -0.298841 -0.104342
v 0.101740 -0.298256 -0.101740
v 0.100592 -0.297422 -0.102574
v 0.100178 -0.295654 -0.102617
v 0.100178 -0.297379 -0.104342
v 0.101384 -0.297332 -0.101384
v 0.101155 -0.295654 -0.101155
v 0.101155 -0.104342 -0.101155
v 0.100178 -0.104342 -0.102617
v 0.099835 -0.104342 -0.104342
v 0.100178 -0.102617 -0.104342
v 0.099835 -0.104342 -0.295654
v 0.099835 -0.295654 -0.104342
v 0.099835 -0.295654 -0.295654
v 0.100178 -0.295654 -0.297379
v 0.100178 -0.297379 -0.295654
v 0.100592 -0.297422 -0.297422
v 0.101384 -0.298612 -0.297332
v 0.101384 -0.297332 -0.298612
v 0.101740 -0.298256 -0.298256
v 0.102664 -0.298612 -0.298612
v 0.102574 -0.297422 -0.299404
v 0.104342 -0.298841 -0.298841
v 0.102574 -0.299404 -0.297422
v 0.104342 -0.299818 -0.297379
v 0.102617 -0.299818 -0.295654
v 0.104342 -0.300161 -0.295654
v 0.101155 -0.298841 -0.295654
v 0.295654 -0.299818 -0.297379
v 0.104342 -0.297379 -0.299818
v 0.104342 -0.295654 -0.300161
v 0.102617 -0.295654 -0.299818
v 0.104342 -0.104342 -0.300161
v 0.102617 -0.104342 -0.299818
v 0.104342 -0.102617 -0.299818
v 0.102574 -0.102574 -0.299404
v 0.104342 -0.101155 -0.298841
v 0.295654 -0.102617 -0.299818
v 0.295654 -0.101155 -0.298841
v 0.102664 -0.101384 -0.298612
v 0.104342 -0.100178 -0.297379
v 0.102574 -0.100592 -0.297422
v 0.102617 -0.100178 -0.295654
v 0.101384 -0.101384 -0.297333
v 0.100592 -0.102574 -0.297422
v 0.101155 -0.101155 -0.295654
v 0.101740 -0.101740 -0.298256
v 0.101384 -0.102664 -0.298612
v 0.101155 -0.104342 -0.298841
v 0.100178 -0.104342 -0.297379
v 0.101155 -0.295654 -0.298841
v 0.100178 -0.102617 -0.295654
v 0.101155 -0.101155 -0.104342
v 0.295654 -0.102617 -0.100178
v 0.297422 -0.102574 -0.100592
v 0.295654 -0.101155 -0.101155
v 0.297332 -0.101384 -0.101384
v 0.295654 -0.100178 -0.102617
v 0.104342 -0.101155 -0.101155
v 0.297422 -0.100592 -0.102574
v 0.297379 -0.100178 -0.104342
v 0.298612 -0.101384 -0.102664
v 0.298841 -0.101155 -0.104342
v 0.298256 -0.101740 -0.101740
v 0.298841 -0.101155 -0.295654
v 0.299818 -0.102617 -0.295654
vn 0.9004 -0.4280 -0.0782
vn 0.9004 -0.0782 -0.4280
vn 0.9998 0.0141 0.0141
vn 1.0000 -0.0018 -0.0006
vn 0.9619 -0.1913 -0.1950
vn 0.9239 -0.3826 -0.0017
vn 1.0000 0.0006 -0.0018
vn 0.9619 0.1950 -0.1913
vn 0.9239 0.0018 -0.3826
vn 1.0000 -0.0023 0.0010
vn 1.0000 0.0010 -0.0023
vn 1.0000 0.0018 0.0018
vn 0.9004 -0.0782 0.4280
vn 0.9004 -0.4280 0.0782
vn 0.9998 0.0141 -0.0141
vn 0.9239 0.0005 0.3826
vn 0.9623 0.1933 0.1914
vn 0.9004 0.4280 0.0782
vn 0.9004 0.0781 0.4280
vn 0.9998 -0.0141 -0.0141
vn 0.9239 0.3826 -0.0005
vn 0.9623 0.1914 -0.1933
vn 1.0000 0.0018 -0.0018
vn 0.8231 0.4023 0.4009
vn 0.6739 0.0688 0.7356
vn 0.9257 -0.0024 0.3782
vn 0.7071 0.0003 0.7071
vn 0.8155 0.1951 0.5449
vn 0.9239 0.0018 0.3827
vn 0.7356 0.0689 0.6739
vn 0.4009 0.4022 0.8231
vn 0.3782 -0.0025 0.9257
vn 0.3827 0.0005 0.9239
vn 0.5449 0.1950 0.8155
vn 0.7071 0.0015 0.7071
vn 0.6739 -0.0689 0.7356
vn 0.8231 -0.4022 0.4009
vn 0.9257 0.0025 0.3782
vn 0.4009 -0.4022 0.8231
vn 0.7356 -0.0689 0.6739
vn 0.3786 0.0029 0.9256
vn 0.0018 -0.0018 1.0000
vn 0.3453 -0.3453 0.8726
vn 0.3830 -0.0013 0.9237
vn 0.0035 0.0023 1.0000
vn 0.1913 0.1954 0.9619
vn 0.3826 0.0017 0.9239
vn 0.0689 -0.7356 0.6739
vn 0.4022 -0.4009 0.8231
vn -0.0029 -0.3786 0.9256
vn 0.0014 -0.3830 0.9237
vn 0.3454 -0.3453 0.8726
vn 0.3454 -0.3454 0.8726
vn 0.5774 -0.5773 0.5774
vn 0.6914 -0.2761 0.6676
vn 0.2762 -0.6914 0.6676
vn 0.5773 -0.5774 0.5774
vn 0.8623 -0.3142 0.3972
vn 0.5976 -0.5218 0.6087
vn 0.6683 -0.6921 0.2728
vn 0.3972 -0.8623 0.3142
vn 0.6088 -0.5976 0.5218
vn 0.2501 -0.6848 0.6845
vn 0.8231 -0.4009 0.4022
vn 0.6739 -0.7356 0.0688
vn 0.9257 -0.3782 -0.0025
vn 0.7356 -0.6739 0.0689
vn 0.4009 -0.8231 0.4022
vn 0.3782 -0.9257 -0.0024
vn 0.4280 -0.9004 0.0782
vn 0.0782 -0.9004 0.4280
vn -0.0140 -0.9998 -0.0141
vn 0.4022 -0.8231 0.4009
vn 0.0688 -0.6739 0.7356
vn -0.0025 -0.9257 0.3782
vn 0.3826 -0.9239 -0.0005
vn 0.1914 -0.9623 -0.1933
vn 0.0018 -1.0000 -0.0018
vn 0.7071 -0.7071 -0.0003
vn 0.5449 -0.8155 -0.1951
vn 0.3827 -0.9239 -0.0017
vn 0.0783 -0.9004 -0.4280
vn 0.4280 -0.9004 -0.0782
vn -0.0141 -0.9998 0.0141
vn 0.4009 -0.8231 -0.4022
vn 0.7356 -0.6739 -0.0689
vn 0.3782 -0.9257 0.0024
vn 0.6739 -0.7356 -0.0689
vn 0.8231 -0.4009 -0.4023
vn 0.9257 -0.3782 0.0024
vn 0.9239 -0.3827 -0.0005
vn 0.8155 -0.5449 -0.1950
vn 0.7071 -0.7071 -0.0015
vn 0.8623 -0.3972 -0.3142
vn 0.5976 -0.6088 -0.5218
vn 0.6683 -0.2729 -0.6920
vn 0.3142 -0.8623 -0.3972
vn 0.5217 -0.5976 -0.6089
vn 0.6920 -0.6683 -0.2729
vn 0.3972 -0.3142 -0.8623
vn 0.6088 -0.5218 -0.5976
vn 0.2729 -0.6920 -0.6683
vn 0.4022 -0.4009 -0.8231
vn 0.0689 -0.7356 -0.6739
vn -0.0024 -0.3782 -0.9257
vn 0.0689 -0.6739 -0.7356
vn 0.4023 -0.8231 -0.4009
vn -0.0024 -0.9257 -0.3782
vn 0.4280 -0.0782 -0.9004
vn 0.0781 -0.4280 -0.9004
vn -0.0141 0.0141 -0.9998
vn 0.7356 -0.0689 -0.6739
vn 0.4009 -0.4022 -0.8231
vn 0.3782 0.0024 -0.9257
vn 0.3826 0.0005 -0.9239
vn 0.1914 0.1933 -0.9623
vn 0.0018 0.0018 -1.0000
vn 0.7071 0.0003 -0.7071
vn 0.5449 0.1951 -0.8155
vn 0.3827 0.0017 -0.9239
vn 0.0782 0.4280 -0.9004
vn 0.4280 0.0781 -0.9004
vn -0.0141 -0.0141 -0.9998
vn 0.4009 0.4022 -0.8231
vn 0.7356 0.0688 -0.6739
vn 0.3782 -0.0024 -0.9257
vn 0.6739 0.0689 -0.7356
vn 0.8231 0.4022 -0.4009
vn 0.9257 -0.0024 -0.3782
vn 0.9239 0.0005 -0.3827
vn 0.8155 0.1950 -0.5449
vn 0.7071 0.0015 -0.7071
vn 0.8623 0.3142 -0.3972
vn 0.5976 0.5218 -0.6088
vn 0.6848 0.6845 -0.2501
vn 0.3142 0.3971 -0.8623
vn 0.5218 0.6087 -0.5976
vn 0.6920 0.2728 -0.6683
vn 0.6914 0.6676 -0.2762
vn 0.5774 0.5774 -0.5773
vn 0.3454 0.8726 -0.3454
vn 0.5773 0.5774 -0.5773
vn 0.2761 0.6676 -0.6914
vn 0.0018 1.0000 -0.0018
vn 0.3453 0.8726 -0.3454
vn 0.0013 0.9238 -0.3830
vn 0.4022 0.8231 -0.4009
vn 0.0689 0.6739 -0.7356
vn -0.0029 0.9256 -0.3786
vn 0.7356 0.6739 -0.0689
vn 0.4009 0.8231 -0.4022
vn 0.3786 0.9256 0.0029
vn 0.3830 0.9237 -0.0013
vn 0.0018 1.0000 -0.0006
vn 0.1913 0.9619 -0.1950
vn -0.0023 1.0000 -0.0035
vn -0.1954 0.9619 -0.1913
vn -0.0017 0.9239 -0.3826
vn -0.0035 1.0000 -0.0035
vn -0.0018 1.0000 0.0018
vn 0.0035 1.0000 0.0035
vn -0.0018 1.0000 0.0006
vn -0.1913 0.9619 0.1950
vn -0.3828 0.9238 0.0015
vn -0.3828 0.9238 0.0016
vn -0.3417 0.8755 0.3417
vn -0.0016 0.9238 0.3828
vn -0.0003 0.9238 0.3828
vn -0.1917 0.9626 0.1915
vn -0.4369 0.7962 0.4186
vn -0.1359 0.6074 0.7827
vn -0.0570 0.8996 0.4329
vn -0.7827 0.6074 0.1359
vn -0.4186 0.7962 0.4369
vn -0.4329 0.8996 0.0569
vn -0.5773 0.5774 0.5773
vn -0.2897 0.6768 0.6767
vn -0.6767 0.6768 0.2898
vn -0.5773 0.5774 0.5774
vn -0.3417 0.8755 0.3418
vn -0.3417 0.3417 0.8755
vn -0.5773 0.5773 0.5774
vn -0.6768 0.2898 0.6768
vn -0.5774 0.5774 0.5773
vn -0.8755 0.3417 0.3417
vn -0.2897 0.6768 0.6768
vn -0.5774 0.5773 0.5774
vn -0.3418 0.3417 0.8755
vn -0.6768 0.6767 0.2898
vn -0.0018 0.0018 1.0000
vn -0.3828 0.0016 0.9238
vn -0.4186 0.4369 0.7962
vn -0.7827 0.1359 0.6074
vn -0.4329 0.0570 0.8996
vn -0.1359 0.7827 0.6074
vn -0.4368 0.4186 0.7962
vn -0.0569 0.4329 0.8996
vn -0.0016 0.3828 0.9238
vn -0.0006 0.0018 1.0000
vn -0.1950 0.1913 0.9620
vn -0.0015 0.3828 0.9239
vn -0.3828 0.0003 0.9238
vn -0.1915 0.1917 0.9626
vn 0.0035 0.0035 1.0000
vn -0.0035 -0.0035 1.0000
vn -0.4280 -0.0782 0.9004
vn -0.0781 -0.4280 0.9004
vn 0.0123 0.0124 0.9998
vn 0.0006 -0.0018 1.0000
vn 0.1950 -0.1913 0.9619
vn 0.0013 -0.3830 0.9237
vn -0.4022 -0.4009 0.8231
vn -0.0688 -0.7356 0.6739
vn 0.0024 -0.3782 0.9257
vn 0.0001 -0.3831 0.9237
vn 0.1950 -0.5449 0.8155
vn 0.0015 -0.7071 0.7071
vn -0.0689 -0.6739 0.7356
vn -0.4022 -0.8231 0.4009
vn 0.0024 -0.9257 0.3782
vn 0.0003 -0.7071 0.7071
vn 0.1951 -0.8155 0.5449
vn 0.0018 -0.9239 0.3827
vn -0.0782 -0.9004 0.4280
vn -0.4280 -0.9004 0.0782
vn 0.0141 -0.9998 -0.0141
vn 0.0005 -0.9239 0.3826
vn 0.1933 -0.9623 0.1914
vn 0.0018 -1.0000 0.0018
vn -0.4009 -0.8231 0.4022
vn -0.7356 -0.6739 0.0688
vn -0.3782 -0.9257 -0.0024
vn -0.3142 -0.8623 0.3972
vn -0.5218 -0.5976 0.6088
vn -0.6920 -0.6683 0.2728
vn -0.6739 -0.7356 0.0689
vn -0.8231 -0.4009 0.4022
vn -0.9257 -0.3782 -0.0025
vn -0.8623 -0.3972 0.3143
vn -0.5976 -0.6088 0.5218
vn -0.6683 -0.2728 0.6921
vn -0.9004 -0.4280 0.0782
vn -0.9004 -0.0781 0.4280
vn -0.9998 0.0123 -0.0124
vn -0.8231 -0.4022 0.4009
vn -0.6739 -0.0689 0.7356
vn -0.9257 0.0025 0.3782
vn -0.7356 -0.0689 0.6739
vn -0.4009 -0.4022 0.8231
vn -0.3782 0.0025 0.9257
vn -0.3972 -0.3142 0.8623
vn -0.6088 -0.5218 0.5976
vn -0.2729 -0.6920 0.6683
vn -0.5464 -0.1949 0.8145
vn -0.7071 -0.0003 0.7071
vn -0.3827 -0.0017 0.9239
vn -0.9238 0.0003 0.3828
vn -0.8155 0.1950 0.5449
vn -0.7071 0.0018 0.7071
vn -0.6074 0.1359 0.7827
vn -0.7962 0.4369 0.4186
vn -0.8996 0.0570 0.4329
vn -1.0000 0.0006 0.0018
vn -0.9620 0.1950 0.1914
vn -0.9238 0.0015 0.3828
vn -0.9238 0.0016 0.3828
vn -1.0000 0.0018 0.0018
vn -0.9238 0.3828 0.0016
vn -0.9238 0.3828 0.0003
vn -0.9626 0.1915 0.1917
vn -1.0000 -0.0018 -0.0018
vn -1.0000 0.0035 -0.0035
vn -1.0000 -0.0035 0.0035
vn -0.9239 0.0005 -0.3826
vn -0.9623 0.1933 -0.1914
vn -0.9237 -0.0013 -0.3830
vn -0.8726 -0.3454 -0.3453
vn -0.9238 -0.3830 -0.0013
vn -0.9237 -0.3830 -0.0001
vn -0.9626 -0.1915 -0.1917
vn -0.8231 -0.4009 -0.4022
vn -0.6739 -0.7356 -0.0689
vn -0.9256 -0.3785 0.0029
vn -0.6739 -0.0689 -0.7356
vn -0.8231 -0.4022 -0.4009
vn -0.9256 0.0029 -0.3786
vn -0.8726 -0.3454 -0.3454
vn -0.5774 -0.5773 -0.5773
vn -0.6676 -0.6914 -0.2762
vn -0.6676 -0.2762 -0.6914
vn -0.5774 -0.5773 -0.5774
vn -0.3142 -0.3972 -0.8623
vn -0.5218 -0.6088 -0.5976
vn -0.6844 -0.2501 -0.6848
vn -0.3972 -0.8623 -0.3142
vn -0.6088 -0.5976 -0.5218
vn -0.2729 -0.6683 -0.6920
vn -0.0689 -0.7356 -0.6739
vn -0.4022 -0.4009 -0.8231
vn 0.0025 -0.3782 -0.9257
vn -0.4022 -0.8231 -0.4009
vn -0.0688 -0.6739 -0.7356
vn 0.0025 -0.9257 -0.3782
vn -0.4280 -0.9004 -0.0782
vn -0.0782 -0.9004 -0.4280
vn 0.0141 -0.9998 0.0141
vn -0.7356 -0.6739 -0.0689
vn -0.4008 -0.8231 -0.4022
vn -0.3782 -0.9257 0.0025
vn -0.0018 -1.0000 -0.0006
vn -0.1913 -0.9620 -0.1950
vn -0.3826 -0.9239 -0.0017
vn -0.3827 -0.9239 -0.0005
vn -0.5449 -0.8155 -0.1950
vn -0.7071 -0.7071 -0.0015
vn -0.7071 -0.7071 -0.0003
vn -0.8155 -0.5449 -0.1951
vn -0.9237 -0.3831 -0.0013
vn 0.0006 -1.0000 -0.0018
vn 0.1950 -0.9619 -0.1913
vn 0.0018 -0.9239 -0.3826
vn -0.0023 -1.0000 0.0010
vn 0.0010 -1.0000 -0.0023
vn 0.0005 -0.9239 -0.3827
vn 0.1950 -0.8155 -0.5449
vn 0.0015 -0.7071 -0.7071
vn 0.0003 -0.7071 -0.7071
vn 0.1951 -0.5449 -0.8155
vn 0.0017 -0.3827 -0.9239
vn -0.0782 -0.4280 -0.9004
vn -0.4280 -0.0782 -0.9004
vn 0.0141 0.0141 -0.9998
vn 0.0005 -0.3826 -0.9239
vn 0.1933 -0.1914 -0.9623
vn 0.0018 -0.0018 -1.0000
vn -0.0018 0.0006 -1.0000
vn -0.1913 0.1950 -0.9619
vn -0.3826 0.0018 -0.9239
vn 0.0010 -0.0023 -1.0000
vn -0.0023 0.0010 -1.0000
vn -0.4280 0.0782 -0.9004
vn -0.0782 0.4280 -0.9004
vn 0.0141 -0.0141 -0.9998
vn -0.0005 0.3826 -0.9239
vn -0.1933 0.1914 -0.9623
vn -0.0018 0.0018 -1.0000
vn -0.4022 0.4010 -0.8231
vn -0.0688 0.7356 -0.6739
vn 0.0024 0.3782 -0.9257
vn -0.0003 0.7071 -0.7071
vn -0.1951 0.5449 -0.8155
vn -0.0017 0.3827 -0.9239
vn 0.0689 0.7356 -0.6739
vn 0.4022 0.4009 -0.8231
vn -0.0024 0.3782 -0.9257
vn -0.0005 0.9239 -0.3827
vn -0.1950 0.8155 -0.5449
vn -0.0015 0.7071 -0.7071
vn -0.0689 0.6739 -0.7356
vn -0.4022 0.8231 -0.4009
vn 0.0024 0.9257 -0.3782
vn -0.0782 0.9004 -0.4280
vn -0.4280 0.9004 -0.0781
vn 0.0124 0.9998 0.0123
vn -0.4009 0.8231 -0.4022
vn -0.7356 0.6739 -0.0689
vn -0.3782 0.9257 0.0024
vn -0.3142 0.8623 -0.3972
vn -0.5218 0.5976 -0.6088
vn -0.6921 0.6683 -0.2728
vn -0.6739 0.7356 -0.0689
vn -0.8231 0.4009 -0.4022
vn -0.9257 0.3782 0.0025
vn -0.8623 0.3972 -0.3142
vn -0.5976 0.6088 -0.5218
vn -0.6683 0.2729 -0.6920
vn -0.3972 0.3142 -0.8623
vn -0.6088 0.5218 -0.5976
vn -0.2729 0.6920 -0.6683
vn -0.8231 0.4022 -0.4009
vn -0.6739 0.0689 -0.7356
vn -0.9257 -0.0024 -0.3782
vn -0.7356 0.0689 -0.6739
vn -0.4009 0.4022 -0.8231
vn -0.3782 -0.0025 -0.9257
vn -0.7071 0.0003 -0.7071
vn -0.8156 0.1947 -0.5449
vn -0.9239 0.0018 -0.3827
vn -0.3827 0.0005 -0.9239
vn -0.5449 0.1950 -0.8155
vn -0.7071 0.0015 -0.7071
vn -0.4009 -0.4022 -0.8231
vn -0.7356 -0.0689 -0.6739
vn -0.3782 0.0024 -0.9257
vn -0.9004 0.4280 -0.0782
vn -0.9004 0.0781 -0.4280
vn -0.9998 -0.0123 0.0124
vn -0.7071 0.7071 0.0006
vn -0.8155 0.5449 0.1951
vn -0.9238 0.3829 0.0015
vn -0.3829 0.9238 0.0003
vn -0.5449 0.8155 0.1950
vn -0.7071 0.7071 0.0018
vn -0.7962 0.4186 0.4369
vn -0.6074 0.7827 0.1359
vn -0.8996 0.4329 0.0570
vn 0.4280 0.0782 0.9004
vn 0.0781 0.4280 0.9004
vn -0.0123 -0.0124 0.9998
vn 0.4022 0.4009 0.8231
vn 0.0689 0.7356 0.6739
vn -0.0025 0.3782 0.9257
vn -0.0003 0.3829 0.9238
vn -0.1950 0.5449 0.8155
vn -0.0018 0.7071 0.7071
vn 0.0689 0.6739 0.7356
vn 0.4022 0.8231 0.4009
vn -0.0025 0.9257 0.3782
vn 0.1949 0.8145 0.5464
vn 0.0003 0.7071 0.7071
vn 0.0017 0.9239 0.3827
vn 0.0782 0.9004 0.4280
vn 0.4280 0.9004 0.0782
vn -0.0123 0.9998 -0.0123
vn 0.4009 0.8231 0.4022
vn 0.7356 0.6739 0.0688
vn 0.3782 0.9257 -0.0025
vn 0.3142 0.8623 0.3971
vn 0.5218 0.5976 0.6088
vn 0.6921 0.6683 0.2728
vn 0.6739 0.7356 0.0689
vn 0.8231 0.4009 0.4023
vn 0.9257 0.3782 -0.0024
vn 0.8623 0.3972 0.3142
vn 0.5976 0.6088 0.5218
vn 0.6683 0.2728 0.6920
vn 0.3972 0.3142 0.8623
vn 0.6088 0.5218 0.5976
vn 0.2728 0.6920 0.6683
vn 0.3831 0.9237 -0.0001
vn 0.5449 0.8155 -0.1950
vn 0.7071 0.7071 -0.0015
vn 0.7071 0.7071 -0.0003
vn 0.8155 0.5449 -0.1951
vn 0.9239 0.3827 -0.0018
vn 0.8231 0.4009 -0.4022
vn 0.6739 0.7356 -0.0689
vn 0.9257 0.3782 0.0024
vn 0.9004 0.0782 -0.4280
vn 0.9004 0.4280 -0.0782
vn 0.9998 -0.0141 0.0141
vn 0.8231 -0.4022 -0.4009
vn 0.6739 -0.0689 -0.7356
vn 0.9257 0.0024 -0.3782
vn 0.9514 -0.3058 0.0372
vn 0.8624 -0.3580 -0.3580
vn 0.9514 0.0372 -0.3057
vn 0.9623 -0.1914 0.1933
vn 1.0000 -0.0018 0.0018
vn 0.9239 -0.3826 0.0005
vn 0.9623 -0.1933 -0.1914
vn 1.0000 -0.0018 -0.0018
vn 0.9239 -0.0005 -0.3826
vn 1.0000 -0.0010 0.0023
vn 1.0000 0.0023 -0.0010
vn 0.9514 0.0372 0.3057
vn 0.8624 -0.3580 0.3580
vn 0.9514 -0.3057 -0.0372
vn 0.9619 -0.1950 0.1913
vn 0.9239 -0.0018 0.3826
vn 1.0000 -0.0006 0.0018
vn 0.9514 0.3057 -0.0372
vn 0.8624 0.3580 0.3580
vn 0.9514 -0.0372 0.3057
vn 0.9619 0.1913 0.1950
vn 0.9239 0.3826 0.0018
vn 1.0000 0.0018 0.0006
vn 0.9164 0.2459 0.3157
vn 0.6693 0.3030 0.6784
vn 0.7654 -0.0560 0.6412
vn 0.8155 -0.1950 0.5449
vn 0.7071 -0.0015 0.7071
vn 0.9239 -0.0005 0.3827
vn 0.6412 -0.0560 0.7653
vn 0.6784 0.3031 0.6692
vn 0.3158 0.2459 0.9164
vn 0.5449 -0.1951 0.8155
vn 0.3831 -0.0013 0.9237
vn 0.7071 -0.0003 0.7071
vn 0.7653 0.0560 0.6412
vn 0.6860 -0.2807 0.6713
vn 0.9164 -0.2459 0.3157
vn 0.3158 -0.2459 0.9164
vn 0.6950 -0.2806 0.6620
vn 0.6412 0.0560 0.7653
vn 0.1915 -0.1917 0.9626
vn 0.3830 -0.0001 0.9237
vn -0.0560 -0.6412 0.7653
vn 0.2806 -0.6950 0.6620
vn 0.2459 -0.3157 0.9164
vn 0.8623 -0.3971 0.3142
vn 0.6848 -0.2501 0.6845
vn 0.5976 -0.6088 0.5218
vn 0.3142 -0.8623 0.3971
vn 0.6920 -0.6684 0.2728
vn 0.5218 -0.5976 0.6088
vn 0.9164 -0.3157 0.2459
vn 0.6692 -0.6784 0.3031
vn 0.7653 -0.6412 -0.0560
vn 0.6412 -0.7653 -0.0560
vn 0.6784 -0.6693 0.3030
vn 0.3158 -0.9164 0.2459
vn 0.3057 -0.9514 -0.0372
vn 0.3579 -0.8624 0.3580
vn -0.0372 -0.9514 0.3057
vn 0.2459 -0.9164 0.3157
vn 0.2807 -0.6860 0.6713
vn -0.0560 -0.7653 0.6412
vn 0.1914 -0.9619 0.1950
vn 0.3827 -0.9239 0.0018
vn 0.0018 -1.0000 0.0006
vn 0.5449 -0.8155 0.1950
vn 0.7071 -0.7072 0.0015
vn 0.3827 -0.9239 0.0005
vn -0.0372 -0.9514 -0.3058
vn 0.3579 -0.8624 -0.3579
vn 0.3057 -0.9514 0.0372
vn 0.3157 -0.9164 -0.2459
vn 0.6784 -0.6693 -0.3030
vn 0.6412 -0.7654 0.0560
vn 0.7653 -0.6412 0.0560
vn 0.6693 -0.6784 -0.3030
vn 0.9164 -0.3158 -0.2459
vn 0.8155 -0.5449 0.1951
vn 0.9239 -0.3827 0.0017
vn 0.7071 -0.7071 0.0003
vn 0.8623 -0.3142 -0.3972
vn 0.6683 -0.6920 -0.2729
vn 0.5976 -0.5217 -0.6088
vn 0.3972 -0.8623 -0.3141
vn 0.2729 -0.6683 -0.6920
vn 0.6088 -0.5976 -0.5217
vn 0.3142 -0.3972 -0.8623
vn 0.6920 -0.2729 -0.6683
vn 0.5217 -0.6088 -0.5976
vn 0.2459 -0.3158 -0.9164
vn 0.3030 -0.6784 -0.6693
vn -0.0561 -0.6412 -0.7653
vn -0.0560 -0.7653 -0.6412
vn 0.3030 -0.6693 -0.6784
vn 0.2459 -0.9165 -0.3157
vn 0.3057 0.0372 -0.9514
vn 0.3580 -0.3580 -0.8624
vn -0.0372 -0.3057 -0.9514
vn 0.6412 0.0560 -0.7653
vn 0.6784 -0.3030 -0.6693
vn 0.3157 -0.2458 -0.9164
vn 0.1913 -0.1950 -0.9619
vn 0.3826 -0.0018 -0.9239
vn 0.0018 -0.0006 -1.0000
vn 0.5449 -0.1950 -0.8155
vn 0.7071 -0.0015 -0.7071
vn 0.3827 -0.0005 -0.9239
vn -0.0372 0.3057 -0.9514
vn 0.3580 0.3580 -0.8624
vn 0.3057 -0.0372 -0.9514
vn 0.3157 0.2459 -0.9164
vn 0.6784 0.3031 -0.6693
vn 0.6412 -0.0560 -0.7653
vn 0.7653 -0.0560 -0.6412
vn 0.6693 0.3030 -0.6784
vn 0.9164 0.2459 -0.3158
vn 0.8155 -0.1951 -0.5449
vn 0.9239 -0.0017 -0.3827
vn 0.7071 -0.0003 -0.7071
vn 0.8623 0.3972 -0.3142
vn 0.6683 0.2728 -0.6920
vn 0.5976 0.6088 -0.5218
vn 0.3972 0.3142 -0.8623
vn 0.2501 0.6845 -0.6848
vn 0.6088 0.5218 -0.5976
vn 0.2459 0.9164 -0.3158
vn 0.2806 0.6620 -0.6950
vn -0.0560 0.7654 -0.6412
vn 0.6412 0.7653 0.0560
vn 0.6950 0.6620 -0.2806
vn 0.3157 0.9164 -0.2458
vn 0.1914 0.9623 0.1934
vn 0.0036 1.0000 0.0035
vn 0.3827 0.9239 0.0005
vn 0.1917 0.9626 -0.1915
vn 0.0001 0.9238 -0.3830
vn -0.1914 0.9623 -0.1933
vn -0.3826 0.9239 -0.0005
vn 0.1952 0.9619 0.1914
vn 0.0018 0.9239 0.3827
vn 0.0023 1.0000 0.0035
vn -0.2057 0.9459 0.2511
vn -0.2343 0.7397 0.6308
vn 0.1450 0.8021 0.5793
vn -0.5793 0.8021 -0.1449
vn -0.6308 0.7397 0.2343
vn -0.2511 0.9459 0.2057
vn -0.2511 0.2057 0.9459
vn -0.6308 0.2343 0.7397
vn -0.5793 -0.1450 0.8021
vn 0.1449 0.5793 0.8021
vn -0.2343 0.6308 0.7397
vn -0.2057 0.2511 0.9459
vn 0.1933 0.1914 0.9623
vn 0.0005 0.3827 0.9239
vn -0.1913 -0.1952 0.9619
vn -0.3826 -0.0018 0.9239
vn -0.0035 -0.0023 1.0000
vn -0.3057 0.0372 0.9514
vn -0.3579 -0.3580 0.8624
vn 0.0372 -0.3057 0.9514
vn -0.1933 -0.1914 0.9623
vn -0.0005 -0.3827 0.9239
vn -0.2459 -0.3158 0.9164
vn -0.3030 -0.6784 0.6693
vn 0.0560 -0.6412 0.7653
vn -0.1947 -0.5449 0.8156
vn -0.0017 -0.3827 0.9239
vn -0.0003 -0.7071 0.7071
vn 0.0560 -0.7653 0.6412
vn -0.3030 -0.6692 0.6784
vn -0.2458 -0.9164 0.3158
vn -0.1950 -0.8155 0.5449
vn -0.0015 -0.7071 0.7071
vn -0.0005 -0.9239 0.3827
vn 0.0372 -0.9514 0.3058
vn -0.3580 -0.8624 0.3579
vn -0.3057 -0.9514 -0.0372
vn -0.1950 -0.9619 0.1913
vn -0.0017 -0.9239 0.3826
vn -0.0006 -1.0000 0.0018
vn -0.3157 -0.9164 0.2459
vn -0.6784 -0.6693 0.3031
vn -0.6412 -0.7653 -0.0560
vn -0.3972 -0.8623 0.3142
vn -0.2729 -0.6683 0.6921
vn -0.6088 -0.5976 0.5218
vn -0.7653 -0.6412 -0.0560
vn -0.6693 -0.6784 0.3030
vn -0.9164 -0.3158 0.2459
vn -0.8623 -0.3142 0.3971
vn -0.6683 -0.6920 0.2728
vn -0.5976 -0.5218 0.6088
vn -0.9514 -0.3057 -0.0372
vn -0.8624 -0.3580 0.3580
vn -0.9514 0.0372 0.3057
vn -0.9164 -0.2459 0.3158
vn -0.6692 -0.3030 0.6784
vn -0.7653 0.0560 0.6412
vn -0.6412 0.0560 0.7653
vn -0.6784 -0.3031 0.6692
vn -0.3157 -0.2459 0.9164
vn -0.3142 -0.3971 0.8623
vn -0.6921 -0.2728 0.6683
vn -0.5218 -0.6088 0.5976
vn -0.5434 0.1950 0.8165
vn -0.8155 -0.1949 0.5449
vn -0.9239 -0.0017 0.3827
vn -0.8021 -0.1450 0.5793
vn -0.7397 0.2343 0.6308
vn -0.9459 0.2057 0.2511
vn -0.9623 -0.1933 0.1914
vn -0.9239 -0.0005 0.3826
vn -0.9619 0.1913 -0.1952
vn -0.9239 0.3826 -0.0018
vn -1.0000 0.0035 -0.0023
vn -0.9619 -0.1950 -0.1914
vn -1.0000 -0.0006 -0.0018
vn -0.9619 -0.1913 0.1954
vn -0.9239 -0.3826 0.0018
vn -1.0000 -0.0035 0.0023
vn -0.9164 -0.3158 -0.2459
vn -0.6620 -0.6950 -0.2806
vn -0.7653 -0.6412 0.0560
vn -0.7653 0.0560 -0.6412
vn -0.6620 -0.2806 -0.6950
vn -0.9164 -0.2459 -0.3157
vn -0.3971 -0.3142 -0.8623
vn -0.2729 -0.6920 -0.6683
vn -0.6088 -0.5218 -0.5976
vn -0.3142 -0.8623 -0.3971
vn -0.6844 -0.6848 -0.2501
vn -0.5218 -0.5976 -0.6088
vn 0.0560 -0.6412 -0.7653
vn -0.3030 -0.6784 -0.6693
vn -0.2459 -0.3157 -0.9164
vn -0.2459 -0.9164 -0.3157
vn -0.3031 -0.6692 -0.6784
vn 0.0560 -0.7653 -0.6412
vn -0.3058 -0.9514 0.0372
vn -0.3579 -0.8624 -0.3580
vn 0.0372 -0.9514 -0.3057
vn -0.6413 -0.7653 0.0560
vn -0.6713 -0.6859 -0.2807
vn -0.3158 -0.9164 -0.2459
vn -0.1914 -0.9623 0.1933
vn -0.0018 -1.0000 0.0018
vn -0.3826 -0.9239 0.0005
vn -0.5449 -0.8155 0.1951
vn -0.3827 -0.9239 0.0017
vn -0.7071 -0.7071 0.0003
vn -0.8155 -0.5449 0.1950
vn -0.7071 -0.7071 0.0015
vn -0.9239 -0.3827 0.0005
vn -0.1933 -0.9623 -0.1914
vn -0.0018 -1.0000 -0.0018
vn -0.0005 -0.9239 -0.3826
vn -0.0010 -1.0000 0.0023
vn 0.0023 -1.0000 -0.0010
vn -0.1951 -0.8155 -0.5449
vn -0.0018 -0.9239 -0.3827
vn -0.0003 -0.7072 -0.7071
vn -0.1950 -0.5449 -0.8155
vn -0.0015 -0.7071 -0.7071
vn -0.0005 -0.3827 -0.9239
vn 0.0372 -0.3058 -0.9514
vn -0.3580 -0.3580 -0.8624
vn -0.3057 0.0372 -0.9514
vn -0.1950 -0.1913 -0.9619
vn -0.0018 -0.3826 -0.9239
vn -0.0006 -0.0018 -1.0000
vn -0.1914 -0.1933 -0.9623
vn -0.0018 -0.0018 -1.0000
vn -0.3826 -0.0005 -0.9239
vn 0.0023 -0.0010 -1.0000
vn -0.0010 0.0023 -1.0000
vn -0.3058 -0.0372 -0.9514
vn -0.3580 0.3580 -0.8624
vn 0.0372 0.3057 -0.9514
vn 0.1950 0.1913 -0.9619
vn 0.0017 0.3826 -0.9239
vn 0.0006 0.0018 -1.0000
vn -0.2459 0.3157 -0.9164
vn -0.3030 0.6784 -0.6693
vn 0.0560 0.6412 -0.7654
vn 0.1950 0.5449 -0.8155
vn 0.0015 0.7071 -0.7071
vn 0.0005 0.3827 -0.9239
vn -0.0560 0.6412 -0.7653
vn 0.2807 0.6713 -0.6860
vn 0.2459 0.3158 -0.9164
vn 0.1951 0.8155 -0.5449
vn 0.0013 0.9237 -0.3830
vn 0.0003 0.7071 -0.7071
vn 0.0560 0.7653 -0.6412
vn -0.3030 0.6693 -0.6784
vn -0.2459 0.9164 -0.3157
vn 0.0372 0.9514 -0.3057
vn -0.3580 0.8624 -0.3580
vn -0.3057 0.9514 0.0372
vn -0.3158 0.9164 -0.2459
vn -0.6784 0.6693 -0.3030
vn -0.6412 0.7653 0.0560
vn -0.3971 0.8623 -0.3142
vn -0.2728 0.6683 -0.6920
vn -0.6088 0.5976 -0.5218
vn -0.7653 0.6412 0.0560
vn -0.6693 0.6784 -0.3031
vn -0.9164 0.3158 -0.2459
vn -0.8623 0.3142 -0.3972
vn -0.6683 0.6920 -0.2729
vn -0.5976 0.5218 -0.6088
vn -0.3142 0.3971 -0.8623
vn -0.6921 0.2728 -0.6683
vn -0.5218 0.6088 -0.5976
vn -0.9164 0.2459 -0.3158
vn -0.6693 0.3030 -0.6784
vn -0.7653 -0.0560 -0.6412
vn -0.6412 -0.0560 -0.7653
vn -0.6784 0.3030 -0.6693
vn -0.3158 0.2458 -0.9164
vn -0.8155 -0.1950 -0.5449
vn -0.7071 -0.0015 -0.7071
vn -0.9237 -0.0001 -0.3831
vn -0.5449 -0.1951 -0.8155
vn -0.3827 -0.0018 -0.9239
vn -0.7071 -0.0003 -0.7071
vn -0.3157 -0.2459 -0.9164
vn -0.6713 -0.2807 -0.6860
vn -0.6412 0.0560 -0.7653
vn -0.9514 0.3057 0.0372
vn -0.8624 0.3580 -0.3580
vn -0.9514 -0.0372 -0.3057
vn -0.8155 0.5449 -0.1950
vn -0.7071 0.7071 -0.0015
vn -0.9239 0.3827 -0.0005
vn -0.5449 0.8155 -0.1949
vn -0.3827 0.9239 -0.0018
vn -0.7071 0.7071 -0.0003
vn -0.9459 0.2511 0.2057
vn -0.7397 0.6308 0.2343
vn -0.8022 0.5792 -0.1450
vn 0.3057 -0.0372 0.9514
vn 0.3579 0.3580 0.8624
vn -0.0372 0.3057 0.9514
vn 0.2459 0.3158 0.9164
vn 0.3030 0.6784 0.6693
vn -0.0560 0.6412 0.7653
vn 0.1949 0.5449 0.8155
vn 0.0018 0.3827 0.9239
vn -0.0560 0.7653 0.6412
vn 0.3031 0.6692 0.6784
vn 0.2459 0.9164 0.3157
vn -0.0003 0.9238 0.3829
vn -0.1950 0.8165 0.5434
vn -0.0372 0.9514 0.3057
vn 0.3580 0.8624 0.3579
vn 0.3057 0.9514 -0.0372
vn 0.3157 0.9164 0.2459
vn 0.6784 0.6693 0.3031
vn 0.6412 0.7653 -0.0560
vn 0.3971 0.8623 0.3142
vn 0.2728 0.6683 0.6921
vn 0.6087 0.5976 0.5218
vn 0.7653 0.6412 -0.0560
vn 0.6693 0.6784 0.3030
vn 0.9164 0.3157 0.2459
vn 0.8623 0.3142 0.3972
vn 0.6683 0.6920 0.2728
vn 0.5976 0.5218 0.6088
vn 0.3142 0.3971 0.8623
vn 0.6920 0.2728 0.6683
vn 0.5218 0.6088 0.5976
vn 0.5449 0.8156 0.1947
vn 0.3827 0.9239 0.0017
vn 0.7071 0.7071 0.0003
vn 0.8155 0.5449 0.1950
vn 0.7071 0.7071 0.0015
vn 0.9239 0.3827 0.0005
vn 0.9164 0.3157 -0.2459
vn 0.6860 0.6713 -0.2807
vn 0.7653 0.6412 0.0560
vn 0.9514 -0.0372 -0.3057
vn 0.8624 0.3580 -0.3580
vn 0.9514 0.3057 0.0372
vn 0.9164 -0.2459 -0.3157
vn 0.6693 -0.3030 -0.6784
vn 0.7653 0.0560 -0.6412
vt 0.261655 0.526572
vt 0.263651 0.522719
vt 0.263683 0.526632
vt 0.261682 0.957291
vt 0.486856 0.526563
vt 0.486926 0.522639
vt 0.263721 0.957155
vt 0.486889 0.957064
vt 0.263719 0.961027
vt 0.486981 0.960733
vt 0.488794 0.957232
vt 0.488861 0.526560
vt 0.488868 0.960872
vt 0.487174 0.964379
vt 0.489474 0.966613
vt 0.487471 0.968168
vt 0.263667 0.964907
vt 0.261640 0.961405
vt 0.261406 0.968134
vt 0.263599 0.968863
vt 0.263528 0.972891
vt 0.487826 0.972251
vt 0.484736 0.468940
vt 0.487009 0.472177
vt 0.484806 0.472915
vt 0.484878 0.476963
vt 0.260331 0.964430
vt 0.261662 0.964695
vt 0.486749 0.468724
vt 0.488084 0.468453
vt 0.259891 0.961803
vt 0.486768 0.465423
vt 0.259590 0.957550
vt 0.488816 0.461558
vt 0.486724 0.461300
vt 0.484685 0.465046
vt 0.484685 0.461161
vt 0.486711 0.029835
vt 0.484677 0.029898
vt 0.488781 0.029653
vt 0.484708 0.025968
vt 0.486822 0.025758
vt 0.259590 0.526390
vt 0.261545 0.522508
vt 0.260152 0.519822
vt 0.261444 0.519205
vt 0.488221 0.023064
vt 0.488540 0.025566
vt 0.738873 0.976071
vt 0.740271 0.978768
vt 0.738974 0.979387
vt 0.736854 0.979857
vt 0.736759 0.975860
vt 0.484803 0.021968
vt 0.738763 0.971992
vt 0.736727 0.971932
vt 0.740835 0.972175
vt 0.738740 0.539622
vt 0.736697 0.539759
vt 0.740835 0.539365
vt 0.736700 0.535870
vt 0.738785 0.535495
vt 0.487059 0.518615
vt 0.489056 0.522556
vt 0.263556 0.518737
vt 0.490620 0.520029
vt 0.490759 0.522594
vt 0.740103 0.532466
vt 0.740540 0.535103
vt 0.492540 0.522097
vt 0.739029 0.528739
vt 0.738768 0.532192
vt 0.736901 0.523947
vt 0.736827 0.527996
vt 0.736754 0.531972
vt 0.490870 0.526460
vt 0.492921 0.526325
vt 0.495008 0.526187
vt 0.492654 0.958171
vt 0.511743 0.524604
vt 0.512100 0.528700
vt 0.515306 0.470700
vt 0.515306 0.257842
vt 0.625647 0.470700
vt 0.625647 0.257842
vt 0.736500 0.257635
vt 0.625647 0.256041
vt 0.736326 0.255615
vt 0.737303 0.254941
vt 0.737741 0.256952
vt 0.515306 0.255885
vt 0.738820 0.255478
vt 0.736186 0.253740
vt 0.737620 0.253163
vt 0.738061 0.254015
vt 0.737041 0.253435
vt 0.738542 0.252552
vt 0.737761 0.252046
vt 0.736990 0.251948
vt 0.739938 0.251002
vt 0.738891 0.250667
vt 0.737919 0.250396
vt 0.739584 0.253396
vt 0.515306 0.250015
vt 0.625647 0.251971
vt 0.515306 0.251971
vt 0.740132 0.037158
vt 0.625647 0.250015
vt 0.625647 0.037156
vt 0.515306 0.037156
vt 0.257714 0.474939
vt 0.260568 0.472268
vt 0.260213 0.476355
vt 0.258564 0.470711
vt 0.260864 0.468476
vt 0.259170 0.464968
vt 0.261057 0.464827
vt 0.259243 0.461329
vt 0.261146 0.461156
vt 0.257352 0.461700
vt 0.257959 0.467304
vt 0.257690 0.465185
vt 0.256193 0.466137
vt 0.255386 0.462271
vt 0.257124 0.468914
vt 0.254001 0.467777
vt 0.253268 0.462957
vt 0.255529 0.471992
vt 0.259058 0.467823
vt 0.738091 0.037156
vt 0.739112 0.037157
vt 0.736984 0.250208
vt 0.736045 0.250124
vt 0.737071 0.037156
vt 0.736088 0.251937
vt 0.625647 0.250135
vt 0.736050 0.037156
vt 0.506907 0.538720
vt 0.504512 0.972358
vt 0.504784 0.538033
vt 0.506608 0.972221
vt 0.506988 0.976465
vt 0.252962 0.029558
vt 0.255433 0.025459
vt 0.255053 0.029694
vt 0.257106 0.029828
vt 0.508666 0.972087
vt 0.257356 0.023387
vt 0.257217 0.025956
vt 0.508776 0.975968
vt 0.508914 0.978544
vt 0.510486 0.976010
vt 0.258924 0.025917
vt 0.258719 0.022542
vt 0.512488 0.979975
vt 0.512625 0.975931
vt 0.260923 0.021968
vt 0.261056 0.025999
vt 0.259119 0.029927
vt 0.261128 0.029929
vt 0.510684 0.971988
vt 0.512698 0.971987
vt 0.512680 0.539835
vt 0.510773 0.539663
vt 0.512590 0.536157
vt 0.510699 0.536016
vt 0.512397 0.532501
vt 0.510091 0.530261
vt 0.509239 0.526024
vt 0.507049 0.528977
vt 0.509486 0.533676
vt 0.508649 0.532062
vt 0.507716 0.534845
vt 0.505519 0.533203
vt 0.509216 0.535799
vt 0.510586 0.533155
vt 0.508877 0.539292
vt 0.625647 0.252104
vt 0.625647 0.254072
vt 0.490323 0.970840
vt 0.492509 0.967898
vt 0.625647 0.253928
vt 0.515306 0.253928
vt 0.491846 0.962040
vt 0.494039 0.963682
vt 0.625647 0.255885
vt 0.494775 0.958858
vt 0.490686 0.957601
vt 0.490079 0.963206
vt 0.490348 0.961088
vt 0.488981 0.963726
vt 0.490914 0.964818
vt 0.488521 0.465816
vt 0.259832 0.522315
vt 0.486924 0.022442
vt 0.740592 0.976265
vt 0.489260 0.519186
vt 0.625648 0.258009
vt 0.510279 0.979393
s 0
usemtl multitexture
f 2/1/1 3/2/2 1/3/3
f 1/3/4 7/4/5 2/1/6
f 4/5/7 3/2/8 49/6/9
f 5/7/10 4/5/11 8/8/12
f 6/9/13 7/4/14 5/7/15
f 10/10/16 5/7/17 8/8/12
f 9/11/18 10/10/19 8/8/20
f 152/12/21 8/8/22 4/5/23
f 11/13/24 12/14/25 10/10/26
f 12/14/27 6/9/28 10/10/29
f 12/14/30 141/15/31 13/16/32
f 13/16/33 15/17/34 12/14/35
f 15/17/36 25/18/37 6/9/38
f 19/19/39 15/17/40 17/20/41
f 18/21/42 19/19/43 17/20/44
f 74/22/45 17/20/46 13/16/47
f 82/23/48 19/24/49 20/25/50
f 20/25/51 19/24/52 18/26/42
f 19/19/53 22/27/54 16/28/55
f 21/29/56 22/30/57 19/24/53
f 25/18/58 22/27/59 23/31/60
f 26/32/61 22/30/62 21/29/63
f 25/18/64 24/33/65 7/4/66
f 24/34/67 26/32/68 28/35/69
f 28/35/70 27/36/71 29/37/72
f 26/32/73 82/23/74 27/36/75
f 30/38/76 29/37/77 31/39/78
f 33/40/79 28/35/80 30/38/81
f 115/41/82 30/38/83 31/39/84
f 32/42/85 33/40/86 30/38/87
f 33/43/88 35/44/89 2/1/90
f 2/1/91 24/33/92 33/43/93
f 35/44/94 36/45/95 37/46/96
f 32/42/97 36/47/98 34/48/99
f 40/49/100 36/50/101 38/51/102
f 40/49/103 39/52/104 41/53/105
f 39/54/106 32/42/107 115/41/108
f 42/55/109 41/53/110 43/56/111
f 44/57/112 40/49/113 42/55/114
f 45/58/115 43/56/116 46/59/117
f 48/60/118 42/55/119 45/58/120
f 124/61/121 45/58/122 46/59/123
f 47/62/124 48/60/125 45/58/126
f 48/63/127 51/64/128 49/6/129
f 49/6/130 44/65/131 48/63/132
f 51/64/133 52/66/134 53/67/135
f 47/62/136 52/68/137 50/69/138
f 53/67/139 52/66/140 55/70/141
f 55/71/141 52/68/142 54/72/143
f 58/73/144 55/71/145 56/74/146
f 55/71/147 125/75/148 56/74/149
f 151/76/150 55/70/151 57/77/152
f 57/77/153 55/70/145 58/78/144
f 58/78/154 147/79/155 57/77/153
f 59/80/156 56/74/157 127/81/158
f 59/82/159 61/83/160 58/84/144
f 58/84/144 61/83/160 60/85/161
f 61/86/162 129/87/163 62/88/164
f 62/88/165 64/89/166 61/86/160
f 61/86/160 64/89/166 63/90/167
f 63/91/168 60/85/169 61/83/160
f 64/89/170 145/92/171 63/90/172
f 139/93/173 64/89/174 62/88/175
f 64/89/166 67/94/176 65/95/177
f 66/96/178 67/94/179 64/89/180
f 70/97/181 67/94/182 68/98/183
f 68/98/183 67/94/184 69/99/185
f 65/95/186 67/94/187 70/97/188
f 69/99/185 67/94/187 66/96/189
f 73/100/190 70/97/181 71/101/191
f 70/97/192 94/102/193 71/101/194
f 145/92/195 70/97/196 72/103/197
f 72/103/198 70/97/181 73/100/190
f 73/104/199 140/105/200 72/106/201
f 71/101/202 75/107/203 73/100/190
f 74/108/204 73/104/190 18/109/42
f 18/109/42 73/104/190 75/110/205
f 76/111/206 77/112/207 75/113/208
f 18/26/209 77/112/210 20/25/211
f 78/114/212 79/115/213 77/112/214
f 20/25/215 79/115/216 82/23/217
f 79/115/218 84/116/219 81/117/220
f 82/23/221 81/117/222 27/36/223
f 81/117/224 85/118/225 83/119/226
f 27/36/227 83/119/228 29/37/229
f 84/116/230 87/120/231 85/118/232
f 84/116/233 88/121/234 86/122/235
f 87/120/236 89/123/237 91/124/238
f 89/123/239 88/121/240 92/125/241
f 91/124/242 90/126/243 99/127/244
f 89/123/245 93/128/246 90/126/247
f 93/128/248 78/114/249 76/111/250
f 78/114/251 88/121/252 80/129/253
f 71/101/254 93/130/255 76/131/256
f 95/132/257 93/130/258 94/102/259
f 94/102/260 69/99/261 95/132/262
f 96/133/263 90/134/264 95/132/265
f 95/132/266 69/99/185 96/133/267
f 96/133/267 69/99/185 97/135/268
f 97/135/269 98/136/270 96/133/267
f 100/109/271 96/133/267 98/136/272
f 99/137/273 96/133/267 100/109/271
f 136/138/274 100/139/275 98/140/272
f 101/141/276 103/142/277 100/139/271
f 100/143/271 103/144/277 102/145/278
f 102/145/279 99/127/280 100/143/271
f 103/144/281 114/146/282 102/145/283
f 137/147/284 103/142/285 101/141/286
f 103/144/287 106/148/288 104/149/289
f 105/150/290 106/151/291 103/142/287
f 108/152/292 106/151/293 105/150/294
f 110/153/295 106/148/296 107/154/297
f 109/155/298 108/152/299 116/156/300
f 110/153/301 109/157/302 111/158/303
f 112/159/304 111/158/305 113/160/306
f 114/146/307 110/153/308 112/159/309
f 113/160/310 85/118/311 112/159/312
f 112/159/313 87/120/314 114/146/315
f 114/146/316 91/124/317 102/145/318
f 31/39/319 111/158/320 115/41/321
f 83/119/322 31/39/323 29/37/229
f 115/41/324 109/157/325 39/54/326
f 39/52/327 116/156/328 41/53/329
f 116/156/330 118/161/331 117/162/332
f 41/53/333 117/162/334 43/56/335
f 119/163/336 118/161/337 120/164/338
f 43/56/339 119/163/340 46/59/117
f 120/164/341 121/165/342 119/163/343
f 121/165/344 46/59/345 119/163/346
f 122/166/347 123/167/348 121/165/349
f 123/167/350 124/61/351 121/165/352
f 125/75/353 47/62/354 124/61/355
f 127/81/356 125/75/357 123/167/358
f 123/167/359 128/168/360 127/81/361
f 127/81/362 129/169/363 59/80/364
f 128/168/365 132/170/366 129/169/367
f 128/168/368 133/171/369 130/172/370
f 132/170/371 131/173/372 138/174/373
f 131/173/374 133/171/375 134/175/376
f 122/166/377 133/171/378 126/176/379
f 131/173/380 135/177/381 136/138/382
f 135/177/383 122/166/384 120/164/385
f 135/177/386 101/141/387 136/138/388
f 120/164/389 137/147/390 135/177/391
f 108/152/392 137/147/393 118/161/394
f 138/174/395 136/138/396 98/140/397
f 139/93/398 138/178/399 97/135/400
f 62/88/401 132/179/402 139/93/403
f 69/99/404 139/93/405 97/135/406
f 13/16/407 140/180/408 74/22/409
f 141/15/410 142/181/411 140/180/412
f 72/106/413 142/182/414 145/183/415
f 142/181/416 146/184/417 144/185/418
f 63/91/419 142/182/420 144/186/421
f 144/185/422 147/79/423 60/187/424
f 146/184/425 149/188/426 147/79/427
f 146/184/428 150/189/429 148/190/430
f 149/188/431 11/13/432 9/11/433
f 11/13/434 150/189/435 14/191/436
f 141/15/437 150/189/438 143/192/439
f 57/77/440 149/188/441 151/76/442
f 151/76/443 9/11/444 152/12/445
f 51/64/446 151/76/447 152/12/448
f 49/6/449 152/12/450 4/5/451
f 35/44/452 44/65/453 3/2/454
f 2/1/455 35/44/456 3/2/457
f 1/3/458 5/7/459 7/4/460
f 4/5/461 1/3/462 3/2/463
f 5/7/464 1/3/462 4/5/465
f 6/9/466 25/18/467 7/4/468
f 10/10/469 6/9/470 5/7/471
f 9/11/472 11/13/473 10/10/474
f 152/12/475 9/11/476 8/8/477
f 11/13/478 14/191/479 12/14/480
f 12/14/481 15/17/482 6/9/483
f 12/14/484 14/191/485 141/15/486
f 13/16/487 17/20/488 15/17/489
f 15/17/490 16/28/491 25/18/492
f 19/19/493 16/28/494 15/17/495
f 74/22/496 18/21/42 17/20/497
f 82/23/498 21/29/499 19/24/500
f 25/18/501 16/28/502 22/27/503
f 26/32/504 23/193/505 22/30/506
f 25/18/507 23/31/508 24/33/509
f 24/34/510 23/193/511 26/32/512
f 28/35/513 26/32/514 27/36/515
f 26/32/516 21/29/517 82/23/518
f 30/38/519 28/35/520 29/37/521
f 33/40/522 24/34/523 28/35/524
f 115/41/525 32/42/526 30/38/527
f 32/42/528 34/48/529 33/40/530
f 33/43/531 34/194/532 35/44/533
f 2/1/534 7/4/535 24/33/536
f 35/44/537 34/194/538 36/45/539
f 32/42/540 38/195/541 36/47/542
f 40/49/543 37/196/544 36/50/545
f 40/49/546 38/51/547 39/52/548
f 39/54/549 38/195/550 32/42/551
f 42/55/552 40/49/553 41/53/554
f 44/57/555 37/196/556 40/49/557
f 45/58/558 42/55/559 43/56/560
f 48/60/561 44/57/562 42/55/563
f 124/61/564 47/62/565 45/58/566
f 47/62/567 50/69/568 48/60/569
f 48/63/570 50/197/571 51/64/572
f 49/6/573 3/2/574 44/65/575
f 51/64/576 50/197/577 52/66/578
f 47/62/579 54/72/580 52/68/581
f 55/71/582 54/72/583 125/75/584
f 151/76/585 53/67/586 55/70/587
f 58/78/588 60/187/589 147/79/590
f 59/80/591 58/73/144 56/74/592
f 61/86/593 59/198/159 129/87/594
f 63/91/595 144/186/596 60/85/597
f 64/89/598 65/95/599 145/92/600
f 139/93/601 66/96/602 64/89/603
f 70/97/604 68/98/605 94/102/606
f 145/92/607 65/95/608 70/97/609
f 73/104/610 74/108/204 140/105/611
f 71/101/612 76/131/613 75/107/614
f 76/111/615 78/114/616 77/112/617
f 18/26/618 75/113/205 77/112/619
f 78/114/620 80/129/621 79/115/622
f 20/25/623 77/112/624 79/115/625
f 79/115/626 80/129/627 84/116/628
f 82/23/629 79/115/630 81/117/631
f 81/117/632 84/116/633 85/118/634
f 27/36/635 81/117/636 83/119/637
f 84/116/638 86/122/639 87/120/640
f 84/116/641 80/129/642 88/121/643
f 87/120/644 86/122/645 89/123/646
f 89/123/647 86/122/648 88/121/649
f 91/124/650 89/123/651 90/126/652
f 89/123/653 92/125/654 93/128/655
f 93/128/656 92/125/657 78/114/658
f 78/114/659 92/125/660 88/121/661
f 71/101/202 94/102/259 93/130/662
f 95/132/663 90/134/664 93/130/255
f 94/102/665 68/98/666 69/99/667
f 96/133/668 99/137/273 90/134/669
f 97/135/670 138/178/671 98/136/672
f 136/138/673 101/141/276 100/139/674
f 102/145/675 91/124/676 99/127/677
f 103/144/678 104/149/679 114/146/680
f 137/147/681 105/150/682 103/142/683
f 108/152/684 107/199/685 106/151/686
f 110/153/687 104/149/688 106/148/689
f 109/155/690 107/199/691 108/152/692
f 110/153/693 107/154/694 109/157/695
f 112/159/696 110/153/697 111/158/698
f 114/146/699 104/149/700 110/153/701
f 113/160/702 83/119/703 85/118/704
f 112/159/705 85/118/706 87/120/707
f 114/146/708 87/120/709 91/124/710
f 31/39/711 113/160/712 111/158/713
f 83/119/714 113/160/712 31/39/715
f 115/41/716 111/158/717 109/157/718
f 39/52/719 109/155/720 116/156/721
f 116/156/722 108/152/723 118/161/724
f 41/53/725 116/156/726 117/162/727
f 119/163/728 117/162/729 118/161/730
f 43/56/731 117/162/729 119/163/732
f 120/164/733 122/166/734 121/165/735
f 121/165/736 124/61/737 46/59/738
f 122/166/739 126/176/740 123/167/741
f 123/167/742 125/75/743 124/61/744
f 125/75/745 54/72/746 47/62/747
f 127/81/748 56/74/749 125/75/750
f 123/167/751 126/176/752 128/168/753
f 127/81/754 128/168/755 129/169/756
f 128/168/757 130/172/758 132/170/759
f 128/168/760 126/176/761 133/171/762
f 132/170/763 130/172/764 131/173/765
f 131/173/766 130/172/767 133/171/768
f 122/166/769 134/175/770 133/171/771
f 131/173/772 134/175/773 135/177/774
f 135/177/775 134/175/776 122/166/777
f 135/177/778 137/147/779 101/141/780
f 120/164/781 118/161/782 137/147/783
f 108/152/784 105/150/785 137/147/786
f 138/174/787 131/173/788 136/138/789
f 139/93/790 132/179/791 138/178/792
f 62/88/793 129/87/794 132/179/795
f 69/99/796 66/96/797 139/93/798
f 13/16/799 141/15/800 140/180/801
f 141/15/802 143/192/803 142/181/804
f 72/106/805 140/105/806 142/182/420
f 142/181/807 143/192/808 146/184/809
f 63/91/810 145/183/415 142/182/811
f 144/185/812 146/184/813 147/79/814
f 146/184/815 148/190/816 149/188/817
f 146/184/818 143/192/819 150/189/820
f 149/188/821 148/190/822 11/13/823
f 11/13/824 148/190/825 150/189/826
f 141/15/827 14/191/828 150/189/829
f 57/77/830 147/79/831 149/188/832
f 151/76/833 149/188/834 9/11/835
f 51/64/836 53/67/837 151/76/838
f 49/6/839 51/64/840 152/12/841
f 35/44/842 37/46/843 44/65/844
