# Blender 5.0.1
# www.blender.org

mtllib material.mtl
o corner_DRF
v 0.295654 -0.295654 0.300162
v 0.295654 -0.297378 0.299819
v 0.297379 -0.295654 0.299819
v 0.295654 -0.104342 0.300162
v 0.104342 -0.295654 0.300162
v 0.102618 -0.295654 0.299819
v 0.104342 -0.297379 0.299819
v 0.104342 -0.104342 0.300162
v 0.104342 -0.102617 0.299819
v 0.102617 -0.104342 0.299819
v 0.102574 -0.102574 0.299405
v 0.101155 -0.104342 0.298842
v 0.100178 -0.104342 0.297379
v 0.101384 -0.102663 0.298612
v 0.101155 -0.295654 0.298842
v 0.101384 -0.297332 0.298612
v 0.100178 -0.295654 0.297379
v 0.099835 -0.295654 0.295654
v 0.100592 -0.297422 0.297422
v 0.100178 -0.297379 0.295654
v 0.101384 -0.298612 0.297333
v 0.101740 -0.298256 0.298257
v 0.102664 -0.298612 0.298612
v 0.104342 -0.298841 0.298842
v 0.102574 -0.297422 0.299405
v 0.102574 -0.299404 0.297422
v 0.102618 -0.299818 0.295654
v 0.104342 -0.299818 0.297379
v 0.104342 -0.300161 0.295654
v 0.295654 -0.299818 0.297379
v 0.295654 -0.300161 0.295654
v 0.297422 -0.299404 0.297422
v 0.295654 -0.298841 0.298841
v 0.297333 -0.298612 0.298612
v 0.297422 -0.297422 0.299405
v 0.298257 -0.298256 0.298257
v 0.298612 -0.297332 0.298612
v 0.298612 -0.298612 0.297333
v 0.298841 -0.298841 0.295654
v 0.299404 -0.297422 0.297422
v 0.299819 -0.297378 0.295654
v 0.299819 -0.295654 0.297379
v 0.300162 -0.295654 0.295654
v 0.298841 -0.295654 0.298841
v 0.299818 -0.104342 0.297379
v 0.300162 -0.104342 0.295654
v 0.299404 -0.102574 0.297422
v 0.298841 -0.104342 0.298841
v 0.297379 -0.104342 0.299819
v 0.298612 -0.102663 0.298612
v 0.297422 -0.102574 0.299404
v 0.298257 -0.101739 0.298257
v 0.297333 -0.101384 0.298612
v 0.298612 -0.101384 0.297333
v 0.297422 -0.100592 0.297422
v 0.297379 -0.100177 0.295654
v 0.295654 -0.100177 0.297379
v 0.295654 -0.099834 0.295654
v 0.295654 -0.099834 0.104342
v 0.104342 -0.099834 0.295654
v 0.104342 -0.099835 0.104342
v 0.104342 -0.100178 0.102618
v 0.102617 -0.100178 0.104342
v 0.102678 -0.100676 0.102678
v 0.101346 -0.101345 0.102721
v 0.102721 -0.101345 0.101346
v 0.101750 -0.101750 0.101750
v 0.101346 -0.102720 0.101346
v 0.102678 -0.102678 0.100677
v 0.100677 -0.102678 0.102678
v 0.100178 -0.104342 0.102618
v 0.100178 -0.102617 0.104342
v 0.099835 -0.104342 0.104342
v 0.099835 -0.104342 0.295654
v 0.099835 -0.295654 0.104342
v 0.100178 -0.295654 0.102618
v 0.100178 -0.297379 0.104342
v 0.100592 -0.297422 0.102574
v 0.101155 -0.298841 0.104342
v 0.101384 -0.298612 0.102664
v 0.102618 -0.299818 0.104342
v 0.101155 -0.298841 0.295654
v 0.104342 -0.300161 0.104342
v 0.102574 -0.299404 0.102574
v 0.104342 -0.299818 0.102618
v 0.102664 -0.298612 0.101385
v 0.104342 -0.298841 0.101155
v 0.101740 -0.298256 0.101740
v 0.102574 -0.297422 0.100592
v 0.102618 -0.295654 0.100178
v 0.104342 -0.297379 0.100178
v 0.101384 -0.297332 0.101385
v 0.101155 -0.295654 0.101155
v 0.101155 -0.104342 0.101155
v 0.102617 -0.104342 0.100178
v 0.104342 -0.104342 0.099835
v 0.104342 -0.102617 0.100178
v 0.295654 -0.104342 0.099835
v 0.104342 -0.295654 0.099835
v 0.295654 -0.295654 0.099835
v 0.297379 -0.295654 0.100178
v 0.295654 -0.297378 0.100178
v 0.297422 -0.297422 0.100592
v 0.297333 -0.298612 0.101384
v 0.298612 -0.297332 0.101384
v 0.298257 -0.298256 0.101740
v 0.298612 -0.298612 0.102664
v 0.299404 -0.297422 0.102574
v 0.298841 -0.298841 0.104342
v 0.297422 -0.299404 0.102574
v 0.297379 -0.299818 0.104342
v 0.295654 -0.299818 0.102618
v 0.295654 -0.300161 0.104342
v 0.295654 -0.298841 0.101155
v 0.297379 -0.299818 0.295654
v 0.299819 -0.297378 0.104342
v 0.300162 -0.295654 0.104342
v 0.299819 -0.295654 0.102618
v 0.300162 -0.104342 0.104342
v 0.299818 -0.104342 0.102618
v 0.299818 -0.102617 0.104342
v 0.299404 -0.102574 0.102574
v 0.298841 -0.101155 0.104342
v 0.299818 -0.102617 0.295654
v 0.298841 -0.101155 0.295654
v 0.298612 -0.101384 0.102664
v 0.297379 -0.100177 0.104342
v 0.297422 -0.100592 0.102574
v 0.295654 -0.100177 0.102618
v 0.297333 -0.101384 0.101384
v 0.297422 -0.102574 0.100592
v 0.295654 -0.101155 0.101155
v 0.298257 -0.101739 0.101740
v 0.298612 -0.102663 0.101384
v 0.298841 -0.104342 0.101155
v 0.297379 -0.104342 0.100178
v 0.298841 -0.295654 0.101155
v 0.295654 -0.102617 0.100178
v 0.104342 -0.101155 0.101155
v 0.100178 -0.102617 0.295654
v 0.100592 -0.102574 0.297422
v 0.101155 -0.101155 0.295654
v 0.101384 -0.101384 0.297333
v 0.102617 -0.100178 0.295654
v 0.101155 -0.101155 0.104342
v 0.102574 -0.100592 0.297422
v 0.104342 -0.100178 0.297379
v 0.102664 -0.101384 0.298612
v 0.104342 -0.101155 0.298842
v 0.101740 -0.101740 0.298257
v 0.295654 -0.101155 0.298841
v 0.295654 -0.102617 0.299819
vn 0.0782 -0.4280 0.9004
vn 0.4280 -0.0782 0.9004
vn -0.0141 0.0141 0.9998
vn 0.0006 -0.0018 1.0000
vn 0.1950 -0.1913 0.9619
vn 0.0018 -0.3826 0.9239
vn 0.0018 0.0006 1.0000
vn 0.1913 0.1950 0.9619
vn 0.3826 0.0018 0.9239
vn -0.0023 0.0010 1.0000
vn 0.0010 -0.0023 1.0000
vn 0.0018 0.0018 1.0000
vn -0.4280 -0.0782 0.9004
vn -0.0782 -0.4280 0.9004
vn 0.0141 0.0141 0.9998
vn -0.1931 -0.1933 0.9619
vn -0.3826 -0.0005 0.9239
vn -0.0018 -0.0018 1.0000
vn -0.0782 0.4280 0.9004
vn -0.4280 0.0782 0.9004
vn 0.0141 -0.0141 0.9998
vn 0.0005 0.3826 0.9239
vn 0.1933 0.1914 0.9623
vn -0.4009 0.4022 0.8231
vn -0.7356 0.0689 0.6739
vn -0.3782 -0.0024 0.9257
vn -0.7071 0.0003 0.7071
vn -0.5449 0.1951 0.8155
vn -0.3827 0.0018 0.9239
vn -0.6739 0.0689 0.7356
vn -0.8231 0.4022 0.4009
vn -0.9257 -0.0025 0.3782
vn -0.9239 0.0005 0.3827
vn -0.8155 0.1950 0.5449
vn -0.7071 0.0015 0.7071
vn -0.7356 -0.0688 0.6739
vn -0.4009 -0.4022 0.8231
vn -0.3782 0.0025 0.9257
vn -0.8231 -0.4022 0.4009
vn -0.6739 -0.0689 0.7356
vn -0.9256 0.0029 0.3785
vn -1.0000 -0.0018 0.0018
vn -0.8726 -0.3453 0.3453
vn -0.9237 -0.0013 0.3830
vn -1.0000 0.0023 0.0035
vn -0.9619 0.1954 0.1913
vn -0.9239 0.0018 0.3826
vn -0.6739 -0.7356 0.0689
vn -0.8231 -0.4009 0.4022
vn -0.9256 -0.3786 -0.0029
vn -0.9237 -0.3830 0.0013
vn -0.8726 -0.3453 0.3454
vn -0.8726 -0.3454 0.3454
vn -0.5774 -0.5773 0.5773
vn -0.6677 -0.2762 0.6914
vn -0.6676 -0.6914 0.2762
vn -0.3971 -0.3142 0.8623
vn -0.6087 -0.5218 0.5976
vn -0.2728 -0.6921 0.6683
vn -0.3141 -0.8623 0.3972
vn -0.5218 -0.5976 0.6088
vn -0.6844 -0.6848 0.2501
vn -0.4022 -0.4009 0.8231
vn -0.0689 -0.7356 0.6739
vn 0.0025 -0.3782 0.9257
vn -0.0689 -0.6739 0.7356
vn -0.4023 -0.8231 0.4009
vn 0.0024 -0.9257 0.3782
vn -0.0782 -0.9004 0.4280
vn -0.4280 -0.9004 0.0781
vn 0.0141 -0.9998 -0.0141
vn -0.4009 -0.8231 0.4022
vn -0.7356 -0.6739 0.0689
vn -0.3782 -0.9257 -0.0024
vn -0.1933 -0.9619 0.1932
vn -0.0006 -0.9239 0.3826
vn -0.0018 -1.0000 0.0018
vn 0.0003 -0.7072 0.7071
vn 0.1951 -0.8155 0.5449
vn 0.0017 -0.9239 0.3827
vn 0.4280 -0.9004 0.0782
vn 0.0782 -0.9004 0.4280
vn -0.0141 -0.9998 -0.0141
vn 0.4023 -0.8231 0.4009
vn 0.0689 -0.6739 0.7356
vn -0.0024 -0.9257 0.3782
vn 0.0689 -0.7357 0.6738
vn 0.4022 -0.4009 0.8231
vn -0.0024 -0.3783 0.9257
vn 0.0005 -0.3827 0.9239
vn 0.1950 -0.5450 0.8155
vn 0.0015 -0.7071 0.7071
vn 0.3142 -0.3972 0.8623
vn 0.5218 -0.6088 0.5976
vn 0.6920 -0.2729 0.6683
vn 0.3972 -0.8623 0.3142
vn 0.6088 -0.5976 0.5218
vn 0.2729 -0.6683 0.6920
vn 0.8623 -0.3141 0.3973
vn 0.5976 -0.5218 0.6088
vn 0.6683 -0.6920 0.2729
vn 0.8231 -0.4009 0.4022
vn 0.6738 -0.7357 0.0689
vn 0.9257 -0.3782 -0.0024
vn 0.7356 -0.6739 0.0689
vn 0.4009 -0.8231 0.4022
vn 0.3782 -0.9257 -0.0025
vn 0.9004 -0.0782 0.4280
vn 0.9004 -0.4280 0.0781
vn 0.9998 0.0141 -0.0141
vn 0.6739 -0.0689 0.7356
vn 0.8231 -0.4022 0.4009
vn 0.9257 0.0024 0.3782
vn 0.9239 0.0005 0.3826
vn 0.9623 0.1933 0.1914
vn 1.0000 0.0018 0.0018
vn 0.7071 0.0003 0.7071
vn 0.8155 0.1951 0.5449
vn 0.9239 0.0018 0.3827
vn 0.9004 0.4280 0.0782
vn 0.9004 0.0782 0.4280
vn 0.9998 -0.0141 -0.0141
vn 0.8231 0.4022 0.4009
vn 0.6739 0.0689 0.7356
vn 0.9257 -0.0025 0.3782
vn 0.7356 0.0689 0.6739
vn 0.4009 0.4022 0.8231
vn 0.3782 -0.0025 0.9257
vn 0.3827 0.0005 0.9239
vn 0.5449 0.1950 0.8155
vn 0.7071 0.0015 0.7071
vn 0.3972 0.3142 0.8623
vn 0.6088 0.5218 0.5976
vn 0.2502 0.6844 0.6848
vn 0.8623 0.3972 0.3142
vn 0.5976 0.6088 0.5218
vn 0.6683 0.2729 0.6920
vn 0.2762 0.6676 0.6914
vn 0.5773 0.5774 0.5773
vn 0.3454 0.8726 0.3454
vn 0.5774 0.5774 0.5773
vn 0.6914 0.6676 0.2762
vn 0.0018 1.0000 0.0018
vn 0.3453 0.8726 0.3453
vn 0.3830 0.9237 0.0013
vn 0.4009 0.8231 0.4022
vn 0.7356 0.6739 0.0689
vn 0.3786 0.9256 -0.0029
vn 0.0689 0.6739 0.7356
vn 0.4022 0.8231 0.4009
vn -0.0029 0.9256 0.3786
vn 0.0013 0.9237 0.3830
vn 0.3454 0.8726 0.3453
vn 0.0006 1.0000 0.0018
vn 0.1950 0.9619 0.1913
vn 0.0013 0.9238 0.3830
vn 0.0035 1.0000 -0.0023
vn 0.1913 0.9619 -0.1954
vn 0.3826 0.9239 -0.0018
vn 0.0035 1.0000 -0.0035
vn -0.0018 1.0000 -0.0018
vn -0.0035 1.0000 0.0035
vn 0.1952 0.9623 -0.1896
vn 0.0023 1.0000 -0.0035
vn 0.0017 0.9239 -0.3826
vn -0.0016 0.9238 -0.3828
vn -0.3417 0.8755 -0.3417
vn -0.3828 0.9238 -0.0016
vn -0.3828 0.9238 -0.0003
vn -0.1915 0.9626 -0.1917
vn -0.4186 0.7962 -0.4369
vn -0.7827 0.6074 -0.1359
vn -0.4329 0.8996 -0.0570
vn -0.1359 0.6074 -0.7827
vn -0.4369 0.7962 -0.4186
vn -0.0570 0.8997 -0.4329
vn -0.3417 0.8755 -0.3418
vn -0.5773 0.5774 -0.5773
vn -0.6768 0.6768 -0.2897
vn -0.2898 0.6768 -0.6768
vn -0.3418 0.8754 -0.3417
vn -0.8755 0.3417 -0.3417
vn -0.5774 0.5773 -0.5773
vn -0.6768 0.2898 -0.6768
vn -0.5773 0.5773 -0.5774
vn -0.3417 0.3417 -0.8755
vn -0.6768 0.6768 -0.2898
vn -0.3418 0.3417 -0.8755
vn -0.2897 0.6767 -0.6768
vn -1.0000 0.0018 -0.0018
vn -0.9238 0.0016 -0.3828
vn -0.7962 0.4369 -0.4186
vn -0.6074 0.1359 -0.7827
vn -0.8996 0.0570 -0.4329
vn -0.6074 0.7827 -0.1359
vn -0.7962 0.4186 -0.4369
vn -0.8996 0.4329 -0.0569
vn -0.9238 0.3828 -0.0016
vn -1.0000 0.0018 -0.0006
vn -0.9619 0.1913 -0.1950
vn -0.9238 0.3828 -0.0015
vn -0.9238 0.0003 -0.3828
vn -0.9626 0.1917 -0.1915
vn -1.0000 0.0035 0.0035
vn -1.0000 -0.0035 -0.0035
vn -0.9004 -0.0782 -0.4280
vn -0.9004 -0.4280 -0.0781
vn -0.9998 0.0124 0.0123
vn -1.0000 -0.0018 0.0006
vn -0.9619 -0.1914 0.1950
vn -0.8231 -0.4009 -0.4022
vn -0.6739 -0.7356 -0.0688
vn -0.9257 -0.3782 0.0025
vn -0.9237 -0.3831 0.0001
vn -0.8155 -0.5449 0.1950
vn -0.7071 -0.7071 0.0015
vn -0.7356 -0.6739 -0.0689
vn -0.4009 -0.8231 -0.4022
vn -0.3782 -0.9257 0.0025
vn -0.7071 -0.7071 0.0003
vn -0.5449 -0.8155 0.1951
vn -0.3827 -0.9239 0.0017
vn -0.4280 -0.9004 -0.0782
vn -0.0782 -0.9004 -0.4280
vn 0.0141 -0.9998 0.0141
vn -0.3826 -0.9239 0.0005
vn -0.1914 -0.9623 0.1933
vn -0.4022 -0.8231 -0.4009
vn -0.0688 -0.6739 -0.7356
vn 0.0025 -0.9257 -0.3782
vn -0.3971 -0.8623 -0.3142
vn -0.6087 -0.5976 -0.5218
vn -0.2728 -0.6683 -0.6921
vn -0.0689 -0.7356 -0.6739
vn -0.4022 -0.4009 -0.8231
vn 0.0025 -0.3782 -0.9257
vn -0.3143 -0.3972 -0.8623
vn -0.5218 -0.6088 -0.5976
vn -0.6921 -0.2728 -0.6683
vn -0.0782 -0.4280 -0.9004
vn -0.4280 -0.0781 -0.9004
vn 0.0124 0.0123 -0.9998
vn -0.4009 -0.4022 -0.8231
vn -0.7356 -0.0689 -0.6739
vn -0.3782 0.0025 -0.9257
vn -0.6739 -0.0689 -0.7356
vn -0.8231 -0.4022 -0.4009
vn -0.9257 0.0025 -0.3782
vn -0.8623 -0.3142 -0.3972
vn -0.5976 -0.5218 -0.6088
vn -0.6683 -0.6921 -0.2728
vn -0.7071 0.0006 -0.7071
vn -0.8155 0.1951 -0.5449
vn -0.9238 0.0015 -0.3829
vn -0.3829 0.0003 -0.9238
vn -0.5449 0.1950 -0.8155
vn -0.7071 0.0018 -0.7071
vn -0.7827 0.1359 -0.6074
vn -0.4186 0.4369 -0.7962
vn -0.4329 0.0570 -0.8996
vn -0.0018 0.0006 -1.0000
vn -0.1913 0.1950 -0.9619
vn -0.3828 0.0015 -0.9238
vn -0.3828 0.0016 -0.9238
vn -0.0018 0.0018 -1.0000
vn -0.0016 0.3828 -0.9238
vn -0.0003 0.3828 -0.9238
vn -0.1917 0.1915 -0.9626
vn 0.0018 -0.0018 -1.0000
vn 0.0035 0.0035 -1.0000
vn -0.0035 -0.0035 -1.0000
vn 0.3826 0.0005 -0.9239
vn 0.1914 0.1933 -0.9623
vn 0.3830 -0.0013 -0.9237
vn 0.3453 -0.3454 -0.8726
vn 0.3453 -0.3453 -0.8726
vn 0.0013 -0.3830 -0.9238
vn 0.0001 -0.3830 -0.9237
vn 0.1917 -0.1915 -0.9626
vn 0.4022 -0.4009 -0.8231
vn 0.0689 -0.7356 -0.6739
vn -0.0029 -0.3786 -0.9256
vn 0.7356 -0.0689 -0.6739
vn 0.4009 -0.4022 -0.8231
vn 0.3786 0.0029 -0.9256
vn 0.3454 -0.3454 -0.8726
vn 0.5773 -0.5773 -0.5774
vn 0.2761 -0.6914 -0.6676
vn 0.6914 -0.2762 -0.6676
vn 0.8623 -0.3972 -0.3142
vn 0.5976 -0.6088 -0.5218
vn 0.6848 -0.2502 -0.6844
vn 0.3142 -0.8623 -0.3972
vn 0.5218 -0.5976 -0.6088
vn 0.6920 -0.6683 -0.2729
vn 0.6739 -0.7356 -0.0689
vn 0.8231 -0.4009 -0.4022
vn 0.9257 -0.3782 0.0024
vn 0.4009 -0.8231 -0.4022
vn 0.7356 -0.6739 -0.0689
vn 0.3782 -0.9257 0.0024
vn 0.0782 -0.9004 -0.4281
vn 0.4280 -0.9004 -0.0781
vn -0.0141 -0.9998 0.0141
vn 0.0689 -0.6739 -0.7356
vn 0.4022 -0.8231 -0.4009
vn -0.0025 -0.9257 -0.3782
vn -0.1950 -0.9623 -0.1896
vn -0.0006 -1.0000 -0.0018
vn -0.0017 -0.9239 -0.3826
vn -0.1950 -0.8165 -0.5434
vn -0.0005 -0.9239 -0.3827
vn -0.0015 -0.7071 -0.7071
vn 0.0003 -0.7071 -0.7071
vn 0.1950 -0.5449 -0.8155
vn 0.0013 -0.3831 -0.9237
vn 0.0018 -1.0000 0.0006
vn 0.1914 -0.9619 0.1950
vn 0.3827 -0.9239 0.0017
vn -0.0010 -1.0000 -0.0023
vn 0.0023 -1.0000 0.0010
vn 0.3827 -0.9239 0.0005
vn 0.5449 -0.8155 0.1950
vn 0.7071 -0.7071 0.0015
vn 0.7071 -0.7071 0.0003
vn 0.8155 -0.5449 0.1951
vn 0.9239 -0.3827 0.0017
vn 0.9004 -0.4280 -0.0782
vn 0.9004 -0.0781 -0.4280
vn 0.9998 0.0141 0.0141
vn 0.9239 -0.3826 0.0005
vn 0.9623 -0.1914 0.1933
vn 1.0000 -0.0018 0.0018
vn 1.0000 0.0006 -0.0018
vn 0.9620 0.1950 -0.1913
vn 0.9239 0.0018 -0.3826
vn 1.0000 0.0010 0.0023
vn 1.0000 -0.0023 -0.0010
vn 1.0000 0.0018 -0.0018
vn 0.9004 0.0782 -0.4280
vn 0.9004 0.4280 -0.0782
vn 0.9998 -0.0141 0.0141
vn 0.9239 0.3826 -0.0005
vn 0.9623 0.1914 -0.1933
vn 0.8231 0.4009 -0.4022
vn 0.6739 0.7356 -0.0688
vn 0.9257 0.3782 0.0025
vn 0.7071 0.7071 -0.0003
vn 0.8155 0.5449 -0.1951
vn 0.9239 0.3827 -0.0017
vn 0.6739 0.7356 0.0689
vn 0.8231 0.4009 0.4022
vn 0.9257 0.3782 -0.0024
vn 0.3827 0.9239 -0.0005
vn 0.5449 0.8155 -0.1950
vn 0.7071 0.7071 -0.0015
vn 0.7356 0.6739 -0.0689
vn 0.4009 0.8231 -0.4022
vn 0.3782 0.9257 0.0024
vn 0.4280 0.9004 -0.0782
vn 0.0781 0.9004 -0.4280
vn -0.0124 0.9998 0.0124
vn 0.4022 0.8231 -0.4009
vn 0.0688 0.6739 -0.7356
vn -0.0024 0.9257 -0.3782
vn 0.3972 0.8623 -0.3142
vn 0.6088 0.5976 -0.5218
vn 0.2728 0.6683 -0.6921
vn 0.0689 0.7356 -0.6739
vn 0.4022 0.4009 -0.8231
vn -0.0025 0.3782 -0.9257
vn 0.3142 0.3972 -0.8623
vn 0.5218 0.6088 -0.5976
vn 0.6920 0.2729 -0.6683
vn 0.8623 0.3142 -0.3971
vn 0.5976 0.5218 -0.6087
vn 0.6683 0.6921 -0.2728
vn 0.4009 0.4022 -0.8231
vn 0.7356 0.0689 -0.6739
vn 0.3782 -0.0025 -0.9257
vn 0.6739 0.0689 -0.7356
vn 0.8231 0.4022 -0.4009
vn 0.9257 -0.0025 -0.3782
vn 0.7071 0.0003 -0.7071
vn 0.5450 0.1947 -0.8156
vn 0.3827 0.0018 -0.9239
vn 0.9239 0.0005 -0.3827
vn 0.8155 0.1950 -0.5449
vn 0.7072 0.0015 -0.7071
vn 0.8231 -0.4022 -0.4009
vn 0.6739 -0.0689 -0.7356
vn 0.9257 0.0024 -0.3782
vn 0.0782 0.4280 -0.9004
vn 0.4280 0.0782 -0.9004
vn -0.0124 -0.0123 -0.9998
vn 0.1949 0.5464 -0.8145
vn 0.0003 0.7071 -0.7071
vn 0.0017 0.3827 -0.9239
vn -0.0003 0.9238 -0.3829
vn -0.1950 0.8155 -0.5449
vn -0.0018 0.7071 -0.7071
vn -0.4369 0.4186 -0.7962
vn -0.1359 0.7827 -0.6074
vn -0.0570 0.4329 -0.8996
vn -0.9004 0.0782 0.4280
vn -0.9004 0.4280 0.0781
vn -0.9998 -0.0124 -0.0123
vn -0.8231 0.4009 0.4022
vn -0.6739 0.7356 0.0689
vn -0.9257 0.3782 -0.0025
vn -0.9238 0.3829 -0.0003
vn -0.8155 0.5449 -0.1950
vn -0.7071 0.7071 -0.0018
vn -0.7356 0.6739 0.0689
vn -0.4009 0.8231 0.4022
vn -0.3782 0.9257 -0.0025
vn -0.7071 0.7071 -0.0006
vn -0.5449 0.8155 -0.1951
vn -0.3829 0.9238 -0.0015
vn -0.4280 0.9004 0.0782
vn -0.0782 0.9004 0.4280
vn 0.0123 0.9998 -0.0124
vn -0.4022 0.8231 0.4009
vn -0.0689 0.6739 0.7356
vn 0.0024 0.9257 0.3782
vn -0.3972 0.8623 0.3142
vn -0.6088 0.5976 0.5218
vn -0.2728 0.6683 0.6921
vn -0.0689 0.7356 0.6739
vn -0.4022 0.4009 0.8231
vn 0.0025 0.3782 0.9257
vn -0.3142 0.3972 0.8623
vn -0.5218 0.6088 0.5976
vn -0.6920 0.2729 0.6683
vn -0.8623 0.3142 0.3972
vn -0.5976 0.5218 0.6088
vn -0.6683 0.6920 0.2729
vn 0.0001 0.9237 0.3831
vn 0.1950 0.8155 0.5449
vn 0.0015 0.7071 0.7071
vn 0.0003 0.7071 0.7071
vn 0.1951 0.5449 0.8155
vn 0.0017 0.3827 0.9239
vn 0.4022 0.4009 0.8231
vn 0.0689 0.7356 0.6739
vn -0.0024 0.3782 0.9257
vn 0.4280 0.0782 0.9004
vn 0.0781 0.4280 0.9004
vn -0.0141 -0.0141 0.9998
vn 0.4009 -0.4023 0.8231
vn 0.7356 -0.0689 0.6739
vn 0.3782 0.0024 0.9257
vn -0.0372 -0.3058 0.9514
vn 0.3580 -0.3580 0.8624
vn 0.3057 0.0372 0.9514
vn -0.1933 -0.1914 0.9623
vn -0.0005 -0.3826 0.9239
vn 0.1914 -0.1933 0.9623
vn 0.0018 -0.0018 1.0000
vn 0.3826 -0.0005 0.9239
vn -0.0010 0.0023 1.0000
vn 0.0023 -0.0010 1.0000
vn -0.3058 0.0372 0.9514
vn -0.3580 -0.3579 0.8624
vn 0.0372 -0.3057 0.9514
vn -0.0018 0.0006 1.0000
vn -0.3826 0.0017 0.9239
vn -0.1896 0.1950 0.9623
vn 0.0372 0.3058 0.9514
vn -0.3579 0.3580 0.8624
vn -0.3057 -0.0372 0.9514
vn -0.1950 0.1913 0.9620
vn -0.0018 0.3826 0.9239
vn -0.0006 0.0018 1.0000
vn -0.3158 0.2459 0.9164
vn -0.6784 0.3030 0.6693
vn -0.6412 -0.0560 0.7653
vn -0.5449 -0.1950 0.8155
vn -0.7071 -0.0015 0.7071
vn -0.3827 -0.0005 0.9239
vn -0.7653 -0.0560 0.6412
vn -0.6692 0.3031 0.6784
vn -0.9164 0.2459 0.3158
vn -0.8155 -0.1950 0.5449
vn -0.9237 -0.0013 0.3831
vn -0.7071 -0.0003 0.7071
vn -0.6412 0.0559 0.7653
vn -0.6713 -0.2807 0.6860
vn -0.3157 -0.2459 0.9164
vn -0.9164 -0.2459 0.3158
vn -0.6620 -0.2806 0.6950
vn -0.7653 0.0560 0.6412
vn -0.9626 -0.1917 0.1915
vn -0.9237 -0.0001 0.3830
vn -0.7653 -0.6412 -0.0560
vn -0.6620 -0.6950 0.2806
vn -0.9164 -0.3158 0.2459
vn -0.3143 -0.3972 0.8623
vn -0.6845 -0.2501 0.6848
vn -0.5219 -0.6087 0.5976
vn -0.3972 -0.8623 0.3142
vn -0.2729 -0.6683 0.6920
vn -0.6089 -0.5975 0.5218
vn -0.2459 -0.3157 0.9164
vn -0.3031 -0.6784 0.6693
vn 0.0560 -0.6412 0.7653
vn 0.0561 -0.7653 0.6412
vn -0.3030 -0.6693 0.6784
vn -0.2458 -0.9164 0.3157
vn 0.0372 -0.9514 0.3057
vn -0.3580 -0.8624 0.3580
vn -0.3057 -0.9514 -0.0372
vn -0.3157 -0.9164 0.2459
vn -0.6713 -0.6860 0.2807
vn -0.6412 -0.7653 -0.0560
vn 0.0006 -1.0000 0.0018
vn 0.1950 -0.9623 0.1896
vn -0.1950 -0.8155 0.5449
vn -0.0015 -0.7071 0.7071
vn -0.0005 -0.9239 0.3827
vn 0.3057 -0.9514 -0.0372
vn 0.3580 -0.8624 0.3580
vn -0.0372 -0.9514 0.3057
vn 0.2458 -0.9164 0.3157
vn 0.3030 -0.6693 0.6784
vn -0.0560 -0.7654 0.6412
vn -0.0560 -0.6412 0.7653
vn 0.3030 -0.6784 0.6693
vn 0.2458 -0.3157 0.9165
vn -0.1951 -0.5449 0.8155
vn -0.0017 -0.3827 0.9239
vn -0.0003 -0.7071 0.7071
vn 0.3972 -0.3142 0.8623
vn 0.2729 -0.6920 0.6683
vn 0.6088 -0.5218 0.5976
vn 0.3142 -0.8623 0.3971
vn 0.6920 -0.6683 0.2729
vn 0.5218 -0.5976 0.6088
vn 0.8623 -0.3972 0.3141
vn 0.6683 -0.2729 0.6920
vn 0.5976 -0.6088 0.5217
vn 0.9165 -0.3157 0.2459
vn 0.6693 -0.6784 0.3030
vn 0.7653 -0.6412 -0.0561
vn 0.6412 -0.7653 -0.0560
vn 0.6784 -0.6693 0.3030
vn 0.3157 -0.9164 0.2459
vn 0.9514 0.0372 0.3057
vn 0.8624 -0.3580 0.3580
vn 0.9514 -0.3057 -0.0372
vn 0.7653 0.0560 0.6412
vn 0.6693 -0.3030 0.6784
vn 0.9164 -0.2459 0.3158
vn 0.9620 -0.1950 0.1913
vn 0.9239 -0.0017 0.3826
vn 1.0000 -0.0006 0.0018
vn 0.8155 -0.1950 0.5449
vn 0.7071 -0.0015 0.7071
vn 0.9239 -0.0005 0.3827
vn 0.9514 0.3058 -0.0372
vn 0.8624 0.3580 0.3580
vn 0.9514 -0.0372 0.3057
vn 0.9164 0.2459 0.3157
vn 0.6693 0.3030 0.6784
vn 0.7653 -0.0560 0.6412
vn 0.6412 -0.0559 0.7653
vn 0.6784 0.3031 0.6693
vn 0.3157 0.2459 0.9164
vn 0.5449 -0.1951 0.8155
vn 0.3827 -0.0017 0.9239
vn 0.7071 -0.0003 0.7071
vn 0.3142 0.3971 0.8623
vn 0.6920 0.2729 0.6683
vn 0.5218 0.6088 0.5976
vn 0.8623 0.3142 0.3971
vn 0.6848 0.6844 0.2501
vn 0.5976 0.5218 0.6088
vn 0.3157 0.9164 0.2459
vn 0.6950 0.6620 0.2806
vn 0.6412 0.7653 -0.0560
vn -0.0560 0.7653 0.6412
vn 0.2806 0.6620 0.6950
vn 0.2459 0.9164 0.3157
vn -0.1933 0.9623 0.1914
vn -0.0035 1.0000 0.0036
vn -0.0005 0.9239 0.3827
vn 0.1915 0.9626 0.1917
vn 0.3830 0.9238 0.0001
vn -0.0003 0.9238 -0.3828
vn -0.1917 0.9623 -0.1932
vn -0.1914 0.9619 0.1952
vn -0.3827 0.9239 0.0018
vn -0.0035 1.0000 0.0023
vn -0.2511 0.9459 -0.2057
vn -0.6308 0.7397 -0.2343
vn -0.5793 0.8021 0.1450
vn 0.1450 0.8021 -0.5793
vn -0.2343 0.7397 -0.6308
vn -0.2057 0.9459 -0.2511
vn -0.9459 0.2057 -0.2511
vn -0.7397 0.2343 -0.6308
vn -0.8021 -0.1450 -0.5793
vn -0.8021 0.5793 0.1449
vn -0.7397 0.6308 -0.2343
vn -0.9459 0.2511 -0.2057
vn -0.9623 0.1914 0.1933
vn -0.9239 0.3826 0.0005
vn -0.9619 -0.1952 -0.1913
vn -0.9239 -0.0017 -0.3826
vn -1.0000 -0.0023 -0.0035
vn -0.9514 0.0372 -0.3057
vn -0.8624 -0.3580 -0.3579
vn -0.9514 -0.3057 0.0372
vn -0.9623 -0.1914 -0.1933
vn -0.9239 -0.3826 -0.0005
vn -0.9164 -0.3157 -0.2459
vn -0.6693 -0.6784 -0.3030
vn -0.7653 -0.6412 0.0560
vn -0.8156 -0.5450 -0.1947
vn -0.9239 -0.3827 -0.0017
vn -0.7071 -0.7071 -0.0003
vn -0.6413 -0.7653 0.0560
vn -0.6784 -0.6693 -0.3030
vn -0.3158 -0.9164 -0.2459
vn -0.5449 -0.8155 -0.1950
vn -0.7071 -0.7071 -0.0015
vn -0.3827 -0.9239 -0.0005
vn -0.3058 -0.9514 0.0372
vn -0.3580 -0.8624 -0.3579
vn 0.0372 -0.9514 -0.3057
vn -0.1913 -0.9620 -0.1950
vn -0.3826 -0.9239 -0.0018
vn -0.0018 -1.0000 -0.0006
vn -0.2460 -0.9164 -0.3158
vn -0.3031 -0.6692 -0.6784
vn 0.0560 -0.7653 -0.6412
vn -0.3143 -0.8623 -0.3971
vn -0.6921 -0.6683 -0.2728
vn -0.5218 -0.5976 -0.6087
vn 0.0560 -0.6412 -0.7653
vn -0.3030 -0.6784 -0.6693
vn -0.2459 -0.3158 -0.9164
vn -0.3971 -0.3143 -0.8623
vn -0.2728 -0.6921 -0.6683
vn -0.6087 -0.5218 -0.5976
vn 0.0372 -0.3057 -0.9514
vn -0.3580 -0.3579 -0.8624
vn -0.3057 0.0372 -0.9514
vn -0.3158 -0.2459 -0.9164
vn -0.6784 -0.3031 -0.6692
vn -0.6412 0.0560 -0.7653
vn -0.7653 0.0560 -0.6412
vn -0.6692 -0.3031 -0.6784
vn -0.9164 -0.2459 -0.3158
vn -0.8623 -0.3971 -0.3142
vn -0.6683 -0.2728 -0.6920
vn -0.5976 -0.6087 -0.5218
vn -0.8155 -0.1950 -0.5449
vn -0.7071 -0.0015 -0.7071
vn -0.9239 -0.0005 -0.3827
vn -0.5449 -0.1949 -0.8155
vn -0.3827 -0.0017 -0.9239
vn -0.7071 -0.0003 -0.7071
vn -0.5793 -0.1450 -0.8021
vn -0.6308 0.2343 -0.7397
vn -0.2511 0.2056 -0.9459
vn -0.1914 -0.1933 -0.9623
vn -0.3827 -0.0005 -0.9239
vn 0.1952 0.1913 -0.9619
vn 0.0017 0.3826 -0.9239
vn 0.0023 0.0035 -1.0000
vn 0.1914 -0.1950 -0.9620
vn 0.0018 -0.0006 -1.0000
vn -0.1954 -0.1913 -0.9619
vn -0.0017 -0.3826 -0.9239
vn -0.0023 -0.0035 -1.0000
vn 0.2459 -0.3158 -0.9164
vn 0.2806 -0.6950 -0.6620
vn -0.0560 -0.6412 -0.7653
vn 0.6412 0.0560 -0.7653
vn 0.6950 -0.2806 -0.6620
vn 0.3158 -0.2459 -0.9164
vn 0.8623 -0.3141 -0.3972
vn 0.6683 -0.6920 -0.2729
vn 0.5976 -0.5217 -0.6088
vn 0.3971 -0.8623 -0.3142
vn 0.2501 -0.6848 -0.6844
vn 0.6088 -0.5976 -0.5218
vn 0.7653 -0.6412 0.0560
vn 0.6693 -0.6784 -0.3030
vn 0.9164 -0.3158 -0.2458
vn 0.3158 -0.9164 -0.2459
vn 0.6784 -0.6692 -0.3030
vn 0.6412 -0.7653 0.0560
vn -0.0372 -0.9514 -0.3057
vn 0.3579 -0.8624 -0.3579
vn 0.3057 -0.9514 0.0372
vn -0.0560 -0.7653 -0.6412
vn 0.2807 -0.6860 -0.6713
vn 0.2459 -0.9164 -0.3157
vn 0.0006 -0.9239 -0.3826
vn 0.0018 -1.0000 -0.0018
vn 0.1933 -0.9619 -0.1932
vn 0.0017 -0.9239 -0.3827
vn 0.1951 -0.8145 -0.5464
vn -0.1950 -0.5449 -0.8155
vn -0.0005 -0.3827 -0.9239
vn 0.1914 -0.9623 -0.1933
vn 0.3826 -0.9239 -0.0006
vn -0.0023 -1.0000 -0.0010
vn 0.0010 -1.0000 0.0023
vn 0.5449 -0.8155 -0.1951
vn 0.3827 -0.9239 -0.0017
vn 0.7071 -0.7071 -0.0003
vn 0.8155 -0.5449 -0.1950
vn 0.7071 -0.7071 -0.0015
vn 0.9239 -0.3827 -0.0005
vn 0.9514 -0.3057 0.0372
vn 0.8624 -0.3580 -0.3579
vn 0.9514 0.0372 -0.3057
vn 0.9619 -0.1913 -0.1950
vn 0.9239 -0.3826 -0.0017
vn 1.0000 -0.0018 -0.0006
vn 0.9623 -0.1933 -0.1914
vn 1.0000 -0.0018 -0.0018
vn 0.9239 -0.0005 -0.3826
vn 1.0000 0.0023 0.0010
vn 1.0000 -0.0010 -0.0023
vn 0.9514 -0.0372 -0.3057
vn 0.8624 0.3580 -0.3580
vn 0.9514 0.3057 0.0372
vn 0.9619 0.1913 0.1950
vn 0.9239 0.3826 0.0017
vn 1.0000 0.0018 0.0006
vn 0.9164 0.3157 -0.2459
vn 0.6692 0.6784 -0.3031
vn 0.7653 0.6412 0.0560
vn 0.8155 0.5449 0.1950
vn 0.7071 0.7071 0.0015
vn 0.9239 0.3827 0.0005
vn 0.7653 0.6412 -0.0560
vn 0.6860 0.6713 0.2807
vn 0.9164 0.3158 0.2458
vn 0.5449 0.8155 0.1951
vn 0.7071 0.7071 0.0003
vn 0.6412 0.7653 0.0560
vn 0.6784 0.6693 -0.3030
vn 0.3158 0.9164 -0.2459
vn 0.3057 0.9514 0.0372
vn 0.3580 0.8624 -0.3580
vn -0.0372 0.9514 -0.3057
vn 0.2459 0.9164 -0.3158
vn 0.3031 0.6692 -0.6784
vn -0.0560 0.7653 -0.6412
vn 0.3143 0.8623 -0.3971
vn 0.6920 0.6683 -0.2728
vn 0.5218 0.5976 -0.6087
vn -0.0560 0.6412 -0.7653
vn 0.3031 0.6784 -0.6692
vn 0.2459 0.3158 -0.9164
vn 0.3971 0.3142 -0.8623
vn 0.2729 0.6920 -0.6683
vn 0.6088 0.5218 -0.5976
vn 0.8623 0.3971 -0.3143
vn 0.6683 0.2728 -0.6921
vn 0.5976 0.6088 -0.5218
vn 0.3158 0.2459 -0.9164
vn 0.6784 0.3030 -0.6693
vn 0.6412 -0.0560 -0.7653
vn 0.7653 -0.0560 -0.6413
vn 0.6692 0.3030 -0.6785
vn 0.9164 0.2459 -0.3158
vn 0.5449 -0.1950 -0.8155
vn 0.7071 -0.0015 -0.7072
vn 0.3831 -0.0001 -0.9237
vn 0.8155 -0.1951 -0.5449
vn 0.9239 -0.0017 -0.3827
vn 0.7071 -0.0003 -0.7071
vn 0.9164 -0.2459 -0.3157
vn 0.6860 -0.2807 -0.6713
vn 0.7653 0.0561 -0.6412
vn -0.0372 0.3057 -0.9514
vn 0.3580 0.3580 -0.8624
vn 0.3057 -0.0372 -0.9514
vn -0.0003 0.3829 -0.9238
vn -0.1950 0.5434 -0.8165
vn 0.1949 0.8155 -0.5449
vn 0.0017 0.9239 -0.3827
vn -0.2057 0.2511 -0.9459
vn -0.2343 0.6308 -0.7397
vn 0.1450 0.5792 -0.8022
vn -0.9514 -0.0372 0.3057
vn -0.8624 0.3580 0.3579
vn -0.9514 0.3057 -0.0372
vn -0.9164 0.3158 0.2459
vn -0.6693 0.6784 0.3030
vn -0.7653 0.6412 -0.0560
vn -0.8155 0.5449 0.1949
vn -0.9239 0.3827 0.0018
vn -0.7071 0.7071 0.0003
vn -0.6412 0.7653 -0.0560
vn -0.6784 0.6692 0.3030
vn -0.3157 0.9164 0.2459
vn -0.5449 0.8155 0.1950
vn -0.7071 0.7071 0.0015
vn -0.3827 0.9239 0.0005
vn -0.3057 0.9514 -0.0372
vn -0.3579 0.8624 0.3580
vn 0.0372 0.9514 0.3057
vn -0.2459 0.9164 0.3157
vn -0.3030 0.6693 0.6784
vn 0.0560 0.7653 0.6412
vn -0.3142 0.8623 0.3971
vn -0.6921 0.6683 0.2728
vn -0.5218 0.5976 0.6088
vn 0.0560 0.6412 0.7653
vn -0.3030 0.6784 0.6693
vn -0.2458 0.3157 0.9165
vn -0.3971 0.3142 0.8623
vn -0.2728 0.6920 0.6683
vn -0.6088 0.5218 0.5976
vn -0.8623 0.3971 0.3142
vn -0.6683 0.2728 0.6920
vn -0.5976 0.6088 0.5218
vn -0.1947 0.8156 0.5449
vn -0.0018 0.9239 0.3827
vn -0.0003 0.7071 0.7071
vn -0.1950 0.5449 0.8155
vn -0.0015 0.7071 0.7071
vn -0.0005 0.3827 0.9239
vn 0.2459 0.3157 0.9164
vn 0.2807 0.6712 0.6860
vn -0.0561 0.6412 0.7653
vn 0.3057 -0.0372 0.9514
vn 0.3579 0.3580 0.8624
vn -0.0372 0.3057 0.9514
vn 0.3158 -0.2459 0.9164
vn 0.6784 -0.3030 0.6693
vn 0.6412 0.0561 0.7653
vt 0.761949 0.538974
vt 0.763946 0.535121
vt 0.763978 0.539034
vt 0.761977 0.969692
vt 0.987151 0.538964
vt 0.987221 0.535041
vt 0.987184 0.969465
vt 0.764014 0.973428
vt 0.764015 0.969556
vt 0.989088 0.969634
vt 0.987276 0.973135
vt 0.989156 0.538961
vt 0.989163 0.973273
vt 0.987469 0.976780
vt 0.989769 0.979015
vt 0.987766 0.980570
vt 0.763962 0.977308
vt 0.761935 0.973807
vt 0.761701 0.980535
vt 0.763894 0.981265
vt 0.763823 0.985293
vt 0.988121 0.984653
vt 0.487329 0.461724
vt 0.489601 0.464961
vt 0.487399 0.465699
vt 0.487470 0.469747
vt 0.760626 0.976831
vt 0.761957 0.977097
vt 0.489342 0.461508
vt 0.490677 0.461236
vt 0.760186 0.974205
vt 0.489361 0.458207
vt 0.759885 0.969952
vt 0.491409 0.454342
vt 0.489317 0.454084
vt 0.487277 0.457830
vt 0.487277 0.453945
vt 0.487270 0.022682
vt 0.491374 0.022437
vt 0.489304 0.022619
vt 0.487301 0.018752
vt 0.489415 0.018541
vt 0.759885 0.538792
vt 0.761840 0.534910
vt 0.760447 0.532224
vt 0.761739 0.531607
vt 0.490813 0.015848
vt 0.491133 0.018350
vt 0.488578 0.963670
vt 0.489976 0.966366
vt 0.488679 0.966986
vt 0.486559 0.967456
vt 0.486464 0.963458
vt 0.487396 0.014752
vt 0.488468 0.959591
vt 0.486432 0.959530
vt 0.490540 0.959773
vt 0.488445 0.527221
vt 0.486402 0.527357
vt 0.490540 0.526964
vt 0.486405 0.523468
vt 0.488490 0.523094
vt 0.987354 0.531017
vt 0.989350 0.534957
vt 0.763851 0.531139
vt 0.990915 0.532431
vt 0.991054 0.534996
vt 0.489808 0.520065
vt 0.490245 0.522702
vt 0.992835 0.534498
vt 0.488734 0.516338
vt 0.488473 0.519791
vt 0.486606 0.511545
vt 0.486532 0.515594
vt 0.486459 0.519571
vt 0.991165 0.538861
vt 0.993216 0.538727
vt 0.995303 0.538589
vt 0.992949 0.970573
vt 0.261448 0.512203
vt 0.261805 0.516298
vt 0.515306 0.470700
vt 0.515306 0.257842
vt 0.625647 0.470700
vt 0.625647 0.257842
vt 0.736326 0.255615
vt 0.625648 0.258009
vt 0.625647 0.256041
vt 0.737303 0.254941
vt 0.736500 0.257635
vt 0.737741 0.256952
vt 0.515306 0.255885
vt 0.738820 0.255478
vt 0.736186 0.253740
vt 0.737620 0.253163
vt 0.738061 0.254015
vt 0.737041 0.253435
vt 0.738542 0.252552
vt 0.737761 0.252046
vt 0.736990 0.251948
vt 0.739938 0.251002
vt 0.738891 0.250667
vt 0.737919 0.250396
vt 0.739584 0.253396
vt 0.515306 0.250015
vt 0.625647 0.251971
vt 0.515306 0.251971
vt 0.740132 0.037158
vt 0.625647 0.250015
vt 0.625647 0.037156
vt 0.515306 0.037156
vt 0.260307 0.467723
vt 0.263161 0.465052
vt 0.262805 0.469139
vt 0.261157 0.463495
vt 0.263457 0.461259
vt 0.261763 0.457752
vt 0.263649 0.457611
vt 0.261836 0.454113
vt 0.263739 0.453940
vt 0.259945 0.454484
vt 0.260552 0.460088
vt 0.260283 0.457969
vt 0.258786 0.458921
vt 0.257979 0.455055
vt 0.259717 0.461698
vt 0.256594 0.460560
vt 0.255860 0.455741
vt 0.258121 0.464776
vt 0.261650 0.460607
vt 0.739112 0.037157
vt 0.736984 0.250208
vt 0.738091 0.037156
vt 0.736045 0.250124
vt 0.737071 0.037156
vt 0.736088 0.251937
vt 0.625647 0.250135
vt 0.736050 0.037156
vt 0.256612 0.526319
vt 0.254217 0.959956
vt 0.254489 0.525632
vt 0.256313 0.959819
vt 0.256693 0.964063
vt 0.255554 0.022341
vt 0.258025 0.018243
vt 0.257645 0.022478
vt 0.259699 0.022612
vt 0.258371 0.959685
vt 0.259949 0.016171
vt 0.259810 0.018740
vt 0.258481 0.963567
vt 0.258619 0.966142
vt 0.260191 0.963608
vt 0.261516 0.018701
vt 0.261311 0.015326
vt 0.262194 0.967574
vt 0.262330 0.963529
vt 0.263515 0.014752
vt 0.263649 0.018783
vt 0.261712 0.022711
vt 0.263720 0.022713
vt 0.260389 0.959587
vt 0.262403 0.959585
vt 0.262385 0.527434
vt 0.260478 0.527261
vt 0.262295 0.523755
vt 0.260404 0.523615
vt 0.262102 0.520099
vt 0.259796 0.517859
vt 0.258944 0.513622
vt 0.256754 0.516576
vt 0.259191 0.521274
vt 0.258354 0.519660
vt 0.257421 0.522444
vt 0.255224 0.520801
vt 0.258921 0.523398
vt 0.260291 0.520754
vt 0.258582 0.526890
vt 0.625647 0.254072
vt 0.625647 0.252104
vt 0.990618 0.983242
vt 0.992804 0.980299
vt 0.625647 0.253928
vt 0.515306 0.253928
vt 0.992141 0.974442
vt 0.994334 0.976084
vt 0.625647 0.255885
vt 0.995070 0.971259
vt 0.990981 0.970003
vt 0.990374 0.975608
vt 0.990643 0.973489
vt 0.989276 0.976127
vt 0.991209 0.977219
vt 0.491114 0.458600
vt 0.760127 0.534717
vt 0.489517 0.015226
vt 0.490297 0.963863
vt 0.989555 0.531588
vt 0.259984 0.966992
s 0
usemtl multitexture
f 2/1/1 3/2/2 1/3/3
f 1/3/4 7/4/5 2/1/6
f 4/5/7 3/2/8 49/6/9
f 8/7/10 1/3/11 4/5/12
f 6/8/13 7/4/14 5/9/15
f 8/7/16 6/8/17 5/9/18
f 9/10/19 10/11/20 8/7/21
f 152/12/22 8/7/23 4/5/12
f 11/13/24 12/14/25 10/11/26
f 12/14/27 6/8/28 10/11/29
f 12/14/30 141/15/31 13/16/32
f 13/16/33 15/17/34 12/14/35
f 15/17/36 25/18/37 6/8/38
f 19/19/39 15/17/40 17/20/41
f 18/21/42 19/19/43 17/20/44
f 74/22/45 17/20/46 13/16/47
f 82/23/48 19/24/49 20/25/50
f 20/25/51 19/24/52 18/26/42
f 19/19/53 22/27/54 16/28/55
f 21/29/56 22/30/54 19/24/53
f 25/18/57 22/27/58 23/31/59
f 26/32/60 22/30/61 21/29/62
f 25/18/63 24/33/64 7/4/65
f 24/34/66 26/32/67 28/35/68
f 28/35/69 27/36/70 29/37/71
f 26/32/72 82/23/73 27/36/74
f 31/38/75 28/35/76 29/37/77
f 33/39/78 28/35/79 30/40/80
f 115/41/81 30/40/82 31/38/83
f 32/42/84 33/39/85 30/40/86
f 33/43/87 35/44/88 2/1/89
f 2/1/90 24/33/91 33/43/92
f 35/44/93 36/45/94 37/46/95
f 32/42/96 36/47/97 34/48/98
f 40/49/99 36/50/100 38/51/101
f 40/49/102 39/52/103 41/53/104
f 39/54/105 32/42/106 115/41/107
f 42/55/108 41/53/109 43/56/110
f 44/57/111 40/49/112 42/55/113
f 45/58/114 43/56/115 46/59/116
f 48/60/117 42/55/118 45/58/119
f 124/61/120 45/58/121 46/59/122
f 47/62/123 48/60/124 45/58/125
f 48/63/126 51/64/127 49/6/128
f 49/6/129 44/65/130 48/63/131
f 51/64/132 52/66/133 53/67/134
f 47/62/135 52/68/136 50/69/137
f 53/67/138 52/66/139 55/70/140
f 55/71/140 52/68/141 54/72/142
f 58/73/143 55/71/144 56/74/145
f 55/71/146 125/75/147 56/74/148
f 151/76/149 55/70/150 57/77/151
f 57/77/152 55/70/153 58/78/143
f 58/78/154 147/79/155 57/77/156
f 59/80/157 56/74/158 127/81/159
f 59/82/160 61/83/161 58/84/143
f 58/84/143 61/83/161 60/85/162
f 62/86/163 59/87/164 129/88/165
f 62/86/166 64/89/167 61/90/161
f 61/90/161 64/89/167 63/91/168
f 63/92/169 60/85/170 61/83/161
f 64/89/171 145/93/172 63/91/173
f 139/94/174 64/89/175 62/86/176
f 64/89/177 67/95/178 65/96/179
f 66/97/180 67/95/178 64/89/181
f 70/98/182 67/95/183 68/99/184
f 68/99/184 67/95/185 69/100/186
f 65/96/187 67/95/183 70/98/182
f 69/100/188 67/95/185 66/97/189
f 73/101/190 70/98/182 71/102/191
f 70/98/192 94/103/193 71/102/194
f 145/93/195 70/98/196 72/104/197
f 72/104/198 70/98/182 73/101/190
f 73/105/199 140/106/200 72/107/201
f 71/102/202 75/108/203 73/101/190
f 74/109/204 73/105/190 18/110/42
f 18/110/42 73/105/190 75/111/205
f 76/112/206 77/113/207 75/114/208
f 18/26/209 77/113/210 20/25/51
f 78/115/211 79/116/212 77/113/213
f 20/25/214 79/116/215 82/23/216
f 79/116/217 84/117/218 81/118/219
f 82/23/220 81/118/221 27/36/222
f 81/118/223 85/119/224 83/120/225
f 27/36/226 83/120/227 29/37/77
f 84/117/228 87/121/229 85/119/230
f 84/117/231 88/122/232 86/123/233
f 87/121/234 89/124/235 91/125/236
f 89/124/237 88/122/238 92/126/239
f 91/125/240 90/127/241 99/128/242
f 89/124/243 93/129/244 90/127/245
f 93/129/246 78/115/247 76/112/248
f 78/115/249 88/122/250 80/130/251
f 94/103/252 76/131/253 71/102/254
f 95/132/255 93/133/256 94/103/257
f 94/103/258 69/100/259 95/132/260
f 96/134/261 90/135/262 95/132/263
f 95/132/264 69/100/186 96/134/265
f 96/134/265 69/100/186 97/136/266
f 97/136/267 98/137/268 96/134/265
f 100/110/269 96/134/265 98/137/270
f 99/138/271 96/134/265 100/110/269
f 136/139/272 100/140/273 98/141/270
f 101/142/274 103/143/275 100/140/269
f 100/144/269 103/145/276 102/146/277
f 102/146/278 99/128/279 100/144/269
f 103/145/280 114/147/281 102/146/282
f 137/148/283 103/143/284 101/142/285
f 103/145/286 106/149/287 104/150/288
f 105/151/289 106/152/287 103/143/286
f 108/153/290 106/152/291 105/151/292
f 110/154/293 106/149/294 107/155/295
f 109/156/296 108/153/297 116/157/298
f 110/154/299 109/158/300 111/159/301
f 112/160/302 111/159/303 113/161/304
f 114/147/305 110/154/306 112/160/307
f 112/160/308 83/120/309 85/119/310
f 114/147/311 85/119/312 87/121/313
f 114/147/314 91/125/315 102/146/316
f 31/38/317 111/159/318 115/41/319
f 83/120/320 31/38/321 29/37/77
f 115/41/322 109/158/323 39/54/324
f 39/52/325 116/157/326 41/53/327
f 116/157/328 118/162/329 117/163/330
f 41/53/331 117/163/332 43/56/333
f 119/164/334 118/162/335 120/165/336
f 46/59/337 117/163/338 119/164/339
f 120/165/340 121/166/341 119/164/342
f 121/166/343 46/59/344 119/164/339
f 122/167/345 123/168/346 121/166/347
f 123/168/348 124/61/349 121/166/350
f 125/75/351 47/62/352 124/61/353
f 127/81/354 125/75/355 123/168/356
f 123/168/357 128/169/358 127/81/359
f 127/81/360 129/170/361 59/80/362
f 128/169/363 132/171/364 129/170/365
f 128/169/366 133/172/367 130/173/368
f 132/171/369 131/174/370 138/175/371
f 131/174/372 133/172/373 134/176/374
f 122/167/375 133/172/376 126/177/377
f 131/174/378 135/178/379 136/139/380
f 135/178/381 122/167/382 120/165/383
f 135/178/384 101/142/385 136/139/386
f 120/165/387 137/148/388 135/178/389
f 108/153/390 137/148/391 118/162/392
f 138/175/393 136/139/394 98/141/395
f 97/136/396 132/179/397 138/180/398
f 62/86/399 132/179/400 139/94/401
f 69/100/402 139/94/403 97/136/404
f 13/16/405 140/181/406 74/22/407
f 141/15/408 142/182/409 140/181/410
f 72/107/411 142/183/412 145/184/413
f 142/182/414 146/185/415 144/186/416
f 145/184/417 144/187/418 63/92/419
f 144/186/420 147/79/421 60/188/422
f 146/185/423 149/189/424 147/79/425
f 146/185/426 150/190/427 148/191/428
f 149/189/429 11/13/430 9/10/431
f 11/13/432 150/190/433 14/192/434
f 141/15/435 150/190/436 143/193/437
f 57/77/438 149/189/439 151/76/440
f 151/76/441 9/10/442 152/12/443
f 51/64/444 151/76/445 152/12/446
f 49/6/447 152/12/448 4/5/449
f 35/44/450 44/65/451 3/2/452
f 2/1/453 35/44/454 3/2/455
f 1/3/456 5/9/18 7/4/457
f 4/5/458 1/3/459 3/2/460
f 8/7/461 5/9/18 1/3/462
f 6/8/463 25/18/464 7/4/465
f 8/7/466 10/11/467 6/8/468
f 9/10/469 11/13/470 10/11/471
f 152/12/472 9/10/473 8/7/474
f 11/13/475 14/192/476 12/14/477
f 12/14/478 15/17/479 6/8/480
f 12/14/481 14/192/482 141/15/483
f 13/16/484 17/20/485 15/17/486
f 15/17/487 16/28/488 25/18/489
f 19/19/490 16/28/491 15/17/492
f 74/22/493 18/21/42 17/20/494
f 82/23/495 21/29/496 19/24/497
f 25/18/498 16/28/499 22/27/500
f 26/32/501 23/194/502 22/30/503
f 25/18/504 23/31/505 24/33/506
f 24/34/507 23/194/508 26/32/509
f 28/35/510 26/32/511 27/36/512
f 26/32/513 21/29/514 82/23/515
f 31/38/516 30/40/80 28/35/517
f 33/39/518 24/34/519 28/35/520
f 115/41/521 32/42/522 30/40/523
f 32/42/524 34/48/525 33/39/526
f 33/43/527 34/195/528 35/44/529
f 2/1/530 7/4/531 24/33/532
f 35/44/533 34/195/534 36/45/535
f 32/42/536 38/196/537 36/47/538
f 40/49/539 37/197/540 36/50/541
f 40/49/542 38/51/543 39/52/544
f 39/54/545 38/196/546 32/42/547
f 42/55/548 40/49/549 41/53/550
f 44/57/551 37/197/552 40/49/553
f 45/58/554 42/55/555 43/56/556
f 48/60/557 44/57/558 42/55/559
f 124/61/560 47/62/561 45/58/562
f 47/62/563 50/69/564 48/60/565
f 48/63/566 50/198/567 51/64/568
f 49/6/569 3/2/570 44/65/571
f 51/64/572 50/198/573 52/66/574
f 47/62/575 54/72/576 52/68/577
f 55/71/578 54/72/579 125/75/580
f 151/76/581 53/67/582 55/70/583
f 58/78/584 60/188/585 147/79/586
f 59/80/587 58/73/143 56/74/588
f 62/86/589 61/90/161 59/87/590
f 63/92/591 144/187/592 60/85/593
f 64/89/594 65/96/595 145/93/596
f 139/94/597 66/97/598 64/89/599
f 70/98/600 68/99/601 94/103/602
f 145/93/603 65/96/604 70/98/605
f 73/105/606 74/109/204 140/106/607
f 71/102/608 76/131/609 75/108/610
f 76/112/611 78/115/612 77/113/613
f 18/26/614 75/114/205 77/113/615
f 78/115/616 80/130/617 79/116/618
f 20/25/619 77/113/620 79/116/621
f 79/116/622 80/130/623 84/117/624
f 82/23/625 79/116/626 81/118/627
f 81/118/628 84/117/629 85/119/630
f 27/36/631 81/118/632 83/120/633
f 84/117/634 86/123/635 87/121/636
f 84/117/637 80/130/638 88/122/639
f 87/121/640 86/123/641 89/124/642
f 89/124/643 86/123/644 88/122/645
f 91/125/646 89/124/647 90/127/648
f 89/124/649 92/126/650 93/129/651
f 93/129/652 92/126/653 78/115/654
f 78/115/655 92/126/656 88/122/657
f 94/103/658 93/133/659 76/131/660
f 95/132/661 90/135/662 93/133/663
f 94/103/664 68/99/665 69/100/666
f 96/134/667 99/138/271 90/135/668
f 97/136/669 138/180/670 98/137/671
f 136/139/672 101/142/274 100/140/673
f 102/146/674 91/125/675 99/128/676
f 103/145/677 104/150/678 114/147/679
f 137/148/680 105/151/681 103/143/682
f 108/153/683 107/199/684 106/152/685
f 110/154/686 104/150/687 106/149/688
f 109/156/689 107/199/690 108/153/691
f 110/154/692 107/155/693 109/158/694
f 112/160/695 110/154/696 111/159/697
f 114/147/698 104/150/699 110/154/700
f 112/160/701 113/161/702 83/120/703
f 114/147/314 112/160/704 85/119/705
f 114/147/706 87/121/313 91/125/707
f 31/38/708 113/161/702 111/159/709
f 83/120/710 113/161/702 31/38/711
f 115/41/712 111/159/713 109/158/714
f 39/52/715 109/156/716 116/157/717
f 116/157/718 108/153/719 118/162/720
f 41/53/721 116/157/722 117/163/723
f 119/164/724 117/163/725 118/162/726
f 46/59/727 43/56/333 117/163/728
f 120/165/729 122/167/730 121/166/731
f 121/166/732 124/61/733 46/59/734
f 122/167/735 126/177/736 123/168/737
f 123/168/738 125/75/739 124/61/740
f 125/75/741 54/72/742 47/62/743
f 127/81/744 56/74/145 125/75/745
f 123/168/746 126/177/747 128/169/748
f 127/81/749 128/169/750 129/170/751
f 128/169/752 130/173/753 132/171/754
f 128/169/755 126/177/756 133/172/757
f 132/171/758 130/173/759 131/174/760
f 131/174/761 130/173/762 133/172/763
f 122/167/764 134/176/765 133/172/766
f 131/174/767 134/176/768 135/178/769
f 135/178/770 134/176/771 122/167/772
f 135/178/773 137/148/774 101/142/775
f 120/165/776 118/162/777 137/148/778
f 108/153/779 105/151/780 137/148/781
f 138/175/782 131/174/783 136/139/784
f 97/136/785 139/94/401 132/179/786
f 62/86/787 129/88/788 132/179/397
f 69/100/789 66/97/790 139/94/791
f 13/16/792 141/15/793 140/181/794
f 141/15/795 143/193/796 142/182/797
f 72/107/798 140/106/799 142/183/800
f 142/182/801 143/193/802 146/185/803
f 145/184/804 142/183/805 144/187/806
f 144/186/807 146/185/808 147/79/809
f 146/185/810 148/191/811 149/189/812
f 146/185/813 143/193/814 150/190/815
f 149/189/816 148/191/817 11/13/818
f 11/13/819 148/191/820 150/190/821
f 141/15/822 14/192/823 150/190/824
f 57/77/825 147/79/826 149/189/827
f 151/76/828 149/189/829 9/10/830
f 51/64/831 53/67/832 151/76/833
f 49/6/834 51/64/835 152/12/836
f 35/44/837 37/46/838 44/65/839
