# Blender 5.0.1
# www.blender.org

mtllib material.mtl
o center_F
v 0.000000 0.000000 0.299458
v -0.096412 0.000000 0.299458
v 0.000000 -0.096412 0.299458
v 0.000000 0.096412 0.299458
v 0.096412 -0.000000 0.299458
v 0.096886 -0.000000 0.299372
v 0.093127 -0.024953 0.299458
v 0.093127 0.024953 0.299458
v 0.093598 0.025265 0.299392
v 0.083496 0.048206 0.299458
v 0.083950 0.048564 0.299399
v 0.068174 0.068174 0.299458
v 0.068586 0.068586 0.299401
v 0.048206 0.083495 0.299458
v 0.048565 0.083949 0.299399
v 0.024953 0.093127 0.299458
v 0.025265 0.093598 0.299392
v 0.025881 0.094007 0.299213
v 0.000000 0.096886 0.299372
v 0.000000 0.097272 0.299136
v -0.025265 0.093598 0.299392
v -0.024953 0.093127 0.299458
v -0.048564 0.083949 0.299399
v -0.025880 0.094007 0.299213
v -0.049088 0.084402 0.299239
v -0.026635 0.094244 0.298967
v -0.049638 0.084732 0.299019
v 0.000000 0.097465 0.298814
v -0.060882 0.099880 0.287330
v -0.061742 0.100022 0.286917
v -0.075922 0.096819 0.287219
v 0.000000 0.100020 0.287388
v 0.000000 0.100091 0.286946
v 0.060883 0.099880 0.287329
v 0.061742 0.100022 0.286917
v 0.075922 0.096819 0.287219
v 0.026635 0.094243 0.298967
v 0.049638 0.084732 0.299019
v 0.049089 0.084402 0.299239
v 0.069496 0.069496 0.299034
v 0.069070 0.069070 0.299246
v 0.084733 0.049638 0.299019
v 0.088446 0.088446 0.287192
v 0.088804 0.088804 0.286848
v 0.096819 0.075922 0.287219
v 0.097062 0.076449 0.286861
v 0.099880 0.060882 0.287329
v 0.100022 0.061742 0.286917
v 0.100020 -0.000000 0.287388
v 0.094244 0.026635 0.298967
v 0.094007 0.025880 0.299212
v 0.097466 -0.000000 0.298814
v 0.097272 -0.000000 0.299136
v 0.094244 -0.026635 0.298967
v 0.094007 -0.025880 0.299212
v 0.084732 -0.049638 0.299019
v 0.099880 -0.060882 0.287329
v 0.100022 -0.061742 0.286917
v 0.096819 -0.075922 0.287219
v 0.097062 -0.076449 0.286861
v 0.088446 -0.088446 0.287192
v 0.088804 -0.088804 0.286848
v 0.075922 -0.096819 0.287219
v 0.069496 -0.069496 0.299034
v 0.069070 -0.069070 0.299246
v 0.049638 -0.084732 0.299019
v 0.049089 -0.084402 0.299239
v 0.026635 -0.094243 0.298967
v 0.025880 -0.094007 0.299213
v 0.000000 -0.097465 0.298815
v 0.060882 -0.099880 0.287329
v 0.061742 -0.100022 0.286917
v 0.000000 -0.100020 0.287388
v 0.000000 -0.100091 0.286946
v -0.060882 -0.099880 0.287330
v -0.061742 -0.100022 0.286917
v -0.075922 -0.096819 0.287219
v -0.026635 -0.094243 0.298967
v -0.025880 -0.094007 0.299213
v -0.049638 -0.084732 0.299019
v -0.049089 -0.084402 0.299239
v -0.069496 -0.069496 0.299034
v -0.069070 -0.069070 0.299246
v -0.084732 -0.049638 0.299019
v -0.088446 -0.088446 0.287192
v -0.088804 -0.088804 0.286848
v -0.096819 -0.075922 0.287219
v -0.097062 -0.076449 0.286861
v -0.099880 -0.060882 0.287330
v -0.100022 -0.061742 0.286917
v -0.100019 0.000000 0.287388
v -0.094243 -0.026635 0.298967
v -0.094007 -0.025880 0.299213
v -0.097465 0.000000 0.298815
v -0.097272 0.000000 0.299136
v -0.094243 0.026635 0.298967
v -0.094007 0.025880 0.299213
v -0.084732 0.049638 0.299019
v -0.099880 0.060882 0.287330
v -0.100022 0.061742 0.286917
v -0.096819 0.075922 0.287219
v -0.097061 0.076449 0.286861
v -0.088446 0.088446 0.287192
v -0.088804 0.088804 0.286848
v -0.069496 0.069496 0.299034
v -0.069070 0.069070 0.299246
v -0.068586 0.068586 0.299401
v -0.084402 0.049089 0.299239
v -0.083949 0.048564 0.299399
v -0.083495 0.048206 0.299458
v -0.093598 0.025265 0.299392
v -0.093127 0.024953 0.299458
v -0.096886 0.000000 0.299372
v -0.093598 -0.025265 0.299392
v -0.093127 -0.024953 0.299458
v -0.083949 -0.048564 0.299400
v -0.083495 -0.048206 0.299458
v -0.084402 -0.049089 0.299239
v -0.068586 -0.068586 0.299401
v -0.068174 -0.068174 0.299458
v -0.048564 -0.083949 0.299400
v -0.048206 -0.083495 0.299458
v -0.025265 -0.093598 0.299392
v -0.024953 -0.093127 0.299458
v 0.000000 -0.096886 0.299372
v 0.000000 -0.097272 0.299136
v 0.025265 -0.093598 0.299392
v 0.024953 -0.093127 0.299458
v 0.048564 -0.083949 0.299399
v 0.048206 -0.083496 0.299458
v 0.068586 -0.068586 0.299401
v 0.068174 -0.068174 0.299458
v 0.083949 -0.048564 0.299399
v 0.083496 -0.048206 0.299458
v 0.093598 -0.025265 0.299392
v 0.084402 -0.049089 0.299239
v -0.068174 0.068174 0.299458
v -0.048206 0.083496 0.299458
v -0.089066 0.089066 0.286354
v -0.076449 0.097062 0.286861
v -0.076835 0.097239 0.286358
v -0.076976 0.097304 0.285844
v -0.062371 0.100125 0.286373
v -0.062602 0.100163 0.285844
v 0.000000 0.100144 0.286381
v 0.000000 0.100163 0.285844
v 0.062372 0.100125 0.286373
v 0.062602 0.100163 0.285844
v 0.076835 0.097239 0.286358
v 0.076976 0.097304 0.285844
v 0.089066 0.089066 0.286354
v 0.076449 0.097062 0.286861
v 0.089162 0.089162 0.285844
v 0.097239 0.076835 0.286358
v 0.097304 0.076976 0.285844
v 0.100125 0.062372 0.286373
v 0.100163 0.062602 0.285844
v 0.100144 -0.000000 0.286381
v 0.100163 -0.000000 0.285844
v 0.100125 -0.062372 0.286373
v 0.100092 -0.000000 0.286946
v 0.100163 -0.062602 0.285844
v 0.097239 -0.076835 0.286358
v 0.097304 -0.076976 0.285844
v 0.089066 -0.089066 0.286354
v 0.089162 -0.089162 0.285844
v 0.076835 -0.097239 0.286358
v 0.076976 -0.097304 0.285844
v 0.076449 -0.097062 0.286861
v 0.062372 -0.100125 0.286373
v 0.062602 -0.100163 0.285844
v 0.000000 -0.100144 0.286381
v 0.000000 -0.100163 0.285844
v -0.062372 -0.100125 0.286373
v -0.062602 -0.100163 0.285844
v -0.076835 -0.097239 0.286358
v -0.076976 -0.097304 0.285844
v -0.089066 -0.089066 0.286354
v -0.076449 -0.097062 0.286861
v -0.089162 -0.089162 0.285844
v -0.097239 -0.076835 0.286358
v -0.097304 -0.076976 0.285844
v -0.100125 -0.062372 0.286373
v -0.100163 -0.062602 0.285844
v -0.100144 0.000000 0.286381
v -0.100163 0.000000 0.285844
v -0.100091 0.000000 0.286946
v -0.100125 0.062372 0.286373
v -0.100163 0.062602 0.285844
v -0.097239 0.076835 0.286358
v -0.097304 0.076976 0.285844
v -0.089162 0.089162 0.285844
v -0.097304 0.076976 0.100799
v -0.097190 0.076929 0.100349
v -0.100163 0.062602 0.100799
v -0.089162 0.089162 0.100799
v -0.089075 0.089075 0.100349
v -0.076976 0.097304 0.100799
v -0.076929 0.097190 0.100349
v -0.062602 0.100163 0.100799
v -0.062590 0.100043 0.100349
v 0.000000 0.100163 0.100799
v 0.000000 0.100043 0.100353
v 0.062602 0.100163 0.100799
v 0.062590 0.100042 0.100349
v 0.076976 0.097304 0.100799
v 0.076929 0.097190 0.100349
v 0.089162 0.089162 0.100799
v 0.089075 0.089075 0.100349
v 0.097304 0.076976 0.100799
v 0.097190 0.076929 0.100349
v 0.100163 0.062602 0.100799
v 0.100043 0.062590 0.100349
v 0.100163 -0.000000 0.100799
v 0.100043 -0.000000 0.100353
v 0.100163 -0.062602 0.100799
v 0.100043 -0.062590 0.100349
v 0.097304 -0.076976 0.100799
v 0.097190 -0.076929 0.100349
v 0.089162 -0.089162 0.100799
v 0.089075 -0.089075 0.100349
v 0.076976 -0.097304 0.100799
v 0.076929 -0.097190 0.100349
v 0.062602 -0.100163 0.100799
v 0.062590 -0.100043 0.100349
v -0.000000 -0.100163 0.100799
v -0.000000 -0.100043 0.100353
v -0.062602 -0.100163 0.100799
v -0.062590 -0.100042 0.100349
v -0.076976 -0.097304 0.100799
v -0.076929 -0.097190 0.100349
v -0.089162 -0.089162 0.100799
v -0.089075 -0.089075 0.100349
v -0.097304 -0.076976 0.100799
v -0.097190 -0.076929 0.100349
v -0.100163 -0.062602 0.100799
v -0.100043 -0.062590 0.100349
v -0.100163 0.000000 0.100799
v -0.100043 0.000000 0.100353
v -0.099713 0.000000 0.100035
v -0.100042 0.062590 0.100349
v -0.099712 0.062558 0.100019
v -0.099262 0.062513 0.099898
v -0.096879 0.076800 0.100019
v -0.096455 0.076624 0.099898
v -0.088837 0.088837 0.100019
v -0.088512 0.088512 0.099898
v -0.076800 0.096880 0.100019
v -0.076624 0.096455 0.099898
v -0.062558 0.099713 0.100019
v -0.062513 0.099262 0.099898
v 0.000000 0.099713 0.100035
v 0.000000 0.099262 0.099931
v 0.062558 0.099712 0.100019
v 0.062513 0.099262 0.099898
v 0.076800 0.096879 0.100019
v 0.076624 0.096455 0.099898
v 0.088837 0.088837 0.100019
v 0.088512 0.088512 0.099898
v 0.096880 0.076800 0.100019
v 0.096455 0.076624 0.099898
v 0.099713 0.062558 0.100019
v 0.099262 0.062513 0.099898
v 0.099713 -0.000000 0.100035
v 0.099262 -0.000000 0.099931
v 0.099713 -0.062558 0.100019
v 0.099262 -0.062513 0.099898
v 0.096879 -0.076800 0.100019
v 0.096455 -0.076624 0.099898
v 0.088837 -0.088837 0.100019
v 0.088512 -0.088512 0.099898
v 0.076800 -0.096880 0.100019
v 0.076624 -0.096455 0.099898
v 0.062558 -0.099713 0.100019
v 0.062513 -0.099262 0.099898
v -0.000000 -0.099713 0.100035
v -0.000000 -0.099262 0.099931
v -0.062558 -0.099712 0.100019
v -0.062513 -0.099262 0.099898
v -0.076800 -0.096879 0.100019
v -0.076624 -0.096455 0.099898
v -0.088837 -0.088837 0.100019
v -0.088512 -0.088512 0.099898
v -0.096880 -0.076800 0.100019
v -0.096455 -0.076624 0.099898
v -0.099713 -0.062558 0.100019
v -0.099262 -0.062513 0.099898
v -0.099262 0.000000 0.099931
v 0.000000 0.000000 0.103596
v 0.084402 0.049089 0.299239
vn -0.0030 0.0065 1.0000
vn -0.0065 0.0040 1.0000
vn -0.0715 -0.0561 0.9959
vn 0.0065 0.0031 1.0000
vn 0.0040 0.0065 1.0000
vn -0.1622 0.0500 0.9855
vn -0.0065 -0.0030 1.0000
vn -0.0040 -0.0065 1.0000
vn 0.0561 -0.0715 0.9959
vn 0.0031 -0.0065 1.0000
vn 0.0065 -0.0040 1.0000
vn 0.0501 0.1623 0.9855
vn -0.0056 0.0018 1.0000
vn 0.3580 -0.0000 0.9337
vn 0.1380 0.0116 0.9904
vn 0.2399 0.0788 0.9676
vn 0.1578 0.0895 0.9834
vn 0.0829 0.0635 0.9945
vn 0.0873 0.1520 0.9845
vn 0.0537 0.1996 0.9784
vn 0.0485 0.1301 0.9903
vn 0.0118 0.3675 0.9300
vn 0.0964 0.3613 0.9275
vn 0.0292 0.7155 0.6980
vn -0.0536 0.1996 0.9784
vn -0.0116 0.1380 0.9904
vn -0.0873 0.1519 0.9845
vn -0.1597 0.4818 0.8616
vn -0.1478 0.2575 0.9549
vn -0.0990 0.7680 0.6327
vn -0.2205 0.4082 0.8859
vn 0.0009 0.9772 0.2125
vn -0.0813 0.7748 0.6269
vn -0.2034 0.4058 0.8911
vn -0.0000 0.9580 0.2868
vn -0.0439 0.9654 0.2570
vn -0.0000 0.9927 0.1204
vn 0.0813 0.7749 0.6269
vn 0.0389 0.9652 0.2586
vn 0.0293 0.6327 0.7739
vn 0.2033 0.4058 0.8911
vn 0.2902 0.7032 0.6491
vn 0.2205 0.4081 0.8859
vn 0.1474 0.2576 0.9549
vn 0.2051 0.1945 0.9592
vn 0.2873 0.2385 0.9277
vn 0.2873 0.2872 0.9138
vn 0.4076 0.2212 0.8860
vn 0.2575 0.1477 0.9549
vn 0.5129 0.0659 0.8559
vn 0.7032 0.2902 0.6491
vn 0.4883 0.4884 0.7232
vn 0.9652 0.0389 0.2586
vn 0.8084 0.0615 0.5854
vn 0.7680 0.0987 0.6328
vn 0.9927 -0.0000 0.1205
vn 0.9791 -0.0601 0.1944
vn 0.9772 -0.0000 0.2125
vn 0.3613 0.0956 0.9275
vn 0.6973 -0.0000 0.7168
vn 0.5050 -0.1307 0.8531
vn 0.7617 -0.1368 0.6334
vn 0.2801 -0.1634 0.9460
vn 0.7832 -0.1061 0.6127
vn 0.3552 -0.2089 0.9111
vn 0.4057 -0.2036 0.8910
vn 0.8343 -0.0495 0.5491
vn 0.7032 -0.2902 0.6491
vn 0.2872 -0.2872 0.9138
vn 0.4883 -0.4883 0.7232
vn 0.2884 -0.2884 0.9130
vn 0.2899 -0.7031 0.6493
vn 0.2033 -0.4058 0.8911
vn 0.1945 -0.2051 0.9592
vn 0.2329 -0.3769 0.8965
vn 0.1634 -0.2801 0.9460
vn 0.0990 -0.7680 0.6328
vn 0.0813 -0.7748 0.6269
vn -0.0009 -0.9772 0.2125
vn 0.1298 -0.5055 0.8530
vn -0.0000 -0.6973 0.7168
vn -0.0000 -0.9580 0.2868
vn 0.0439 -0.9654 0.2569
vn -0.0000 -0.9927 0.1205
vn -0.0813 -0.7748 0.6269
vn -0.0389 -0.9652 0.2585
vn -0.0293 -0.6328 0.7738
vn -0.2033 -0.4058 0.8911
vn -0.2902 -0.7032 0.6491
vn -0.2205 -0.4082 0.8859
vn -0.1634 -0.2801 0.9460
vn -0.0952 -0.3613 0.9276
vn -0.2051 -0.1945 0.9592
vn -0.2873 -0.2385 0.9277
vn -0.2873 -0.2872 0.9138
vn -0.4077 -0.2212 0.8859
vn -0.2576 -0.1478 0.9549
vn -0.5129 -0.0659 0.8559
vn -0.7032 -0.2901 0.6491
vn -0.4883 -0.4883 0.7232
vn -0.9652 -0.0389 0.2586
vn -0.8084 -0.0615 0.5854
vn -0.7680 -0.0987 0.6328
vn -0.9927 -0.0000 0.1204
vn -0.9791 0.0601 0.1944
vn -0.9772 -0.0000 0.2125
vn -0.3613 -0.0956 0.9275
vn -0.6973 -0.0000 0.7168
vn -0.5050 0.1307 0.8531
vn -0.7617 0.1368 0.6334
vn -0.2801 0.1634 0.9460
vn -0.7832 0.1061 0.6127
vn -0.3552 0.2089 0.9111
vn -0.4057 0.2036 0.8910
vn -0.8342 0.0495 0.5492
vn -0.7032 0.2902 0.6491
vn -0.2872 0.2873 0.9138
vn -0.4883 0.4884 0.7232
vn -0.2884 0.2884 0.9130
vn -0.2885 0.7138 0.6382
vn -0.1945 0.2051 0.9592
vn -0.1168 0.1159 0.9864
vn -0.1520 0.0873 0.9845
vn -0.1996 0.0535 0.9784
vn -0.1300 0.0484 0.9903
vn -0.0007 -0.0011 1.0000
vn -0.3580 -0.0000 0.9337
vn -0.1380 -0.0116 0.9904
vn -0.2129 -0.0226 0.9768
vn -0.1532 -0.0821 0.9848
vn -0.0829 -0.0636 0.9945
vn -0.1161 -0.1168 0.9863
vn -0.0873 -0.1519 0.9845
vn -0.0536 -0.1996 0.9784
vn -0.0484 -0.1300 0.9903
vn -0.0118 -0.3675 0.9300
vn 0.0536 -0.1996 0.9784
vn 0.0116 -0.1380 0.9904
vn 0.0873 -0.1520 0.9845
vn 0.0646 -0.0823 0.9945
vn 0.1168 -0.1168 0.9863
vn 0.1519 -0.0873 0.9845
vn 0.2208 -0.0791 0.9721
vn -0.8461 0.3707 0.3829
vn -0.6313 0.6313 0.4505
vn -0.3513 0.8541 0.3834
vn -0.0409 0.9904 0.1318
vn -0.3863 0.9224 0.0022
vn -0.0395 0.9992 -0.0022
vn -0.0002 1.0000 -0.0086
vn -0.0000 0.9979 0.0655
vn 0.0375 0.9902 0.1344
vn 0.0372 0.9993 0.0003
vn 0.3515 0.8539 0.3839
vn 0.3827 0.9239 0.0028
vn 0.6313 0.6313 0.4505
vn 0.7071 0.7071 0.0017
vn 0.9239 0.3827 0.0025
vn 0.8593 0.3549 0.3683
vn 0.9993 0.0371 0.0003
vn 0.9786 0.1645 0.1235
vn 1.0000 -0.0000 -0.0086
vn 0.9979 -0.0008 0.0646
vn 0.9902 -0.0375 0.1344
vn 0.9993 -0.0372 0.0003
vn 0.8539 -0.3515 0.3838
vn 0.9239 -0.3827 0.0025
vn 0.6313 -0.6313 0.4506
vn 0.7071 -0.7071 0.0017
vn 0.3863 -0.9224 0.0022
vn 0.3515 -0.8539 0.3838
vn 0.0395 -0.9992 -0.0022
vn 0.0374 -0.9902 0.1344
vn 0.0002 -1.0000 -0.0086
vn -0.0000 -0.9979 0.0654
vn -0.0375 -0.9902 0.1344
vn -0.0372 -0.9993 0.0003
vn -0.3515 -0.8539 0.3839
vn -0.3827 -0.9239 0.0026
vn -0.6313 -0.6313 0.4506
vn -0.7071 -0.7071 0.0017
vn -0.9239 -0.3827 0.0026
vn -0.8593 -0.3549 0.3683
vn -0.9993 -0.0372 0.0003
vn -0.9786 -0.1645 0.1235
vn -1.0000 -0.0000 -0.0086
vn -0.9979 0.0009 0.0646
vn -0.9902 0.0374 0.1344
vn -0.9993 0.0371 0.0002
vn -0.9239 0.3827 0.0026
vn -0.6072 0.7849 0.1233
vn -0.9993 0.0371 -0.0003
vn -0.8581 0.4960 -0.1331
vn -0.7968 0.3294 -0.5066
vn -0.7875 0.6032 -0.1264
vn -0.6097 0.6097 -0.5064
vn -0.3827 0.9239 -0.0005
vn -0.3298 0.7966 -0.5066
vn -0.0370 0.9993 -0.0000
vn -0.0330 0.8643 -0.5019
vn -0.0000 1.0000 -0.0030
vn -0.0000 0.8611 -0.5084
vn 0.0330 0.8643 -0.5018
vn 0.1943 0.9533 -0.2311
vn 0.3299 0.7966 -0.5066
vn 0.7071 0.7071 -0.0005
vn 0.6097 0.6097 -0.5065
vn 0.9239 0.3827 -0.0005
vn 0.7966 0.3299 -0.5066
vn 0.9993 0.0371 -0.0003
vn 0.8643 0.0331 -0.5019
vn 1.0000 -0.0000 -0.0021
vn 0.8611 -0.0000 -0.5084
vn 0.8645 -0.0330 -0.5015
vn 0.9993 -0.0369 0.0002
vn 0.7968 -0.3294 -0.5066
vn 0.9239 -0.3827 -0.0010
vn 0.7071 -0.7071 -0.0005
vn 0.6097 -0.6097 -0.5064
vn 0.3827 -0.9239 -0.0005
vn 0.3299 -0.7966 -0.5066
vn 0.0370 -0.9993 -0.0000
vn 0.0330 -0.8643 -0.5019
vn -0.0000 -1.0000 -0.0021
vn -0.0000 -0.8612 -0.5083
vn -0.0331 -0.8643 -0.5018
vn 0.0357 -0.9824 -0.1833
vn -0.3299 -0.7966 -0.5066
vn -0.3791 -0.8886 -0.2581
vn -0.7071 -0.7071 -0.0001
vn -0.6097 -0.6097 -0.5066
vn -0.7966 -0.3299 -0.5066
vn -0.8964 -0.3603 -0.2581
vn -0.9993 -0.0369 0.0002
vn -0.8643 -0.0330 -0.5019
vn -1.0000 -0.0000 -0.0021
vn -0.8611 -0.0000 -0.5084
vn -0.8373 0.0937 -0.5387
vn -0.4816 -0.0678 -0.8738
vn -0.4766 -0.0000 -0.8791
vn -0.4952 0.0189 -0.8686
vn -0.4570 0.1883 -0.8693
vn 0.0087 -0.0155 -0.9998
vn -0.1237 0.1553 -0.9801
vn 0.0060 -0.0133 -0.9999
vn -0.3493 0.3493 -0.8695
vn -0.1891 0.4566 -0.8693
vn 0.0105 -0.0101 -0.9999
vn -0.0190 0.4950 -0.8687
vn 0.0101 -0.0049 -0.9999
vn -0.0000 0.4766 -0.8791
vn -0.0000 -0.0256 -0.9997
vn -0.0102 -0.0049 -0.9999
vn 0.0318 0.5335 -0.8452
vn -0.0108 -0.0106 -0.9999
vn 0.1719 0.4842 -0.8579
vn 0.3496 0.3496 -0.8693
vn -0.0104 -0.0103 -0.9999
vn -0.0098 -0.0104 -0.9999
vn 0.4640 0.2207 -0.8579
vn 0.4949 0.0190 -0.8687
vn -0.0049 -0.0101 -0.9999
vn 0.4765 -0.0000 -0.8792
vn -0.0256 -0.0000 -0.9997
vn -0.0047 0.0112 -0.9999
vn 0.4949 -0.0190 -0.8687
vn -0.0087 0.0155 -0.9998
vn 0.4566 -0.1891 -0.8693
vn -0.0060 0.0133 -0.9999
vn 0.3493 -0.3493 -0.8695
vn 0.1891 -0.4566 -0.8693
vn -0.0105 0.0101 -0.9999
vn 0.0190 -0.4949 -0.8687
vn -0.0101 0.0049 -0.9999
vn -0.0000 -0.4765 -0.8792
vn -0.0000 0.0256 -0.9997
vn 0.0102 0.0049 -0.9999
vn -0.0318 -0.5335 -0.8452
vn 0.0110 0.0109 -0.9999
vn -0.1721 -0.4842 -0.8579
vn 0.0097 0.0097 -0.9999
vn -0.3444 -0.3813 -0.8579
vn -0.4565 -0.1891 -0.8694
vn 0.0100 0.0105 -0.9999
vn 0.0049 0.0101 -0.9999
vn -0.1032 0.1294 -0.9862
vn 0.1162 0.1167 0.9863
vn -0.0000 -0.0000 1.0000
vn 0.3827 0.9239 -0.0007
vn -0.0000 -0.0000 -1.0000
vt 0.818544 0.953690
vt 0.777314 0.872094
vt 0.762223 0.760633
vt 0.972416 0.872094
vt 0.931186 0.953690
vt 0.874865 0.983555
vt 0.777314 0.649172
vt 0.818544 0.567576
vt 0.874865 0.537710
vt 0.931186 0.567576
vt 0.972416 0.649172
vt 0.987507 0.760633
vt 0.845711 0.545306
vt 0.874865 0.536614
vt 0.904019 0.545306
vt 0.904383 0.544217
vt 0.931605 0.566527
vt 0.954515 0.603003
vt 0.972946 0.648343
vt 0.984219 0.702216
vt 0.983669 0.702936
vt 0.988061 0.760633
vt 0.984697 0.700793
vt 0.988511 0.760633
vt 0.984219 0.819050
vt 0.983669 0.818329
vt 0.972946 0.872922
vt 0.984697 0.820473
vt 0.973475 0.874134
vt 0.984973 0.822218
vt 0.973861 0.875405
vt 0.988738 0.760633
vt 0.991559 0.901404
vt 0.987983 0.936177
vt 0.991722 0.760633
vt 0.991724 0.903392
vt 0.991806 0.760633
vt 0.991559 0.619862
vt 0.991724 0.617874
vt 0.984973 0.699047
vt 0.987983 0.585088
vt 0.988266 0.583869
vt 0.973861 0.645860
vt 0.973475 0.647131
vt 0.955562 0.600930
vt 0.956060 0.599946
vt 0.978200 0.556130
vt 0.932859 0.564716
vt 0.932217 0.565480
vt 0.963567 0.536769
vt 0.964183 0.536209
vt 0.978618 0.555302
vt 0.947001 0.529364
vt 0.945996 0.529692
vt 0.905984 0.542725
vt 0.874865 0.529203
vt 0.874865 0.529370
vt 0.874865 0.535275
vt 0.905102 0.543272
vt 0.874865 0.535723
vt 0.844628 0.543272
vt 0.843746 0.542725
vt 0.817513 0.565480
vt 0.803734 0.529692
vt 0.816871 0.564716
vt 0.786163 0.536769
vt 0.802730 0.529364
vt 0.785547 0.536209
vt 0.771530 0.556130
vt 0.771112 0.555302
vt 0.793671 0.599946
vt 0.761464 0.583869
vt 0.761748 0.585088
vt 0.794168 0.600930
vt 0.775869 0.645860
vt 0.776255 0.647131
vt 0.764757 0.699047
vt 0.758171 0.619862
vt 0.760993 0.760633
vt 0.765034 0.700793
vt 0.761219 0.760633
vt 0.758009 0.760633
vt 0.758006 0.617874
vt 0.757925 0.760633
vt 0.758171 0.901404
vt 0.758006 0.903392
vt 0.764757 0.822218
vt 0.761748 0.936178
vt 0.761464 0.937396
vt 0.775869 0.875405
vt 0.776255 0.874134
vt 0.765034 0.820473
vt 0.794168 0.920335
vt 0.793671 0.921319
vt 0.771530 0.965136
vt 0.816871 0.956549
vt 0.817513 0.955786
vt 0.786163 0.984496
vt 0.785547 0.985057
vt 0.771112 0.965964
vt 0.802730 0.991901
vt 0.803734 0.991574
vt 0.843746 0.978541
vt 0.874865 0.992062
vt 0.874865 0.991896
vt 0.874865 0.985991
vt 0.844628 0.977994
vt 0.874865 0.985542
vt 0.905102 0.977994
vt 0.905984 0.978541
vt 0.932217 0.955786
vt 0.945996 0.991574
vt 0.932859 0.956549
vt 0.963567 0.984496
vt 0.947001 0.991901
vt 0.964183 0.985057
vt 0.978200 0.965136
vt 0.978618 0.965964
vt 0.956060 0.921319
vt 0.988266 0.937396
vt 0.955562 0.920335
vt 0.954997 0.919217
vt 0.931605 0.954739
vt 0.904383 0.977049
vt 0.904019 0.975960
vt 0.954515 0.918263
vt 0.874865 0.984651
vt 0.845711 0.975960
vt 0.845347 0.977049
vt 0.818126 0.954739
vt 0.795215 0.918263
vt 0.794733 0.919217
vt 0.776784 0.872922
vt 0.765511 0.819050
vt 0.766061 0.818329
vt 0.761669 0.760633
vt 0.765511 0.702216
vt 0.766061 0.702936
vt 0.776784 0.648343
vt 0.795215 0.603003
vt 0.794733 0.602049
vt 0.818126 0.566527
vt 0.845347 0.544217
vt 0.964634 0.985467
vt 0.978924 0.966569
vt 0.988473 0.938289
vt 0.991845 0.904847
vt 0.988549 0.938616
vt 0.991890 0.905380
vt 0.991890 0.760633
vt 0.991867 0.760633
vt 0.991845 0.616418
vt 0.991890 0.615885
vt 0.988473 0.582977
vt 0.988549 0.582650
vt 0.978924 0.554696
vt 0.979036 0.554474
vt 0.964799 0.535648
vt 0.964634 0.535798
vt 0.948005 0.529037
vt 0.947736 0.529125
vt 0.874865 0.529037
vt 0.874865 0.529082
vt 0.801994 0.529125
vt 0.801725 0.529037
vt 0.785096 0.535798
vt 0.784931 0.535648
vt 0.770806 0.554696
vt 0.770694 0.554474
vt 0.761181 0.582650
vt 0.761257 0.582977
vt 0.757841 0.615885
vt 0.757885 0.616418
vt 0.757841 0.760633
vt 0.757863 0.760633
vt 0.757885 0.904847
vt 0.757841 0.905380
vt 0.761257 0.938289
vt 0.761181 0.938616
vt 0.770806 0.966569
vt 0.770694 0.966791
vt 0.784931 0.985618
vt 0.785096 0.985467
vt 0.801725 0.992228
vt 0.801994 0.992141
vt 0.874865 0.992228
vt 0.874865 0.992184
vt 0.947736 0.992141
vt 0.948005 0.992228
vt 0.964799 0.985618
vt 0.979036 0.966791
vt 0.616917 0.260622
vt 0.561709 0.269275
vt 0.616917 0.269275
vt 0.616917 0.251969
vt 0.561709 0.260622
vt 0.964744 0.985354
vt 0.978934 0.966590
vt 0.988416 0.938506
vt 0.616917 0.243315
vt 0.561709 0.251969
vt 0.991890 0.905380
vt 0.991749 0.905352
vt 0.616917 0.234662
vt 0.561709 0.243315
vt 0.991890 0.760633
vt 0.991749 0.760633
vt 0.616917 0.197699
vt 0.561709 0.234662
vt 0.991749 0.615913
vt 0.561709 0.160736
vt 0.616917 0.160736
vt 0.991890 0.615885
vt 0.988416 0.582759
vt 0.616917 0.152082
vt 0.978934 0.554676
vt 0.561709 0.143429
vt 0.616917 0.143429
vt 0.964744 0.535911
vt 0.561709 0.134775
vt 0.616917 0.134775
vt 0.947991 0.529316
vt 0.561709 0.126122
vt 0.616917 0.126122
vt 0.874865 0.529316
vt 0.561709 0.089159
vt 0.616917 0.089159
vt 0.801739 0.529316
vt 0.561709 0.052196
vt 0.784986 0.535911
vt 0.616917 0.043542
vt 0.616917 0.052196
vt 0.770796 0.554676
vt 0.616917 0.034889
vt 0.561709 0.043542
vt 0.761314 0.582759
vt 0.616917 0.460395
vt 0.561709 0.469048
vt 0.616917 0.469048
vt 0.757982 0.615913
vt 0.616917 0.451742
vt 0.561709 0.460395
vt 0.757982 0.760633
vt 0.616917 0.414778
vt 0.561709 0.451742
vt 0.757982 0.905352
vt 0.616917 0.377815
vt 0.561709 0.414778
vt 0.761314 0.938506
vt 0.561709 0.369162
vt 0.616917 0.369162
vt 0.770796 0.966590
vt 0.561709 0.360508
vt 0.616917 0.360508
vt 0.784986 0.985354
vt 0.561709 0.351855
vt 0.616917 0.351855
vt 0.801739 0.991949
vt 0.561709 0.343202
vt 0.616917 0.343202
vt 0.874865 0.991949
vt 0.616917 0.306239
vt 0.947992 0.991949
vt 0.561709 0.306239
vt 0.801777 0.991186
vt 0.874865 0.991187
vt 0.947954 0.991186
vt 0.964594 0.984636
vt 0.964388 0.983654
vt 0.947902 0.990144
vt 0.978277 0.965289
vt 0.978657 0.966040
vt 0.988053 0.938209
vt 0.987557 0.937802
vt 0.991363 0.905277
vt 0.990836 0.905175
vt 0.991363 0.760633
vt 0.990837 0.760633
vt 0.990836 0.616091
vt 0.991363 0.615988
vt 0.987557 0.583463
vt 0.988053 0.583057
vt 0.978657 0.555226
vt 0.978277 0.555977
vt 0.964388 0.537611
vt 0.964594 0.536630
vt 0.947954 0.530079
vt 0.947902 0.531121
vt 0.874865 0.530079
vt 0.874865 0.531120
vt 0.801829 0.531121
vt 0.801777 0.530079
vt 0.785342 0.537611
vt 0.785137 0.536630
vt 0.771453 0.555977
vt 0.771074 0.555226
vt 0.761677 0.583057
vt 0.762173 0.583463
vt 0.758367 0.615988
vt 0.758894 0.616091
vt 0.758367 0.760633
vt 0.758893 0.760633
vt 0.758894 0.905175
vt 0.758367 0.905277
vt 0.762173 0.937802
vt 0.761677 0.938209
vt 0.771453 0.965289
vt 0.771074 0.966040
vt 0.785137 0.984636
vt 0.785342 0.983654
vt 0.801829 0.990144
vt 0.874865 0.990146
vt 0.617753 0.138759
vt 0.623669 0.150475
vt 0.646536 0.152157
vt 0.669402 0.150502
vt 0.675322 0.138794
vt 0.676172 0.093541
vt 0.623687 0.036544
vt 0.617767 0.048252
vt 0.616917 0.093505
vt 0.675336 0.048287
vt 0.669420 0.036572
vt 0.646554 0.034889
vt 0.954997 0.602049
vt 0.874865 0.760633
vt 0.561709 0.197699
vt 0.988549 0.582650
vt 0.561709 0.152082
vt 0.561709 0.034889
vt 0.561709 0.377815
vt 0.658942 0.093523
vt 0.616917 0.130425
vt 0.620123 0.145781
vt 0.627880 0.152135
vt 0.665191 0.152157
vt 0.672951 0.145813
vt 0.676161 0.130461
vt 0.627898 0.034889
vt 0.620139 0.041233
vt 0.616928 0.056586
vt 0.676172 0.056621
vt 0.672967 0.041265
vt 0.665209 0.034911
s 1
usemtl multitexture
f 117/1/1 122/2/2 3/3/3
f 138/4/4 110/5/5 2/6/6
f 130/7/7 134/8/8 5/9/9
f 10/10/10 14/11/11 4/12/12
f 7/13/13 6/14/14 5/9/9
f 6/14/14 8/15/15 5/9/9
f 9/16/16 10/10/10 8/15/15
f 11/17/17 12/18/18 10/10/10
f 12/18/18 15/19/19 14/11/11
f 14/11/11 17/20/20 16/21/21
f 19/22/22 16/21/21 17/20/20
f 15/19/19 18/23/23 17/20/20
f 20/24/24 17/20/20 18/23/23
f 20/24/24 21/25/25 19/22/22
f 19/22/22 22/26/26 4/12/12
f 138/4/4 21/25/25 23/27/27
f 23/27/27 24/28/28 25/29/29
f 25/29/29 26/30/30 27/31/31
f 28/32/32 24/28/28 20/24/24
f 27/31/31 29/33/33 31/34/34
f 26/30/30 32/35/35 29/33/33
f 30/36/36 31/34/34 29/33/33
f 33/37/37 29/33/33 32/35/35
f 33/37/37 34/38/38 35/39/39
f 37/40/40 32/35/35 28/32/32
f 35/39/39 36/41/41 152/42/42
f 34/38/38 38/43/43 36/41/41
f 39/44/44 37/40/40 18/23/23
f 28/32/32 18/23/23 37/40/40
f 41/45/45 38/43/43 39/44/44
f 36/41/41 40/46/46 43/47/47
f 42/48/48 41/45/45 290/49/49
f 45/50/50 40/46/46 42/48/48
f 43/47/47 46/51/51 44/52/52
f 152/42/42 43/47/47 44/52/52
f 45/50/50 48/53/53 46/51/51
f 47/54/54 42/48/48 50/55/55
f 47/54/54 161/56/56 48/53/53
f 49/57/57 50/55/55 52/58/58
f 50/55/55 290/49/49 51/59/59
f 52/58/58 51/59/59 53/60/60
f 55/61/61 52/58/58 53/60/60
f 54/62/62 49/57/57 52/58/58
f 136/63/63 54/62/62 55/61/61
f 57/64/64 56/65/65 59/66/66
f 58/67/67 59/66/66 60/68/68
f 161/56/56 57/64/64 58/67/67
f 60/68/68 61/69/69 62/70/70
f 59/66/66 64/71/71 61/69/69
f 169/72/72 61/69/69 63/73/73
f 64/71/71 63/73/73 61/69/69
f 65/74/74 56/65/65 136/63/63
f 65/74/74 66/75/75 64/71/71
f 67/76/76 68/77/77 66/75/75
f 66/75/75 71/78/78 63/73/73
f 70/79/79 69/80/80 126/81/81
f 68/77/77 73/82/82 71/78/78
f 72/83/83 63/73/73 71/78/78
f 74/84/84 71/78/78 73/82/82
f 74/84/84 75/85/85 76/86/86
f 78/87/87 73/82/82 70/79/79
f 76/86/86 77/88/88 179/89/89
f 75/85/85 80/90/90 77/88/88
f 81/91/91 78/87/87 79/92/92
f 70/79/79 79/92/92 78/87/87
f 83/93/93 80/90/90 81/91/91
f 77/88/88 82/94/94 85/95/95
f 84/96/96 83/93/93 118/97/97
f 87/98/98 82/94/94 84/96/96
f 85/95/95 88/99/99 86/100/100
f 179/89/89 85/95/95 86/100/100
f 87/98/98 90/101/101 88/99/99
f 89/102/102 84/96/96 92/103/103
f 89/102/102 187/104/104 90/101/101
f 91/105/105 92/103/103 94/106/106
f 92/103/103 118/97/97 93/107/107
f 94/106/106 93/107/107 95/108/108
f 97/109/109 94/106/106 95/108/108
f 96/110/110 91/105/105 94/106/106
f 108/111/111 96/110/110 97/109/109
f 99/112/112 98/113/113 101/114/114
f 100/115/115 101/114/114 102/116/116
f 187/104/104 99/112/112 100/115/115
f 102/116/116 103/117/117 104/118/118
f 101/114/114 105/119/119 103/117/117
f 140/120/120 103/117/117 31/34/34
f 105/119/119 31/34/34 103/117/117
f 106/121/121 98/113/113 108/111/111
f 106/121/121 27/31/31 105/119/119
f 107/122/122 108/111/111 109/123/123
f 107/122/122 25/29/29 106/121/121
f 109/123/123 97/109/109 111/124/124
f 110/5/5 111/124/124 112/125/125
f 137/126/126 109/123/123 110/5/5
f 112/125/125 113/127/127 2/6/6
f 111/124/124 95/108/108 113/127/127
f 113/127/127 115/128/128 2/6/6
f 95/108/108 114/129/129 113/127/127
f 114/129/129 117/1/1 115/128/128
f 93/107/107 116/130/130 114/129/129
f 116/130/130 120/131/131 117/1/1
f 118/97/97 119/132/132 116/130/130
f 120/131/131 121/133/133 122/2/2
f 119/132/132 81/91/91 121/133/133
f 122/2/2 123/134/134 124/135/135
f 121/133/133 79/92/92 123/134/134
f 125/136/136 124/135/135 123/134/134
f 126/81/81 123/134/134 79/92/92
f 126/81/81 127/137/137 125/136/136
f 125/136/136 128/138/138 3/3/3
f 130/7/7 127/137/137 129/139/139
f 129/139/139 69/80/80 67/76/76
f 132/140/140 129/139/139 131/141/141
f 131/141/141 67/76/76 65/74/74
f 132/140/140 133/142/142 134/8/8
f 131/141/141 136/63/63 133/142/142
f 134/8/8 135/143/143 7/13/13
f 133/142/142 55/61/61 135/143/143
f 135/143/143 53/60/60 6/14/14
f 137/126/126 23/27/27 107/122/122
f 190/144/144 104/118/118 139/145/145
f 141/146/146 104/118/118 140/120/120
f 143/147/147 140/120/120 30/36/36
f 142/148/148 139/145/145 141/146/146
f 144/149/149 141/146/146 143/147/147
f 146/150/150 143/147/147 145/151/151
f 145/151/151 30/36/36 33/37/37
f 146/150/150 147/152/152 148/153/153
f 145/151/151 35/39/39 147/152/152
f 148/153/153 149/154/154 150/155/155
f 147/152/152 152/42/42 149/154/154
f 150/155/155 151/156/156 153/157/157
f 149/154/154 44/52/52 151/156/156
f 151/156/156 155/158/158 153/157/157
f 44/52/52 154/159/159 151/156/156
f 154/159/159 157/160/160 155/158/158
f 46/51/51 156/161/161 154/159/159
f 156/161/161 159/162/162 157/160/160
f 48/53/53 158/163/163 156/161/161
f 159/162/162 160/164/164 162/165/165
f 158/163/163 58/67/67 160/164/164
f 162/165/165 163/166/166 164/167/167
f 160/164/164 60/68/68 163/166/166
f 164/167/167 165/168/168 166/169/169
f 163/166/166 62/70/70 165/168/168
f 168/170/170 165/168/168 167/171/171
f 167/171/171 62/70/70 169/72/72
f 171/172/172 167/171/171 170/173/173
f 170/173/173 169/72/72 72/83/83
f 173/174/174 170/173/173 172/175/175
f 172/175/175 72/83/83 74/84/84
f 173/174/174 174/176/176 175/177/177
f 172/175/175 76/86/86 174/176/176
f 175/177/177 176/178/178 177/179/179
f 174/176/176 179/89/89 176/178/178
f 177/179/179 178/180/180 180/181/181
f 176/178/178 86/100/100 178/180/180
f 178/180/180 182/182/182 180/181/181
f 86/100/100 181/183/183 178/180/180
f 181/183/183 184/184/184 182/182/182
f 88/99/99 183/185/185 181/183/183
f 183/185/185 186/186/186 184/184/184
f 90/101/101 185/187/187 183/185/185
f 186/186/186 188/188/188 189/189/189
f 185/187/187 100/115/115 188/188/188
f 189/189/189 190/144/144 191/190/190
f 188/188/188 102/116/116 190/144/144
f 191/190/190 139/145/145 192/191/191
f 191/192/190 195/193/192 189/194/189
f 192/195/191 193/196/193 191/192/190
f 194/197/194 195/189/192 193/190/193
f 194/197/194 196/191/195 197/198/196
f 197/198/196 198/148/197 199/199/198
f 142/200/148 196/201/195 192/195/191
f 199/199/198 200/202/199 201/203/200
f 144/204/149 198/205/197 142/200/148
f 201/203/200 202/206/201 203/207/202
f 146/208/150 200/209/199 144/204/149
f 202/206/201 205/210/203 203/207/202
f 204/211/204 146/208/150 148/212/153
f 204/213/204 207/214/205 205/210/203
f 150/215/155 204/211/204 148/212/153
f 207/214/205 208/157/206 209/216/207
f 208/217/206 150/215/155 153/218/157
f 209/216/207 210/158/208 211/219/209
f 210/220/208 153/218/157 155/221/158
f 211/219/209 212/160/210 213/222/211
f 212/223/210 155/221/158 157/224/160
f 213/222/211 214/162/212 215/225/213
f 214/226/212 157/224/160 159/227/162
f 217/228/214 214/162/212 216/165/215
f 159/227/162 216/229/215 214/226/212
f 219/230/216 216/165/215 218/167/217
f 164/231/167 216/229/215 162/232/165
f 219/230/216 220/169/218 221/233/219
f 166/234/169 218/235/217 164/231/167
f 221/233/219 222/170/220 223/236/221
f 168/237/170 220/238/218 166/239/169
f 223/236/221 224/172/222 225/240/223
f 171/241/172 222/242/220 168/237/170
f 225/240/223 226/174/224 227/243/225
f 173/244/174 224/245/222 171/241/172
f 226/174/224 229/246/226 227/243/225
f 175/247/177 226/248/224 173/244/174
f 228/177/227 231/249/228 229/246/226
f 230/250/229 175/247/177 177/251/179
f 231/249/228 232/181/230 233/252/231
f 232/253/230 177/251/179 180/254/181
f 232/181/230 235/255/232 233/252/231
f 234/256/233 180/254/181 182/257/182
f 235/255/232 236/184/234 237/258/235
f 236/259/234 182/257/182 184/260/184
f 237/258/235 238/186/236 239/261/237
f 186/262/186 236/259/234 184/260/184
f 241/263/238 238/186/236 195/189/192
f 189/194/189 238/264/236 186/262/186
f 286/265/239 239/261/237 240/266/240
f 242/267/241 239/261/237 241/263/238
f 244/268/242 241/263/238 194/197/194
f 245/269/243 242/267/241 244/268/242
f 243/270/244 240/266/240 242/267/241
f 247/271/245 244/268/242 246/272/246
f 244/268/242 197/198/196 246/272/246
f 247/271/245 248/273/247 249/274/248
f 248/273/247 197/198/196 199/199/198
f 249/274/248 250/275/249 251/276/250
f 248/273/247 201/203/200 250/275/249
f 251/276/250 252/277/251 253/278/252
f 250/275/249 203/207/202 252/277/251
f 252/277/251 255/279/253 253/278/252
f 203/207/202 254/280/254 252/277/251
f 254/280/254 257/281/255 255/279/253
f 205/210/203 256/282/256 254/280/254
f 257/281/255 258/283/257 259/284/258
f 207/214/205 258/283/257 256/282/256
f 258/283/257 261/285/259 259/284/258
f 209/216/207 260/286/260 258/283/257
f 261/285/259 262/287/261 263/288/262
f 260/286/260 213/222/211 262/287/261
f 263/288/262 264/289/263 265/290/264
f 262/287/261 215/225/213 264/289/263
f 267/291/265 264/289/263 266/292/266
f 266/292/266 215/225/213 217/228/214
f 269/293/267 266/292/266 268/294/268
f 268/294/268 217/228/214 219/230/216
f 271/295/269 268/294/268 270/296/270
f 268/294/268 221/233/219 270/296/270
f 271/295/269 272/297/271 273/298/272
f 272/297/271 221/233/219 223/236/221
f 273/298/272 274/299/273 275/300/274
f 272/297/271 225/240/223 274/299/273
f 275/300/274 276/301/275 277/302/276
f 274/299/273 227/243/225 276/301/275
f 276/301/275 279/303/277 277/302/276
f 227/243/225 278/304/278 276/301/275
f 278/304/278 281/305/279 279/303/277
f 229/246/226 280/306/280 278/304/278
f 280/306/280 283/307/281 281/305/279
f 231/249/228 282/308/282 280/306/280
f 283/307/281 284/309/283 285/310/284
f 282/308/282 235/255/232 284/309/283
f 285/310/284 286/265/239 287/311/285
f 284/309/283 237/258/235 286/265/239
f 287/311/285 240/266/240 288/312/286
f 281/313/279 285/314/284 288/315/286
f 245/316/243 249/317/248 253/318/252
f 269/319/267 273/320/272 277/321/276
f 257/322/255 261/323/259 265/324/264
f 53/60/60 9/16/16 6/14/14
f 51/59/59 11/17/17 9/16/16
f 290/49/49 13/325/287 11/17/17
f 13/325/287 39/44/44 15/19/19
f 3/3/3 1/326/288 2/6/6
f 2/6/6 115/128/128 117/1/1
f 117/1/1 120/131/131 122/2/2
f 122/2/2 124/135/135 3/3/3
f 3/3/3 2/6/6 117/1/1
f 2/6/6 1/326/288 4/12/12
f 4/12/12 22/26/26 138/4/4
f 138/4/4 137/126/126 110/5/5
f 110/5/5 112/125/125 2/6/6
f 2/6/6 4/12/12 138/4/4
f 5/9/9 1/326/288 3/3/3
f 3/3/3 128/138/138 130/7/7
f 130/7/7 132/140/140 134/8/8
f 134/8/8 7/13/13 5/9/9
f 5/9/9 3/3/3 130/7/7
f 4/12/12 1/326/288 5/9/9
f 5/9/9 8/15/15 10/10/10
f 10/10/10 12/18/18 14/11/11
f 14/11/11 16/21/21 4/12/12
f 4/12/12 5/9/9 10/10/10
f 7/13/13 135/143/143 6/14/14
f 6/14/14 9/16/16 8/15/15
f 9/16/16 11/17/17 10/10/10
f 11/17/17 13/325/287 12/18/18
f 12/18/18 13/325/287 15/19/19
f 14/11/11 15/19/19 17/20/20
f 19/22/22 4/12/12 16/21/21
f 15/19/19 39/44/44 18/23/23
f 20/24/24 19/22/22 17/20/20
f 20/24/24 24/28/28 21/25/25
f 19/22/22 21/25/25 22/26/26
f 138/4/4 22/26/26 21/25/25
f 23/27/27 21/25/25 24/28/28
f 25/29/29 24/28/28 26/30/30
f 28/32/32 26/30/30 24/28/28
f 27/31/31 26/30/30 29/33/33
f 26/30/30 28/32/32 32/35/35
f 30/36/36 140/120/120 31/34/34
f 33/37/37 30/36/36 29/33/33
f 33/37/37 32/35/35 34/38/38
f 37/40/40 34/38/38 32/35/35
f 35/39/39 34/38/38 36/41/41
f 34/38/38 37/40/40 38/43/43
f 39/44/44 38/43/43 37/40/40
f 28/32/32 20/24/24 18/23/23
f 41/45/45 40/46/46 38/43/43
f 36/41/41 38/43/43 40/46/46
f 42/48/48 40/46/46 41/45/45
f 45/50/50 43/47/47 40/46/46
f 43/47/47 45/50/50 46/51/51
f 152/42/42 36/41/41 43/47/47
f 45/50/50 47/54/54 48/53/53
f 47/54/54 45/50/50 42/48/48
f 47/54/54 49/57/57 161/56/56
f 49/57/57 47/54/54 50/55/55
f 50/55/55 42/48/48 290/49/49
f 52/58/58 50/55/55 51/59/59
f 55/61/61 54/62/62 52/58/58
f 54/62/62 57/64/64 49/57/57
f 136/63/63 56/65/65 54/62/62
f 57/64/64 54/62/62 56/65/65
f 58/67/67 57/64/64 59/66/66
f 161/56/56 49/57/57 57/64/64
f 60/68/68 59/66/66 61/69/69
f 59/66/66 56/65/65 64/71/71
f 169/72/72 62/70/70 61/69/69
f 64/71/71 66/75/75 63/73/73
f 65/74/74 64/71/71 56/65/65
f 65/74/74 67/76/76 66/75/75
f 67/76/76 69/80/80 68/77/77
f 66/75/75 68/77/77 71/78/78
f 70/79/79 68/77/77 69/80/80
f 68/77/77 70/79/79 73/82/82
f 72/83/83 169/72/72 63/73/73
f 74/84/84 72/83/83 71/78/78
f 74/84/84 73/82/82 75/85/85
f 78/87/87 75/85/85 73/82/82
f 76/86/86 75/85/85 77/88/88
f 75/85/85 78/87/87 80/90/90
f 81/91/91 80/90/90 78/87/87
f 70/79/79 126/81/81 79/92/92
f 83/93/93 82/94/94 80/90/90
f 77/88/88 80/90/90 82/94/94
f 84/96/96 82/94/94 83/93/93
f 87/98/98 85/95/95 82/94/94
f 85/95/95 87/98/98 88/99/99
f 179/89/89 77/88/88 85/95/95
f 87/98/98 89/102/102 90/101/101
f 89/102/102 87/98/98 84/96/96
f 89/102/102 91/105/105 187/104/104
f 91/105/105 89/102/102 92/103/103
f 92/103/103 84/96/96 118/97/97
f 94/106/106 92/103/103 93/107/107
f 97/109/109 96/110/110 94/106/106
f 96/110/110 99/112/112 91/105/105
f 108/111/111 98/113/113 96/110/110
f 99/112/112 96/110/110 98/113/113
f 100/115/115 99/112/112 101/114/114
f 187/104/104 91/105/105 99/112/112
f 102/116/116 101/114/114 103/117/117
f 101/114/114 98/113/113 105/119/119
f 140/120/120 104/118/118 103/117/117
f 105/119/119 27/31/31 31/34/34
f 106/121/121 105/119/119 98/113/113
f 106/121/121 25/29/29 27/31/31
f 107/122/122 106/121/121 108/111/111
f 107/122/122 23/27/27 25/29/29
f 109/123/123 108/111/111 97/109/109
f 110/5/5 109/123/123 111/124/124
f 137/126/126 107/122/122 109/123/123
f 112/125/125 111/124/124 113/127/127
f 111/124/124 97/109/109 95/108/108
f 113/127/127 114/129/129 115/128/128
f 95/108/108 93/107/107 114/129/129
f 114/129/129 116/130/130 117/1/1
f 93/107/107 118/97/97 116/130/130
f 116/130/130 119/132/132 120/131/131
f 118/97/97 83/93/93 119/132/132
f 120/131/131 119/132/132 121/133/133
f 119/132/132 83/93/93 81/91/91
f 122/2/2 121/133/133 123/134/134
f 121/133/133 81/91/91 79/92/92
f 125/136/136 3/3/3 124/135/135
f 126/81/81 125/136/136 123/134/134
f 126/81/81 69/80/80 127/137/137
f 125/136/136 127/137/137 128/138/138
f 130/7/7 128/138/138 127/137/137
f 129/139/139 127/137/137 69/80/80
f 132/140/140 130/7/7 129/139/139
f 131/141/141 129/139/139 67/76/76
f 132/140/140 131/141/141 133/142/142
f 131/141/141 65/74/74 136/63/63
f 134/8/8 133/142/142 135/143/143
f 133/142/142 136/63/63 55/61/61
f 135/143/143 55/61/61 53/60/60
f 137/126/126 138/4/4 23/27/27
f 190/144/144 102/116/116 104/118/118
f 141/146/146 139/145/145 104/118/118
f 143/147/147 141/146/146 140/120/120
f 142/148/148 192/191/191 139/145/145
f 144/149/149 142/148/148 141/146/146
f 146/150/150 144/149/149 143/147/147
f 145/151/151 143/147/147 30/36/36
f 146/150/150 145/151/151 147/152/152
f 145/151/151 33/37/37 35/39/39
f 148/153/153 147/152/152 149/154/154
f 147/152/152 35/39/39 152/42/42
f 150/155/155 149/154/154 151/156/156
f 149/154/154 152/42/42 44/52/52
f 151/156/156 154/159/159 155/158/158
f 44/52/52 46/51/51 154/159/159
f 154/159/159 156/161/161 157/160/160
f 46/51/51 48/53/53 156/161/161
f 156/161/161 158/163/163 159/162/162
f 48/53/53 161/56/56 158/163/163
f 159/162/162 158/163/163 160/164/164
f 158/163/163 161/56/56 58/67/67
f 162/165/165 160/164/164 163/166/166
f 160/164/164 58/67/67 60/68/68
f 164/167/167 163/166/166 165/168/168
f 163/166/166 60/68/68 62/70/70
f 168/170/170 166/169/169 165/168/168
f 167/171/171 165/168/168 62/70/70
f 171/172/172 168/170/170 167/171/171
f 170/173/173 167/171/171 169/72/72
f 173/174/174 171/172/172 170/173/173
f 172/175/175 170/173/173 72/83/83
f 173/174/174 172/175/175 174/176/176
f 172/175/175 74/84/84 76/86/86
f 175/177/177 174/176/176 176/178/178
f 174/176/176 76/86/86 179/89/89
f 177/179/179 176/178/178 178/180/180
f 176/178/178 179/89/89 86/100/100
f 178/180/180 181/183/183 182/182/182
f 86/100/100 88/99/99 181/183/183
f 181/183/183 183/185/185 184/184/184
f 88/99/99 90/101/101 183/185/185
f 183/185/185 185/187/187 186/186/186
f 90/101/101 187/104/104 185/187/187
f 186/186/186 185/187/187 188/188/188
f 185/187/187 187/104/104 100/115/115
f 189/189/189 188/188/188 190/144/144
f 188/188/188 100/115/115 102/116/116
f 191/190/190 190/144/144 139/145/145
f 191/192/190 193/196/193 195/193/192
f 192/195/191 196/201/195 193/196/193
f 194/197/194 241/263/238 195/189/192
f 194/197/194 193/190/193 196/191/195
f 197/198/196 196/191/195 198/148/197
f 142/200/148 198/205/197 196/201/195
f 199/199/198 198/148/197 200/202/199
f 144/204/149 200/209/199 198/205/197
f 201/203/200 200/202/199 202/206/201
f 146/208/150 202/327/201 200/209/199
f 202/206/201 204/213/204 205/210/203
f 204/211/204 202/327/201 146/208/150
f 204/213/204 206/328/289 207/214/205
f 150/215/155 206/329/289 204/211/204
f 207/214/205 206/328/289 208/157/206
f 208/217/206 206/329/289 150/215/155
f 209/216/207 208/157/206 210/158/208
f 210/220/208 208/217/206 153/218/157
f 211/219/209 210/158/208 212/160/210
f 212/223/210 210/220/208 155/221/158
f 213/222/211 212/160/210 214/162/212
f 214/226/212 212/223/210 157/224/160
f 217/228/214 215/225/213 214/162/212
f 159/227/162 162/232/165 216/229/215
f 219/230/216 217/228/214 216/165/215
f 164/231/167 218/235/217 216/229/215
f 219/230/216 218/167/217 220/169/218
f 166/234/169 220/330/218 218/235/217
f 221/233/219 220/169/218 222/170/220
f 168/237/170 222/242/220 220/238/218
f 223/236/221 222/170/220 224/172/222
f 171/241/172 224/245/222 222/242/220
f 225/240/223 224/172/222 226/174/224
f 173/244/174 226/248/224 224/245/222
f 226/174/224 228/177/227 229/246/226
f 175/247/177 228/331/227 226/248/224
f 228/177/227 230/179/229 231/249/228
f 230/250/229 228/331/227 175/247/177
f 231/249/228 230/179/229 232/181/230
f 232/253/230 230/250/229 177/251/179
f 232/181/230 234/182/233 235/255/232
f 234/256/233 232/253/230 180/254/181
f 235/255/232 234/182/233 236/184/234
f 236/259/234 234/256/233 182/257/182
f 237/258/235 236/184/234 238/186/236
f 186/262/186 238/264/236 236/259/234
f 241/263/238 239/261/237 238/186/236
f 189/194/189 195/193/192 238/264/236
f 286/265/239 237/258/235 239/261/237
f 242/267/241 240/266/240 239/261/237
f 244/268/242 242/267/241 241/263/238
f 245/269/243 243/270/244 242/267/241
f 243/270/244 288/312/286 240/266/240
f 247/271/245 245/269/243 244/268/242
f 244/268/242 194/197/194 197/198/196
f 247/271/245 246/272/246 248/273/247
f 248/273/247 246/272/246 197/198/196
f 249/274/248 248/273/247 250/275/249
f 248/273/247 199/199/198 201/203/200
f 251/276/250 250/275/249 252/277/251
f 250/275/249 201/203/200 203/207/202
f 252/277/251 254/280/254 255/279/253
f 203/207/202 205/210/203 254/280/254
f 254/280/254 256/282/256 257/281/255
f 205/210/203 207/214/205 256/282/256
f 257/281/255 256/282/256 258/283/257
f 207/214/205 209/216/207 258/283/257
f 258/283/257 260/286/260 261/285/259
f 209/216/207 211/219/209 260/286/260
f 261/285/259 260/286/260 262/287/261
f 260/286/260 211/219/209 213/222/211
f 263/288/262 262/287/261 264/289/263
f 262/287/261 213/222/211 215/225/213
f 267/291/265 265/290/264 264/289/263
f 266/292/266 264/289/263 215/225/213
f 269/293/267 267/291/265 266/292/266
f 268/294/268 266/292/266 217/228/214
f 271/295/269 269/293/267 268/294/268
f 268/294/268 219/230/216 221/233/219
f 271/295/269 270/296/270 272/297/271
f 272/297/271 270/296/270 221/233/219
f 273/298/272 272/297/271 274/299/273
f 272/297/271 223/236/221 225/240/223
f 275/300/274 274/299/273 276/301/275
f 274/299/273 225/240/223 227/243/225
f 276/301/275 278/304/278 279/303/277
f 227/243/225 229/246/226 278/304/278
f 278/304/278 280/306/280 281/305/279
f 229/246/226 231/249/228 280/306/280
f 280/306/280 282/308/282 283/307/281
f 231/249/228 233/252/231 282/308/282
f 283/307/281 282/308/282 284/309/283
f 282/308/282 233/252/231 235/255/232
f 285/310/284 284/309/283 286/265/239
f 284/309/283 235/255/232 237/258/235
f 287/311/285 286/265/239 240/266/240
f 288/315/286 289/332/290 277/321/276
f 277/321/276 279/333/277 281/313/279
f 281/313/279 283/334/281 285/314/284
f 285/314/284 287/335/285 288/315/286
f 288/315/286 277/321/276 281/313/279
f 253/318/252 289/332/290 288/315/286
f 288/315/286 243/336/244 245/316/243
f 245/316/243 247/337/245 249/317/248
f 249/317/248 251/338/250 253/318/252
f 253/318/252 288/315/286 245/316/243
f 277/321/276 289/332/290 265/324/264
f 265/324/264 267/339/265 269/319/267
f 269/319/267 271/340/269 273/320/272
f 273/320/272 275/341/274 277/321/276
f 277/321/276 265/324/264 269/319/267
f 265/324/264 289/332/290 253/318/252
f 253/318/252 255/342/253 257/322/255
f 257/322/255 259/343/258 261/323/259
f 261/323/259 263/344/262 265/324/264
f 265/324/264 253/318/252 257/322/255
f 53/60/60 51/59/59 9/16/16
f 51/59/59 290/49/49 11/17/17
f 290/49/49 41/45/45 13/325/287
f 13/325/287 41/45/45 39/44/44
