# Blender 5.0.1
# www.blender.org

mtllib material.mtl
o center_L
v -0.299458 0.000000 0.000000
v -0.299458 0.000000 -0.096412
v -0.299458 -0.096412 0.000000
v -0.299458 0.096413 0.000000
v -0.299458 0.000000 0.096412
v -0.299372 0.000000 0.096886
v -0.299458 -0.024953 0.093127
v -0.299458 0.024954 0.093127
v -0.299392 0.025265 0.093598
v -0.299458 0.048206 0.083496
v -0.299399 0.048565 0.083949
v -0.299458 0.068174 0.068174
v -0.299401 0.068586 0.068586
v -0.299458 0.083496 0.048206
v -0.299399 0.083950 0.048564
v -0.299458 0.093127 0.024953
v -0.299392 0.093598 0.025265
v -0.299212 0.094007 0.025880
v -0.299372 0.096886 0.000000
v -0.299136 0.097272 0.000000
v -0.299392 0.093598 -0.025265
v -0.299458 0.093127 -0.024953
v -0.299399 0.083950 -0.048564
v -0.299212 0.094007 -0.025880
v -0.299239 0.084402 -0.049089
v -0.298967 0.094244 -0.026635
v -0.299019 0.084733 -0.049638
v -0.298814 0.097466 0.000000
v -0.287329 0.099880 -0.060882
v -0.286916 0.100022 -0.061742
v -0.287219 0.096819 -0.075922
v -0.287388 0.100020 0.000000
v -0.286946 0.100092 0.000000
v -0.287329 0.099880 0.060882
v -0.286916 0.100022 0.061742
v -0.287219 0.096819 0.075922
v -0.298967 0.094244 0.026635
v -0.299019 0.084733 0.049638
v -0.299239 0.084402 0.049089
v -0.299034 0.069496 0.069496
v -0.299246 0.069070 0.069070
v -0.299019 0.049638 0.084732
v -0.287192 0.088446 0.088446
v -0.286848 0.088804 0.088804
v -0.287219 0.075922 0.096819
v -0.286861 0.076449 0.097062
v -0.287329 0.060883 0.099880
v -0.286916 0.061742 0.100022
v -0.287388 0.000000 0.100020
v -0.298967 0.026635 0.094244
v -0.299212 0.025881 0.094007
v -0.298814 0.000000 0.097466
v -0.299136 0.000000 0.097272
v -0.298967 -0.026635 0.094244
v -0.299213 -0.025880 0.094007
v -0.299019 -0.049638 0.084732
v -0.287330 -0.060882 0.099880
v -0.286917 -0.061742 0.100022
v -0.287219 -0.075922 0.096819
v -0.286861 -0.076449 0.097062
v -0.287192 -0.088446 0.088446
v -0.286848 -0.088804 0.088804
v -0.287219 -0.096819 0.075922
v -0.299034 -0.069496 0.069496
v -0.299246 -0.069070 0.069070
v -0.299019 -0.084732 0.049638
v -0.299239 -0.084402 0.049089
v -0.298967 -0.094243 0.026635
v -0.299213 -0.094007 0.025880
v -0.298815 -0.097465 0.000000
v -0.287330 -0.099880 0.060882
v -0.286917 -0.100022 0.061742
v -0.287388 -0.100019 0.000000
v -0.286946 -0.100091 0.000000
v -0.287330 -0.099880 -0.060882
v -0.286917 -0.100022 -0.061742
v -0.287219 -0.096819 -0.075922
v -0.298967 -0.094243 -0.026635
v -0.299213 -0.094007 -0.025880
v -0.299019 -0.084732 -0.049638
v -0.299239 -0.084402 -0.049089
v -0.299034 -0.069496 -0.069496
v -0.299246 -0.069070 -0.069070
v -0.299019 -0.049638 -0.084732
v -0.287193 -0.088446 -0.088446
v -0.286848 -0.088804 -0.088804
v -0.287219 -0.075921 -0.096819
v -0.286861 -0.076449 -0.097062
v -0.287330 -0.060882 -0.099880
v -0.286917 -0.061742 -0.100022
v -0.287388 0.000000 -0.100019
v -0.298967 -0.026635 -0.094243
v -0.299213 -0.025880 -0.094007
v -0.298815 0.000000 -0.097465
v -0.299136 0.000000 -0.097272
v -0.298967 0.026635 -0.094243
v -0.299213 0.025881 -0.094007
v -0.299019 0.049638 -0.084732
v -0.287329 0.060883 -0.099880
v -0.286917 0.061742 -0.100022
v -0.287219 0.075922 -0.096819
v -0.286861 0.076449 -0.097062
v -0.287192 0.088446 -0.088446
v -0.286848 0.088804 -0.088804
v -0.299034 0.069496 -0.069496
v -0.299246 0.069070 -0.069070
v -0.299401 0.068586 -0.068586
v -0.299239 0.049089 -0.084402
v -0.299399 0.048565 -0.083949
v -0.299458 0.048206 -0.083495
v -0.299392 0.025265 -0.093598
v -0.299458 0.024954 -0.093127
v -0.299372 0.000000 -0.096886
v -0.299392 -0.025265 -0.093598
v -0.299458 -0.024953 -0.093127
v -0.299400 -0.048564 -0.083949
v -0.299458 -0.048206 -0.083495
v -0.299239 -0.049088 -0.084402
v -0.299402 -0.068586 -0.068586
v -0.299458 -0.068174 -0.068174
v -0.299400 -0.083949 -0.048564
v -0.299458 -0.083495 -0.048206
v -0.299392 -0.093598 -0.025265
v -0.299458 -0.093127 -0.024953
v -0.299372 -0.096886 0.000000
v -0.299136 -0.097271 0.000000
v -0.299392 -0.093598 0.025265
v -0.299458 -0.093127 0.024953
v -0.299400 -0.083949 0.048564
v -0.299458 -0.083495 0.048206
v -0.299401 -0.068586 0.068586
v -0.299458 -0.068174 0.068174
v -0.299400 -0.048564 0.083949
v -0.299458 -0.048206 0.083496
v -0.299392 -0.025265 0.093598
v -0.299239 -0.049088 0.084402
v -0.299458 0.068174 -0.068174
v -0.299458 0.083496 -0.048206
v -0.286354 0.089066 -0.089066
v -0.286861 0.097062 -0.076449
v -0.286358 0.097239 -0.076835
v -0.285844 0.097304 -0.076976
v -0.286373 0.100126 -0.062372
v -0.285844 0.100163 -0.062602
v -0.286380 0.100144 0.000000
v -0.285844 0.100163 0.000000
v -0.286373 0.100126 0.062372
v -0.285844 0.100163 0.062602
v -0.286358 0.097239 0.076835
v -0.285844 0.097304 0.076976
v -0.286354 0.089066 0.089066
v -0.286861 0.097062 0.076449
v -0.285844 0.089162 0.089162
v -0.286358 0.076835 0.097239
v -0.285844 0.076976 0.097304
v -0.286373 0.062372 0.100125
v -0.285844 0.062602 0.100163
v -0.286381 0.000000 0.100144
v -0.285844 0.000000 0.100163
v -0.286373 -0.062371 0.100125
v -0.286946 0.000000 0.100091
v -0.285844 -0.062602 0.100163
v -0.286358 -0.076835 0.097239
v -0.285844 -0.076976 0.097304
v -0.286354 -0.089066 0.089066
v -0.285844 -0.089162 0.089162
v -0.286358 -0.097239 0.076835
v -0.285844 -0.097304 0.076976
v -0.286861 -0.097061 0.076449
v -0.286373 -0.100125 0.062372
v -0.285844 -0.100163 0.062602
v -0.286381 -0.100144 0.000000
v -0.285844 -0.100163 0.000000
v -0.286373 -0.100125 -0.062372
v -0.285844 -0.100163 -0.062602
v -0.286358 -0.097239 -0.076835
v -0.285844 -0.097304 -0.076976
v -0.286354 -0.089066 -0.089066
v -0.286861 -0.097061 -0.076449
v -0.285844 -0.089162 -0.089162
v -0.286358 -0.076835 -0.097239
v -0.285844 -0.076976 -0.097304
v -0.286373 -0.062371 -0.100125
v -0.285844 -0.062602 -0.100163
v -0.286381 0.000000 -0.100144
v -0.285844 0.000000 -0.100163
v -0.286946 0.000000 -0.100091
v -0.286373 0.062372 -0.100125
v -0.285844 0.062602 -0.100163
v -0.286358 0.076835 -0.097239
v -0.285844 0.076976 -0.097304
v -0.285844 0.089162 -0.089162
v -0.100799 0.076976 -0.097304
v -0.100349 0.076929 -0.097190
v -0.100799 0.062602 -0.100163
v -0.100799 0.089162 -0.089162
v -0.100348 0.089075 -0.089075
v -0.100799 0.097304 -0.076976
v -0.100348 0.097190 -0.076929
v -0.100799 0.100163 -0.062602
v -0.100348 0.100043 -0.062590
v -0.100799 0.100163 0.000000
v -0.100353 0.100043 0.000000
v -0.100799 0.100163 0.062602
v -0.100348 0.100043 0.062590
v -0.100799 0.097304 0.076976
v -0.100348 0.097190 0.076929
v -0.100799 0.089162 0.089162
v -0.100348 0.089075 0.089075
v -0.100799 0.076976 0.097304
v -0.100348 0.076929 0.097190
v -0.100799 0.062602 0.100163
v -0.100349 0.062590 0.100043
v -0.100799 0.000000 0.100163
v -0.100353 0.000000 0.100043
v -0.100799 -0.062602 0.100163
v -0.100349 -0.062590 0.100043
v -0.100799 -0.076976 0.097304
v -0.100349 -0.076929 0.097190
v -0.100799 -0.089162 0.089162
v -0.100349 -0.089075 0.089075
v -0.100799 -0.097304 0.076976
v -0.100349 -0.097190 0.076929
v -0.100799 -0.100163 0.062602
v -0.100349 -0.100042 0.062590
v -0.100799 -0.100163 0.000000
v -0.100353 -0.100042 0.000000
v -0.100799 -0.100163 -0.062602
v -0.100349 -0.100042 -0.062590
v -0.100799 -0.097304 -0.076976
v -0.100349 -0.097190 -0.076929
v -0.100799 -0.089162 -0.089162
v -0.100349 -0.089075 -0.089075
v -0.100799 -0.076976 -0.097304
v -0.100349 -0.076929 -0.097190
v -0.100799 -0.062602 -0.100163
v -0.100349 -0.062590 -0.100042
v -0.100799 0.000000 -0.100163
v -0.100353 0.000000 -0.100043
v -0.100035 0.000000 -0.099713
v -0.100349 0.062590 -0.100042
v -0.100019 0.062558 -0.099713
v -0.099898 0.062513 -0.099262
v -0.100019 0.076800 -0.096879
v -0.099898 0.076624 -0.096455
v -0.100019 0.088837 -0.088837
v -0.099898 0.088512 -0.088512
v -0.100019 0.096880 -0.076800
v -0.099898 0.096455 -0.076624
v -0.100019 0.099713 -0.062558
v -0.099898 0.099262 -0.062513
v -0.100035 0.099713 0.000000
v -0.099931 0.099262 0.000000
v -0.100019 0.099713 0.062558
v -0.099898 0.099262 0.062513
v -0.100019 0.096880 0.076800
v -0.099898 0.096455 0.076624
v -0.100019 0.088837 0.088837
v -0.099898 0.088512 0.088512
v -0.100019 0.076800 0.096880
v -0.099898 0.076624 0.096455
v -0.100019 0.062558 0.099713
v -0.099898 0.062513 0.099262
v -0.100035 0.000000 0.099713
v -0.099931 0.000000 0.099262
v -0.100019 -0.062558 0.099713
v -0.099898 -0.062513 0.099262
v -0.100019 -0.076800 0.096880
v -0.099898 -0.076624 0.096455
v -0.100019 -0.088837 0.088837
v -0.099898 -0.088512 0.088512
v -0.100019 -0.096879 0.076800
v -0.099898 -0.096455 0.076624
v -0.100019 -0.099712 0.062558
v -0.099898 -0.099262 0.062513
v -0.100035 -0.099713 0.000000
v -0.099931 -0.099262 0.000000
v -0.100019 -0.099712 -0.062558
v -0.099898 -0.099262 -0.062513
v -0.100019 -0.096879 -0.076800
v -0.099898 -0.096455 -0.076624
v -0.100019 -0.088837 -0.088837
v -0.099898 -0.088512 -0.088512
v -0.100019 -0.076800 -0.096880
v -0.099898 -0.076624 -0.096455
v -0.100019 -0.062558 -0.099713
v -0.099898 -0.062513 -0.099262
v -0.099931 0.000000 -0.099262
v -0.103596 0.000000 0.000000
v -0.299239 0.049089 0.084402
vn -1.0000 0.0065 -0.0030
vn -1.0000 0.0040 -0.0065
vn -0.9959 -0.0561 -0.0715
vn -1.0000 0.0031 0.0064
vn -1.0000 0.0065 0.0040
vn -0.9855 0.0500 -0.1622
vn -1.0000 -0.0030 -0.0065
vn -1.0000 -0.0065 -0.0040
vn -0.9959 -0.0715 0.0561
vn -1.0000 -0.0065 0.0030
vn -1.0000 -0.0040 0.0065
vn -0.9855 0.1623 0.0501
vn -1.0000 0.0018 -0.0056
vn -0.9337 -0.0000 0.3580
vn -0.9904 0.0116 0.1380
vn -0.9676 0.0788 0.2399
vn -0.9834 0.0895 0.1577
vn -0.9945 0.0636 0.0829
vn -0.9845 0.1520 0.0873
vn -0.9784 0.1996 0.0537
vn -0.9903 0.1300 0.0484
vn -0.9299 0.3675 0.0118
vn -0.9275 0.3613 0.0964
vn -0.6980 0.7155 0.0292
vn -0.9784 0.1996 -0.0536
vn -0.9904 0.1380 -0.0116
vn -0.9845 0.1520 -0.0873
vn -0.8616 0.4818 -0.1597
vn -0.9549 0.2575 -0.1477
vn -0.6328 0.7680 -0.0990
vn -0.8859 0.4082 -0.2205
vn -0.2125 0.9772 0.0009
vn -0.6269 0.7749 -0.0813
vn -0.8911 0.4058 -0.2034
vn -0.2868 0.9580 -0.0000
vn -0.2569 0.9654 -0.0439
vn -0.1204 0.9927 -0.0000
vn -0.6269 0.7748 0.0813
vn -0.2586 0.9652 0.0389
vn -0.7739 0.6327 0.0293
vn -0.8911 0.4058 0.2033
vn -0.6491 0.7032 0.2902
vn -0.8859 0.4082 0.2206
vn -0.9549 0.2576 0.1474
vn -0.9592 0.1945 0.2051
vn -0.9277 0.2384 0.2873
vn -0.9138 0.2872 0.2873
vn -0.8859 0.2212 0.4077
vn -0.9549 0.1478 0.2576
vn -0.8559 0.0658 0.5129
vn -0.6491 0.2902 0.7032
vn -0.7232 0.4883 0.4884
vn -0.2586 0.0389 0.9652
vn -0.5854 0.0615 0.8084
vn -0.6328 0.0987 0.7680
vn -0.1204 -0.0000 0.9927
vn -0.1944 -0.0601 0.9791
vn -0.2125 -0.0000 0.9772
vn -0.9275 0.0956 0.3613
vn -0.7168 -0.0000 0.6973
vn -0.8531 -0.1307 0.5050
vn -0.6334 -0.1368 0.7617
vn -0.9460 -0.1634 0.2801
vn -0.6127 -0.1061 0.7832
vn -0.9111 -0.2089 0.3552
vn -0.8910 -0.2036 0.4058
vn -0.5492 -0.0495 0.8342
vn -0.6491 -0.2902 0.7032
vn -0.9138 -0.2872 0.2872
vn -0.7232 -0.4883 0.4883
vn -0.9130 -0.2884 0.2884
vn -0.6494 -0.7031 0.2899
vn -0.8911 -0.4058 0.2033
vn -0.9592 -0.2051 0.1945
vn -0.8965 -0.3769 0.2329
vn -0.9460 -0.2801 0.1634
vn -0.6327 -0.7680 0.0990
vn -0.6269 -0.7748 0.0813
vn -0.2125 -0.9772 -0.0009
vn -0.8530 -0.5055 0.1298
vn -0.7168 -0.6973 -0.0000
vn -0.2868 -0.9580 -0.0000
vn -0.2569 -0.9654 0.0439
vn -0.1205 -0.9927 -0.0000
vn -0.6269 -0.7748 -0.0813
vn -0.2586 -0.9652 -0.0389
vn -0.7738 -0.6327 -0.0293
vn -0.8911 -0.4058 -0.2033
vn -0.6491 -0.7032 -0.2902
vn -0.8859 -0.4082 -0.2206
vn -0.9460 -0.2801 -0.1635
vn -0.9276 -0.3613 -0.0953
vn -0.9592 -0.1945 -0.2051
vn -0.9277 -0.2384 -0.2872
vn -0.9138 -0.2872 -0.2873
vn -0.8859 -0.2212 -0.4077
vn -0.9549 -0.1478 -0.2575
vn -0.8559 -0.0658 -0.5129
vn -0.6491 -0.2901 -0.7032
vn -0.7232 -0.4883 -0.4883
vn -0.2586 -0.0389 -0.9652
vn -0.5854 -0.0615 -0.8084
vn -0.6328 -0.0987 -0.7680
vn -0.1204 -0.0000 -0.9927
vn -0.1944 0.0601 -0.9791
vn -0.2124 -0.0000 -0.9772
vn -0.9275 -0.0956 -0.3613
vn -0.7167 -0.0000 -0.6974
vn -0.8532 0.1307 -0.5050
vn -0.6334 0.1368 -0.7617
vn -0.9460 0.1634 -0.2800
vn -0.6127 0.1061 -0.7832
vn -0.9111 0.2089 -0.3552
vn -0.8910 0.2036 -0.4058
vn -0.5492 0.0495 -0.8342
vn -0.6491 0.2902 -0.7032
vn -0.9138 0.2872 -0.2872
vn -0.7232 0.4884 -0.4883
vn -0.9130 0.2884 -0.2884
vn -0.6382 0.7138 -0.2885
vn -0.9592 0.2051 -0.1945
vn -0.9864 0.1160 -0.1168
vn -0.9845 0.0874 -0.1520
vn -0.9784 0.0535 -0.1995
vn -0.9903 0.0484 -0.1300
vn -1.0000 -0.0011 -0.0006
vn -0.9337 -0.0000 -0.3581
vn -0.9904 -0.0116 -0.1380
vn -0.9768 -0.0226 -0.2129
vn -0.9848 -0.0821 -0.1531
vn -0.9945 -0.0635 -0.0829
vn -0.9863 -0.1169 -0.1161
vn -0.9845 -0.1519 -0.0873
vn -0.9784 -0.1996 -0.0537
vn -0.9903 -0.1300 -0.0484
vn -0.9299 -0.3675 -0.0118
vn -0.9784 -0.1996 0.0536
vn -0.9904 -0.1380 0.0116
vn -0.9845 -0.1519 0.0873
vn -0.9945 -0.0823 0.0646
vn -0.9863 -0.1168 0.1169
vn -0.9845 -0.0873 0.1520
vn -0.9721 -0.0791 0.2208
vn -0.3829 0.3707 -0.8461
vn -0.4505 0.6313 -0.6313
vn -0.3835 0.8541 -0.3513
vn -0.1318 0.9904 -0.0409
vn -0.0022 0.9224 -0.3863
vn 0.0023 0.9992 -0.0394
vn 0.0086 1.0000 -0.0002
vn -0.0655 0.9979 -0.0000
vn -0.1344 0.9902 0.0374
vn -0.0003 0.9993 0.0372
vn -0.3838 0.8539 0.3515
vn -0.0026 0.9239 0.3827
vn -0.4505 0.6313 0.6313
vn -0.0017 0.7071 0.7071
vn -0.0025 0.3827 0.9239
vn -0.3683 0.3549 0.8593
vn -0.0002 0.0371 0.9993
vn -0.1235 0.1645 0.9786
vn 0.0086 -0.0000 1.0000
vn -0.0645 -0.0009 0.9979
vn -0.1344 -0.0375 0.9902
vn -0.0003 -0.0372 0.9993
vn -0.3839 -0.3515 0.8539
vn -0.0026 -0.3827 0.9239
vn -0.4506 -0.6313 0.6313
vn -0.0017 -0.7071 0.7071
vn -0.0022 -0.9224 0.3863
vn -0.3838 -0.8539 0.3515
vn 0.0022 -0.9992 0.0395
vn -0.1344 -0.9902 0.0374
vn 0.0086 -1.0000 0.0002
vn -0.0655 -0.9979 -0.0000
vn -0.1344 -0.9902 -0.0375
vn -0.0004 -0.9993 -0.0373
vn -0.3839 -0.8539 -0.3515
vn -0.0022 -0.9239 -0.3826
vn -0.4506 -0.6313 -0.6313
vn -0.0017 -0.7071 -0.7071
vn -0.0028 -0.3828 -0.9238
vn -0.3683 -0.3549 -0.8593
vn -0.0003 -0.0372 -0.9993
vn -0.1235 -0.1645 -0.9786
vn 0.0086 -0.0000 -1.0000
vn -0.0646 0.0009 -0.9979
vn -0.1344 0.0375 -0.9902
vn -0.0003 0.0372 -0.9993
vn -0.0022 0.3826 -0.9239
vn -0.1232 0.7849 -0.6072
vn 0.0012 0.3827 -0.9239
vn 0.0006 0.0372 -0.9993
vn 0.5066 0.3294 -0.7968
vn 0.1264 0.6032 -0.7875
vn 0.5064 0.6097 -0.6097
vn 0.0005 0.9239 -0.3827
vn 0.5066 0.7966 -0.3298
vn 0.0006 0.9993 -0.0372
vn 0.5019 0.8643 -0.0330
vn 0.0014 1.0000 -0.0000
vn 0.5084 0.8611 -0.0000
vn 0.5019 0.8643 0.0330
vn 0.1833 0.9824 -0.0357
vn 0.5066 0.7966 0.3299
vn 0.2586 0.8885 0.3791
vn 0.5065 0.6097 0.6097
vn 0.2581 0.6759 0.6903
vn 0.0005 0.3827 0.9239
vn 0.5066 0.3299 0.7966
vn 0.0003 0.0371 0.9993
vn 0.5019 0.0330 0.8643
vn 0.0021 -0.0000 1.0000
vn 0.5085 -0.0000 0.8610
vn 0.5015 -0.0330 0.8645
vn -0.0002 -0.0369 0.9993
vn 0.5066 -0.3294 0.7968
vn 0.0010 -0.3827 0.9239
vn 0.0005 -0.7071 0.7071
vn 0.5064 -0.6097 0.6097
vn 0.0005 -0.9239 0.3827
vn 0.5066 -0.7966 0.3299
vn -0.0000 -0.9993 0.0370
vn 0.5019 -0.8643 0.0330
vn 0.0030 -1.0000 -0.0000
vn 0.5083 -0.8612 -0.0000
vn 0.5018 -0.8643 -0.0331
vn 0.2309 -0.9534 -0.1942
vn 0.5066 -0.7966 -0.3299
vn 0.2579 -0.8887 -0.3791
vn 0.0002 -0.7071 -0.7071
vn 0.5066 -0.6097 -0.6097
vn 0.5065 -0.3299 -0.7966
vn -0.0002 -0.0369 -0.9993
vn 0.5019 -0.0331 -0.8643
vn 0.0020 -0.0000 -1.0000
vn 0.5084 -0.0000 -0.8611
vn 0.5387 0.0937 -0.8373
vn 0.8738 -0.0678 -0.4816
vn 0.8792 -0.0000 -0.4765
vn 0.8686 0.0189 -0.4952
vn 0.8693 0.1882 -0.4570
vn 0.9998 -0.0155 0.0087
vn 0.9801 0.1553 -0.1237
vn 0.9999 -0.0133 0.0061
vn 0.8695 0.3493 -0.3493
vn 0.8693 0.4566 -0.1891
vn 0.9999 -0.0101 0.0105
vn 0.8687 0.4949 -0.0190
vn 0.9999 -0.0049 0.0101
vn 0.8791 0.4766 -0.0000
vn 0.9997 -0.0256 -0.0000
vn 0.9999 -0.0049 -0.0102
vn 0.8452 0.5335 0.0318
vn 0.9999 -0.0108 -0.0110
vn 0.8579 0.4841 0.1721
vn 0.9999 -0.0097 -0.0097
vn 0.8579 0.3814 0.3443
vn 0.8693 0.1891 0.4566
vn 0.9999 -0.0105 -0.0101
vn 0.8687 0.0190 0.4949
vn 0.9999 -0.0101 -0.0049
vn 0.8789 -0.0000 0.4769
vn 0.9997 -0.0000 -0.0256
vn 0.9999 0.0112 -0.0047
vn 0.8687 -0.0190 0.4949
vn 0.9998 0.0155 -0.0087
vn 0.8693 -0.1891 0.4566
vn 0.9999 0.0133 -0.0061
vn 0.8695 -0.3493 0.3493
vn 0.8693 -0.4566 0.1891
vn 0.9999 0.0101 -0.0105
vn 0.8687 -0.4950 0.0190
vn 0.9999 0.0049 -0.0101
vn 0.8792 -0.4764 -0.0000
vn 0.9997 0.0256 -0.0000
vn 0.9999 0.0049 0.0102
vn 0.8452 -0.5335 -0.0318
vn 0.9999 0.0109 0.0110
vn 0.8579 -0.4842 -0.1721
vn 0.9999 0.0097 0.0098
vn 0.8579 -0.3813 -0.3444
vn 0.8694 -0.1891 -0.4565
vn 0.9999 0.0105 0.0101
vn 0.9999 0.0101 0.0049
vn 0.9862 0.1294 -0.1032
vn -0.9863 0.1168 0.1161
vn -1.0000 -0.0000 -0.0000
vn 0.0007 -0.3827 -0.9239
vn 1.0000 -0.0000 -0.0000
vt 0.068544 0.439024
vt 0.027314 0.357429
vt 0.012223 0.245968
vt 0.222416 0.357429
vt 0.181186 0.439024
vt 0.124865 0.468890
vt 0.027314 0.134506
vt 0.068544 0.052911
vt 0.124865 0.023045
vt 0.181186 0.052911
vt 0.222416 0.134506
vt 0.237507 0.245968
vt 0.095711 0.030641
vt 0.124865 0.021949
vt 0.154019 0.030641
vt 0.154383 0.029552
vt 0.181605 0.051861
vt 0.204515 0.088337
vt 0.222946 0.133678
vt 0.234219 0.187551
vt 0.233669 0.188271
vt 0.238061 0.245968
vt 0.234697 0.186127
vt 0.238511 0.245968
vt 0.234219 0.304384
vt 0.233669 0.303664
vt 0.222946 0.358257
vt 0.234697 0.305808
vt 0.223475 0.359469
vt 0.234973 0.307553
vt 0.223861 0.360740
vt 0.238738 0.245968
vt 0.241559 0.386739
vt 0.237983 0.421512
vt 0.241722 0.245968
vt 0.241724 0.388727
vt 0.241806 0.245968
vt 0.241559 0.105197
vt 0.241724 0.103208
vt 0.234973 0.184382
vt 0.237983 0.070423
vt 0.238266 0.069204
vt 0.223861 0.131195
vt 0.223475 0.132466
vt 0.205562 0.086265
vt 0.206060 0.085281
vt 0.228200 0.041464
vt 0.182859 0.050051
vt 0.182217 0.050815
vt 0.213567 0.022104
vt 0.214183 0.021543
vt 0.228618 0.040637
vt 0.197001 0.014699
vt 0.195996 0.015026
vt 0.155984 0.028060
vt 0.124865 0.014538
vt 0.124865 0.014704
vt 0.124865 0.020610
vt 0.155102 0.028607
vt 0.124865 0.021058
vt 0.094628 0.028607
vt 0.093746 0.028060
vt 0.067513 0.050815
vt 0.053734 0.015026
vt 0.066871 0.050051
vt 0.036163 0.022104
vt 0.052730 0.014699
vt 0.035547 0.021543
vt 0.021530 0.041464
vt 0.021112 0.040637
vt 0.043671 0.085281
vt 0.011464 0.069204
vt 0.011748 0.070423
vt 0.044168 0.086265
vt 0.025869 0.131195
vt 0.026255 0.132466
vt 0.014757 0.184382
vt 0.008171 0.105197
vt 0.010993 0.245968
vt 0.015034 0.186127
vt 0.011219 0.245968
vt 0.008009 0.245968
vt 0.008006 0.103209
vt 0.007925 0.245968
vt 0.008171 0.386739
vt 0.008006 0.388727
vt 0.014757 0.307553
vt 0.011748 0.421512
vt 0.011464 0.422731
vt 0.025869 0.360740
vt 0.026255 0.359469
vt 0.015034 0.305808
vt 0.044168 0.405670
vt 0.043671 0.406654
vt 0.021530 0.450471
vt 0.066871 0.441884
vt 0.067513 0.441121
vt 0.036163 0.469831
vt 0.035547 0.470392
vt 0.021112 0.451299
vt 0.052730 0.477236
vt 0.053734 0.476909
vt 0.093746 0.463876
vt 0.124865 0.477397
vt 0.124865 0.477231
vt 0.124865 0.471326
vt 0.094628 0.463328
vt 0.124865 0.470877
vt 0.155102 0.463328
vt 0.155984 0.463876
vt 0.182217 0.441121
vt 0.195996 0.476909
vt 0.182859 0.441884
vt 0.213567 0.469831
vt 0.197001 0.477236
vt 0.214183 0.470392
vt 0.228200 0.450471
vt 0.228618 0.451298
vt 0.206060 0.406654
vt 0.238266 0.422731
vt 0.205562 0.405670
vt 0.204997 0.404552
vt 0.181605 0.440074
vt 0.154383 0.462384
vt 0.154019 0.461295
vt 0.204515 0.403598
vt 0.124865 0.469986
vt 0.095711 0.461295
vt 0.095347 0.462384
vt 0.068126 0.440074
vt 0.045215 0.403598
vt 0.044733 0.404552
vt 0.026784 0.358257
vt 0.015511 0.304384
vt 0.016061 0.303664
vt 0.011669 0.245968
vt 0.015511 0.187551
vt 0.016061 0.188271
vt 0.026784 0.133678
vt 0.045215 0.088337
vt 0.044733 0.087384
vt 0.068126 0.051861
vt 0.095347 0.029552
vt 0.214634 0.470802
vt 0.228924 0.451904
vt 0.238473 0.423624
vt 0.241845 0.390182
vt 0.238549 0.423950
vt 0.241890 0.390715
vt 0.241890 0.245968
vt 0.241867 0.245968
vt 0.241845 0.101753
vt 0.241890 0.101220
vt 0.238473 0.068312
vt 0.238549 0.067985
vt 0.228924 0.040031
vt 0.229036 0.039809
vt 0.214799 0.020983
vt 0.214634 0.021133
vt 0.198005 0.014372
vt 0.197736 0.014460
vt 0.124865 0.014372
vt 0.124865 0.014417
vt 0.051994 0.014460
vt 0.051725 0.014372
vt 0.035096 0.021133
vt 0.034931 0.020983
vt 0.020806 0.040031
vt 0.020694 0.039809
vt 0.011181 0.067985
vt 0.011257 0.068312
vt 0.007841 0.101220
vt 0.007885 0.101753
vt 0.007841 0.245968
vt 0.007863 0.245968
vt 0.007885 0.390182
vt 0.007841 0.390715
vt 0.011257 0.423624
vt 0.011181 0.423950
vt 0.020806 0.451904
vt 0.020694 0.452126
vt 0.034931 0.470952
vt 0.035096 0.470802
vt 0.051725 0.477563
vt 0.051994 0.477476
vt 0.124865 0.477563
vt 0.124865 0.477519
vt 0.197736 0.477476
vt 0.198005 0.477563
vt 0.214799 0.470952
vt 0.229036 0.452126
vt 0.616917 0.269275
vt 0.561709 0.260622
vt 0.561709 0.269275
vt 0.616917 0.251969
vt 0.616917 0.260622
vt 0.964744 0.470689
vt 0.948005 0.477563
vt 0.964799 0.470952
vt 0.979036 0.452126
vt 0.978934 0.451925
vt 0.988549 0.423950
vt 0.988416 0.423841
vt 0.616917 0.243315
vt 0.561709 0.251969
vt 0.991890 0.390715
vt 0.991749 0.390687
vt 0.616917 0.234662
vt 0.561709 0.243315
vt 0.991890 0.245968
vt 0.991749 0.245968
vt 0.561709 0.197699
vt 0.561709 0.234662
vt 0.991749 0.101248
vt 0.616917 0.160736
vt 0.616917 0.197699
vt 0.991890 0.101220
vt 0.988416 0.068094
vt 0.561709 0.152082
vt 0.616917 0.152082
vt 0.988549 0.067985
vt 0.978934 0.040011
vt 0.561709 0.143429
vt 0.616917 0.143429
vt 0.964799 0.020983
vt 0.964744 0.021246
vt 0.561709 0.134775
vt 0.616917 0.134775
vt 0.948005 0.014372
vt 0.947991 0.014651
vt 0.561709 0.126122
vt 0.616917 0.126122
vt 0.874865 0.014372
vt 0.874865 0.014651
vt 0.561709 0.089159
vt 0.616917 0.089159
vt 0.801739 0.014651
vt 0.801725 0.014372
vt 0.561709 0.052196
vt 0.784986 0.021246
vt 0.784931 0.020983
vt 0.616917 0.043542
vt 0.616917 0.052196
vt 0.770694 0.039809
vt 0.770796 0.040011
vt 0.616917 0.034889
vt 0.561709 0.043542
vt 0.761181 0.067985
vt 0.761314 0.068094
vt 0.616917 0.460395
vt 0.561709 0.469048
vt 0.616917 0.469048
vt 0.757841 0.101220
vt 0.757982 0.101248
vt 0.616917 0.451742
vt 0.561709 0.460395
vt 0.757841 0.245968
vt 0.757982 0.245968
vt 0.616917 0.414778
vt 0.561709 0.451742
vt 0.757982 0.390687
vt 0.561709 0.377815
vt 0.616917 0.377815
vt 0.757841 0.390715
vt 0.761314 0.423841
vt 0.561709 0.369162
vt 0.616917 0.369162
vt 0.770694 0.452126
vt 0.770796 0.451925
vt 0.616917 0.360508
vt 0.784986 0.470689
vt 0.616917 0.351855
vt 0.561709 0.360508
vt 0.801725 0.477563
vt 0.801739 0.477284
vt 0.561709 0.343202
vt 0.616917 0.343202
vt 0.874865 0.477563
vt 0.874865 0.477284
vt 0.616917 0.306239
vt 0.947992 0.477284
vt 0.561709 0.306239
vt 0.801777 0.476521
vt 0.874865 0.476522
vt 0.947954 0.476521
vt 0.964594 0.469971
vt 0.964388 0.468989
vt 0.947902 0.475479
vt 0.978277 0.450623
vt 0.978657 0.451375
vt 0.988053 0.423544
vt 0.987557 0.423137
vt 0.991363 0.390612
vt 0.990836 0.390510
vt 0.991363 0.245968
vt 0.990837 0.245968
vt 0.990836 0.101426
vt 0.991363 0.101323
vt 0.987557 0.068798
vt 0.988053 0.068392
vt 0.978277 0.041312
vt 0.978657 0.040561
vt 0.964594 0.021965
vt 0.964388 0.022946
vt 0.947954 0.015414
vt 0.947902 0.016456
vt 0.874865 0.015413
vt 0.874865 0.016455
vt 0.801829 0.016456
vt 0.801777 0.015414
vt 0.785342 0.022946
vt 0.785137 0.021965
vt 0.771453 0.041312
vt 0.771074 0.040561
vt 0.761677 0.068392
vt 0.762173 0.068798
vt 0.758367 0.101323
vt 0.758894 0.101426
vt 0.758367 0.245968
vt 0.758893 0.245968
vt 0.758894 0.390510
vt 0.758367 0.390612
vt 0.762173 0.423137
vt 0.761677 0.423544
vt 0.771453 0.450623
vt 0.771074 0.451375
vt 0.785137 0.469971
vt 0.785342 0.468989
vt 0.801829 0.475479
vt 0.874865 0.475481
vt 0.617753 0.138759
vt 0.623669 0.150475
vt 0.646536 0.152157
vt 0.669402 0.150502
vt 0.675322 0.138794
vt 0.676172 0.093541
vt 0.623687 0.036544
vt 0.617767 0.048252
vt 0.616917 0.093505
vt 0.675336 0.048287
vt 0.669420 0.036572
vt 0.646554 0.034889
vt 0.204997 0.087384
vt 0.124865 0.245968
vt 0.561709 0.160736
vt 0.979036 0.039809
vt 0.561709 0.034889
vt 0.561709 0.414778
vt 0.761181 0.423950
vt 0.784931 0.470952
vt 0.561709 0.351855
vt 0.658942 0.093523
vt 0.616917 0.130425
vt 0.620123 0.145781
vt 0.627880 0.152135
vt 0.665191 0.152157
vt 0.672951 0.145813
vt 0.676161 0.130461
vt 0.627898 0.034889
vt 0.620139 0.041233
vt 0.616928 0.056586
vt 0.676172 0.056621
vt 0.672967 0.041265
vt 0.665209 0.034911
s 1
usemtl multitexture
f 117/1/1 122/2/2 3/3/3
f 138/4/4 110/5/5 2/6/6
f 130/7/7 134/8/8 5/9/9
f 10/10/10 14/11/11 4/12/12
f 7/13/13 6/14/14 5/9/9
f 6/14/14 8/15/15 5/9/9
f 9/16/16 10/10/10 8/15/15
f 11/17/17 12/18/18 10/10/10
f 12/18/18 15/19/19 14/11/11
f 14/11/11 17/20/20 16/21/21
f 19/22/22 16/21/21 17/20/20
f 15/19/19 18/23/23 17/20/20
f 20/24/24 17/20/20 18/23/23
f 20/24/24 21/25/25 19/22/22
f 19/22/22 22/26/26 4/12/12
f 138/4/4 21/25/25 23/27/27
f 23/27/27 24/28/28 25/29/29
f 25/29/29 26/30/30 27/31/31
f 28/32/32 24/28/28 20/24/24
f 27/31/31 29/33/33 31/34/34
f 26/30/30 32/35/35 29/33/33
f 30/36/36 31/34/34 29/33/33
f 33/37/37 29/33/33 32/35/35
f 33/37/37 34/38/38 35/39/39
f 37/40/40 32/35/35 28/32/32
f 35/39/39 36/41/41 152/42/42
f 34/38/38 38/43/43 36/41/41
f 39/44/44 37/40/40 18/23/23
f 28/32/32 18/23/23 37/40/40
f 41/45/45 38/43/43 39/44/44
f 36/41/41 40/46/46 43/47/47
f 42/48/48 41/45/45 290/49/49
f 45/50/50 40/46/46 42/48/48
f 43/47/47 46/51/51 44/52/52
f 152/42/42 43/47/47 44/52/52
f 45/50/50 48/53/53 46/51/51
f 47/54/54 42/48/48 50/55/55
f 47/54/54 161/56/56 48/53/53
f 49/57/57 50/55/55 52/58/58
f 50/55/55 290/49/49 51/59/59
f 52/58/58 51/59/59 53/60/60
f 55/61/61 52/58/58 53/60/60
f 54/62/62 49/57/57 52/58/58
f 136/63/63 54/62/62 55/61/61
f 57/64/64 56/65/65 59/66/66
f 58/67/67 59/66/66 60/68/68
f 161/56/56 57/64/64 58/67/67
f 60/68/68 61/69/69 62/70/70
f 59/66/66 64/71/71 61/69/69
f 169/72/72 61/69/69 63/73/73
f 64/71/71 63/73/73 61/69/69
f 65/74/74 56/65/65 136/63/63
f 65/74/74 66/75/75 64/71/71
f 67/76/76 68/77/77 66/75/75
f 66/75/75 71/78/78 63/73/73
f 70/79/79 69/80/80 126/81/81
f 68/77/77 73/82/82 71/78/78
f 72/83/83 63/73/73 71/78/78
f 74/84/84 71/78/78 73/82/82
f 74/84/84 75/85/85 76/86/86
f 78/87/87 73/82/82 70/79/79
f 76/86/86 77/88/88 179/89/89
f 75/85/85 80/90/90 77/88/88
f 81/91/91 78/87/87 79/92/92
f 70/79/79 79/92/92 78/87/87
f 83/93/93 80/90/90 81/91/91
f 77/88/88 82/94/94 85/95/95
f 84/96/96 83/93/93 118/97/97
f 87/98/98 82/94/94 84/96/96
f 85/95/95 88/99/99 86/100/100
f 179/89/89 85/95/95 86/100/100
f 87/98/98 90/101/101 88/99/99
f 89/102/102 84/96/96 92/103/103
f 89/102/102 187/104/104 90/101/101
f 91/105/105 92/103/103 94/106/106
f 92/103/103 118/97/97 93/107/107
f 94/106/106 93/107/107 95/108/108
f 97/109/109 94/106/106 95/108/108
f 96/110/110 91/105/105 94/106/106
f 108/111/111 96/110/110 97/109/109
f 99/112/112 98/113/113 101/114/114
f 100/115/115 101/114/114 102/116/116
f 187/104/104 99/112/112 100/115/115
f 102/116/116 103/117/117 104/118/118
f 101/114/114 105/119/119 103/117/117
f 140/120/120 103/117/117 31/34/34
f 105/119/119 31/34/34 103/117/117
f 106/121/121 98/113/113 108/111/111
f 106/121/121 27/31/31 105/119/119
f 107/122/122 108/111/111 109/123/123
f 107/122/122 25/29/29 106/121/121
f 109/123/123 97/109/109 111/124/124
f 110/5/5 111/124/124 112/125/125
f 137/126/126 109/123/123 110/5/5
f 112/125/125 113/127/127 2/6/6
f 111/124/124 95/108/108 113/127/127
f 113/127/127 115/128/128 2/6/6
f 95/108/108 114/129/129 113/127/127
f 114/129/129 117/1/1 115/128/128
f 93/107/107 116/130/130 114/129/129
f 116/130/130 120/131/131 117/1/1
f 118/97/97 119/132/132 116/130/130
f 120/131/131 121/133/133 122/2/2
f 119/132/132 81/91/91 121/133/133
f 122/2/2 123/134/134 124/135/135
f 121/133/133 79/92/92 123/134/134
f 125/136/136 124/135/135 123/134/134
f 126/81/81 123/134/134 79/92/92
f 126/81/81 127/137/137 125/136/136
f 125/136/136 128/138/138 3/3/3
f 130/7/7 127/137/137 129/139/139
f 129/139/139 69/80/80 67/76/76
f 132/140/140 129/139/139 131/141/141
f 131/141/141 67/76/76 65/74/74
f 132/140/140 133/142/142 134/8/8
f 131/141/141 136/63/63 133/142/142
f 134/8/8 135/143/143 7/13/13
f 133/142/142 55/61/61 135/143/143
f 135/143/143 53/60/60 6/14/14
f 137/126/126 23/27/27 107/122/122
f 190/144/144 104/118/118 139/145/145
f 141/146/146 104/118/118 140/120/120
f 143/147/147 140/120/120 30/36/36
f 142/148/148 139/145/145 141/146/146
f 144/149/149 141/146/146 143/147/147
f 146/150/150 143/147/147 145/151/151
f 145/151/151 30/36/36 33/37/37
f 146/150/150 147/152/152 148/153/153
f 145/151/151 35/39/39 147/152/152
f 148/153/153 149/154/154 150/155/155
f 147/152/152 152/42/42 149/154/154
f 150/155/155 151/156/156 153/157/157
f 149/154/154 44/52/52 151/156/156
f 151/156/156 155/158/158 153/157/157
f 44/52/52 154/159/159 151/156/156
f 154/159/159 157/160/160 155/158/158
f 46/51/51 156/161/161 154/159/159
f 156/161/161 159/162/162 157/160/160
f 48/53/53 158/163/163 156/161/161
f 159/162/162 160/164/164 162/165/165
f 158/163/163 58/67/67 160/164/164
f 162/165/165 163/166/166 164/167/167
f 160/164/164 60/68/68 163/166/166
f 164/167/167 165/168/168 166/169/169
f 163/166/166 62/70/70 165/168/168
f 168/170/170 165/168/168 167/171/171
f 167/171/171 62/70/70 169/72/72
f 171/172/172 167/171/171 170/173/173
f 170/173/173 169/72/72 72/83/83
f 173/174/174 170/173/173 172/175/175
f 172/175/175 72/83/83 74/84/84
f 173/174/174 174/176/176 175/177/177
f 172/175/175 76/86/86 174/176/176
f 175/177/177 176/178/178 177/179/179
f 174/176/176 179/89/89 176/178/178
f 177/179/179 178/180/180 180/181/181
f 176/178/178 86/100/100 178/180/180
f 178/180/180 182/182/182 180/181/181
f 86/100/100 181/183/183 178/180/180
f 181/183/183 184/184/184 182/182/182
f 88/99/99 183/185/185 181/183/183
f 183/185/185 186/186/186 184/184/184
f 90/101/101 185/187/187 183/185/185
f 186/186/186 188/188/188 189/189/189
f 185/187/187 100/115/115 188/188/188
f 189/189/189 190/144/144 191/190/190
f 188/188/188 102/116/116 190/144/144
f 191/190/190 139/145/145 192/191/191
f 189/192/189 193/193/192 195/194/193
f 192/195/191 193/193/192 191/196/190
f 194/197/194 195/198/193 193/199/192
f 194/197/194 196/200/195 197/201/196
f 197/201/196 198/202/197 199/203/198
f 142/204/148 196/205/195 192/195/191
f 199/203/198 200/206/199 201/207/200
f 144/208/149 198/209/197 142/204/148
f 201/207/200 202/210/201 203/211/202
f 144/208/149 202/212/201 200/213/199
f 202/210/201 205/214/203 203/211/202
f 148/215/153 202/212/201 146/216/150
f 204/217/204 207/218/205 205/214/203
f 206/219/206 148/215/153 150/220/155
f 206/221/206 209/222/207 207/218/205
f 208/223/208 150/220/155 153/224/157
f 209/222/207 210/225/209 211/226/210
f 210/227/209 153/224/157 155/228/158
f 211/226/210 212/229/211 213/230/212
f 212/231/211 155/228/158 157/232/160
f 213/230/212 214/233/213 215/234/214
f 214/235/213 157/232/160 159/236/162
f 217/237/215 214/233/213 216/238/216
f 159/236/162 216/239/216 214/235/213
f 219/240/217 216/238/216 218/241/218
f 164/242/167 216/239/216 162/243/165
f 219/240/217 220/244/219 221/245/220
f 166/246/169 218/247/218 164/242/167
f 221/245/220 222/248/221 223/249/222
f 168/250/170 220/251/219 166/252/169
f 223/249/222 224/253/223 225/254/224
f 171/255/172 222/256/221 168/250/170
f 225/254/224 226/257/225 227/258/226
f 173/259/174 224/260/223 171/255/172
f 226/257/225 229/261/227 227/258/226
f 228/262/228 173/259/174 175/263/177
f 228/264/228 231/265/229 229/261/227
f 230/266/230 175/263/177 177/267/179
f 231/265/229 232/268/231 233/269/232
f 180/270/181 230/266/230 177/267/179
f 232/268/231 235/271/233 233/269/232
f 182/272/182 232/273/231 180/270/181
f 235/271/233 236/274/234 237/275/235
f 236/276/234 182/272/182 184/277/184
f 237/275/235 238/278/236 239/279/237
f 186/280/186 236/276/234 184/277/184
f 241/281/238 238/278/236 195/198/193
f 189/192/189 238/282/236 186/280/186
f 286/283/239 239/279/237 240/284/240
f 242/285/241 239/279/237 241/281/238
f 244/286/242 241/281/238 194/197/194
f 245/287/243 242/285/241 244/286/242
f 243/288/244 240/284/240 242/285/241
f 247/289/245 244/286/242 246/290/246
f 244/286/242 197/201/196 246/290/246
f 247/289/245 248/291/247 249/292/248
f 248/291/247 197/201/196 199/203/198
f 249/292/248 250/293/249 251/294/250
f 248/291/247 201/207/200 250/293/249
f 251/294/250 252/295/251 253/296/252
f 250/293/249 203/211/202 252/295/251
f 252/295/251 255/297/253 253/296/252
f 203/211/202 254/298/254 252/295/251
f 254/298/254 257/299/255 255/297/253
f 205/214/203 256/300/256 254/298/254
f 256/300/256 259/301/257 257/299/255
f 207/218/205 258/302/258 256/300/256
f 259/301/257 260/303/259 261/304/260
f 209/222/207 260/303/259 258/302/258
f 261/304/260 262/305/261 263/306/262
f 260/303/259 213/230/212 262/305/261
f 263/306/262 264/307/263 265/308/264
f 262/305/261 215/234/214 264/307/263
f 267/309/265 264/307/263 266/310/266
f 266/310/266 215/234/214 217/237/215
f 269/311/267 266/310/266 268/312/268
f 268/312/268 217/237/215 219/240/217
f 271/313/269 268/312/268 270/314/270
f 268/312/268 221/245/220 270/314/270
f 271/313/269 272/315/271 273/316/272
f 272/315/271 221/245/220 223/249/222
f 273/316/272 274/317/273 275/318/274
f 272/315/271 225/254/224 274/317/273
f 275/318/274 276/319/275 277/320/276
f 274/317/273 227/258/226 276/319/275
f 276/319/275 279/321/277 277/320/276
f 227/258/226 278/322/278 276/319/275
f 278/322/278 281/323/279 279/321/277
f 229/261/227 280/324/280 278/322/278
f 280/324/280 283/325/281 281/323/279
f 231/265/229 282/326/282 280/324/280
f 283/325/281 284/327/283 285/328/284
f 282/326/282 235/271/233 284/327/283
f 285/328/284 286/283/239 287/329/285
f 284/327/283 237/275/235 286/283/239
f 287/329/285 240/284/240 288/330/286
f 281/331/279 285/332/284 288/333/286
f 245/334/243 249/335/248 253/336/252
f 269/337/267 273/338/272 277/339/276
f 257/340/255 261/341/260 265/342/264
f 53/60/60 9/16/16 6/14/14
f 51/59/59 11/17/17 9/16/16
f 290/49/49 13/343/287 11/17/17
f 13/343/287 39/44/44 15/19/19
f 3/3/3 1/344/288 2/6/6
f 2/6/6 115/128/128 117/1/1
f 117/1/1 120/131/131 122/2/2
f 122/2/2 124/135/135 3/3/3
f 3/3/3 2/6/6 117/1/1
f 2/6/6 1/344/288 4/12/12
f 4/12/12 22/26/26 138/4/4
f 138/4/4 137/126/126 110/5/5
f 110/5/5 112/125/125 2/6/6
f 2/6/6 4/12/12 138/4/4
f 5/9/9 1/344/288 3/3/3
f 3/3/3 128/138/138 130/7/7
f 130/7/7 132/140/140 134/8/8
f 134/8/8 7/13/13 5/9/9
f 5/9/9 3/3/3 130/7/7
f 4/12/12 1/344/288 5/9/9
f 5/9/9 8/15/15 10/10/10
f 10/10/10 12/18/18 14/11/11
f 14/11/11 16/21/21 4/12/12
f 4/12/12 5/9/9 10/10/10
f 7/13/13 135/143/143 6/14/14
f 6/14/14 9/16/16 8/15/15
f 9/16/16 11/17/17 10/10/10
f 11/17/17 13/343/287 12/18/18
f 12/18/18 13/343/287 15/19/19
f 14/11/11 15/19/19 17/20/20
f 19/22/22 4/12/12 16/21/21
f 15/19/19 39/44/44 18/23/23
f 20/24/24 19/22/22 17/20/20
f 20/24/24 24/28/28 21/25/25
f 19/22/22 21/25/25 22/26/26
f 138/4/4 22/26/26 21/25/25
f 23/27/27 21/25/25 24/28/28
f 25/29/29 24/28/28 26/30/30
f 28/32/32 26/30/30 24/28/28
f 27/31/31 26/30/30 29/33/33
f 26/30/30 28/32/32 32/35/35
f 30/36/36 140/120/120 31/34/34
f 33/37/37 30/36/36 29/33/33
f 33/37/37 32/35/35 34/38/38
f 37/40/40 34/38/38 32/35/35
f 35/39/39 34/38/38 36/41/41
f 34/38/38 37/40/40 38/43/43
f 39/44/44 38/43/43 37/40/40
f 28/32/32 20/24/24 18/23/23
f 41/45/45 40/46/46 38/43/43
f 36/41/41 38/43/43 40/46/46
f 42/48/48 40/46/46 41/45/45
f 45/50/50 43/47/47 40/46/46
f 43/47/47 45/50/50 46/51/51
f 152/42/42 36/41/41 43/47/47
f 45/50/50 47/54/54 48/53/53
f 47/54/54 45/50/50 42/48/48
f 47/54/54 49/57/57 161/56/56
f 49/57/57 47/54/54 50/55/55
f 50/55/55 42/48/48 290/49/49
f 52/58/58 50/55/55 51/59/59
f 55/61/61 54/62/62 52/58/58
f 54/62/62 57/64/64 49/57/57
f 136/63/63 56/65/65 54/62/62
f 57/64/64 54/62/62 56/65/65
f 58/67/67 57/64/64 59/66/66
f 161/56/56 49/57/57 57/64/64
f 60/68/68 59/66/66 61/69/69
f 59/66/66 56/65/65 64/71/71
f 169/72/72 62/70/70 61/69/69
f 64/71/71 66/75/75 63/73/73
f 65/74/74 64/71/71 56/65/65
f 65/74/74 67/76/76 66/75/75
f 67/76/76 69/80/80 68/77/77
f 66/75/75 68/77/77 71/78/78
f 70/79/79 68/77/77 69/80/80
f 68/77/77 70/79/79 73/82/82
f 72/83/83 169/72/72 63/73/73
f 74/84/84 72/83/83 71/78/78
f 74/84/84 73/82/82 75/85/85
f 78/87/87 75/85/85 73/82/82
f 76/86/86 75/85/85 77/88/88
f 75/85/85 78/87/87 80/90/90
f 81/91/91 80/90/90 78/87/87
f 70/79/79 126/81/81 79/92/92
f 83/93/93 82/94/94 80/90/90
f 77/88/88 80/90/90 82/94/94
f 84/96/96 82/94/94 83/93/93
f 87/98/98 85/95/95 82/94/94
f 85/95/95 87/98/98 88/99/99
f 179/89/89 77/88/88 85/95/95
f 87/98/98 89/102/102 90/101/101
f 89/102/102 87/98/98 84/96/96
f 89/102/102 91/105/105 187/104/104
f 91/105/105 89/102/102 92/103/103
f 92/103/103 84/96/96 118/97/97
f 94/106/106 92/103/103 93/107/107
f 97/109/109 96/110/110 94/106/106
f 96/110/110 99/112/112 91/105/105
f 108/111/111 98/113/113 96/110/110
f 99/112/112 96/110/110 98/113/113
f 100/115/115 99/112/112 101/114/114
f 187/104/104 91/105/105 99/112/112
f 102/116/116 101/114/114 103/117/117
f 101/114/114 98/113/113 105/119/119
f 140/120/120 104/118/118 103/117/117
f 105/119/119 27/31/31 31/34/34
f 106/121/121 105/119/119 98/113/113
f 106/121/121 25/29/29 27/31/31
f 107/122/122 106/121/121 108/111/111
f 107/122/122 23/27/27 25/29/29
f 109/123/123 108/111/111 97/109/109
f 110/5/5 109/123/123 111/124/124
f 137/126/126 107/122/122 109/123/123
f 112/125/125 111/124/124 113/127/127
f 111/124/124 97/109/109 95/108/108
f 113/127/127 114/129/129 115/128/128
f 95/108/108 93/107/107 114/129/129
f 114/129/129 116/130/130 117/1/1
f 93/107/107 118/97/97 116/130/130
f 116/130/130 119/132/132 120/131/131
f 118/97/97 83/93/93 119/132/132
f 120/131/131 119/132/132 121/133/133
f 119/132/132 83/93/93 81/91/91
f 122/2/2 121/133/133 123/134/134
f 121/133/133 81/91/91 79/92/92
f 125/136/136 3/3/3 124/135/135
f 126/81/81 125/136/136 123/134/134
f 126/81/81 69/80/80 127/137/137
f 125/136/136 127/137/137 128/138/138
f 130/7/7 128/138/138 127/137/137
f 129/139/139 127/137/137 69/80/80
f 132/140/140 130/7/7 129/139/139
f 131/141/141 129/139/139 67/76/76
f 132/140/140 131/141/141 133/142/142
f 131/141/141 65/74/74 136/63/63
f 134/8/8 133/142/142 135/143/143
f 133/142/142 136/63/63 55/61/61
f 135/143/143 55/61/61 53/60/60
f 137/126/126 138/4/4 23/27/27
f 190/144/144 102/116/116 104/118/118
f 141/146/146 139/145/145 104/118/118
f 143/147/147 141/146/146 140/120/120
f 142/148/148 192/191/191 139/145/145
f 144/149/149 142/148/148 141/146/146
f 146/150/150 144/149/149 143/147/147
f 145/151/151 143/147/147 30/36/36
f 146/150/150 145/151/151 147/152/152
f 145/151/151 33/37/37 35/39/39
f 148/153/153 147/152/152 149/154/154
f 147/152/152 35/39/39 152/42/42
f 150/155/155 149/154/154 151/156/156
f 149/154/154 152/42/42 44/52/52
f 151/156/156 154/159/159 155/158/158
f 44/52/52 46/51/51 154/159/159
f 154/159/159 156/161/161 157/160/160
f 46/51/51 48/53/53 156/161/161
f 156/161/161 158/163/163 159/162/162
f 48/53/53 161/56/56 158/163/163
f 159/162/162 158/163/163 160/164/164
f 158/163/163 161/56/56 58/67/67
f 162/165/165 160/164/164 163/166/166
f 160/164/164 58/67/67 60/68/68
f 164/167/167 163/166/166 165/168/168
f 163/166/166 60/68/68 62/70/70
f 168/170/170 166/169/169 165/168/168
f 167/171/171 165/168/168 62/70/70
f 171/172/172 168/170/170 167/171/171
f 170/173/173 167/171/171 169/72/72
f 173/174/174 171/172/172 170/173/173
f 172/175/175 170/173/173 72/83/83
f 173/174/174 172/175/175 174/176/176
f 172/175/175 74/84/84 76/86/86
f 175/177/177 174/176/176 176/178/178
f 174/176/176 76/86/86 179/89/89
f 177/179/179 176/178/178 178/180/180
f 176/178/178 179/89/89 86/100/100
f 178/180/180 181/183/183 182/182/182
f 86/100/100 88/99/99 181/183/183
f 181/183/183 183/185/185 184/184/184
f 88/99/99 90/101/101 183/185/185
f 183/185/185 185/187/187 186/186/186
f 90/101/101 187/104/104 185/187/187
f 186/186/186 185/187/187 188/188/188
f 185/187/187 187/104/104 100/115/115
f 189/189/189 188/188/188 190/144/144
f 188/188/188 100/115/115 102/116/116
f 191/190/190 190/144/144 139/145/145
f 189/192/189 191/196/190 193/193/192
f 192/195/191 196/205/195 193/193/192
f 194/197/194 241/281/238 195/198/193
f 194/197/194 193/199/192 196/200/195
f 197/201/196 196/200/195 198/202/197
f 142/204/148 198/209/197 196/205/195
f 199/203/198 198/202/197 200/206/199
f 144/208/149 200/213/199 198/209/197
f 201/207/200 200/206/199 202/210/201
f 144/208/149 146/216/150 202/212/201
f 202/210/201 204/217/204 205/214/203
f 148/215/153 204/345/204 202/212/201
f 204/217/204 206/221/206 207/218/205
f 206/219/206 204/345/204 148/215/153
f 206/221/206 208/346/208 209/222/207
f 208/223/208 206/219/206 150/220/155
f 209/222/207 208/346/208 210/225/209
f 210/227/209 208/223/208 153/224/157
f 211/226/210 210/225/209 212/229/211
f 212/231/211 210/227/209 155/228/158
f 213/230/212 212/229/211 214/233/213
f 214/235/213 212/231/211 157/232/160
f 217/237/215 215/234/214 214/233/213
f 159/236/162 162/243/165 216/239/216
f 219/240/217 217/237/215 216/238/216
f 164/242/167 218/247/218 216/239/216
f 219/240/217 218/241/218 220/244/219
f 166/246/169 220/347/219 218/247/218
f 221/245/220 220/244/219 222/248/221
f 168/250/170 222/256/221 220/251/219
f 223/249/222 222/248/221 224/253/223
f 171/255/172 224/260/223 222/256/221
f 225/254/224 224/253/223 226/257/225
f 173/259/174 226/348/225 224/260/223
f 226/257/225 228/264/228 229/261/227
f 228/262/228 226/348/225 173/259/174
f 228/264/228 230/349/230 231/265/229
f 230/266/230 228/262/228 175/263/177
f 231/265/229 230/349/230 232/268/231
f 180/270/181 232/273/231 230/266/230
f 232/268/231 234/350/289 235/271/233
f 182/272/182 234/351/289 232/273/231
f 235/271/233 234/350/289 236/274/234
f 236/276/234 234/351/289 182/272/182
f 237/275/235 236/274/234 238/278/236
f 186/280/186 238/282/236 236/276/234
f 241/281/238 239/279/237 238/278/236
f 189/192/189 195/194/193 238/282/236
f 286/283/239 237/275/235 239/279/237
f 242/285/241 240/284/240 239/279/237
f 244/286/242 242/285/241 241/281/238
f 245/287/243 243/288/244 242/285/241
f 243/288/244 288/330/286 240/284/240
f 247/289/245 245/287/243 244/286/242
f 244/286/242 194/197/194 197/201/196
f 247/289/245 246/290/246 248/291/247
f 248/291/247 246/290/246 197/201/196
f 249/292/248 248/291/247 250/293/249
f 248/291/247 199/203/198 201/207/200
f 251/294/250 250/293/249 252/295/251
f 250/293/249 201/207/200 203/211/202
f 252/295/251 254/298/254 255/297/253
f 203/211/202 205/214/203 254/298/254
f 254/298/254 256/300/256 257/299/255
f 205/214/203 207/218/205 256/300/256
f 256/300/256 258/302/258 259/301/257
f 207/218/205 209/222/207 258/302/258
f 259/301/257 258/302/258 260/303/259
f 209/222/207 211/226/210 260/303/259
f 261/304/260 260/303/259 262/305/261
f 260/303/259 211/226/210 213/230/212
f 263/306/262 262/305/261 264/307/263
f 262/305/261 213/230/212 215/234/214
f 267/309/265 265/308/264 264/307/263
f 266/310/266 264/307/263 215/234/214
f 269/311/267 267/309/265 266/310/266
f 268/312/268 266/310/266 217/237/215
f 271/313/269 269/311/267 268/312/268
f 268/312/268 219/240/217 221/245/220
f 271/313/269 270/314/270 272/315/271
f 272/315/271 270/314/270 221/245/220
f 273/316/272 272/315/271 274/317/273
f 272/315/271 223/249/222 225/254/224
f 275/318/274 274/317/273 276/319/275
f 274/317/273 225/254/224 227/258/226
f 276/319/275 278/322/278 279/321/277
f 227/258/226 229/261/227 278/322/278
f 278/322/278 280/324/280 281/323/279
f 229/261/227 231/265/229 280/324/280
f 280/324/280 282/326/282 283/325/281
f 231/265/229 233/269/232 282/326/282
f 283/325/281 282/326/282 284/327/283
f 282/326/282 233/269/232 235/271/233
f 285/328/284 284/327/283 286/283/239
f 284/327/283 235/271/233 237/275/235
f 287/329/285 286/283/239 240/284/240
f 288/333/286 289/352/290 277/339/276
f 277/339/276 279/353/277 281/331/279
f 281/331/279 283/354/281 285/332/284
f 285/332/284 287/355/285 288/333/286
f 288/333/286 277/339/276 281/331/279
f 253/336/252 289/352/290 288/333/286
f 288/333/286 243/356/244 245/334/243
f 245/334/243 247/357/245 249/335/248
f 249/335/248 251/358/250 253/336/252
f 253/336/252 288/333/286 245/334/243
f 277/339/276 289/352/290 265/342/264
f 265/342/264 267/359/265 269/337/267
f 269/337/267 271/360/269 273/338/272
f 273/338/272 275/361/274 277/339/276
f 277/339/276 265/342/264 269/337/267
f 265/342/264 289/352/290 253/336/252
f 253/336/252 255/362/253 257/340/255
f 257/340/255 259/363/257 261/341/260
f 261/341/260 263/364/262 265/342/264
f 265/342/264 253/336/252 257/340/255
f 53/60/60 51/59/59 9/16/16
f 51/59/59 290/49/49 11/17/17
f 290/49/49 41/45/45 13/343/287
f 13/343/287 41/45/45 39/44/44
