# Blender 5.0.1
# www.blender.org

mtllib material.mtl
o edge_LB
v -0.137076 0.100163 -0.137396
v -0.295334 0.100163 -0.137396
v -0.295334 0.100163 -0.295654
v -0.137076 0.100163 -0.295654
v -0.125858 0.097932 -0.126178
v -0.122702 0.097304 -0.128039
v -0.127719 0.097304 -0.123022
v -0.123084 0.097304 -0.126119
v -0.124171 0.097304 -0.124492
v -0.125799 0.097304 -0.123404
v -0.113592 0.089162 -0.111216
v -0.115499 0.089162 -0.110836
v -0.105413 0.076976 -0.103069
v -0.111976 0.089162 -0.112296
v -0.103816 0.076976 -0.104136
v -0.110896 0.089162 -0.113913
v -0.102749 0.076976 -0.105733
v -0.110516 0.089162 -0.115820
v -0.102374 0.076976 -0.107617
v -0.110516 0.089162 -0.295654
v -0.102374 0.076976 -0.295654
v -0.110764 0.088915 -0.297379
v -0.122702 0.097304 -0.295654
v -0.122836 0.096981 -0.297379
v -0.123217 0.096061 -0.298841
v -0.137110 0.099820 -0.297379
v -0.137206 0.098843 -0.298841
v -0.295334 0.099820 -0.297379
v -0.297102 0.099406 -0.297422
v -0.295334 0.098843 -0.298841
v -0.295334 0.097381 -0.299818
v -0.297013 0.098614 -0.298612
v -0.297102 0.097424 -0.299404
v -0.297936 0.098258 -0.298257
v -0.298292 0.097334 -0.298612
v -0.298292 0.098614 -0.297333
v -0.298521 0.098843 -0.295654
v -0.299084 0.097424 -0.297422
v -0.299498 0.095656 -0.297379
v -0.299498 0.097381 -0.295654
v -0.299841 0.095656 -0.295654
v -0.299498 0.097381 -0.137670
v -0.298521 0.098843 -0.137526
v -0.299841 0.095656 -0.137840
v -0.299498 0.094683 -0.124108
v -0.298521 0.096061 -0.123537
v -0.299841 0.093058 -0.124781
v -0.299498 0.087156 -0.112842
v -0.298521 0.088210 -0.111788
v -0.299841 0.085912 -0.114086
v -0.299498 0.075890 -0.105315
v -0.298521 0.076461 -0.103938
v -0.299841 0.075217 -0.106940
v -0.299498 0.062328 -0.102617
v -0.298521 0.062472 -0.101155
v -0.299841 0.062158 -0.104342
v -0.299498 -0.062328 -0.102617
v -0.298521 -0.062472 -0.101155
v -0.299841 -0.062158 -0.104342
v -0.299498 -0.075891 -0.105315
v -0.298521 -0.076461 -0.103938
v -0.299498 -0.087156 -0.112842
v -0.299841 -0.075217 -0.106940
v -0.299841 -0.085912 -0.114086
v -0.299841 -0.093058 -0.124781
v -0.299498 -0.094683 -0.124108
v -0.299841 -0.095656 -0.137840
v -0.299498 -0.097381 -0.137670
v -0.299841 -0.095656 -0.295654
v -0.299498 -0.097381 -0.295654
v -0.299498 -0.095656 -0.297379
v -0.299084 -0.097424 -0.297422
v -0.298521 -0.095656 -0.298841
v -0.297059 -0.095656 -0.299818
v -0.298292 -0.097334 -0.298612
v -0.298521 0.095656 -0.298841
v -0.297059 0.095656 -0.299818
v -0.295334 0.095656 -0.300162
v -0.137520 0.095656 -0.300162
v -0.295334 -0.095656 -0.300162
v -0.295334 -0.097381 -0.299818
v -0.137520 -0.095656 -0.300162
v -0.137350 -0.097381 -0.299819
v -0.124461 -0.093058 -0.300162
v -0.123788 -0.094683 -0.299819
v -0.113766 -0.085912 -0.300162
v -0.112522 -0.087156 -0.299819
v -0.106620 -0.075217 -0.300162
v -0.104995 -0.075890 -0.299819
v -0.104022 -0.062158 -0.300162
v -0.102297 -0.062328 -0.299819
v -0.104022 0.062158 -0.300162
v -0.102297 0.062328 -0.299819
v -0.106620 0.075217 -0.300162
v -0.104995 0.075891 -0.299819
v -0.113766 0.085912 -0.300162
v -0.112522 0.087156 -0.299819
v -0.124461 0.093058 -0.300162
v -0.123788 0.094683 -0.299819
v -0.137350 0.097381 -0.299819
v -0.111468 0.088210 -0.298841
v -0.103618 0.076461 -0.298841
v -0.102697 0.076842 -0.297379
v -0.100835 0.062472 -0.298841
v -0.099858 0.062568 -0.297379
v -0.100835 -0.062472 -0.298841
v -0.099858 -0.062568 -0.297379
v -0.103618 -0.076461 -0.298841
v -0.102697 -0.076842 -0.297379
v -0.111468 -0.088210 -0.298841
v -0.110764 -0.088914 -0.297379
v -0.123217 -0.096060 -0.298841
v -0.122836 -0.096981 -0.297379
v -0.137206 -0.098843 -0.298841
v -0.137110 -0.099820 -0.297379
v -0.295334 -0.098843 -0.298841
v -0.297012 -0.098614 -0.298612
v -0.295334 -0.099820 -0.297379
v -0.295334 -0.100163 -0.295654
v -0.297102 -0.099406 -0.297422
v -0.297059 -0.099820 -0.295654
v -0.298292 -0.098614 -0.297333
v -0.297936 -0.098258 -0.298257
v -0.298521 -0.098843 -0.295654
v -0.298521 -0.098843 -0.137526
v -0.297059 -0.099820 -0.137430
v -0.298521 -0.096061 -0.123537
v -0.297059 -0.096981 -0.123156
v -0.298521 -0.088210 -0.111788
v -0.297059 -0.088915 -0.111084
v -0.295334 -0.089162 -0.110836
v -0.297059 -0.076842 -0.103017
v -0.295334 -0.076976 -0.102694
v -0.297059 -0.062568 -0.100178
v -0.295334 -0.062602 -0.099835
v -0.297059 0.062568 -0.100178
v -0.295334 0.062602 -0.099835
v -0.297059 0.076842 -0.103017
v -0.295334 0.076976 -0.102694
v -0.297059 0.088914 -0.111084
v -0.295334 0.089162 -0.110836
v -0.297059 0.096981 -0.123156
v -0.295334 0.097304 -0.123022
v -0.297059 0.099820 -0.137430
v -0.297059 0.099820 -0.295654
v -0.107297 0.076976 -0.102694
v -0.104396 0.062602 -0.099835
v -0.102528 0.062602 -0.100207
v -0.104396 -0.062602 -0.099835
v -0.102528 -0.062602 -0.100207
v -0.107297 -0.076976 -0.102694
v -0.105413 -0.076976 -0.103069
v -0.115499 -0.089162 -0.110836
v -0.113592 -0.089162 -0.111216
v -0.127719 -0.097304 -0.123022
v -0.125799 -0.097304 -0.123404
v -0.125858 -0.097932 -0.126178
v -0.295334 -0.097304 -0.123022
v -0.295334 -0.100163 -0.137396
v -0.137076 -0.100163 -0.137396
v -0.137076 -0.100163 -0.295654
v -0.122702 -0.097304 -0.295654
v -0.110516 -0.089162 -0.295654
v -0.122702 -0.097304 -0.128039
v -0.123084 -0.097304 -0.126119
v -0.110516 -0.089162 -0.115820
v -0.110895 -0.089162 -0.113913
v -0.102374 -0.076976 -0.107617
v -0.102749 -0.076976 -0.105733
v -0.099515 -0.062602 -0.104716
v -0.102374 -0.076976 -0.295654
v -0.099515 -0.062602 -0.295654
v -0.099515 0.062602 -0.295654
v -0.099515 0.062602 -0.104716
v -0.099886 0.062602 -0.102848
v -0.100944 0.062602 -0.101265
v -0.099886 -0.062602 -0.102848
v -0.100944 -0.062602 -0.101265
v -0.103816 -0.076976 -0.104136
v -0.111976 -0.089162 -0.112296
v -0.124171 -0.097304 -0.124492
v -0.297102 -0.097424 -0.299404
vn -0.0948 0.9266 0.3640
vn 0.1264 0.9822 0.1392
vn 0.0062 0.9999 0.0153
vn -0.0039 0.9995 0.0313
vn 0.0158 0.9997 0.0158
vn -0.0021 1.0000 -0.0021
vn 0.0313 0.9995 -0.0039
vn 0.0165 0.9996 0.0219
vn 0.3714 0.9250 0.0807
vn 0.3628 0.9268 -0.0970
vn 0.3880 0.9217 0.0007
vn 0.0986 0.9902 0.0986
vn 0.4071 0.8977 0.1686
vn 0.1686 0.8977 0.4071
vn 0.0986 0.9902 0.0987
vn 0.0007 0.9217 0.3880
vn 0.2947 0.9090 0.2947
vn 0.4006 0.7854 0.4719
vn 0.2986 0.9067 0.2978
vn 0.2801 0.7069 0.6494
vn 0.1729 0.8953 0.4105
vn 0.0007 0.9216 0.3881
vn 0.2805 0.3503 0.8936
vn 0.2456 0.7899 0.5618
vn 0.0015 0.7039 0.7103
vn 0.5455 0.4413 0.7125
vn 0.4187 0.8129 0.4048
vn 0.2322 0.7950 0.5605
vn 0.8131 0.4851 0.3217
vn 0.5163 0.8240 0.2332
vn 0.6093 0.5076 0.6092
vn 0.5610 0.7976 0.2217
vn 0.2797 0.9273 0.2486
vn 0.4074 0.8174 0.4073
vn 0.9212 0.3889 -0.0135
vn 0.6237 0.7811 -0.0298
vn 0.8116 0.4779 0.3361
vn 0.7070 0.7072 -0.0111
vn 0.3868 0.9181 0.0865
vn 0.5605 0.7950 0.2321
vn 0.7394 0.6604 0.1311
vn 0.9249 0.3802 0.0088
vn 0.7111 0.7031 -0.0019
vn 0.4425 0.8853 0.1432
vn 0.7109 0.7033 0.0097
vn 0.3875 0.9219 -0.0020
vn 0.8429 0.3620 -0.3980
vn 0.6409 0.7495 -0.1655
vn 0.9250 0.3800 -0.0019
vn 0.6401 0.6573 -0.3977
vn 0.3050 0.9378 -0.1660
vn 0.7110 0.7031 -0.0019
vn 0.3395 0.8523 -0.3980
vn -0.0552 0.9873 -0.1492
vn 0.3874 0.9219 -0.0020
vn 0.6669 0.5439 -0.5092
vn 0.2771 0.6375 -0.7189
vn 0.3525 0.8518 -0.3876
vn 0.2536 0.6473 -0.7188
vn -0.0789 0.8611 -0.5022
vn 0.0137 0.9236 -0.3831
vn 0.1930 0.9623 -0.1914
vn 0.0313 0.9995 -0.0040
vn 0.0100 0.7067 -0.7075
vn 0.1947 0.8156 -0.5450
vn 0.0152 0.9236 -0.3831
vn -0.0016 0.9237 -0.3831
vn -0.3454 0.8726 -0.3453
vn -0.0022 1.0000 -0.0022
vn -0.0692 0.6740 -0.7355
vn -0.4022 0.8231 -0.4009
vn 0.0026 0.9255 -0.3786
vn 0.0046 0.3825 -0.9239
vn 0.1951 0.5449 -0.8155
vn 0.0114 0.7067 -0.7074
vn -0.4022 0.4009 -0.8231
vn -0.0692 0.7356 -0.6739
vn 0.0021 0.3783 -0.9257
vn -0.3972 0.3143 -0.8623
vn -0.6088 0.5218 -0.5976
vn -0.2501 0.6845 -0.6848
vn -0.2762 0.6676 -0.6914
vn -0.5773 0.5774 -0.5774
vn -0.3454 0.8726 -0.3454
vn -0.8623 0.3972 -0.3142
vn -0.5976 0.6088 -0.5217
vn -0.6683 0.2729 -0.6920
vn -0.5773 0.5774 -0.5773
vn -0.6913 0.6677 -0.2762
vn -0.6739 0.7356 -0.0692
vn -0.8231 0.4009 -0.4022
vn -0.9257 0.3783 0.0021
vn -0.4009 0.8231 -0.4022
vn -0.7355 0.6740 -0.0692
vn -0.3786 0.9256 0.0026
vn -0.8231 0.4022 -0.4009
vn -0.6739 0.0689 -0.7356
vn -0.9257 -0.0024 -0.3783
vn -0.9004 0.4280 -0.0786
vn -0.9004 0.0781 -0.4280
vn -0.9998 -0.0144 0.0141
vn -0.9624 0.1892 0.1951
vn -1.0000 0.0017 -0.0014
vn -0.9240 0.3825 0.0060
vn -0.8167 0.5431 0.1951
vn -0.9239 0.3825 0.0046
vn -0.7074 0.7067 0.0114
vn -0.7672 0.6353 -0.0882
vn -0.9276 0.3504 0.1294
vn -0.7119 0.6491 0.2681
vn -0.9360 0.3401 -0.0910
vn -0.9999 0.0041 -0.0159
vn -0.9250 0.3513 0.1448
vn -0.9277 0.3397 0.1551
vn -0.7700 0.3823 0.5108
vn -0.7119 0.6491 0.2682
vn -0.9363 0.3480 0.0475
vn -0.9999 0.0101 -0.0134
vn -0.9247 0.2691 0.2691
vn -0.7700 0.5108 0.3823
vn -0.9277 0.1551 0.3397
vn -0.7119 0.2682 0.6491
vn -0.9360 0.3037 0.1780
vn -0.9999 0.0145 -0.0085
vn -0.9250 0.1448 0.3513
vn -0.9276 0.1294 0.3505
vn -0.7660 -0.0856 0.6371
vn -0.7119 0.2681 0.6491
vn -0.9999 -0.0159 0.0042
vn -0.9358 -0.0895 0.3411
vn -0.9250 0.1448 0.3514
vn -0.7074 -0.0123 0.7067
vn -0.8155 -0.1953 0.5449
vn -0.9239 -0.0075 0.3826
vn -0.9625 -0.1950 0.1886
vn -1.0000 0.0018 0.0013
vn -0.9239 -0.0075 0.3825
vn -0.7660 0.0856 0.6371
vn -0.9276 -0.1294 0.3504
vn -0.7119 -0.2681 0.6491
vn -0.9357 0.0894 0.3412
vn -0.9999 0.0159 0.0042
vn -0.9250 -0.1448 0.3514
vn -0.7066 -0.4906 0.5100
vn -0.8736 -0.0947 0.4773
vn -0.9247 -0.2691 0.2692
vn -0.9363 -0.0475 0.3480
vn -0.9999 0.0134 0.0101
vn -0.9248 -0.2691 0.2691
vn -1.0000 -0.0000 -0.0000
vn -1.0000 0.0003 0.0013
vn -1.0000 0.0014 -0.0009
vn -0.9239 -0.3474 0.1601
vn -0.9940 0.0330 0.1038
vn -1.0000 -0.0003 0.0001
vn -0.9230 -0.3841 0.0216
vn -0.9940 -0.0093 0.1087
vn -1.0000 -0.0016 -0.0000
vn -0.9239 -0.3827 -0.0006
vn -0.9623 -0.1914 -0.1934
vn -1.0000 -0.0015 -0.0018
vn -0.9004 -0.0782 -0.4280
vn -0.9004 -0.4279 -0.0786
vn -0.9998 0.0144 0.0141
vn -0.9623 0.1950 -0.1896
vn -1.0000 0.0003 -0.0018
vn -0.9239 0.0017 -0.3826
vn -0.6739 -0.0689 -0.7356
vn -0.8231 -0.4022 -0.4009
vn -0.9257 0.0024 -0.3782
vn -0.7071 0.0003 -0.7071
vn -0.8155 0.1951 -0.5449
vn -0.9239 0.0017 -0.3827
vn -0.4009 -0.4022 -0.8231
vn -0.7356 -0.0688 -0.6739
vn -0.3782 0.0025 -0.9257
vn -0.5464 0.1951 -0.8145
vn -0.3827 0.0017 -0.9239
vn -0.7356 0.0689 -0.6739
vn -0.4009 0.4022 -0.8231
vn -0.3782 -0.0025 -0.9257
vn -0.4280 0.0782 -0.9004
vn -0.0785 0.4279 -0.9004
vn 0.0141 -0.0144 -0.9998
vn -0.1932 0.1933 -0.9619
vn -0.3826 0.0005 -0.9239
vn -0.0019 0.0015 -1.0000
vn -0.0014 0.0017 -1.0000
vn 0.1951 0.1913 -0.9619
vn 0.0061 0.3825 -0.9240
vn -0.0000 -0.0000 -1.0000
vn -0.0022 0.0008 -1.0000
vn -0.0786 -0.4279 -0.9004
vn -0.4280 -0.0781 -0.9004
vn 0.0141 0.0144 -0.9998
vn 0.1951 -0.1892 -0.9624
vn -0.0014 -0.0017 -1.0000
vn 0.0060 -0.3825 -0.9240
vn -0.0910 -0.3401 -0.9360
vn -0.0159 -0.0041 -0.9999
vn 0.1448 -0.3513 -0.9250
vn 0.2595 -0.2818 -0.9237
vn -0.0703 -0.0833 -0.9940
vn 0.0002 -0.0002 -1.0000
vn 0.3474 -0.1602 -0.9239
vn -0.0330 -0.1038 -0.9940
vn 0.0003 -0.0001 -1.0000
vn 0.3841 -0.0231 -0.9230
vn 0.0093 -0.1087 -0.9940
vn 0.0013 -0.0000 -1.0000
vn 0.3826 0.0057 -0.9239
vn 0.1914 0.1938 -0.9622
vn 0.3411 -0.0894 -0.9357
vn 0.0041 -0.0159 -0.9999
vn 0.3513 0.1448 -0.9250
vn -0.0085 0.0145 -0.9999
vn 0.1780 0.3037 -0.9360
vn 0.3514 0.1448 -0.9250
vn -0.0134 0.0101 -0.9999
vn 0.0475 0.3480 -0.9363
vn 0.2691 0.2691 -0.9247
vn -0.0159 0.0042 -0.9999
vn -0.0910 0.3401 -0.9360
vn 0.1448 0.3514 -0.9250
vn 0.1294 0.3504 -0.9276
vn -0.0882 0.6353 -0.7672
vn 0.2681 0.6491 -0.7119
vn 0.2544 0.2742 -0.9274
vn 0.1570 0.6177 -0.7706
vn 0.4968 0.4969 -0.7115
vn 0.3397 0.1551 -0.9277
vn 0.3822 0.5108 -0.7700
vn 0.6491 0.2682 -0.7119
vn 0.8242 0.2471 -0.5096
vn 0.5007 0.4827 -0.7185
vn 0.6519 0.6519 -0.3874
vn 0.8628 -0.0758 -0.4998
vn 0.6473 0.2537 -0.7188
vn 0.8518 0.3525 -0.3876
vn 0.6371 -0.0856 -0.7660
vn 0.3505 0.1294 -0.9276
vn 0.6491 0.2681 -0.7119
vn 0.9236 0.0170 -0.3829
vn 0.8153 0.1961 -0.5448
vn 0.7067 0.0142 -0.7074
vn 0.5426 0.1950 -0.8170
vn 0.3825 0.0057 -0.9239
vn 0.7066 0.0141 -0.7074
vn 0.9265 -0.0318 -0.3749
vn 0.7071 -0.3862 -0.5924
vn 0.7067 -0.0142 -0.7074
vn 0.7107 -0.0283 -0.7030
vn 0.4041 -0.2691 -0.8743
vn 0.3826 -0.0075 -0.9239
vn 0.5439 -0.6670 -0.5092
vn 0.6375 -0.2771 -0.7189
vn 0.8518 -0.3525 -0.3876
vn 0.3823 -0.5108 -0.7700
vn 0.3397 -0.1551 -0.9277
vn 0.6491 -0.2682 -0.7119
vn 0.6456 -0.6634 -0.3784
vn 0.2261 -0.7740 -0.5914
vn 0.4969 -0.4969 -0.7115
vn 0.1570 -0.6177 -0.7706
vn 0.2544 -0.2742 -0.9274
vn 0.4968 -0.4969 -0.7115
vn -0.0789 -0.8611 -0.5022
vn 0.2537 -0.6473 -0.7188
vn 0.3525 -0.8518 -0.3876
vn -0.0881 -0.6353 -0.7672
vn 0.1294 -0.3505 -0.9276
vn 0.2681 -0.6491 -0.7119
vn 0.1947 -0.8143 -0.5468
vn 0.0100 -0.7067 -0.7075
vn 0.0151 -0.9236 -0.3831
vn 0.1951 -0.5431 -0.8167
vn 0.0046 -0.3825 -0.9239
vn 0.0114 -0.7067 -0.7074
vn -0.0692 -0.7356 -0.6739
vn -0.4022 -0.4009 -0.8231
vn 0.0021 -0.3783 -0.9257
vn -0.4022 -0.8231 -0.4009
vn -0.0692 -0.6740 -0.7355
vn 0.0026 -0.9255 -0.3786
vn -0.0016 -0.9237 -0.3830
vn -0.0022 -1.0000 -0.0022
vn -0.3453 -0.8726 -0.3453
vn 0.1929 -0.9619 -0.1935
vn 0.0138 -0.9236 -0.3831
vn 0.0313 -0.9995 -0.0039
vn -0.7355 -0.6740 -0.0692
vn -0.4009 -0.8231 -0.4022
vn -0.3786 -0.9256 0.0026
vn -0.3830 -0.9237 -0.0016
vn -0.3454 -0.8726 -0.3454
vn -0.6914 -0.6676 -0.2762
vn -0.5773 -0.5774 -0.5773
vn -0.2762 -0.6676 -0.6914
vn -0.3142 -0.3972 -0.8623
vn -0.5218 -0.6088 -0.5976
vn -0.6920 -0.2728 -0.6683
vn -0.8623 -0.3141 -0.3972
vn -0.5976 -0.5217 -0.6088
vn -0.6848 -0.6844 -0.2501
vn -0.8231 -0.4009 -0.4022
vn -0.6739 -0.7356 -0.0692
vn -0.9257 -0.3783 0.0021
vn -0.3831 -0.9237 -0.0001
vn -0.5448 -0.8154 -0.1959
vn -0.7070 -0.7072 -0.0018
vn -0.7071 -0.7071 -0.0004
vn -0.8155 -0.5449 -0.1953
vn -0.9238 -0.3828 -0.0021
vn -0.3747 -0.9267 0.0282
vn -0.5923 -0.7071 0.3862
vn -0.7074 -0.7067 0.0114
vn -0.7029 -0.7109 0.0255
vn -0.8743 -0.4041 0.2691
vn -0.9239 -0.3825 0.0061
vn -0.3786 -0.8503 0.3655
vn -0.5915 -0.5057 0.6280
vn -0.7118 -0.6491 0.2682
vn -0.7069 -0.6484 0.2827
vn -0.8737 -0.2708 0.4041
vn -0.9249 -0.3514 0.1449
vn -0.5096 -0.2471 0.8242
vn -0.7185 -0.4827 0.5007
vn -0.3874 -0.6519 0.6519
vn 0.0089 -0.6945 0.7195
vn -0.2185 -0.2964 0.9298
vn -0.3873 -0.6519 0.6519
vn 0.0089 -0.9171 0.3985
vn -0.2185 -0.6299 0.7453
vn -0.3875 -0.8518 0.3525
vn -0.1564 0.0655 0.9855
vn -0.3979 -0.3396 0.8523
vn -0.0019 -0.3799 0.9250
vn -0.4998 0.0758 0.8628
vn -0.7188 -0.2537 0.6473
vn -0.3876 -0.3525 0.8518
vn -0.0016 -0.0186 0.9998
vn -0.1913 -0.1964 0.9617
vn -0.3830 -0.0188 0.9236
vn -0.5471 -0.1955 0.8139
vn -0.7075 -0.0124 0.7066
vn -0.3831 -0.0188 0.9235
vn -0.3980 0.3395 0.8523
vn -0.1564 -0.0655 0.9855
vn -0.0019 0.3800 0.9250
vn -0.7188 0.2536 0.6473
vn -0.4998 -0.0758 0.8628
vn -0.3877 0.3525 0.8518
vn -0.3977 0.6401 0.6573
vn -0.1725 0.2983 0.9387
vn -0.0020 0.7031 0.7111
vn -0.5092 0.6669 0.5439
vn -0.7189 0.2771 0.6375
vn -0.3876 0.3525 0.8517
vn -0.3980 0.8429 0.3620
vn -0.1748 0.6330 0.7542
vn -0.0021 0.9219 0.3874
vn -0.7189 0.6375 0.2771
vn -0.5092 0.5439 0.6669
vn -0.3876 0.8518 0.3525
vn -0.1493 0.9873 -0.0552
vn -0.3979 0.8523 0.3396
vn -0.5022 0.8611 -0.0789
vn -0.7188 0.6473 0.2537
vn -0.1935 0.9619 0.1929
vn -0.3831 0.9236 0.0138
vn -0.5467 0.8144 0.1947
vn -0.7074 0.7067 0.0100
vn -0.3831 0.9236 0.0151
vn -0.3831 0.9237 -0.0016
vn 0.0097 0.7033 0.7109
vn 0.1431 0.8853 0.4425
vn -0.0020 0.9219 0.3875
vn 0.0089 0.3802 0.9249
vn 0.1312 0.6604 0.7394
vn -0.0019 0.7031 0.7111
vn 0.0073 0.0205 0.9998
vn 0.1090 0.3475 0.9313
vn -0.0018 0.3799 0.9250
vn 0.2010 -0.0544 0.9781
vn 0.3521 0.4673 0.8109
vn 0.0018 0.3806 0.9247
vn 0.0407 -0.1188 0.9921
vn 0.3828 0.0251 0.9235
vn 0.0020 0.0204 0.9998
vn 0.0058 -0.0196 0.9998
vn 0.0088 0.0185 0.9998
vn -0.0018 0.0203 0.9998
vn -0.0114 -0.0332 0.9994
vn 0.0803 -0.5145 0.8537
vn 0.3825 -0.0270 0.9236
vn 0.1089 -0.3475 0.9313
vn 0.0073 -0.0205 0.9998
vn -0.0018 -0.3799 0.9250
vn -0.0135 -0.3889 0.9212
vn -0.0298 -0.7811 0.6237
vn 0.3361 -0.4779 0.8116
vn 0.1311 -0.6604 0.7394
vn 0.0088 -0.3802 0.9249
vn -0.0019 -0.7031 0.7111
vn -0.0111 -0.7071 0.7070
vn 0.0865 -0.9181 0.3868
vn 0.2321 -0.7950 0.5604
vn 0.1432 -0.8853 0.4425
vn 0.0097 -0.7033 0.7109
vn -0.0020 -0.9219 0.3875
vn 0.1686 -0.8977 0.4071
vn 0.0007 -0.9217 0.3880
vn 0.0986 -0.9902 0.0986
vn 0.0219 -0.9996 0.0165
vn 0.0807 -0.9250 0.3714
vn -0.0970 -0.9268 0.3628
vn 0.0057 -0.9990 0.0435
vn -0.2190 -0.8671 0.4474
vn -0.3830 -0.9236 0.0152
vn -0.0022 -1.0000 -0.0007
vn -0.1913 -0.9618 -0.1960
vn -0.0039 -0.9995 0.0313
vn -0.0021 -1.0000 -0.0021
vn 0.0158 -0.9997 0.0158
vn 0.3640 -0.9266 -0.0948
vn 0.1392 -0.9822 0.1264
vn 0.0153 -0.9999 0.0062
vn -0.0552 -0.9873 -0.1493
vn 0.3396 -0.8523 -0.3979
vn 0.3874 -0.9219 -0.0021
vn 0.7026 -0.7115 0.0095
vn 0.2964 -0.9297 -0.2185
vn 0.6519 -0.6519 -0.3873
vn 0.7109 -0.7033 0.0097
vn 0.4425 -0.8853 0.1431
vn 0.3875 -0.9219 -0.0020
vn 0.3880 -0.9217 0.0007
vn 0.4071 -0.8977 0.1686
vn 0.3868 -0.9181 0.0865
vn 0.7070 -0.7071 -0.0111
vn 0.5605 -0.7950 0.2321
vn 0.6237 -0.7811 -0.0298
vn 0.9212 -0.3889 -0.0135
vn 0.8116 -0.4779 0.3361
vn 0.9249 -0.3802 0.0089
vn 0.7394 -0.6604 0.1312
vn 0.7111 -0.7031 -0.0019
vn 0.8537 -0.5145 0.0803
vn 0.9994 -0.0332 -0.0114
vn 0.9236 -0.0270 0.3825
vn 0.9998 -0.0205 0.0073
vn 0.9313 -0.3475 0.1090
vn 0.9250 -0.3799 -0.0018
vn 0.9994 -0.0325 0.0084
vn 0.8671 -0.4474 -0.2190
vn 0.9235 -0.0188 -0.3830
vn 0.9204 -0.3910 0.0094
vn 0.6299 -0.7453 -0.2185
vn 0.8518 -0.3525 -0.3875
vn 0.9616 0.1943 -0.1941
vn 0.9235 0.0170 -0.3832
vn 0.9998 0.0203 -0.0018
vn 0.9998 0.0196 0.0058
vn 0.9998 -0.0185 0.0088
vn 0.9998 -0.0203 -0.0018
vn 0.9855 -0.0655 -0.1564
vn 0.8523 0.3396 -0.3979
vn 0.9250 0.3799 -0.0019
vn 0.9313 0.3475 0.1089
vn 0.9998 0.0205 0.0073
vn 0.9250 0.3799 -0.0018
vn 0.9994 0.0332 -0.0114
vn 0.8537 0.5145 0.0803
vn 0.9236 0.0270 0.3825
vn 0.9235 0.0250 0.3828
vn 0.9921 -0.1188 0.0407
vn 0.9998 0.0204 0.0020
vn 0.9287 0.0392 0.3688
vn 0.7353 0.5461 0.4014
vn 0.7068 0.0292 0.7068
vn 0.7325 -0.1294 0.6683
vn 0.9237 0.0251 0.3824
vn 0.7353 -0.5461 0.4014
vn 0.9287 -0.0391 0.3688
vn 0.7068 -0.0292 0.7068
vn 0.3688 -0.0392 0.9287
vn 0.4014 -0.5461 0.7353
vn 0.4196 -0.1270 0.8988
vn 0.7070 0.0273 0.7067
vn 0.3826 0.0269 0.9235
vn 0.3217 -0.4851 0.8131
vn 0.2332 -0.8240 0.5163
vn 0.6092 -0.5076 0.6093
vn 0.5163 -0.8240 0.2332
vn 0.8131 -0.4851 0.3217
vn 0.6093 -0.5076 0.6092
vn 0.2217 -0.7976 0.5611
vn 0.2486 -0.9273 0.2797
vn 0.4073 -0.8174 0.4074
vn 0.2797 -0.9273 0.2486
vn 0.5611 -0.7975 0.2217
vn 0.4074 -0.8174 0.4073
vn 0.2947 -0.9090 0.2947
vn 0.5750 -0.0397 0.8172
vn 0.6233 0.4976 0.6032
vn 0.3362 0.4778 0.8116
vn 0.1552 0.9826 0.1021
vn -0.0039 0.9995 0.0314
vn 0.0102 0.9220 0.3871
vn -0.1013 0.9273 0.3604
vn 0.0368 0.9973 0.0629
vn 0.3871 0.9220 0.0102
vn 0.0314 0.9995 -0.0039
vn 0.1021 0.9826 0.1552
vn 0.1197 0.9791 -0.1644
vn 0.3511 0.9290 -0.1170
vn 0.2217 0.7975 0.5611
vn 0.4073 0.8174 0.4074
vn 0.2486 0.9273 0.2797
vn -0.0111 0.7071 0.7070
vn 0.2321 0.7950 0.5605
vn 0.0865 0.9181 0.3868
vn -0.0135 0.3889 0.9212
vn 0.3361 0.4779 0.8116
vn -0.0298 0.7811 0.6237
vn 0.3217 0.4851 0.8131
vn 0.6092 0.5076 0.6093
vn 0.2332 0.8240 0.5163
vn 0.7126 0.4413 0.5454
vn 0.5605 0.7950 0.2322
vn 0.4048 0.8129 0.4187
vn 0.4719 0.7854 0.4006
vn 0.2978 0.9067 0.2986
vn 0.8936 0.3503 0.2805
vn 0.7103 0.7039 0.0015
vn 0.5618 0.7899 0.2456
vn 0.6494 0.7069 0.2802
vn 0.3881 0.9216 0.0007
vn 0.4105 0.8953 0.1729
vn 0.7104 0.7037 -0.0082
vn 0.9247 0.3807 0.0018
vn 0.9111 0.4009 -0.0964
vn 0.3883 0.9215 -0.0094
vn 0.6901 0.7172 -0.0974
vn 0.9298 0.2964 -0.2185
vn 0.6519 0.6519 -0.3873
vn 0.7195 0.6945 0.0089
vn 0.7453 0.6299 -0.2185
vn 0.3985 0.9171 0.0088
vn 0.4474 0.8671 -0.2190
vn 0.0152 0.9236 -0.3830
vn 0.0435 0.9990 0.0057
vn 0.6456 0.6634 -0.3784
vn 0.4969 0.4969 -0.7115
vn 0.2261 0.7740 -0.5914
vn 0.3862 0.7070 -0.5924
vn 0.0282 0.9267 -0.3747
vn -0.1960 0.9618 -0.1913
vn -0.0016 0.9237 -0.3830
vn -0.0007 1.0000 -0.0021
vn -0.1958 0.8154 -0.5448
vn -0.0018 0.7072 -0.7070
vn -0.0001 0.9237 -0.3831
vn 0.0557 0.7653 -0.6413
vn -0.2806 0.6620 -0.6950
vn -0.2458 0.9164 -0.3157
vn -0.1953 0.5449 -0.8154
vn -0.0021 0.3828 -0.9238
vn -0.0004 0.7071 -0.7071
vn -0.2459 0.3158 -0.9164
vn -0.2807 0.6713 -0.6860
vn 0.0557 0.6414 -0.7652
vn -0.3142 0.3971 -0.8623
vn -0.6920 0.2728 -0.6683
vn -0.5218 0.6087 -0.5977
vn -0.8623 0.3142 -0.3972
vn -0.6848 0.6844 -0.2502
vn -0.5976 0.5218 -0.6088
vn -0.7652 0.6414 0.0558
vn -0.6860 0.6713 -0.2807
vn -0.9165 0.3157 -0.2458
vn -0.3157 0.9164 -0.2459
vn -0.6950 0.6620 -0.2806
vn -0.6413 0.7653 0.0557
vn -0.9164 0.2459 -0.3157
vn -0.6693 0.3030 -0.6784
vn -0.7654 -0.0560 -0.6411
vn -0.9513 0.3060 0.0369
vn -0.8624 0.3580 -0.3580
vn -0.9514 -0.0372 -0.3057
vn -0.9239 0.3827 -0.0007
vn -1.0000 0.0015 -0.0018
vn -0.9618 0.1935 -0.1934
vn -0.7071 0.7072 -0.0004
vn -0.9238 0.3828 -0.0021
vn -0.8142 0.5467 -0.1953
vn -0.7029 0.7109 0.0255
vn -0.9239 0.3826 0.0061
vn -0.8743 0.4040 0.2691
vn -0.9230 0.3841 0.0216
vn -1.0000 0.0016 -0.0000
vn -0.9940 0.0092 0.1087
vn -0.8736 0.4773 0.0947
vn -0.9247 0.2692 0.2692
vn -0.7066 0.5100 0.4906
vn -0.9239 0.3474 0.1602
vn -1.0000 0.0003 0.0001
vn -0.9941 -0.0330 0.1038
vn -0.7066 0.4906 0.5100
vn -0.8736 0.0947 0.4772
vn -0.9237 0.2595 0.2818
vn -1.0000 0.0002 0.0002
vn -0.9940 -0.0703 0.0833
vn -0.8743 0.2691 0.4041
vn -0.9239 0.0075 0.3826
vn -0.7030 0.0283 0.7106
vn -0.9940 0.1087 0.0093
vn -1.0000 -0.0000 0.0013
vn -0.9230 0.0231 0.3841
vn -0.8155 0.1950 0.5449
vn -0.7075 0.0141 0.7066
vn -0.9239 0.0057 0.3825
vn -0.9239 0.0057 0.3826
vn -0.9617 0.1938 0.1941
vn -0.7029 -0.0283 0.7107
vn -0.8743 -0.2690 0.4040
vn -0.9230 -0.0231 0.3841
vn -1.0000 -0.0000 0.0014
vn -0.9940 -0.1087 0.0093
vn -0.7700 -0.5108 0.3823
vn -0.7119 -0.2682 0.6491
vn -0.9277 -0.1551 0.3396
vn -0.9239 -0.1602 0.3474
vn -1.0000 -0.0001 0.0003
vn -0.9941 -0.1038 -0.0330
vn -1.0000 0.0009 0.0014
vn -1.0000 -0.0021 -0.0010
vn -1.0000 0.0003 -0.0023
vn -1.0000 0.0013 0.0002
vn -1.0000 -0.0013 0.0002
vn -1.0000 0.0002 -0.0017
vn -1.0000 0.0017 0.0003
vn -1.0000 -0.0008 -0.0022
vn -1.0000 0.0013 0.0003
vn -1.0000 -0.0012 0.0006
vn -1.0000 0.0007 -0.0015
vn -0.9363 -0.3480 0.0474
vn -0.9999 -0.0101 -0.0134
vn -0.9360 -0.3401 -0.0910
vn -0.9250 -0.3514 0.1448
vn -0.9999 -0.0041 -0.0159
vn -0.9619 -0.1913 0.1951
vn -0.9240 -0.3825 0.0061
vn -1.0000 -0.0017 -0.0014
vn -0.9514 0.0372 -0.3058
vn -0.8624 -0.3580 -0.3580
vn -0.9513 -0.3060 0.0369
vn -0.9239 -0.0006 -0.3826
vn -1.0000 -0.0015 -0.0019
vn -0.9619 -0.1933 -0.1932
vn -0.7653 0.0560 -0.6412
vn -0.6693 -0.3030 -0.6784
vn -0.9164 -0.2458 -0.3158
vn -0.8155 -0.1950 -0.5449
vn -0.7071 -0.0015 -0.7071
vn -0.9239 -0.0005 -0.3827
vn -0.3158 -0.2459 -0.9164
vn -0.6784 -0.3030 -0.6693
vn -0.6412 0.0560 -0.7653
vn -0.3827 -0.0006 -0.9239
vn -0.5434 -0.1950 -0.8165
vn -0.6412 -0.0560 -0.7653
vn -0.6784 0.3030 -0.6693
vn -0.3157 0.2459 -0.9164
vn -0.3057 -0.0372 -0.9514
vn -0.3580 0.3580 -0.8624
vn 0.0369 0.3060 -0.9513
vn -0.0018 -0.0003 -1.0000
vn -0.3826 -0.0017 -0.9239
vn -0.1896 -0.1950 -0.9623
vn -0.1935 0.1914 -0.9623
vn -0.0018 0.0015 -1.0000
vn -0.0007 0.3827 -0.9239
vn 0.0002 -0.0013 -1.0000
vn 0.0002 0.0013 -1.0000
vn -0.0017 -0.0002 -1.0000
vn 0.0014 -0.0009 -1.0000
vn -0.0018 -0.0015 -1.0000
vn -0.0010 0.0021 -1.0000
vn -0.0023 -0.0003 -1.0000
vn -0.0000 0.0017 -1.0000
vn 0.0013 -0.0001 -1.0000
vn -0.0006 -0.0016 -1.0000
vn -0.0023 -0.0001 -1.0000
vn 0.0368 -0.3060 -0.9513
vn -0.3580 -0.3580 -0.8624
vn -0.3057 0.0372 -0.9514
vn -0.0007 -0.3827 -0.9239
vn -0.1934 -0.1935 -0.9618
vn 0.0216 -0.3842 -0.9230
vn -0.0000 -0.0016 -1.0000
vn 0.1087 -0.0093 -0.9940
vn 0.3037 -0.1780 -0.9360
vn 0.1448 -0.3514 -0.9250
vn 0.0145 0.0085 -0.9999
vn 0.3480 -0.0474 -0.9363
vn 0.2691 -0.2691 -0.9247
vn 0.0101 0.0134 -0.9999
vn 0.3411 0.0895 -0.9358
vn 0.3514 -0.1448 -0.9250
vn 0.0041 0.0159 -0.9999
vn 0.1913 -0.1951 -0.9619
vn 0.3825 -0.0075 -0.9239
vn 0.0013 0.0018 -1.0000
vn 0.3841 0.0231 -0.9230
vn 0.0014 -0.0000 -1.0000
vn 0.0092 0.1087 -0.9940
vn 0.0833 -0.0703 -0.9940
vn 0.0002 0.0002 -1.0000
vn 0.2818 0.2596 -0.9237
vn 0.1038 -0.0330 -0.9940
vn 0.0001 0.0002 -1.0000
vn 0.1602 0.3474 -0.9239
vn 0.1087 0.0093 -0.9940
vn 0.0216 0.3841 -0.9230
vn 0.2691 0.4040 -0.8743
vn 0.0061 0.3826 -0.9239
vn 0.0255 0.7109 -0.7029
vn 0.4040 0.2708 -0.8737
vn 0.1449 0.3514 -0.9249
vn 0.2827 0.6484 -0.7069
vn 0.4773 0.0947 -0.8736
vn 0.2692 0.2692 -0.9247
vn 0.5100 0.4906 -0.7066
vn 0.8504 0.3655 -0.3785
vn 0.6491 0.2682 -0.7118
vn 0.5057 0.6280 -0.5915
vn 0.9265 0.0318 -0.3749
vn 0.7071 0.3862 -0.5923
vn 0.7107 0.0283 -0.7030
vn 0.3826 0.0075 -0.9239
vn 0.4040 0.2690 -0.8743
vn 0.8154 -0.1955 -0.5449
vn 0.9235 -0.0188 -0.3831
vn 0.7066 -0.0124 -0.7075
vn 0.7067 -0.0123 -0.7074
vn 0.5472 -0.1953 -0.8139
vn 0.8628 0.0758 -0.4998
vn 0.6473 -0.2536 -0.7188
vn 0.6371 0.0856 -0.7660
vn 0.6491 -0.2681 -0.7119
vn 0.3505 -0.1294 -0.9276
vn 0.6634 -0.6456 -0.3784
vn 0.4969 -0.4968 -0.7115
vn 0.7741 -0.2261 -0.5913
vn 0.5100 -0.4906 -0.7065
vn 0.2692 -0.2692 -0.9247
vn 0.4773 -0.0947 -0.8736
vn 0.6669 -0.5440 -0.5092
vn 0.2771 -0.6375 -0.7189
vn 0.2827 -0.6484 -0.7069
vn 0.1448 -0.3514 -0.9249
vn 0.4040 -0.2708 -0.8737
vn 0.0282 -0.9267 -0.3747
vn 0.3863 -0.7071 -0.5923
vn 0.0255 -0.7109 -0.7029
vn 0.0061 -0.3826 -0.9239
vn 0.2691 -0.4041 -0.8743
vn -0.0001 -0.9237 -0.3831
vn -0.0018 -0.7072 -0.7070
vn -0.1958 -0.8166 -0.5430
vn -0.0004 -0.7072 -0.7071
vn -0.0021 -0.3828 -0.9238
vn -0.1953 -0.5467 -0.8142
vn 0.0557 -0.6414 -0.7652
vn -0.2807 -0.6713 -0.6860
vn -0.2459 -0.3158 -0.9164
vn -0.2459 -0.9164 -0.3158
vn -0.2806 -0.6620 -0.6950
vn 0.0557 -0.7653 -0.6413
vn -0.0007 -1.0000 -0.0022
vn -0.1960 -0.9622 -0.1892
vn -0.6413 -0.7653 0.0557
vn -0.6950 -0.6620 -0.2806
vn -0.3157 -0.9164 -0.2459
vn -0.3971 -0.3142 -0.8623
vn -0.2501 -0.6845 -0.6848
vn -0.6088 -0.5218 -0.5976
vn -0.8623 -0.3972 -0.3142
vn -0.6683 -0.2729 -0.6920
vn -0.5976 -0.6088 -0.5218
vn -0.9164 -0.3157 -0.2459
vn -0.6860 -0.6713 -0.2807
vn -0.7652 -0.6414 0.0557
vn -0.5449 -0.8156 0.1947
vn -0.3831 -0.9236 0.0152
vn -0.7075 -0.7067 0.0100
vn -0.8155 -0.5449 0.1951
vn -0.7075 -0.7067 0.0114
vn -0.9239 -0.3825 0.0046
vn -0.5022 -0.8611 -0.0789
vn -0.3876 -0.8518 0.3525
vn -0.7188 -0.6473 0.2536
vn -0.7672 -0.6353 -0.0882
vn -0.7119 -0.6491 0.2681
vn -0.9276 -0.3505 0.1294
vn -0.5096 -0.8242 0.2471
vn -0.7186 -0.5007 0.4827
vn -0.7706 -0.6177 0.1570
vn -0.7116 -0.4969 0.4968
vn -0.9274 -0.2742 0.2544
vn -0.3785 -0.3655 0.8504
vn -0.7118 -0.2682 0.6491
vn -0.5915 -0.6280 0.5057
vn -0.1655 -0.7495 0.6409
vn -0.0019 -0.3800 0.9250
vn -0.3980 -0.3620 0.8429
vn -0.1660 -0.9378 0.3050
vn -0.0020 -0.7031 0.7111
vn -0.3977 -0.6573 0.6401
vn 0.0083 -0.0325 0.9994
vn -0.3830 -0.0188 0.9235
vn -0.2190 -0.4474 0.8671
vn -0.3749 -0.0318 0.9265
vn -0.7074 -0.0142 0.7067
vn -0.5923 -0.3863 0.7071
vn -0.1914 0.1943 0.9621
vn -0.3832 0.0170 0.9235
vn -0.3829 0.0170 0.9236
vn -0.7074 0.0141 0.7067
vn -0.5425 0.1961 0.8169
vn -0.2190 0.4474 0.8671
vn -0.3830 0.0188 0.9236
vn 0.0084 0.0325 0.9994
vn -0.5923 0.3862 0.7071
vn -0.7074 0.0142 0.7067
vn -0.3749 0.0318 0.9265
vn -0.2185 0.7453 0.6299
vn -0.3876 0.3525 0.8518
vn 0.0094 0.3910 0.9204
vn -0.3784 0.6456 0.6634
vn -0.7115 0.4969 0.4969
vn -0.5913 0.2261 0.7741
vn -0.2185 0.9297 0.2964
vn -0.3873 0.6519 0.6519
vn 0.0094 0.7115 0.7026
vn -0.5914 0.7740 0.2261
vn -0.3784 0.6634 0.6456
vn 0.0057 0.9990 0.0435
vn -0.3830 0.9236 0.0152
vn -0.2190 0.8671 0.4474
vn -0.3747 0.9267 0.0281
vn -0.7074 0.7067 0.0115
vn -0.5923 0.7071 0.3862
vn -0.0022 1.0000 -0.0007
vn -0.3830 0.9237 -0.0016
vn -0.1892 0.9622 -0.1960
vn -0.3831 0.9237 -0.0001
vn -0.7070 0.7072 -0.0018
vn -0.5430 0.8166 -0.1958
vn -0.0974 0.7172 0.6901
vn -0.0094 0.9215 0.3883
vn -0.0964 0.4009 0.9111
vn 0.0018 0.3807 0.9247
vn -0.0082 0.7037 0.7104
vn -0.0856 0.0423 0.9954
vn 0.0019 0.0204 0.9998
vn -0.0079 0.3804 0.9248
vn -0.0114 0.0332 0.9994
vn 0.3825 0.0270 0.9235
vn 0.0804 0.5145 0.8537
vn 0.0018 -0.0185 0.9998
vn 0.3825 -0.0269 0.9236
vn 0.3388 0.1270 0.9323
vn -0.0086 -0.0185 0.9998
vn 0.0019 -0.0204 0.9998
vn -0.0057 0.0197 0.9998
vn 0.2010 0.0544 0.9781
vn 0.0019 -0.3806 0.9247
vn 0.3521 -0.4673 0.8109
vn -0.0079 -0.3804 0.9248
vn -0.0856 -0.0423 0.9954
vn 0.2805 -0.3503 0.8936
vn 0.0015 -0.7039 0.7103
vn 0.2456 -0.7899 0.5618
vn -0.0082 -0.7037 0.7104
vn 0.0018 -0.3807 0.9247
vn -0.0964 -0.4009 0.9111
vn 0.2802 -0.7069 0.6494
vn 0.0007 -0.9216 0.3881
vn 0.1729 -0.8953 0.4105
vn -0.0094 -0.9215 0.3883
vn -0.0974 -0.7172 0.6901
vn 0.0102 -0.9220 0.3871
vn -0.0039 -0.9995 0.0314
vn 0.1552 -0.9826 0.1021
vn -0.1644 -0.9791 0.1197
vn -0.1170 -0.9290 0.3511
vn -0.1492 -0.9873 -0.0552
vn -0.0021 -0.9219 0.3874
vn -0.3979 -0.8523 0.3395
vn -0.1914 -0.9624 0.1929
vn -0.3831 -0.9236 0.0137
vn 0.1021 -0.9826 0.1552
vn 0.0314 -0.9995 -0.0039
vn 0.3871 -0.9220 0.0102
vn 0.3604 -0.9273 -0.1013
vn 0.0629 -0.9973 0.0368
vn 0.0435 -0.9990 0.0057
vn 0.0152 -0.9236 -0.3830
vn 0.4474 -0.8671 -0.2190
vn 0.7542 -0.6330 -0.1747
vn 0.3620 -0.8429 -0.3980
vn 0.6901 -0.7172 -0.0974
vn 0.7103 -0.7039 0.0015
vn 0.3883 -0.9215 -0.0094
vn 0.4105 -0.8953 0.1729
vn 0.3881 -0.9216 0.0007
vn 0.6494 -0.7069 0.2801
vn 0.5618 -0.7899 0.2456
vn 0.8936 -0.3503 0.2805
vn 0.9111 -0.4009 -0.0964
vn 0.9247 -0.3807 0.0018
vn 0.7104 -0.7037 -0.0082
vn 0.8109 -0.4673 0.3521
vn 0.9247 -0.3806 0.0019
vn 0.9781 0.0544 0.2010
vn 0.9954 -0.0423 -0.0856
vn 0.9998 -0.0204 0.0019
vn 0.9248 -0.3804 -0.0079
vn 0.9855 0.0655 -0.1564
vn 0.9250 -0.3799 -0.0019
vn 0.8523 -0.3395 -0.3980
vn 0.9388 -0.2983 -0.1725
vn 0.7111 -0.7031 -0.0020
vn 0.6573 -0.6401 -0.3977
vn 0.9998 -0.0186 -0.0016
vn 0.9236 -0.0188 -0.3830
vn 0.9622 -0.1963 -0.1886
vn 0.9998 0.0185 -0.0086
vn 0.9998 0.0204 0.0019
vn 0.9998 -0.0197 -0.0057
vn 0.9994 0.0325 0.0083
vn 0.9235 0.0188 -0.3830
vn 0.8671 0.4474 -0.2190
vn 0.9248 0.3804 -0.0079
vn 0.9954 0.0423 -0.0856
vn 0.9781 -0.0544 0.2010
vn 0.9247 0.3806 0.0019
vn 0.8109 0.4673 0.3521
vn 0.9323 0.1270 0.3388
vn 0.9236 -0.0269 0.3825
vn 0.9998 -0.0185 0.0018
vn 0.8172 -0.0397 0.5750
vn 0.8116 0.4778 0.3362
vn 0.6031 0.4976 0.6234
vn 0.7067 -0.0273 0.7070
vn 0.9235 -0.0269 0.3826
vn 0.8988 0.1270 0.4196
vn 0.6032 -0.4976 0.6233
vn 0.8116 -0.4778 0.3362
vn 0.8172 0.0397 0.5750
vn 0.5750 0.0397 0.8172
vn 0.3362 -0.4778 0.8116
vn 0.6234 -0.4976 0.6031
vn 0.3824 -0.0250 0.9237
vn 0.6683 0.1294 0.7325
vn 0.5454 -0.4413 0.7126
vn 0.2322 -0.7950 0.5605
vn 0.4187 -0.8129 0.4048
vn 0.4048 -0.8129 0.4187
vn 0.5605 -0.7950 0.2322
vn 0.7125 -0.4413 0.5455
vn 0.4006 -0.7854 0.4719
vn 0.2986 -0.9067 0.2978
vn 0.2978 -0.9067 0.2986
vn 0.4071 -0.8977 0.1687
vn 0.4719 -0.7854 0.4006
vn 0.3688 0.0391 0.9287
vn 0.4014 0.5461 0.7353
vt 0.621521 0.159885
vt 0.544058 0.157403
vt 0.549197 0.148507
vt 0.621521 0.148500
vt 0.621517 0.025553
vt 0.549193 0.025560
vt 0.693849 0.025564
vt 0.698123 0.036954
vt 0.621526 0.036938
vt 0.698989 0.034460
vt 0.699000 0.036686
vt 0.544047 0.159630
vt 0.544925 0.159897
vt 0.699776 0.035900
vt 0.543272 0.158844
vt 0.538465 0.171080
vt 0.539347 0.171288
vt 0.535607 0.182670
vt 0.534736 0.182559
vt 0.537653 0.170432
vt 0.708312 0.059615
vt 0.705395 0.047488
vt 0.709169 0.059239
vt 0.704582 0.048137
vt 0.707441 0.059727
vt 0.703700 0.048345
vt 0.621525 0.059710
vt 0.621526 0.048324
vt 0.735551 0.607222
vt 0.727896 0.581825
vt 0.737370 0.605914
vt 0.726494 0.584211
vt 0.713728 0.565714
vt 0.712959 0.568807
vt 0.697232 0.559767
vt 0.712199 0.571854
vt 0.697023 0.563088
vt 0.523324 0.560000
vt 0.696814 0.566393
vt 0.523394 0.563325
vt 0.521341 0.563936
vt 0.523463 0.566592
vt 0.696608 0.569695
vt 0.521568 0.569487
vt 0.523514 0.569795
vt 0.520339 0.566995
vt 0.521585 0.566772
vt 0.016974 0.417138
vt 0.015747 0.419627
vt 0.015338 0.417462
vt 0.016748 0.422685
vt 0.016992 0.419850
vt 0.018868 0.420030
vt 0.018920 0.416830
vt 0.018800 0.423294
vt 0.015059 0.413957
vt 0.017016 0.413745
vt 0.018924 0.413635
vt 0.191680 0.413632
vt 0.191884 0.416932
vt 0.192091 0.420231
vt 0.206709 0.411748
vt 0.207465 0.414782
vt 0.205953 0.408708
vt 0.220367 0.400086
vt 0.217616 0.395410
vt 0.218993 0.397749
vt 0.227220 0.376861
vt 0.229005 0.378145
vt 0.225432 0.375576
vt 0.232207 0.352018
vt 0.230270 0.351666
vt 0.232206 0.119239
vt 0.230269 0.119591
vt 0.228331 0.119942
vt 0.227219 0.094397
vt 0.229004 0.093114
vt 0.225431 0.095682
vt 0.220367 0.071175
vt 0.218992 0.073509
vt 0.217615 0.075848
vt 0.205952 0.062552
vt 0.228332 0.351315
vt 0.206709 0.059512
vt 0.191884 0.054327
vt 0.191680 0.057628
vt 0.018920 0.054430
vt 0.018924 0.057624
vt 0.017016 0.057514
vt 0.015059 0.057303
vt 0.016974 0.054122
vt 0.521566 0.932772
vt 0.519650 0.929589
vt 0.521608 0.929377
vt 0.519651 0.572670
vt 0.521609 0.572882
vt 0.523519 0.572992
vt 0.523517 0.929267
vt 0.696402 0.572997
vt 0.722357 0.911031
vt 0.730184 0.611079
vt 0.523513 0.932464
vt 0.696401 0.929265
vt 0.696606 0.932568
vt 0.710685 0.924338
vt 0.711442 0.927380
vt 0.723735 0.913372
vt 0.731968 0.892467
vt 0.730179 0.891182
vt 0.735021 0.867254
vt 0.733081 0.866903
vt 0.735020 0.635008
vt 0.733081 0.635358
vt 0.731973 0.609794
vt 0.723737 0.588894
vt 0.722360 0.591235
vt 0.711443 0.574891
vt 0.710685 0.577934
vt 0.725112 0.586556
vt 0.733759 0.608510
vt 0.738900 0.634300
vt 0.736959 0.634655
vt 0.736959 0.867607
vt 0.738900 0.867962
vt 0.733755 0.893752
vt 0.726492 0.918057
vt 0.735547 0.895042
vt 0.725111 0.915710
vt 0.712198 0.930416
vt 0.697021 0.939175
vt 0.712957 0.933463
vt 0.696813 0.935870
vt 0.523393 0.938933
vt 0.523462 0.935667
vt 0.521340 0.938323
vt 0.523323 0.942259
vt 0.697230 0.942496
vt 0.018868 0.051229
vt 0.016748 0.048575
vt 0.018800 0.047965
vt 0.018730 0.044642
vt 0.016991 0.051409
vt 0.015747 0.051632
vt 0.521583 0.935487
vt 0.520337 0.935263
vt 0.519928 0.933096
vt 0.192091 0.051028
vt 0.192299 0.047725
vt 0.207465 0.056478
vt 0.208224 0.053433
vt 0.230795 0.091825
vt 0.221747 0.068830
vt 0.223149 0.066449
vt 0.208993 0.050342
vt 0.236094 0.118529
vt 0.232613 0.090520
vt 0.234145 0.118884
vt 0.234146 0.352373
vt 0.230796 0.379433
vt 0.236095 0.352728
vt 0.232614 0.380738
vt 0.221747 0.402432
vt 0.223150 0.404812
vt 0.208223 0.417827
vt 0.208993 0.420917
vt 0.192507 0.426853
vt 0.192299 0.423534
vt 0.018730 0.426618
vt 0.621521 0.171271
vt 0.621522 0.182657
vt 0.621522 0.194043
vt 0.534276 0.194044
vt 0.534276 0.291295
vt 0.533403 0.194009
vt 0.621522 0.291297
vt 0.534736 0.302780
vt 0.533403 0.291331
vt 0.535608 0.302668
vt 0.621521 0.302683
vt 0.538466 0.314258
vt 0.539348 0.314050
vt 0.621521 0.314069
vt 0.544048 0.325708
vt 0.544926 0.325441
vt 0.621520 0.325455
vt 0.544059 0.327935
vt 0.549199 0.336830
vt 0.192507 0.044407
vt 0.621520 0.336841
vt 0.621514 0.459782
vt 0.549193 0.459771
vt 0.621523 0.202510
vt 0.698987 0.204995
vt 0.693847 0.213891
vt 0.713728 0.936556
vt 0.727896 0.920439
vt 0.621523 0.191124
vt 0.698120 0.202501
vt 0.698998 0.202769
vt 0.703698 0.191110
vt 0.704581 0.191318
vt 0.707439 0.179729
vt 0.708311 0.179840
vt 0.621523 0.179738
vt 0.708771 0.168355
vt 0.709645 0.168390
vt 0.621522 0.168352
vt 0.740850 0.868317
vt 0.737366 0.896348
vt 0.740850 0.633945
vt 0.621524 0.071095
vt 0.708772 0.071100
vt 0.709646 0.071065
vt 0.710521 0.070957
vt 0.710521 0.168498
vt 0.709167 0.180216
vt 0.533880 0.303156
vt 0.532528 0.291438
vt 0.532528 0.193901
vt 0.537654 0.314906
vt 0.705393 0.191967
vt 0.543273 0.326494
vt 0.699773 0.203554
vt 0.533879 0.182183
vt 0.621527 0.025553
vt 0.519930 0.569163
vt 0.015338 0.053798
vt 0.621524 0.213895
s 0
usemtl multitexture
f 143/1/1 5/2/2 1/3/3
f 2/4/4 1/3/5 3/5/6
f 3/5/6 1/3/5 4/6/7
f 1/7/8 6/8/9 23/9/10
f 6/8/11 5/10/12 8/11/13
f 10/12/14 5/2/15 7/13/16
f 8/11/13 5/10/12 9/14/17
f 9/15/17 5/2/12 10/12/14
f 11/16/18 9/15/19 10/12/14
f 12/17/20 10/12/21 7/13/22
f 146/18/23 11/16/24 12/17/25
f 13/19/26 14/20/27 11/16/28
f 17/21/29 14/22/30 15/23/31
f 16/24/32 9/14/33 14/22/34
f 19/25/35 16/24/36 17/21/37
f 18/26/38 8/11/39 16/24/40
f 18/26/41 21/27/42 20/28/43
f 6/8/44 20/28/45 23/9/46
f 103/29/47 20/30/48 21/31/49
f 22/32/50 23/33/51 20/30/52
f 24/34/53 4/35/54 23/33/55
f 22/32/56 25/36/57 24/34/58
f 25/36/59 26/37/60 24/34/58
f 26/37/61 3/38/62 4/35/63
f 27/39/64 28/40/65 26/37/66
f 28/40/67 29/41/68 3/38/69
f 30/42/70 29/41/71 28/40/72
f 100/43/73 30/42/74 27/39/75
f 33/44/76 30/42/77 31/45/78
f 33/44/79 34/46/80 32/47/81
f 32/47/82 34/46/83 29/41/84
f 38/48/85 34/49/86 35/50/87
f 29/51/84 34/49/88 36/52/89
f 37/53/90 38/48/91 40/54/92
f 29/51/93 37/53/94 145/55/95
f 38/48/96 76/56/97 39/57/98
f 40/54/99 39/57/100 41/58/101
f 40/54/102 44/59/103 42/60/104
f 37/53/105 42/60/106 43/61/107
f 43/61/108 45/62/109 46/63/110
f 42/60/111 47/64/112 45/62/113
f 45/62/114 49/65/115 46/63/116
f 45/62/117 50/66/118 48/67/119
f 49/65/120 51/68/121 52/69/122
f 48/67/123 53/70/124 51/68/125
f 51/68/126 55/71/127 52/69/128
f 53/70/129 54/72/130 51/68/131
f 58/73/132 54/72/133 57/74/134
f 54/72/135 59/75/136 57/74/137
f 58/73/138 60/76/139 61/77/140
f 57/74/141 63/78/142 60/76/143
f 129/79/144 60/76/145 62/80/146
f 60/76/147 64/81/148 62/80/149
f 65/82/150 56/83/151 44/59/152
f 66/84/153 64/81/154 65/82/155
f 68/85/156 65/82/157 67/86/158
f 70/87/159 67/86/160 69/88/161
f 71/89/162 70/87/163 69/88/164
f 71/89/165 41/58/166 39/57/167
f 73/90/168 72/91/169 71/89/170
f 76/56/171 71/89/172 39/57/173
f 182/92/174 73/93/175 74/94/176
f 74/94/177 76/95/171 77/96/178
f 76/95/179 33/44/180 77/96/181
f 77/96/182 31/45/183 78/97/184
f 80/98/185 77/96/186 78/97/187
f 79/99/188 31/45/189 100/43/190
f 86/100/191 78/97/192 94/101/191
f 81/102/193 74/94/194 80/98/195
f 81/102/196 82/103/197 83/104/198
f 83/104/199 84/105/200 85/106/201
f 87/107/202 84/105/203 86/100/204
f 89/108/205 86/100/206 88/109/207
f 91/110/208 88/109/209 90/111/210
f 93/112/211 90/111/212 92/113/210
f 93/112/213 94/101/214 95/114/215
f 94/101/216 97/115/217 95/114/218
f 96/116/219 99/117/220 97/115/221
f 98/118/222 100/43/223 99/117/224
f 99/117/225 27/39/226 25/36/227
f 97/115/228 25/36/229 101/119/230
f 95/114/231 101/119/232 102/120/233
f 103/29/234 101/119/235 22/32/236
f 105/121/237 102/120/238 103/29/239
f 104/122/240 95/114/241 102/120/242
f 105/121/243 106/123/244 104/122/245
f 106/123/246 93/112/247 104/122/248
f 107/124/249 108/125/250 106/123/251
f 106/123/252 89/108/253 91/110/254
f 111/126/255 108/125/256 109/127/257
f 110/128/258 89/108/259 108/125/260
f 111/126/261 112/129/262 110/128/263
f 112/129/264 87/107/265 110/128/266
f 115/130/267 112/129/268 113/131/269
f 114/132/270 85/106/271 112/129/272
f 118/133/273 114/132/274 115/130/275
f 116/134/276 83/104/277 114/132/278
f 116/134/279 182/92/280 81/102/281
f 120/135/282 116/134/283 118/133/284
f 118/133/285 119/136/286 120/135/287
f 119/136/288 115/130/289 161/137/290
f 124/138/291 120/139/292 121/140/293
f 119/141/286 121/140/294 120/139/287
f 120/139/295 122/142/296 123/143/297
f 117/144/298 120/135/295 123/145/297
f 182/92/299 123/145/300 75/146/301
f 72/91/302 123/143/303 122/142/304
f 72/91/305 124/138/306 70/87/307
f 121/140/308 125/147/309 124/138/310
f 124/138/311 68/85/312 70/87/313
f 126/148/314 127/149/315 125/147/316
f 125/147/317 66/84/318 68/85/319
f 128/150/320 129/79/321 127/149/322
f 127/149/323 62/80/324 66/84/325
f 132/151/326 129/79/327 130/152/328
f 131/153/329 132/151/330 130/152/331
f 158/154/332 130/152/333 128/150/334
f 135/155/335 132/151/336 133/156/337
f 134/157/338 61/77/339 132/151/340
f 135/155/341 136/158/342 134/157/343
f 136/158/344 58/73/345 134/157/346
f 138/159/347 137/160/348 139/161/349
f 52/69/350 136/158/351 138/159/352
f 140/162/353 139/161/354 141/163/355
f 140/162/356 52/69/357 138/159/358
f 142/164/359 141/163/360 143/165/361
f 46/63/362 140/162/363 142/164/364
f 2/166/365 142/164/366 143/165/361
f 144/167/367 46/63/368 142/164/364
f 3/168/369 144/167/370 2/166/4
f 145/55/371 43/61/372 144/167/373
f 3/168/69 29/51/68 145/55/374
f 141/169/375 7/13/376 143/1/377
f 139/170/378 12/17/379 141/169/380
f 137/171/381 146/18/382 139/170/383
f 147/172/384 13/19/385 146/18/386
f 149/173/387 148/174/388 147/172/389
f 135/175/390 147/172/391 137/171/392
f 149/173/393 152/176/394 150/177/395
f 151/178/396 135/175/397 133/179/398
f 151/178/399 154/180/400 152/176/401
f 153/181/402 133/179/403 131/182/404
f 153/181/405 156/183/406 154/180/407
f 155/184/408 131/182/409 158/185/410
f 156/183/411 155/184/412 157/186/413
f 160/187/414 155/184/415 158/185/416
f 159/188/417 128/150/418 126/148/419
f 119/141/420 126/148/421 121/140/294
f 159/189/422 119/190/423 160/187/424
f 119/190/423 161/191/290 160/187/424
f 162/192/425 157/193/426 160/194/427
f 161/137/428 113/131/429 162/195/430
f 163/196/431 113/131/432 111/126/433
f 163/197/434 164/198/435 162/192/436
f 164/198/437 165/199/438 157/193/413
f 165/199/439 166/200/440 167/201/441
f 167/201/442 168/202/443 169/203/444
f 171/204/445 166/200/446 163/197/447
f 169/203/448 170/205/449 177/206/450
f 172/207/451 168/202/452 171/204/453
f 172/208/454 109/127/455 107/124/456
f 171/209/457 111/126/458 109/127/459
f 172/208/460 105/121/461 173/210/462
f 173/211/463 170/205/464 172/207/465
f 173/210/466 103/29/467 21/31/468
f 19/25/469 173/211/470 21/27/471
f 174/212/472 17/21/473 175/213/474
f 175/213/475 170/205/476 174/212/477
f 175/213/478 15/23/479 176/214/480
f 178/215/481 175/213/482 176/214/480
f 179/216/483 177/206/484 178/215/485
f 150/177/486 179/217/487 178/218/485
f 150/177/488 176/219/489 148/174/490
f 152/176/491 180/220/492 179/217/493
f 180/221/494 169/203/495 179/216/496
f 154/180/497 181/222/498 180/220/499
f 181/223/500 167/201/501 180/221/502
f 165/199/438 181/223/503 157/193/413
f 181/222/503 156/183/411 157/186/413
f 148/174/504 15/224/505 13/19/506
f 1/3/507 2/4/508 143/1/509
f 143/1/510 7/13/16 5/2/511
f 23/9/512 4/225/513 1/7/514
f 1/7/515 5/10/12 6/8/516
f 11/16/517 14/20/518 9/15/519
f 12/17/520 11/16/521 10/12/522
f 146/18/523 13/19/524 11/16/525
f 13/19/526 15/224/527 14/20/528
f 17/21/529 16/24/530 14/22/531
f 16/24/532 8/11/13 9/14/533
f 19/25/534 18/26/535 16/24/536
f 18/26/537 6/8/538 8/11/539
f 18/26/540 19/25/541 21/27/542
f 6/8/543 18/26/535 20/28/544
f 103/29/545 22/32/546 20/30/547
f 22/32/548 24/34/58 23/33/549
f 24/34/550 26/37/551 4/35/552
f 22/32/553 101/119/554 25/36/555
f 25/36/556 27/39/75 26/37/557
f 26/37/558 28/40/559 3/38/560
f 27/39/561 30/42/562 28/40/563
f 30/42/564 32/47/565 29/41/566
f 100/43/567 31/45/568 30/42/569
f 33/44/570 32/47/571 30/42/572
f 33/44/573 35/226/574 34/46/575
f 38/48/576 36/52/577 34/49/578
f 37/53/579 36/52/580 38/48/581
f 29/51/582 36/52/583 37/53/584
f 38/48/585 35/50/586 76/56/587
f 40/54/588 38/48/589 39/57/590
f 40/54/591 41/58/592 44/59/593
f 37/53/594 40/54/595 42/60/596
f 43/61/597 42/60/598 45/62/599
f 42/60/600 44/59/601 47/64/602
f 45/62/603 48/67/604 49/65/605
f 45/62/606 47/64/607 50/66/608
f 49/65/609 48/67/604 51/68/610
f 48/67/611 50/66/612 53/70/613
f 51/68/614 54/72/615 55/71/616
f 53/70/617 56/83/618 54/72/619
f 58/73/620 55/71/621 54/72/622
f 54/72/623 56/83/618 59/75/624
f 58/73/625 57/74/134 60/76/626
f 57/74/627 59/75/628 63/78/629
f 129/79/630 61/77/631 60/76/632
f 60/76/633 63/78/634 64/81/635
f 44/59/636 41/58/592 69/88/637
f 69/88/638 67/86/158 65/82/150
f 65/82/150 64/81/150 63/78/150
f 63/78/150 59/75/618 56/83/639
f 56/83/640 53/70/150 50/66/150
f 50/66/150 47/64/150 44/59/641
f 44/59/642 69/88/643 65/82/150
f 65/82/150 63/78/150 56/83/644
f 56/83/645 50/66/150 44/59/646
f 66/84/647 62/80/149 64/81/648
f 68/85/649 66/84/650 65/82/651
f 70/87/652 68/85/653 67/86/654
f 71/89/655 72/91/656 70/87/657
f 71/89/658 69/88/659 41/58/660
f 73/90/661 75/227/662 72/91/663
f 76/56/664 73/90/665 71/89/666
f 182/92/667 75/146/668 73/93/669
f 74/94/670 73/93/665 76/95/671
f 76/95/672 35/226/673 33/44/674
f 77/96/675 33/44/676 31/45/677
f 80/98/678 74/94/679 77/96/680
f 79/99/681 78/97/682 31/45/683
f 94/101/191 92/113/210 90/111/684
f 90/111/685 88/109/191 86/100/191
f 86/100/191 84/105/191 82/103/686
f 82/103/687 80/98/688 78/97/689
f 78/97/690 79/99/691 98/118/191
f 98/118/191 96/116/191 94/101/191
f 94/101/191 90/111/692 86/100/191
f 86/100/191 82/103/693 78/97/682
f 78/97/694 98/118/191 94/101/191
f 81/102/695 182/92/696 74/94/697
f 81/102/698 80/98/688 82/103/699
f 83/104/700 82/103/701 84/105/702
f 87/107/703 85/106/704 84/105/705
f 89/108/706 87/107/707 86/100/708
f 91/110/709 89/108/710 88/109/711
f 93/112/712 91/110/713 90/111/714
f 93/112/715 92/113/716 94/101/717
f 94/101/718 96/116/719 97/115/720
f 96/116/721 98/118/722 99/117/723
f 98/118/724 79/99/691 100/43/725
f 99/117/726 100/43/727 27/39/728
f 97/115/729 99/117/730 25/36/731
f 95/114/732 97/115/733 101/119/734
f 103/29/735 102/120/736 101/119/737
f 105/121/738 104/122/245 102/120/739
f 104/122/740 93/112/741 95/114/742
f 105/121/743 107/124/744 106/123/745
f 106/123/746 91/110/254 93/112/747
f 107/124/748 109/127/257 108/125/749
f 106/123/750 108/125/751 89/108/752
f 111/126/753 110/128/754 108/125/755
f 110/128/756 87/107/757 89/108/758
f 111/126/759 113/131/269 112/129/760
f 112/129/761 85/106/762 87/107/763
f 115/130/764 114/132/278 112/129/765
f 114/132/766 83/104/767 85/106/768
f 118/133/769 116/134/770 114/132/771
f 116/134/772 81/102/773 83/104/774
f 116/134/775 117/144/776 182/92/777
f 120/135/778 117/144/779 116/134/780
f 119/136/781 118/133/285 115/130/782
f 124/138/783 122/142/784 120/139/785
f 182/92/786 117/144/787 123/145/788
f 72/91/789 75/227/790 123/143/791
f 72/91/792 122/142/793 124/138/794
f 121/140/795 126/148/796 125/147/797
f 124/138/798 125/147/799 68/85/800
f 126/148/801 128/150/802 127/149/803
f 125/147/804 127/149/805 66/84/806
f 128/150/807 130/152/328 129/79/808
f 127/149/809 129/79/810 62/80/811
f 132/151/812 61/77/813 129/79/814
f 131/153/815 133/156/816 132/151/817
f 158/154/818 131/153/819 130/152/820
f 135/155/821 134/157/822 132/151/823
f 134/157/824 58/73/825 61/77/826
f 135/155/827 137/160/392 136/158/828
f 136/158/829 55/71/830 58/73/831
f 138/159/832 136/158/833 137/160/834
f 52/69/835 55/71/836 136/158/837
f 140/162/838 138/159/839 139/161/840
f 140/162/841 49/65/842 52/69/843
f 142/164/844 140/162/845 141/163/846
f 46/63/847 49/65/842 140/162/848
f 2/166/849 144/167/850 142/164/851
f 144/167/852 43/61/853 46/63/854
f 3/168/855 145/55/856 144/167/857
f 145/55/858 37/53/859 43/61/860
f 141/169/861 12/17/25 7/13/862
f 139/170/863 146/18/864 12/17/865
f 137/171/866 147/172/867 146/18/868
f 147/172/869 148/174/870 13/19/871
f 149/173/872 150/177/873 148/174/874
f 135/175/875 149/173/876 147/172/877
f 149/173/878 151/178/879 152/176/880
f 151/178/881 149/173/876 135/175/882
f 151/178/883 153/181/884 154/180/885
f 153/181/886 151/178/887 133/179/888
f 153/181/889 155/184/890 156/183/891
f 155/184/892 153/181/884 131/182/893
f 158/185/894 159/189/895 160/187/896
f 160/187/897 157/186/413 155/184/898
f 159/188/899 158/154/900 128/150/901
f 119/141/902 159/188/422 126/148/903
f 160/194/904 161/228/905 162/192/906
f 162/192/907 164/198/437 157/193/908
f 161/137/909 115/130/910 113/131/911
f 163/196/912 162/195/430 113/131/913
f 163/197/914 166/200/915 164/198/916
f 165/199/917 164/198/918 166/200/919
f 167/201/920 166/200/915 168/202/921
f 171/204/922 168/202/923 166/200/924
f 169/203/925 168/202/926 170/205/927
f 172/207/928 170/205/929 168/202/930
f 172/208/931 171/209/932 109/127/933
f 171/209/934 163/196/935 111/126/936
f 172/208/937 107/124/938 105/121/939
f 173/211/940 174/212/941 170/205/942
f 173/210/943 105/121/944 103/29/945
f 19/25/946 174/212/941 173/211/947
f 174/212/948 19/25/949 17/21/950
f 175/213/951 177/206/952 170/205/953
f 175/213/954 17/21/955 15/23/956
f 178/215/957 177/206/958 175/213/959
f 179/216/960 169/203/961 177/206/962
f 150/177/963 152/176/964 179/217/965
f 150/177/966 178/218/485 176/219/967
f 152/176/968 154/180/969 180/220/970
f 180/221/971 167/201/972 169/203/973
f 154/180/974 156/183/411 181/222/975
f 181/223/976 165/199/977 167/201/978
f 148/174/979 176/219/480 15/224/980
