# Blender 5.0.1
# www.blender.org

mtllib material.mtl
o edge_LF
v -0.137076 -0.100163 0.137396
v -0.295334 -0.100163 0.137396
v -0.295334 -0.100163 0.295654
v -0.137076 -0.100163 0.295654
v -0.125858 -0.097932 0.126178
v -0.122702 -0.097304 0.128039
v -0.127719 -0.097304 0.123022
v -0.123084 -0.097304 0.126119
v -0.124171 -0.097304 0.124492
v -0.125799 -0.097304 0.123404
v -0.113592 -0.089162 0.111216
v -0.115499 -0.089162 0.110836
v -0.105413 -0.076976 0.103069
v -0.111976 -0.089162 0.112296
v -0.103816 -0.076976 0.104136
v -0.110895 -0.089162 0.113913
v -0.102749 -0.076976 0.105733
v -0.110516 -0.089162 0.115820
v -0.102374 -0.076976 0.107617
v -0.110516 -0.089162 0.295654
v -0.102374 -0.076976 0.295654
v -0.110763 -0.088915 0.297379
v -0.122702 -0.097304 0.295654
v -0.122836 -0.096981 0.297379
v -0.123217 -0.096061 0.298841
v -0.137110 -0.099820 0.297379
v -0.137206 -0.098843 0.298841
v -0.295334 -0.099820 0.297379
v -0.297102 -0.099406 0.297422
v -0.295334 -0.098843 0.298841
v -0.295334 -0.097381 0.299819
v -0.297012 -0.098614 0.298612
v -0.297102 -0.097424 0.299404
v -0.297936 -0.098258 0.298257
v -0.298292 -0.097334 0.298612
v -0.298292 -0.098614 0.297333
v -0.298521 -0.098843 0.295654
v -0.299084 -0.097424 0.297422
v -0.299498 -0.095656 0.297379
v -0.299498 -0.097381 0.295654
v -0.299841 -0.095656 0.295654
v -0.299498 -0.097381 0.137670
v -0.298521 -0.098843 0.137526
v -0.299841 -0.095656 0.137840
v -0.299498 -0.094683 0.124108
v -0.298521 -0.096060 0.123537
v -0.299841 -0.093058 0.124781
v -0.299498 -0.087156 0.112842
v -0.298521 -0.088210 0.111788
v -0.299841 -0.085912 0.114086
v -0.299498 -0.075890 0.105315
v -0.298521 -0.076461 0.103938
v -0.299841 -0.075217 0.106940
v -0.299498 -0.062328 0.102617
v -0.298521 -0.062472 0.101155
v -0.299841 -0.062158 0.104342
v -0.299498 0.062328 0.102617
v -0.298521 0.062472 0.101155
v -0.299841 0.062158 0.104342
v -0.299498 0.075891 0.105315
v -0.298521 0.076461 0.103938
v -0.299498 0.087156 0.112842
v -0.299841 0.075218 0.106940
v -0.299841 0.085912 0.114086
v -0.299841 0.093058 0.124781
v -0.299498 0.094683 0.124108
v -0.299841 0.095656 0.137840
v -0.299498 0.097381 0.137670
v -0.299841 0.095656 0.295654
v -0.299498 0.097381 0.295654
v -0.299498 0.095656 0.297379
v -0.299084 0.097424 0.297422
v -0.298521 0.095656 0.298841
v -0.297059 0.095656 0.299819
v -0.298292 0.097334 0.298612
v -0.298521 -0.095656 0.298841
v -0.297059 -0.095656 0.299819
v -0.295334 -0.095656 0.300162
v -0.137520 -0.095656 0.300162
v -0.295334 0.095656 0.300162
v -0.295334 0.097381 0.299819
v -0.137520 0.095656 0.300162
v -0.137350 0.097381 0.299818
v -0.124460 0.093058 0.300162
v -0.123787 0.094683 0.299818
v -0.113766 0.085912 0.300162
v -0.112522 0.087156 0.299818
v -0.106620 0.075217 0.300162
v -0.104995 0.075890 0.299818
v -0.104022 0.062158 0.300162
v -0.102297 0.062328 0.299818
v -0.104022 -0.062158 0.300162
v -0.102297 -0.062328 0.299818
v -0.106620 -0.075217 0.300162
v -0.104995 -0.075891 0.299818
v -0.113766 -0.085912 0.300162
v -0.112522 -0.087156 0.299818
v -0.124461 -0.093058 0.300162
v -0.123787 -0.094683 0.299818
v -0.137350 -0.097381 0.299818
v -0.111468 -0.088210 0.298841
v -0.103617 -0.076461 0.298841
v -0.102697 -0.076842 0.297379
v -0.100835 -0.062472 0.298841
v -0.099858 -0.062568 0.297379
v -0.100835 0.062472 0.298841
v -0.099858 0.062568 0.297379
v -0.103617 0.076461 0.298841
v -0.102697 0.076842 0.297379
v -0.111468 0.088210 0.298841
v -0.110763 0.088914 0.297379
v -0.123217 0.096060 0.298841
v -0.122836 0.096981 0.297379
v -0.137206 0.098843 0.298841
v -0.137110 0.099820 0.297379
v -0.295334 0.098843 0.298841
v -0.297012 0.098614 0.298612
v -0.295334 0.099820 0.297379
v -0.295334 0.100163 0.295654
v -0.297102 0.099406 0.297422
v -0.297059 0.099820 0.295654
v -0.298292 0.098614 0.297333
v -0.297936 0.098258 0.298257
v -0.298521 0.098843 0.295654
v -0.298521 0.098843 0.137526
v -0.297059 0.099820 0.137430
v -0.298521 0.096061 0.123537
v -0.297059 0.096981 0.123156
v -0.298521 0.088210 0.111788
v -0.297059 0.088915 0.111084
v -0.295334 0.089162 0.110836
v -0.297059 0.076842 0.103017
v -0.295334 0.076976 0.102694
v -0.297059 0.062568 0.100178
v -0.295334 0.062602 0.099835
v -0.297059 -0.062568 0.100178
v -0.295334 -0.062602 0.099835
v -0.297059 -0.076842 0.103017
v -0.295334 -0.076976 0.102694
v -0.297059 -0.088914 0.111084
v -0.295334 -0.089162 0.110836
v -0.297059 -0.096981 0.123156
v -0.295334 -0.097304 0.123022
v -0.297059 -0.099820 0.137430
v -0.297059 -0.099820 0.295654
v -0.107297 -0.076976 0.102694
v -0.104396 -0.062602 0.099835
v -0.102528 -0.062602 0.100207
v -0.104396 0.062602 0.099835
v -0.102528 0.062602 0.100207
v -0.107297 0.076976 0.102694
v -0.105413 0.076976 0.103069
v -0.115499 0.089162 0.110836
v -0.113592 0.089162 0.111216
v -0.127719 0.097304 0.123022
v -0.125799 0.097304 0.123404
v -0.125858 0.097932 0.126178
v -0.295334 0.097304 0.123022
v -0.295334 0.100163 0.137396
v -0.137076 0.100163 0.137396
v -0.137076 0.100163 0.295654
v -0.122702 0.097304 0.295654
v -0.110516 0.089162 0.295654
v -0.122702 0.097304 0.128039
v -0.123084 0.097304 0.126119
v -0.110516 0.089162 0.115820
v -0.110895 0.089162 0.113913
v -0.102374 0.076976 0.107617
v -0.102748 0.076976 0.105733
v -0.099515 0.062602 0.104716
v -0.102374 0.076976 0.295654
v -0.099515 0.062602 0.295654
v -0.099515 -0.062602 0.295654
v -0.099515 -0.062602 0.104716
v -0.099886 -0.062602 0.102848
v -0.100944 -0.062602 0.101265
v -0.099886 0.062602 0.102848
v -0.100944 0.062602 0.101265
v -0.103816 0.076976 0.104136
v -0.111976 0.089162 0.112296
v -0.124171 0.097304 0.124492
v -0.297102 0.097424 0.299404
vn -0.0948 -0.9266 -0.3640
vn 0.1264 -0.9822 -0.1392
vn 0.0062 -0.9999 -0.0153
vn -0.0039 -0.9995 -0.0313
vn 0.0158 -0.9997 -0.0158
vn -0.0021 -1.0000 0.0021
vn -0.0022 -1.0000 0.0022
vn 0.0313 -0.9995 0.0039
vn 0.0165 -0.9996 -0.0219
vn 0.3714 -0.9250 -0.0807
vn 0.3628 -0.9268 0.0970
vn 0.3880 -0.9217 -0.0007
vn 0.0986 -0.9902 -0.0986
vn 0.4071 -0.8977 -0.1686
vn 0.1686 -0.8977 -0.4071
vn 0.0007 -0.9217 -0.3880
vn 0.2947 -0.9090 -0.2947
vn 0.4006 -0.7854 -0.4719
vn 0.2986 -0.9067 -0.2978
vn 0.2801 -0.7069 -0.6494
vn 0.1729 -0.8953 -0.4105
vn 0.0007 -0.9216 -0.3881
vn 0.2805 -0.3503 -0.8936
vn 0.2456 -0.7899 -0.5618
vn 0.0015 -0.7039 -0.7103
vn 0.5455 -0.4413 -0.7125
vn 0.4187 -0.8129 -0.4048
vn 0.2322 -0.7950 -0.5605
vn 0.8131 -0.4851 -0.3217
vn 0.5163 -0.8240 -0.2332
vn 0.6093 -0.5076 -0.6092
vn 0.5611 -0.7975 -0.2217
vn 0.2797 -0.9273 -0.2486
vn 0.4074 -0.8174 -0.4073
vn 0.9212 -0.3889 0.0135
vn 0.6237 -0.7811 0.0298
vn 0.8116 -0.4779 -0.3361
vn 0.7070 -0.7072 0.0111
vn 0.3868 -0.9181 -0.0865
vn 0.5605 -0.7950 -0.2321
vn 0.7394 -0.6604 -0.1311
vn 0.9249 -0.3802 -0.0088
vn 0.7111 -0.7031 0.0019
vn 0.4425 -0.8853 -0.1432
vn 0.7109 -0.7033 -0.0097
vn 0.3875 -0.9219 0.0020
vn 0.8430 -0.3620 0.3980
vn 0.6409 -0.7495 0.1655
vn 0.9250 -0.3800 0.0019
vn 0.6401 -0.6573 0.3977
vn 0.3050 -0.9378 0.1660
vn 0.7110 -0.7032 0.0020
vn 0.3395 -0.8523 0.3980
vn -0.0552 -0.9873 0.1492
vn 0.3874 -0.9219 0.0020
vn 0.6669 -0.5439 0.5092
vn 0.2771 -0.6375 0.7189
vn 0.3525 -0.8518 0.3876
vn 0.2536 -0.6473 0.7188
vn -0.0789 -0.8611 0.5022
vn 0.0137 -0.9236 0.3831
vn 0.1930 -0.9623 0.1914
vn 0.0313 -0.9995 0.0040
vn 0.0100 -0.7067 0.7074
vn 0.1947 -0.8156 0.5449
vn 0.0152 -0.9236 0.3831
vn -0.0016 -0.9237 0.3831
vn -0.3453 -0.8726 0.3453
vn -0.0692 -0.6740 0.7355
vn -0.4022 -0.8231 0.4009
vn 0.0026 -0.9255 0.3787
vn 0.0046 -0.3825 0.9239
vn 0.1951 -0.5449 0.8155
vn 0.0114 -0.7067 0.7074
vn -0.4022 -0.4009 0.8231
vn -0.0692 -0.7356 0.6739
vn 0.0021 -0.3783 0.9257
vn -0.3972 -0.3142 0.8623
vn -0.6087 -0.5218 0.5976
vn -0.2501 -0.6845 0.6848
vn -0.2762 -0.6676 0.6914
vn -0.5773 -0.5774 0.5773
vn -0.3454 -0.8726 0.3454
vn -0.8623 -0.3972 0.3142
vn -0.5976 -0.6088 0.5218
vn -0.6683 -0.2729 0.6920
vn -0.5774 -0.5774 0.5773
vn -0.6914 -0.6676 0.2762
vn -0.6739 -0.7356 0.0692
vn -0.8231 -0.4009 0.4022
vn -0.9257 -0.3783 -0.0021
vn -0.4009 -0.8231 0.4022
vn -0.7355 -0.6740 0.0692
vn -0.3786 -0.9256 -0.0026
vn -0.8231 -0.4022 0.4009
vn -0.6739 -0.0689 0.7356
vn -0.9257 0.0025 0.3782
vn -0.9004 -0.4280 0.0786
vn -0.9004 -0.0781 0.4280
vn -0.9998 0.0144 -0.0141
vn -0.9624 -0.1892 -0.1951
vn -1.0000 -0.0016 0.0014
vn -0.9239 -0.3825 -0.0060
vn -0.8167 -0.5431 -0.1951
vn -0.9239 -0.3825 -0.0046
vn -0.7075 -0.7067 -0.0114
vn -0.7672 -0.6353 0.0882
vn -0.9276 -0.3504 -0.1294
vn -0.7119 -0.6491 -0.2681
vn -0.9360 -0.3401 0.0910
vn -0.9999 -0.0042 0.0159
vn -0.9250 -0.3514 -0.1448
vn -0.9277 -0.3397 -0.1551
vn -0.7700 -0.3823 -0.5108
vn -0.9363 -0.3480 -0.0475
vn -0.9999 -0.0101 0.0134
vn -0.9247 -0.2691 -0.2691
vn -0.7700 -0.5108 -0.3823
vn -0.9277 -0.1551 -0.3396
vn -0.7119 -0.2682 -0.6491
vn -0.9999 0.0134 -0.0102
vn -0.9363 -0.0474 -0.3480
vn -0.9247 -0.2691 -0.2692
vn -0.9276 -0.1294 -0.3504
vn -0.7660 0.0856 -0.6371
vn -0.7119 -0.2681 -0.6491
vn -0.9999 0.0159 -0.0042
vn -0.9358 0.0895 -0.3411
vn -0.9250 -0.1448 -0.3514
vn -0.8170 0.1950 -0.5426
vn -0.9239 0.0057 -0.3825
vn -0.7075 0.0141 -0.7066
vn -0.9625 0.1950 -0.1887
vn -1.0000 -0.0018 -0.0014
vn -0.9239 0.0075 -0.3825
vn -0.7660 -0.0856 -0.6371
vn -0.9276 0.1294 -0.3504
vn -0.7119 0.2681 -0.6491
vn -0.9358 -0.0894 -0.3411
vn -0.9999 -0.0159 -0.0042
vn -0.9250 0.1448 -0.3514
vn -0.7706 0.1570 -0.6177
vn -0.9274 0.2544 -0.2742
vn -0.7116 0.4968 -0.4968
vn -0.9363 0.0475 -0.3480
vn -0.9999 -0.0134 -0.0101
vn -0.9247 0.2691 -0.2691
vn -1.0000 -0.0000 -0.0000
vn -1.0000 -0.0003 -0.0013
vn -1.0000 -0.0014 0.0009
vn -0.9239 0.3474 -0.1601
vn -0.9940 -0.0330 -0.1038
vn -1.0000 0.0003 -0.0001
vn -0.9230 0.3842 -0.0216
vn -0.9940 0.0093 -0.1087
vn -1.0000 0.0017 -0.0000
vn -0.9239 0.3827 0.0006
vn -0.9623 0.1914 0.1935
vn -1.0000 0.0015 0.0018
vn -0.9004 0.0782 0.4280
vn -0.9004 0.4280 0.0786
vn -0.9998 -0.0144 -0.0140
vn -0.9239 -0.0005 0.3826
vn -0.9623 -0.1933 0.1914
vn -1.0000 -0.0015 0.0019
vn -0.6739 0.0689 0.7356
vn -0.8231 0.4022 0.4009
vn -0.9257 -0.0025 0.3782
vn -0.7071 -0.0003 0.7071
vn -0.8155 -0.1951 0.5449
vn -0.9239 -0.0017 0.3827
vn -0.4009 0.4022 0.8231
vn -0.7356 0.0689 0.6739
vn -0.3782 -0.0024 0.9257
vn -0.3827 -0.0005 0.9239
vn -0.5449 -0.1950 0.8155
vn -0.7071 -0.0015 0.7071
vn -0.7356 -0.0689 0.6739
vn -0.4009 -0.4022 0.8231
vn -0.3782 0.0025 0.9257
vn -0.4280 -0.0782 0.9004
vn -0.0786 -0.4279 0.9004
vn 0.0141 0.0144 0.9998
vn -0.1932 -0.1933 0.9619
vn -0.3826 -0.0006 0.9239
vn -0.0019 -0.0015 1.0000
vn -0.0014 -0.0016 1.0000
vn 0.1951 -0.1913 0.9619
vn 0.0061 -0.3825 0.9239
vn -0.0000 -0.0000 1.0000
vn -0.0022 -0.0008 1.0000
vn -0.0786 0.4280 0.9003
vn -0.4280 0.0782 0.9004
vn 0.0141 -0.0144 0.9998
vn 0.1951 0.1892 0.9624
vn -0.0014 0.0017 1.0000
vn 0.0060 0.3825 0.9240
vn -0.0910 0.3401 0.9360
vn -0.0159 0.0041 0.9999
vn 0.1448 0.3514 0.9250
vn 0.2595 0.2818 0.9237
vn -0.0703 0.0833 0.9940
vn 0.0002 0.0002 1.0000
vn 0.3474 0.1602 0.9239
vn -0.0330 0.1038 0.9940
vn 0.0003 0.0001 1.0000
vn 0.3841 0.0231 0.9230
vn 0.0093 0.1087 0.9940
vn 0.0013 -0.0000 1.0000
vn 0.3826 -0.0057 0.9239
vn 0.1914 -0.1938 0.9622
vn 0.3411 0.0895 0.9357
vn 0.0041 0.0159 0.9999
vn 0.3513 -0.1448 0.9250
vn -0.0085 -0.0145 0.9999
vn 0.1780 -0.3037 0.9360
vn -0.0134 -0.0101 0.9999
vn 0.0475 -0.3480 0.9363
vn 0.2691 -0.2691 0.9248
vn -0.0159 -0.0041 0.9999
vn -0.0910 -0.3401 0.9360
vn 0.1448 -0.3514 0.9250
vn 0.1294 -0.3504 0.9276
vn -0.0882 -0.6353 0.7672
vn 0.2681 -0.6491 0.7119
vn 0.2544 -0.2741 0.9274
vn 0.1570 -0.6177 0.7706
vn 0.4968 -0.4968 0.7116
vn 0.3397 -0.1551 0.9277
vn 0.3823 -0.5108 0.7700
vn 0.6491 -0.2682 0.7119
vn 0.8241 -0.2471 0.5096
vn 0.5007 -0.4827 0.7185
vn 0.6519 -0.6519 0.3874
vn 0.8628 0.0758 0.4998
vn 0.6473 -0.2537 0.7188
vn 0.8518 -0.3524 0.3876
vn 0.6371 0.0855 0.7660
vn 0.3504 -0.1294 0.9276
vn 0.6491 -0.2681 0.7119
vn 0.8139 -0.1955 0.5471
vn 0.7066 -0.0124 0.7075
vn 0.9235 -0.0188 0.3831
vn 0.5426 -0.1950 0.8170
vn 0.7066 -0.0141 0.7075
vn 0.9265 0.0318 0.3749
vn 0.7071 0.3862 0.5923
vn 0.7067 0.0142 0.7074
vn 0.7106 0.0283 0.7030
vn 0.4040 0.2691 0.8743
vn 0.3826 0.0075 0.9239
vn 0.5439 0.6670 0.5092
vn 0.6375 0.2771 0.7189
vn 0.8518 0.3525 0.3876
vn 0.3823 0.5108 0.7700
vn 0.3396 0.1551 0.9277
vn 0.6491 0.2682 0.7119
vn 0.2471 0.8242 0.5096
vn 0.4827 0.5007 0.7185
vn 0.6519 0.6519 0.3874
vn 0.1570 0.6177 0.7706
vn 0.2544 0.2742 0.9274
vn 0.4968 0.4969 0.7116
vn -0.0789 0.8611 0.5022
vn 0.2537 0.6473 0.7188
vn 0.3525 0.8518 0.3876
vn -0.0881 0.6353 0.7672
vn 0.1294 0.3504 0.9276
vn 0.2681 0.6491 0.7119
vn 0.1947 0.8144 0.5467
vn 0.0100 0.7067 0.7074
vn 0.0151 0.9236 0.3831
vn 0.1951 0.5431 0.8167
vn 0.0046 0.3825 0.9239
vn 0.0114 0.7067 0.7074
vn -0.0692 0.7356 0.6739
vn -0.4022 0.4009 0.8231
vn 0.0021 0.3783 0.9257
vn -0.4022 0.8231 0.4009
vn -0.0692 0.6740 0.7355
vn 0.0026 0.9256 0.3786
vn -0.0016 0.9237 0.3830
vn -0.0022 1.0000 0.0022
vn -0.3453 0.8726 0.3453
vn 0.1929 0.9619 0.1935
vn 0.0138 0.9236 0.3831
vn 0.0313 0.9995 0.0039
vn -0.7355 0.6740 0.0692
vn -0.4009 0.8231 0.4022
vn -0.3786 0.9256 -0.0026
vn -0.3830 0.9237 0.0016
vn -0.3454 0.8726 0.3453
vn -0.3454 0.8726 0.3454
vn -0.6914 0.6676 0.2762
vn -0.5773 0.5774 0.5773
vn -0.2762 0.6676 0.6914
vn -0.5773 0.5774 0.5774
vn -0.3142 0.3972 0.8623
vn -0.5218 0.6088 0.5976
vn -0.6920 0.2728 0.6683
vn -0.8623 0.3142 0.3972
vn -0.5976 0.5218 0.6088
vn -0.6848 0.6845 0.2501
vn -0.8231 0.4009 0.4022
vn -0.6739 0.7356 0.0692
vn -0.9257 0.3782 -0.0021
vn -0.3831 0.9237 0.0001
vn -0.5448 0.8154 0.1959
vn -0.7070 0.7072 0.0018
vn -0.7071 0.7071 0.0004
vn -0.8155 0.5449 0.1953
vn -0.9238 0.3828 0.0021
vn -0.3747 0.9267 -0.0282
vn -0.5924 0.7071 -0.3862
vn -0.7074 0.7067 -0.0114
vn -0.7029 0.7108 -0.0255
vn -0.8743 0.4041 -0.2691
vn -0.9239 0.3825 -0.0061
vn -0.3786 0.8503 -0.3655
vn -0.5915 0.5057 -0.6280
vn -0.7118 0.6491 -0.2682
vn -0.7069 0.6484 -0.2827
vn -0.8737 0.2708 -0.4040
vn -0.9249 0.3514 -0.1448
vn -0.3784 0.6456 -0.6634
vn -0.5914 0.2261 -0.7741
vn -0.7115 0.4969 -0.4969
vn -0.1725 0.2983 -0.9388
vn -0.3977 0.6402 -0.6573
vn -0.0020 0.7031 -0.7111
vn 0.0089 0.9171 -0.3985
vn -0.2185 0.6299 -0.7453
vn -0.3875 0.8518 -0.3525
vn -0.1564 -0.0655 -0.9855
vn -0.3979 0.3396 -0.8523
vn -0.0019 0.3799 -0.9250
vn -0.4998 -0.0758 -0.8628
vn -0.7188 0.2537 -0.6473
vn -0.3876 0.3524 -0.8518
vn -0.1941 0.1943 -0.9616
vn -0.3832 0.0170 -0.9235
vn -0.0018 0.0203 -0.9998
vn -0.5471 0.1955 -0.8139
vn -0.7075 0.0124 -0.7066
vn -0.3831 0.0188 -0.9235
vn -0.3979 -0.3395 -0.8523
vn -0.1564 0.0655 -0.9855
vn -0.0019 -0.3799 -0.9250
vn -0.7188 -0.2536 -0.6473
vn -0.4998 0.0758 -0.8628
vn -0.3876 -0.3525 -0.8518
vn -0.3977 -0.6401 -0.6573
vn -0.1725 -0.2983 -0.9388
vn -0.0020 -0.7031 -0.7111
vn -0.7186 -0.4827 -0.5007
vn -0.5096 -0.2471 -0.8241
vn -0.3874 -0.6519 -0.6519
vn -0.3980 -0.8429 -0.3620
vn -0.1748 -0.6330 -0.7542
vn -0.0021 -0.9219 -0.3874
vn -0.7189 -0.6375 -0.2772
vn -0.5092 -0.5439 -0.6670
vn -0.3876 -0.8517 -0.3525
vn -0.1493 -0.9872 0.0552
vn -0.3979 -0.8523 -0.3396
vn -0.5022 -0.8611 0.0789
vn -0.7188 -0.6473 -0.2537
vn -0.3876 -0.8518 -0.3525
vn -0.1935 -0.9619 -0.1929
vn -0.3831 -0.9236 -0.0138
vn -0.5467 -0.8144 -0.1947
vn -0.7074 -0.7067 -0.0100
vn -0.3830 -0.9236 -0.0151
vn -0.3830 -0.9237 0.0016
vn 0.0097 -0.7033 -0.7109
vn 0.1431 -0.8853 -0.4425
vn -0.0020 -0.9219 -0.3875
vn 0.0089 -0.3802 -0.9249
vn 0.1312 -0.6604 -0.7394
vn -0.0019 -0.7031 -0.7111
vn 0.0073 -0.0205 -0.9998
vn 0.1090 -0.3475 -0.9313
vn -0.0018 -0.3799 -0.9250
vn 0.2010 0.0544 -0.9781
vn 0.3521 -0.4673 -0.8109
vn 0.0018 -0.3806 -0.9247
vn 0.0018 -0.0185 -0.9998
vn 0.3388 0.1270 -0.9323
vn 0.3825 -0.0269 -0.9236
vn 0.0088 0.0185 -0.9998
vn 0.0058 -0.0196 -0.9998
vn -0.0114 0.0332 -0.9994
vn 0.0803 0.5145 -0.8537
vn 0.3825 0.0270 -0.9236
vn 0.1089 0.3475 -0.9313
vn 0.0073 0.0205 -0.9998
vn -0.0018 0.3799 -0.9250
vn -0.0135 0.3889 -0.9212
vn -0.0298 0.7811 -0.6237
vn 0.3361 0.4779 -0.8116
vn 0.1311 0.6604 -0.7394
vn 0.0088 0.3802 -0.9249
vn -0.0019 0.7031 -0.7111
vn -0.0111 0.7071 -0.7070
vn 0.0865 0.9181 -0.3868
vn 0.2321 0.7950 -0.5605
vn 0.1432 0.8853 -0.4425
vn 0.0097 0.7033 -0.7109
vn -0.0020 0.9219 -0.3875
vn 0.1686 0.8977 -0.4071
vn 0.0007 0.9217 -0.3880
vn 0.0986 0.9902 -0.0987
vn 0.0219 0.9996 -0.0165
vn 0.0807 0.9250 -0.3714
vn -0.0970 0.9268 -0.3628
vn 0.0057 0.9990 -0.0435
vn -0.2190 0.8671 -0.4474
vn -0.3830 0.9236 -0.0152
vn -0.0021 1.0000 0.0007
vn -0.1913 0.9618 0.1960
vn -0.3830 0.9238 0.0016
vn -0.0039 0.9995 -0.0313
vn -0.0021 1.0000 0.0021
vn 0.0158 0.9997 -0.0158
vn 0.3640 0.9266 0.0948
vn 0.1392 0.9822 -0.1264
vn 0.0153 0.9999 -0.0062
vn -0.0552 0.9873 0.1493
vn 0.3396 0.8523 0.3979
vn 0.3874 0.9219 0.0021
vn 0.7026 0.7115 -0.0094
vn 0.2964 0.9297 0.2185
vn 0.6519 0.6519 0.3873
vn 0.7109 0.7033 -0.0097
vn 0.4425 0.8853 -0.1432
vn 0.3875 0.9219 0.0020
vn 0.3880 0.9217 -0.0007
vn 0.4071 0.8977 -0.1686
vn 0.0986 0.9902 -0.0986
vn 0.3868 0.9181 -0.0865
vn 0.7070 0.7071 0.0111
vn 0.5605 0.7950 -0.2321
vn 0.6237 0.7811 0.0298
vn 0.9212 0.3889 0.0135
vn 0.8116 0.4779 -0.3361
vn 0.9249 0.3802 -0.0089
vn 0.7394 0.6604 -0.1312
vn 0.7111 0.7031 0.0019
vn 0.8537 0.5145 -0.0803
vn 0.9994 0.0332 0.0114
vn 0.9236 0.0270 -0.3825
vn 0.9998 0.0205 -0.0073
vn 0.9313 0.3475 -0.1090
vn 0.9250 0.3799 0.0018
vn 0.9994 0.0325 -0.0084
vn 0.8671 0.4474 0.2190
vn 0.9236 0.0188 0.3830
vn 0.6409 0.7495 0.1655
vn 0.8430 0.3620 0.3979
vn 0.9250 0.3800 0.0019
vn 0.9616 -0.1943 0.1941
vn 0.9235 -0.0170 0.3832
vn 0.9998 -0.0203 0.0018
vn 0.9998 0.0185 0.0086
vn 0.9998 -0.0197 0.0057
vn 0.9998 0.0204 -0.0019
vn 0.9855 0.0655 0.1564
vn 0.8523 -0.3396 0.3979
vn 0.9313 -0.3475 -0.1089
vn 0.9998 -0.0205 -0.0073
vn 0.9250 -0.3799 0.0018
vn 0.9994 -0.0332 0.0114
vn 0.8537 -0.5145 -0.0803
vn 0.9236 -0.0270 -0.3825
vn 0.9235 -0.0250 -0.3828
vn 0.9921 0.1188 -0.0407
vn 0.9998 -0.0204 -0.0020
vn 0.9287 -0.0392 -0.3688
vn 0.7353 -0.5461 -0.4014
vn 0.7068 -0.0292 -0.7068
vn 0.7325 0.1294 -0.6683
vn 0.9237 -0.0251 -0.3824
vn 0.7353 0.5461 -0.4014
vn 0.9287 0.0391 -0.3688
vn 0.7068 0.0292 -0.7068
vn 0.3688 0.0392 -0.9287
vn 0.4014 0.5461 -0.7353
vn 0.4196 0.1270 -0.8988
vn 0.7070 -0.0273 -0.7067
vn 0.3826 -0.0269 -0.9235
vn 0.3217 0.4851 -0.8131
vn 0.2332 0.8240 -0.5163
vn 0.6092 0.5076 -0.6093
vn 0.5163 0.8240 -0.2332
vn 0.8131 0.4851 -0.3217
vn 0.6093 0.5076 -0.6092
vn 0.2217 0.7975 -0.5611
vn 0.2486 0.9273 -0.2797
vn 0.4073 0.8174 -0.4074
vn 0.2797 0.9273 -0.2486
vn 0.5610 0.7975 -0.2217
vn 0.4074 0.8174 -0.4073
vn 0.2947 0.9090 -0.2947
vn 0.5750 0.0397 -0.8172
vn 0.6233 -0.4976 -0.6032
vn 0.3362 -0.4778 -0.8116
vn 0.1552 -0.9826 -0.1021
vn -0.0039 -0.9995 -0.0314
vn 0.0102 -0.9220 -0.3871
vn -0.1013 -0.9273 -0.3604
vn 0.0006 -0.9217 -0.3880
vn 0.0368 -0.9973 -0.0629
vn 0.3871 -0.9220 -0.0102
vn 0.0314 -0.9995 0.0039
vn 0.1021 -0.9826 -0.1552
vn 0.1197 -0.9791 0.1644
vn 0.3511 -0.9290 0.1170
vn 0.2217 -0.7975 -0.5611
vn 0.4073 -0.8174 -0.4074
vn 0.2486 -0.9273 -0.2797
vn -0.0111 -0.7071 -0.7070
vn 0.2321 -0.7950 -0.5605
vn 0.0865 -0.9181 -0.3868
vn -0.0135 -0.3889 -0.9212
vn 0.3361 -0.4779 -0.8116
vn -0.0298 -0.7811 -0.6237
vn 0.3217 -0.4851 -0.8131
vn 0.6092 -0.5076 -0.6093
vn 0.2332 -0.8240 -0.5163
vn 0.7126 -0.4413 -0.5454
vn 0.5605 -0.7950 -0.2322
vn 0.4048 -0.8129 -0.4187
vn 0.4719 -0.7854 -0.4006
vn 0.2978 -0.9067 -0.2986
vn 0.8936 -0.3503 -0.2805
vn 0.7103 -0.7039 -0.0015
vn 0.5618 -0.7899 -0.2456
vn 0.6494 -0.7069 -0.2802
vn 0.3881 -0.9216 -0.0007
vn 0.4105 -0.8953 -0.1729
vn 0.7104 -0.7037 0.0082
vn 0.9247 -0.3807 -0.0018
vn 0.9111 -0.4009 0.0964
vn 0.3883 -0.9215 0.0094
vn 0.6901 -0.7171 0.0974
vn 0.9297 -0.2964 0.2185
vn 0.6519 -0.6519 0.3873
vn 0.7195 -0.6945 -0.0089
vn 0.7453 -0.6299 0.2185
vn 0.3985 -0.9171 -0.0088
vn 0.4474 -0.8671 0.2190
vn 0.0152 -0.9236 0.3830
vn 0.0435 -0.9990 -0.0057
vn 0.6456 -0.6634 0.3784
vn 0.4968 -0.4969 0.7115
vn 0.2261 -0.7741 0.5914
vn 0.3862 -0.7071 0.5924
vn 0.0282 -0.9267 0.3747
vn -0.1960 -0.9618 0.1913
vn -0.0016 -0.9237 0.3830
vn -0.0007 -1.0000 0.0022
vn -0.1958 -0.8154 0.5448
vn -0.0018 -0.7072 0.7070
vn -0.0001 -0.9237 0.3831
vn 0.0557 -0.7653 0.6413
vn -0.2806 -0.6620 0.6949
vn -0.2458 -0.9165 0.3157
vn -0.1953 -0.5449 0.8154
vn -0.0021 -0.3828 0.9238
vn -0.0004 -0.7071 0.7071
vn -0.2459 -0.3158 0.9164
vn -0.2807 -0.6713 0.6860
vn 0.0557 -0.6414 0.7652
vn -0.3142 -0.3972 0.8623
vn -0.6921 -0.2728 0.6683
vn -0.5218 -0.6087 0.5976
vn -0.8623 -0.3142 0.3972
vn -0.6848 -0.6845 0.2501
vn -0.5976 -0.5218 0.6088
vn -0.7652 -0.6414 -0.0557
vn -0.6860 -0.6713 0.2807
vn -0.9164 -0.3158 0.2458
vn -0.3157 -0.9164 0.2459
vn -0.6950 -0.6620 0.2806
vn -0.6413 -0.7653 -0.0557
vn -0.9164 -0.2459 0.3158
vn -0.6693 -0.3030 0.6784
vn -0.7653 0.0560 0.6412
vn -0.9513 -0.3060 -0.0369
vn -0.8624 -0.3580 0.3580
vn -0.9514 0.0372 0.3057
vn -0.9239 -0.3827 0.0007
vn -1.0000 -0.0015 0.0018
vn -0.9618 -0.1935 0.1935
vn -0.7071 -0.7071 0.0004
vn -0.9238 -0.3828 0.0021
vn -0.8142 -0.5467 0.1953
vn -0.7029 -0.7109 -0.0255
vn -0.9239 -0.3825 -0.0061
vn -0.8743 -0.4040 -0.2691
vn -0.9230 -0.3842 -0.0216
vn -1.0000 -0.0017 -0.0000
vn -0.9940 -0.0093 -0.1087
vn -0.8736 -0.4773 -0.0947
vn -0.9247 -0.2692 -0.2692
vn -0.7066 -0.5100 -0.4906
vn -0.9239 -0.3474 -0.1602
vn -1.0000 -0.0003 -0.0001
vn -0.9940 0.0330 -0.1038
vn -0.7066 -0.4906 -0.5100
vn -0.8736 -0.0947 -0.4773
vn -0.9940 -0.1038 0.0331
vn -1.0000 -0.0001 -0.0002
vn -0.9239 -0.1601 -0.3474
vn -0.8743 -0.2691 -0.4041
vn -0.9239 -0.0075 -0.3826
vn -0.7030 -0.0283 -0.7107
vn -0.9940 -0.1087 -0.0093
vn -1.0000 -0.0000 -0.0013
vn -0.9230 -0.0231 -0.3841
vn -0.7074 -0.0123 -0.7067
vn -0.8139 -0.1953 -0.5472
vn -0.9239 -0.0057 -0.3826
vn -0.9617 -0.1938 -0.1941
vn -0.7030 0.0283 -0.7107
vn -0.9239 0.0075 -0.3826
vn -0.8743 0.2691 -0.4041
vn -0.9230 0.0231 -0.3841
vn -1.0000 0.0001 -0.0013
vn -0.9940 0.1087 -0.0093
vn -0.7068 0.2827 -0.6484
vn -0.9249 0.1449 -0.3514
vn -0.8737 0.4040 -0.2708
vn -0.9239 0.1602 -0.3474
vn -1.0000 0.0001 -0.0003
vn -0.9940 0.1038 0.0330
vn -1.0000 -0.0009 -0.0014
vn -1.0000 0.0021 0.0010
vn -1.0000 -0.0003 0.0023
vn -1.0000 0.0016 -0.0000
vn -1.0000 -0.0013 -0.0002
vn -1.0000 0.0013 -0.0002
vn -1.0000 -0.0001 -0.0003
vn -1.0000 -0.0002 0.0017
vn -1.0000 -0.0017 -0.0003
vn -1.0000 0.0008 0.0022
vn -1.0000 -0.0013 -0.0003
vn -1.0000 0.0012 -0.0006
vn -1.0000 -0.0007 0.0015
vn -0.9363 0.3480 -0.0474
vn -0.9999 0.0101 0.0134
vn -0.9360 0.3401 0.0910
vn -0.9250 0.3514 -0.1448
vn -0.9999 0.0042 0.0159
vn -0.9619 0.1913 -0.1951
vn -1.0000 0.0017 0.0014
vn -0.9514 -0.0372 0.3057
vn -0.8624 0.3579 0.3580
vn -0.9513 0.3060 -0.0369
vn -0.9620 0.1950 0.1913
vn -0.9239 0.0018 0.3826
vn -1.0000 0.0003 0.0018
vn -0.7653 -0.0560 0.6412
vn -0.6693 0.3030 0.6784
vn -0.9164 0.2459 0.3158
vn -0.8155 0.1950 0.5449
vn -0.7071 0.0015 0.7071
vn -0.9239 0.0005 0.3827
vn -0.3158 0.2459 0.9164
vn -0.6784 0.3030 0.6692
vn -0.6412 -0.0560 0.7653
vn -0.5449 0.1951 0.8155
vn -0.3827 0.0017 0.9239
vn -0.7071 0.0003 0.7071
vn -0.6412 0.0560 0.7653
vn -0.6784 -0.3030 0.6693
vn -0.3158 -0.2459 0.9164
vn -0.3057 0.0372 0.9514
vn -0.3579 -0.3580 0.8624
vn 0.0369 -0.3059 0.9513
vn -0.0019 0.0003 1.0000
vn -0.3826 0.0017 0.9239
vn -0.1896 0.1950 0.9623
vn -0.1935 -0.1914 0.9623
vn -0.0018 -0.0015 1.0000
vn -0.0006 -0.3827 0.9239
vn 0.0002 0.0013 1.0000
vn 0.0002 -0.0013 1.0000
vn -0.0017 0.0002 1.0000
vn 0.0014 0.0009 1.0000
vn -0.0018 0.0015 1.0000
vn -0.0010 -0.0021 1.0000
vn -0.0023 0.0003 1.0000
vn -0.0000 -0.0017 1.0000
vn 0.0013 0.0001 1.0000
vn -0.0006 0.0016 1.0000
vn -0.0023 0.0001 1.0000
vn 0.0369 0.3060 0.9513
vn -0.3580 0.3579 0.8624
vn -0.3057 -0.0372 0.9514
vn -0.0007 0.3827 0.9239
vn -0.1934 0.1935 0.9618
vn 0.0216 0.3842 0.9230
vn -0.0000 0.0016 1.0000
vn 0.1087 0.0093 0.9940
vn 0.3037 0.1780 0.9360
vn 0.0145 -0.0085 0.9999
vn 0.3480 0.0475 0.9363
vn 0.2691 0.2691 0.9247
vn 0.0101 -0.0134 0.9999
vn 0.3411 -0.0895 0.9358
vn 0.3514 0.1448 0.9250
vn 0.0041 -0.0159 0.9999
vn 0.1913 0.1951 0.9619
vn 0.3825 0.0075 0.9239
vn 0.0013 -0.0018 1.0000
vn 0.3841 -0.0231 0.9230
vn 0.0014 -0.0000 1.0000
vn 0.0092 -0.1087 0.9940
vn 0.0833 0.0703 0.9940
vn 0.0002 -0.0002 1.0000
vn 0.2818 -0.2595 0.9237
vn 0.1038 0.0331 0.9940
vn 0.0001 -0.0003 1.0000
vn 0.1602 -0.3474 0.9239
vn 0.1087 -0.0093 0.9940
vn -0.0000 -0.0016 1.0000
vn 0.0216 -0.3841 0.9230
vn 0.2691 -0.4041 0.8742
vn 0.0061 -0.3826 0.9239
vn 0.0255 -0.7109 0.7028
vn 0.4040 -0.2708 0.8737
vn 0.1449 -0.3514 0.9249
vn 0.2827 -0.6484 0.7068
vn 0.4773 -0.0947 0.8736
vn 0.2692 -0.2692 0.9247
vn 0.5100 -0.4906 0.7066
vn 0.8503 -0.3655 0.3786
vn 0.6491 -0.2682 0.7118
vn 0.5057 -0.6280 0.5915
vn 0.9265 -0.0318 0.3749
vn 0.7067 -0.0142 0.7074
vn 0.7071 -0.3863 0.5923
vn 0.7107 -0.0283 0.7030
vn 0.3826 -0.0075 0.9239
vn 0.4040 -0.2690 0.8743
vn 0.9236 0.0170 0.3829
vn 0.7067 0.0141 0.7074
vn 0.8169 0.1961 0.5425
vn 0.7067 0.0123 0.7074
vn 0.5472 0.1953 0.8139
vn 0.8628 -0.0758 0.4998
vn 0.6473 0.2536 0.7188
vn 0.6371 -0.0856 0.7660
vn 0.6491 0.2681 0.7119
vn 0.3505 0.1294 0.9276
vn 0.6634 0.6456 0.3784
vn 0.4969 0.4968 0.7115
vn 0.7741 0.2262 0.5913
vn 0.5100 0.4906 0.7066
vn 0.2692 0.2692 0.9247
vn 0.4772 0.0947 0.8737
vn 0.3655 0.8503 0.3786
vn 0.2682 0.6491 0.7118
vn 0.6280 0.5057 0.5915
vn 0.2827 0.6484 0.7069
vn 0.1448 0.3514 0.9249
vn 0.4040 0.2708 0.8737
vn 0.0282 0.9267 0.3747
vn 0.0115 0.7067 0.7074
vn 0.3862 0.7071 0.5923
vn 0.0255 0.7109 0.7029
vn 0.0061 0.3826 0.9239
vn 0.2691 0.4040 0.8743
vn -0.0001 0.9237 0.3831
vn -0.0018 0.7072 0.7070
vn -0.1958 0.8166 0.5430
vn -0.0004 0.7071 0.7071
vn -0.0021 0.3828 0.9238
vn -0.1953 0.5467 0.8142
vn 0.0557 0.6414 0.7652
vn -0.2807 0.6713 0.6860
vn -0.2459 0.3158 0.9164
vn -0.2459 0.9164 0.3158
vn -0.2806 0.6620 0.6950
vn 0.0557 0.7653 0.6413
vn -0.0007 1.0000 0.0022
vn -0.1960 0.9622 0.1892
vn -0.6413 0.7652 -0.0557
vn -0.6950 0.6620 0.2806
vn -0.3158 0.9164 0.2459
vn -0.3971 0.3143 0.8623
vn -0.2501 0.6845 0.6848
vn -0.6088 0.5218 0.5976
vn -0.8623 0.3972 0.3142
vn -0.6683 0.2728 0.6920
vn -0.5976 0.6088 0.5218
vn -0.9164 0.3157 0.2459
vn -0.6860 0.6713 0.2807
vn -0.7652 0.6414 -0.0557
vn -0.5449 0.8156 -0.1947
vn -0.3831 0.9236 -0.0152
vn -0.7075 0.7067 -0.0100
vn -0.8155 0.5449 -0.1951
vn -0.7075 0.7067 -0.0114
vn -0.9239 0.3825 -0.0046
vn -0.5022 0.8611 0.0789
vn -0.3876 0.8518 -0.3525
vn -0.7188 0.6473 -0.2536
vn -0.7672 0.6353 0.0882
vn -0.7119 0.6491 -0.2681
vn -0.9276 0.3505 -0.1294
vn -0.5096 0.8241 -0.2471
vn -0.3874 0.6519 -0.6519
vn -0.7186 0.5007 -0.4827
vn -0.7706 0.6177 -0.1570
vn -0.7116 0.4969 -0.4968
vn -0.9274 0.2742 -0.2544
vn -0.5092 0.6670 -0.5439
vn -0.3876 0.3525 -0.8517
vn -0.7189 0.2771 -0.6375
vn 0.0094 0.3910 -0.9204
vn -0.3876 0.3525 -0.8518
vn -0.2185 0.7453 -0.6299
vn -0.1660 0.9378 -0.3050
vn -0.3977 0.6573 -0.6401
vn 0.0083 0.0325 -0.9994
vn -0.3830 0.0188 -0.9235
vn -0.2190 0.4474 -0.8671
vn -0.3749 0.0318 -0.9265
vn -0.7074 0.0142 -0.7067
vn -0.5923 0.3862 -0.7071
vn -0.0016 -0.0186 -0.9998
vn -0.3830 -0.0188 -0.9236
vn -0.1886 -0.1963 -0.9622
vn -0.3829 -0.0170 -0.9236
vn -0.7074 -0.0141 -0.7067
vn -0.5425 -0.1961 -0.8169
vn -0.2190 -0.4474 -0.8671
vn -0.3830 -0.0188 -0.9235
vn 0.0084 -0.0325 -0.9994
vn -0.5923 -0.3862 -0.7071
vn -0.7074 -0.0142 -0.7067
vn -0.3749 -0.0318 -0.9265
vn -0.2185 -0.7453 -0.6299
vn 0.0094 -0.3910 -0.9203
vn -0.5916 -0.6280 -0.5057
vn -0.7118 -0.2682 -0.6492
vn -0.3786 -0.3655 -0.8503
vn -0.2185 -0.9298 -0.2964
vn -0.3873 -0.6519 -0.6519
vn 0.0095 -0.7115 -0.7026
vn -0.5914 -0.7740 -0.2261
vn -0.7115 -0.4969 -0.4969
vn -0.3784 -0.6634 -0.6456
vn 0.0057 -0.9990 -0.0435
vn -0.3830 -0.9236 -0.0152
vn -0.2190 -0.8671 -0.4474
vn -0.3747 -0.9267 -0.0281
vn -0.7074 -0.7067 -0.0115
vn -0.5923 -0.7071 -0.3863
vn -0.0022 -1.0000 0.0007
vn -0.1892 -0.9622 0.1960
vn -0.3831 -0.9237 0.0001
vn -0.7070 -0.7072 0.0018
vn -0.5430 -0.8166 0.1958
vn -0.0974 -0.7172 -0.6901
vn -0.0094 -0.9215 -0.3883
vn -0.0964 -0.4009 -0.9111
vn 0.0018 -0.3807 -0.9247
vn -0.0082 -0.7037 -0.7104
vn -0.0856 -0.0423 -0.9954
vn 0.0019 -0.0204 -0.9998
vn -0.0079 -0.3804 -0.9248
vn -0.0114 -0.0332 -0.9994
vn 0.3825 -0.0270 -0.9235
vn 0.0804 -0.5145 -0.8537
vn 0.0407 -0.1188 -0.9921
vn 0.0020 0.0204 -0.9998
vn 0.3828 0.0250 -0.9235
vn -0.0057 0.0197 -0.9998
vn -0.0086 -0.0185 -0.9998
vn 0.2010 -0.0544 -0.9781
vn 0.0019 0.3806 -0.9247
vn 0.3521 0.4673 -0.8109
vn -0.0079 0.3804 -0.9248
vn 0.0019 0.0204 -0.9998
vn -0.0856 0.0423 -0.9954
vn 0.2805 0.3503 -0.8936
vn 0.0015 0.7039 -0.7103
vn 0.2456 0.7899 -0.5618
vn -0.0082 0.7037 -0.7104
vn 0.0018 0.3807 -0.9247
vn -0.0964 0.4009 -0.9111
vn 0.2802 0.7069 -0.6494
vn 0.0007 0.9216 -0.3881
vn 0.1729 0.8953 -0.4105
vn -0.0094 0.9215 -0.3883
vn -0.0974 0.7172 -0.6901
vn 0.0102 0.9220 -0.3871
vn -0.0039 0.9995 -0.0314
vn 0.1552 0.9826 -0.1021
vn -0.1644 0.9791 -0.1197
vn -0.1170 0.9290 -0.3511
vn -0.1492 0.9873 0.0552
vn -0.0021 0.9219 -0.3874
vn -0.3979 0.8523 -0.3395
vn -0.1914 0.9623 -0.1930
vn -0.0040 0.9995 -0.0313
vn -0.3831 0.9236 -0.0137
vn 0.1021 0.9826 -0.1552
vn 0.0314 0.9995 0.0039
vn 0.3871 0.9220 -0.0102
vn 0.3604 0.9273 0.1013
vn 0.0629 0.9973 -0.0368
vn 0.0435 0.9990 -0.0057
vn 0.0152 0.9236 0.3830
vn 0.4474 0.8671 0.2190
vn 0.7542 0.6330 0.1747
vn 0.3620 0.8430 0.3980
vn 0.6901 0.7172 0.0974
vn 0.7103 0.7039 -0.0015
vn 0.3883 0.9215 0.0094
vn 0.4105 0.8953 -0.1729
vn 0.3881 0.9216 -0.0007
vn 0.6494 0.7069 -0.2801
vn 0.5618 0.7899 -0.2456
vn 0.8936 0.3503 -0.2805
vn 0.9111 0.4009 0.0964
vn 0.9247 0.3807 -0.0018
vn 0.7104 0.7037 0.0082
vn 0.8109 0.4673 -0.3521
vn 0.9247 0.3806 -0.0019
vn 0.9781 -0.0544 -0.2010
vn 0.9954 0.0423 0.0856
vn 0.9248 0.3804 0.0079
vn 0.9855 -0.0655 0.1564
vn 0.8523 0.3395 0.3980
vn 0.7195 0.6945 -0.0089
vn 0.9298 0.2964 0.2185
vn 0.9998 0.0186 0.0016
vn 0.9622 0.1963 0.1886
vn 0.9998 0.0196 -0.0058
vn 0.9998 -0.0185 -0.0088
vn 0.9994 -0.0325 -0.0083
vn 0.9235 -0.0188 0.3830
vn 0.8671 -0.4474 0.2190
vn 0.9248 -0.3804 0.0079
vn 0.9998 -0.0204 -0.0019
vn 0.9954 -0.0423 0.0856
vn 0.9781 0.0544 -0.2010
vn 0.9247 -0.3806 -0.0019
vn 0.8109 -0.4673 -0.3521
vn 0.9323 -0.1270 -0.3388
vn 0.9236 0.0269 -0.3825
vn 0.9998 0.0185 -0.0018
vn 0.8172 0.0397 -0.5750
vn 0.8116 -0.4778 -0.3362
vn 0.6031 -0.4976 -0.6234
vn 0.7067 0.0273 -0.7070
vn 0.9235 0.0269 -0.3826
vn 0.8988 -0.1270 -0.4196
vn 0.6032 0.4976 -0.6233
vn 0.8116 0.4778 -0.3362
vn 0.8172 -0.0397 -0.5750
vn 0.5750 -0.0397 -0.8172
vn 0.3362 0.4778 -0.8116
vn 0.6234 0.4976 -0.6031
vn 0.3824 0.0250 -0.9237
vn 0.6683 -0.1294 -0.7325
vn 0.5454 0.4413 -0.7126
vn 0.2322 0.7950 -0.5605
vn 0.4187 0.8129 -0.4048
vn 0.4048 0.8129 -0.4187
vn 0.5605 0.7950 -0.2322
vn 0.7125 0.4413 -0.5455
vn 0.4006 0.7854 -0.4719
vn 0.2986 0.9067 -0.2978
vn 0.2978 0.9067 -0.2986
vn 0.4071 0.8977 -0.1687
vn 0.4719 0.7854 -0.4006
vn 0.3688 -0.0391 -0.9287
vn 0.4014 -0.5461 -0.7353
vt 0.621521 0.159885
vt 0.544058 0.157403
vt 0.549197 0.148507
vt 0.621521 0.148500
vt 0.621517 0.025553
vt 0.549193 0.025560
vt 0.693849 0.025564
vt 0.698123 0.036954
vt 0.621526 0.036938
vt 0.698989 0.034460
vt 0.699000 0.036686
vt 0.544047 0.159630
vt 0.544925 0.159897
vt 0.699776 0.035900
vt 0.543272 0.158844
vt 0.538465 0.171080
vt 0.539347 0.171288
vt 0.535607 0.182670
vt 0.534736 0.182559
vt 0.537653 0.170432
vt 0.708312 0.059615
vt 0.705395 0.047488
vt 0.709169 0.059239
vt 0.704582 0.048137
vt 0.707441 0.059727
vt 0.703700 0.048345
vt 0.621525 0.059710
vt 0.621526 0.048324
vt 0.985551 0.607222
vt 0.977896 0.581825
vt 0.987370 0.605914
vt 0.976494 0.584211
vt 0.963728 0.565714
vt 0.962959 0.568807
vt 0.947232 0.559767
vt 0.962199 0.571854
vt 0.947023 0.563088
vt 0.773324 0.560000
vt 0.946814 0.566393
vt 0.773394 0.563325
vt 0.771341 0.563936
vt 0.773463 0.566592
vt 0.946608 0.569695
vt 0.771568 0.569487
vt 0.773514 0.569795
vt 0.770339 0.566995
vt 0.771585 0.566772
vt 0.016974 0.405419
vt 0.015747 0.407908
vt 0.015338 0.405743
vt 0.016748 0.410966
vt 0.016992 0.408132
vt 0.018868 0.408312
vt 0.018920 0.405111
vt 0.018800 0.411576
vt 0.015059 0.402238
vt 0.017016 0.402026
vt 0.018924 0.401917
vt 0.191680 0.401913
vt 0.191884 0.405213
vt 0.192091 0.408512
vt 0.206709 0.400029
vt 0.207465 0.403064
vt 0.205953 0.396989
vt 0.220367 0.388367
vt 0.217616 0.383692
vt 0.218993 0.386031
vt 0.227220 0.365142
vt 0.229005 0.366426
vt 0.232207 0.340300
vt 0.225432 0.363858
vt 0.230270 0.339947
vt 0.230269 0.107873
vt 0.232206 0.107520
vt 0.228331 0.108223
vt 0.227219 0.082678
vt 0.229004 0.081395
vt 0.225431 0.083963
vt 0.218992 0.061791
vt 0.220367 0.059456
vt 0.217615 0.064130
vt 0.205952 0.050833
vt 0.228332 0.339597
vt 0.206709 0.047793
vt 0.191884 0.042609
vt 0.191680 0.045909
vt 0.018920 0.042711
vt 0.018924 0.045906
vt 0.017016 0.045796
vt 0.015059 0.045584
vt 0.016974 0.042403
vt 0.771566 0.932772
vt 0.769650 0.929589
vt 0.771608 0.929377
vt 0.771609 0.572882
vt 0.769651 0.572670
vt 0.773519 0.572992
vt 0.773517 0.929267
vt 0.946402 0.572997
vt 0.972357 0.911031
vt 0.980184 0.611079
vt 0.773513 0.932464
vt 0.946401 0.929265
vt 0.946606 0.932568
vt 0.960685 0.924338
vt 0.961442 0.927380
vt 0.973735 0.913372
vt 0.981968 0.892467
vt 0.980179 0.891182
vt 0.985021 0.867254
vt 0.983081 0.866903
vt 0.985020 0.635008
vt 0.983081 0.635358
vt 0.981973 0.609794
vt 0.973737 0.588894
vt 0.972360 0.591235
vt 0.961443 0.574891
vt 0.960685 0.577934
vt 0.975112 0.586556
vt 0.983759 0.608510
vt 0.988900 0.634300
vt 0.986959 0.634655
vt 0.988900 0.867962
vt 0.986959 0.867607
vt 0.983755 0.893752
vt 0.976492 0.918057
vt 0.985547 0.895042
vt 0.975111 0.915710
vt 0.962957 0.933463
vt 0.962198 0.930416
vt 0.947021 0.939175
vt 0.946813 0.935870
vt 0.773393 0.938933
vt 0.773462 0.935667
vt 0.771340 0.938323
vt 0.773323 0.942259
vt 0.947230 0.942496
vt 0.018868 0.039510
vt 0.016748 0.036856
vt 0.018800 0.036246
vt 0.018730 0.032923
vt 0.016991 0.039690
vt 0.015747 0.039914
vt 0.771583 0.935487
vt 0.770337 0.935263
vt 0.769928 0.933096
vt 0.192091 0.039310
vt 0.192299 0.036007
vt 0.207465 0.044759
vt 0.208224 0.041714
vt 0.221747 0.057111
vt 0.232613 0.078802
vt 0.223149 0.054730
vt 0.208993 0.038623
vt 0.236094 0.106810
vt 0.230795 0.080107
vt 0.234145 0.107165
vt 0.236095 0.341010
vt 0.234146 0.340654
vt 0.230796 0.367715
vt 0.232614 0.369020
vt 0.221747 0.390713
vt 0.223150 0.393093
vt 0.208223 0.406109
vt 0.208993 0.409199
vt 0.192507 0.415134
vt 0.192299 0.411815
vt 0.018730 0.414899
vt 0.621521 0.171271
vt 0.621522 0.182657
vt 0.621522 0.194043
vt 0.534276 0.194044
vt 0.533403 0.291331
vt 0.533403 0.194009
vt 0.534276 0.291295
vt 0.621522 0.291297
vt 0.534736 0.302780
vt 0.535608 0.302668
vt 0.621521 0.302683
vt 0.538466 0.314258
vt 0.539348 0.314050
vt 0.621521 0.314069
vt 0.544048 0.325708
vt 0.544926 0.325441
vt 0.621520 0.325455
vt 0.544059 0.327935
vt 0.549199 0.336830
vt 0.192507 0.032688
vt 0.621520 0.336841
vt 0.621514 0.459782
vt 0.549193 0.459771
vt 0.621523 0.202510
vt 0.698987 0.204995
vt 0.693847 0.213891
vt 0.963728 0.936556
vt 0.977896 0.920439
vt 0.621523 0.191124
vt 0.698120 0.202501
vt 0.698998 0.202769
vt 0.703698 0.191110
vt 0.704581 0.191318
vt 0.707439 0.179729
vt 0.708311 0.179840
vt 0.621523 0.179738
vt 0.708771 0.168355
vt 0.709645 0.168390
vt 0.621522 0.168352
vt 0.990850 0.868317
vt 0.987366 0.896348
vt 0.990850 0.633945
vt 0.708772 0.071100
vt 0.621524 0.071095
vt 0.709646 0.071065
vt 0.710521 0.070957
vt 0.710521 0.168498
vt 0.709167 0.180216
vt 0.533880 0.303156
vt 0.532528 0.291438
vt 0.532528 0.193901
vt 0.537654 0.314906
vt 0.705393 0.191967
vt 0.543273 0.326494
vt 0.699773 0.203554
vt 0.533879 0.182183
vt 0.621527 0.025553
vt 0.769930 0.569163
vt 0.015338 0.042079
vt 0.621524 0.213895
s 0
usemtl multitexture
f 143/1/1 5/2/2 1/3/3
f 2/4/4 1/3/5 3/5/6
f 3/5/7 1/3/5 4/6/8
f 1/7/9 6/8/10 23/9/11
f 6/8/12 5/10/13 8/11/14
f 10/12/15 5/2/13 7/13/16
f 8/11/14 5/10/13 9/14/17
f 9/15/17 5/2/13 10/12/15
f 11/16/18 9/15/19 10/12/15
f 12/17/20 10/12/21 7/13/22
f 146/18/23 11/16/24 12/17/25
f 13/19/26 14/20/27 11/16/28
f 17/21/29 14/22/30 15/23/31
f 16/24/32 9/14/33 14/22/34
f 19/25/35 16/24/36 17/21/37
f 18/26/38 8/11/39 16/24/40
f 18/26/41 21/27/42 20/28/43
f 6/8/44 20/28/45 23/9/46
f 103/29/47 20/30/48 21/31/49
f 22/32/50 23/33/51 20/30/52
f 24/34/53 4/35/54 23/33/55
f 22/32/56 25/36/57 24/34/58
f 25/36/59 26/37/60 24/34/58
f 26/37/61 3/38/62 4/35/63
f 27/39/64 28/40/65 26/37/66
f 28/40/67 29/41/68 3/38/7
f 30/42/69 29/41/70 28/40/71
f 100/43/72 30/42/73 27/39/74
f 33/44/75 30/42/76 31/45/77
f 33/44/78 34/46/79 32/47/80
f 32/47/81 34/46/82 29/41/83
f 38/48/84 34/49/85 35/50/86
f 29/51/83 34/49/87 36/52/88
f 37/53/89 38/48/90 40/54/91
f 29/51/92 37/53/93 145/55/94
f 38/48/95 76/56/96 39/57/97
f 40/54/98 39/57/99 41/58/100
f 40/54/101 44/59/102 42/60/103
f 37/53/104 42/60/105 43/61/106
f 43/61/107 45/62/108 46/63/109
f 42/60/110 47/64/111 45/62/112
f 45/62/113 49/65/114 46/63/109
f 45/62/115 50/66/116 48/67/117
f 49/65/118 51/68/119 52/69/120
f 50/66/121 51/68/122 48/67/123
f 51/68/124 55/70/125 52/69/126
f 53/71/127 54/72/128 51/68/129
f 55/70/130 57/73/131 58/74/132
f 54/72/133 59/75/134 57/73/135
f 58/74/136 60/76/137 61/77/138
f 57/73/139 63/78/140 60/76/141
f 61/77/142 62/79/143 129/80/144
f 60/76/145 64/81/146 62/79/147
f 65/82/148 56/83/149 44/59/150
f 66/84/151 64/81/152 65/82/153
f 68/85/154 65/82/155 67/86/156
f 70/87/157 67/86/158 69/88/159
f 71/89/160 70/87/161 69/88/162
f 39/57/163 69/88/164 41/58/165
f 73/90/166 72/91/167 71/89/168
f 76/56/169 71/89/170 39/57/171
f 182/92/172 73/93/173 74/94/174
f 77/95/175 73/93/176 76/96/177
f 76/96/178 33/44/179 77/95/180
f 77/95/181 31/45/182 78/97/183
f 80/98/184 77/95/185 78/97/186
f 79/99/187 31/45/188 100/43/189
f 86/100/190 78/97/191 94/101/190
f 81/102/192 74/94/193 80/98/194
f 81/102/195 82/103/196 83/104/197
f 83/104/198 84/105/199 85/106/200
f 87/107/201 84/105/202 86/100/203
f 89/108/204 86/100/205 88/109/206
f 91/110/207 88/109/208 90/111/209
f 93/112/210 90/111/211 92/113/209
f 93/112/212 94/101/213 95/114/214
f 94/101/215 97/115/216 95/114/214
f 96/116/217 99/117/218 97/115/219
f 98/118/220 100/43/221 99/117/222
f 99/117/223 27/39/224 25/36/225
f 97/115/226 25/36/227 101/119/228
f 95/114/229 101/119/230 102/120/231
f 103/29/232 101/119/233 22/32/234
f 105/121/235 102/120/236 103/29/237
f 104/122/238 95/114/239 102/120/240
f 107/123/241 104/122/242 105/121/243
f 106/124/244 93/112/210 104/122/245
f 107/123/246 108/125/247 106/124/248
f 106/124/249 89/108/250 91/110/251
f 111/126/252 108/125/253 109/127/254
f 110/128/255 89/108/256 108/125/257
f 113/129/258 110/128/259 111/126/260
f 112/130/261 87/107/262 110/128/263
f 115/131/264 112/130/265 113/129/266
f 114/132/267 85/106/268 112/130/269
f 118/133/270 114/132/271 115/131/272
f 116/134/273 83/104/274 114/132/275
f 116/134/276 182/92/277 81/102/278
f 120/135/279 116/134/280 118/133/281
f 118/133/282 119/136/283 120/135/284
f 119/136/285 115/131/286 161/137/287
f 124/138/288 120/139/289 121/140/290
f 119/141/283 121/140/291 120/139/292
f 120/139/293 122/142/294 123/143/295
f 117/144/296 120/135/293 123/145/297
f 182/92/298 123/145/299 75/146/300
f 72/91/301 123/143/302 122/142/303
f 72/91/304 124/138/305 70/87/306
f 121/140/307 125/147/308 124/138/309
f 124/138/310 68/85/311 70/87/312
f 126/148/313 127/149/314 125/147/315
f 125/147/316 66/84/317 68/85/318
f 128/150/319 129/80/320 127/149/321
f 127/149/322 62/79/323 66/84/324
f 130/151/325 61/77/326 129/80/327
f 133/152/328 130/151/329 131/153/330
f 158/154/331 130/151/332 128/150/333
f 135/155/334 132/156/335 133/152/336
f 134/157/337 61/77/338 132/156/339
f 137/158/340 134/157/341 135/155/342
f 136/159/343 58/74/344 134/157/345
f 138/160/346 137/158/347 139/161/348
f 52/69/349 136/159/350 138/160/351
f 140/162/352 139/161/353 141/163/354
f 49/65/355 138/160/356 140/162/357
f 142/164/358 141/163/359 143/165/360
f 46/63/361 140/162/362 142/164/363
f 2/166/364 142/164/365 143/165/360
f 144/167/366 46/63/367 142/164/368
f 3/168/369 144/167/370 2/166/4
f 145/55/371 43/61/372 144/167/373
f 3/168/7 29/51/68 145/55/374
f 141/169/375 7/13/376 143/1/377
f 139/170/378 12/17/379 141/169/380
f 137/171/381 146/18/382 139/170/383
f 147/172/384 13/19/385 146/18/386
f 147/172/387 150/173/388 148/174/389
f 149/175/390 137/171/391 135/176/342
f 149/175/392 152/177/393 150/173/394
f 151/178/395 135/176/396 133/179/397
f 151/178/398 154/180/399 152/177/400
f 153/181/401 133/179/402 131/182/403
f 153/181/404 156/183/405 154/180/406
f 155/184/407 131/182/408 158/185/409
f 156/183/410 155/184/411 157/186/412
f 160/187/413 155/184/414 158/185/415
f 159/188/416 128/150/417 126/148/418
f 119/141/419 126/148/420 121/140/421
f 159/189/422 119/190/423 160/187/424
f 119/190/283 161/191/287 160/187/424
f 162/192/425 157/193/426 160/194/427
f 161/137/428 113/129/429 162/195/430
f 163/196/431 113/129/432 111/126/433
f 163/197/434 164/198/435 162/192/436
f 164/198/437 165/199/438 157/193/439
f 165/199/440 166/200/441 167/201/442
f 167/201/443 168/202/444 169/203/445
f 171/204/446 166/200/447 163/197/448
f 169/203/449 170/205/450 177/206/451
f 172/207/452 168/202/453 171/204/454
f 172/208/455 109/127/456 107/123/457
f 163/196/458 109/127/459 171/209/460
f 172/208/461 105/121/462 173/210/463
f 172/207/464 174/211/465 170/205/466
f 173/210/467 103/29/468 21/31/49
f 19/25/469 173/212/470 21/27/471
f 174/211/472 17/21/473 175/213/474
f 175/213/475 170/205/476 174/211/477
f 175/213/478 15/23/479 176/214/480
f 178/215/481 175/213/482 176/214/480
f 179/216/483 177/206/484 178/215/485
f 150/173/486 179/217/487 178/218/485
f 150/173/488 176/219/489 148/174/490
f 152/177/491 180/220/492 179/217/493
f 180/221/494 169/203/495 179/216/496
f 154/180/497 181/222/498 180/220/499
f 181/223/500 167/201/501 180/221/502
f 165/199/438 181/223/503 157/193/439
f 181/222/503 156/183/410 157/186/439
f 148/174/504 15/224/505 13/19/506
f 1/3/507 2/4/508 143/1/509
f 143/1/510 7/13/511 5/2/512
f 23/9/513 4/225/514 1/7/515
f 1/7/516 5/10/13 6/8/517
f 11/16/518 14/20/519 9/15/520
f 12/17/521 11/16/522 10/12/523
f 146/18/524 13/19/525 11/16/526
f 13/19/527 15/224/528 14/20/529
f 17/21/530 16/24/531 14/22/532
f 16/24/533 8/11/14 9/14/534
f 19/25/535 18/26/536 16/24/537
f 18/26/538 6/8/539 8/11/540
f 18/26/541 19/25/542 21/27/543
f 6/8/544 18/26/536 20/28/545
f 103/29/546 22/32/547 20/30/548
f 22/32/549 24/34/58 23/33/550
f 24/34/551 26/37/552 4/35/553
f 22/32/554 101/119/555 25/36/556
f 25/36/557 27/39/74 26/37/558
f 26/37/559 28/40/560 3/38/561
f 27/39/562 30/42/563 28/40/564
f 30/42/565 32/47/566 29/41/567
f 100/43/568 31/45/569 30/42/570
f 33/44/571 32/47/572 30/42/573
f 33/44/574 35/226/575 34/46/576
f 38/48/577 36/52/578 34/49/579
f 37/53/580 36/52/581 38/48/582
f 29/51/583 36/52/584 37/53/585
f 38/48/586 35/50/587 76/56/588
f 40/54/589 38/48/590 39/57/591
f 40/54/592 41/58/593 44/59/594
f 37/53/595 40/54/596 42/60/597
f 43/61/598 42/60/599 45/62/600
f 42/60/601 44/59/602 47/64/603
f 45/62/604 48/67/605 49/65/606
f 45/62/607 47/64/608 50/66/609
f 49/65/610 48/67/605 51/68/611
f 50/66/612 53/71/613 51/68/614
f 51/68/615 54/72/616 55/70/617
f 53/71/618 56/83/619 54/72/620
f 55/70/621 54/72/616 57/73/622
f 54/72/623 56/83/619 59/75/624
f 58/74/625 57/73/626 60/76/627
f 57/73/628 59/75/629 63/78/630
f 61/77/631 60/76/632 62/79/633
f 60/76/634 63/78/635 64/81/636
f 44/59/637 41/58/593 69/88/638
f 69/88/639 67/86/640 65/82/148
f 65/82/148 64/81/148 63/78/148
f 63/78/148 59/75/619 56/83/641
f 56/83/642 53/71/643 50/66/148
f 50/66/148 47/64/608 44/59/644
f 44/59/645 69/88/646 65/82/148
f 65/82/148 63/78/148 56/83/647
f 56/83/648 50/66/148 44/59/649
f 66/84/650 62/79/147 64/81/651
f 68/85/652 66/84/653 65/82/654
f 70/87/655 68/85/318 67/86/656
f 71/89/657 72/91/658 70/87/659
f 39/57/660 71/89/661 69/88/662
f 73/90/663 75/227/664 72/91/665
f 76/56/666 73/90/667 71/89/668
f 182/92/669 75/146/670 73/93/671
f 77/95/672 74/94/673 73/93/674
f 76/96/675 35/226/676 33/44/677
f 77/95/678 33/44/679 31/45/680
f 80/98/681 74/94/682 77/95/683
f 79/99/684 78/97/685 31/45/686
f 94/101/190 92/113/209 90/111/687
f 90/111/688 88/109/190 86/100/190
f 86/100/190 84/105/190 82/103/689
f 82/103/690 80/98/691 78/97/692
f 78/97/693 79/99/694 98/118/190
f 98/118/190 96/116/190 94/101/190
f 94/101/190 90/111/695 86/100/190
f 86/100/190 82/103/696 78/97/685
f 78/97/697 98/118/190 94/101/190
f 81/102/698 182/92/699 74/94/700
f 81/102/701 80/98/691 82/103/702
f 83/104/703 82/103/704 84/105/705
f 87/107/706 85/106/200 84/105/707
f 89/108/708 87/107/709 86/100/710
f 91/110/711 89/108/712 88/109/713
f 93/112/714 91/110/715 90/111/716
f 93/112/717 92/113/718 94/101/719
f 94/101/720 96/116/721 97/115/722
f 96/116/723 98/118/724 99/117/725
f 98/118/726 79/99/727 100/43/728
f 99/117/729 100/43/730 27/39/731
f 97/115/732 99/117/733 25/36/734
f 95/114/735 97/115/736 101/119/737
f 103/29/738 102/120/739 101/119/740
f 105/121/741 104/122/742 102/120/743
f 104/122/744 93/112/745 95/114/746
f 107/123/747 106/124/748 104/122/749
f 106/124/750 91/110/251 93/112/751
f 107/123/752 109/127/254 108/125/753
f 106/124/754 108/125/755 89/108/756
f 111/126/757 110/128/758 108/125/759
f 110/128/760 87/107/761 89/108/762
f 113/129/763 112/130/764 110/128/765
f 112/130/766 85/106/767 87/107/768
f 115/131/769 114/132/770 112/130/771
f 114/132/772 83/104/773 85/106/774
f 118/133/775 116/134/776 114/132/777
f 116/134/778 81/102/779 83/104/780
f 116/134/781 117/144/782 182/92/783
f 120/135/784 117/144/785 116/134/786
f 119/136/787 118/133/282 115/131/788
f 124/138/789 122/142/790 120/139/791
f 182/92/792 117/144/793 123/145/794
f 72/91/795 75/227/796 123/143/797
f 72/91/798 122/142/799 124/138/800
f 121/140/801 126/148/802 125/147/803
f 124/138/804 125/147/805 68/85/806
f 126/148/807 128/150/808 127/149/809
f 125/147/810 127/149/811 66/84/812
f 128/150/813 130/151/814 129/80/815
f 127/149/816 129/80/817 62/79/818
f 130/151/819 132/156/820 61/77/821
f 133/152/822 132/156/823 130/151/824
f 158/154/825 131/153/330 130/151/826
f 135/155/827 134/157/828 132/156/829
f 134/157/830 58/74/831 61/77/832
f 137/158/833 136/159/834 134/157/835
f 136/159/836 55/70/837 58/74/838
f 138/160/839 136/159/840 137/158/841
f 52/69/842 55/70/843 136/159/844
f 140/162/845 138/160/351 139/161/846
f 49/65/847 52/69/848 138/160/849
f 142/164/850 140/162/851 141/163/852
f 46/63/853 49/65/854 140/162/855
f 2/166/856 144/167/857 142/164/858
f 144/167/859 43/61/860 46/63/861
f 3/168/862 145/55/374 144/167/863
f 145/55/864 37/53/865 43/61/866
f 141/169/867 12/17/25 7/13/868
f 139/170/869 146/18/870 12/17/871
f 137/171/872 147/172/873 146/18/874
f 147/172/875 148/174/876 13/19/877
f 147/172/878 149/175/879 150/173/880
f 149/175/881 147/172/873 137/171/882
f 149/175/883 151/178/884 152/177/885
f 151/178/886 149/175/887 135/176/888
f 151/178/889 153/181/890 154/180/891
f 153/181/892 151/178/893 133/179/894
f 153/181/895 155/184/896 156/183/897
f 155/184/898 153/181/890 131/182/899
f 158/185/900 159/189/901 160/187/902
f 160/187/903 157/186/439 155/184/904
f 159/188/905 158/154/906 128/150/907
f 119/141/908 159/188/909 126/148/910
f 160/194/911 161/228/912 162/192/913
f 162/192/914 164/198/437 157/193/915
f 161/137/916 115/131/917 113/129/918
f 163/196/919 162/195/430 113/129/920
f 163/197/921 166/200/922 164/198/923
f 165/199/924 164/198/925 166/200/926
f 167/201/927 166/200/922 168/202/928
f 171/204/929 168/202/930 166/200/931
f 169/203/932 168/202/933 170/205/934
f 172/207/935 170/205/466 168/202/936
f 172/208/937 171/209/460 109/127/938
f 163/196/939 111/126/260 109/127/940
f 172/208/941 107/123/457 105/121/942
f 172/207/943 173/212/463 174/211/944
f 173/210/945 105/121/946 103/29/947
f 19/25/948 174/211/949 173/212/950
f 174/211/951 19/25/952 17/21/953
f 175/213/954 177/206/955 170/205/956
f 175/213/957 17/21/958 15/23/959
f 178/215/960 177/206/961 175/213/962
f 179/216/963 169/203/964 177/206/965
f 150/173/966 152/177/967 179/217/968
f 150/173/969 178/218/485 176/219/970
f 152/177/971 154/180/972 180/220/973
f 180/221/974 167/201/975 169/203/976
f 154/180/977 156/183/410 181/222/978
f 181/223/979 165/199/980 167/201/981
f 148/174/982 176/219/480 15/224/983
