# Blender 5.0.1
# www.blender.org

mtllib material.mtl
o edge_RB
v 0.137076 -0.100163 -0.137396
v 0.295334 -0.100163 -0.137396
v 0.295334 -0.100163 -0.295654
v 0.137076 -0.100163 -0.295654
v 0.125858 -0.097932 -0.126178
v 0.122702 -0.097304 -0.128039
v 0.127719 -0.097304 -0.123022
v 0.123084 -0.097304 -0.126119
v 0.124171 -0.097304 -0.124492
v 0.125799 -0.097304 -0.123404
v 0.113592 -0.089162 -0.111216
v 0.115499 -0.089162 -0.110836
v 0.105413 -0.076976 -0.103069
v 0.111976 -0.089162 -0.112296
v 0.103816 -0.076976 -0.104136
v 0.110895 -0.089162 -0.113913
v 0.102749 -0.076976 -0.105733
v 0.110516 -0.089162 -0.115820
v 0.102374 -0.076976 -0.107617
v 0.110516 -0.089162 -0.295654
v 0.102374 -0.076976 -0.295654
v 0.110763 -0.088915 -0.297379
v 0.122702 -0.097304 -0.295654
v 0.122836 -0.096981 -0.297379
v 0.123217 -0.096061 -0.298841
v 0.137110 -0.099820 -0.297379
v 0.137206 -0.098843 -0.298841
v 0.295334 -0.099820 -0.297379
v 0.297102 -0.099406 -0.297422
v 0.295334 -0.098843 -0.298841
v 0.295334 -0.097381 -0.299819
v 0.297012 -0.098614 -0.298612
v 0.297102 -0.097424 -0.299404
v 0.297936 -0.098258 -0.298257
v 0.298292 -0.097335 -0.298612
v 0.298292 -0.098614 -0.297333
v 0.298521 -0.098843 -0.295654
v 0.299084 -0.097424 -0.297422
v 0.299498 -0.095656 -0.297379
v 0.299498 -0.097381 -0.295654
v 0.299841 -0.095656 -0.295654
v 0.299498 -0.097381 -0.137670
v 0.298521 -0.098843 -0.137526
v 0.299841 -0.095656 -0.137840
v 0.299498 -0.094683 -0.124108
v 0.298521 -0.096061 -0.123537
v 0.299841 -0.093058 -0.124781
v 0.299498 -0.087156 -0.112843
v 0.298521 -0.088210 -0.111788
v 0.299841 -0.085912 -0.114086
v 0.299498 -0.075891 -0.105315
v 0.298521 -0.076461 -0.103938
v 0.299841 -0.075218 -0.106940
v 0.299498 -0.062328 -0.102618
v 0.298521 -0.062472 -0.101155
v 0.299841 -0.062158 -0.104342
v 0.299498 0.062328 -0.102618
v 0.298521 0.062472 -0.101155
v 0.299841 0.062158 -0.104342
v 0.299498 0.075890 -0.105315
v 0.298521 0.076461 -0.103938
v 0.299498 0.087156 -0.112843
v 0.299841 0.075217 -0.106940
v 0.299841 0.085912 -0.114086
v 0.299841 0.093058 -0.124781
v 0.299498 0.094683 -0.124108
v 0.299841 0.095656 -0.137840
v 0.299498 0.097381 -0.137670
v 0.299841 0.095656 -0.295654
v 0.299498 0.097381 -0.295654
v 0.299498 0.095656 -0.297379
v 0.299084 0.097424 -0.297422
v 0.298521 0.095656 -0.298841
v 0.297059 0.095656 -0.299819
v 0.298292 0.097334 -0.298612
v 0.298521 -0.095656 -0.298841
v 0.297059 -0.095656 -0.299819
v 0.295334 -0.095656 -0.300162
v 0.137520 -0.095656 -0.300162
v 0.295334 0.095656 -0.300162
v 0.295334 0.097381 -0.299819
v 0.137520 0.095656 -0.300162
v 0.137350 0.097381 -0.299819
v 0.124461 0.093058 -0.300162
v 0.123788 0.094683 -0.299819
v 0.113766 0.085912 -0.300162
v 0.112522 0.087156 -0.299819
v 0.106620 0.075217 -0.300162
v 0.104995 0.075890 -0.299819
v 0.104022 0.062158 -0.300162
v 0.102297 0.062328 -0.299819
v 0.104022 -0.062158 -0.300162
v 0.102297 -0.062328 -0.299819
v 0.106620 -0.075218 -0.300162
v 0.104995 -0.075891 -0.299819
v 0.113766 -0.085912 -0.300162
v 0.112522 -0.087156 -0.299819
v 0.124461 -0.093058 -0.300162
v 0.123788 -0.094683 -0.299819
v 0.137350 -0.097381 -0.299819
v 0.111468 -0.088210 -0.298841
v 0.103617 -0.076461 -0.298841
v 0.102697 -0.076842 -0.297379
v 0.100835 -0.062472 -0.298841
v 0.099858 -0.062568 -0.297379
v 0.100835 0.062472 -0.298841
v 0.099858 0.062568 -0.297379
v 0.103617 0.076461 -0.298841
v 0.102697 0.076842 -0.297379
v 0.111468 0.088210 -0.298841
v 0.110764 0.088914 -0.297379
v 0.123217 0.096060 -0.298841
v 0.122836 0.096981 -0.297379
v 0.137206 0.098843 -0.298841
v 0.137110 0.099820 -0.297379
v 0.295334 0.098843 -0.298841
v 0.297012 0.098614 -0.298612
v 0.295334 0.099820 -0.297379
v 0.295334 0.100163 -0.295654
v 0.297102 0.099406 -0.297422
v 0.297059 0.099820 -0.295654
v 0.298292 0.098614 -0.297333
v 0.297936 0.098258 -0.298257
v 0.298521 0.098843 -0.295654
v 0.298521 0.098843 -0.137526
v 0.297059 0.099820 -0.137430
v 0.298521 0.096060 -0.123537
v 0.297059 0.096981 -0.123156
v 0.298521 0.088210 -0.111788
v 0.297059 0.088914 -0.111084
v 0.295334 0.089162 -0.110836
v 0.297059 0.076842 -0.103017
v 0.295334 0.076976 -0.102694
v 0.297059 0.062568 -0.100178
v 0.295334 0.062602 -0.099835
v 0.297059 -0.062568 -0.100178
v 0.295334 -0.062602 -0.099835
v 0.297059 -0.076842 -0.103017
v 0.295334 -0.076976 -0.102694
v 0.297059 -0.088915 -0.111084
v 0.295334 -0.089162 -0.110836
v 0.297059 -0.096981 -0.123156
v 0.295334 -0.097304 -0.123022
v 0.297059 -0.099820 -0.137430
v 0.297059 -0.099820 -0.295654
v 0.107297 -0.076976 -0.102694
v 0.104396 -0.062602 -0.099835
v 0.102528 -0.062602 -0.100207
v 0.104396 0.062602 -0.099835
v 0.102528 0.062602 -0.100207
v 0.107297 0.076976 -0.102694
v 0.105413 0.076976 -0.103069
v 0.115499 0.089162 -0.110836
v 0.113592 0.089162 -0.111216
v 0.127719 0.097304 -0.123022
v 0.125799 0.097304 -0.123404
v 0.125858 0.097932 -0.126178
v 0.295334 0.097304 -0.123022
v 0.295334 0.100163 -0.137396
v 0.137076 0.100163 -0.137396
v 0.137076 0.100163 -0.295654
v 0.122702 0.097304 -0.295654
v 0.110516 0.089162 -0.295654
v 0.122702 0.097304 -0.128039
v 0.123084 0.097304 -0.126119
v 0.110516 0.089162 -0.115820
v 0.110896 0.089162 -0.113913
v 0.102374 0.076976 -0.107617
v 0.102749 0.076976 -0.105733
v 0.099515 0.062602 -0.104716
v 0.102374 0.076976 -0.295654
v 0.099515 0.062602 -0.295654
v 0.099515 -0.062602 -0.295654
v 0.099515 -0.062602 -0.104716
v 0.099886 -0.062602 -0.102848
v 0.100944 -0.062602 -0.101265
v 0.099886 0.062602 -0.102848
v 0.100944 0.062602 -0.101265
v 0.103816 0.076976 -0.104136
v 0.111976 0.089162 -0.112296
v 0.124171 0.097304 -0.124492
v 0.297102 0.097424 -0.299404
vn 0.0948 -0.9266 0.3640
vn -0.1264 -0.9822 0.1392
vn -0.0062 -0.9999 0.0153
vn 0.0039 -0.9995 0.0313
vn -0.0158 -0.9997 0.0158
vn 0.0021 -1.0000 -0.0021
vn -0.0313 -0.9995 -0.0039
vn -0.0165 -0.9996 0.0219
vn -0.3714 -0.9250 0.0807
vn -0.3628 -0.9268 -0.0970
vn -0.3880 -0.9217 0.0007
vn -0.0986 -0.9902 0.0986
vn -0.4071 -0.8977 0.1686
vn -0.1686 -0.8977 0.4071
vn -0.0007 -0.9217 0.3880
vn -0.2947 -0.9090 0.2947
vn -0.4006 -0.7854 0.4719
vn -0.2986 -0.9067 0.2978
vn -0.1687 -0.8977 0.4071
vn -0.2801 -0.7069 0.6494
vn -0.1729 -0.8953 0.4105
vn -0.0007 -0.9216 0.3881
vn -0.2805 -0.3503 0.8936
vn -0.2456 -0.7899 0.5618
vn -0.0015 -0.7039 0.7103
vn -0.5455 -0.4413 0.7125
vn -0.4187 -0.8129 0.4048
vn -0.2322 -0.7950 0.5605
vn -0.8131 -0.4851 0.3217
vn -0.5163 -0.8240 0.2332
vn -0.6093 -0.5076 0.6092
vn -0.5610 -0.7976 0.2217
vn -0.2797 -0.9273 0.2486
vn -0.4074 -0.8174 0.4073
vn -0.9212 -0.3889 -0.0135
vn -0.6237 -0.7811 -0.0298
vn -0.8116 -0.4779 0.3361
vn -0.7070 -0.7072 -0.0111
vn -0.3868 -0.9181 0.0865
vn -0.5604 -0.7950 0.2321
vn -0.7394 -0.6604 0.1311
vn -0.9249 -0.3802 0.0088
vn -0.7111 -0.7031 -0.0019
vn -0.4425 -0.8853 0.1432
vn -0.7109 -0.7033 0.0097
vn -0.3875 -0.9219 -0.0020
vn -0.8429 -0.3620 -0.3980
vn -0.6409 -0.7495 -0.1655
vn -0.9250 -0.3800 -0.0019
vn -0.6401 -0.6573 -0.3977
vn -0.3050 -0.9378 -0.1660
vn -0.7110 -0.7031 -0.0019
vn -0.3395 -0.8523 -0.3979
vn 0.0552 -0.9873 -0.1492
vn -0.3874 -0.9219 -0.0021
vn -0.6669 -0.5439 -0.5092
vn -0.2771 -0.6375 -0.7189
vn -0.3525 -0.8518 -0.3876
vn -0.2536 -0.6473 -0.7188
vn 0.0789 -0.8611 -0.5023
vn -0.0137 -0.9236 -0.3831
vn -0.1930 -0.9623 -0.1914
vn -0.0100 -0.7067 -0.7074
vn -0.1947 -0.8156 -0.5449
vn -0.0152 -0.9236 -0.3831
vn 0.0016 -0.9237 -0.3831
vn 0.3454 -0.8726 -0.3453
vn 0.0022 -1.0000 -0.0022
vn 0.0692 -0.6740 -0.7355
vn 0.4022 -0.8231 -0.4009
vn -0.0026 -0.9256 -0.3786
vn -0.0046 -0.3825 -0.9239
vn -0.1951 -0.5449 -0.8155
vn -0.0114 -0.7067 -0.7075
vn 0.4022 -0.4009 -0.8231
vn 0.0693 -0.7356 -0.6739
vn -0.0021 -0.3783 -0.9257
vn 0.3972 -0.3142 -0.8623
vn 0.6088 -0.5218 -0.5976
vn 0.2501 -0.6845 -0.6848
vn 0.2762 -0.6676 -0.6914
vn 0.5773 -0.5774 -0.5773
vn 0.3454 -0.8726 -0.3454
vn 0.8623 -0.3972 -0.3142
vn 0.5976 -0.6088 -0.5217
vn 0.6683 -0.2728 -0.6920
vn 0.6914 -0.6676 -0.2762
vn 0.6738 -0.7356 -0.0693
vn 0.8231 -0.4009 -0.4022
vn 0.9257 -0.3783 0.0021
vn 0.4009 -0.8231 -0.4022
vn 0.7355 -0.6740 -0.0692
vn 0.3786 -0.9256 0.0026
vn 0.8231 -0.4023 -0.4009
vn 0.6739 -0.0689 -0.7356
vn 0.9257 0.0024 -0.3782
vn 0.9004 -0.4280 -0.0786
vn 0.9004 -0.0781 -0.4280
vn 0.9998 0.0144 0.0141
vn 0.9624 -0.1892 0.1951
vn 1.0000 -0.0017 -0.0014
vn 0.9240 -0.3825 0.0060
vn 0.8167 -0.5431 0.1951
vn 0.9239 -0.3825 0.0046
vn 0.7074 -0.7067 0.0114
vn 0.7672 -0.6353 -0.0881
vn 0.9276 -0.3504 0.1294
vn 0.7119 -0.6491 0.2681
vn 0.9360 -0.3401 -0.0910
vn 0.9999 -0.0041 -0.0159
vn 0.9250 -0.3513 0.1448
vn 0.7706 -0.6177 0.1570
vn 0.9274 -0.2742 0.2544
vn 0.7115 -0.4969 0.4968
vn 0.9363 -0.3480 0.0475
vn 0.9999 -0.0101 -0.0134
vn 0.9247 -0.2691 0.2691
vn 0.9274 -0.2544 0.2742
vn 0.7706 -0.1570 0.6177
vn 0.7115 -0.4968 0.4969
vn 0.9360 -0.3037 0.1781
vn 0.9999 -0.0145 -0.0085
vn 0.9250 -0.1448 0.3514
vn 0.9276 -0.1294 0.3505
vn 0.7660 0.0856 0.6371
vn 0.7119 -0.2681 0.6491
vn 0.9999 0.0159 0.0042
vn 0.9357 0.0895 0.3411
vn 0.8171 0.1950 0.5426
vn 0.9239 0.0057 0.3825
vn 0.7075 0.0141 0.7066
vn 0.9625 0.1951 0.1886
vn 1.0000 -0.0018 0.0013
vn 0.9239 0.0075 0.3825
vn 0.7660 -0.0855 0.6371
vn 0.9276 0.1294 0.3504
vn 0.7119 0.2681 0.6491
vn 0.9358 -0.0894 0.3411
vn 0.9999 -0.0159 0.0042
vn 0.9250 0.1448 0.3513
vn 0.7066 0.4906 0.5100
vn 0.8736 0.0947 0.4773
vn 0.9247 0.2691 0.2692
vn 0.9363 0.0475 0.3480
vn 0.9999 -0.0134 0.0101
vn 0.9247 0.2691 0.2691
vn 1.0000 -0.0000 -0.0000
vn 1.0000 -0.0003 0.0013
vn 1.0000 -0.0014 -0.0009
vn 0.9239 0.3474 0.1601
vn 0.9940 -0.0330 0.1038
vn 1.0000 0.0003 0.0001
vn 0.9230 0.3841 0.0216
vn 0.9940 0.0093 0.1087
vn 1.0000 0.0016 -0.0000
vn 0.9239 0.3827 -0.0007
vn 0.9623 0.1914 -0.1935
vn 1.0000 0.0015 -0.0018
vn 0.9004 0.0782 -0.4280
vn 0.9004 0.4279 -0.0785
vn 0.9998 -0.0144 0.0141
vn 0.9623 -0.1950 -0.1896
vn 1.0000 -0.0003 -0.0019
vn 0.9239 -0.0017 -0.3826
vn 0.6739 0.0689 -0.7356
vn 0.8231 0.4022 -0.4009
vn 0.9257 -0.0024 -0.3782
vn 0.8165 -0.1950 -0.5434
vn 0.9239 -0.0006 -0.3827
vn 0.7071 -0.0015 -0.7071
vn 0.4009 0.4022 -0.8231
vn 0.7356 0.0689 -0.6739
vn 0.3782 -0.0025 -0.9257
vn 0.5464 -0.1951 -0.8145
vn 0.7071 -0.0003 -0.7071
vn 0.3827 -0.0017 -0.9239
vn 0.7356 -0.0689 -0.6739
vn 0.4009 -0.4022 -0.8231
vn 0.3782 0.0025 -0.9257
vn 0.4280 -0.0782 -0.9004
vn 0.0785 -0.4279 -0.9004
vn -0.0141 0.0144 -0.9998
vn 0.0019 -0.0003 -1.0000
vn 0.1913 -0.1950 -0.9619
vn 0.3826 -0.0017 -0.9239
vn 0.0014 -0.0017 -1.0000
vn -0.1951 -0.1913 -0.9619
vn -0.0061 -0.3825 -0.9240
vn -0.0000 -0.0000 -1.0000
vn 0.0022 -0.0008 -1.0000
vn 0.0786 0.4279 -0.9004
vn 0.4280 0.0781 -0.9004
vn -0.0141 -0.0144 -0.9998
vn -0.1951 0.1892 -0.9624
vn 0.0014 0.0017 -1.0000
vn -0.0060 0.3825 -0.9239
vn 0.0910 0.3401 -0.9360
vn 0.0159 0.0041 -0.9999
vn -0.1448 0.3513 -0.9250
vn -0.2595 0.2818 -0.9237
vn 0.0703 0.0833 -0.9940
vn -0.0002 0.0002 -1.0000
vn -0.1780 0.3037 -0.9360
vn 0.0085 0.0145 -0.9999
vn -0.3514 0.1448 -0.9250
vn -0.3841 0.0231 -0.9230
vn -0.0093 0.1087 -0.9940
vn -0.0013 -0.0000 -1.0000
vn -0.3826 -0.0057 -0.9239
vn -0.1914 -0.1938 -0.9622
vn -0.3411 0.0894 -0.9357
vn -0.0041 0.0159 -0.9999
vn -0.3513 -0.1448 -0.9250
vn 0.0085 -0.0145 -0.9999
vn -0.1780 -0.3037 -0.9360
vn -0.3514 -0.1448 -0.9250
vn 0.0134 -0.0101 -0.9999
vn -0.0475 -0.3480 -0.9363
vn -0.2691 -0.2692 -0.9247
vn 0.0159 -0.0042 -0.9999
vn 0.0910 -0.3401 -0.9360
vn -0.1448 -0.3514 -0.9250
vn -0.1294 -0.3504 -0.9276
vn 0.0882 -0.6353 -0.7672
vn -0.2681 -0.6491 -0.7119
vn -0.2544 -0.2742 -0.9274
vn -0.1570 -0.6177 -0.7706
vn -0.4968 -0.4968 -0.7115
vn -0.6177 -0.1570 -0.7706
vn -0.2742 -0.2544 -0.9274
vn -0.4968 -0.4968 -0.7116
vn -0.8242 -0.2470 -0.5096
vn -0.5007 -0.4827 -0.7186
vn -0.6519 -0.6518 -0.3874
vn -0.8628 0.0758 -0.4998
vn -0.6473 -0.2537 -0.7188
vn -0.8518 -0.3525 -0.3876
vn -0.6371 0.0856 -0.7660
vn -0.3505 -0.1294 -0.9276
vn -0.6491 -0.2681 -0.7119
vn -0.9236 -0.0170 -0.3829
vn -0.8153 -0.1961 -0.5448
vn -0.7067 -0.0142 -0.7074
vn -0.5426 -0.1950 -0.8170
vn -0.3825 -0.0057 -0.9239
vn -0.7066 -0.0141 -0.7074
vn -0.9265 0.0318 -0.3749
vn -0.7071 0.3862 -0.5923
vn -0.7067 0.0142 -0.7074
vn -0.7107 0.0283 -0.7030
vn -0.4041 0.2691 -0.8743
vn -0.3826 0.0075 -0.9239
vn -0.5439 0.6670 -0.5092
vn -0.6375 0.2771 -0.7189
vn -0.8518 0.3525 -0.3876
vn -0.3823 0.5109 -0.7700
vn -0.3396 0.1551 -0.9277
vn -0.6491 0.2682 -0.7119
vn -0.6456 0.6634 -0.3784
vn -0.2261 0.7741 -0.5913
vn -0.4969 0.4969 -0.7115
vn -0.1570 0.6177 -0.7706
vn -0.2544 0.2742 -0.9274
vn -0.4968 0.4969 -0.7115
vn 0.0789 0.8611 -0.5022
vn -0.2537 0.6473 -0.7188
vn -0.3525 0.8518 -0.3876
vn 0.0882 0.6353 -0.7672
vn -0.1294 0.3504 -0.9276
vn -0.2681 0.6491 -0.7119
vn -0.1947 0.8144 -0.5467
vn -0.0100 0.7067 -0.7075
vn -0.0151 0.9236 -0.3831
vn -0.1951 0.5431 -0.8167
vn -0.0046 0.3825 -0.9239
vn -0.0114 0.7067 -0.7075
vn 0.0692 0.7356 -0.6739
vn 0.4022 0.4008 -0.8231
vn -0.0021 0.3783 -0.9257
vn 0.4022 0.8231 -0.4009
vn 0.0692 0.6740 -0.7355
vn -0.0026 0.9256 -0.3786
vn 0.0016 0.9237 -0.3830
vn 0.0022 1.0000 -0.0022
vn 0.3453 0.8726 -0.3453
vn -0.1929 0.9619 -0.1935
vn -0.0138 0.9236 -0.3831
vn -0.0313 0.9995 -0.0039
vn 0.7355 0.6740 -0.0692
vn 0.4009 0.8231 -0.4022
vn 0.3786 0.9256 0.0026
vn 0.3830 0.9237 -0.0016
vn 0.3454 0.8726 -0.3454
vn 0.6914 0.6676 -0.2762
vn 0.5773 0.5774 -0.5773
vn 0.2762 0.6676 -0.6914
vn 0.3142 0.3972 -0.8623
vn 0.5218 0.6088 -0.5976
vn 0.6920 0.2728 -0.6683
vn 0.8623 0.3141 -0.3972
vn 0.5976 0.5218 -0.6088
vn 0.6848 0.6844 -0.2502
vn 0.8231 0.4009 -0.4022
vn 0.6739 0.7356 -0.0693
vn 0.9257 0.3783 0.0021
vn 0.3831 0.9237 -0.0001
vn 0.5448 0.8154 -0.1959
vn 0.7070 0.7072 -0.0018
vn 0.7071 0.7071 -0.0004
vn 0.8155 0.5449 -0.1953
vn 0.9238 0.3828 -0.0021
vn 0.3747 0.9267 0.0282
vn 0.5923 0.7071 0.3863
vn 0.7074 0.7067 0.0114
vn 0.7029 0.7109 0.0255
vn 0.8743 0.4041 0.2691
vn 0.9239 0.3825 0.0061
vn 0.3785 0.8504 0.3655
vn 0.5916 0.5057 0.6280
vn 0.7118 0.6491 0.2682
vn 0.7069 0.6484 0.2827
vn 0.8737 0.2708 0.4041
vn 0.9249 0.3514 0.1449
vn 0.3784 0.6456 0.6634
vn 0.5914 0.2261 0.7740
vn 0.7115 0.4969 0.4969
vn 0.1724 0.2983 0.9388
vn 0.3977 0.6402 0.6573
vn 0.0020 0.7031 0.7111
vn -0.0089 0.9171 0.3985
vn 0.2185 0.6299 0.7453
vn 0.3875 0.8518 0.3525
vn 0.1564 -0.0655 0.9855
vn 0.3979 0.3395 0.8523
vn 0.0019 0.3799 0.9250
vn 0.4998 -0.0758 0.8628
vn 0.7188 0.2537 0.6473
vn 0.3876 0.3524 0.8518
vn 0.1940 0.1943 0.9616
vn 0.3832 0.0170 0.9235
vn 0.0018 0.0203 0.9998
vn 0.5471 0.1955 0.8139
vn 0.7075 0.0124 0.7066
vn 0.3831 0.0188 0.9235
vn 0.3979 -0.3395 0.8523
vn 0.1564 0.0655 0.9855
vn 0.0019 -0.3799 0.9250
vn 0.7188 -0.2536 0.6473
vn 0.4998 0.0758 0.8628
vn 0.3876 -0.3525 0.8518
vn 0.3977 -0.6401 0.6573
vn 0.1724 -0.2983 0.9388
vn 0.0020 -0.7031 0.7111
vn 0.5092 -0.6669 0.5439
vn 0.7189 -0.2771 0.6375
vn 0.3876 -0.3525 0.8517
vn 0.3980 -0.8429 0.3620
vn 0.1747 -0.6330 0.7542
vn 0.0021 -0.9219 0.3875
vn 0.5096 -0.8242 0.2471
vn 0.7185 -0.5007 0.4827
vn 0.3874 -0.6519 0.6519
vn 0.1493 -0.9873 -0.0552
vn 0.3979 -0.8523 0.3396
vn 0.0021 -0.9219 0.3874
vn 0.5022 -0.8611 -0.0789
vn 0.7188 -0.6473 0.2537
vn 0.3876 -0.8518 0.3525
vn 0.1935 -0.9619 0.1929
vn 0.3831 -0.9236 0.0138
vn 0.5468 -0.8144 0.1947
vn 0.7075 -0.7067 0.0100
vn 0.3830 -0.9236 0.0151
vn 0.3453 -0.8726 -0.3453
vn 0.3830 -0.9237 -0.0016
vn -0.0097 -0.7033 0.7109
vn -0.1432 -0.8853 0.4425
vn 0.0020 -0.9219 0.3875
vn -0.0089 -0.3802 0.9249
vn -0.1312 -0.6604 0.7394
vn 0.0019 -0.7031 0.7111
vn -0.0073 -0.0205 0.9998
vn -0.1090 -0.3475 0.9313
vn 0.0018 -0.3799 0.9250
vn -0.2010 0.0544 0.9781
vn -0.3521 -0.4673 0.8109
vn -0.0018 -0.3806 0.9247
vn -0.0407 0.1188 0.9921
vn -0.3828 -0.0250 0.9235
vn -0.0020 -0.0204 0.9998
vn -0.0058 0.0196 0.9998
vn -0.0088 -0.0185 0.9998
vn 0.0018 -0.0203 0.9998
vn 0.0114 0.0332 0.9994
vn -0.0803 0.5145 0.8537
vn -0.3825 0.0270 0.9236
vn -0.1089 0.3475 0.9313
vn -0.0073 0.0205 0.9998
vn 0.0018 0.3799 0.9250
vn 0.0135 0.3889 0.9212
vn 0.0298 0.7811 0.6237
vn -0.3361 0.4779 0.8116
vn -0.1311 0.6604 0.7394
vn -0.0088 0.3802 0.9249
vn 0.0019 0.7031 0.7111
vn 0.0111 0.7071 0.7070
vn -0.0865 0.9181 0.3868
vn -0.2321 0.7950 0.5604
vn -0.1432 0.8853 0.4425
vn -0.0097 0.7033 0.7109
vn 0.0020 0.9219 0.3875
vn -0.1686 0.8977 0.4071
vn -0.0007 0.9217 0.3880
vn -0.0986 0.9902 0.0986
vn -0.0219 0.9996 0.0165
vn -0.0807 0.9250 0.3714
vn 0.0970 0.9268 0.3628
vn -0.0057 0.9990 0.0435
vn 0.2190 0.8671 0.4474
vn 0.3830 0.9236 0.0152
vn 0.0021 1.0000 -0.0007
vn 0.1913 0.9618 -0.1960
vn 0.3830 0.9238 -0.0016
vn 0.0039 0.9995 0.0313
vn 0.0021 1.0000 -0.0021
vn -0.0158 0.9997 0.0158
vn -0.3640 0.9266 -0.0948
vn -0.1392 0.9822 0.1264
vn -0.0153 0.9999 0.0062
vn 0.0552 0.9873 -0.1493
vn -0.3396 0.8523 -0.3979
vn -0.3874 0.9219 -0.0021
vn -0.7026 0.7115 0.0094
vn -0.2964 0.9297 -0.2185
vn -0.6519 0.6519 -0.3873
vn -0.7109 0.7033 0.0097
vn -0.4425 0.8853 0.1431
vn -0.3875 0.9219 -0.0020
vn -0.3880 0.9217 0.0007
vn -0.4071 0.8977 0.1686
vn -0.3868 0.9181 0.0865
vn -0.7070 0.7071 -0.0111
vn -0.5605 0.7950 0.2321
vn -0.6237 0.7811 -0.0298
vn -0.9212 0.3889 -0.0135
vn -0.8116 0.4779 0.3361
vn -0.9249 0.3802 0.0089
vn -0.7394 0.6604 0.1312
vn -0.7111 0.7031 -0.0019
vn -0.8537 0.5145 0.0804
vn -0.9994 0.0332 -0.0114
vn -0.9235 0.0270 0.3825
vn -0.9998 0.0205 0.0073
vn -0.9313 0.3475 0.1090
vn -0.9250 0.3799 -0.0018
vn -0.9994 0.0325 0.0084
vn -0.8671 0.4474 -0.2190
vn -0.9235 0.0188 -0.3830
vn -0.6409 0.7495 -0.1655
vn -0.8430 0.3620 -0.3980
vn -0.9250 0.3800 -0.0019
vn -0.9616 -0.1943 -0.1941
vn -0.9235 -0.0170 -0.3832
vn -0.9998 -0.0203 -0.0018
vn -0.9998 -0.0196 0.0058
vn -0.9998 0.0185 0.0088
vn -0.9998 0.0203 -0.0018
vn -0.9855 0.0655 -0.1564
vn -0.8523 -0.3396 -0.3979
vn -0.9250 -0.3799 -0.0019
vn -0.9313 -0.3475 0.1089
vn -0.9998 -0.0205 0.0073
vn -0.9250 -0.3799 -0.0018
vn -0.9994 -0.0332 -0.0114
vn -0.8537 -0.5145 0.0803
vn -0.9236 -0.0270 0.3825
vn -0.9323 0.1270 0.3388
vn -0.9998 -0.0185 0.0018
vn -0.9236 -0.0269 0.3825
vn -0.9287 -0.0392 0.3688
vn -0.7353 -0.5461 0.4014
vn -0.7068 -0.0292 0.7068
vn -0.7325 0.1294 0.6683
vn -0.9237 -0.0250 0.3824
vn -0.7353 0.5461 0.4014
vn -0.9287 0.0391 0.3688
vn -0.7068 0.0292 0.7068
vn -0.3688 0.0392 0.9287
vn -0.4014 0.5461 0.7353
vn -0.4196 0.1270 0.8988
vn -0.7070 -0.0273 0.7067
vn -0.3826 -0.0269 0.9235
vn -0.3217 0.4851 0.8131
vn -0.2332 0.8240 0.5163
vn -0.6092 0.5076 0.6093
vn -0.5163 0.8240 0.2332
vn -0.8131 0.4851 0.3217
vn -0.6093 0.5076 0.6092
vn -0.2217 0.7975 0.5611
vn -0.2486 0.9273 0.2797
vn -0.4073 0.8174 0.4074
vn -0.2797 0.9273 0.2486
vn -0.5610 0.7975 0.2217
vn -0.4074 0.8174 0.4073
vn -0.2947 0.9090 0.2947
vn -0.5750 0.0397 0.8172
vn -0.6233 -0.4976 0.6032
vn -0.3362 -0.4778 0.8116
vn -0.1552 -0.9826 0.1021
vn 0.0039 -0.9995 0.0314
vn -0.0102 -0.9220 0.3871
vn 0.1013 -0.9273 0.3604
vn -0.0368 -0.9973 0.0629
vn -0.3871 -0.9220 0.0102
vn -0.0314 -0.9995 -0.0039
vn -0.1021 -0.9826 0.1552
vn -0.1197 -0.9791 -0.1644
vn -0.3511 -0.9290 -0.1170
vn -0.2217 -0.7975 0.5611
vn -0.4073 -0.8174 0.4074
vn -0.2486 -0.9273 0.2797
vn 0.0111 -0.7071 0.7070
vn -0.2321 -0.7950 0.5605
vn -0.0865 -0.9181 0.3868
vn 0.0135 -0.3889 0.9212
vn -0.3361 -0.4779 0.8116
vn 0.0298 -0.7811 0.6237
vn -0.3217 -0.4851 0.8131
vn -0.6092 -0.5076 0.6092
vn -0.2332 -0.8240 0.5163
vn -0.7126 -0.4413 0.5454
vn -0.5605 -0.7950 0.2322
vn -0.4048 -0.8129 0.4187
vn -0.4719 -0.7854 0.4006
vn -0.2978 -0.9067 0.2986
vn -0.8936 -0.3503 0.2805
vn -0.7103 -0.7039 0.0015
vn -0.5618 -0.7899 0.2456
vn -0.6494 -0.7069 0.2802
vn -0.3881 -0.9216 0.0007
vn -0.4105 -0.8953 0.1729
vn -0.7104 -0.7037 -0.0082
vn -0.9247 -0.3807 0.0018
vn -0.9111 -0.4009 -0.0964
vn -0.3883 -0.9215 -0.0094
vn -0.6901 -0.7172 -0.0974
vn -0.9298 -0.2964 -0.2185
vn -0.6519 -0.6519 -0.3873
vn -0.7195 -0.6945 0.0090
vn -0.7453 -0.6299 -0.2185
vn -0.3985 -0.9171 0.0088
vn -0.4474 -0.8671 -0.2190
vn -0.0152 -0.9236 -0.3830
vn -0.0435 -0.9990 0.0057
vn -0.6456 -0.6634 -0.3784
vn -0.4969 -0.4969 -0.7115
vn -0.2261 -0.7740 -0.5914
vn -0.3862 -0.7071 -0.5923
vn -0.0114 -0.7067 -0.7074
vn -0.0282 -0.9267 -0.3747
vn 0.1960 -0.9618 -0.1913
vn 0.0016 -0.9237 -0.3830
vn 0.0007 -1.0000 -0.0021
vn 0.1958 -0.8154 -0.5448
vn 0.0018 -0.7072 -0.7070
vn 0.0001 -0.9237 -0.3831
vn -0.0557 -0.7653 -0.6413
vn 0.2806 -0.6620 -0.6950
vn 0.2459 -0.9164 -0.3158
vn 0.1953 -0.5449 -0.8154
vn 0.0021 -0.3828 -0.9238
vn 0.0004 -0.7071 -0.7071
vn 0.2459 -0.3157 -0.9164
vn 0.2807 -0.6713 -0.6860
vn -0.0557 -0.6414 -0.7652
vn 0.3142 -0.3971 -0.8623
vn 0.6920 -0.2728 -0.6683
vn 0.5218 -0.6088 -0.5976
vn 0.8623 -0.3142 -0.3972
vn 0.6848 -0.6845 -0.2501
vn 0.5976 -0.5218 -0.6088
vn 0.7652 -0.6414 0.0558
vn 0.6860 -0.6713 -0.2806
vn 0.9164 -0.3158 -0.2458
vn 0.3157 -0.9164 -0.2459
vn 0.6950 -0.6620 -0.2806
vn 0.6413 -0.7653 0.0557
vn 0.9164 -0.2459 -0.3157
vn 0.6693 -0.3030 -0.6784
vn 0.7654 0.0560 -0.6412
vn 0.9513 -0.3060 0.0368
vn 0.8624 -0.3580 -0.3580
vn 0.9514 0.0372 -0.3057
vn 0.9239 -0.3827 -0.0007
vn 1.0000 -0.0015 -0.0018
vn 0.9618 -0.1935 -0.1934
vn 0.7071 -0.7071 -0.0004
vn 0.9238 -0.3828 -0.0021
vn 0.8142 -0.5467 -0.1953
vn 0.7029 -0.7109 0.0255
vn 0.9239 -0.3826 0.0061
vn 0.8743 -0.4040 0.2691
vn 0.9230 -0.3842 0.0216
vn 1.0000 -0.0016 -0.0000
vn 0.9940 -0.0092 0.1087
vn 0.7069 -0.6484 0.2827
vn 0.9249 -0.3514 0.1448
vn 0.8737 -0.2708 0.4040
vn 0.9239 -0.3474 0.1602
vn 1.0000 -0.0003 0.0001
vn 0.9940 0.0330 0.1038
vn 0.8737 -0.4040 0.2708
vn 0.9249 -0.1449 0.3514
vn 0.7069 -0.2827 0.6484
vn 0.9237 -0.2595 0.2818
vn 1.0000 -0.0002 0.0002
vn 0.9940 0.0703 0.0833
vn 0.8743 -0.2691 0.4041
vn 0.9239 -0.0075 0.3826
vn 0.7030 -0.0283 0.7106
vn 0.9940 -0.1087 0.0093
vn 1.0000 -0.0000 0.0013
vn 0.9230 -0.0231 0.3841
vn 0.7074 -0.0123 0.7068
vn 0.9239 -0.0075 0.3827
vn 0.8139 -0.1953 0.5472
vn 0.9239 -0.0057 0.3826
vn 0.9617 -0.1938 0.1941
vn 0.7029 0.0283 0.7107
vn 0.9239 0.0075 0.3826
vn 0.8743 0.2690 0.4041
vn 0.9230 0.0231 0.3841
vn 1.0000 -0.0000 0.0014
vn 0.9940 0.1087 0.0093
vn 0.7700 0.5108 0.3822
vn 0.7119 0.2682 0.6491
vn 0.9277 0.1551 0.3396
vn 0.9239 0.1602 0.3474
vn 1.0000 0.0001 0.0003
vn 0.9940 0.1038 -0.0330
vn 1.0000 -0.0009 0.0014
vn 1.0000 0.0021 -0.0010
vn 1.0000 -0.0003 -0.0023
vn 1.0000 -0.0013 0.0002
vn 1.0000 0.0013 0.0002
vn 1.0000 -0.0001 0.0003
vn 1.0000 -0.0002 -0.0017
vn 1.0000 -0.0017 0.0003
vn 1.0000 0.0008 -0.0022
vn 1.0000 -0.0013 0.0003
vn 1.0000 0.0012 0.0006
vn 1.0000 -0.0007 -0.0015
vn 0.9363 0.3480 0.0474
vn 0.9248 0.2691 0.2691
vn 0.9999 0.0101 -0.0134
vn 0.9360 0.3401 -0.0910
vn 0.9250 0.3514 0.1448
vn 0.9999 0.0041 -0.0159
vn 0.9619 0.1913 0.1951
vn 0.9240 0.3825 0.0061
vn 1.0000 0.0017 -0.0014
vn 0.9514 -0.0372 -0.3057
vn 0.8624 0.3580 -0.3580
vn 0.9513 0.3059 0.0369
vn 0.9239 0.0005 -0.3826
vn 1.0000 0.0015 -0.0019
vn 0.9619 0.1933 -0.1932
vn 0.7653 -0.0560 -0.6412
vn 0.6693 0.3030 -0.6784
vn 0.9164 0.2458 -0.3158
vn 0.7071 0.0003 -0.7071
vn 0.9239 0.0017 -0.3827
vn 0.8145 0.1951 -0.5464
vn 0.3158 0.2459 -0.9164
vn 0.6784 0.3030 -0.6693
vn 0.6412 -0.0560 -0.7653
vn 0.3827 0.0006 -0.9239
vn 0.7071 0.0015 -0.7071
vn 0.5434 0.1950 -0.8165
vn 0.6412 0.0559 -0.7653
vn 0.6784 -0.3031 -0.6693
vn 0.3157 -0.2459 -0.9164
vn 0.3057 0.0372 -0.9514
vn 0.3580 -0.3580 -0.8624
vn -0.0369 -0.3060 -0.9513
vn 0.1914 0.1933 -0.9623
vn 0.0019 0.0015 -1.0000
vn 0.3826 0.0005 -0.9239
vn 0.1935 -0.1914 -0.9623
vn 0.0018 -0.0015 -1.0000
vn 0.0006 -0.3827 -0.9239
vn -0.0002 0.0013 -1.0000
vn -0.0002 -0.0013 -1.0000
vn 0.0017 0.0002 -1.0000
vn -0.0014 0.0009 -1.0000
vn 0.0018 0.0015 -1.0000
vn 0.0010 -0.0021 -1.0000
vn 0.0023 0.0003 -1.0000
vn -0.0000 -0.0017 -1.0000
vn -0.0013 0.0001 -1.0000
vn 0.0006 0.0016 -1.0000
vn 0.0023 0.0001 -1.0000
vn -0.0368 0.3060 -0.9513
vn 0.3580 0.3580 -0.8624
vn 0.3057 -0.0372 -0.9514
vn 0.0007 0.3827 -0.9239
vn 0.1934 0.1935 -0.9618
vn -0.0216 0.3842 -0.9230
vn -0.0000 0.0016 -1.0000
vn -0.1087 0.0093 -0.9940
vn -0.3037 0.1780 -0.9360
vn -0.1448 0.3514 -0.9250
vn -0.0145 -0.0085 -0.9999
vn -0.2818 0.2595 -0.9237
vn -0.0832 -0.0702 -0.9941
vn -0.3411 -0.0895 -0.9358
vn -0.0041 -0.0159 -0.9999
vn -0.1913 0.1951 -0.9619
vn -0.3825 0.0075 -0.9239
vn -0.0013 -0.0018 -1.0000
vn -0.3841 -0.0231 -0.9230
vn -0.0014 -0.0000 -1.0000
vn -0.0093 -0.1087 -0.9940
vn -0.0833 0.0702 -0.9940
vn -0.0002 -0.0002 -1.0000
vn -0.2818 -0.2595 -0.9237
vn -0.1038 0.0330 -0.9940
vn -0.0001 -0.0002 -1.0000
vn -0.1602 -0.3474 -0.9239
vn -0.1087 -0.0093 -0.9940
vn -0.0216 -0.3842 -0.9230
vn -0.2691 -0.4040 -0.8743
vn -0.0061 -0.3826 -0.9239
vn -0.0255 -0.7109 -0.7029
vn -0.4041 -0.2708 -0.8737
vn -0.2827 -0.6484 -0.7069
vn -0.6484 -0.2827 -0.7069
vn -0.3514 -0.1449 -0.9249
vn -0.2708 -0.4041 -0.8737
vn -0.8504 -0.3655 -0.3785
vn -0.6491 -0.2682 -0.7118
vn -0.5057 -0.6280 -0.5915
vn -0.9265 -0.0318 -0.3749
vn -0.7071 -0.3863 -0.5923
vn -0.7106 -0.0283 -0.7030
vn -0.3826 -0.0075 -0.9239
vn -0.4040 -0.2691 -0.8743
vn -0.8154 0.1955 -0.5449
vn -0.9235 0.0188 -0.3831
vn -0.7066 0.0124 -0.7075
vn -0.7067 0.0123 -0.7074
vn -0.5472 0.1953 -0.8139
vn -0.8628 -0.0758 -0.4998
vn -0.6473 0.2536 -0.7188
vn -0.6371 -0.0856 -0.7660
vn -0.6491 0.2681 -0.7119
vn -0.3505 0.1294 -0.9276
vn -0.6634 0.6456 -0.3784
vn -0.4969 0.4968 -0.7115
vn -0.7741 0.2261 -0.5914
vn -0.5100 0.4906 -0.7066
vn -0.2692 0.2692 -0.9247
vn -0.4773 0.0947 -0.8736
vn -0.6670 0.5439 -0.5092
vn -0.2771 0.6375 -0.7189
vn -0.2827 0.6484 -0.7069
vn -0.1449 0.3514 -0.9249
vn -0.4040 0.2708 -0.8737
vn -0.0281 0.9267 -0.3747
vn -0.0114 0.7067 -0.7074
vn -0.3862 0.7071 -0.5923
vn -0.0255 0.7109 -0.7029
vn -0.0061 0.3825 -0.9239
vn -0.2691 0.4040 -0.8743
vn 0.0001 0.9237 -0.3831
vn 0.0018 0.7072 -0.7070
vn 0.1959 0.8166 -0.5430
vn 0.0004 0.7072 -0.7071
vn 0.0021 0.3828 -0.9238
vn 0.1953 0.5467 -0.8142
vn -0.0557 0.6414 -0.7651
vn 0.2807 0.6713 -0.6860
vn 0.2459 0.3158 -0.9164
vn 0.2459 0.9164 -0.3158
vn 0.2806 0.6620 -0.6950
vn -0.0557 0.7653 -0.6413
vn 0.0007 1.0000 -0.0022
vn 0.1960 0.9622 -0.1892
vn 0.6413 0.7653 0.0557
vn 0.6950 0.6620 -0.2806
vn 0.3157 0.9164 -0.2459
vn 0.3972 0.3142 -0.8623
vn 0.2501 0.6845 -0.6848
vn 0.6087 0.5218 -0.5976
vn 0.8623 0.3972 -0.3142
vn 0.6683 0.2729 -0.6920
vn 0.5976 0.6088 -0.5217
vn 0.9164 0.3157 -0.2459
vn 0.6860 0.6713 -0.2807
vn 0.7652 0.6414 0.0557
vn 0.5449 0.8156 0.1947
vn 0.3831 0.9236 0.0152
vn 0.7075 0.7067 0.0100
vn 0.8155 0.5449 0.1951
vn 0.7075 0.7067 0.0114
vn 0.9239 0.3825 0.0046
vn 0.5022 0.8611 -0.0789
vn 0.3876 0.8518 0.3525
vn 0.7188 0.6473 0.2536
vn 0.7672 0.6353 -0.0882
vn 0.7119 0.6491 0.2681
vn 0.9276 0.3504 0.1294
vn 0.5096 0.8242 0.2470
vn 0.3874 0.6519 0.6519
vn 0.7186 0.5007 0.4827
vn 0.7706 0.6177 0.1570
vn 0.7115 0.4969 0.4968
vn 0.9274 0.2742 0.2544
vn 0.5092 0.6669 0.5439
vn 0.3876 0.3525 0.8518
vn 0.7189 0.2771 0.6375
vn -0.0094 0.3910 0.9204
vn 0.2185 0.7453 0.6299
vn 0.1660 0.9378 0.3050
vn 0.3977 0.6573 0.6401
vn -0.0083 0.0325 0.9994
vn 0.3830 0.0188 0.9235
vn 0.2190 0.4474 0.8671
vn 0.3749 0.0318 0.9265
vn 0.7074 0.0142 0.7067
vn 0.5923 0.3863 0.7071
vn 0.0016 -0.0186 0.9998
vn 0.3830 -0.0188 0.9236
vn 0.1886 -0.1963 0.9622
vn 0.3829 -0.0170 0.9236
vn 0.7074 -0.0141 0.7067
vn 0.5425 -0.1961 0.8169
vn 0.2190 -0.4474 0.8671
vn 0.3830 -0.0188 0.9235
vn -0.0084 -0.0325 0.9994
vn 0.5924 -0.3862 0.7071
vn 0.7074 -0.0142 0.7067
vn 0.3749 -0.0318 0.9265
vn 0.2185 -0.7453 0.6299
vn -0.0094 -0.3910 0.9203
vn 0.3784 -0.6456 0.6634
vn 0.7115 -0.4969 0.4969
vn 0.5914 -0.2261 0.7741
vn 0.2185 -0.9298 0.2964
vn 0.3873 -0.6519 0.6519
vn -0.0095 -0.7115 0.7026
vn 0.3786 -0.8503 0.3655
vn 0.7118 -0.6491 0.2682
vn 0.5915 -0.5057 0.6280
vn -0.0057 -0.9990 0.0435
vn 0.3830 -0.9236 0.0152
vn 0.2190 -0.8671 0.4474
vn 0.3747 -0.9267 0.0282
vn 0.7074 -0.7067 0.0115
vn 0.5923 -0.7071 0.3862
vn 0.0022 -1.0000 -0.0007
vn 0.1892 -0.9622 -0.1960
vn 0.3831 -0.9237 -0.0001
vn 0.7070 -0.7072 -0.0018
vn 0.5430 -0.8166 -0.1958
vn 0.0974 -0.7172 0.6901
vn 0.0094 -0.9215 0.3883
vn 0.0964 -0.4009 0.9111
vn -0.0018 -0.3807 0.9247
vn 0.0082 -0.7037 0.7104
vn 0.0856 -0.0423 0.9954
vn -0.0019 -0.0204 0.9998
vn 0.0079 -0.3804 0.9248
vn 0.0114 -0.0332 0.9994
vn -0.3825 -0.0270 0.9235
vn -0.0804 -0.5145 0.8537
vn -0.0018 0.0185 0.9998
vn -0.3825 0.0269 0.9236
vn -0.3388 -0.1270 0.9323
vn 0.0086 0.0185 0.9998
vn -0.0019 0.0204 0.9998
vn 0.0057 -0.0197 0.9998
vn -0.2010 -0.0544 0.9781
vn -0.0019 0.3806 0.9247
vn -0.3521 0.4673 0.8109
vn 0.0079 0.3804 0.9248
vn 0.0856 0.0423 0.9954
vn -0.2805 0.3503 0.8936
vn -0.0015 0.7039 0.7103
vn -0.2456 0.7899 0.5618
vn 0.0082 0.7037 0.7104
vn -0.0018 0.3807 0.9247
vn 0.0964 0.4009 0.9111
vn -0.2802 0.7069 0.6494
vn -0.0007 0.9216 0.3881
vn -0.1729 0.8953 0.4105
vn 0.0094 0.9215 0.3883
vn 0.0974 0.7172 0.6901
vn -0.0102 0.9220 0.3871
vn 0.0039 0.9995 0.0314
vn -0.1552 0.9826 0.1021
vn 0.1644 0.9791 0.1197
vn 0.1170 0.9290 0.3511
vn 0.1492 0.9873 -0.0552
vn 0.0021 0.9219 0.3874
vn 0.3980 0.8523 0.3395
vn 0.1914 0.9623 0.1930
vn 0.3831 0.9236 0.0137
vn -0.1021 0.9826 0.1552
vn -0.0314 0.9995 -0.0039
vn -0.3871 0.9220 0.0102
vn -0.3604 0.9273 -0.1013
vn -0.0629 0.9973 0.0368
vn -0.0435 0.9990 0.0057
vn -0.0152 0.9236 -0.3830
vn -0.4474 0.8671 -0.2190
vn -0.7542 0.6330 -0.1747
vn -0.3874 0.9219 -0.0020
vn -0.3620 0.8430 -0.3980
vn -0.6901 0.7172 -0.0974
vn -0.7103 0.7039 0.0015
vn -0.3883 0.9215 -0.0094
vn -0.4105 0.8953 0.1729
vn -0.3881 0.9216 0.0007
vn -0.6494 0.7069 0.2801
vn -0.5618 0.7899 0.2456
vn -0.8936 0.3503 0.2805
vn -0.9111 0.4009 -0.0964
vn -0.9247 0.3807 0.0018
vn -0.7104 0.7037 -0.0082
vn -0.8109 0.4673 0.3521
vn -0.9247 0.3806 0.0018
vn -0.9781 -0.0544 0.2011
vn -0.9954 0.0423 -0.0856
vn -0.9998 0.0204 0.0019
vn -0.9248 0.3804 -0.0079
vn -0.9855 -0.0655 -0.1564
vn -0.8523 0.3395 -0.3980
vn -0.7195 0.6945 0.0089
vn -0.9298 0.2964 -0.2185
vn -0.9998 0.0186 -0.0016
vn -0.9236 0.0188 -0.3830
vn -0.9622 0.1963 -0.1886
vn -0.9998 -0.0185 -0.0086
vn -0.9998 -0.0204 0.0019
vn -0.9998 0.0197 -0.0057
vn -0.9994 -0.0325 0.0083
vn -0.9235 -0.0188 -0.3830
vn -0.8671 -0.4474 -0.2190
vn -0.9248 -0.3804 -0.0079
vn -0.9954 -0.0423 -0.0856
vn -0.9781 0.0544 0.2010
vn -0.9247 -0.3806 0.0019
vn -0.8109 -0.4673 0.3521
vn -0.9235 0.0251 0.3828
vn -0.9998 0.0204 0.0020
vn -0.9921 -0.1188 0.0407
vn -0.8172 0.0397 0.5750
vn -0.8116 -0.4778 0.3362
vn -0.6031 -0.4976 0.6234
vn -0.7067 0.0273 0.7070
vn -0.9235 0.0269 0.3826
vn -0.8988 -0.1270 0.4196
vn -0.6032 0.4976 0.6233
vn -0.8116 0.4778 0.3362
vn -0.8172 -0.0397 0.5750
vn -0.5750 -0.0397 0.8172
vn -0.3362 0.4778 0.8116
vn -0.6234 0.4976 0.6031
vn -0.3824 0.0251 0.9237
vn -0.6683 -0.1294 0.7325
vn -0.5454 0.4413 0.7126
vn -0.2322 0.7950 0.5605
vn -0.4187 0.8129 0.4048
vn -0.4048 0.8129 0.4187
vn -0.5605 0.7950 0.2322
vn -0.7125 0.4413 0.5455
vn -0.4006 0.7854 0.4719
vn -0.2986 0.9067 0.2978
vn -0.2978 0.9067 0.2986
vn -0.4071 0.8977 0.1687
vn -0.4719 0.7854 0.4006
vn -0.3688 -0.0391 0.9287
vn -0.4014 -0.5461 0.7353
vt 0.621521 0.159885
vt 0.544058 0.157403
vt 0.549197 0.148507
vt 0.621521 0.148500
vt 0.621517 0.025553
vt 0.549193 0.025560
vt 0.693849 0.025564
vt 0.698123 0.036954
vt 0.621526 0.036938
vt 0.698989 0.034460
vt 0.699000 0.036686
vt 0.544047 0.159630
vt 0.544925 0.159897
vt 0.699776 0.035900
vt 0.543272 0.158844
vt 0.538465 0.171080
vt 0.539347 0.171288
vt 0.535607 0.182670
vt 0.534736 0.182559
vt 0.537653 0.170432
vt 0.708312 0.059615
vt 0.705395 0.047488
vt 0.709169 0.059239
vt 0.704582 0.048137
vt 0.707441 0.059727
vt 0.703700 0.048345
vt 0.621525 0.059710
vt 0.621526 0.048324
vt 0.735551 0.607222
vt 0.727896 0.581825
vt 0.737370 0.605914
vt 0.726494 0.584211
vt 0.713728 0.565714
vt 0.712959 0.568807
vt 0.697232 0.559767
vt 0.712199 0.571854
vt 0.697023 0.563088
vt 0.523324 0.560000
vt 0.696814 0.566393
vt 0.523394 0.563325
vt 0.521341 0.563936
vt 0.523463 0.566592
vt 0.696608 0.569695
vt 0.521568 0.569487
vt 0.523514 0.569795
vt 0.520339 0.566995
vt 0.521585 0.566772
vt 0.266974 0.917138
vt 0.265747 0.919627
vt 0.265338 0.917462
vt 0.266748 0.922685
vt 0.266991 0.919850
vt 0.268869 0.920030
vt 0.268920 0.916830
vt 0.268800 0.923294
vt 0.265059 0.913957
vt 0.267016 0.913745
vt 0.268924 0.913635
vt 0.441680 0.913632
vt 0.441884 0.916932
vt 0.442091 0.920231
vt 0.456709 0.911748
vt 0.457465 0.914782
vt 0.455953 0.908708
vt 0.468993 0.897749
vt 0.470367 0.900086
vt 0.467616 0.895410
vt 0.479005 0.878145
vt 0.475432 0.875576
vt 0.477220 0.876861
vt 0.482207 0.852018
vt 0.480270 0.851666
vt 0.480269 0.619591
vt 0.482206 0.619239
vt 0.478331 0.619942
vt 0.477219 0.594397
vt 0.479004 0.593114
vt 0.475431 0.595682
vt 0.470367 0.571175
vt 0.468992 0.573509
vt 0.467615 0.575848
vt 0.455952 0.562552
vt 0.478332 0.851315
vt 0.456709 0.559512
vt 0.441884 0.554327
vt 0.441680 0.557628
vt 0.268920 0.554430
vt 0.268924 0.557624
vt 0.267016 0.557514
vt 0.265059 0.557303
vt 0.266974 0.554122
vt 0.521566 0.932772
vt 0.519650 0.929589
vt 0.521608 0.929377
vt 0.519651 0.572670
vt 0.521609 0.572882
vt 0.523519 0.572992
vt 0.696402 0.572997
vt 0.722357 0.911031
vt 0.730184 0.611079
vt 0.523513 0.932464
vt 0.523517 0.929267
vt 0.696401 0.929265
vt 0.696606 0.932568
vt 0.710685 0.924338
vt 0.711442 0.927380
vt 0.723735 0.913372
vt 0.730179 0.891182
vt 0.731968 0.892467
vt 0.735021 0.867254
vt 0.733081 0.866903
vt 0.735020 0.635008
vt 0.733081 0.635358
vt 0.731973 0.609794
vt 0.723737 0.588894
vt 0.722360 0.591235
vt 0.711443 0.574891
vt 0.710685 0.577934
vt 0.725112 0.586556
vt 0.733759 0.608510
vt 0.738900 0.634300
vt 0.736959 0.634655
vt 0.736959 0.867607
vt 0.738900 0.867962
vt 0.733755 0.893752
vt 0.726492 0.918057
vt 0.735547 0.895042
vt 0.725111 0.915710
vt 0.712198 0.930416
vt 0.697021 0.939175
vt 0.712957 0.933463
vt 0.696813 0.935870
vt 0.523393 0.938933
vt 0.523462 0.935667
vt 0.521340 0.938323
vt 0.523323 0.942259
vt 0.697230 0.942496
vt 0.268868 0.551229
vt 0.266748 0.548575
vt 0.268800 0.547965
vt 0.268730 0.544642
vt 0.266991 0.551409
vt 0.265747 0.551632
vt 0.521583 0.935487
vt 0.520337 0.935263
vt 0.519928 0.933096
vt 0.442091 0.551028
vt 0.442299 0.547725
vt 0.457465 0.556478
vt 0.458224 0.553433
vt 0.471747 0.568830
vt 0.482613 0.590520
vt 0.473149 0.566449
vt 0.458993 0.550342
vt 0.486094 0.618529
vt 0.480795 0.591825
vt 0.484145 0.618884
vt 0.486095 0.852728
vt 0.484146 0.852373
vt 0.480796 0.879433
vt 0.482614 0.880738
vt 0.471747 0.902432
vt 0.473150 0.904812
vt 0.458223 0.917827
vt 0.458993 0.920917
vt 0.442507 0.926853
vt 0.442299 0.923534
vt 0.268730 0.926618
vt 0.621521 0.171271
vt 0.621522 0.182657
vt 0.621522 0.194043
vt 0.534276 0.194044
vt 0.534276 0.291295
vt 0.533403 0.194009
vt 0.621522 0.291297
vt 0.534736 0.302780
vt 0.533403 0.291331
vt 0.535608 0.302668
vt 0.621521 0.302683
vt 0.538466 0.314258
vt 0.539348 0.314050
vt 0.621521 0.314069
vt 0.544048 0.325708
vt 0.544926 0.325441
vt 0.621520 0.325455
vt 0.544059 0.327935
vt 0.549199 0.336830
vt 0.442507 0.544407
vt 0.621520 0.336841
vt 0.621514 0.459782
vt 0.549193 0.459771
vt 0.621523 0.202510
vt 0.698987 0.204995
vt 0.693847 0.213891
vt 0.713728 0.936556
vt 0.727896 0.920439
vt 0.621523 0.191124
vt 0.698120 0.202501
vt 0.698998 0.202769
vt 0.703698 0.191110
vt 0.704581 0.191318
vt 0.707439 0.179729
vt 0.708311 0.179840
vt 0.621523 0.179738
vt 0.708771 0.168355
vt 0.709645 0.168390
vt 0.621522 0.168352
vt 0.740850 0.868317
vt 0.737366 0.896348
vt 0.740850 0.633945
vt 0.621524 0.071095
vt 0.708772 0.071100
vt 0.709646 0.071065
vt 0.710521 0.070957
vt 0.710521 0.168498
vt 0.709167 0.180216
vt 0.533880 0.303156
vt 0.532528 0.291438
vt 0.532528 0.193901
vt 0.537654 0.314906
vt 0.705393 0.191967
vt 0.543273 0.326494
vt 0.699773 0.203554
vt 0.533879 0.182183
vt 0.621527 0.025553
vt 0.519930 0.569163
vt 0.265338 0.553798
vt 0.621524 0.213895
s 0
usemtl multitexture
f 143/1/1 5/2/2 1/3/3
f 2/4/4 1/3/5 3/5/6
f 3/5/6 1/3/5 4/6/7
f 1/7/8 6/8/9 23/9/10
f 6/8/11 5/10/12 8/11/13
f 10/12/14 5/2/12 7/13/15
f 8/11/13 5/10/12 9/14/16
f 9/15/16 5/2/12 10/12/14
f 11/16/17 9/15/18 10/12/19
f 12/17/20 10/12/21 7/13/22
f 146/18/23 11/16/24 12/17/25
f 13/19/26 14/20/27 11/16/28
f 17/21/29 14/22/30 15/23/31
f 16/24/32 9/14/33 14/22/34
f 19/25/35 16/24/36 17/21/37
f 18/26/38 8/11/39 16/24/40
f 18/26/41 21/27/42 20/28/43
f 6/8/44 20/28/45 23/9/46
f 103/29/47 20/30/48 21/31/49
f 22/32/50 23/33/51 20/30/52
f 24/34/53 4/35/54 23/33/55
f 22/32/56 25/36/57 24/34/58
f 25/36/59 26/37/60 24/34/58
f 26/37/61 3/38/62 4/35/7
f 27/39/63 28/40/64 26/37/65
f 28/40/66 29/41/67 3/38/68
f 30/42/69 29/41/70 28/40/71
f 100/43/72 30/42/73 27/39/74
f 33/44/75 30/42/76 31/45/77
f 33/44/78 34/46/79 32/47/80
f 32/47/81 34/46/82 29/41/83
f 38/48/84 34/49/85 35/50/86
f 29/51/83 34/49/82 36/52/87
f 37/53/88 38/48/89 40/54/90
f 29/51/91 37/53/92 145/55/93
f 38/48/94 76/56/95 39/57/96
f 40/54/97 39/57/98 41/58/99
f 40/54/100 44/59/101 42/60/102
f 37/53/103 42/60/104 43/61/105
f 43/61/106 45/62/107 46/63/108
f 42/60/109 47/64/110 45/62/111
f 46/63/112 48/65/113 49/66/114
f 45/62/115 50/67/116 48/65/117
f 48/65/118 52/68/119 49/66/120
f 48/65/121 53/69/122 51/70/123
f 51/70/124 55/71/125 52/68/126
f 53/69/127 54/72/128 51/70/123
f 55/71/129 57/73/130 58/74/131
f 54/72/132 59/75/133 57/73/134
f 58/74/135 60/76/136 61/77/137
f 57/73/138 63/78/139 60/76/140
f 129/79/141 60/76/142 62/80/143
f 60/76/144 64/81/145 62/80/146
f 65/82/147 56/83/148 44/59/149
f 66/84/150 64/81/151 65/82/152
f 68/85/153 65/82/154 67/86/155
f 70/87/156 67/86/157 69/88/158
f 71/89/159 70/87/160 69/88/161
f 71/89/162 41/58/163 39/57/164
f 73/90/165 72/91/166 71/89/167
f 73/90/168 39/57/169 76/56/170
f 182/92/171 73/93/172 74/94/173
f 74/94/174 76/95/175 77/96/176
f 76/95/177 33/44/178 77/96/179
f 77/96/180 31/45/181 78/97/182
f 78/97/183 74/94/184 77/96/185
f 79/98/186 31/45/187 100/43/188
f 86/99/189 78/97/190 94/100/189
f 81/101/191 74/94/192 80/102/193
f 81/101/194 82/103/195 83/104/196
f 83/104/197 84/105/198 85/106/199
f 87/107/200 84/105/201 86/99/202
f 87/107/203 88/108/204 89/109/205
f 91/110/206 88/108/207 90/111/208
f 93/112/209 90/111/210 92/113/208
f 93/112/211 94/100/212 95/114/213
f 94/100/214 97/115/215 95/114/216
f 96/116/217 99/117/218 97/115/219
f 98/118/220 100/43/221 99/117/222
f 99/117/223 27/39/224 25/36/225
f 97/115/226 25/36/227 101/119/228
f 102/120/229 97/115/230 101/119/231
f 103/29/232 101/119/233 22/32/234
f 105/121/235 102/120/236 103/29/237
f 104/122/238 95/114/239 102/120/240
f 105/121/241 106/123/242 104/122/243
f 106/123/244 93/112/245 104/122/246
f 107/124/247 108/125/248 106/123/249
f 106/123/250 89/109/251 91/110/252
f 111/126/253 108/125/254 109/127/255
f 110/128/256 89/109/257 108/125/258
f 111/126/259 112/129/260 110/128/261
f 112/129/262 87/107/263 110/128/264
f 115/130/265 112/129/266 113/131/267
f 114/132/268 85/106/269 112/129/270
f 118/133/271 114/132/272 115/130/273
f 116/134/274 83/104/275 114/132/276
f 116/134/277 182/92/278 81/101/279
f 120/135/280 116/134/281 118/133/282
f 118/133/283 119/136/284 120/135/285
f 119/136/286 115/130/287 161/137/288
f 124/138/289 120/139/290 121/140/291
f 119/141/284 121/140/292 120/139/285
f 120/139/293 122/142/294 123/143/295
f 117/144/296 120/135/293 123/145/295
f 182/92/297 123/145/298 75/146/299
f 72/91/300 123/143/301 122/142/302
f 72/91/303 124/138/304 70/87/305
f 121/140/306 125/147/307 124/138/308
f 124/138/309 68/85/310 70/87/311
f 126/148/312 127/149/313 125/147/314
f 125/147/315 66/84/316 68/85/317
f 128/150/318 129/79/319 127/149/320
f 127/149/321 62/80/322 66/84/323
f 130/151/324 61/77/325 129/79/326
f 133/152/327 130/151/328 131/153/329
f 158/154/330 130/151/331 128/150/332
f 135/155/333 132/156/334 133/152/335
f 134/157/336 61/77/337 132/156/338
f 137/158/339 134/157/340 135/155/341
f 136/159/342 58/74/343 134/157/344
f 138/160/345 137/158/346 139/161/347
f 52/68/348 136/159/349 138/160/350
f 140/162/351 139/161/352 141/163/353
f 140/162/354 52/68/355 138/160/356
f 142/164/357 141/163/358 143/165/359
f 142/164/360 49/66/361 140/162/362
f 2/166/363 142/164/364 143/165/365
f 144/167/366 46/63/367 142/164/368
f 3/168/369 144/167/370 2/166/4
f 145/55/371 43/61/372 144/167/373
f 3/168/68 29/51/374 145/55/375
f 141/169/376 7/13/377 143/1/378
f 139/170/379 12/17/380 141/169/381
f 137/171/382 146/18/383 139/170/384
f 147/172/385 13/19/386 146/18/387
f 149/173/388 148/174/389 147/172/390
f 135/175/391 147/172/392 137/171/393
f 149/173/394 152/176/395 150/177/396
f 151/178/397 135/175/398 133/179/399
f 151/178/400 154/180/401 152/176/402
f 153/181/403 133/179/404 131/182/405
f 153/181/406 156/183/407 154/180/408
f 155/184/409 131/182/410 158/185/411
f 156/183/412 155/184/413 157/186/414
f 160/187/415 155/184/416 158/185/417
f 159/188/418 128/150/419 126/148/420
f 119/141/421 126/148/422 121/140/423
f 159/189/424 119/190/425 160/187/426
f 119/190/425 161/191/288 160/187/426
f 162/192/427 157/193/428 160/194/429
f 161/137/430 113/131/431 162/195/432
f 163/196/433 113/131/434 111/126/435
f 163/197/436 164/198/437 162/192/438
f 164/198/439 165/199/440 157/193/414
f 165/199/441 166/200/442 167/201/443
f 167/201/444 168/202/445 169/203/446
f 171/204/447 166/200/448 163/197/449
f 169/203/450 170/205/451 177/206/452
f 172/207/453 168/202/454 171/204/455
f 172/208/456 109/127/457 107/124/458
f 163/196/459 109/127/460 171/209/461
f 172/208/462 105/121/463 173/210/464
f 173/211/465 170/205/466 172/207/467
f 173/210/468 103/29/469 21/31/470
f 19/25/471 173/211/472 21/27/473
f 174/212/474 17/21/475 175/213/476
f 177/206/477 174/212/478 175/213/479
f 175/213/480 15/23/481 176/214/482
f 178/215/483 175/213/484 176/214/482
f 179/216/485 177/206/486 178/215/487
f 150/177/488 179/217/489 178/218/487
f 150/177/490 176/219/491 148/174/492
f 152/176/493 180/220/494 179/217/495
f 180/221/496 169/203/497 179/216/498
f 154/180/499 181/222/500 180/220/501
f 181/223/502 167/201/503 180/221/504
f 165/199/440 181/223/505 157/193/414
f 181/222/505 156/183/412 157/186/414
f 148/174/506 15/224/507 13/19/508
f 1/3/509 2/4/510 143/1/511
f 143/1/512 7/13/15 5/2/513
f 23/9/514 4/225/515 1/7/516
f 1/7/517 5/10/12 6/8/518
f 11/16/519 14/20/520 9/15/521
f 12/17/522 11/16/523 10/12/524
f 146/18/525 13/19/526 11/16/527
f 13/19/528 15/224/529 14/20/530
f 17/21/531 16/24/532 14/22/533
f 16/24/534 8/11/13 9/14/535
f 19/25/536 18/26/537 16/24/538
f 18/26/539 6/8/540 8/11/541
f 18/26/542 19/25/543 21/27/544
f 6/8/545 18/26/537 20/28/546
f 103/29/547 22/32/548 20/30/549
f 22/32/550 24/34/58 23/33/551
f 24/34/552 26/37/553 4/35/554
f 22/32/555 101/119/556 25/36/557
f 25/36/558 27/39/559 26/37/560
f 26/37/561 28/40/562 3/38/563
f 27/39/564 30/42/565 28/40/566
f 30/42/567 32/47/568 29/41/569
f 100/43/570 31/45/571 30/42/572
f 33/44/573 32/47/574 30/42/575
f 33/44/576 35/226/577 34/46/578
f 38/48/579 36/52/580 34/49/581
f 37/53/582 36/52/583 38/48/584
f 29/51/585 36/52/586 37/53/587
f 38/48/588 35/50/589 76/56/590
f 40/54/591 38/48/592 39/57/593
f 40/54/594 41/58/595 44/59/596
f 37/53/597 40/54/598 42/60/599
f 43/61/600 42/60/601 45/62/602
f 42/60/603 44/59/604 47/64/605
f 46/63/606 45/62/607 48/65/608
f 45/62/609 47/64/610 50/67/611
f 48/65/612 51/70/613 52/68/614
f 48/65/615 50/67/616 53/69/617
f 51/70/618 54/72/619 55/71/620
f 53/69/621 56/83/622 54/72/623
f 55/71/624 54/72/625 57/73/626
f 54/72/627 56/83/622 59/75/628
f 58/74/629 57/73/630 60/76/631
f 57/73/632 59/75/633 63/78/634
f 129/79/635 61/77/636 60/76/637
f 60/76/638 63/78/639 64/81/640
f 44/59/641 41/58/595 69/88/642
f 69/88/643 67/86/155 65/82/147
f 65/82/147 64/81/147 63/78/147
f 63/78/147 59/75/622 56/83/644
f 56/83/645 53/69/646 50/67/147
f 50/67/147 47/64/610 44/59/647
f 44/59/648 69/88/649 65/82/147
f 65/82/147 63/78/147 56/83/650
f 56/83/651 50/67/147 44/59/652
f 66/84/653 62/80/654 64/81/655
f 68/85/656 66/84/657 65/82/658
f 70/87/659 68/85/660 67/86/661
f 71/89/662 72/91/663 70/87/664
f 71/89/665 69/88/666 41/58/667
f 73/90/668 75/227/669 72/91/670
f 73/90/671 71/89/672 39/57/673
f 182/92/674 75/146/675 73/93/676
f 74/94/677 73/93/678 76/95/679
f 76/95/680 35/226/681 33/44/682
f 77/96/683 33/44/684 31/45/685
f 78/97/686 80/102/687 74/94/688
f 79/98/689 78/97/690 31/45/691
f 94/100/189 92/113/208 90/111/692
f 90/111/693 88/108/189 86/99/189
f 86/99/189 84/105/189 82/103/694
f 82/103/695 80/102/696 78/97/697
f 78/97/698 79/98/699 98/118/189
f 98/118/189 96/116/189 94/100/189
f 94/100/189 90/111/700 86/99/189
f 86/99/189 82/103/701 78/97/690
f 78/97/702 98/118/189 94/100/189
f 81/101/703 182/92/704 74/94/705
f 81/101/706 80/102/696 82/103/707
f 83/104/708 82/103/709 84/105/710
f 87/107/711 85/106/712 84/105/713
f 87/107/714 86/99/202 88/108/715
f 91/110/716 89/109/205 88/108/717
f 93/112/718 91/110/719 90/111/720
f 93/112/721 92/113/722 94/100/723
f 94/100/724 96/116/725 97/115/726
f 96/116/727 98/118/728 99/117/729
f 98/118/730 79/98/699 100/43/731
f 99/117/732 100/43/733 27/39/734
f 97/115/735 99/117/222 25/36/736
f 102/120/737 95/114/738 97/115/739
f 103/29/740 102/120/741 101/119/742
f 105/121/743 104/122/243 102/120/744
f 104/122/745 93/112/746 95/114/747
f 105/121/748 107/124/749 106/123/750
f 106/123/751 91/110/252 93/112/752
f 107/124/753 109/127/255 108/125/754
f 106/123/755 108/125/756 89/109/757
f 111/126/758 110/128/759 108/125/760
f 110/128/761 87/107/762 89/109/763
f 111/126/764 113/131/267 112/129/765
f 112/129/766 85/106/767 87/107/768
f 115/130/769 114/132/770 112/129/771
f 114/132/772 83/104/773 85/106/774
f 118/133/775 116/134/776 114/132/777
f 116/134/778 81/101/779 83/104/780
f 116/134/781 117/144/782 182/92/783
f 120/135/784 117/144/785 116/134/786
f 119/136/787 118/133/283 115/130/788
f 124/138/789 122/142/790 120/139/791
f 182/92/792 117/144/793 123/145/794
f 72/91/795 75/227/796 123/143/797
f 72/91/798 122/142/799 124/138/800
f 121/140/801 126/148/802 125/147/803
f 124/138/804 125/147/805 68/85/806
f 126/148/807 128/150/808 127/149/809
f 125/147/810 127/149/811 66/84/812
f 128/150/813 130/151/814 129/79/815
f 127/149/816 129/79/817 62/80/818
f 130/151/819 132/156/820 61/77/821
f 133/152/822 132/156/820 130/151/823
f 158/154/824 131/153/329 130/151/825
f 135/155/826 134/157/827 132/156/828
f 134/157/829 58/74/830 61/77/831
f 137/158/832 136/159/833 134/157/834
f 136/159/835 55/71/836 58/74/837
f 138/160/838 136/159/839 137/158/840
f 52/68/841 55/71/842 136/159/843
f 140/162/844 138/160/350 139/161/845
f 140/162/846 49/66/847 52/68/848
f 142/164/849 140/162/850 141/163/851
f 142/164/852 46/63/853 49/66/854
f 2/166/855 144/167/856 142/164/857
f 144/167/858 43/61/859 46/63/860
f 3/168/861 145/55/375 144/167/862
f 145/55/863 37/53/864 43/61/865
f 141/169/866 12/17/25 7/13/867
f 139/170/868 146/18/869 12/17/870
f 137/171/871 147/172/872 146/18/873
f 147/172/874 148/174/875 13/19/876
f 149/173/877 150/177/878 148/174/879
f 135/175/880 149/173/881 147/172/882
f 149/173/883 151/178/884 152/176/885
f 151/178/886 149/173/881 135/175/887
f 151/178/888 153/181/889 154/180/890
f 153/181/891 151/178/892 133/179/893
f 153/181/894 155/184/895 156/183/896
f 155/184/897 153/181/889 131/182/898
f 158/185/899 159/189/900 160/187/901
f 160/187/902 157/186/414 155/184/903
f 159/188/904 158/154/905 128/150/906
f 119/141/907 159/188/424 126/148/908
f 160/194/909 161/228/910 162/192/911
f 162/192/912 164/198/439 157/193/913
f 161/137/914 115/130/915 113/131/916
f 163/196/917 162/195/918 113/131/919
f 163/197/920 166/200/921 164/198/922
f 165/199/923 164/198/924 166/200/925
f 167/201/926 166/200/921 168/202/927
f 171/204/928 168/202/929 166/200/930
f 169/203/931 168/202/932 170/205/933
f 172/207/934 170/205/935 168/202/936
f 172/208/937 171/209/461 109/127/938
f 163/196/939 111/126/435 109/127/940
f 172/208/941 107/124/942 105/121/943
f 173/211/944 174/212/945 170/205/946
f 173/210/947 105/121/948 103/29/949
f 19/25/950 174/212/945 173/211/951
f 174/212/952 19/25/953 17/21/954
f 177/206/955 170/205/956 174/212/957
f 175/213/958 17/21/959 15/23/960
f 178/215/961 177/206/962 175/213/963
f 179/216/964 169/203/965 177/206/966
f 150/177/967 152/176/968 179/217/969
f 150/177/970 178/218/487 176/219/971
f 152/176/972 154/180/973 180/220/974
f 180/221/975 167/201/976 169/203/977
f 154/180/978 156/183/412 181/222/979
f 181/223/980 165/199/981 167/201/982
f 148/174/983 176/219/482 15/224/984
