# Blender 5.0.1
# www.blender.org

mtllib RF.mtl
o edge_RF
v 0.137076 0.100163 0.137396
v 0.295334 0.100164 0.137396
v 0.295334 0.100164 0.295654
v 0.137076 0.100164 0.295654
v 0.125858 0.097932 0.126178
v 0.122702 0.097304 0.128039
v 0.127719 0.097304 0.123022
v 0.123084 0.097304 0.126119
v 0.124171 0.097304 0.124492
v 0.125799 0.097304 0.123404
v 0.113592 0.089162 0.111216
v 0.115499 0.089162 0.110836
v 0.105413 0.076976 0.103069
v 0.111976 0.089162 0.112296
v 0.103816 0.076976 0.104136
v 0.110895 0.089162 0.113913
v 0.102749 0.076976 0.105733
v 0.110516 0.089162 0.115820
v 0.102374 0.076976 0.107617
v 0.110516 0.089162 0.295654
v 0.102374 0.076976 0.295654
v 0.110763 0.088915 0.297379
v 0.122702 0.097304 0.295654
v 0.122836 0.096981 0.297379
v 0.123217 0.096061 0.298841
v 0.137110 0.099820 0.297379
v 0.137206 0.098843 0.298841
v 0.295334 0.099821 0.297379
v 0.297102 0.099406 0.297422
v 0.295334 0.098843 0.298841
v 0.295334 0.097381 0.299818
v 0.297012 0.098614 0.298612
v 0.297102 0.097424 0.299404
v 0.297936 0.098259 0.298256
v 0.298292 0.097335 0.298612
v 0.298292 0.098614 0.297333
v 0.298521 0.098843 0.295654
v 0.299084 0.097424 0.297422
v 0.299498 0.095656 0.297379
v 0.299498 0.097381 0.295654
v 0.299841 0.095656 0.295654
v 0.299498 0.097381 0.137670
v 0.298521 0.098843 0.137526
v 0.299841 0.095656 0.137840
v 0.299498 0.094683 0.124108
v 0.298521 0.096061 0.123537
v 0.299841 0.093059 0.124781
v 0.299498 0.087156 0.112842
v 0.298521 0.088210 0.111788
v 0.299841 0.085913 0.114086
v 0.299498 0.075891 0.105315
v 0.298521 0.076461 0.103938
v 0.299841 0.075218 0.106940
v 0.299498 0.062328 0.102617
v 0.298521 0.062472 0.101155
v 0.299841 0.062158 0.104342
v 0.299498 -0.062328 0.102617
v 0.298521 -0.062472 0.101155
v 0.299841 -0.062158 0.104342
v 0.299498 -0.075890 0.105315
v 0.298521 -0.076461 0.103938
v 0.299498 -0.087156 0.112842
v 0.299841 -0.075217 0.106940
v 0.299841 -0.085912 0.114086
v 0.299841 -0.093058 0.124781
v 0.299498 -0.094683 0.124108
v 0.299841 -0.095656 0.137840
v 0.299498 -0.097381 0.137670
v 0.299841 -0.095656 0.295654
v 0.299498 -0.097380 0.295654
v 0.299498 -0.095656 0.297379
v 0.299084 -0.097424 0.297422
v 0.298521 -0.095656 0.298841
v 0.297059 -0.095656 0.299818
v 0.298292 -0.097334 0.298612
v 0.298521 0.095656 0.298841
v 0.297059 0.095656 0.299818
v 0.295334 0.095656 0.300161
v 0.137520 0.095656 0.300162
v 0.295334 -0.095656 0.300161
v 0.295334 -0.097380 0.299818
v 0.137520 -0.095656 0.300162
v 0.137350 -0.097381 0.299818
v 0.124461 -0.093058 0.300162
v 0.123788 -0.094683 0.299818
v 0.113766 -0.085912 0.300162
v 0.112522 -0.087156 0.299818
v 0.106620 -0.075217 0.300162
v 0.104995 -0.075890 0.299818
v 0.104022 -0.062158 0.300162
v 0.102297 -0.062328 0.299818
v 0.104022 0.062158 0.300162
v 0.102297 0.062328 0.299818
v 0.106620 0.075218 0.300162
v 0.104995 0.075891 0.299818
v 0.113766 0.085912 0.300162
v 0.112522 0.087156 0.299818
v 0.124460 0.093059 0.300162
v 0.123787 0.094683 0.299818
v 0.137350 0.097381 0.299818
v 0.111468 0.088210 0.298841
v 0.103617 0.076461 0.298841
v 0.102697 0.076842 0.297379
v 0.100835 0.062472 0.298841
v 0.099858 0.062568 0.297379
v 0.100835 -0.062472 0.298841
v 0.099858 -0.062568 0.297379
v 0.103617 -0.076461 0.298841
v 0.102697 -0.076842 0.297379
v 0.111468 -0.088210 0.298841
v 0.110764 -0.088914 0.297379
v 0.123217 -0.096060 0.298841
v 0.122836 -0.096981 0.297379
v 0.137206 -0.098843 0.298841
v 0.137110 -0.099820 0.297379
v 0.295334 -0.098843 0.298841
v 0.297012 -0.098614 0.298612
v 0.295334 -0.099820 0.297379
v 0.295334 -0.100163 0.295654
v 0.297102 -0.099406 0.297422
v 0.297059 -0.099820 0.295654
v 0.298292 -0.098614 0.297333
v 0.297936 -0.098258 0.298256
v 0.298521 -0.098843 0.295654
v 0.298521 -0.098843 0.137526
v 0.297059 -0.099820 0.137430
v 0.298521 -0.096060 0.123537
v 0.297059 -0.096981 0.123156
v 0.298521 -0.088210 0.111788
v 0.297059 -0.088914 0.111084
v 0.295334 -0.089162 0.110836
v 0.297059 -0.076842 0.103017
v 0.295334 -0.076976 0.102694
v 0.297059 -0.062568 0.100178
v 0.295334 -0.062602 0.099835
v 0.297059 0.062569 0.100178
v 0.295334 0.062602 0.099835
v 0.297059 0.076843 0.103017
v 0.295334 0.076976 0.102694
v 0.297059 0.088915 0.111084
v 0.295334 0.089162 0.110836
v 0.297059 0.096981 0.123156
v 0.295334 0.097304 0.123022
v 0.297059 0.099821 0.137430
v 0.297059 0.099821 0.295654
v 0.107297 0.076976 0.102694
v 0.104396 0.062602 0.099835
v 0.102528 0.062602 0.100206
v 0.104396 -0.062602 0.099835
v 0.102528 -0.062602 0.100206
v 0.107297 -0.076976 0.102694
v 0.105413 -0.076976 0.103069
v 0.115499 -0.089162 0.110836
v 0.113592 -0.089162 0.111216
v 0.127719 -0.097304 0.123022
v 0.125799 -0.097304 0.123404
v 0.125858 -0.097932 0.126178
v 0.295334 -0.097304 0.123022
v 0.295334 -0.100163 0.137396
v 0.137076 -0.100163 0.137396
v 0.137076 -0.100163 0.295654
v 0.122702 -0.097304 0.295654
v 0.110516 -0.089162 0.295654
v 0.122702 -0.097304 0.128039
v 0.123084 -0.097304 0.126119
v 0.110516 -0.089162 0.115820
v 0.110895 -0.089162 0.113913
v 0.102374 -0.076976 0.107617
v 0.102749 -0.076976 0.105733
v 0.099515 -0.062602 0.104716
v 0.102374 -0.076976 0.295654
v 0.099515 -0.062602 0.295654
v 0.099515 0.062602 0.295654
v 0.099515 0.062602 0.104716
v 0.099886 0.062602 0.102848
v 0.100944 0.062602 0.101265
v 0.099886 -0.062602 0.102848
v 0.100944 -0.062602 0.101265
v 0.103816 -0.076976 0.104136
v 0.111976 -0.089162 0.112296
v 0.124171 -0.097304 0.124492
v 0.297102 -0.097424 0.299404
vn 0.0948 0.9266 -0.3640
vn -0.1264 0.9822 -0.1392
vn -0.0062 0.9999 -0.0153
vn 0.0039 0.9995 -0.0313
vn -0.0158 0.9997 -0.0158
vn 0.0022 1.0000 0.0022
vn -0.0313 0.9995 0.0039
vn -0.0165 0.9996 -0.0219
vn -0.3714 0.9250 -0.0807
vn -0.3628 0.9268 0.0970
vn -0.3880 0.9217 -0.0007
vn -0.0987 0.9902 -0.0986
vn -0.4071 0.8977 -0.1686
vn -0.1686 0.8977 -0.4071
vn -0.0986 0.9902 -0.0986
vn -0.0007 0.9217 -0.3880
vn -0.2947 0.9090 -0.2947
vn -0.4006 0.7854 -0.4719
vn -0.2986 0.9067 -0.2978
vn -0.2802 0.7069 -0.6494
vn -0.1729 0.8953 -0.4105
vn -0.0007 0.9216 -0.3881
vn -0.2805 0.3503 -0.8936
vn -0.2456 0.7899 -0.5618
vn -0.0015 0.7039 -0.7103
vn -0.5455 0.4413 -0.7125
vn -0.4187 0.8129 -0.4048
vn -0.2322 0.7949 -0.5605
vn -0.8131 0.4851 -0.3217
vn -0.5163 0.8240 -0.2332
vn -0.6093 0.5076 -0.6092
vn -0.5611 0.7976 -0.2217
vn -0.2797 0.9273 -0.2486
vn -0.4074 0.8174 -0.4073
vn -0.9212 0.3889 0.0135
vn -0.6237 0.7811 0.0298
vn -0.8116 0.4779 -0.3361
vn -0.7070 0.7071 0.0111
vn -0.3868 0.9181 -0.0865
vn -0.5604 0.7950 -0.2321
vn -0.7394 0.6604 -0.1311
vn -0.9249 0.3802 -0.0088
vn -0.7111 0.7031 0.0019
vn -0.4425 0.8853 -0.1432
vn -0.7109 0.7033 -0.0097
vn -0.3875 0.9219 0.0020
vn -0.8429 0.3620 0.3980
vn -0.6409 0.7495 0.1655
vn -0.9250 0.3800 0.0019
vn -0.6401 0.6573 0.3977
vn -0.3050 0.9378 0.1660
vn -0.7110 0.7031 0.0020
vn -0.3395 0.8523 0.3979
vn 0.0552 0.9873 0.1492
vn -0.3874 0.9219 0.0020
vn -0.6669 0.5439 0.5092
vn -0.2771 0.6375 0.7189
vn -0.3525 0.8518 0.3876
vn -0.2536 0.6473 0.7188
vn 0.0789 0.8611 0.5022
vn -0.0137 0.9236 0.3831
vn -0.1930 0.9623 0.1914
vn -0.0100 0.7067 0.7075
vn -0.1947 0.8155 0.5450
vn -0.0152 0.9236 0.3831
vn 0.0016 0.9237 0.3831
vn 0.3453 0.8726 0.3453
vn 0.0692 0.6740 0.7355
vn 0.4022 0.8231 0.4009
vn -0.0026 0.9255 0.3786
vn -0.0046 0.3825 0.9239
vn -0.1951 0.5449 0.8155
vn -0.0114 0.7067 0.7074
vn 0.4022 0.4009 0.8231
vn 0.0692 0.7356 0.6739
vn -0.0021 0.3783 0.9257
vn 0.3972 0.3142 0.8623
vn 0.6088 0.5218 0.5976
vn 0.2501 0.6845 0.6848
vn 0.2762 0.6676 0.6914
vn 0.5773 0.5774 0.5773
vn 0.3454 0.8726 0.3454
vn 0.8623 0.3972 0.3142
vn 0.5976 0.6088 0.5218
vn 0.6683 0.2728 0.6920
vn 0.5774 0.5774 0.5773
vn 0.6914 0.6676 0.2762
vn 0.6739 0.7356 0.0692
vn 0.8231 0.4009 0.4022
vn 0.9257 0.3783 -0.0021
vn 0.4009 0.8231 0.4022
vn 0.7355 0.6740 0.0692
vn 0.3786 0.9256 -0.0026
vn 0.8231 0.4022 0.4009
vn 0.6739 0.0689 0.7356
vn 0.9257 -0.0025 0.3782
vn 0.9004 0.4280 0.0786
vn 0.9004 0.0781 0.4280
vn 0.9998 -0.0144 -0.0141
vn 0.9624 0.1892 -0.1951
vn 1.0000 0.0017 0.0014
vn 0.9239 0.3825 -0.0060
vn 0.8167 0.5431 -0.1951
vn 0.9239 0.3825 -0.0046
vn 0.7075 0.7067 -0.0114
vn 0.7672 0.6353 0.0882
vn 0.9276 0.3504 -0.1294
vn 0.7119 0.6491 -0.2681
vn 0.9360 0.3401 0.0910
vn 0.9999 0.0042 0.0159
vn 0.9250 0.3514 -0.1448
vn 0.9277 0.3397 -0.1551
vn 0.7700 0.3823 -0.5108
vn 0.9363 0.3480 -0.0475
vn 0.9999 0.0101 0.0134
vn 0.9247 0.2691 -0.2691
vn 0.7700 0.5108 -0.3822
vn 0.9277 0.1551 -0.3396
vn 0.7119 0.2682 -0.6491
vn 0.9999 -0.0134 -0.0101
vn 0.9363 0.0474 -0.3480
vn 0.9276 0.1294 -0.3504
vn 0.7660 -0.0856 -0.6371
vn 0.7119 0.2681 -0.6491
vn 0.9999 -0.0159 -0.0042
vn 0.9358 -0.0895 -0.3411
vn 0.9250 0.1448 -0.3514
vn 0.8170 -0.1950 -0.5426
vn 0.9239 -0.0057 -0.3826
vn 0.7075 -0.0141 -0.7066
vn 0.9625 -0.1950 -0.1886
vn 1.0000 0.0018 -0.0013
vn 0.9239 -0.0075 -0.3825
vn 0.7660 0.0855 -0.6371
vn 0.9276 -0.1294 -0.3504
vn 0.7119 -0.2681 -0.6491
vn 0.9358 0.0894 -0.3411
vn 0.9999 0.0159 -0.0042
vn 0.9250 -0.1448 -0.3514
vn 0.7066 -0.4906 -0.5100
vn 0.8736 -0.0947 -0.4773
vn 0.9247 -0.2692 -0.2692
vn 0.9363 -0.0475 -0.3480
vn 0.9999 0.0134 -0.0101
vn 0.9247 -0.2691 -0.2691
vn 1.0000 -0.0000 -0.0000
vn 1.0000 0.0003 -0.0013
vn 1.0000 0.0014 0.0009
vn 0.9239 -0.3474 -0.1602
vn 0.9940 0.0330 -0.1038
vn 1.0000 -0.0003 -0.0001
vn 0.9230 -0.3842 -0.0216
vn 0.9940 -0.0093 -0.1087
vn 1.0000 -0.0017 -0.0000
vn 0.9239 -0.3827 0.0006
vn 0.9623 -0.1914 0.1934
vn 1.0000 -0.0015 0.0018
vn 0.9004 -0.0782 0.4280
vn 0.9004 -0.4280 0.0786
vn 0.9998 0.0144 -0.0140
vn 0.9623 0.1950 0.1896
vn 1.0000 0.0003 0.0018
vn 0.9239 0.0017 0.3826
vn 0.6739 -0.0689 0.7356
vn 0.8231 -0.4022 0.4009
vn 0.9257 0.0025 0.3782
vn 0.8165 0.1950 0.5434
vn 0.9239 0.0005 0.3827
vn 0.7071 0.0015 0.7071
vn 0.4009 -0.4022 0.8231
vn 0.7356 -0.0689 0.6739
vn 0.3782 0.0024 0.9257
vn 0.5464 0.1951 0.8145
vn 0.7071 0.0003 0.7071
vn 0.3827 0.0017 0.9239
vn 0.7356 0.0689 0.6739
vn 0.4009 0.4022 0.8231
vn 0.3782 -0.0025 0.9257
vn 0.4280 0.0782 0.9004
vn 0.0786 0.4280 0.9004
vn -0.0141 -0.0144 0.9998
vn 0.1932 0.1933 0.9619
vn 0.3826 0.0006 0.9239
vn 0.0019 0.0015 1.0000
vn 0.0014 0.0017 1.0000
vn -0.1951 0.1913 0.9619
vn -0.0061 0.3825 0.9240
vn -0.0000 -0.0000 1.0000
vn 0.0022 0.0008 1.0000
vn -0.0004 0.0003 1.0000
vn 0.0786 -0.4279 0.9004
vn 0.4280 -0.0782 0.9004
vn -0.0141 0.0144 0.9998
vn -0.1951 -0.1892 0.9624
vn 0.0014 -0.0017 1.0000
vn -0.0060 -0.3825 0.9239
vn 0.0909 -0.3401 0.9360
vn 0.0159 -0.0041 0.9999
vn -0.1448 -0.3513 0.9250
vn -0.2595 -0.2818 0.9237
vn 0.0702 -0.0832 0.9941
vn -0.0002 -0.0002 1.0000
vn -0.3474 -0.1601 0.9239
vn 0.0330 -0.1038 0.9940
vn -0.0003 -0.0001 1.0000
vn -0.3841 -0.0231 0.9230
vn -0.0093 -0.1087 0.9940
vn -0.0013 -0.0000 1.0000
vn -0.3826 0.0057 0.9239
vn -0.1914 0.1938 0.9622
vn -0.3411 -0.0894 0.9357
vn -0.0041 -0.0159 0.9999
vn -0.3513 0.1448 0.9250
vn 0.0085 0.0145 0.9999
vn -0.1780 0.3037 0.9360
vn 0.0134 0.0101 0.9999
vn -0.0475 0.3480 0.9363
vn -0.2691 0.2691 0.9247
vn 0.0159 0.0042 0.9999
vn 0.0910 0.3401 0.9360
vn -0.1448 0.3514 0.9250
vn -0.1294 0.3504 0.9276
vn 0.0882 0.6353 0.7672
vn -0.2681 0.6491 0.7119
vn -0.5108 0.3823 0.7700
vn -0.1551 0.3396 0.9277
vn -0.2682 0.6491 0.7119
vn -0.3397 0.1551 0.9277
vn -0.3823 0.5108 0.7700
vn -0.6491 0.2682 0.7119
vn -0.8241 0.2471 0.5096
vn -0.5007 0.4827 0.7185
vn -0.6519 0.6519 0.3874
vn -0.8628 -0.0758 0.4998
vn -0.6473 0.2537 0.7188
vn -0.8518 0.3524 0.3876
vn -0.6371 -0.0856 0.7660
vn -0.3505 0.1294 0.9276
vn -0.6491 0.2681 0.7119
vn -0.9236 0.0170 0.3829
vn -0.8153 0.1961 0.5448
vn -0.7067 0.0142 0.7074
vn -0.5426 0.1950 0.8170
vn -0.7066 0.0141 0.7075
vn -0.9265 -0.0318 0.3749
vn -0.7071 -0.3862 0.5923
vn -0.7067 -0.0142 0.7074
vn -0.7106 -0.0283 0.7030
vn -0.4040 -0.2691 0.8743
vn -0.3826 -0.0075 0.9239
vn -0.5439 -0.6669 0.5092
vn -0.6375 -0.2771 0.7189
vn -0.8518 -0.3525 0.3876
vn -0.3823 -0.5108 0.7700
vn -0.3396 -0.1551 0.9277
vn -0.6491 -0.2682 0.7119
vn -0.6456 -0.6634 0.3784
vn -0.2261 -0.7740 0.5914
vn -0.4969 -0.4969 0.7115
vn -0.1570 -0.6177 0.7706
vn -0.2544 -0.2741 0.9274
vn -0.4968 -0.4968 0.7116
vn 0.0789 -0.8611 0.5022
vn -0.2537 -0.6473 0.7188
vn -0.3525 -0.8518 0.3876
vn 0.0882 -0.6353 0.7672
vn -0.1294 -0.3504 0.9276
vn -0.2681 -0.6491 0.7119
vn -0.1947 -0.8143 0.5468
vn -0.0100 -0.7067 0.7075
vn -0.0151 -0.9236 0.3831
vn -0.1951 -0.5431 0.8167
vn -0.0046 -0.3825 0.9239
vn -0.0114 -0.7067 0.7075
vn 0.0692 -0.7356 0.6739
vn 0.4022 -0.4009 0.8231
vn -0.0021 -0.3783 0.9257
vn 0.4022 -0.8231 0.4009
vn 0.0692 -0.6740 0.7355
vn -0.0026 -0.9256 0.3786
vn 0.0016 -0.9237 0.3830
vn 0.0022 -1.0000 0.0022
vn 0.3453 -0.8726 0.3454
vn -0.1929 -0.9619 0.1935
vn -0.0138 -0.9236 0.3831
vn -0.0313 -0.9995 0.0039
vn 0.7355 -0.6740 0.0692
vn 0.4009 -0.8231 0.4022
vn 0.3786 -0.9256 -0.0026
vn 0.3830 -0.9237 0.0016
vn 0.3453 -0.8726 0.3453
vn 0.3454 -0.8726 0.3454
vn 0.6914 -0.6676 0.2762
vn 0.5773 -0.5774 0.5773
vn 0.2762 -0.6676 0.6914
vn 0.3142 -0.3972 0.8623
vn 0.5218 -0.6087 0.5976
vn 0.6920 -0.2728 0.6683
vn 0.8623 -0.3142 0.3971
vn 0.5976 -0.5218 0.6088
vn 0.6848 -0.6845 0.2501
vn 0.8231 -0.4009 0.4022
vn 0.6739 -0.7356 0.0692
vn 0.9257 -0.3783 -0.0021
vn 0.3831 -0.9237 0.0001
vn 0.5448 -0.8154 0.1959
vn 0.7070 -0.7072 0.0018
vn 0.7071 -0.7071 0.0004
vn 0.8155 -0.5449 0.1953
vn 0.9238 -0.3828 0.0021
vn 0.3747 -0.9267 -0.0282
vn 0.5923 -0.7071 -0.3862
vn 0.7074 -0.7067 -0.0114
vn 0.7029 -0.7108 -0.0255
vn 0.8743 -0.4041 -0.2691
vn 0.9239 -0.3825 -0.0061
vn 0.5092 -0.5439 -0.6669
vn 0.7189 -0.6375 -0.2771
vn 0.3876 -0.8517 -0.3525
vn 0.7069 -0.6484 -0.2827
vn 0.8737 -0.2708 -0.4040
vn 0.9249 -0.3514 -0.1448
vn 0.3784 -0.6456 -0.6634
vn 0.5913 -0.2262 -0.7741
vn 0.7115 -0.4969 -0.4969
vn 0.1724 -0.2983 -0.9388
vn 0.3977 -0.6402 -0.6573
vn 0.0020 -0.7031 -0.7111
vn 0.1747 -0.6330 -0.7542
vn 0.3980 -0.8430 -0.3620
vn 0.0021 -0.9219 -0.3874
vn 0.1564 0.0655 -0.9855
vn 0.3979 -0.3395 -0.8523
vn 0.0019 -0.3799 -0.9250
vn 0.4998 0.0758 -0.8628
vn 0.7188 -0.2537 -0.6473
vn 0.3876 -0.3524 -0.8518
vn 0.0016 -0.0186 -0.9998
vn 0.1913 -0.1964 -0.9617
vn 0.3830 -0.0188 -0.9236
vn 0.5471 -0.1955 -0.8139
vn 0.7075 -0.0124 -0.7066
vn 0.3831 -0.0188 -0.9235
vn 0.3979 0.3395 -0.8523
vn 0.1564 -0.0655 -0.9855
vn 0.0019 0.3799 -0.9250
vn 0.7188 0.2536 -0.6473
vn 0.4998 -0.0758 -0.8628
vn 0.3876 0.3525 -0.8518
vn 0.3977 0.6401 -0.6573
vn 0.1725 0.2983 -0.9388
vn 0.0020 0.7031 -0.7111
vn 0.5092 0.6669 -0.5439
vn 0.7189 0.2771 -0.6375
vn 0.3876 0.3525 -0.8517
vn 0.3980 0.8429 -0.3620
vn 0.1748 0.6330 -0.7542
vn 0.0021 0.9219 -0.3874
vn 0.5096 0.8241 -0.2471
vn 0.7185 0.5007 -0.4827
vn 0.3874 0.6519 -0.6519
vn 0.1493 0.9873 0.0552
vn 0.3979 0.8523 -0.3396
vn 0.5022 0.8611 0.0789
vn 0.7188 0.6473 -0.2537
vn 0.3876 0.8518 -0.3525
vn 0.1935 0.9619 -0.1929
vn 0.3831 0.9236 -0.0138
vn 0.5468 0.8144 -0.1947
vn 0.7075 0.7067 -0.0100
vn 0.3831 0.9236 -0.0151
vn 0.3830 0.9237 0.0016
vn -0.0097 0.7033 -0.7109
vn -0.1432 0.8853 -0.4425
vn 0.0020 0.9219 -0.3875
vn -0.0089 0.3802 -0.9249
vn -0.1312 0.6604 -0.7394
vn 0.0019 0.7031 -0.7111
vn -0.0073 0.0205 -0.9998
vn -0.1090 0.3475 -0.9313
vn 0.0018 0.3799 -0.9250
vn -0.2011 -0.0544 -0.9781
vn -0.3521 0.4673 -0.8109
vn -0.0018 0.3806 -0.9247
vn -0.0407 -0.1188 -0.9921
vn -0.3828 0.0250 -0.9235
vn -0.0020 0.0204 -0.9998
vn -0.0058 -0.0196 -0.9998
vn -0.0088 0.0185 -0.9998
vn 0.0018 0.0203 -0.9998
vn 0.0114 -0.0332 -0.9994
vn -0.0803 -0.5145 -0.8537
vn -0.3825 -0.0270 -0.9236
vn -0.1089 -0.3475 -0.9313
vn -0.0073 -0.0205 -0.9998
vn 0.0018 -0.3799 -0.9250
vn 0.0135 -0.3889 -0.9212
vn 0.0298 -0.7811 -0.6237
vn -0.3361 -0.4779 -0.8116
vn -0.1311 -0.6604 -0.7394
vn -0.0088 -0.3802 -0.9249
vn 0.0019 -0.7031 -0.7111
vn 0.0111 -0.7071 -0.7070
vn -0.0865 -0.9181 -0.3868
vn -0.2321 -0.7950 -0.5605
vn -0.1432 -0.8853 -0.4425
vn -0.0097 -0.7033 -0.7109
vn 0.0020 -0.9219 -0.3875
vn -0.1686 -0.8977 -0.4070
vn -0.0007 -0.9217 -0.3880
vn -0.0986 -0.9902 -0.0986
vn -0.0219 -0.9996 -0.0165
vn -0.0807 -0.9250 -0.3714
vn 0.0970 -0.9268 -0.3628
vn -0.0057 -0.9990 -0.0435
vn 0.2190 -0.8671 -0.4474
vn 0.3830 -0.9236 -0.0152
vn 0.0021 -1.0000 0.0007
vn 0.1913 -0.9618 0.1960
vn 0.0039 -0.9995 -0.0313
vn -0.0158 -0.9997 -0.0158
vn -0.3640 -0.9266 0.0948
vn -0.1392 -0.9822 -0.1264
vn -0.0153 -0.9999 -0.0062
vn 0.0552 -0.9873 0.1493
vn -0.3396 -0.8523 0.3979
vn -0.3874 -0.9219 0.0021
vn -0.3049 -0.9378 0.1660
vn -0.6402 -0.6573 0.3977
vn -0.7110 -0.7032 0.0020
vn -0.7109 -0.7033 -0.0097
vn -0.4425 -0.8853 -0.1431
vn -0.3875 -0.9219 0.0020
vn -0.3880 -0.9217 -0.0007
vn -0.4071 -0.8977 -0.1686
vn -0.3868 -0.9181 -0.0865
vn -0.7070 -0.7071 0.0111
vn -0.5605 -0.7950 -0.2321
vn -0.6237 -0.7811 0.0298
vn -0.9212 -0.3889 0.0135
vn -0.8116 -0.4779 -0.3361
vn -0.9249 -0.3802 -0.0089
vn -0.7394 -0.6604 -0.1312
vn -0.7111 -0.7031 0.0019
vn -0.8537 -0.5145 -0.0804
vn -0.9994 -0.0332 0.0114
vn -0.9235 -0.0270 -0.3825
vn -0.9998 -0.0205 -0.0073
vn -0.9313 -0.3475 -0.1090
vn -0.9250 -0.3799 0.0018
vn -0.9994 -0.0325 -0.0084
vn -0.8671 -0.4474 0.2190
vn -0.9235 -0.0188 0.3830
vn -0.9204 -0.3910 -0.0094
vn -0.6299 -0.7453 0.2185
vn -0.8518 -0.3525 0.3875
vn -0.9616 0.1943 0.1941
vn -0.9235 0.0170 0.3832
vn -0.9998 0.0203 0.0018
vn -0.9998 0.0196 -0.0058
vn -0.9998 -0.0185 -0.0088
vn -0.9998 -0.0203 0.0018
vn -0.9855 -0.0655 0.1564
vn -0.8523 0.3396 0.3979
vn -0.9250 0.3800 0.0018
vn -0.9313 0.3475 -0.1089
vn -0.9998 0.0205 -0.0073
vn -0.9250 0.3799 0.0018
vn -0.9994 0.0332 0.0114
vn -0.8537 0.5145 -0.0804
vn -0.9236 0.0270 -0.3825
vn -0.9323 -0.1270 -0.3388
vn -0.9998 0.0185 -0.0018
vn -0.9236 0.0269 -0.3825
vn -0.9287 0.0392 -0.3687
vn -0.7353 0.5461 -0.4014
vn -0.7068 0.0292 -0.7068
vn -0.7325 -0.1294 -0.6683
vn -0.9237 0.0250 -0.3824
vn -0.7353 -0.5461 -0.4014
vn -0.9287 -0.0391 -0.3688
vn -0.7068 -0.0292 -0.7068
vn -0.3688 -0.0392 -0.9287
vn -0.4014 -0.5461 -0.7353
vn -0.4196 -0.1270 -0.8988
vn -0.7070 0.0273 -0.7067
vn -0.3826 0.0269 -0.9235
vn -0.3217 -0.4851 -0.8131
vn -0.2332 -0.8240 -0.5163
vn -0.6092 -0.5076 -0.6093
vn -0.5163 -0.8240 -0.2332
vn -0.8131 -0.4851 -0.3217
vn -0.6092 -0.5076 -0.6092
vn -0.2217 -0.7975 -0.5611
vn -0.2486 -0.9273 -0.2797
vn -0.4073 -0.8174 -0.4074
vn -0.2797 -0.9273 -0.2486
vn -0.5611 -0.7975 -0.2217
vn -0.4074 -0.8174 -0.4073
vn -0.2947 -0.9090 -0.2947
vn -0.1686 -0.8977 -0.4071
vn -0.5750 -0.0397 -0.8172
vn -0.6233 0.4976 -0.6032
vn -0.3362 0.4778 -0.8116
vn -0.1552 0.9826 -0.1021
vn 0.0039 0.9995 -0.0314
vn -0.0102 0.9220 -0.3871
vn 0.1013 0.9273 -0.3604
vn -0.0368 0.9973 -0.0629
vn -0.3871 0.9220 -0.0102
vn -0.0314 0.9995 0.0039
vn -0.1021 0.9826 -0.1552
vn -0.1197 0.9791 0.1644
vn -0.3511 0.9290 0.1170
vn -0.2217 0.7975 -0.5611
vn -0.4073 0.8174 -0.4074
vn -0.2486 0.9273 -0.2797
vn 0.0111 0.7071 -0.7070
vn -0.2321 0.7950 -0.5605
vn -0.0865 0.9181 -0.3868
vn 0.0135 0.3889 -0.9212
vn -0.3361 0.4779 -0.8116
vn 0.0298 0.7811 -0.6237
vn -0.3217 0.4851 -0.8131
vn -0.6092 0.5076 -0.6093
vn -0.2332 0.8240 -0.5163
vn -0.7126 0.4413 -0.5454
vn -0.5605 0.7950 -0.2322
vn -0.4048 0.8129 -0.4187
vn -0.4719 0.7854 -0.4006
vn -0.2978 0.9067 -0.2986
vn -0.8936 0.3503 -0.2805
vn -0.7103 0.7039 -0.0015
vn -0.5618 0.7899 -0.2456
vn -0.6494 0.7069 -0.2802
vn -0.3881 0.9216 -0.0007
vn -0.4105 0.8953 -0.1729
vn -0.7104 0.7037 0.0082
vn -0.9247 0.3807 -0.0018
vn -0.9111 0.4009 0.0964
vn -0.3883 0.9215 0.0094
vn -0.6901 0.7172 0.0974
vn -0.9298 0.2964 0.2185
vn -0.6519 0.6519 0.3873
vn -0.7195 0.6945 -0.0090
vn -0.7453 0.6299 0.2185
vn -0.3985 0.9171 -0.0088
vn -0.4474 0.8671 0.2190
vn -0.0152 0.9236 0.3830
vn -0.0435 0.9990 -0.0057
vn -0.6456 0.6634 0.3784
vn -0.4968 0.4969 0.7115
vn -0.2261 0.7740 0.5914
vn -0.3862 0.7071 0.5924
vn -0.0282 0.9267 0.3747
vn 0.1960 0.9618 0.1913
vn 0.0016 0.9237 0.3830
vn 0.0007 1.0000 0.0021
vn 0.1958 0.8154 0.5448
vn 0.0018 0.7072 0.7070
vn 0.0001 0.9237 0.3831
vn -0.0557 0.7653 0.6413
vn 0.2806 0.6620 0.6950
vn 0.2458 0.9164 0.3157
vn 0.1953 0.5449 0.8155
vn 0.0021 0.3828 0.9238
vn 0.0004 0.7071 0.7071
vn 0.2459 0.3157 0.9164
vn 0.2807 0.6713 0.6860
vn -0.0557 0.6414 0.7652
vn 0.3142 0.3971 0.8623
vn 0.6921 0.2728 0.6683
vn 0.5218 0.6087 0.5976
vn 0.8623 0.3142 0.3972
vn 0.6848 0.6845 0.2501
vn 0.5976 0.5218 0.6088
vn 0.7652 0.6414 -0.0557
vn 0.6860 0.6713 0.2807
vn 0.9164 0.3158 0.2459
vn 0.3157 0.9164 0.2459
vn 0.6950 0.6620 0.2806
vn 0.6413 0.7653 -0.0557
vn 0.9164 0.2459 0.3158
vn 0.6693 0.3030 0.6784
vn 0.7653 -0.0560 0.6412
vn 0.9513 0.3060 -0.0369
vn 0.8624 0.3580 0.3580
vn 0.9514 -0.0372 0.3057
vn 0.9239 0.3827 0.0007
vn 1.0000 0.0015 0.0018
vn 0.9618 0.1935 0.1934
vn 0.7071 0.7071 0.0004
vn 0.9238 0.3828 0.0021
vn 0.8142 0.5467 0.1953
vn 0.7029 0.7109 -0.0255
vn 0.9239 0.3825 -0.0061
vn 0.8743 0.4040 -0.2691
vn 0.9230 0.3842 -0.0216
vn 1.0000 0.0017 -0.0000
vn 0.9940 0.0093 -0.1087
vn 0.8736 0.4773 -0.0947
vn 0.9247 0.2692 -0.2692
vn 0.7066 0.5100 -0.4906
vn 0.9239 0.3474 -0.1602
vn 1.0000 0.0003 -0.0001
vn 0.9940 -0.0330 -0.1038
vn 0.7066 0.4906 -0.5100
vn 0.8736 0.0947 -0.4773
vn 0.9940 0.1038 0.0330
vn 1.0000 0.0001 -0.0003
vn 0.9239 0.1601 -0.3474
vn 0.8743 0.2691 -0.4041
vn 0.9239 0.0075 -0.3826
vn 0.7030 0.0283 -0.7107
vn 0.9940 0.1087 -0.0093
vn 1.0000 -0.0000 -0.0013
vn 0.9230 0.0231 -0.3841
vn 0.7074 0.0123 -0.7067
vn 0.8139 0.1953 -0.5472
vn 0.9239 0.0057 -0.3826
vn 1.0000 -0.0000 -0.0014
vn 0.9617 0.1938 -0.1941
vn 0.7030 -0.0283 -0.7107
vn 0.9239 -0.0075 -0.3826
vn 0.8743 -0.2691 -0.4041
vn 0.9230 -0.0231 -0.3841
vn 1.0000 -0.0001 -0.0013
vn 0.9940 -0.1087 -0.0093
vn 0.7700 -0.5108 -0.3822
vn 0.7119 -0.2682 -0.6491
vn 0.9277 -0.1551 -0.3397
vn 0.9239 -0.1602 -0.3474
vn 1.0000 -0.0001 -0.0003
vn 0.9941 -0.1038 0.0330
vn 1.0000 0.0009 -0.0014
vn 1.0000 -0.0021 0.0010
vn 1.0000 0.0003 0.0023
vn 1.0000 -0.0016 -0.0000
vn 1.0000 0.0013 -0.0002
vn 1.0000 -0.0013 -0.0002
vn 1.0000 0.0002 0.0017
vn 1.0000 0.0017 -0.0003
vn 1.0000 -0.0008 0.0022
vn 1.0000 0.0013 -0.0003
vn 1.0000 -0.0012 -0.0006
vn 1.0000 0.0007 0.0015
vn 0.9363 -0.3480 -0.0475
vn 0.9999 -0.0101 0.0134
vn 0.9360 -0.3401 0.0910
vn 0.9250 -0.3514 -0.1448
vn 0.9999 -0.0042 0.0159
vn 0.9619 -0.1913 -0.1951
vn 1.0000 -0.0017 0.0014
vn 0.9514 0.0372 0.3057
vn 0.8624 -0.3579 0.3580
vn 0.9513 -0.3059 -0.0369
vn 0.9239 -0.0006 0.3826
vn 1.0000 -0.0015 0.0019
vn 0.9619 -0.1933 0.1932
vn 0.7653 0.0560 0.6413
vn 0.6692 -0.3030 0.6785
vn 0.9164 -0.2459 0.3158
vn 0.7071 -0.0003 0.7071
vn 0.9239 -0.0017 0.3827
vn 0.8145 -0.1951 0.5464
vn 0.3158 -0.2459 0.9164
vn 0.6784 -0.3030 0.6693
vn 0.6412 0.0560 0.7653
vn 0.3827 -0.0005 0.9239
vn 0.7071 -0.0015 0.7071
vn 0.5434 -0.1950 0.8165
vn 0.6412 -0.0560 0.7653
vn 0.6784 0.3030 0.6693
vn 0.3158 0.2459 0.9164
vn 0.3058 -0.0372 0.9514
vn 0.3579 0.3580 0.8624
vn -0.0369 0.3060 0.9513
vn 0.0019 -0.0003 1.0000
vn 0.3826 -0.0017 0.9239
vn 0.1896 -0.1950 0.9623
vn 0.1935 0.1914 0.9623
vn 0.0018 0.0015 1.0000
vn 0.0006 0.3827 0.9239
vn -0.0000 0.0005 1.0000
vn -0.0002 -0.0013 1.0000
vn -0.0002 0.0013 1.0000
vn -0.0004 -0.0002 1.0000
vn 0.0017 -0.0002 1.0000
vn -0.0014 -0.0009 1.0000
vn 0.0018 -0.0015 1.0000
vn 0.0010 0.0021 1.0000
vn 0.0023 -0.0003 1.0000
vn -0.0000 0.0017 1.0000
vn -0.0005 -0.0000 1.0000
vn 0.0004 0.0003 1.0000
vn -0.0003 -0.0004 1.0000
vn -0.0013 -0.0001 1.0000
vn 0.0006 -0.0016 1.0000
vn 0.0023 -0.0001 1.0000
vn -0.0002 0.0004 1.0000
vn -0.0368 -0.3060 0.9513
vn 0.3580 -0.3580 0.8624
vn 0.3057 0.0372 0.9514
vn 0.0007 -0.3827 0.9239
vn 0.1934 -0.1935 0.9618
vn -0.0216 -0.3841 0.9230
vn -0.0000 -0.0017 1.0000
vn -0.1087 -0.0093 0.9940
vn -0.3037 -0.1780 0.9360
vn -0.0145 0.0085 0.9999
vn -0.3480 -0.0475 0.9363
vn -0.2691 -0.2691 0.9247
vn -0.0101 0.0134 0.9999
vn -0.3411 0.0895 0.9358
vn -0.3514 -0.1448 0.9250
vn -0.0041 0.0159 0.9999
vn -0.1913 -0.1951 0.9619
vn -0.3825 -0.0075 0.9239
vn -0.0013 0.0018 1.0000
vn -0.3841 0.0231 0.9230
vn -0.0092 0.1087 0.9940
vn -0.0833 -0.0703 0.9940
vn -0.0002 0.0002 1.0000
vn -0.2818 0.2595 0.9237
vn -0.1038 -0.0330 0.9940
vn -0.0001 0.0002 1.0000
vn -0.1602 0.3474 0.9239
vn -0.1087 0.0093 0.9940
vn -0.0000 0.0016 1.0000
vn -0.0216 0.3841 0.9230
vn -0.2691 0.4041 0.8743
vn -0.0061 0.3825 0.9239
vn -0.0255 0.7108 0.7029
vn -0.4906 0.5100 0.7066
vn -0.2692 0.2692 0.9247
vn -0.0947 0.4773 0.8736
vn -0.4773 0.0947 0.8736
vn -0.5100 0.4906 0.7066
vn -0.8503 0.3655 0.3786
vn -0.6491 0.2682 0.7118
vn -0.5057 0.6280 0.5915
vn -0.9265 0.0318 0.3749
vn -0.7071 0.3863 0.5923
vn -0.7106 0.0283 0.7030
vn -0.3826 0.0075 0.9239
vn -0.4040 0.2691 0.8743
vn -0.8154 -0.1955 0.5448
vn -0.9235 -0.0188 0.3831
vn -0.7066 -0.0124 0.7075
vn -0.7067 -0.0123 0.7074
vn -0.5472 -0.1953 0.8139
vn -0.8628 0.0758 0.4998
vn -0.6473 -0.2536 0.7188
vn -0.6371 0.0856 0.7660
vn -0.6491 -0.2681 0.7119
vn -0.3504 -0.1294 0.9276
vn -0.6634 -0.6456 0.3784
vn -0.4969 -0.4968 0.7115
vn -0.7741 -0.2262 0.5913
vn -0.5100 -0.4906 0.7066
vn -0.2692 -0.2692 0.9247
vn -0.4772 -0.0947 0.8736
vn -0.6669 -0.5439 0.5092
vn -0.2771 -0.6375 0.7189
vn -0.2827 -0.6484 0.7068
vn -0.1448 -0.3514 0.9249
vn -0.4040 -0.2708 0.8737
vn -0.0282 -0.9267 0.3747
vn -0.0115 -0.7067 0.7074
vn -0.3862 -0.7071 0.5923
vn -0.0255 -0.7109 0.7028
vn -0.0061 -0.3826 0.9239
vn -0.2691 -0.4040 0.8743
vn 0.0001 -0.9237 0.3831
vn 0.0018 -0.7072 0.7070
vn 0.1959 -0.8166 0.5430
vn 0.0004 -0.7071 0.7071
vn 0.0021 -0.3828 0.9238
vn 0.1953 -0.5467 0.8143
vn -0.0557 -0.6414 0.7652
vn 0.2807 -0.6713 0.6860
vn 0.2459 -0.3157 0.9164
vn 0.2459 -0.9164 0.3158
vn 0.2806 -0.6620 0.6950
vn -0.0557 -0.7653 0.6413
vn 0.0007 -1.0000 0.0022
vn 0.1960 -0.9622 0.1892
vn 0.6413 -0.7652 -0.0557
vn 0.6950 -0.6620 0.2807
vn 0.3158 -0.9164 0.2459
vn 0.3971 -0.3143 0.8623
vn 0.2501 -0.6845 0.6848
vn 0.6087 -0.5218 0.5976
vn 0.8623 -0.3972 0.3142
vn 0.6683 -0.2729 0.6921
vn 0.5976 -0.6088 0.5218
vn 0.9164 -0.3158 0.2459
vn 0.6860 -0.6713 0.2807
vn 0.7652 -0.6414 -0.0557
vn 0.5449 -0.8156 -0.1947
vn 0.3831 -0.9236 -0.0152
vn 0.7075 -0.7067 -0.0100
vn 0.8155 -0.5449 -0.1951
vn 0.7075 -0.7067 -0.0114
vn 0.9239 -0.3825 -0.0046
vn 0.5022 -0.8611 0.0789
vn 0.3876 -0.8518 -0.3525
vn 0.7188 -0.6473 -0.2536
vn 0.7672 -0.6353 0.0882
vn 0.7119 -0.6491 -0.2681
vn 0.9276 -0.3504 -0.1294
vn 0.3783 -0.6634 -0.6456
vn 0.7115 -0.4969 -0.4968
vn 0.5913 -0.7741 -0.2262
vn 0.7706 -0.6177 -0.1570
vn 0.7116 -0.4969 -0.4968
vn 0.9274 -0.2742 -0.2544
vn 0.5092 -0.6669 -0.5440
vn 0.3876 -0.3525 -0.8518
vn 0.7189 -0.2771 -0.6375
vn -0.0094 -0.3910 -0.9204
vn 0.2185 -0.7453 -0.6299
vn -0.0094 -0.7115 -0.7026
vn 0.3873 -0.6519 -0.6519
vn 0.2184 -0.9298 -0.2964
vn -0.0083 -0.0325 -0.9994
vn 0.3830 -0.0188 -0.9235
vn 0.2190 -0.4474 -0.8671
vn 0.3749 -0.0318 -0.9265
vn 0.7074 -0.0142 -0.7067
vn 0.5923 -0.3863 -0.7071
vn 0.1914 0.1943 -0.9621
vn 0.3832 0.0170 -0.9235
vn 0.3829 0.0170 -0.9236
vn 0.7074 0.0141 -0.7067
vn 0.5425 0.1961 -0.8169
vn 0.2190 0.4474 -0.8671
vn 0.3830 0.0188 -0.9235
vn -0.0084 0.0325 -0.9994
vn 0.5923 0.3862 -0.7071
vn 0.7074 0.0142 -0.7067
vn 0.3749 0.0318 -0.9265
vn 0.2185 0.7453 -0.6299
vn -0.0094 0.3910 -0.9203
vn 0.3784 0.6456 -0.6634
vn 0.7115 0.4968 -0.4969
vn 0.5913 0.2261 -0.7741
vn 0.2185 0.9298 -0.2964
vn 0.3873 0.6519 -0.6519
vn -0.0095 0.7115 -0.7026
vn 0.3786 0.8503 -0.3655
vn 0.7118 0.6491 -0.2682
vn 0.5915 0.5057 -0.6280
vn -0.0057 0.9990 -0.0435
vn 0.3830 0.9236 -0.0152
vn 0.2190 0.8671 -0.4474
vn 0.3747 0.9267 -0.0281
vn 0.7074 0.7067 -0.0115
vn 0.5923 0.7070 -0.3863
vn 0.0022 1.0000 0.0007
vn 0.1892 0.9622 0.1960
vn 0.3831 0.9237 0.0001
vn 0.7070 0.7072 0.0018
vn 0.5430 0.8166 0.1959
vn 0.0974 0.7172 -0.6901
vn 0.0094 0.9215 -0.3883
vn 0.0964 0.4009 -0.9111
vn -0.0018 0.3807 -0.9247
vn 0.0082 0.7037 -0.7104
vn 0.0856 0.0423 -0.9954
vn -0.0019 0.0204 -0.9998
vn 0.0079 0.3804 -0.9248
vn 0.0114 0.0332 -0.9994
vn -0.3825 0.0270 -0.9235
vn -0.0804 0.5145 -0.8537
vn -0.0018 -0.0185 -0.9998
vn -0.3825 -0.0269 -0.9236
vn -0.3388 0.1270 -0.9323
vn 0.0086 -0.0185 -0.9998
vn -0.0019 -0.0204 -0.9998
vn 0.0057 0.0197 -0.9998
vn -0.2010 0.0544 -0.9781
vn -0.0019 -0.3806 -0.9247
vn -0.3521 -0.4673 -0.8109
vn 0.0079 -0.3804 -0.9248
vn 0.0856 -0.0423 -0.9954
vn -0.2805 -0.3503 -0.8936
vn -0.0015 -0.7039 -0.7103
vn -0.2456 -0.7899 -0.5618
vn 0.0082 -0.7037 -0.7104
vn -0.0018 -0.3807 -0.9247
vn 0.0964 -0.4009 -0.9111
vn -0.2802 -0.7069 -0.6494
vn -0.0007 -0.9216 -0.3881
vn -0.1729 -0.8953 -0.4105
vn 0.0094 -0.9215 -0.3883
vn 0.0974 -0.7172 -0.6901
vn -0.0102 -0.9220 -0.3871
vn 0.0039 -0.9995 -0.0314
vn -0.1552 -0.9826 -0.1021
vn 0.1644 -0.9791 -0.1197
vn 0.1170 -0.9290 -0.3511
vn 0.1492 -0.9873 0.0552
vn 0.3980 -0.8523 -0.3395
vn 0.1914 -0.9623 -0.1930
vn 0.0040 -0.9995 -0.0313
vn 0.3831 -0.9236 -0.0137
vn -0.1021 -0.9826 -0.1552
vn -0.0314 -0.9995 0.0039
vn -0.3871 -0.9220 -0.0102
vn -0.3604 -0.9273 0.1013
vn -0.0629 -0.9973 -0.0368
vn -0.0435 -0.9990 -0.0057
vn -0.0152 -0.9236 0.3830
vn -0.4474 -0.8671 0.2190
vn -0.3985 -0.9171 -0.0089
vn -0.7453 -0.6299 0.2185
vn -0.6901 -0.7172 0.0974
vn -0.7103 -0.7039 -0.0015
vn -0.3883 -0.9215 0.0094
vn -0.4105 -0.8953 -0.1729
vn -0.3881 -0.9216 -0.0007
vn -0.6494 -0.7069 -0.2801
vn -0.5618 -0.7899 -0.2456
vn -0.8936 -0.3503 -0.2805
vn -0.9111 -0.4009 0.0964
vn -0.9247 -0.3807 -0.0018
vn -0.7104 -0.7037 0.0082
vn -0.8109 -0.4673 -0.3521
vn -0.9247 -0.3806 -0.0018
vn -0.9781 0.0544 -0.2010
vn -0.9954 -0.0423 0.0856
vn -0.9998 -0.0204 -0.0019
vn -0.9248 -0.3804 0.0079
vn -0.9855 0.0655 0.1564
vn -0.9250 -0.3800 0.0019
vn -0.8523 -0.3395 0.3979
vn -0.9388 -0.2983 0.1725
vn -0.7111 -0.7031 0.0020
vn -0.6573 -0.6401 0.3977
vn -0.9998 -0.0186 0.0016
vn -0.9236 -0.0188 0.3830
vn -0.9622 -0.1963 0.1886
vn -0.9998 0.0185 0.0086
vn -0.9998 0.0204 -0.0019
vn -0.9998 -0.0197 0.0057
vn -0.9994 0.0325 -0.0083
vn -0.9235 0.0188 0.3830
vn -0.8671 0.4474 0.2190
vn -0.9248 0.3804 0.0079
vn -0.9954 0.0423 0.0856
vn -0.9781 -0.0544 -0.2010
vn -0.9247 0.3806 -0.0019
vn -0.8109 0.4673 -0.3521
vn -0.9235 -0.0251 -0.3828
vn -0.9998 -0.0204 -0.0020
vn -0.9921 0.1188 -0.0407
vn -0.8172 -0.0397 -0.5750
vn -0.8116 0.4778 -0.3362
vn -0.6031 0.4976 -0.6234
vn -0.7067 -0.0273 -0.7070
vn -0.9235 -0.0269 -0.3826
vn -0.8988 0.1270 -0.4196
vn -0.6032 -0.4976 -0.6233
vn -0.8116 -0.4778 -0.3362
vn -0.8172 0.0397 -0.5750
vn -0.5750 0.0397 -0.8172
vn -0.3362 -0.4778 -0.8116
vn -0.6234 -0.4976 -0.6031
vn -0.3824 -0.0251 -0.9237
vn -0.6683 0.1294 -0.7325
vn -0.5454 -0.4413 -0.7126
vn -0.2322 -0.7950 -0.5605
vn -0.4187 -0.8129 -0.4048
vn -0.4048 -0.8129 -0.4187
vn -0.5605 -0.7950 -0.2322
vn -0.7125 -0.4413 -0.5455
vn -0.4006 -0.7854 -0.4719
vn -0.2986 -0.9067 -0.2978
vn -0.2978 -0.9067 -0.2986
vn -0.4071 -0.8977 -0.1687
vn -0.4719 -0.7854 -0.4006
vn -0.3688 0.0391 -0.9287
vn -0.4014 0.5461 -0.7353
vt 0.621521 0.159885
vt 0.544058 0.157403
vt 0.549197 0.148507
vt 0.621521 0.148500
vt 0.621517 0.025553
vt 0.549193 0.025560
vt 0.693849 0.025564
vt 0.698123 0.036954
vt 0.621526 0.036938
vt 0.698989 0.034460
vt 0.699000 0.036686
vt 0.544047 0.159630
vt 0.544925 0.159897
vt 0.699776 0.035900
vt 0.543272 0.158844
vt 0.538465 0.171080
vt 0.539347 0.171288
vt 0.535607 0.182670
vt 0.534736 0.182559
vt 0.537653 0.170432
vt 0.708312 0.059615
vt 0.705395 0.047488
vt 0.709169 0.059239
vt 0.704582 0.048137
vt 0.707441 0.059727
vt 0.703700 0.048345
vt 0.621525 0.059710
vt 0.621526 0.048324
vt 0.985551 0.607222
vt 0.977896 0.581825
vt 0.987370 0.605914
vt 0.976494 0.584211
vt 0.963728 0.565714
vt 0.962959 0.568807
vt 0.947232 0.559767
vt 0.962199 0.571854
vt 0.947023 0.563088
vt 0.773324 0.560000
vt 0.946814 0.566393
vt 0.773394 0.563325
vt 0.771341 0.563936
vt 0.773463 0.566592
vt 0.946608 0.569695
vt 0.771568 0.569487
vt 0.773514 0.569795
vt 0.770339 0.566995
vt 0.771585 0.566772
vt 0.266974 0.917138
vt 0.265747 0.919627
vt 0.265338 0.917462
vt 0.266748 0.922685
vt 0.266991 0.919850
vt 0.268869 0.920030
vt 0.268920 0.916830
vt 0.268800 0.923294
vt 0.265059 0.913957
vt 0.267016 0.913745
vt 0.268924 0.913635
vt 0.441680 0.913632
vt 0.441884 0.916932
vt 0.442091 0.920231
vt 0.456709 0.911748
vt 0.457465 0.914782
vt 0.455953 0.908708
vt 0.470367 0.900086
vt 0.467616 0.895410
vt 0.468993 0.897749
vt 0.477220 0.876861
vt 0.479005 0.878145
vt 0.482207 0.852018
vt 0.475432 0.875576
vt 0.480270 0.851666
vt 0.480269 0.619591
vt 0.482206 0.619239
vt 0.478331 0.619942
vt 0.477219 0.594397
vt 0.479004 0.593114
vt 0.475431 0.595682
vt 0.470367 0.571175
vt 0.468992 0.573509
vt 0.467615 0.575848
vt 0.455952 0.562552
vt 0.478332 0.851315
vt 0.456709 0.559512
vt 0.441884 0.554327
vt 0.441680 0.557628
vt 0.268920 0.554430
vt 0.268924 0.557624
vt 0.267016 0.557514
vt 0.265059 0.557303
vt 0.266974 0.554122
vt 0.771566 0.932772
vt 0.769650 0.929589
vt 0.771608 0.929377
vt 0.769651 0.572670
vt 0.771609 0.572882
vt 0.773519 0.572992
vt 0.773517 0.929267
vt 0.946402 0.572997
vt 0.972357 0.911031
vt 0.980184 0.611079
vt 0.773513 0.932464
vt 0.946401 0.929265
vt 0.946606 0.932568
vt 0.960685 0.924338
vt 0.961442 0.927380
vt 0.973735 0.913372
vt 0.981968 0.892467
vt 0.980179 0.891182
vt 0.985021 0.867254
vt 0.983081 0.866903
vt 0.985020 0.635008
vt 0.983081 0.635358
vt 0.981973 0.609794
vt 0.973737 0.588894
vt 0.972360 0.591235
vt 0.961443 0.574891
vt 0.960685 0.577934
vt 0.975112 0.586556
vt 0.983759 0.608510
vt 0.988900 0.634300
vt 0.986959 0.634655
vt 0.986959 0.867607
vt 0.988900 0.867962
vt 0.983755 0.893752
vt 0.976492 0.918057
vt 0.985547 0.895042
vt 0.975111 0.915710
vt 0.962198 0.930416
vt 0.947021 0.939175
vt 0.962957 0.933463
vt 0.946813 0.935870
vt 0.773393 0.938933
vt 0.773462 0.935667
vt 0.771340 0.938323
vt 0.773323 0.942259
vt 0.947230 0.942496
vt 0.268868 0.551229
vt 0.266748 0.548575
vt 0.268800 0.547965
vt 0.268730 0.544642
vt 0.266991 0.551409
vt 0.265747 0.551632
vt 0.771583 0.935487
vt 0.770337 0.935263
vt 0.769928 0.933096
vt 0.442091 0.551028
vt 0.442299 0.547725
vt 0.457465 0.556478
vt 0.471747 0.568830
vt 0.458224 0.553433
vt 0.482613 0.590520
vt 0.473149 0.566449
vt 0.458993 0.550342
vt 0.486094 0.618529
vt 0.480795 0.591825
vt 0.484145 0.618884
vt 0.484146 0.852373
vt 0.480796 0.879433
vt 0.486095 0.852728
vt 0.482614 0.880738
vt 0.471747 0.902432
vt 0.473150 0.904812
vt 0.458223 0.917827
vt 0.458993 0.920917
vt 0.442507 0.926853
vt 0.442299 0.923534
vt 0.268730 0.926618
vt 0.621521 0.171271
vt 0.621522 0.182657
vt 0.621522 0.194043
vt 0.534276 0.194044
vt 0.534276 0.291295
vt 0.533403 0.194009
vt 0.621522 0.291297
vt 0.534736 0.302780
vt 0.533403 0.291331
vt 0.535608 0.302668
vt 0.621521 0.302683
vt 0.538466 0.314258
vt 0.539348 0.314050
vt 0.621521 0.314069
vt 0.544048 0.325708
vt 0.544926 0.325441
vt 0.621520 0.325455
vt 0.544059 0.327935
vt 0.549199 0.336830
vt 0.442507 0.544407
vt 0.621520 0.336841
vt 0.621514 0.459782
vt 0.549193 0.459771
vt 0.621523 0.202510
vt 0.698987 0.204995
vt 0.693847 0.213891
vt 0.963728 0.936556
vt 0.977896 0.920439
vt 0.621523 0.191124
vt 0.698120 0.202501
vt 0.698998 0.202769
vt 0.703698 0.191110
vt 0.704581 0.191318
vt 0.707439 0.179729
vt 0.708311 0.179840
vt 0.621523 0.179738
vt 0.708771 0.168355
vt 0.709645 0.168390
vt 0.621522 0.168352
vt 0.990850 0.868317
vt 0.987366 0.896348
vt 0.990850 0.633945
vt 0.621524 0.071095
vt 0.708772 0.071100
vt 0.709646 0.071065
vt 0.710521 0.070957
vt 0.710521 0.168498
vt 0.709167 0.180216
vt 0.533880 0.303156
vt 0.532528 0.291438
vt 0.532528 0.193901
vt 0.537654 0.314906
vt 0.705393 0.191967
vt 0.543273 0.326494
vt 0.699773 0.203554
vt 0.533879 0.182183
vt 0.621527 0.025553
vt 0.769930 0.569163
vt 0.265338 0.553798
vt 0.621524 0.213895
s 0
usemtl multitexture
f 143/1/1 5/2/2 1/3/3
f 2/4/4 1/3/5 3/5/6
f 3/5/6 1/3/5 4/6/7
f 1/7/8 6/8/9 23/9/10
f 6/8/11 5/10/12 8/11/13
f 10/12/14 5/2/15 7/13/16
f 8/11/13 5/10/15 9/14/17
f 9/15/17 5/2/15 10/12/14
f 11/16/18 9/15/19 10/12/14
f 12/17/20 10/12/21 7/13/22
f 146/18/23 11/16/24 12/17/25
f 13/19/26 14/20/27 11/16/28
f 17/21/29 14/22/30 15/23/31
f 16/24/32 9/14/33 14/22/34
f 19/25/35 16/24/36 17/21/37
f 18/26/38 8/11/39 16/24/40
f 18/26/41 21/27/42 20/28/43
f 6/8/44 20/28/45 23/9/46
f 103/29/47 20/30/48 21/31/49
f 22/32/50 23/33/51 20/30/52
f 24/34/53 4/35/54 23/33/55
f 22/32/56 25/36/57 24/34/58
f 25/36/59 26/37/60 24/34/58
f 26/37/61 3/38/62 4/35/7
f 27/39/63 28/40/64 26/37/65
f 28/40/66 29/41/67 3/38/6
f 30/42/68 29/41/69 28/40/70
f 100/43/71 30/42/72 27/39/73
f 33/44/74 30/42/75 31/45/76
f 33/44/77 34/46/78 32/47/79
f 32/47/80 34/46/81 29/41/82
f 38/48/83 34/49/84 35/50/85
f 29/51/82 34/49/86 36/52/87
f 37/53/88 38/48/89 40/54/90
f 29/51/91 37/53/92 145/55/93
f 38/48/94 76/56/95 39/57/96
f 40/54/97 39/57/98 41/58/99
f 40/54/100 44/59/101 42/60/102
f 37/53/103 42/60/104 43/61/105
f 43/61/106 45/62/107 46/63/108
f 42/60/109 47/64/110 45/62/111
f 45/62/112 49/65/113 46/63/108
f 45/62/114 50/66/115 48/67/116
f 49/65/117 51/68/118 52/69/119
f 50/66/120 51/68/121 48/67/116
f 51/68/122 55/70/123 52/69/124
f 53/71/125 54/72/126 51/68/127
f 55/70/128 57/73/129 58/74/130
f 54/72/131 59/75/132 57/73/133
f 58/74/134 60/76/135 61/77/136
f 57/73/137 63/78/138 60/76/139
f 129/79/140 60/76/141 62/80/142
f 60/76/143 64/81/144 62/80/145
f 65/82/146 56/83/147 44/59/148
f 66/84/149 64/81/150 65/82/151
f 68/85/152 65/82/153 67/86/154
f 70/87/155 67/86/156 69/88/157
f 71/89/158 70/87/159 69/88/160
f 71/89/161 41/58/162 39/57/163
f 73/90/164 72/91/165 71/89/166
f 73/90/167 39/57/168 76/56/169
f 182/92/170 73/93/171 74/94/172
f 74/94/173 76/95/174 77/96/175
f 76/95/176 33/44/177 77/96/178
f 77/96/179 31/45/180 78/97/181
f 80/98/182 77/96/183 78/97/184
f 79/99/185 31/45/186 100/43/187
f 86/100/188 78/97/189 94/101/190
f 81/102/191 74/94/192 80/98/193
f 81/102/194 82/103/195 83/104/196
f 83/104/197 84/105/198 85/106/199
f 87/107/200 84/105/201 86/100/202
f 89/108/203 86/100/204 88/109/205
f 91/110/206 88/109/207 90/111/208
f 93/112/209 90/111/210 92/113/208
f 93/112/211 94/101/212 95/114/213
f 94/101/214 97/115/215 95/114/213
f 96/116/216 99/117/217 97/115/218
f 98/118/219 100/43/220 99/117/221
f 99/117/222 27/39/223 25/36/224
f 101/119/225 99/117/226 25/36/227
f 95/114/228 101/119/229 102/120/230
f 103/29/231 101/119/232 22/32/233
f 105/121/234 102/120/235 103/29/236
f 104/122/237 95/114/238 102/120/239
f 105/121/240 106/123/241 104/122/242
f 106/123/243 93/112/209 104/122/244
f 107/124/245 108/125/246 106/123/247
f 106/123/248 89/108/249 91/110/250
f 111/126/251 108/125/252 109/127/253
f 110/128/254 89/108/255 108/125/256
f 111/126/257 112/129/258 110/128/259
f 112/129/260 87/107/261 110/128/262
f 115/130/263 112/129/264 113/131/265
f 114/132/266 85/106/267 112/129/268
f 118/133/269 114/132/270 115/130/271
f 116/134/272 83/104/273 114/132/274
f 116/134/275 182/92/276 81/102/277
f 120/135/278 116/134/279 118/133/280
f 118/133/281 119/136/282 120/135/283
f 119/136/284 115/130/285 161/137/286
f 124/138/287 120/139/288 121/140/289
f 119/141/282 121/140/290 120/139/291
f 120/139/292 122/142/293 123/143/294
f 117/144/295 120/135/292 123/145/294
f 182/92/296 123/145/297 75/146/298
f 72/91/299 123/143/300 122/142/301
f 72/91/302 124/138/303 70/87/304
f 121/140/305 125/147/306 124/138/307
f 124/138/308 68/85/309 70/87/310
f 126/148/311 127/149/312 125/147/313
f 125/147/314 66/84/315 68/85/316
f 130/150/317 127/149/318 128/151/319
f 127/149/320 62/80/321 66/84/322
f 130/150/323 61/77/324 129/79/325
f 133/152/326 130/150/327 131/153/328
f 131/153/329 128/151/330 158/154/331
f 135/155/332 132/156/333 133/152/334
f 134/157/335 61/77/336 132/156/337
f 135/155/338 136/158/339 134/157/340
f 136/158/341 58/74/342 134/157/343
f 138/159/344 137/160/345 139/161/346
f 52/69/347 136/158/348 138/159/349
f 140/162/350 139/161/351 141/163/352
f 140/162/353 52/69/354 138/159/355
f 142/164/356 141/163/357 143/165/358
f 142/164/359 49/65/360 140/162/361
f 2/166/362 142/164/363 143/165/358
f 144/167/364 46/63/365 142/164/366
f 3/168/367 144/167/368 2/166/4
f 145/55/369 43/61/370 144/167/371
f 3/168/6 29/51/67 145/55/372
f 141/169/373 7/13/374 143/1/375
f 139/170/376 12/17/377 141/169/378
f 137/171/379 146/18/380 139/170/381
f 147/172/382 13/19/383 146/18/384
f 149/173/385 148/174/386 147/172/387
f 135/175/388 147/172/389 137/171/390
f 149/173/391 152/176/392 150/177/393
f 151/178/394 135/175/395 133/179/396
f 151/178/397 154/180/398 152/176/399
f 153/181/400 133/179/401 131/182/402
f 153/181/403 156/183/404 154/180/405
f 155/184/406 131/182/407 158/185/408
f 156/183/409 155/184/410 157/186/411
f 160/187/412 155/184/413 158/185/414
f 159/188/415 128/151/416 126/148/417
f 119/141/418 126/148/419 121/140/290
f 159/189/420 119/190/282 160/187/421
f 119/190/282 161/191/286 160/187/421
f 162/192/422 157/193/423 160/194/424
f 161/137/425 113/131/426 162/195/427
f 162/195/428 111/126/429 163/196/430
f 163/197/431 164/198/432 162/192/433
f 164/198/434 165/199/435 157/193/411
f 165/199/436 166/200/437 167/201/438
f 167/201/439 168/202/440 169/203/441
f 171/204/442 166/200/443 163/197/444
f 169/203/445 170/205/446 177/206/447
f 172/207/448 168/202/449 171/204/450
f 172/208/451 109/127/452 107/124/453
f 171/209/454 111/126/455 109/127/456
f 172/208/457 105/121/458 173/210/459
f 173/211/460 170/205/461 172/207/462
f 173/210/463 103/29/464 21/31/465
f 19/25/466 173/211/467 21/27/468
f 174/212/469 17/21/470 175/213/471
f 177/206/472 174/212/473 175/213/474
f 175/213/475 15/23/476 176/214/477
f 178/215/478 175/213/479 176/214/477
f 179/216/480 177/206/481 178/215/482
f 150/177/483 179/217/484 178/218/482
f 150/177/485 176/219/486 148/174/487
f 152/176/488 180/220/489 179/217/490
f 180/221/491 169/203/492 179/216/493
f 154/180/494 181/222/495 180/220/496
f 181/223/497 167/201/498 180/221/499
f 165/199/435 181/223/500 157/193/411
f 181/222/500 156/183/501 157/186/411
f 148/174/502 15/224/503 13/19/504
f 1/3/505 2/4/506 143/1/507
f 143/1/508 7/13/16 5/2/509
f 23/9/510 4/225/511 1/7/512
f 1/7/513 5/10/15 6/8/514
f 11/16/515 14/20/516 9/15/517
f 12/17/518 11/16/519 10/12/520
f 146/18/521 13/19/522 11/16/523
f 13/19/524 15/224/525 14/20/526
f 17/21/527 16/24/528 14/22/529
f 16/24/530 8/11/13 9/14/531
f 19/25/532 18/26/533 16/24/534
f 18/26/535 6/8/536 8/11/537
f 18/26/538 19/25/539 21/27/540
f 6/8/541 18/26/533 20/28/542
f 103/29/543 22/32/544 20/30/545
f 22/32/546 24/34/58 23/33/547
f 24/34/548 26/37/549 4/35/550
f 22/32/551 101/119/552 25/36/553
f 25/36/554 27/39/73 26/37/555
f 26/37/556 28/40/557 3/38/558
f 27/39/559 30/42/560 28/40/561
f 30/42/562 32/47/563 29/41/564
f 100/43/565 31/45/566 30/42/567
f 33/44/568 32/47/569 30/42/570
f 33/44/571 35/226/572 34/46/573
f 38/48/574 36/52/575 34/49/576
f 37/53/577 36/52/578 38/48/579
f 29/51/580 36/52/581 37/53/582
f 38/48/583 35/50/584 76/56/585
f 40/54/586 38/48/587 39/57/588
f 40/54/589 41/58/590 44/59/591
f 37/53/592 40/54/593 42/60/594
f 43/61/595 42/60/596 45/62/597
f 42/60/598 44/59/599 47/64/600
f 45/62/601 48/67/602 49/65/603
f 45/62/604 47/64/605 50/66/606
f 49/65/607 48/67/602 51/68/608
f 50/66/609 53/71/610 51/68/611
f 51/68/612 54/72/613 55/70/614
f 53/71/615 56/83/616 54/72/617
f 55/70/618 54/72/613 57/73/619
f 54/72/620 56/83/621 59/75/622
f 58/74/623 57/73/624 60/76/625
f 57/73/626 59/75/627 63/78/628
f 129/79/629 61/77/630 60/76/631
f 60/76/632 63/78/633 64/81/634
f 44/59/635 41/58/590 69/88/636
f 69/88/637 67/86/638 65/82/146
f 65/82/146 64/81/146 63/78/146
f 63/78/146 59/75/616 56/83/639
f 56/83/640 53/71/146 50/66/146
f 50/66/146 47/64/146 44/59/641
f 44/59/642 69/88/643 65/82/146
f 65/82/146 63/78/146 56/83/644
f 56/83/645 50/66/146 44/59/646
f 66/84/647 62/80/145 64/81/648
f 68/85/649 66/84/650 65/82/651
f 70/87/652 68/85/316 67/86/653
f 71/89/654 72/91/655 70/87/656
f 71/89/657 69/88/658 41/58/659
f 73/90/660 75/227/661 72/91/662
f 73/90/663 71/89/664 39/57/665
f 182/92/666 75/146/667 73/93/668
f 74/94/669 73/93/670 76/95/671
f 76/95/672 35/226/673 33/44/674
f 77/96/675 33/44/676 31/45/677
f 80/98/678 74/94/679 77/96/680
f 79/99/681 78/97/682 31/45/683
f 94/101/684 92/113/208 90/111/685
f 90/111/686 88/109/687 86/100/188
f 86/100/188 84/105/188 82/103/688
f 82/103/689 80/98/690 78/97/691
f 78/97/692 79/99/693 98/118/694
f 98/118/695 96/116/188 94/101/696
f 94/101/684 90/111/697 86/100/188
f 86/100/188 82/103/698 78/97/682
f 78/97/699 98/118/700 94/101/687
f 81/102/701 182/92/702 74/94/703
f 81/102/704 80/98/690 82/103/705
f 83/104/706 82/103/707 84/105/708
f 87/107/709 85/106/199 84/105/710
f 89/108/711 87/107/712 86/100/713
f 91/110/714 89/108/715 88/109/716
f 93/112/717 91/110/718 90/111/719
f 93/112/720 92/113/208 94/101/721
f 94/101/722 96/116/723 97/115/724
f 96/116/725 98/118/726 99/117/727
f 98/118/728 79/99/729 100/43/730
f 99/117/731 100/43/732 27/39/733
f 101/119/734 97/115/735 99/117/736
f 95/114/737 97/115/735 101/119/738
f 103/29/739 102/120/740 101/119/741
f 105/121/742 104/122/242 102/120/743
f 104/122/744 93/112/745 95/114/746
f 105/121/747 107/124/748 106/123/749
f 106/123/750 91/110/250 93/112/751
f 107/124/752 109/127/253 108/125/753
f 106/123/754 108/125/755 89/108/756
f 111/126/757 110/128/758 108/125/759
f 110/128/760 87/107/761 89/108/762
f 111/126/763 113/131/265 112/129/764
f 112/129/765 85/106/766 87/107/767
f 115/130/768 114/132/769 112/129/770
f 114/132/771 83/104/772 85/106/773
f 118/133/774 116/134/775 114/132/776
f 116/134/777 81/102/778 83/104/779
f 116/134/780 117/144/781 182/92/782
f 120/135/783 117/144/784 116/134/785
f 119/136/786 118/133/281 115/130/787
f 124/138/788 122/142/789 120/139/790
f 182/92/791 117/144/792 123/145/793
f 72/91/794 75/227/795 123/143/796
f 72/91/797 122/142/798 124/138/799
f 121/140/800 126/148/801 125/147/802
f 124/138/803 125/147/804 68/85/805
f 126/148/806 128/151/807 127/149/808
f 125/147/809 127/149/810 66/84/811
f 130/150/812 129/79/813 127/149/814
f 127/149/815 129/79/816 62/80/817
f 130/150/818 132/156/819 61/77/820
f 133/152/821 132/156/819 130/150/822
f 131/153/823 130/150/824 128/151/825
f 135/155/826 134/157/827 132/156/828
f 134/157/829 58/74/830 61/77/831
f 135/155/832 137/160/390 136/158/833
f 136/158/834 55/70/835 58/74/836
f 138/159/837 136/158/838 137/160/839
f 52/69/840 55/70/841 136/158/842
f 140/162/843 138/159/349 139/161/844
f 140/162/845 49/65/846 52/69/847
f 142/164/848 140/162/849 141/163/850
f 142/164/851 46/63/852 49/65/853
f 2/166/854 144/167/855 142/164/856
f 144/167/857 43/61/858 46/63/859
f 3/168/860 145/55/372 144/167/861
f 145/55/862 37/53/863 43/61/864
f 141/169/865 12/17/25 7/13/866
f 139/170/867 146/18/868 12/17/869
f 137/171/870 147/172/871 146/18/872
f 147/172/873 148/174/874 13/19/875
f 149/173/876 150/177/877 148/174/878
f 135/175/879 149/173/880 147/172/881
f 149/173/882 151/178/883 152/176/884
f 151/178/885 149/173/880 135/175/886
f 151/178/887 153/181/888 154/180/889
f 153/181/890 151/178/891 133/179/892
f 153/181/893 155/184/894 156/183/895
f 155/184/896 153/181/888 131/182/897
f 158/185/898 159/189/899 160/187/900
f 160/187/901 157/186/411 155/184/902
f 159/188/903 158/154/331 128/151/904
f 119/141/905 159/188/906 126/148/907
f 160/194/908 161/228/909 162/192/910
f 162/192/911 164/198/434 157/193/912
f 161/137/913 115/130/914 113/131/915
f 162/195/916 113/131/265 111/126/917
f 163/197/918 166/200/919 164/198/920
f 165/199/921 164/198/922 166/200/923
f 167/201/924 166/200/919 168/202/925
f 171/204/926 168/202/927 166/200/928
f 169/203/929 168/202/930 170/205/931
f 172/207/932 170/205/933 168/202/934
f 172/208/935 171/209/936 109/127/937
f 171/209/938 163/196/939 111/126/940
f 172/208/941 107/124/942 105/121/943
f 173/211/944 174/212/945 170/205/946
f 173/210/947 105/121/948 103/29/949
f 19/25/950 174/212/945 173/211/951
f 174/212/952 19/25/953 17/21/954
f 177/206/955 170/205/956 174/212/957
f 175/213/958 17/21/959 15/23/960
f 178/215/961 177/206/962 175/213/963
f 179/216/964 169/203/965 177/206/966
f 150/177/967 152/176/968 179/217/969
f 150/177/970 178/218/482 176/219/971
f 152/176/972 154/180/973 180/220/974
f 180/221/975 167/201/976 169/203/977
f 154/180/978 156/183/501 181/222/979
f 181/223/980 165/199/981 167/201/982
f 148/174/983 176/219/477 15/224/984
