# Blender 5.0.1
# www.blender.org

mtllib material.mtl
o edge_UB
v 0.100163 0.137076 -0.137396
v 0.100163 0.295334 -0.137396
v 0.100163 0.295334 -0.295654
v 0.100163 0.137076 -0.295654
v 0.097932 0.125858 -0.126178
v 0.097304 0.122702 -0.128039
v 0.097304 0.127719 -0.123022
v 0.097304 0.123084 -0.126119
v 0.097304 0.124171 -0.124492
v 0.097304 0.125799 -0.123404
v 0.089162 0.113592 -0.111216
v 0.089162 0.115499 -0.110836
v 0.076976 0.105413 -0.103069
v 0.089162 0.111976 -0.112296
v 0.076976 0.103816 -0.104136
v 0.089162 0.110896 -0.113913
v 0.076976 0.102749 -0.105733
v 0.089162 0.110516 -0.115820
v 0.076976 0.102374 -0.107617
v 0.089162 0.110516 -0.295654
v 0.076976 0.102374 -0.295654
v 0.088915 0.110764 -0.297379
v 0.097304 0.122702 -0.295654
v 0.096981 0.122836 -0.297379
v 0.096061 0.123217 -0.298841
v 0.099820 0.137110 -0.297379
v 0.098843 0.137206 -0.298841
v 0.099820 0.295334 -0.297379
v 0.099406 0.297102 -0.297422
v 0.098843 0.295334 -0.298841
v 0.097381 0.295334 -0.299819
v 0.098614 0.297012 -0.298612
v 0.097424 0.297102 -0.299404
v 0.098258 0.297936 -0.298257
v 0.097334 0.298292 -0.298612
v 0.098614 0.298292 -0.297333
v 0.098843 0.298521 -0.295654
v 0.097424 0.299084 -0.297422
v 0.095656 0.299498 -0.297379
v 0.097381 0.299498 -0.295654
v 0.095656 0.299841 -0.295654
v 0.097381 0.299498 -0.137670
v 0.098843 0.298521 -0.137526
v 0.095656 0.299841 -0.137840
v 0.094683 0.299498 -0.124108
v 0.096061 0.298521 -0.123537
v 0.093058 0.299841 -0.124781
v 0.087156 0.299498 -0.112843
v 0.088210 0.298521 -0.111788
v 0.085912 0.299841 -0.114086
v 0.075890 0.299498 -0.105315
v 0.076461 0.298521 -0.103938
v 0.075217 0.299841 -0.106940
v 0.062328 0.299498 -0.102618
v 0.062472 0.298521 -0.101155
v 0.062158 0.299841 -0.104342
v -0.062328 0.299498 -0.102617
v -0.062472 0.298521 -0.101155
v -0.062158 0.299841 -0.104342
v -0.075890 0.299498 -0.105315
v -0.076461 0.298521 -0.103938
v -0.087156 0.299498 -0.112842
v -0.075217 0.299841 -0.106940
v -0.085912 0.299841 -0.114086
v -0.093058 0.299841 -0.124781
v -0.094683 0.299498 -0.124108
v -0.095656 0.299841 -0.137840
v -0.097381 0.299498 -0.137670
v -0.095656 0.299841 -0.295654
v -0.097381 0.299498 -0.295654
v -0.095656 0.299498 -0.297379
v -0.097424 0.299084 -0.297422
v -0.095656 0.298521 -0.298841
v -0.095656 0.297059 -0.299819
v -0.097334 0.298292 -0.298612
v 0.095656 0.298521 -0.298841
v 0.095656 0.297059 -0.299819
v 0.095656 0.295334 -0.300162
v 0.095656 0.137520 -0.300162
v -0.095656 0.295334 -0.300162
v -0.097381 0.295334 -0.299819
v -0.095656 0.137520 -0.300162
v -0.097381 0.137350 -0.299819
v -0.093058 0.124461 -0.300162
v -0.094683 0.123788 -0.299819
v -0.085912 0.113766 -0.300162
v -0.087156 0.112522 -0.299819
v -0.075217 0.106620 -0.300162
v -0.075890 0.104995 -0.299819
v -0.062158 0.104022 -0.300162
v -0.062328 0.102297 -0.299819
v 0.062158 0.104022 -0.300162
v 0.062328 0.102297 -0.299819
v 0.075217 0.106620 -0.300162
v 0.075890 0.104995 -0.299819
v 0.085912 0.113766 -0.300162
v 0.087156 0.112522 -0.299819
v 0.093058 0.124461 -0.300162
v 0.094683 0.123788 -0.299819
v 0.097381 0.137350 -0.299819
v 0.088210 0.111468 -0.298841
v 0.076461 0.103618 -0.298841
v 0.076842 0.102697 -0.297379
v 0.062472 0.100835 -0.298841
v 0.062568 0.099858 -0.297379
v -0.062472 0.100835 -0.298841
v -0.062568 0.099858 -0.297379
v -0.076461 0.103617 -0.298841
v -0.076842 0.102697 -0.297379
v -0.088210 0.111468 -0.298841
v -0.088915 0.110764 -0.297379
v -0.096061 0.123217 -0.298841
v -0.096981 0.122836 -0.297379
v -0.098843 0.137206 -0.298841
v -0.099820 0.137110 -0.297379
v -0.098843 0.295334 -0.298841
v -0.098614 0.297012 -0.298612
v -0.099820 0.295334 -0.297379
v -0.100163 0.295334 -0.295654
v -0.099406 0.297102 -0.297422
v -0.099820 0.297059 -0.295654
v -0.098614 0.298292 -0.297333
v -0.098258 0.297936 -0.298257
v -0.098843 0.298521 -0.295654
v -0.098843 0.298521 -0.137526
v -0.099820 0.297059 -0.137430
v -0.096061 0.298521 -0.123537
v -0.096981 0.297059 -0.123156
v -0.088210 0.298521 -0.111788
v -0.088914 0.297059 -0.111084
v -0.089162 0.295334 -0.110836
v -0.076842 0.297059 -0.103017
v -0.076976 0.295334 -0.102694
v -0.062568 0.297059 -0.100178
v -0.062602 0.295334 -0.099835
v 0.062568 0.297059 -0.100178
v 0.062602 0.295334 -0.099835
v 0.076842 0.297059 -0.103017
v 0.076976 0.295334 -0.102694
v 0.088915 0.297059 -0.111084
v 0.089162 0.295334 -0.110836
v 0.096981 0.297059 -0.123156
v 0.097304 0.295334 -0.123022
v 0.099820 0.297059 -0.137430
v 0.099820 0.297059 -0.295654
v 0.076976 0.107297 -0.102694
v 0.062602 0.104396 -0.099835
v 0.062602 0.102528 -0.100207
v -0.062602 0.104396 -0.099835
v -0.062602 0.102528 -0.100207
v -0.076976 0.107297 -0.102694
v -0.076976 0.105413 -0.103069
v -0.089162 0.115499 -0.110836
v -0.089162 0.113592 -0.111216
v -0.097304 0.127719 -0.123022
v -0.097304 0.125799 -0.123404
v -0.097932 0.125858 -0.126178
v -0.097304 0.295334 -0.123022
v -0.100163 0.295334 -0.137396
v -0.100163 0.137076 -0.137396
v -0.100163 0.137076 -0.295654
v -0.097304 0.122702 -0.295654
v -0.089162 0.110516 -0.295654
v -0.097304 0.122702 -0.128039
v -0.097304 0.123084 -0.126119
v -0.089162 0.110516 -0.115820
v -0.089162 0.110895 -0.113913
v -0.076976 0.102374 -0.107617
v -0.076976 0.102749 -0.105733
v -0.062602 0.099515 -0.104716
v -0.076976 0.102374 -0.295654
v -0.062602 0.099515 -0.295654
v 0.062602 0.099515 -0.295654
v 0.062602 0.099515 -0.104716
v 0.062602 0.099886 -0.102848
v 0.062602 0.100944 -0.101265
v -0.062602 0.099886 -0.102848
v -0.062602 0.100944 -0.101265
v -0.076976 0.103816 -0.104136
v -0.089162 0.111976 -0.112296
v -0.097304 0.124171 -0.124492
v -0.097424 0.297102 -0.299404
vn 0.9266 0.0948 0.3640
vn 0.9822 -0.1264 0.1392
vn 0.9999 -0.0062 0.0153
vn 0.9995 0.0039 0.0313
vn 0.9997 -0.0158 0.0158
vn 1.0000 0.0022 -0.0022
vn 0.9995 -0.0313 -0.0039
vn 0.9996 -0.0165 0.0219
vn 0.9250 -0.3714 0.0807
vn 0.9268 -0.3628 -0.0970
vn 0.9217 -0.3880 0.0006
vn 0.9902 -0.0986 0.0986
vn 0.8977 -0.4071 0.1686
vn 0.8977 -0.1686 0.4071
vn 0.9217 -0.0007 0.3880
vn 0.9090 -0.2947 0.2947
vn 0.7854 -0.4006 0.4719
vn 0.9067 -0.2986 0.2978
vn 0.7069 -0.2801 0.6494
vn 0.8953 -0.1729 0.4105
vn 0.9216 -0.0007 0.3881
vn 0.3503 -0.2805 0.8936
vn 0.7899 -0.2456 0.5618
vn 0.7039 -0.0015 0.7103
vn 0.4413 -0.5455 0.7125
vn 0.8129 -0.4187 0.4048
vn 0.7950 -0.2322 0.5605
vn 0.4851 -0.8131 0.3217
vn 0.8240 -0.5163 0.2332
vn 0.5076 -0.6093 0.6092
vn 0.7975 -0.5611 0.2217
vn 0.9273 -0.2797 0.2486
vn 0.8174 -0.4074 0.4073
vn 0.3889 -0.9212 -0.0135
vn 0.7811 -0.6237 -0.0298
vn 0.4779 -0.8116 0.3361
vn 0.7071 -0.7070 -0.0111
vn 0.9181 -0.3868 0.0865
vn 0.7950 -0.5604 0.2321
vn 0.6604 -0.7394 0.1311
vn 0.3802 -0.9249 0.0088
vn 0.7031 -0.7111 -0.0019
vn 0.8853 -0.4425 0.1432
vn 0.7033 -0.7109 0.0097
vn 0.9219 -0.3875 -0.0020
vn 0.3620 -0.8430 -0.3980
vn 0.7495 -0.6410 -0.1655
vn 0.3800 -0.9250 -0.0019
vn 0.6573 -0.6401 -0.3977
vn 0.9378 -0.3050 -0.1660
vn 0.7031 -0.7110 -0.0020
vn 0.8523 -0.3395 -0.3980
vn 0.9873 0.0552 -0.1492
vn 0.9219 -0.3874 -0.0020
vn 0.5439 -0.6669 -0.5092
vn 0.6375 -0.2771 -0.7189
vn 0.8518 -0.3525 -0.3876
vn 0.6473 -0.2536 -0.7188
vn 0.8611 0.0789 -0.5022
vn 0.9236 -0.0137 -0.3831
vn 0.9623 -0.1930 -0.1915
vn 0.9995 -0.0313 -0.0040
vn 0.7067 -0.0100 -0.7074
vn 0.8156 -0.1947 -0.5449
vn 0.9236 -0.0152 -0.3831
vn 0.9237 0.0016 -0.3831
vn 0.8726 0.3453 -0.3453
vn 0.6740 0.0692 -0.7355
vn 0.8231 0.4022 -0.4009
vn 0.9256 -0.0026 -0.3786
vn 0.3825 -0.0046 -0.9239
vn 0.5449 -0.1951 -0.8155
vn 0.7067 -0.0114 -0.7074
vn 0.4009 0.4022 -0.8231
vn 0.7356 0.0692 -0.6739
vn 0.3783 -0.0021 -0.9257
vn 0.3142 0.3972 -0.8623
vn 0.5218 0.6088 -0.5976
vn 0.6844 0.2501 -0.6848
vn 0.6676 0.2762 -0.6914
vn 0.5774 0.5773 -0.5773
vn 0.8726 0.3454 -0.3454
vn 0.3972 0.8623 -0.3142
vn 0.6088 0.5976 -0.5218
vn 0.2728 0.6683 -0.6920
vn 0.6676 0.6914 -0.2762
vn 0.7356 0.6739 -0.0692
vn 0.4009 0.8231 -0.4022
vn 0.3783 0.9257 0.0021
vn 0.8231 0.4009 -0.4022
vn 0.6740 0.7355 -0.0692
vn 0.9255 0.3786 0.0026
vn 0.4022 0.8231 -0.4009
vn 0.0688 0.6739 -0.7356
vn -0.0025 0.9257 -0.3782
vn 0.4280 0.9004 -0.0786
vn 0.0781 0.9004 -0.4280
vn -0.0144 0.9998 0.0141
vn 0.1892 0.9623 0.1951
vn 0.0017 1.0000 -0.0014
vn 0.3825 0.9239 0.0060
vn 0.5431 0.8167 0.1951
vn 0.3825 0.9239 0.0046
vn 0.7067 0.7074 0.0114
vn 0.6353 0.7672 -0.0882
vn 0.3504 0.9276 0.1294
vn 0.6491 0.7119 0.2681
vn 0.3401 0.9360 -0.0910
vn 0.0041 0.9999 -0.0159
vn 0.3514 0.9250 0.1448
vn 0.3397 0.9277 0.1551
vn 0.3822 0.7700 0.5108
vn 0.6491 0.7119 0.2682
vn 0.3480 0.9363 0.0475
vn 0.0101 0.9999 -0.0134
vn 0.2691 0.9247 0.2691
vn 0.5108 0.7700 0.3823
vn 0.1551 0.9277 0.3396
vn 0.2682 0.7119 0.6491
vn 0.3037 0.9360 0.1780
vn 0.0145 0.9999 -0.0085
vn 0.1448 0.9250 0.3513
vn 0.1294 0.9276 0.3505
vn -0.0856 0.7660 0.6371
vn 0.2681 0.7119 0.6491
vn -0.0159 0.9999 0.0041
vn -0.0895 0.9358 0.3411
vn 0.1448 0.9250 0.3514
vn -0.1950 0.8170 0.5426
vn -0.0057 0.9239 0.3825
vn -0.0141 0.7074 0.7066
vn -0.1951 0.9625 0.1886
vn 0.0018 1.0000 0.0013
vn -0.0075 0.9239 0.3825
vn 0.0855 0.7660 0.6371
vn -0.1294 0.9276 0.3505
vn -0.2681 0.7119 0.6491
vn 0.0894 0.9357 0.3411
vn 0.0159 0.9999 0.0041
vn -0.1448 0.9250 0.3513
vn -0.1570 0.7706 0.6177
vn -0.2544 0.9274 0.2742
vn -0.4968 0.7116 0.4969
vn -0.0475 0.9363 0.3480
vn 0.0134 0.9999 0.0101
vn -0.2691 0.9247 0.2691
vn -0.0000 1.0000 -0.0000
vn 0.0003 1.0000 0.0013
vn 0.0014 1.0000 -0.0009
vn -0.3475 0.9239 0.1602
vn 0.0330 0.9940 0.1038
vn -0.0003 1.0000 0.0001
vn -0.3841 0.9230 0.0216
vn -0.0092 0.9940 0.1087
vn -0.0016 1.0000 -0.0000
vn -0.3828 0.9238 -0.0006
vn -0.1914 0.9623 -0.1935
vn -0.0016 1.0000 -0.0018
vn -0.0782 0.9004 -0.4280
vn -0.4280 0.9004 -0.0786
vn 0.0144 0.9998 0.0141
vn 0.1950 0.9623 -0.1896
vn 0.0003 1.0000 -0.0019
vn 0.0017 0.9239 -0.3826
vn -0.0689 0.6739 -0.7356
vn -0.4022 0.8231 -0.4009
vn 0.0024 0.9257 -0.3782
vn 0.1950 0.8165 -0.5434
vn 0.0005 0.9239 -0.3827
vn 0.0015 0.7071 -0.7071
vn -0.4022 0.4009 -0.8231
vn -0.0689 0.7356 -0.6739
vn 0.0024 0.3782 -0.9257
vn 0.1951 0.5464 -0.8145
vn 0.0003 0.7071 -0.7071
vn 0.0017 0.3827 -0.9239
vn 0.0689 0.7356 -0.6739
vn 0.4022 0.4009 -0.8231
vn -0.0024 0.3782 -0.9257
vn 0.0782 0.4280 -0.9004
vn 0.4280 0.0785 -0.9004
vn -0.0144 -0.0141 -0.9998
vn 0.1933 0.1932 -0.9619
vn 0.0005 0.3827 -0.9239
vn 0.0015 0.0019 -1.0000
vn 0.0017 0.0014 -1.0000
vn 0.1913 -0.1951 -0.9619
vn 0.3825 -0.0061 -0.9240
vn -0.0003 -0.0001 -1.0000
vn 0.0008 0.0022 -1.0000
vn 0.0002 -0.0003 -1.0000
vn -0.4280 0.0786 -0.9004
vn -0.0781 0.4280 -0.9004
vn 0.0144 -0.0141 -0.9998
vn -0.1892 -0.1951 -0.9624
vn -0.0017 0.0014 -1.0000
vn -0.3825 -0.0060 -0.9240
vn -0.3401 0.0910 -0.9360
vn -0.0041 0.0159 -0.9999
vn -0.3514 -0.1448 -0.9250
vn -0.2818 -0.2596 -0.9237
vn -0.0833 0.0702 -0.9940
vn -0.0002 -0.0002 -1.0000
vn -0.1601 -0.3474 -0.9239
vn -0.1038 0.0331 -0.9940
vn -0.0001 -0.0003 -1.0000
vn -0.0231 -0.3841 -0.9230
vn -0.1087 -0.0093 -0.9940
vn -0.0000 -0.0013 -1.0000
vn 0.0057 -0.3826 -0.9239
vn 0.1938 -0.1914 -0.9622
vn -0.0000 -0.0014 -1.0000
vn -0.0894 -0.3411 -0.9358
vn -0.0159 -0.0041 -0.9999
vn 0.1448 -0.3514 -0.9250
vn 0.0145 0.0085 -0.9999
vn 0.3037 -0.1780 -0.9360
vn 0.0101 0.0134 -0.9999
vn 0.3480 -0.0474 -0.9363
vn 0.2691 -0.2691 -0.9247
vn 0.0041 0.0159 -0.9999
vn 0.3401 0.0910 -0.9360
vn 0.3514 -0.1448 -0.9250
vn 0.3505 -0.1294 -0.9276
vn 0.6353 0.0882 -0.7672
vn 0.6491 -0.2681 -0.7119
vn 0.3823 -0.5108 -0.7700
vn 0.3396 -0.1551 -0.9277
vn 0.6491 -0.2682 -0.7119
vn 0.1551 -0.3397 -0.9277
vn 0.5108 -0.3823 -0.7700
vn 0.2682 -0.6491 -0.7119
vn 0.2471 -0.8242 -0.5096
vn 0.4827 -0.5007 -0.7185
vn 0.6518 -0.6519 -0.3874
vn -0.0758 -0.8628 -0.4998
vn 0.2537 -0.6473 -0.7188
vn 0.3524 -0.8518 -0.3876
vn -0.0855 -0.6371 -0.7660
vn 0.1294 -0.3505 -0.9276
vn 0.2681 -0.6491 -0.7119
vn 0.0170 -0.9236 -0.3829
vn 0.1961 -0.8153 -0.5448
vn 0.0142 -0.7067 -0.7074
vn 0.1950 -0.5426 -0.8170
vn 0.0141 -0.7066 -0.7075
vn -0.0318 -0.9265 -0.3749
vn -0.3862 -0.7071 -0.5923
vn -0.0142 -0.7067 -0.7074
vn -0.0283 -0.7106 -0.7030
vn -0.2691 -0.4040 -0.8743
vn -0.0075 -0.3826 -0.9239
vn -0.6670 -0.5439 -0.5092
vn -0.2771 -0.6375 -0.7189
vn -0.3525 -0.8518 -0.3876
vn -0.5108 -0.3823 -0.7700
vn -0.1551 -0.3397 -0.9277
vn -0.2682 -0.6491 -0.7119
vn -0.6634 -0.6456 -0.3784
vn -0.7740 -0.2261 -0.5914
vn -0.4969 -0.4969 -0.7115
vn -0.6177 -0.1570 -0.7706
vn -0.2742 -0.2544 -0.9274
vn -0.4969 -0.4968 -0.7116
vn -0.8611 0.0789 -0.5022
vn -0.6473 -0.2537 -0.7188
vn -0.8518 -0.3525 -0.3876
vn -0.6353 0.0881 -0.7672
vn -0.3505 -0.1294 -0.9276
vn -0.6491 -0.2681 -0.7119
vn -0.8144 -0.1947 -0.5467
vn -0.7067 -0.0100 -0.7075
vn -0.9236 -0.0151 -0.3831
vn -0.5431 -0.1951 -0.8167
vn -0.3825 -0.0046 -0.9239
vn -0.7067 -0.0114 -0.7075
vn -0.7356 0.0692 -0.6739
vn -0.4009 0.4022 -0.8231
vn -0.3783 -0.0021 -0.9257
vn -0.8231 0.4022 -0.4009
vn -0.6740 0.0692 -0.7355
vn -0.9256 -0.0026 -0.3786
vn -0.9237 0.0016 -0.3830
vn -1.0000 0.0022 -0.0022
vn -0.8726 0.3453 -0.3454
vn -0.9619 -0.1929 -0.1935
vn -0.9236 -0.0138 -0.3831
vn -0.9995 -0.0313 -0.0039
vn -0.6740 0.7355 -0.0692
vn -0.8231 0.4009 -0.4022
vn -0.9256 0.3786 0.0026
vn -0.9237 0.3830 -0.0016
vn -0.8726 0.3453 -0.3453
vn -0.8726 0.3454 -0.3454
vn -0.6676 0.6914 -0.2762
vn -0.5774 0.5773 -0.5773
vn -0.6676 0.2762 -0.6914
vn -0.5774 0.5773 -0.5774
vn -0.3971 0.3142 -0.8623
vn -0.6087 0.5218 -0.5976
vn -0.2728 0.6920 -0.6683
vn -0.3142 0.8623 -0.3972
vn -0.5218 0.5976 -0.6088
vn -0.6844 0.6848 -0.2501
vn -0.4009 0.8231 -0.4022
vn -0.7356 0.6739 -0.0692
vn -0.3783 0.9257 0.0021
vn -0.9237 0.3831 -0.0001
vn -0.8154 0.5448 -0.1959
vn -0.7072 0.7070 -0.0018
vn -0.7071 0.7071 -0.0004
vn -0.5449 0.8155 -0.1953
vn -0.3828 0.9238 -0.0021
vn -0.9267 0.3747 0.0282
vn -0.7071 0.5923 0.3862
vn -0.7067 0.7074 0.0114
vn -0.7109 0.7029 0.0255
vn -0.4040 0.8743 0.2691
vn -0.3825 0.9239 0.0061
vn -0.8503 0.3786 0.3655
vn -0.5057 0.5915 0.6280
vn -0.6492 0.7118 0.2682
vn -0.6484 0.7069 0.2827
vn -0.2708 0.8737 0.4040
vn -0.3514 0.9249 0.1449
vn -0.6456 0.3784 0.6634
vn -0.2261 0.5914 0.7740
vn -0.4969 0.7115 0.4969
vn -0.2983 0.1724 0.9388
vn -0.6402 0.3977 0.6573
vn -0.7031 0.0020 0.7111
vn -0.9171 -0.0088 0.3985
vn -0.6299 0.2185 0.7453
vn -0.8518 0.3875 0.3525
vn 0.0655 0.1564 0.9855
vn -0.3396 0.3979 0.8523
vn -0.3799 0.0019 0.9250
vn 0.0758 0.4998 0.8628
vn -0.2537 0.7188 0.6473
vn -0.3524 0.3876 0.8518
vn -0.1943 0.1941 0.9616
vn -0.0170 0.3832 0.9235
vn -0.0203 0.0018 0.9998
vn -0.1955 0.5471 0.8139
vn -0.0124 0.7075 0.7066
vn -0.0188 0.3831 0.9235
vn 0.3395 0.3980 0.8523
vn -0.0655 0.1564 0.9855
vn 0.3800 0.0019 0.9250
vn 0.2536 0.7188 0.6473
vn -0.0758 0.4998 0.8628
vn 0.3525 0.3876 0.8518
vn 0.6401 0.3977 0.6573
vn 0.2983 0.1725 0.9388
vn 0.7031 0.0020 0.7111
vn 0.4827 0.7185 0.5007
vn 0.2471 0.5096 0.8241
vn 0.6519 0.3874 0.6519
vn 0.8430 0.3980 0.3620
vn 0.6330 0.1747 0.7542
vn 0.9219 0.0021 0.3874
vn 0.8242 0.5096 0.2471
vn 0.5007 0.7185 0.4827
vn 0.9873 0.1493 -0.0552
vn 0.8523 0.3979 0.3396
vn 0.8611 0.5022 -0.0789
vn 0.6473 0.7188 0.2537
vn 0.8518 0.3876 0.3525
vn 0.9619 0.1935 0.1929
vn 0.9236 0.3831 0.0138
vn 0.8144 0.5467 0.1947
vn 0.7067 0.7074 0.0100
vn 0.9236 0.3831 0.0151
vn 0.9237 0.3830 -0.0016
vn 0.7033 -0.0097 0.7109
vn 0.8853 -0.1431 0.4425
vn 0.9219 0.0020 0.3875
vn 0.3802 -0.0089 0.9249
vn 0.6604 -0.1312 0.7394
vn 0.7031 0.0019 0.7111
vn 0.0205 -0.0073 0.9998
vn 0.3475 -0.1090 0.9313
vn 0.3799 0.0018 0.9250
vn -0.0544 -0.2010 0.9781
vn 0.4673 -0.3521 0.8109
vn 0.3806 -0.0018 0.9247
vn -0.1188 -0.0407 0.9921
vn 0.0251 -0.3828 0.9235
vn 0.0204 -0.0020 0.9998
vn -0.0196 -0.0058 0.9998
vn 0.0185 -0.0088 0.9998
vn 0.0203 0.0018 0.9998
vn -0.0332 0.0114 0.9994
vn -0.5145 -0.0803 0.8537
vn -0.0270 -0.3825 0.9236
vn -0.3475 -0.1089 0.9313
vn -0.0205 -0.0073 0.9998
vn -0.3799 0.0018 0.9250
vn -0.3889 0.0135 0.9212
vn -0.7811 0.0298 0.6237
vn -0.4779 -0.3361 0.8116
vn -0.6604 -0.1311 0.7394
vn -0.3802 -0.0088 0.9249
vn -0.7031 0.0019 0.7111
vn -0.7071 0.0111 0.7070
vn -0.9181 -0.0865 0.3868
vn -0.7950 -0.2321 0.5605
vn -0.8853 -0.1432 0.4425
vn -0.7033 -0.0097 0.7109
vn -0.9219 0.0020 0.3875
vn -0.8977 -0.1686 0.4071
vn -0.9217 -0.0006 0.3880
vn -0.9902 -0.0986 0.0986
vn -0.9996 -0.0219 0.0165
vn -0.9250 -0.0807 0.3714
vn -0.9268 0.0970 0.3628
vn -0.9990 -0.0057 0.0435
vn -0.8671 0.2190 0.4474
vn -0.9236 0.3830 0.0152
vn -1.0000 0.0022 -0.0007
vn -0.9618 0.1913 -0.1960
vn -0.9995 0.0039 0.0313
vn -1.0000 0.0021 -0.0021
vn -0.9997 -0.0158 0.0158
vn -0.9266 -0.3640 -0.0948
vn -0.9822 -0.1392 0.1264
vn -0.9999 -0.0153 0.0062
vn -0.9873 0.0552 -0.1493
vn -0.8523 -0.3396 -0.3979
vn -0.9219 -0.3874 -0.0021
vn -0.7115 -0.7026 0.0095
vn -0.9297 -0.2964 -0.2185
vn -0.6519 -0.6519 -0.3873
vn -0.7033 -0.7109 0.0097
vn -0.8853 -0.4425 0.1432
vn -0.9219 -0.3875 -0.0020
vn -0.9217 -0.3880 0.0007
vn -0.8977 -0.4071 0.1686
vn -0.9902 -0.0987 0.0986
vn -0.9181 -0.3868 0.0865
vn -0.7071 -0.7070 -0.0111
vn -0.7950 -0.5605 0.2321
vn -0.7811 -0.6237 -0.0298
vn -0.3889 -0.9212 -0.0135
vn -0.4779 -0.8116 0.3361
vn -0.3802 -0.9249 0.0089
vn -0.6604 -0.7394 0.1312
vn -0.7031 -0.7111 -0.0019
vn -0.5145 -0.8537 0.0804
vn -0.0332 -0.9994 -0.0114
vn -0.0270 -0.9235 0.3825
vn -0.0205 -0.9998 0.0073
vn -0.3475 -0.9313 0.1090
vn -0.3799 -0.9250 -0.0018
vn -0.0325 -0.9994 0.0084
vn -0.4474 -0.8671 -0.2190
vn -0.0188 -0.9236 -0.3830
vn -0.3910 -0.9204 0.0094
vn -0.7453 -0.6299 -0.2185
vn -0.3525 -0.8518 -0.3875
vn 0.1943 -0.9616 -0.1941
vn 0.0170 -0.9235 -0.3832
vn 0.0203 -0.9998 -0.0018
vn 0.0196 -0.9998 0.0058
vn -0.0185 -0.9998 0.0088
vn -0.0203 -0.9998 -0.0018
vn -0.0655 -0.9855 -0.1564
vn 0.3396 -0.8523 -0.3979
vn 0.3799 -0.9250 -0.0019
vn 0.3475 -0.9313 0.1089
vn 0.0205 -0.9998 0.0073
vn 0.3799 -0.9250 -0.0018
vn 0.0332 -0.9994 -0.0114
vn 0.5145 -0.8537 0.0803
vn 0.0270 -0.9236 0.3825
vn -0.1270 -0.9323 0.3388
vn 0.0185 -0.9998 0.0018
vn 0.0269 -0.9236 0.3825
vn 0.0392 -0.9287 0.3688
vn 0.5461 -0.7353 0.4014
vn 0.0292 -0.7068 0.7068
vn -0.1294 -0.7325 0.6683
vn 0.0251 -0.9237 0.3824
vn -0.5461 -0.7353 0.4014
vn -0.0391 -0.9287 0.3688
vn -0.0292 -0.7068 0.7068
vn -0.0392 -0.3688 0.9287
vn -0.5461 -0.4014 0.7353
vn -0.1270 -0.4196 0.8988
vn 0.0273 -0.7070 0.7067
vn 0.0269 -0.3826 0.9235
vn -0.4851 -0.3217 0.8131
vn -0.8240 -0.2332 0.5163
vn -0.5076 -0.6092 0.6093
vn -0.8240 -0.5163 0.2332
vn -0.4851 -0.8131 0.3217
vn -0.5076 -0.6093 0.6092
vn -0.7975 -0.2217 0.5611
vn -0.9273 -0.2486 0.2797
vn -0.8174 -0.4073 0.4074
vn -0.9273 -0.2797 0.2486
vn -0.7975 -0.5611 0.2217
vn -0.8174 -0.4074 0.4073
vn -0.9090 -0.2947 0.2947
vn -0.0397 -0.5750 0.8172
vn 0.4976 -0.6233 0.6032
vn 0.4778 -0.3362 0.8116
vn 0.9826 -0.1552 0.1021
vn 0.9995 0.0039 0.0314
vn 0.9220 -0.0102 0.3871
vn 0.9273 0.1013 0.3604
vn 0.9973 -0.0368 0.0629
vn 0.9220 -0.3871 0.0102
vn 0.9995 -0.0314 -0.0039
vn 0.9826 -0.1021 0.1552
vn 0.9791 -0.1197 -0.1644
vn 0.9290 -0.3511 -0.1170
vn 0.7975 -0.2217 0.5610
vn 0.8174 -0.4073 0.4074
vn 0.9273 -0.2486 0.2797
vn 0.7071 0.0111 0.7070
vn 0.7950 -0.2321 0.5605
vn 0.9181 -0.0865 0.3868
vn 0.3889 0.0135 0.9212
vn 0.4779 -0.3361 0.8116
vn 0.7811 0.0298 0.6237
vn 0.4851 -0.3217 0.8131
vn 0.5076 -0.6092 0.6093
vn 0.8240 -0.2332 0.5163
vn 0.4413 -0.7126 0.5454
vn 0.7950 -0.5605 0.2322
vn 0.8129 -0.4048 0.4187
vn 0.7854 -0.4719 0.4006
vn 0.9067 -0.2978 0.2986
vn 0.3503 -0.8936 0.2805
vn 0.7039 -0.7103 0.0015
vn 0.7899 -0.5618 0.2456
vn 0.7069 -0.6494 0.2802
vn 0.9216 -0.3881 0.0007
vn 0.8953 -0.4105 0.1729
vn 0.7037 -0.7104 -0.0082
vn 0.3807 -0.9247 0.0018
vn 0.4009 -0.9111 -0.0964
vn 0.9215 -0.3883 -0.0094
vn 0.7172 -0.6901 -0.0974
vn 0.2964 -0.9297 -0.2185
vn 0.6519 -0.6519 -0.3873
vn 0.6945 -0.7195 0.0089
vn 0.6299 -0.7453 -0.2185
vn 0.8518 -0.3525 -0.3875
vn 0.9171 -0.3985 0.0088
vn 0.8671 -0.4474 -0.2190
vn 0.9236 -0.0152 -0.3830
vn 0.9990 -0.0435 0.0057
vn 0.6634 -0.6456 -0.3784
vn 0.4969 -0.4969 -0.7115
vn 0.7740 -0.2261 -0.5914
vn 0.7071 -0.3862 -0.5924
vn 0.9267 -0.0282 -0.3747
vn 0.9618 0.1960 -0.1913
vn 0.9237 0.0016 -0.3830
vn 1.0000 0.0007 -0.0021
vn 0.8154 0.1958 -0.5448
vn 0.7072 0.0018 -0.7070
vn 0.9237 0.0001 -0.3831
vn 0.7653 -0.0557 -0.6413
vn 0.6620 0.2806 -0.6950
vn 0.9164 0.2459 -0.3157
vn 0.5449 0.1953 -0.8155
vn 0.3828 0.0021 -0.9238
vn 0.7071 0.0004 -0.7071
vn 0.3158 0.2459 -0.9164
vn 0.6713 0.2807 -0.6860
vn 0.6414 -0.0557 -0.7652
vn 0.3972 0.3143 -0.8623
vn 0.2729 0.6920 -0.6683
vn 0.6088 0.5218 -0.5976
vn 0.3142 0.8623 -0.3971
vn 0.6845 0.6848 -0.2501
vn 0.5218 0.5976 -0.6088
vn 0.6414 0.7652 0.0557
vn 0.6713 0.6860 -0.2807
vn 0.3158 0.9164 -0.2459
vn 0.9164 0.3157 -0.2459
vn 0.6620 0.6950 -0.2806
vn 0.7653 0.6413 0.0557
vn 0.2459 0.9164 -0.3158
vn 0.3031 0.6692 -0.6784
vn -0.0560 0.7653 -0.6412
vn 0.3060 0.9513 0.0369
vn 0.3580 0.8624 -0.3580
vn -0.0372 0.9514 -0.3057
vn 0.3827 0.9239 -0.0007
vn 0.0015 1.0000 -0.0018
vn 0.1935 0.9618 -0.1934
vn 0.7071 0.7071 -0.0004
vn 0.3828 0.9238 -0.0021
vn 0.5467 0.8142 -0.1953
vn 0.7109 0.7029 0.0255
vn 0.3825 0.9239 0.0061
vn 0.4040 0.8743 0.2691
vn 0.3842 0.9230 0.0216
vn 0.0017 1.0000 -0.0000
vn 0.0093 0.9940 0.1087
vn 0.4773 0.8736 0.0947
vn 0.2692 0.9247 0.2692
vn 0.5100 0.7066 0.4906
vn 0.3474 0.9239 0.1602
vn 0.0003 1.0000 0.0001
vn -0.0331 0.9941 0.1038
vn 0.4906 0.7066 0.5100
vn 0.0947 0.8737 0.4772
vn 0.2595 0.9237 0.2818
vn 0.0002 1.0000 0.0002
vn -0.0702 0.9941 0.0832
vn 0.2691 0.8743 0.4041
vn 0.0075 0.9239 0.3826
vn 0.0283 0.7030 0.7106
vn 0.1087 0.9940 0.0093
vn -0.0000 1.0000 0.0014
vn 0.0231 0.9230 0.3841
vn 0.0123 0.7074 0.7067
vn 0.1953 0.8139 0.5472
vn 0.0057 0.9239 0.3826
vn -0.0000 1.0000 0.0013
vn 0.1938 0.9617 0.1941
vn -0.0283 0.7030 0.7107
vn -0.0075 0.9239 0.3826
vn -0.2691 0.8743 0.4040
vn -0.0231 0.9230 0.3841
vn -0.1087 0.9940 0.0093
vn -0.2827 0.7069 0.6484
vn -0.1449 0.9249 0.3514
vn -0.4040 0.8737 0.2708
vn -0.1602 0.9239 0.3474
vn -0.0001 1.0000 0.0003
vn -0.1038 0.9941 -0.0330
vn 0.0009 1.0000 0.0014
vn -0.0021 1.0000 -0.0010
vn 0.0003 1.0000 -0.0023
vn -0.0002 1.0000 0.0002
vn 0.0013 1.0000 0.0002
vn -0.0013 1.0000 0.0002
vn 0.0003 1.0000 -0.0002
vn -0.0002 1.0000 0.0003
vn 0.0002 1.0000 -0.0017
vn 0.0017 1.0000 0.0003
vn -0.0008 1.0000 -0.0022
vn 0.0013 1.0000 0.0003
vn -0.0012 1.0000 0.0006
vn 0.0007 1.0000 -0.0015
vn -0.3480 0.9363 0.0475
vn -0.2692 0.9247 0.2691
vn -0.0101 0.9999 -0.0134
vn -0.3401 0.9360 -0.0910
vn -0.3514 0.9250 0.1448
vn -0.0042 0.9999 -0.0159
vn -0.1913 0.9619 0.1951
vn -0.3824 0.9240 0.0061
vn -0.0016 1.0000 -0.0014
vn 0.0372 0.9514 -0.3057
vn -0.3580 0.8624 -0.3579
vn -0.3060 0.9513 0.0369
vn -0.0006 0.9239 -0.3826
vn -0.0015 1.0000 -0.0019
vn -0.1933 0.9619 -0.1932
vn 0.0560 0.7653 -0.6412
vn -0.3030 0.6692 -0.6784
vn -0.2459 0.9164 -0.3158
vn -0.0003 0.7071 -0.7071
vn -0.0017 0.9239 -0.3827
vn -0.1951 0.8145 -0.5464
vn -0.2459 0.3158 -0.9164
vn -0.3031 0.6784 -0.6693
vn 0.0560 0.6412 -0.7653
vn -0.0005 0.3827 -0.9239
vn -0.0015 0.7071 -0.7071
vn -0.1950 0.5434 -0.8165
vn -0.0560 0.6412 -0.7653
vn 0.3030 0.6784 -0.6692
vn 0.2459 0.3158 -0.9164
vn -0.0372 0.3058 -0.9514
vn 0.3580 0.3580 -0.8624
vn 0.3060 -0.0369 -0.9513
vn -0.0003 0.0018 -1.0000
vn -0.0017 0.3826 -0.9239
vn -0.1950 0.1896 -0.9623
vn 0.1914 0.1935 -0.9623
vn 0.0015 0.0018 -1.0000
vn 0.3827 0.0006 -0.9239
vn 0.0003 -0.0000 -1.0000
vn -0.0013 -0.0002 -1.0000
vn 0.0013 -0.0002 -1.0000
vn -0.0003 0.0002 -1.0000
vn -0.0002 0.0016 -1.0000
vn -0.0009 -0.0014 -1.0000
vn -0.0015 0.0018 -1.0000
vn 0.0021 0.0010 -1.0000
vn -0.0003 0.0023 -1.0000
vn 0.0017 -0.0000 -1.0000
vn -0.0000 -0.0003 -1.0000
vn 0.0002 0.0003 -1.0000
vn 0.0002 -0.0002 -1.0000
vn -0.0003 -0.0002 -1.0000
vn -0.0001 -0.0013 -1.0000
vn -0.0003 0.0001 -1.0000
vn -0.0015 0.0006 -1.0000
vn -0.0001 0.0023 -1.0000
vn 0.0003 -0.0001 -1.0000
vn -0.3060 -0.0369 -0.9513
vn -0.3580 0.3580 -0.8624
vn 0.0372 0.3057 -0.9514
vn -0.3827 0.0007 -0.9239
vn -0.1935 0.1934 -0.9618
vn -0.3842 -0.0216 -0.9230
vn -0.0016 -0.0000 -1.0000
vn -0.0093 -0.1087 -0.9940
vn -0.1780 -0.3037 -0.9360
vn -0.3513 -0.1448 -0.9250
vn 0.0085 -0.0145 -0.9999
vn -0.0474 -0.3480 -0.9363
vn -0.2691 -0.2691 -0.9248
vn 0.0134 -0.0101 -0.9999
vn 0.0895 -0.3411 -0.9358
vn -0.1448 -0.3514 -0.9250
vn 0.0159 -0.0041 -0.9999
vn -0.1950 -0.1913 -0.9620
vn -0.0075 -0.3825 -0.9239
vn 0.0018 -0.0013 -1.0000
vn 0.0231 -0.3841 -0.9230
vn 0.1087 -0.0093 -0.9940
vn -0.0703 -0.0832 -0.9940
vn 0.2595 -0.2818 -0.9237
vn -0.0330 -0.1038 -0.9940
vn 0.3474 -0.1601 -0.9239
vn 0.0093 -0.1087 -0.9940
vn 0.0016 -0.0000 -1.0000
vn 0.3841 -0.0216 -0.9230
vn 0.4041 -0.2691 -0.8743
vn 0.3825 -0.0061 -0.9239
vn 0.7108 -0.0255 -0.7029
vn 0.5100 -0.4906 -0.7066
vn 0.2692 -0.2692 -0.9247
vn 0.4772 -0.0947 -0.8736
vn 0.0947 -0.4773 -0.8736
vn 0.4906 -0.5100 -0.7066
vn 0.3655 -0.8504 -0.3785
vn 0.2682 -0.6491 -0.7118
vn 0.6280 -0.5057 -0.5915
vn 0.0318 -0.9265 -0.3749
vn 0.3862 -0.7071 -0.5923
vn 0.0283 -0.7106 -0.7030
vn 0.0075 -0.3826 -0.9239
vn 0.2691 -0.4040 -0.8743
vn -0.1955 -0.8154 -0.5449
vn -0.0188 -0.9235 -0.3831
vn -0.0124 -0.7066 -0.7075
vn -0.0123 -0.7067 -0.7074
vn -0.1953 -0.5472 -0.8139
vn 0.0758 -0.8628 -0.4998
vn -0.2536 -0.6473 -0.7188
vn 0.0856 -0.6371 -0.7660
vn -0.2681 -0.6491 -0.7119
vn -0.1294 -0.3504 -0.9276
vn -0.6456 -0.6634 -0.3784
vn -0.4968 -0.4969 -0.7115
vn -0.2261 -0.7741 -0.5913
vn -0.4906 -0.5100 -0.7066
vn -0.2692 -0.2692 -0.9247
vn -0.0947 -0.4773 -0.8736
vn -0.5439 -0.6669 -0.5092
vn -0.8517 -0.3525 -0.3876
vn -0.6375 -0.2771 -0.7189
vn -0.6484 -0.2827 -0.7069
vn -0.3514 -0.1448 -0.9249
vn -0.2708 -0.4041 -0.8737
vn -0.9267 -0.0282 -0.3747
vn -0.7067 -0.0115 -0.7074
vn -0.7071 -0.3863 -0.5923
vn -0.7108 -0.0255 -0.7029
vn -0.3826 -0.0061 -0.9239
vn -0.4040 -0.2690 -0.8743
vn -0.9237 0.0001 -0.3831
vn -0.7072 0.0018 -0.7070
vn -0.8166 0.1959 -0.5430
vn -0.7071 0.0004 -0.7071
vn -0.3828 0.0021 -0.9238
vn -0.5467 0.1953 -0.8142
vn -0.6414 -0.0557 -0.7652
vn -0.6713 0.2807 -0.6860
vn -0.3158 0.2459 -0.9164
vn -0.9164 0.2459 -0.3158
vn -0.6620 0.2806 -0.6950
vn -0.7653 -0.0556 -0.6413
vn -1.0000 0.0007 -0.0022
vn -0.9622 0.1960 -0.1892
vn -0.7653 0.6413 0.0557
vn -0.6620 0.6950 -0.2806
vn -0.9164 0.3158 -0.2459
vn -0.3142 0.3972 -0.8623
vn -0.6845 0.2501 -0.6848
vn -0.5218 0.6087 -0.5976
vn -0.3972 0.8623 -0.3142
vn -0.2729 0.6683 -0.6920
vn -0.6088 0.5976 -0.5218
vn -0.3158 0.9164 -0.2459
vn -0.6713 0.6860 -0.2807
vn -0.6414 0.7652 0.0557
vn -0.8156 0.5449 0.1947
vn -0.9236 0.3831 0.0152
vn -0.7067 0.7075 0.0100
vn -0.5449 0.8155 0.1951
vn -0.3825 0.9239 0.0046
vn -0.8611 0.5022 -0.0789
vn -0.8518 0.3876 0.3525
vn -0.6473 0.7188 0.2536
vn -0.6353 0.7672 -0.0882
vn -0.6491 0.7119 0.2681
vn -0.3504 0.9276 0.1294
vn -0.8241 0.5096 0.2471
vn -0.6519 0.3874 0.6519
vn -0.5007 0.7185 0.4827
vn -0.6177 0.7706 0.1570
vn -0.4969 0.7116 0.4968
vn -0.2742 0.9274 0.2544
vn -0.6669 0.5092 0.5439
vn -0.3525 0.3876 0.8517
vn -0.2771 0.7189 0.6375
vn -0.3910 -0.0094 0.9204
vn -0.3525 0.3876 0.8518
vn -0.7453 0.2185 0.6299
vn -0.9378 0.1660 0.3050
vn -0.7031 0.0020 0.7110
vn -0.6573 0.3977 0.6401
vn -0.0325 -0.0083 0.9994
vn -0.0188 0.3830 0.9235
vn -0.4474 0.2190 0.8671
vn -0.0318 0.3749 0.9265
vn -0.0142 0.7074 0.7067
vn -0.3862 0.5923 0.7071
vn 0.0186 0.0016 0.9998
vn 0.0188 0.3830 0.9236
vn 0.1963 0.1886 0.9622
vn 0.0170 0.3829 0.9236
vn 0.0141 0.7074 0.7067
vn 0.1961 0.5425 0.8169
vn 0.4474 0.2190 0.8671
vn 0.0188 0.3830 0.9235
vn 0.0325 -0.0084 0.9994
vn 0.3862 0.5924 0.7071
vn 0.0142 0.7074 0.7067
vn 0.0318 0.3749 0.9265
vn 0.7453 0.2185 0.6299
vn 0.3525 0.3875 0.8518
vn 0.3910 -0.0094 0.9203
vn 0.6280 0.5915 0.5057
vn 0.2682 0.7118 0.6491
vn 0.3655 0.3786 0.8503
vn 0.9297 0.2185 0.2964
vn 0.6519 0.3873 0.6519
vn 0.7115 -0.0094 0.7026
vn 0.8503 0.3786 0.3655
vn 0.6491 0.7118 0.2682
vn 0.5057 0.5915 0.6280
vn 0.9990 -0.0057 0.0435
vn 0.9236 0.3830 0.0152
vn 0.8671 0.2190 0.4474
vn 0.9267 0.3747 0.0281
vn 0.7067 0.7074 0.0115
vn 0.7071 0.5923 0.3863
vn 1.0000 0.0022 -0.0007
vn 0.9622 0.1892 -0.1960
vn 0.9237 0.3831 -0.0001
vn 0.7072 0.7070 -0.0018
vn 0.8166 0.5430 -0.1958
vn 0.7172 0.0974 0.6901
vn 0.9215 0.0094 0.3883
vn 0.4009 0.0964 0.9111
vn 0.3807 -0.0018 0.9247
vn 0.7037 0.0082 0.7104
vn 0.0423 0.0856 0.9954
vn 0.0204 -0.0019 0.9998
vn 0.3804 0.0079 0.9248
vn 0.0332 0.0114 0.9994
vn 0.0270 -0.3825 0.9235
vn 0.5145 -0.0804 0.8537
vn -0.0185 -0.0018 0.9998
vn -0.0269 -0.3825 0.9236
vn 0.1270 -0.3388 0.9323
vn -0.0185 0.0086 0.9998
vn -0.0204 -0.0019 0.9998
vn 0.0197 0.0057 0.9998
vn 0.0544 -0.2010 0.9781
vn -0.3806 -0.0019 0.9247
vn -0.4673 -0.3521 0.8109
vn -0.3804 0.0079 0.9248
vn -0.0423 0.0856 0.9954
vn -0.3503 -0.2805 0.8936
vn -0.7039 -0.0015 0.7103
vn -0.7899 -0.2456 0.5618
vn -0.7037 0.0082 0.7104
vn -0.3807 -0.0018 0.9247
vn -0.4009 0.0964 0.9111
vn -0.7069 -0.2802 0.6494
vn -0.9216 -0.0007 0.3881
vn -0.8953 -0.1729 0.4105
vn -0.9215 0.0094 0.3883
vn -0.7171 0.0974 0.6901
vn -0.9220 -0.0102 0.3871
vn -0.9995 0.0039 0.0314
vn -0.9826 -0.1552 0.1021
vn -0.9791 0.1644 0.1197
vn -0.9290 0.1170 0.3511
vn -0.9873 0.1492 -0.0552
vn -0.9219 0.0021 0.3874
vn -0.8523 0.3980 0.3395
vn -0.9624 0.1914 0.1929
vn -0.9236 0.3831 0.0137
vn -0.9826 -0.1021 0.1552
vn -0.9995 -0.0314 -0.0039
vn -0.9220 -0.3871 0.0102
vn -0.9273 -0.3604 -0.1013
vn -0.9973 -0.0629 0.0368
vn -0.9990 -0.0435 0.0057
vn -0.9236 -0.0152 -0.3830
vn -0.8671 -0.4474 -0.2190
vn -0.6330 -0.7542 -0.1747
vn -0.8430 -0.3620 -0.3980
vn -0.7172 -0.6901 -0.0974
vn -0.7039 -0.7103 0.0015
vn -0.9215 -0.3883 -0.0094
vn -0.8953 -0.4105 0.1729
vn -0.9216 -0.3881 0.0007
vn -0.7069 -0.6494 0.2801
vn -0.7899 -0.5618 0.2456
vn -0.3503 -0.8936 0.2805
vn -0.4009 -0.9111 -0.0964
vn -0.3807 -0.9247 0.0018
vn -0.7037 -0.7104 -0.0082
vn -0.4673 -0.8109 0.3521
vn -0.3806 -0.9247 0.0018
vn 0.0544 -0.9781 0.2011
vn -0.0423 -0.9954 -0.0856
vn -0.0204 -0.9998 0.0019
vn -0.3804 -0.9248 -0.0079
vn 0.0655 -0.9855 -0.1564
vn -0.3800 -0.9250 -0.0019
vn -0.3395 -0.8523 -0.3980
vn -0.2983 -0.9388 -0.1724
vn -0.7031 -0.7111 -0.0020
vn -0.6401 -0.6573 -0.3977
vn -0.0186 -0.9998 -0.0016
vn -0.1963 -0.9622 -0.1886
vn 0.0185 -0.9998 -0.0086
vn 0.0204 -0.9998 0.0019
vn -0.0197 -0.9998 -0.0057
vn 0.0325 -0.9994 0.0083
vn 0.0188 -0.9235 -0.3830
vn 0.4474 -0.8671 -0.2190
vn 0.3804 -0.9248 -0.0079
vn 0.0423 -0.9954 -0.0856
vn -0.0544 -0.9781 0.2010
vn 0.3806 -0.9247 0.0019
vn 0.4673 -0.8109 0.3521
vn -0.0250 -0.9235 0.3828
vn -0.0204 -0.9998 0.0020
vn 0.1188 -0.9921 0.0407
vn -0.0397 -0.8172 0.5750
vn 0.4778 -0.8116 0.3362
vn 0.4976 -0.6031 0.6234
vn -0.0273 -0.7067 0.7070
vn -0.0269 -0.9235 0.3826
vn 0.1270 -0.8988 0.4196
vn -0.4976 -0.6032 0.6233
vn -0.4778 -0.8116 0.3362
vn 0.0397 -0.8172 0.5750
vn 0.0397 -0.5750 0.8172
vn -0.4778 -0.3362 0.8116
vn -0.4976 -0.6234 0.6031
vn -0.0250 -0.3824 0.9237
vn 0.1294 -0.6683 0.7325
vn -0.4413 -0.5454 0.7126
vn -0.7950 -0.2322 0.5605
vn -0.8129 -0.4187 0.4048
vn -0.8129 -0.4048 0.4187
vn -0.7950 -0.5605 0.2322
vn -0.4413 -0.7125 0.5455
vn -0.7854 -0.4006 0.4719
vn -0.9067 -0.2986 0.2978
vn -0.9067 -0.2978 0.2986
vn -0.7854 -0.4719 0.4006
vn 0.0391 -0.3688 0.9287
vn 0.5461 -0.4014 0.7353
vt 0.621521 0.159885
vt 0.544058 0.157403
vt 0.549197 0.148507
vt 0.621521 0.148500
vt 0.621517 0.025553
vt 0.549193 0.025560
vt 0.693849 0.025564
vt 0.698123 0.036954
vt 0.621526 0.036938
vt 0.698989 0.034460
vt 0.699000 0.036686
vt 0.544047 0.159630
vt 0.544925 0.159897
vt 0.699776 0.035900
vt 0.543272 0.158844
vt 0.538465 0.171080
vt 0.539347 0.171288
vt 0.535607 0.182670
vt 0.534736 0.182559
vt 0.537653 0.170432
vt 0.708312 0.059615
vt 0.705395 0.047488
vt 0.709169 0.059239
vt 0.704582 0.048137
vt 0.707441 0.059727
vt 0.703700 0.048345
vt 0.621525 0.059710
vt 0.621526 0.048324
vt 0.735551 0.607222
vt 0.727896 0.581825
vt 0.737370 0.605914
vt 0.726494 0.584211
vt 0.713728 0.565714
vt 0.712959 0.568807
vt 0.697232 0.559767
vt 0.712199 0.571854
vt 0.697023 0.563088
vt 0.523324 0.560000
vt 0.696814 0.566393
vt 0.523394 0.563325
vt 0.521341 0.563936
vt 0.523463 0.566592
vt 0.696608 0.569695
vt 0.521568 0.569487
vt 0.523514 0.569795
vt 0.520339 0.566995
vt 0.521585 0.566772
vt 0.016974 0.917138
vt 0.015747 0.919627
vt 0.015338 0.917462
vt 0.016748 0.922685
vt 0.016992 0.919850
vt 0.018868 0.920030
vt 0.018920 0.916830
vt 0.018800 0.923294
vt 0.015059 0.913957
vt 0.017016 0.913745
vt 0.018924 0.913635
vt 0.191680 0.913632
vt 0.191884 0.916932
vt 0.192091 0.920231
vt 0.206709 0.911748
vt 0.207465 0.914782
vt 0.205953 0.908708
vt 0.220367 0.900086
vt 0.217616 0.895410
vt 0.218993 0.897749
vt 0.227220 0.876861
vt 0.229005 0.878145
vt 0.225432 0.875576
vt 0.232207 0.852018
vt 0.230270 0.851666
vt 0.230269 0.619591
vt 0.232206 0.619239
vt 0.228331 0.619942
vt 0.227219 0.594397
vt 0.229004 0.593114
vt 0.225431 0.595682
vt 0.218992 0.573509
vt 0.220367 0.571175
vt 0.217615 0.575848
vt 0.205952 0.562552
vt 0.228332 0.851315
vt 0.206709 0.559512
vt 0.191884 0.554327
vt 0.191680 0.557628
vt 0.018920 0.554430
vt 0.018924 0.557624
vt 0.017016 0.557514
vt 0.015059 0.557303
vt 0.016974 0.554122
vt 0.521566 0.932772
vt 0.519650 0.929589
vt 0.521608 0.929377
vt 0.519651 0.572670
vt 0.521609 0.572882
vt 0.523519 0.572992
vt 0.523517 0.929267
vt 0.696402 0.572997
vt 0.722357 0.911031
vt 0.730184 0.611079
vt 0.523513 0.932464
vt 0.696401 0.929265
vt 0.696606 0.932568
vt 0.710685 0.924338
vt 0.711442 0.927380
vt 0.723735 0.913372
vt 0.731968 0.892467
vt 0.730179 0.891182
vt 0.735021 0.867254
vt 0.733081 0.866903
vt 0.735020 0.635008
vt 0.733081 0.635358
vt 0.731973 0.609794
vt 0.723737 0.588894
vt 0.722360 0.591235
vt 0.711443 0.574891
vt 0.710685 0.577934
vt 0.725112 0.586556
vt 0.733759 0.608510
vt 0.738900 0.634300
vt 0.736959 0.634655
vt 0.736959 0.867607
vt 0.738900 0.867962
vt 0.733755 0.893752
vt 0.726492 0.918057
vt 0.735547 0.895042
vt 0.725111 0.915710
vt 0.712198 0.930416
vt 0.697021 0.939175
vt 0.712957 0.933463
vt 0.696813 0.935870
vt 0.523393 0.938933
vt 0.523462 0.935667
vt 0.521340 0.938323
vt 0.523323 0.942259
vt 0.697230 0.942496
vt 0.018868 0.551229
vt 0.016748 0.548575
vt 0.018800 0.547965
vt 0.018730 0.544642
vt 0.016991 0.551409
vt 0.015747 0.551632
vt 0.521583 0.935487
vt 0.520337 0.935263
vt 0.519928 0.933096
vt 0.192091 0.551028
vt 0.192299 0.547725
vt 0.207465 0.556478
vt 0.208224 0.553433
vt 0.221747 0.568830
vt 0.232613 0.590520
vt 0.223149 0.566449
vt 0.208993 0.550342
vt 0.236094 0.618529
vt 0.230795 0.591825
vt 0.234145 0.618884
vt 0.236095 0.852728
vt 0.234146 0.852373
vt 0.230796 0.879433
vt 0.232614 0.880738
vt 0.221747 0.902432
vt 0.223150 0.904812
vt 0.208223 0.917827
vt 0.208993 0.920917
vt 0.192507 0.926853
vt 0.192299 0.923534
vt 0.018730 0.926618
vt 0.621521 0.171271
vt 0.621522 0.182657
vt 0.621522 0.194043
vt 0.534276 0.194044
vt 0.534276 0.291295
vt 0.533403 0.194009
vt 0.621522 0.291297
vt 0.534736 0.302780
vt 0.533403 0.291331
vt 0.535608 0.302668
vt 0.621521 0.302683
vt 0.538466 0.314258
vt 0.539348 0.314050
vt 0.621521 0.314069
vt 0.544048 0.325708
vt 0.544926 0.325441
vt 0.621520 0.325455
vt 0.544059 0.327935
vt 0.549199 0.336830
vt 0.192507 0.544407
vt 0.621520 0.336841
vt 0.621514 0.459782
vt 0.549193 0.459771
vt 0.621523 0.202510
vt 0.698987 0.204995
vt 0.693847 0.213891
vt 0.713728 0.936556
vt 0.727896 0.920439
vt 0.621523 0.191124
vt 0.698120 0.202501
vt 0.698998 0.202769
vt 0.703698 0.191110
vt 0.704581 0.191318
vt 0.707439 0.179729
vt 0.708311 0.179840
vt 0.621523 0.179738
vt 0.708771 0.168355
vt 0.709645 0.168390
vt 0.621522 0.168352
vt 0.740850 0.868317
vt 0.737366 0.896348
vt 0.740850 0.633945
vt 0.621524 0.071095
vt 0.708772 0.071100
vt 0.709646 0.071065
vt 0.710521 0.070957
vt 0.710521 0.168498
vt 0.709167 0.180216
vt 0.533880 0.303156
vt 0.532528 0.291438
vt 0.532528 0.193901
vt 0.537654 0.314906
vt 0.705393 0.191967
vt 0.543273 0.326494
vt 0.699773 0.203554
vt 0.533879 0.182183
vt 0.621527 0.025553
vt 0.519930 0.569163
vt 0.015338 0.553798
vt 0.621524 0.213895
s 0
usemtl multitexture
f 143/1/1 5/2/2 1/3/3
f 2/4/4 1/3/5 3/5/6
f 3/5/6 1/3/5 4/6/7
f 1/7/8 6/8/9 23/9/10
f 6/8/11 5/10/12 8/11/13
f 10/12/14 5/2/12 7/13/15
f 8/11/13 5/10/12 9/14/16
f 9/15/16 5/2/12 10/12/14
f 11/16/17 9/15/18 10/12/14
f 12/17/19 10/12/20 7/13/21
f 146/18/22 11/16/23 12/17/24
f 13/19/25 14/20/26 11/16/27
f 17/21/28 14/22/29 15/23/30
f 16/24/31 9/14/32 14/22/33
f 19/25/34 16/24/35 17/21/36
f 18/26/37 8/11/38 16/24/39
f 18/26/40 21/27/41 20/28/42
f 6/8/43 20/28/44 23/9/45
f 103/29/46 20/30/47 21/31/48
f 22/32/49 23/33/50 20/30/51
f 24/34/52 4/35/53 23/33/54
f 22/32/55 25/36/56 24/34/57
f 25/36/58 26/37/59 24/34/57
f 26/37/60 3/38/61 4/35/62
f 27/39/63 28/40/64 26/37/65
f 28/40/66 29/41/67 3/38/6
f 30/42/68 29/41/69 28/40/70
f 100/43/71 30/42/72 27/39/73
f 33/44/74 30/42/75 31/45/76
f 33/44/77 34/46/78 32/47/79
f 32/47/80 34/46/81 29/41/82
f 38/48/83 34/49/84 35/50/85
f 29/51/82 34/49/81 36/52/86
f 37/53/87 38/48/88 40/54/89
f 29/51/90 37/53/91 145/55/92
f 38/48/93 76/56/94 39/57/95
f 40/54/96 39/57/97 41/58/98
f 40/54/99 44/59/100 42/60/101
f 37/53/102 42/60/103 43/61/104
f 43/61/105 45/62/106 46/63/107
f 42/60/108 47/64/109 45/62/110
f 45/62/111 49/65/112 46/63/113
f 45/62/114 50/66/115 48/67/116
f 49/65/117 51/68/118 52/69/119
f 48/67/120 53/70/121 51/68/122
f 51/68/123 55/71/124 52/69/125
f 53/70/126 54/72/127 51/68/128
f 55/71/129 57/73/130 58/74/131
f 54/72/132 59/75/133 57/73/134
f 58/74/135 60/76/136 61/77/137
f 57/73/138 63/78/139 60/76/140
f 61/77/141 62/79/142 129/80/143
f 60/76/144 64/81/145 62/79/146
f 65/82/147 56/83/148 44/59/149
f 66/84/150 64/81/151 65/82/152
f 68/85/153 65/82/154 67/86/155
f 70/87/156 67/86/157 69/88/158
f 71/89/159 70/87/160 69/88/161
f 71/89/162 41/58/163 39/57/164
f 73/90/165 72/91/166 71/89/167
f 73/90/168 39/57/169 76/56/170
f 182/92/171 73/93/172 74/94/173
f 74/94/174 76/95/175 77/96/176
f 76/95/177 33/44/178 77/96/179
f 77/96/180 31/45/181 78/97/182
f 80/98/183 77/96/184 78/97/185
f 79/99/186 31/45/187 100/43/188
f 86/100/189 78/97/190 94/101/191
f 81/102/192 74/94/193 80/98/194
f 81/102/195 82/103/196 83/104/197
f 83/104/198 84/105/199 85/106/200
f 87/107/201 84/105/202 86/100/203
f 89/108/204 86/100/205 88/109/206
f 91/110/207 88/109/208 90/111/209
f 93/112/210 90/111/211 92/113/212
f 93/112/213 94/101/214 95/114/215
f 94/101/216 97/115/217 95/114/215
f 96/116/218 99/117/219 97/115/220
f 98/118/221 100/43/222 99/117/223
f 99/117/224 27/39/225 25/36/226
f 101/119/227 99/117/228 25/36/229
f 95/114/230 101/119/231 102/120/232
f 103/29/233 101/119/234 22/32/235
f 105/121/236 102/120/237 103/29/238
f 104/122/239 95/114/240 102/120/241
f 105/121/242 106/123/243 104/122/244
f 106/123/245 93/112/210 104/122/246
f 107/124/247 108/125/248 106/123/249
f 106/123/250 89/108/251 91/110/252
f 111/126/253 108/125/254 109/127/255
f 110/128/256 89/108/257 108/125/258
f 111/126/259 112/129/260 110/128/261
f 112/129/262 87/107/263 110/128/264
f 115/130/265 112/129/266 113/131/267
f 114/132/268 85/106/269 112/129/270
f 118/133/271 114/132/272 115/130/273
f 116/134/274 83/104/275 114/132/276
f 116/134/277 182/92/278 81/102/279
f 120/135/280 116/134/281 118/133/282
f 118/133/283 119/136/284 120/135/285
f 119/136/286 115/130/287 161/137/288
f 124/138/289 120/139/290 121/140/291
f 119/141/284 121/140/292 120/139/293
f 120/139/294 122/142/295 123/143/296
f 117/144/297 120/135/294 123/145/298
f 182/92/299 123/145/300 75/146/301
f 72/91/302 123/143/303 122/142/304
f 72/91/305 124/138/306 70/87/307
f 121/140/308 125/147/309 124/138/310
f 124/138/311 68/85/312 70/87/313
f 126/148/314 127/149/315 125/147/316
f 125/147/317 66/84/318 68/85/319
f 128/150/320 129/80/321 127/149/322
f 127/149/323 62/79/324 66/84/325
f 130/151/326 61/77/327 129/80/328
f 133/152/329 130/151/330 131/153/331
f 158/154/332 130/151/333 128/150/334
f 135/155/335 132/156/336 133/152/337
f 134/157/338 61/77/339 132/156/340
f 137/158/341 134/157/342 135/155/343
f 136/159/344 58/74/345 134/157/346
f 138/160/347 137/158/348 139/161/349
f 52/69/350 136/159/351 138/160/352
f 140/162/353 139/161/354 141/163/355
f 49/65/356 138/160/357 140/162/358
f 142/164/359 141/163/360 143/165/361
f 142/164/362 49/65/363 140/162/358
f 2/166/364 142/164/365 143/165/361
f 144/167/366 46/63/367 142/164/368
f 3/168/369 144/167/370 2/166/4
f 145/55/371 43/61/372 144/167/373
f 3/168/6 29/51/67 145/55/374
f 141/169/375 7/13/376 143/1/377
f 139/170/378 12/17/379 141/169/380
f 137/171/381 146/18/382 139/170/383
f 147/172/384 13/19/385 146/18/386
f 149/173/387 148/174/388 147/172/389
f 135/175/390 147/172/391 137/171/392
f 149/173/393 152/176/394 150/177/395
f 151/178/396 135/175/397 133/179/398
f 151/178/399 154/180/400 152/176/401
f 153/181/402 133/179/403 131/182/404
f 153/181/405 156/183/406 154/180/407
f 155/184/408 131/182/409 158/185/410
f 156/183/411 155/184/412 157/186/413
f 160/187/414 155/184/415 158/185/416
f 159/188/417 128/150/418 126/148/419
f 119/141/420 126/148/421 121/140/292
f 159/189/422 119/190/423 160/187/424
f 119/190/423 161/191/288 160/187/424
f 162/192/425 157/193/426 160/194/427
f 161/137/428 113/131/429 162/195/430
f 163/196/431 113/131/432 111/126/433
f 163/197/434 164/198/435 162/192/436
f 164/198/437 165/199/438 157/193/439
f 165/199/440 166/200/441 167/201/442
f 167/201/443 168/202/444 169/203/445
f 171/204/446 166/200/447 163/197/448
f 169/203/449 170/205/450 177/206/451
f 172/207/452 168/202/453 171/204/454
f 172/208/455 109/127/456 107/124/457
f 171/209/458 111/126/459 109/127/460
f 172/208/461 105/121/462 173/210/463
f 173/211/464 170/205/465 172/207/466
f 173/210/467 103/29/468 21/31/469
f 19/25/470 173/211/471 21/27/472
f 174/212/473 17/21/474 175/213/475
f 177/206/476 174/212/477 175/213/478
f 175/213/479 15/23/480 176/214/481
f 178/215/482 175/213/483 176/214/481
f 179/216/484 177/206/485 178/215/486
f 150/177/487 179/217/488 178/218/486
f 150/177/489 176/219/490 148/174/491
f 152/176/492 180/220/493 179/217/494
f 180/221/495 169/203/496 179/216/497
f 154/180/498 181/222/499 180/220/500
f 181/223/501 167/201/502 180/221/503
f 165/199/438 181/223/504 157/193/413
f 181/222/504 156/183/411 157/186/413
f 148/174/505 15/224/506 13/19/507
f 1/3/508 2/4/509 143/1/510
f 143/1/511 7/13/15 5/2/512
f 23/9/513 4/225/514 1/7/515
f 1/7/516 5/10/12 6/8/517
f 11/16/518 14/20/519 9/15/520
f 12/17/521 11/16/522 10/12/523
f 146/18/524 13/19/525 11/16/526
f 13/19/527 15/224/528 14/20/529
f 17/21/530 16/24/531 14/22/532
f 16/24/533 8/11/13 9/14/534
f 19/25/535 18/26/536 16/24/537
f 18/26/538 6/8/539 8/11/540
f 18/26/541 19/25/542 21/27/543
f 6/8/544 18/26/536 20/28/545
f 103/29/546 22/32/547 20/30/548
f 22/32/549 24/34/550 23/33/551
f 24/34/552 26/37/553 4/35/554
f 22/32/555 101/119/556 25/36/557
f 25/36/558 27/39/73 26/37/559
f 26/37/560 28/40/561 3/38/562
f 27/39/563 30/42/564 28/40/565
f 30/42/566 32/47/567 29/41/568
f 100/43/569 31/45/570 30/42/571
f 33/44/572 32/47/573 30/42/574
f 33/44/575 35/226/576 34/46/577
f 38/48/578 36/52/579 34/49/580
f 37/53/581 36/52/582 38/48/583
f 29/51/584 36/52/585 37/53/586
f 38/48/587 35/50/588 76/56/589
f 40/54/590 38/48/591 39/57/592
f 40/54/593 41/58/594 44/59/595
f 37/53/596 40/54/597 42/60/598
f 43/61/599 42/60/600 45/62/601
f 42/60/602 44/59/603 47/64/604
f 45/62/605 48/67/606 49/65/607
f 45/62/608 47/64/609 50/66/610
f 49/65/611 48/67/606 51/68/612
f 48/67/613 50/66/614 53/70/615
f 51/68/616 54/72/617 55/71/618
f 53/70/619 56/83/620 54/72/621
f 55/71/622 54/72/617 57/73/623
f 54/72/624 56/83/625 59/75/626
f 58/74/627 57/73/628 60/76/629
f 57/73/630 59/75/625 63/78/631
f 61/77/632 60/76/633 62/79/634
f 60/76/635 63/78/636 64/81/637
f 44/59/638 41/58/594 69/88/639
f 69/88/640 67/86/155 65/82/147
f 65/82/147 64/81/641 63/78/147
f 63/78/147 59/75/625 56/83/642
f 56/83/643 53/70/147 50/66/644
f 50/66/645 47/64/147 44/59/646
f 44/59/647 69/88/648 65/82/147
f 65/82/147 63/78/147 56/83/649
f 56/83/650 50/66/614 44/59/651
f 66/84/652 62/79/653 64/81/654
f 68/85/655 66/84/656 65/82/657
f 70/87/658 68/85/659 67/86/660
f 71/89/661 72/91/662 70/87/663
f 71/89/664 69/88/665 41/58/666
f 73/90/667 75/227/668 72/91/669
f 73/90/670 71/89/671 39/57/672
f 182/92/673 75/146/674 73/93/675
f 74/94/676 73/93/677 76/95/678
f 76/95/679 35/226/680 33/44/681
f 77/96/682 33/44/683 31/45/684
f 80/98/685 74/94/686 77/96/687
f 79/99/688 78/97/689 31/45/690
f 94/101/691 92/113/209 90/111/692
f 90/111/693 88/109/206 86/100/694
f 86/100/191 84/105/189 82/103/695
f 82/103/696 80/98/697 78/97/698
f 78/97/699 79/99/700 98/118/701
f 98/118/702 96/116/703 94/101/704
f 94/101/691 90/111/705 86/100/706
f 86/100/206 82/103/707 78/97/689
f 78/97/708 98/118/709 94/101/206
f 81/102/710 182/92/711 74/94/712
f 81/102/713 80/98/697 82/103/714
f 83/104/715 82/103/716 84/105/717
f 87/107/718 85/106/719 84/105/720
f 89/108/721 87/107/722 86/100/723
f 91/110/724 89/108/725 88/109/726
f 93/112/727 91/110/728 90/111/729
f 93/112/730 92/113/212 94/101/731
f 94/101/732 96/116/703 97/115/733
f 96/116/734 98/118/709 99/117/735
f 98/118/736 79/99/737 100/43/738
f 99/117/739 100/43/740 27/39/741
f 101/119/742 97/115/743 99/117/744
f 95/114/745 97/115/743 101/119/746
f 103/29/747 102/120/748 101/119/749
f 105/121/750 104/122/244 102/120/751
f 104/122/752 93/112/753 95/114/754
f 105/121/755 107/124/756 106/123/757
f 106/123/758 91/110/252 93/112/759
f 107/124/760 109/127/255 108/125/761
f 106/123/762 108/125/763 89/108/764
f 111/126/765 110/128/766 108/125/767
f 110/128/768 87/107/769 89/108/770
f 111/126/771 113/131/772 112/129/773
f 112/129/774 85/106/775 87/107/776
f 115/130/777 114/132/778 112/129/779
f 114/132/780 83/104/781 85/106/782
f 118/133/783 116/134/784 114/132/785
f 116/134/786 81/102/787 83/104/788
f 116/134/789 117/144/790 182/92/791
f 120/135/792 117/144/793 116/134/794
f 119/136/795 118/133/283 115/130/796
f 124/138/797 122/142/798 120/139/799
f 182/92/800 117/144/801 123/145/802
f 72/91/803 75/227/804 123/143/805
f 72/91/806 122/142/807 124/138/808
f 121/140/809 126/148/810 125/147/811
f 124/138/812 125/147/316 68/85/813
f 126/148/814 128/150/815 127/149/816
f 125/147/817 127/149/818 66/84/819
f 128/150/820 130/151/821 129/80/822
f 127/149/823 129/80/824 62/79/825
f 130/151/826 132/156/827 61/77/828
f 133/152/829 132/156/830 130/151/831
f 158/154/832 131/153/833 130/151/834
f 135/155/835 134/157/836 132/156/837
f 134/157/838 58/74/839 61/77/840
f 137/158/841 136/159/842 134/157/843
f 136/159/844 55/71/845 58/74/846
f 138/160/847 136/159/848 137/158/849
f 52/69/850 55/71/851 136/159/852
f 140/162/853 138/160/854 139/161/855
f 49/65/856 52/69/857 138/160/858
f 142/164/859 140/162/860 141/163/861
f 142/164/862 46/63/863 49/65/864
f 2/166/865 144/167/866 142/164/867
f 144/167/868 43/61/869 46/63/870
f 3/168/871 145/55/374 144/167/872
f 145/55/873 37/53/874 43/61/875
f 141/169/876 12/17/24 7/13/877
f 139/170/878 146/18/879 12/17/880
f 137/171/881 147/172/882 146/18/883
f 147/172/884 148/174/885 13/19/886
f 149/173/887 150/177/888 148/174/889
f 135/175/890 149/173/891 147/172/892
f 149/173/893 151/178/894 152/176/895
f 151/178/896 149/173/891 135/175/897
f 151/178/898 153/181/899 154/180/900
f 153/181/901 151/178/902 133/179/903
f 153/181/904 155/184/905 156/183/906
f 155/184/907 153/181/899 131/182/908
f 158/185/909 159/189/910 160/187/911
f 160/187/912 157/186/413 155/184/913
f 159/188/914 158/154/915 128/150/916
f 119/141/917 159/188/422 126/148/918
f 160/194/919 161/228/920 162/192/921
f 162/192/922 164/198/437 157/193/923
f 161/137/924 115/130/925 113/131/926
f 163/196/927 162/195/430 113/131/928
f 163/197/929 166/200/930 164/198/931
f 165/199/932 164/198/933 166/200/934
f 167/201/935 166/200/930 168/202/936
f 171/204/937 168/202/938 166/200/939
f 169/203/940 168/202/941 170/205/942
f 172/207/943 170/205/944 168/202/945
f 172/208/946 171/209/947 109/127/948
f 171/209/949 163/196/950 111/126/951
f 172/208/952 107/124/457 105/121/953
f 173/211/954 174/212/955 170/205/956
f 173/210/957 105/121/958 103/29/959
f 19/25/960 174/212/955 173/211/961
f 174/212/962 19/25/963 17/21/964
f 177/206/965 170/205/966 174/212/967
f 175/213/968 17/21/969 15/23/970
f 178/215/971 177/206/972 175/213/973
f 179/216/974 169/203/975 177/206/976
f 150/177/977 152/176/978 179/217/979
f 150/177/980 178/218/486 176/219/981
f 152/176/982 154/180/983 180/220/984
f 180/221/985 167/201/986 169/203/987
f 154/180/988 156/183/411 181/222/989
f 181/223/990 165/199/438 167/201/991
f 148/174/992 176/219/481 15/224/993
