# Blender 5.0.1
# www.blender.org

mtllib material.mtl
o edge_UF
v -0.100163 0.137076 0.137396
v -0.100163 0.295334 0.137396
v -0.100163 0.295334 0.295654
v -0.100163 0.137076 0.295654
v -0.097932 0.125858 0.126178
v -0.097304 0.122702 0.128039
v -0.097304 0.127719 0.123022
v -0.097304 0.123084 0.126119
v -0.097304 0.124171 0.124492
v -0.097304 0.125799 0.123404
v -0.089162 0.113592 0.111216
v -0.089162 0.115499 0.110836
v -0.076976 0.105413 0.103069
v -0.089162 0.111976 0.112296
v -0.076976 0.103816 0.104136
v -0.089162 0.110895 0.113913
v -0.076976 0.102749 0.105733
v -0.089162 0.110516 0.115820
v -0.076976 0.102374 0.107617
v -0.089162 0.110516 0.295654
v -0.076976 0.102374 0.295654
v -0.088914 0.110763 0.297379
v -0.097304 0.122702 0.295654
v -0.096981 0.122836 0.297379
v -0.096060 0.123217 0.298841
v -0.099820 0.137110 0.297379
v -0.098843 0.137206 0.298841
v -0.099820 0.295334 0.297379
v -0.099406 0.297102 0.297422
v -0.098843 0.295334 0.298841
v -0.097381 0.295334 0.299819
v -0.098614 0.297012 0.298612
v -0.097424 0.297102 0.299404
v -0.098258 0.297936 0.298257
v -0.097334 0.298292 0.298612
v -0.098614 0.298292 0.297333
v -0.098843 0.298521 0.295654
v -0.097424 0.299084 0.297422
v -0.095656 0.299498 0.297379
v -0.097381 0.299498 0.295654
v -0.095656 0.299841 0.295654
v -0.097381 0.299498 0.137670
v -0.098843 0.298521 0.137526
v -0.095656 0.299841 0.137840
v -0.094683 0.299498 0.124108
v -0.096061 0.298521 0.123537
v -0.093058 0.299841 0.124781
v -0.087156 0.299498 0.112842
v -0.088210 0.298521 0.111788
v -0.085912 0.299841 0.114086
v -0.075891 0.299498 0.105315
v -0.076461 0.298521 0.103938
v -0.075218 0.299841 0.106940
v -0.062328 0.299498 0.102617
v -0.062472 0.298521 0.101155
v -0.062158 0.299841 0.104342
v 0.062328 0.299498 0.102617
v 0.062472 0.298521 0.101155
v 0.062158 0.299841 0.104342
v 0.075890 0.299498 0.105315
v 0.076461 0.298521 0.103938
v 0.087156 0.299498 0.112842
v 0.075217 0.299841 0.106940
v 0.085912 0.299841 0.114086
v 0.093058 0.299841 0.124781
v 0.094683 0.299498 0.124108
v 0.095656 0.299841 0.137840
v 0.097381 0.299498 0.137670
v 0.095656 0.299841 0.295654
v 0.097381 0.299498 0.295654
v 0.095656 0.299498 0.297379
v 0.097424 0.299084 0.297422
v 0.095656 0.298521 0.298841
v 0.095656 0.297059 0.299818
v 0.097334 0.298292 0.298612
v -0.095656 0.298521 0.298841
v -0.095656 0.297059 0.299819
v -0.095656 0.295334 0.300162
v -0.095656 0.137520 0.300162
v 0.095656 0.295334 0.300161
v 0.097381 0.295334 0.299818
v 0.095656 0.137520 0.300161
v 0.097381 0.137350 0.299818
v 0.093058 0.124460 0.300161
v 0.094683 0.123787 0.299818
v 0.085912 0.113766 0.300161
v 0.087156 0.112522 0.299818
v 0.075218 0.106620 0.300161
v 0.075891 0.104995 0.299818
v 0.062158 0.104022 0.300162
v 0.062328 0.102297 0.299818
v -0.062158 0.104022 0.300162
v -0.062328 0.102297 0.299818
v -0.075217 0.106620 0.300162
v -0.075890 0.104995 0.299819
v -0.085912 0.113766 0.300162
v -0.087156 0.112522 0.299819
v -0.093058 0.124461 0.300162
v -0.094683 0.123787 0.299819
v -0.097381 0.137350 0.299819
v -0.088210 0.111468 0.298841
v -0.076461 0.103617 0.298841
v -0.076842 0.102697 0.297379
v -0.062472 0.100835 0.298841
v -0.062568 0.099858 0.297379
v 0.062472 0.100835 0.298841
v 0.062568 0.099858 0.297379
v 0.076461 0.103617 0.298841
v 0.076842 0.102697 0.297379
v 0.088210 0.111468 0.298841
v 0.088915 0.110763 0.297379
v 0.096061 0.123217 0.298841
v 0.096981 0.122836 0.297379
v 0.098843 0.137206 0.298841
v 0.099820 0.137110 0.297379
v 0.098843 0.295334 0.298841
v 0.098614 0.297012 0.298612
v 0.099820 0.295334 0.297379
v 0.100163 0.295334 0.295654
v 0.099406 0.297102 0.297422
v 0.099820 0.297059 0.295654
v 0.098614 0.298292 0.297333
v 0.098258 0.297936 0.298256
v 0.098843 0.298521 0.295654
v 0.098843 0.298521 0.137526
v 0.099820 0.297059 0.137430
v 0.096061 0.298521 0.123537
v 0.096981 0.297059 0.123156
v 0.088210 0.298521 0.111788
v 0.088914 0.297059 0.111084
v 0.089162 0.295334 0.110836
v 0.076842 0.297059 0.103017
v 0.076976 0.295334 0.102694
v 0.062568 0.297059 0.100178
v 0.062602 0.295334 0.099835
v -0.062568 0.297059 0.100178
v -0.062602 0.295334 0.099835
v -0.076842 0.297059 0.103017
v -0.076976 0.295334 0.102694
v -0.088915 0.297059 0.111084
v -0.089162 0.295334 0.110836
v -0.096981 0.297059 0.123156
v -0.097304 0.295334 0.123022
v -0.099820 0.297059 0.137430
v -0.099820 0.297059 0.295654
v -0.076976 0.107297 0.102694
v -0.062602 0.104396 0.099835
v -0.062602 0.102528 0.100207
v 0.062602 0.104396 0.099835
v 0.062602 0.102528 0.100206
v 0.076976 0.107297 0.102694
v 0.076976 0.105413 0.103069
v 0.089162 0.115499 0.110836
v 0.089162 0.113592 0.111216
v 0.097304 0.127719 0.123022
v 0.097304 0.125799 0.123404
v 0.097932 0.125858 0.126178
v 0.097304 0.295334 0.123022
v 0.100163 0.295334 0.137396
v 0.100163 0.137076 0.137396
v 0.100163 0.137076 0.295654
v 0.097304 0.122702 0.295654
v 0.089162 0.110516 0.295654
v 0.097304 0.122702 0.128039
v 0.097304 0.123084 0.126119
v 0.089162 0.110516 0.115820
v 0.089162 0.110895 0.113913
v 0.076976 0.102374 0.107617
v 0.076976 0.102749 0.105733
v 0.062602 0.099515 0.104716
v 0.076976 0.102374 0.295654
v 0.062602 0.099515 0.295654
v -0.062602 0.099515 0.295654
v -0.062602 0.099515 0.104716
v -0.062602 0.099886 0.102848
v -0.062602 0.100944 0.101265
v 0.062602 0.099886 0.102848
v 0.062602 0.100944 0.101265
v 0.076976 0.103816 0.104136
v 0.089162 0.111976 0.112296
v 0.097304 0.124171 0.124492
v 0.097424 0.297102 0.299404
vn -0.9266 0.0948 -0.3640
vn -0.9822 -0.1264 -0.1392
vn -0.9999 -0.0062 -0.0153
vn -0.9995 0.0039 -0.0313
vn -0.9997 -0.0158 -0.0158
vn -1.0000 0.0021 0.0021
vn -0.9995 -0.0313 0.0039
vn -0.9996 -0.0165 -0.0219
vn -0.9250 -0.3714 -0.0807
vn -0.9268 -0.3628 0.0970
vn -0.9217 -0.3880 -0.0007
vn -0.9902 -0.0986 -0.0986
vn -0.8977 -0.4071 -0.1686
vn -0.8977 -0.1686 -0.4071
vn -0.9217 -0.0007 -0.3880
vn -0.9090 -0.2947 -0.2947
vn -0.7854 -0.4006 -0.4719
vn -0.9067 -0.2986 -0.2978
vn -0.7069 -0.2801 -0.6494
vn -0.8953 -0.1729 -0.4105
vn -0.9216 -0.0007 -0.3881
vn -0.3503 -0.2805 -0.8936
vn -0.7899 -0.2456 -0.5618
vn -0.7039 -0.0015 -0.7103
vn -0.4413 -0.5455 -0.7125
vn -0.8129 -0.4187 -0.4048
vn -0.7950 -0.2322 -0.5605
vn -0.4851 -0.8131 -0.3217
vn -0.8240 -0.5163 -0.2332
vn -0.5076 -0.6093 -0.6092
vn -0.7975 -0.5611 -0.2217
vn -0.9273 -0.2797 -0.2486
vn -0.8174 -0.4074 -0.4073
vn -0.3889 -0.9212 0.0135
vn -0.7811 -0.6237 0.0298
vn -0.4779 -0.8116 -0.3361
vn -0.7071 -0.7070 0.0111
vn -0.9181 -0.3868 -0.0865
vn -0.7950 -0.5605 -0.2321
vn -0.6604 -0.7394 -0.1311
vn -0.3802 -0.9249 -0.0088
vn -0.7031 -0.7111 0.0019
vn -0.8853 -0.4425 -0.1432
vn -0.7033 -0.7109 -0.0097
vn -0.9219 -0.3875 0.0020
vn -0.3620 -0.8429 0.3980
vn -0.7495 -0.6409 0.1655
vn -0.3800 -0.9250 0.0019
vn -0.6573 -0.6401 0.3977
vn -0.9378 -0.3050 0.1660
vn -0.7031 -0.7111 0.0020
vn -0.8523 -0.3395 0.3980
vn -0.9873 0.0552 0.1492
vn -0.9219 -0.3874 0.0020
vn -0.5439 -0.6670 0.5092
vn -0.6375 -0.2771 0.7189
vn -0.8518 -0.3525 0.3876
vn -0.6473 -0.2536 0.7188
vn -0.8611 0.0789 0.5022
vn -0.9236 -0.0137 0.3831
vn -0.9623 -0.1930 0.1915
vn -0.9995 -0.0313 0.0040
vn -0.7067 -0.0100 0.7074
vn -0.8156 -0.1947 0.5449
vn -0.9236 -0.0152 0.3831
vn -0.9237 0.0016 0.3831
vn -0.8726 0.3453 0.3453
vn -1.0000 0.0022 0.0022
vn -0.6740 0.0692 0.7355
vn -0.8231 0.4022 0.4009
vn -0.9255 -0.0026 0.3786
vn -0.3825 -0.0046 0.9239
vn -0.5449 -0.1951 0.8155
vn -0.7067 -0.0114 0.7074
vn -0.4009 0.4022 0.8231
vn -0.7356 0.0692 0.6739
vn -0.3783 -0.0020 0.9257
vn -0.3142 0.3972 0.8623
vn -0.5218 0.6088 0.5976
vn -0.6844 0.2501 0.6848
vn -0.6676 0.2762 0.6914
vn -0.5774 0.5773 0.5774
vn -0.8726 0.3454 0.3454
vn -0.3972 0.8623 0.3142
vn -0.6088 0.5976 0.5218
vn -0.2728 0.6683 0.6920
vn -0.5774 0.5773 0.5773
vn -0.6677 0.6913 0.2762
vn -0.7356 0.6739 0.0693
vn -0.4009 0.8231 0.4022
vn -0.3783 0.9257 -0.0021
vn -0.8231 0.4009 0.4022
vn -0.6740 0.7355 0.0692
vn -0.9256 0.3786 -0.0026
vn -0.4022 0.8231 0.4009
vn -0.0688 0.6739 0.7356
vn 0.0024 0.9257 0.3782
vn -0.4279 0.9004 0.0786
vn -0.0781 0.9004 0.4280
vn 0.0144 0.9998 -0.0141
vn -0.1892 0.9624 -0.1951
vn -0.0017 1.0000 0.0014
vn -0.3824 0.9240 -0.0060
vn -0.5431 0.8167 -0.1951
vn -0.3825 0.9239 -0.0046
vn -0.7067 0.7075 -0.0114
vn -0.6353 0.7672 0.0882
vn -0.3504 0.9276 -0.1294
vn -0.6491 0.7119 -0.2681
vn -0.3401 0.9360 0.0910
vn -0.0041 0.9999 0.0159
vn -0.3513 0.9250 -0.1448
vn -0.3397 0.9277 -0.1551
vn -0.3823 0.7700 -0.5108
vn -0.6491 0.7119 -0.2682
vn -0.3480 0.9363 -0.0475
vn -0.0102 0.9999 0.0134
vn -0.2691 0.9247 -0.2691
vn -0.5108 0.7700 -0.3823
vn -0.1551 0.9277 -0.3396
vn -0.2682 0.7119 -0.6491
vn -0.3037 0.9360 -0.1780
vn -0.0145 0.9999 0.0085
vn -0.1448 0.9250 -0.3513
vn -0.1294 0.9276 -0.3505
vn 0.0856 0.7660 -0.6371
vn -0.2681 0.7119 -0.6491
vn 0.0159 0.9999 -0.0041
vn 0.0895 0.9358 -0.3411
vn -0.1448 0.9250 -0.3514
vn 0.0123 0.7074 -0.7067
vn 0.1953 0.8154 -0.5449
vn 0.0075 0.9239 -0.3826
vn 0.1951 0.9625 -0.1886
vn -0.0018 1.0000 -0.0013
vn 0.0075 0.9239 -0.3825
vn -0.0855 0.7660 -0.6371
vn 0.1294 0.9276 -0.3505
vn 0.2681 0.7119 -0.6491
vn -0.0894 0.9357 -0.3411
vn -0.0159 0.9999 -0.0041
vn 0.1448 0.9250 -0.3514
vn 0.4906 0.7066 -0.5100
vn 0.0947 0.8736 -0.4773
vn 0.2692 0.9247 -0.2692
vn 0.0475 0.9363 -0.3480
vn -0.0134 0.9999 -0.0101
vn 0.2691 0.9247 -0.2691
vn 0.0005 1.0000 -0.0000
vn -0.0003 1.0000 -0.0014
vn -0.0014 1.0000 0.0009
vn 0.3474 0.9239 -0.1602
vn -0.0330 0.9940 -0.1038
vn 0.0003 1.0000 -0.0001
vn 0.3841 0.9230 -0.0216
vn 0.0093 0.9940 -0.1087
vn 0.0016 1.0000 -0.0000
vn 0.3827 0.9239 0.0006
vn 0.1914 0.9623 0.1935
vn 0.0015 1.0000 0.0018
vn 0.0782 0.9004 0.4280
vn 0.4280 0.9004 0.0786
vn -0.0144 0.9998 -0.0141
vn -0.1950 0.9623 0.1896
vn -0.0003 1.0000 0.0019
vn -0.0017 0.9239 0.3826
vn 0.0689 0.6739 0.7356
vn 0.4022 0.8231 0.4009
vn -0.0025 0.9257 0.3782
vn -0.1950 0.8165 0.5434
vn -0.0005 0.9239 0.3827
vn -0.0015 0.7071 0.7071
vn 0.4022 0.4009 0.8231
vn 0.0689 0.7356 0.6739
vn -0.0024 0.3782 0.9257
vn -0.1951 0.5464 0.8145
vn -0.0003 0.7071 0.7071
vn -0.0017 0.3827 0.9239
vn -0.0689 0.7356 0.6739
vn -0.4022 0.4009 0.8231
vn 0.0025 0.3782 0.9257
vn -0.0782 0.4280 0.9004
vn -0.4279 0.0785 0.9004
vn 0.0144 -0.0141 0.9998
vn -0.1933 0.1931 0.9620
vn -0.0005 0.3826 0.9239
vn -0.0015 0.0019 1.0000
vn -0.0017 0.0014 1.0000
vn -0.1913 -0.1951 0.9619
vn -0.3825 -0.0061 0.9240
vn 0.0004 -0.0002 1.0000
vn -0.0008 0.0023 1.0000
vn -0.0003 -0.0004 1.0000
vn 0.4279 0.0786 0.9004
vn 0.0781 0.4280 0.9004
vn -0.0144 -0.0141 0.9998
vn 0.1892 -0.1951 0.9624
vn 0.0017 0.0014 1.0000
vn 0.3825 -0.0060 0.9240
vn 0.3401 0.0910 0.9360
vn 0.0041 0.0159 0.9999
vn 0.3514 -0.1448 0.9250
vn 0.2818 -0.2595 0.9237
vn 0.0833 0.0703 0.9940
vn 0.0002 -0.0002 1.0000
vn 0.1602 -0.3474 0.9239
vn 0.1038 0.0331 0.9940
vn 0.0001 -0.0002 1.0000
vn 0.0231 -0.3841 0.9230
vn 0.1087 -0.0093 0.9940
vn -0.0000 -0.0013 1.0000
vn -0.0057 -0.3826 0.9239
vn -0.1938 -0.1914 0.9622
vn 0.0894 -0.3411 0.9358
vn 0.0159 -0.0041 0.9999
vn -0.1448 -0.3514 0.9250
vn -0.0145 0.0085 0.9999
vn -0.3037 -0.1780 0.9360
vn -0.1448 -0.3513 0.9250
vn -0.0101 0.0134 0.9999
vn -0.3480 -0.0475 0.9363
vn -0.2691 -0.2691 0.9247
vn -0.0041 0.0159 0.9999
vn -0.3401 0.0910 0.9360
vn -0.3514 -0.1448 0.9250
vn -0.3505 -0.1294 0.9276
vn -0.6353 0.0882 0.7672
vn -0.6491 -0.2681 0.7119
vn -0.3823 -0.5109 0.7700
vn -0.3397 -0.1551 0.9277
vn -0.6491 -0.2682 0.7119
vn -0.1551 -0.3397 0.9277
vn -0.5108 -0.3823 0.7700
vn -0.2682 -0.6491 0.7119
vn -0.2471 -0.8242 0.5096
vn -0.4827 -0.5007 0.7185
vn -0.6518 -0.6519 0.3874
vn 0.0758 -0.8628 0.4998
vn -0.2537 -0.6473 0.7188
vn -0.3524 -0.8518 0.3876
vn 0.0856 -0.6371 0.7660
vn -0.1294 -0.3504 0.9276
vn -0.2681 -0.6491 0.7119
vn -0.1955 -0.8139 0.5471
vn -0.0124 -0.7066 0.7075
vn -0.0188 -0.9235 0.3831
vn -0.1950 -0.5426 0.8170
vn -0.0057 -0.3825 0.9239
vn -0.0141 -0.7066 0.7074
vn 0.0318 -0.9265 0.3749
vn 0.3863 -0.7070 0.5923
vn 0.0142 -0.7067 0.7074
vn 0.0283 -0.7107 0.7030
vn 0.2691 -0.4040 0.8743
vn 0.0075 -0.3826 0.9239
vn 0.6670 -0.5439 0.5092
vn 0.2771 -0.6375 0.7189
vn 0.3525 -0.8517 0.3876
vn 0.5108 -0.3823 0.7700
vn 0.1551 -0.3397 0.9277
vn 0.2682 -0.6491 0.7119
vn 0.6634 -0.6456 0.3784
vn 0.7740 -0.2261 0.5914
vn 0.4969 -0.4969 0.7115
vn 0.6177 -0.1570 0.7706
vn 0.2742 -0.2544 0.9274
vn 0.4969 -0.4968 0.7116
vn 0.8611 0.0789 0.5022
vn 0.6473 -0.2537 0.7188
vn 0.8518 -0.3525 0.3876
vn 0.6353 0.0881 0.7672
vn 0.3505 -0.1294 0.9276
vn 0.6491 -0.2681 0.7119
vn 0.8144 -0.1947 0.5467
vn 0.7067 -0.0100 0.7075
vn 0.9236 -0.0151 0.3831
vn 0.5431 -0.1951 0.8167
vn 0.3825 -0.0046 0.9239
vn 0.7067 -0.0114 0.7075
vn 0.7356 0.0692 0.6739
vn 0.4009 0.4022 0.8231
vn 0.3783 -0.0021 0.9257
vn 0.8231 0.4022 0.4009
vn 0.6740 0.0691 0.7355
vn 0.9256 -0.0026 0.3786
vn 0.9237 0.0016 0.3830
vn 1.0000 0.0022 0.0022
vn 0.8726 0.3453 0.3453
vn 0.9619 -0.1929 0.1935
vn 0.9236 -0.0138 0.3831
vn 0.9995 -0.0313 0.0039
vn 0.6740 0.7355 0.0692
vn 0.8231 0.4009 0.4022
vn 0.9256 0.3786 -0.0026
vn 0.9237 0.3830 0.0016
vn 0.8726 0.3454 0.3454
vn 0.6676 0.6914 0.2762
vn 0.5774 0.5774 0.5773
vn 0.6676 0.2762 0.6914
vn 0.5774 0.5773 0.5773
vn 0.3972 0.3142 0.8623
vn 0.6087 0.5218 0.5976
vn 0.2728 0.6920 0.6683
vn 0.3143 0.8623 0.3972
vn 0.5218 0.5976 0.6088
vn 0.6845 0.6848 0.2501
vn 0.4009 0.8231 0.4022
vn 0.7356 0.6739 0.0692
vn 0.3783 0.9257 -0.0021
vn 0.9237 0.3831 0.0001
vn 0.8154 0.5448 0.1959
vn 0.7072 0.7070 0.0018
vn 0.7071 0.7071 0.0004
vn 0.5449 0.8155 0.1953
vn 0.3828 0.9238 0.0021
vn 0.9267 0.3747 -0.0282
vn 0.7071 0.5923 -0.3862
vn 0.7067 0.7074 -0.0114
vn 0.7109 0.7029 -0.0255
vn 0.4040 0.8743 -0.2691
vn 0.3825 0.9239 -0.0061
vn 0.8503 0.3786 -0.3655
vn 0.5057 0.5915 -0.6280
vn 0.6491 0.7118 -0.2682
vn 0.3823 0.7700 -0.5108
vn 0.3396 0.9277 -0.1551
vn 0.6491 0.7119 -0.2682
vn 0.6456 0.3784 -0.6634
vn 0.2261 0.5914 -0.7740
vn 0.4969 0.7115 -0.4969
vn 0.2983 0.1724 -0.9388
vn 0.6402 0.3977 -0.6573
vn 0.7031 0.0020 -0.7111
vn 0.9171 -0.0089 -0.3985
vn 0.6299 0.2185 -0.7453
vn 0.8518 0.3876 -0.3525
vn -0.0655 0.1564 -0.9855
vn 0.3396 0.3979 -0.8523
vn 0.3799 0.0019 -0.9250
vn -0.0758 0.4998 -0.8628
vn 0.2537 0.7188 -0.6473
vn 0.3524 0.3876 -0.8518
vn 0.1943 0.1941 -0.9616
vn 0.0170 0.3832 -0.9235
vn 0.0203 0.0018 -0.9998
vn 0.1955 0.5471 -0.8139
vn 0.0124 0.7075 -0.7066
vn 0.0188 0.3831 -0.9235
vn -0.3395 0.3979 -0.8523
vn 0.0655 0.1564 -0.9855
vn -0.3800 0.0019 -0.9250
vn -0.2536 0.7188 -0.6473
vn 0.0758 0.4998 -0.8628
vn -0.3525 0.3876 -0.8518
vn -0.6401 0.3977 -0.6573
vn -0.2983 0.1724 -0.9388
vn -0.7031 0.0020 -0.7111
vn -0.6669 0.5092 -0.5439
vn -0.2771 0.7189 -0.6375
vn -0.8429 0.3980 -0.3620
vn -0.6330 0.1747 -0.7542
vn -0.9219 0.0021 -0.3874
vn -0.8242 0.5096 -0.2471
vn -0.5007 0.7185 -0.4827
vn -0.6519 0.3874 -0.6519
vn -0.9873 0.1493 0.0552
vn -0.8523 0.3979 -0.3396
vn -0.8611 0.5022 0.0789
vn -0.6473 0.7188 -0.2537
vn -0.8518 0.3876 -0.3524
vn -0.9619 0.1935 -0.1929
vn -0.9236 0.3831 -0.0138
vn -0.8144 0.5468 -0.1947
vn -0.7067 0.7075 -0.0100
vn -0.9236 0.3831 -0.0151
vn -0.8726 0.3454 0.3453
vn -0.9237 0.3830 0.0016
vn -0.7033 -0.0097 -0.7109
vn -0.8853 -0.1431 -0.4425
vn -0.9219 0.0020 -0.3875
vn -0.3802 -0.0089 -0.9249
vn -0.6604 -0.1312 -0.7394
vn -0.7031 0.0019 -0.7111
vn -0.0205 -0.0073 -0.9998
vn -0.3475 -0.1090 -0.9313
vn -0.3799 0.0018 -0.9250
vn 0.0544 -0.2010 -0.9781
vn -0.4673 -0.3521 -0.8109
vn -0.3806 -0.0018 -0.9247
vn 0.1188 -0.0407 -0.9921
vn -0.0251 -0.3828 -0.9235
vn -0.0204 -0.0020 -0.9998
vn 0.0196 -0.0058 -0.9998
vn -0.0185 -0.0088 -0.9998
vn -0.0203 0.0018 -0.9998
vn 0.0332 0.0114 -0.9994
vn 0.5145 -0.0803 -0.8537
vn 0.0270 -0.3825 -0.9236
vn 0.3475 -0.1089 -0.9313
vn 0.0205 -0.0073 -0.9998
vn 0.3799 0.0018 -0.9250
vn 0.3889 0.0135 -0.9212
vn 0.7811 0.0298 -0.6237
vn 0.4779 -0.3361 -0.8116
vn 0.6604 -0.1311 -0.7394
vn 0.3802 -0.0088 -0.9249
vn 0.7031 0.0019 -0.7111
vn 0.7071 0.0111 -0.7070
vn 0.9181 -0.0865 -0.3868
vn 0.7950 -0.2321 -0.5604
vn 0.8853 -0.1432 -0.4425
vn 0.7033 -0.0097 -0.7109
vn 0.9219 0.0020 -0.3875
vn 0.8977 -0.1686 -0.4071
vn 0.9217 -0.0006 -0.3880
vn 0.9902 -0.0986 -0.0987
vn 0.9996 -0.0219 -0.0165
vn 0.9250 -0.0807 -0.3714
vn 0.9268 0.0970 -0.3628
vn 0.9990 -0.0057 -0.0435
vn 0.8671 0.2190 -0.4474
vn 0.9236 0.3830 -0.0152
vn 1.0000 0.0022 0.0007
vn 0.9618 0.1913 0.1960
vn 0.9238 0.3830 0.0016
vn 0.9995 0.0039 -0.0313
vn 1.0000 0.0021 0.0021
vn 0.9997 -0.0158 -0.0158
vn 0.9266 -0.3640 0.0948
vn 0.9822 -0.1392 -0.1264
vn 0.9999 -0.0153 -0.0062
vn 0.9873 0.0552 0.1493
vn 0.8523 -0.3396 0.3979
vn 0.9219 -0.3874 0.0021
vn 0.7115 -0.7026 -0.0094
vn 0.9297 -0.2964 0.2185
vn 0.6519 -0.6519 0.3873
vn 0.7033 -0.7109 -0.0097
vn 0.8853 -0.4425 -0.1432
vn 0.9219 -0.3875 0.0020
vn 0.9217 -0.3880 -0.0007
vn 0.8977 -0.4071 -0.1686
vn 0.9902 -0.0986 -0.0986
vn 0.9181 -0.3868 -0.0865
vn 0.7071 -0.7070 0.0111
vn 0.7950 -0.5605 -0.2321
vn 0.7811 -0.6237 0.0298
vn 0.3889 -0.9212 0.0135
vn 0.4779 -0.8116 -0.3361
vn 0.3802 -0.9249 -0.0089
vn 0.6604 -0.7394 -0.1312
vn 0.7031 -0.7111 0.0019
vn 0.5145 -0.8537 -0.0804
vn 0.0332 -0.9994 0.0114
vn 0.0270 -0.9235 -0.3825
vn 0.0205 -0.9998 -0.0073
vn 0.3475 -0.9313 -0.1090
vn 0.3799 -0.9250 0.0018
vn 0.0325 -0.9994 -0.0084
vn 0.4474 -0.8671 0.2190
vn 0.0188 -0.9236 0.3830
vn 0.3910 -0.9203 -0.0094
vn 0.7453 -0.6299 0.2185
vn 0.3525 -0.8518 0.3875
vn -0.1943 -0.9616 0.1941
vn -0.0170 -0.9235 0.3832
vn -0.0203 -0.9998 0.0018
vn -0.0196 -0.9998 -0.0058
vn 0.0185 -0.9998 -0.0088
vn 0.0203 -0.9998 0.0018
vn 0.0655 -0.9855 0.1564
vn -0.3396 -0.8523 0.3979
vn -0.3475 -0.9313 -0.1089
vn -0.0205 -0.9998 -0.0073
vn -0.3799 -0.9250 0.0018
vn -0.0332 -0.9994 0.0114
vn -0.5145 -0.8537 -0.0803
vn -0.0270 -0.9236 -0.3825
vn 0.1270 -0.9323 -0.3388
vn -0.0185 -0.9998 -0.0018
vn -0.0269 -0.9236 -0.3825
vn -0.0392 -0.9287 -0.3688
vn -0.5461 -0.7353 -0.4014
vn -0.0292 -0.7068 -0.7068
vn 0.1294 -0.7325 -0.6683
vn -0.0251 -0.9237 -0.3824
vn 0.5461 -0.7353 -0.4014
vn 0.0391 -0.9287 -0.3688
vn 0.0292 -0.7068 -0.7068
vn 0.0392 -0.3688 -0.9287
vn 0.5461 -0.4014 -0.7353
vn 0.1270 -0.4196 -0.8988
vn -0.0273 -0.7070 -0.7067
vn -0.0269 -0.3826 -0.9235
vn 0.4851 -0.3217 -0.8131
vn 0.8240 -0.2332 -0.5163
vn 0.5076 -0.6092 -0.6093
vn 0.8240 -0.5163 -0.2332
vn 0.4851 -0.8131 -0.3217
vn 0.5076 -0.6093 -0.6092
vn 0.7976 -0.2217 -0.5611
vn 0.9273 -0.2486 -0.2797
vn 0.8174 -0.4073 -0.4074
vn 0.9273 -0.2797 -0.2486
vn 0.7975 -0.5611 -0.2217
vn 0.8174 -0.4074 -0.4073
vn 0.9090 -0.2947 -0.2947
vn 0.0397 -0.5750 -0.8172
vn -0.4976 -0.6233 -0.6032
vn -0.4778 -0.3362 -0.8116
vn -0.9826 -0.1552 -0.1021
vn -0.9995 0.0039 -0.0314
vn -0.9220 -0.0102 -0.3871
vn -0.9273 0.1013 -0.3604
vn -0.9973 -0.0368 -0.0629
vn -0.9220 -0.3871 -0.0102
vn -0.9995 -0.0314 0.0039
vn -0.9826 -0.1021 -0.1552
vn -0.9791 -0.1197 0.1644
vn -0.9290 -0.3511 0.1170
vn -0.7975 -0.2217 -0.5611
vn -0.8174 -0.4073 -0.4074
vn -0.9273 -0.2486 -0.2797
vn -0.7071 0.0111 -0.7070
vn -0.7950 -0.2321 -0.5605
vn -0.9181 -0.0865 -0.3868
vn -0.3889 0.0135 -0.9212
vn -0.4779 -0.3361 -0.8116
vn -0.7811 0.0298 -0.6237
vn -0.4851 -0.3217 -0.8131
vn -0.5076 -0.6092 -0.6093
vn -0.8240 -0.2332 -0.5163
vn -0.4413 -0.7126 -0.5454
vn -0.7950 -0.5605 -0.2322
vn -0.8129 -0.4048 -0.4187
vn -0.7854 -0.4719 -0.4006
vn -0.9067 -0.2978 -0.2986
vn -0.3503 -0.8936 -0.2805
vn -0.7039 -0.7103 -0.0015
vn -0.7899 -0.5618 -0.2456
vn -0.7069 -0.6494 -0.2802
vn -0.9216 -0.3881 -0.0007
vn -0.8953 -0.4105 -0.1729
vn -0.7037 -0.7104 0.0082
vn -0.3807 -0.9247 -0.0018
vn -0.4009 -0.9111 0.0964
vn -0.9215 -0.3883 0.0094
vn -0.7172 -0.6901 0.0974
vn -0.2964 -0.9298 0.2185
vn -0.6519 -0.6519 0.3873
vn -0.6945 -0.7195 -0.0090
vn -0.6299 -0.7453 0.2185
vn -0.9171 -0.3985 -0.0088
vn -0.8671 -0.4474 0.2190
vn -0.9236 -0.0152 0.3830
vn -0.9990 -0.0435 -0.0057
vn -0.6634 -0.6456 0.3784
vn -0.4969 -0.4969 0.7115
vn -0.7741 -0.2261 0.5914
vn -0.7071 -0.3862 0.5924
vn -0.9267 -0.0282 0.3747
vn -0.9618 0.1960 0.1913
vn -0.9237 0.0016 0.3830
vn -1.0000 0.0007 0.0022
vn -0.8154 0.1958 0.5448
vn -0.7072 0.0018 0.7070
vn -0.9237 0.0001 0.3831
vn -0.7653 -0.0557 0.6413
vn -0.6620 0.2806 0.6950
vn -0.9164 0.2459 0.3157
vn -0.5449 0.1953 0.8155
vn -0.3828 0.0021 0.9238
vn -0.7071 0.0004 0.7071
vn -0.3158 0.2459 0.9164
vn -0.6713 0.2807 0.6860
vn -0.6414 -0.0558 0.7652
vn -0.3972 0.3142 0.8623
vn -0.2728 0.6921 0.6683
vn -0.6088 0.5218 0.5976
vn -0.3142 0.8623 0.3972
vn -0.6844 0.6848 0.2501
vn -0.5218 0.5976 0.6088
vn -0.6414 0.7651 -0.0557
vn -0.6713 0.6860 0.2807
vn -0.3158 0.9164 0.2459
vn -0.9164 0.3158 0.2459
vn -0.6620 0.6950 0.2806
vn -0.7653 0.6413 -0.0557
vn -0.2459 0.9164 0.3158
vn -0.3030 0.6693 0.6784
vn 0.0560 0.7653 0.6412
vn -0.3060 0.9513 -0.0368
vn -0.3580 0.8624 0.3580
vn 0.0372 0.9514 0.3057
vn -0.3827 0.9239 0.0007
vn -0.0015 1.0000 0.0018
vn -0.1935 0.9618 0.1934
vn -0.7071 0.7071 0.0004
vn -0.3828 0.9238 0.0021
vn -0.5467 0.8142 0.1953
vn -0.7109 0.7028 -0.0255
vn -0.3826 0.9239 -0.0061
vn -0.4040 0.8743 -0.2691
vn -0.3841 0.9230 -0.0216
vn -0.0016 1.0000 -0.0000
vn -0.0092 0.9940 -0.1087
vn -0.4773 0.8736 -0.0947
vn -0.2692 0.9247 -0.2691
vn -0.5100 0.7066 -0.4906
vn -0.3474 0.9239 -0.1602
vn -0.0003 1.0000 -0.0001
vn 0.0331 0.9940 -0.1038
vn -0.4905 0.7066 -0.5100
vn -0.2692 0.9247 -0.2692
vn -0.0947 0.8737 -0.4772
vn -0.2595 0.9237 -0.2818
vn -0.0002 1.0000 -0.0002
vn 0.0703 0.9940 -0.0833
vn -0.2691 0.8743 -0.4041
vn -0.0075 0.9239 -0.3826
vn -0.0283 0.7030 -0.7107
vn -0.1087 0.9940 -0.0093
vn -0.0000 1.0000 -0.0014
vn -0.0231 0.9230 -0.3841
vn -0.1950 0.8155 -0.5449
vn -0.0141 0.7074 -0.7066
vn -0.0057 0.9239 -0.3825
vn -0.0057 0.9239 -0.3826
vn -0.0000 1.0000 -0.0013
vn -0.1938 0.9617 -0.1941
vn 0.0283 0.7030 -0.7107
vn 0.2691 0.8743 -0.4040
vn 0.0231 0.9230 -0.3841
vn 0.1087 0.9940 -0.0093
vn 0.5108 0.7700 -0.3823
vn 0.2682 0.7119 -0.6491
vn 0.1551 0.9277 -0.3397
vn 0.1602 0.9239 -0.3474
vn 0.0001 1.0000 -0.0003
vn 0.1038 0.9941 0.0330
vn -0.0009 1.0000 -0.0014
vn 0.0022 1.0000 0.0011
vn -0.0003 1.0000 0.0024
vn 0.0017 1.0000 -0.0000
vn -0.0001 1.0000 -0.0005
vn 0.0003 1.0000 0.0004
vn 0.0003 1.0000 -0.0003
vn -0.0004 1.0000 -0.0003
vn -0.0014 1.0000 -0.0002
vn 0.0014 1.0000 -0.0002
vn -0.0002 1.0000 -0.0004
vn -0.0004 1.0000 0.0002
vn 0.0002 1.0000 -0.0004
vn -0.0005 1.0000 -0.0002
vn -0.0002 1.0000 0.0017
vn -0.0017 1.0000 -0.0003
vn 0.0008 1.0000 0.0023
vn 0.0003 1.0000 -0.0004
vn 0.0004 1.0000 0.0002
vn -0.0014 1.0000 -0.0003
vn 0.0013 1.0000 -0.0006
vn -0.0003 1.0000 -0.0003
vn -0.0007 1.0000 0.0015
vn 0.3480 0.9363 -0.0475
vn 0.2691 0.9248 -0.2691
vn 0.0101 0.9999 0.0134
vn 0.3401 0.9360 0.0910
vn 0.3514 0.9250 -0.1448
vn 0.0042 0.9999 0.0159
vn 0.1913 0.9619 -0.1951
vn 0.0017 1.0000 0.0014
vn -0.0372 0.9514 0.3057
vn 0.3580 0.8624 0.3580
vn 0.3060 0.9513 -0.0369
vn 0.0006 0.9239 0.3826
vn 0.0015 1.0000 0.0019
vn 0.1933 0.9619 0.1931
vn -0.0559 0.7653 0.6412
vn 0.3031 0.6693 0.6784
vn 0.2459 0.9164 0.3158
vn 0.0003 0.7071 0.7071
vn 0.0017 0.9239 0.3827
vn 0.1951 0.8145 0.5464
vn 0.2459 0.3158 0.9164
vn 0.3030 0.6784 0.6692
vn -0.0560 0.6412 0.7653
vn 0.0005 0.3827 0.9239
vn 0.0015 0.7071 0.7071
vn 0.1950 0.5434 0.8165
vn 0.0560 0.6412 0.7653
vn -0.3031 0.6784 0.6693
vn -0.2459 0.3158 0.9164
vn 0.0372 0.3058 0.9514
vn -0.3580 0.3580 0.8624
vn -0.3059 -0.0368 0.9513
vn 0.0003 0.0019 1.0000
vn 0.0017 0.3827 0.9239
vn 0.1950 0.1896 0.9623
vn -0.1914 0.1935 0.9623
vn -0.0015 0.0018 1.0000
vn -0.3827 0.0006 0.9239
vn -0.0005 -0.0000 1.0000
vn -0.0000 -0.0014 1.0000
vn 0.0014 -0.0002 1.0000
vn -0.0014 -0.0002 1.0000
vn 0.0002 -0.0004 1.0000
vn 0.0004 0.0002 1.0000
vn -0.0002 -0.0004 1.0000
vn 0.0002 0.0017 1.0000
vn 0.0009 -0.0014 1.0000
vn 0.0015 0.0018 1.0000
vn -0.0022 0.0011 1.0000
vn 0.0003 0.0024 1.0000
vn -0.0017 -0.0000 1.0000
vn -0.0000 -0.0005 1.0000
vn -0.0003 0.0004 1.0000
vn 0.0004 -0.0003 1.0000
vn 0.0001 -0.0014 1.0000
vn 0.0005 0.0001 1.0000
vn 0.0001 -0.0005 1.0000
vn 0.0016 0.0006 1.0000
vn -0.0016 0.0018 1.0000
vn 0.0002 0.0024 1.0000
vn -0.0004 -0.0002 1.0000
vn 0.3060 -0.0368 0.9513
vn 0.3580 0.3580 0.8624
vn -0.0372 0.3057 0.9514
vn 0.3827 0.0007 0.9239
vn 0.1935 0.1934 0.9618
vn 0.3842 -0.0216 0.9230
vn 0.0016 -0.0000 1.0000
vn 0.0093 -0.1087 0.9940
vn 0.1780 -0.3037 0.9360
vn 0.3513 -0.1448 0.9250
vn -0.0085 -0.0145 0.9999
vn 0.0475 -0.3480 0.9363
vn 0.2691 -0.2691 0.9247
vn -0.0134 -0.0101 0.9999
vn -0.0895 -0.3411 0.9358
vn 0.1448 -0.3514 0.9250
vn -0.0159 -0.0041 0.9999
vn 0.1951 -0.1913 0.9619
vn 0.0075 -0.3825 0.9239
vn -0.0018 -0.0013 1.0000
vn -0.0231 -0.3841 0.9230
vn -0.1087 -0.0093 0.9940
vn 0.0703 -0.0833 0.9940
vn -0.0002 -0.0002 1.0000
vn -0.2595 -0.2818 0.9237
vn 0.0330 -0.1038 0.9940
vn -0.0002 -0.0001 1.0000
vn -0.3474 -0.1602 0.9239
vn -0.0093 -0.1087 0.9940
vn -0.0016 -0.0000 1.0000
vn -0.3841 -0.0216 0.9230
vn -0.4040 -0.2691 0.8743
vn -0.3826 -0.0061 0.9239
vn -0.7108 -0.0255 0.7029
vn -0.5100 -0.4906 0.7066
vn -0.2692 -0.2692 0.9247
vn -0.4773 -0.0947 0.8736
vn -0.0947 -0.4773 0.8736
vn -0.4906 -0.5100 0.7066
vn -0.3655 -0.8504 0.3785
vn -0.2682 -0.6491 0.7118
vn -0.6280 -0.5057 0.5915
vn -0.0318 -0.9265 0.3749
vn -0.0142 -0.7067 0.7074
vn -0.3863 -0.7071 0.5923
vn -0.0283 -0.7107 0.7030
vn -0.0075 -0.3826 0.9239
vn -0.2691 -0.4040 0.8743
vn 0.0170 -0.9236 0.3829
vn 0.0141 -0.7067 0.7074
vn 0.1961 -0.8169 0.5425
vn 0.0123 -0.7067 0.7074
vn 0.1953 -0.5472 0.8139
vn -0.0758 -0.8628 0.4998
vn 0.3525 -0.8518 0.3876
vn 0.2536 -0.6473 0.7188
vn -0.0856 -0.6371 0.7660
vn 0.2681 -0.6491 0.7119
vn 0.1294 -0.3504 0.9276
vn 0.6456 -0.6634 0.3784
vn 0.4968 -0.4969 0.7115
vn 0.2261 -0.7741 0.5913
vn 0.4906 -0.5100 0.7066
vn 0.2692 -0.2692 0.9247
vn 0.0947 -0.4773 0.8736
vn 0.5439 -0.6670 0.5092
vn 0.8517 -0.3525 0.3876
vn 0.6375 -0.2771 0.7189
vn 0.6484 -0.2827 0.7069
vn 0.3514 -0.1449 0.9249
vn 0.2708 -0.4040 0.8737
vn 0.9267 -0.0282 0.3747
vn 0.7067 -0.0115 0.7074
vn 0.7071 -0.3862 0.5923
vn 0.7108 -0.0255 0.7029
vn 0.3826 -0.0061 0.9239
vn 0.4040 -0.2690 0.8743
vn 0.9237 0.0001 0.3831
vn 0.7072 0.0018 0.7070
vn 0.8166 0.1959 0.5430
vn 0.7071 0.0004 0.7071
vn 0.3828 0.0021 0.9238
vn 0.5467 0.1953 0.8142
vn 0.6414 -0.0557 0.7652
vn 0.6713 0.2807 0.6860
vn 0.3158 0.2459 0.9164
vn 0.9164 0.2459 0.3158
vn 0.6620 0.2807 0.6950
vn 0.7653 -0.0557 0.6413
vn 1.0000 0.0007 0.0022
vn 0.9622 0.1960 0.1892
vn 0.7653 0.6413 -0.0557
vn 0.6620 0.6950 0.2806
vn 0.9164 0.3157 0.2459
vn 0.3143 0.3971 0.8623
vn 0.6845 0.2501 0.6848
vn 0.5218 0.6088 0.5976
vn 0.3972 0.8623 0.3142
vn 0.2729 0.6683 0.6921
vn 0.6088 0.5976 0.5218
vn 0.3157 0.9164 0.2459
vn 0.6713 0.6860 0.2807
vn 0.6414 0.7652 -0.0557
vn 0.8156 0.5449 -0.1947
vn 0.9236 0.3831 -0.0152
vn 0.7067 0.7075 -0.0100
vn 0.5449 0.8155 -0.1951
vn 0.7067 0.7075 -0.0114
vn 0.3825 0.9239 -0.0046
vn 0.8611 0.5022 0.0789
vn 0.6473 0.7188 -0.2536
vn 0.6353 0.7672 0.0882
vn 0.6491 0.7119 -0.2681
vn 0.3504 0.9276 -0.1294
vn 0.8242 0.5096 -0.2471
vn 0.6519 0.3874 -0.6519
vn 0.5007 0.7185 -0.4827
vn 0.5100 0.7066 -0.4906
vn 0.4773 0.8736 -0.0947
vn 0.6669 0.5092 -0.5439
vn 0.3525 0.3876 -0.8517
vn 0.2771 0.7189 -0.6375
vn 0.3910 -0.0094 -0.9204
vn 0.3525 0.3876 -0.8518
vn 0.7453 0.2185 -0.6299
vn 0.9378 0.1660 -0.3050
vn 0.7031 0.0020 -0.7110
vn 0.6573 0.3977 -0.6401
vn 0.0325 -0.0083 -0.9994
vn 0.0188 0.3830 -0.9235
vn 0.4474 0.2190 -0.8671
vn 0.0318 0.3749 -0.9265
vn 0.0142 0.7074 -0.7067
vn 0.3863 0.5923 -0.7071
vn -0.0186 0.0016 -0.9998
vn -0.0188 0.3830 -0.9236
vn -0.1963 0.1886 -0.9622
vn -0.0170 0.3829 -0.9236
vn -0.0141 0.7074 -0.7067
vn -0.1961 0.5425 -0.8169
vn -0.4474 0.2190 -0.8671
vn -0.0188 0.3830 -0.9235
vn -0.0325 -0.0084 -0.9994
vn -0.3862 0.5924 -0.7071
vn -0.0142 0.7074 -0.7067
vn -0.0318 0.3749 -0.9265
vn -0.7453 0.2185 -0.6299
vn -0.3525 0.3875 -0.8518
vn -0.3910 -0.0094 -0.9203
vn -0.6456 0.3784 -0.6634
vn -0.4968 0.7115 -0.4969
vn -0.2261 0.5913 -0.7741
vn -0.9298 0.2185 -0.2964
vn -0.6519 0.3873 -0.6519
vn -0.7115 -0.0094 -0.7026
vn -0.8503 0.3786 -0.3655
vn -0.6491 0.7118 -0.2682
vn -0.5057 0.5915 -0.6280
vn -0.9990 -0.0057 -0.0435
vn -0.9236 0.3830 -0.0152
vn -0.8671 0.2190 -0.4474
vn -0.9267 0.3747 -0.0281
vn -0.7067 0.7074 -0.0115
vn -0.7071 0.5923 -0.3863
vn -1.0000 0.0022 0.0007
vn -0.9622 0.1892 0.1960
vn -0.9237 0.3831 0.0001
vn -0.7072 0.7070 0.0018
vn -0.8166 0.5430 0.1958
vn -0.7172 0.0974 -0.6901
vn -0.9215 0.0094 -0.3883
vn -0.4009 0.0964 -0.9111
vn -0.3807 -0.0018 -0.9247
vn -0.7037 0.0082 -0.7104
vn -0.0423 0.0856 -0.9954
vn -0.0204 -0.0019 -0.9998
vn -0.3804 0.0079 -0.9248
vn -0.0332 0.0114 -0.9994
vn -0.0270 -0.3825 -0.9235
vn -0.5145 -0.0804 -0.8537
vn 0.0185 -0.0018 -0.9998
vn 0.0269 -0.3825 -0.9236
vn -0.1270 -0.3388 -0.9323
vn 0.0185 0.0086 -0.9998
vn 0.0204 -0.0019 -0.9998
vn -0.0197 0.0057 -0.9998
vn -0.0544 -0.2010 -0.9781
vn 0.3806 -0.0019 -0.9247
vn 0.4673 -0.3521 -0.8109
vn 0.3804 0.0079 -0.9248
vn 0.0423 0.0856 -0.9954
vn 0.3503 -0.2805 -0.8936
vn 0.7039 -0.0015 -0.7103
vn 0.7899 -0.2456 -0.5618
vn 0.7037 0.0082 -0.7104
vn 0.3807 -0.0018 -0.9247
vn 0.4009 0.0964 -0.9111
vn 0.7069 -0.2802 -0.6494
vn 0.9216 -0.0007 -0.3881
vn 0.8953 -0.1729 -0.4105
vn 0.9215 0.0094 -0.3883
vn 0.7172 0.0974 -0.6901
vn 0.9220 -0.0102 -0.3871
vn 0.9995 0.0039 -0.0314
vn 0.9826 -0.1552 -0.1021
vn 0.9791 0.1644 -0.1197
vn 0.9290 0.1170 -0.3511
vn 0.9873 0.1492 0.0552
vn 0.9219 0.0021 -0.3874
vn 0.8523 0.3980 -0.3395
vn 0.9624 0.1914 -0.1929
vn 0.9236 0.3831 -0.0137
vn 0.9826 -0.1021 -0.1552
vn 0.9995 -0.0314 0.0039
vn 0.9220 -0.3871 -0.0102
vn 0.9273 -0.3604 0.1013
vn 0.9973 -0.0629 -0.0368
vn 0.9990 -0.0435 -0.0057
vn 0.9236 -0.0152 0.3830
vn 0.8671 -0.4474 0.2190
vn 0.6330 -0.7542 0.1747
vn 0.8430 -0.3620 0.3980
vn 0.7172 -0.6901 0.0974
vn 0.7039 -0.7103 -0.0015
vn 0.9215 -0.3883 0.0094
vn 0.8953 -0.4105 -0.1729
vn 0.9216 -0.3881 -0.0007
vn 0.7069 -0.6494 -0.2801
vn 0.7899 -0.5618 -0.2456
vn 0.3503 -0.8936 -0.2805
vn 0.4009 -0.9111 0.0964
vn 0.3807 -0.9247 -0.0018
vn 0.7037 -0.7104 0.0082
vn 0.4673 -0.8109 -0.3521
vn 0.3806 -0.9247 -0.0018
vn -0.0544 -0.9781 -0.2011
vn 0.0423 -0.9954 0.0856
vn 0.0204 -0.9998 -0.0019
vn 0.3804 -0.9248 0.0079
vn -0.0655 -0.9855 0.1564
vn 0.3800 -0.9250 0.0019
vn 0.3395 -0.8523 0.3980
vn 0.2983 -0.9388 0.1725
vn 0.7031 -0.7111 0.0020
vn 0.6401 -0.6573 0.3977
vn 0.0186 -0.9998 0.0016
vn 0.1963 -0.9622 0.1886
vn -0.0185 -0.9998 0.0086
vn -0.0204 -0.9998 -0.0019
vn 0.0197 -0.9998 0.0057
vn -0.0325 -0.9994 -0.0083
vn -0.0188 -0.9235 0.3830
vn -0.4474 -0.8671 0.2190
vn -0.3804 -0.9248 0.0079
vn -0.0423 -0.9954 0.0856
vn 0.0544 -0.9781 -0.2010
vn -0.3806 -0.9247 -0.0019
vn -0.4673 -0.8109 -0.3521
vn 0.0250 -0.9235 -0.3828
vn 0.0204 -0.9998 -0.0020
vn -0.1188 -0.9921 -0.0407
vn 0.0397 -0.8172 -0.5750
vn -0.4778 -0.8116 -0.3362
vn -0.4976 -0.6031 -0.6234
vn 0.0273 -0.7067 -0.7070
vn 0.0269 -0.9235 -0.3826
vn -0.1270 -0.8988 -0.4196
vn 0.4976 -0.6032 -0.6233
vn 0.4778 -0.8116 -0.3362
vn -0.0397 -0.8172 -0.5750
vn -0.0397 -0.5750 -0.8172
vn 0.4778 -0.3362 -0.8116
vn 0.4976 -0.6234 -0.6031
vn 0.0250 -0.3824 -0.9237
vn -0.1294 -0.6683 -0.7325
vn 0.4413 -0.5454 -0.7126
vn 0.7950 -0.2322 -0.5605
vn 0.8129 -0.4187 -0.4048
vn 0.8129 -0.4048 -0.4187
vn 0.7950 -0.5605 -0.2322
vn 0.4413 -0.7125 -0.5455
vn 0.7854 -0.4006 -0.4719
vn 0.9067 -0.2986 -0.2978
vn 0.9067 -0.2978 -0.2986
vn 0.7854 -0.4719 -0.4006
vn -0.0391 -0.3688 -0.9287
vn -0.5461 -0.4014 -0.7353
vt 0.621521 0.159885
vt 0.544058 0.157403
vt 0.549197 0.148507
vt 0.621521 0.148500
vt 0.621517 0.025553
vt 0.549193 0.025560
vt 0.693849 0.025564
vt 0.698123 0.036954
vt 0.621526 0.036938
vt 0.698989 0.034460
vt 0.699000 0.036686
vt 0.544047 0.159630
vt 0.544925 0.159897
vt 0.699776 0.035900
vt 0.543272 0.158844
vt 0.538465 0.171080
vt 0.539347 0.171288
vt 0.535607 0.182670
vt 0.534736 0.182559
vt 0.537653 0.170432
vt 0.708312 0.059615
vt 0.705395 0.047488
vt 0.709169 0.059239
vt 0.704582 0.048137
vt 0.707441 0.059727
vt 0.703700 0.048345
vt 0.621525 0.059710
vt 0.621526 0.048324
vt 0.985551 0.607222
vt 0.977896 0.581825
vt 0.987370 0.605914
vt 0.976494 0.584211
vt 0.963728 0.565714
vt 0.962959 0.568807
vt 0.947232 0.559767
vt 0.962199 0.571854
vt 0.947023 0.563088
vt 0.773324 0.560000
vt 0.946814 0.566393
vt 0.773394 0.563325
vt 0.771341 0.563936
vt 0.773463 0.566592
vt 0.946608 0.569695
vt 0.771568 0.569487
vt 0.773514 0.569795
vt 0.770339 0.566995
vt 0.771585 0.566772
vt 0.016974 0.917138
vt 0.015747 0.919627
vt 0.015338 0.917462
vt 0.016748 0.922685
vt 0.016992 0.919850
vt 0.018868 0.920030
vt 0.018920 0.916830
vt 0.018800 0.923294
vt 0.015059 0.913957
vt 0.017016 0.913745
vt 0.018924 0.913635
vt 0.191680 0.913632
vt 0.191884 0.916932
vt 0.192091 0.920231
vt 0.206709 0.911748
vt 0.207465 0.914782
vt 0.205953 0.908708
vt 0.220367 0.900086
vt 0.217616 0.895410
vt 0.218993 0.897749
vt 0.227220 0.876861
vt 0.229005 0.878145
vt 0.225432 0.875576
vt 0.232207 0.852018
vt 0.230270 0.851666
vt 0.232206 0.619239
vt 0.230269 0.619591
vt 0.228331 0.619942
vt 0.227219 0.594397
vt 0.229004 0.593114
vt 0.225431 0.595682
vt 0.220367 0.571175
vt 0.218992 0.573509
vt 0.217615 0.575848
vt 0.205952 0.562552
vt 0.228332 0.851315
vt 0.206709 0.559512
vt 0.191884 0.554327
vt 0.191680 0.557628
vt 0.018920 0.554430
vt 0.018924 0.557624
vt 0.017016 0.557514
vt 0.015059 0.557303
vt 0.016974 0.554122
vt 0.771566 0.932772
vt 0.769650 0.929589
vt 0.771608 0.929377
vt 0.769651 0.572670
vt 0.771609 0.572882
vt 0.773519 0.572992
vt 0.773517 0.929267
vt 0.946402 0.572997
vt 0.972357 0.911031
vt 0.980184 0.611079
vt 0.773513 0.932464
vt 0.946401 0.929265
vt 0.946606 0.932568
vt 0.960685 0.924338
vt 0.961442 0.927380
vt 0.973735 0.913372
vt 0.981968 0.892467
vt 0.980179 0.891182
vt 0.985021 0.867254
vt 0.983081 0.866903
vt 0.985020 0.635008
vt 0.983081 0.635358
vt 0.981973 0.609794
vt 0.973737 0.588894
vt 0.972360 0.591235
vt 0.961443 0.574891
vt 0.960685 0.577934
vt 0.975112 0.586556
vt 0.983759 0.608510
vt 0.988900 0.634300
vt 0.986959 0.634655
vt 0.988900 0.867962
vt 0.986959 0.867607
vt 0.983755 0.893752
vt 0.976492 0.918057
vt 0.985547 0.895042
vt 0.975111 0.915710
vt 0.962198 0.930416
vt 0.947021 0.939175
vt 0.962957 0.933463
vt 0.946813 0.935870
vt 0.773393 0.938933
vt 0.773462 0.935667
vt 0.771340 0.938323
vt 0.773323 0.942259
vt 0.947230 0.942496
vt 0.018868 0.551229
vt 0.016748 0.548575
vt 0.018800 0.547965
vt 0.018730 0.544642
vt 0.016991 0.551409
vt 0.015747 0.551632
vt 0.771583 0.935487
vt 0.770337 0.935263
vt 0.769928 0.933096
vt 0.192091 0.551028
vt 0.192299 0.547725
vt 0.207465 0.556478
vt 0.208224 0.553433
vt 0.221747 0.568830
vt 0.232613 0.590520
vt 0.223149 0.566449
vt 0.208993 0.550342
vt 0.236094 0.618529
vt 0.230795 0.591825
vt 0.234145 0.618884
vt 0.236095 0.852728
vt 0.234146 0.852373
vt 0.230796 0.879433
vt 0.232614 0.880738
vt 0.221747 0.902432
vt 0.223150 0.904812
vt 0.208223 0.917827
vt 0.208993 0.920917
vt 0.192507 0.926853
vt 0.192299 0.923534
vt 0.018730 0.926618
vt 0.621521 0.171271
vt 0.621522 0.182657
vt 0.621522 0.194043
vt 0.534276 0.194044
vt 0.534276 0.291295
vt 0.533403 0.194009
vt 0.621522 0.291297
vt 0.534736 0.302780
vt 0.533403 0.291331
vt 0.535608 0.302668
vt 0.621521 0.302683
vt 0.538466 0.314258
vt 0.539348 0.314050
vt 0.621521 0.314069
vt 0.544048 0.325708
vt 0.544926 0.325441
vt 0.621520 0.325455
vt 0.544059 0.327935
vt 0.549199 0.336830
vt 0.192507 0.544407
vt 0.621520 0.336841
vt 0.621514 0.459782
vt 0.549193 0.459771
vt 0.621523 0.202510
vt 0.698987 0.204995
vt 0.693847 0.213891
vt 0.963728 0.936556
vt 0.977896 0.920439
vt 0.621523 0.191124
vt 0.698120 0.202501
vt 0.698998 0.202769
vt 0.703698 0.191110
vt 0.704581 0.191318
vt 0.707439 0.179729
vt 0.708311 0.179840
vt 0.621523 0.179738
vt 0.708771 0.168355
vt 0.709645 0.168390
vt 0.621522 0.168352
vt 0.990850 0.868317
vt 0.987366 0.896348
vt 0.990850 0.633945
vt 0.621524 0.071095
vt 0.708772 0.071100
vt 0.709646 0.071065
vt 0.710521 0.070957
vt 0.710521 0.168498
vt 0.709167 0.180216
vt 0.533880 0.303156
vt 0.532528 0.291438
vt 0.532528 0.193901
vt 0.537654 0.314906
vt 0.705393 0.191967
vt 0.543273 0.326494
vt 0.699773 0.203554
vt 0.533879 0.182183
vt 0.621527 0.025553
vt 0.769930 0.569163
vt 0.015338 0.553798
vt 0.621524 0.213895
s 0
usemtl multitexture
f 143/1/1 5/2/2 1/3/3
f 2/4/4 1/3/5 3/5/6
f 3/5/6 1/3/5 4/6/7
f 1/7/8 6/8/9 23/9/10
f 6/8/11 5/10/12 8/11/13
f 10/12/14 5/2/12 7/13/15
f 8/11/13 5/10/12 9/14/16
f 9/15/16 5/2/12 10/12/14
f 11/16/17 9/15/18 10/12/14
f 12/17/19 10/12/20 7/13/21
f 146/18/22 11/16/23 12/17/24
f 13/19/25 14/20/26 11/16/27
f 17/21/28 14/22/29 15/23/30
f 16/24/31 9/14/32 14/22/33
f 19/25/34 16/24/35 17/21/36
f 18/26/37 8/11/38 16/24/39
f 18/26/40 21/27/41 20/28/42
f 6/8/43 20/28/44 23/9/45
f 103/29/46 20/30/47 21/31/48
f 22/32/49 23/33/50 20/30/51
f 24/34/52 4/35/53 23/33/54
f 22/32/55 25/36/56 24/34/57
f 25/36/58 26/37/59 24/34/57
f 26/37/60 3/38/61 4/35/62
f 27/39/63 28/40/64 26/37/65
f 28/40/66 29/41/67 3/38/68
f 30/42/69 29/41/70 28/40/71
f 100/43/72 30/42/73 27/39/74
f 33/44/75 30/42/76 31/45/77
f 33/44/78 34/46/79 32/47/80
f 32/47/81 34/46/82 29/41/83
f 38/48/84 34/49/85 35/50/86
f 29/51/83 34/49/87 36/52/88
f 37/53/89 38/48/90 40/54/91
f 29/51/92 37/53/93 145/55/94
f 38/48/95 76/56/96 39/57/97
f 40/54/98 39/57/99 41/58/100
f 40/54/101 44/59/102 42/60/103
f 37/53/104 42/60/105 43/61/106
f 43/61/107 45/62/108 46/63/109
f 42/60/110 47/64/111 45/62/112
f 45/62/113 49/65/114 46/63/115
f 45/62/116 50/66/117 48/67/118
f 49/65/119 51/68/120 52/69/121
f 48/67/122 53/70/123 51/68/124
f 51/68/125 55/71/126 52/69/127
f 53/70/128 54/72/129 51/68/130
f 58/73/131 54/72/132 57/74/133
f 54/72/134 59/75/135 57/74/136
f 58/73/137 60/76/138 61/77/139
f 57/74/140 63/78/141 60/76/142
f 129/79/143 60/76/144 62/80/145
f 60/76/146 64/81/147 62/80/148
f 65/82/149 56/83/150 44/59/151
f 66/84/152 64/81/153 65/82/154
f 68/85/155 65/82/156 67/86/157
f 70/87/158 67/86/159 69/88/160
f 71/89/161 70/87/162 69/88/163
f 71/89/164 41/58/165 39/57/166
f 73/90/167 72/91/168 71/89/169
f 73/90/170 39/57/171 76/56/172
f 182/92/173 73/93/174 74/94/175
f 74/94/176 76/95/177 77/96/178
f 76/95/179 33/44/180 77/96/181
f 77/96/182 31/45/183 78/97/184
f 80/98/185 77/96/186 78/97/187
f 79/99/188 31/45/189 100/43/190
f 86/100/191 78/97/192 94/101/193
f 81/102/194 74/94/195 80/98/196
f 81/102/197 82/103/198 83/104/199
f 83/104/200 84/105/201 85/106/202
f 87/107/203 84/105/204 86/100/205
f 89/108/206 86/100/207 88/109/208
f 91/110/209 88/109/210 90/111/211
f 93/112/212 90/111/213 92/113/211
f 93/112/214 94/101/215 95/114/216
f 94/101/217 97/115/218 95/114/219
f 96/116/220 99/117/221 97/115/222
f 98/118/223 100/43/224 99/117/225
f 99/117/226 27/39/227 25/36/228
f 101/119/229 99/117/230 25/36/231
f 95/114/232 101/119/233 102/120/234
f 103/29/235 101/119/236 22/32/237
f 105/121/238 102/120/239 103/29/240
f 104/122/241 95/114/242 102/120/243
f 107/123/244 104/122/245 105/121/246
f 106/124/247 93/112/248 104/122/249
f 107/123/250 108/125/251 106/124/252
f 106/124/253 89/108/254 91/110/255
f 111/126/256 108/125/257 109/127/258
f 110/128/259 89/108/260 108/125/261
f 111/126/262 112/129/263 110/128/264
f 112/129/265 87/107/266 110/128/267
f 115/130/268 112/129/269 113/131/270
f 114/132/271 85/106/272 112/129/273
f 118/133/274 114/132/275 115/130/276
f 116/134/277 83/104/278 114/132/279
f 116/134/280 182/92/281 81/102/282
f 120/135/283 116/134/284 118/133/285
f 118/133/286 119/136/287 120/135/288
f 119/136/289 115/130/290 161/137/291
f 124/138/292 120/139/293 121/140/294
f 119/141/287 121/140/295 120/139/288
f 120/139/296 122/142/297 123/143/298
f 117/144/299 120/135/296 123/145/300
f 182/92/301 123/145/302 75/146/303
f 72/91/304 123/143/305 122/142/306
f 72/91/307 124/138/308 70/87/309
f 121/140/310 125/147/311 124/138/312
f 124/138/313 68/85/314 70/87/315
f 126/148/316 127/149/317 125/147/318
f 125/147/319 66/84/320 68/85/321
f 128/150/322 129/79/323 127/149/324
f 129/79/325 66/84/326 127/149/327
f 130/151/328 61/77/329 129/79/330
f 133/152/331 130/151/332 131/153/333
f 158/154/334 130/151/335 128/150/336
f 135/155/337 132/156/338 133/152/339
f 134/157/340 61/77/341 132/156/342
f 137/158/343 134/157/344 135/155/345
f 136/159/346 58/73/347 134/157/348
f 138/160/349 137/158/350 139/161/351
f 52/69/352 136/159/353 138/160/354
f 140/162/355 139/161/356 141/163/357
f 140/162/358 52/69/359 138/160/354
f 142/164/360 141/163/361 143/165/362
f 142/164/363 49/65/364 140/162/365
f 2/166/366 142/164/367 143/165/362
f 144/167/368 46/63/369 142/164/370
f 3/168/371 144/167/372 2/166/4
f 145/55/373 43/61/374 144/167/375
f 3/168/68 29/51/376 145/55/377
f 141/169/378 7/13/379 143/1/380
f 139/170/381 12/17/382 141/169/383
f 137/171/384 146/18/385 139/170/386
f 147/172/387 13/19/388 146/18/389
f 149/173/390 148/174/391 147/172/392
f 135/175/393 147/172/394 137/171/395
f 149/173/396 152/176/397 150/177/398
f 151/178/399 135/175/400 133/179/401
f 151/178/402 154/180/403 152/176/404
f 153/181/405 133/179/406 131/182/407
f 153/181/408 156/183/409 154/180/410
f 155/184/411 131/182/412 158/185/413
f 156/183/414 155/184/415 157/186/416
f 160/187/417 155/184/418 158/185/419
f 159/188/420 128/150/421 126/148/422
f 119/141/423 126/148/424 121/140/425
f 159/189/426 119/190/427 160/187/428
f 119/190/427 161/191/291 160/187/428
f 162/192/429 157/193/430 160/194/431
f 161/137/432 113/131/433 162/195/434
f 163/196/435 113/131/436 111/126/437
f 163/197/438 164/198/439 162/192/440
f 164/198/441 165/199/442 157/193/443
f 165/199/444 166/200/445 167/201/446
f 167/201/447 168/202/448 169/203/449
f 171/204/450 166/200/451 163/197/452
f 169/203/453 170/205/454 177/206/455
f 172/207/456 168/202/457 171/204/458
f 172/208/459 109/127/460 107/123/461
f 171/209/462 111/126/463 109/127/464
f 172/208/465 105/121/466 173/210/467
f 173/211/468 170/205/469 172/207/470
f 173/210/471 103/29/472 21/31/48
f 19/25/473 173/211/474 21/27/475
f 174/212/476 17/21/477 175/213/478
f 177/206/479 174/212/480 175/213/481
f 175/213/482 15/23/483 176/214/484
f 178/215/485 175/213/486 176/214/484
f 179/216/487 177/206/488 178/215/489
f 150/177/490 179/217/491 178/218/489
f 150/177/492 176/219/493 148/174/494
f 152/176/495 180/220/496 179/217/497
f 180/221/498 169/203/499 179/216/500
f 154/180/501 181/222/502 180/220/503
f 181/223/504 167/201/505 180/221/506
f 165/199/442 181/223/507 157/193/443
f 181/222/507 156/183/414 157/186/443
f 148/174/508 15/224/509 13/19/510
f 1/3/511 2/4/512 143/1/513
f 143/1/514 7/13/15 5/2/515
f 23/9/516 4/225/517 1/7/518
f 1/7/519 5/10/12 6/8/520
f 11/16/521 14/20/522 9/15/523
f 12/17/524 11/16/525 10/12/526
f 146/18/527 13/19/528 11/16/529
f 13/19/530 15/224/531 14/20/532
f 17/21/533 16/24/534 14/22/535
f 16/24/536 8/11/13 9/14/537
f 19/25/538 18/26/539 16/24/540
f 18/26/541 6/8/542 8/11/543
f 18/26/544 19/25/545 21/27/546
f 6/8/547 18/26/539 20/28/548
f 103/29/549 22/32/550 20/30/551
f 22/32/552 24/34/57 23/33/553
f 24/34/554 26/37/555 4/35/556
f 22/32/557 101/119/558 25/36/559
f 25/36/560 27/39/74 26/37/561
f 26/37/562 28/40/563 3/38/564
f 27/39/565 30/42/566 28/40/567
f 30/42/568 32/47/569 29/41/570
f 100/43/571 31/45/572 30/42/573
f 33/44/574 32/47/575 30/42/576
f 33/44/577 35/226/578 34/46/579
f 38/48/580 36/52/581 34/49/582
f 37/53/583 36/52/584 38/48/585
f 29/51/586 36/52/587 37/53/588
f 38/48/589 35/50/590 76/56/591
f 40/54/592 38/48/593 39/57/594
f 40/54/595 41/58/596 44/59/597
f 37/53/598 40/54/599 42/60/600
f 43/61/601 42/60/602 45/62/603
f 42/60/604 44/59/605 47/64/606
f 45/62/607 48/67/608 49/65/609
f 45/62/610 47/64/611 50/66/612
f 49/65/613 48/67/614 51/68/615
f 48/67/616 50/66/617 53/70/618
f 51/68/619 54/72/620 55/71/621
f 53/70/622 56/83/623 54/72/624
f 58/73/625 55/71/626 54/72/627
f 54/72/628 56/83/629 59/75/630
f 58/73/631 57/74/133 60/76/632
f 57/74/633 59/75/629 63/78/634
f 129/79/635 61/77/636 60/76/637
f 60/76/638 63/78/639 64/81/640
f 44/59/641 41/58/596 69/88/642
f 69/88/643 67/86/644 65/82/645
f 65/82/646 64/81/647 63/78/648
f 63/78/149 59/75/623 56/83/649
f 56/83/650 53/70/651 50/66/652
f 50/66/653 47/64/654 44/59/655
f 44/59/656 69/88/657 65/82/658
f 65/82/659 63/78/653 56/83/660
f 56/83/661 50/66/662 44/59/663
f 66/84/664 62/80/665 64/81/666
f 68/85/667 66/84/668 65/82/669
f 70/87/670 68/85/321 67/86/671
f 71/89/672 72/91/673 70/87/674
f 71/89/675 69/88/676 41/58/677
f 73/90/678 75/227/679 72/91/680
f 73/90/681 71/89/682 39/57/683
f 182/92/684 75/146/685 73/93/686
f 74/94/687 73/93/688 76/95/689
f 76/95/690 35/226/691 33/44/692
f 77/96/693 33/44/694 31/45/695
f 80/98/696 74/94/697 77/96/698
f 79/99/699 78/97/700 31/45/701
f 94/101/702 92/113/703 90/111/704
f 90/111/705 88/109/706 86/100/707
f 86/100/708 84/105/191 82/103/709
f 82/103/710 80/98/711 78/97/712
f 78/97/713 79/99/714 98/118/715
f 98/118/716 96/116/193 94/101/717
f 94/101/702 90/111/718 86/100/719
f 86/100/720 82/103/721 78/97/722
f 78/97/723 98/118/724 94/101/706
f 81/102/725 182/92/726 74/94/727
f 81/102/728 80/98/711 82/103/729
f 83/104/730 82/103/731 84/105/732
f 87/107/733 85/106/734 84/105/735
f 89/108/736 87/107/737 86/100/738
f 91/110/739 89/108/740 88/109/741
f 93/112/742 91/110/743 90/111/744
f 93/112/745 92/113/703 94/101/746
f 94/101/747 96/116/748 97/115/749
f 96/116/750 98/118/751 99/117/752
f 98/118/753 79/99/754 100/43/755
f 99/117/756 100/43/757 27/39/758
f 101/119/759 97/115/760 99/117/761
f 95/114/762 97/115/760 101/119/763
f 103/29/764 102/120/765 101/119/766
f 105/121/767 104/122/768 102/120/769
f 104/122/770 93/112/771 95/114/772
f 107/123/773 106/124/774 104/122/775
f 106/124/776 91/110/255 93/112/777
f 107/123/778 109/127/779 108/125/780
f 106/124/781 108/125/782 89/108/783
f 111/126/784 110/128/785 108/125/786
f 110/128/787 87/107/788 89/108/789
f 111/126/790 113/131/791 112/129/792
f 112/129/793 85/106/794 87/107/795
f 115/130/796 114/132/797 112/129/798
f 114/132/799 83/104/800 85/106/801
f 118/133/802 116/134/803 114/132/804
f 116/134/805 81/102/806 83/104/807
f 116/134/808 117/144/809 182/92/810
f 120/135/811 117/144/812 116/134/813
f 119/136/814 118/133/286 115/130/815
f 124/138/816 122/142/817 120/139/818
f 182/92/819 117/144/820 123/145/821
f 72/91/822 75/227/823 123/143/824
f 72/91/825 122/142/826 124/138/827
f 121/140/828 126/148/829 125/147/830
f 124/138/831 125/147/832 68/85/833
f 126/148/834 128/150/336 127/149/835
f 125/147/836 127/149/837 66/84/838
f 128/150/839 130/151/840 129/79/841
f 129/79/842 62/80/145 66/84/843
f 130/151/844 132/156/845 61/77/846
f 133/152/847 132/156/848 130/151/849
f 158/154/850 131/153/851 130/151/852
f 135/155/853 134/157/854 132/156/855
f 134/157/856 58/73/857 61/77/858
f 137/158/859 136/159/860 134/157/861
f 136/159/862 55/71/863 58/73/864
f 138/160/865 136/159/866 137/158/867
f 52/69/868 55/71/869 136/159/870
f 140/162/871 138/160/872 139/161/873
f 140/162/874 49/65/875 52/69/876
f 142/164/877 140/162/878 141/163/879
f 142/164/880 46/63/881 49/65/882
f 2/166/883 144/167/884 142/164/885
f 144/167/886 43/61/887 46/63/888
f 3/168/889 145/55/377 144/167/890
f 145/55/891 37/53/892 43/61/893
f 141/169/894 12/17/24 7/13/895
f 139/170/896 146/18/897 12/17/898
f 137/171/899 147/172/900 146/18/901
f 147/172/902 148/174/903 13/19/904
f 149/173/905 150/177/906 148/174/907
f 135/175/908 149/173/909 147/172/910
f 149/173/911 151/178/912 152/176/913
f 151/178/914 149/173/909 135/175/915
f 151/178/916 153/181/917 154/180/918
f 153/181/919 151/178/920 133/179/921
f 153/181/922 155/184/923 156/183/924
f 155/184/925 153/181/917 131/182/926
f 158/185/927 159/189/928 160/187/929
f 160/187/930 157/186/443 155/184/931
f 159/188/932 158/154/933 128/150/934
f 119/141/935 159/188/426 126/148/936
f 160/194/937 161/228/938 162/192/939
f 162/192/940 164/198/441 157/193/941
f 161/137/942 115/130/943 113/131/944
f 163/196/945 162/195/434 113/131/946
f 163/197/947 166/200/948 164/198/949
f 165/199/950 164/198/951 166/200/952
f 167/201/953 166/200/948 168/202/954
f 171/204/955 168/202/956 166/200/957
f 169/203/958 168/202/959 170/205/960
f 172/207/961 170/205/962 168/202/963
f 172/208/964 171/209/965 109/127/966
f 171/209/967 163/196/968 111/126/969
f 172/208/970 107/123/461 105/121/971
f 173/211/972 174/212/973 170/205/974
f 173/210/975 105/121/976 103/29/977
f 19/25/978 174/212/973 173/211/979
f 174/212/980 19/25/981 17/21/982
f 177/206/983 170/205/984 174/212/985
f 175/213/986 17/21/987 15/23/988
f 178/215/989 177/206/990 175/213/991
f 179/216/992 169/203/993 177/206/994
f 150/177/995 152/176/996 179/217/997
f 150/177/998 178/218/489 176/219/999
f 152/176/1000 154/180/1001 180/220/1002
f 180/221/1003 167/201/1004 169/203/1005
f 154/180/1006 156/183/414 181/222/1007
f 181/223/1008 165/199/442 167/201/1009
f 148/174/1010 176/219/484 15/224/1011
