# Blender 5.0.1
# www.blender.org

mtllib UL.mtl
o edge_UL
v -0.137198 0.137076 -0.100163
v -0.137198 0.295334 -0.100163
v -0.295456 0.295334 -0.100163
v -0.295456 0.137076 -0.100163
v -0.125980 0.125858 -0.097932
v -0.127841 0.122702 -0.097304
v -0.122824 0.127719 -0.097304
v -0.125921 0.123084 -0.097304
v -0.124294 0.124171 -0.097304
v -0.123206 0.125799 -0.097304
v -0.111018 0.113592 -0.089162
v -0.110639 0.115499 -0.089162
v -0.102871 0.105413 -0.076976
v -0.112098 0.111976 -0.089162
v -0.103938 0.103816 -0.076976
v -0.113715 0.110896 -0.089162
v -0.105535 0.102749 -0.076976
v -0.115622 0.110516 -0.089162
v -0.107419 0.102374 -0.076976
v -0.295456 0.110516 -0.089162
v -0.295456 0.102374 -0.076976
v -0.297181 0.110764 -0.088915
v -0.295456 0.122702 -0.097304
v -0.297181 0.122836 -0.096981
v -0.298644 0.123217 -0.096061
v -0.297181 0.137110 -0.099820
v -0.298644 0.137206 -0.098843
v -0.297181 0.295334 -0.099820
v -0.297224 0.297102 -0.099406
v -0.298644 0.295334 -0.098843
v -0.299621 0.295334 -0.097381
v -0.298414 0.297012 -0.098614
v -0.299207 0.297102 -0.097424
v -0.298059 0.297936 -0.098258
v -0.298414 0.298292 -0.097334
v -0.297135 0.298292 -0.098614
v -0.295456 0.298521 -0.098843
v -0.297224 0.299084 -0.097424
v -0.297181 0.299498 -0.095656
v -0.295456 0.299498 -0.097381
v -0.295456 0.299841 -0.095656
v -0.137472 0.299498 -0.097381
v -0.137328 0.298521 -0.098843
v -0.137642 0.299841 -0.095656
v -0.123910 0.299498 -0.094683
v -0.123339 0.298521 -0.096061
v -0.124583 0.299841 -0.093058
v -0.112645 0.299498 -0.087156
v -0.111590 0.298521 -0.088210
v -0.113888 0.299841 -0.085912
v -0.105117 0.299498 -0.075890
v -0.103740 0.298521 -0.076461
v -0.106742 0.299841 -0.075217
v -0.102420 0.299498 -0.062328
v -0.100957 0.298521 -0.062472
v -0.104144 0.299841 -0.062158
v -0.102420 0.299498 0.062328
v -0.100957 0.298521 0.062472
v -0.104144 0.299841 0.062158
v -0.105117 0.299498 0.075890
v -0.103740 0.298521 0.076461
v -0.112645 0.299498 0.087156
v -0.106742 0.299841 0.075217
v -0.113888 0.299841 0.085912
v -0.124583 0.299841 0.093058
v -0.123910 0.299498 0.094683
v -0.137642 0.299841 0.095656
v -0.137472 0.299498 0.097381
v -0.295456 0.299841 0.095656
v -0.295456 0.299498 0.097381
v -0.297181 0.299498 0.095656
v -0.297225 0.299084 0.097424
v -0.298644 0.298521 0.095656
v -0.299621 0.297059 0.095656
v -0.298414 0.298292 0.097334
v -0.298644 0.298521 -0.095656
v -0.299621 0.297059 -0.095656
v -0.299964 0.295334 -0.095656
v -0.299964 0.137520 -0.095656
v -0.299964 0.295334 0.095656
v -0.299621 0.295334 0.097381
v -0.299964 0.137520 0.095656
v -0.299621 0.137350 0.097381
v -0.299964 0.124461 0.093058
v -0.299621 0.123788 0.094683
v -0.299964 0.113766 0.085912
v -0.299621 0.112522 0.087156
v -0.299964 0.106620 0.075217
v -0.299621 0.104995 0.075890
v -0.299964 0.104022 0.062158
v -0.299621 0.102297 0.062328
v -0.299964 0.104022 -0.062158
v -0.299621 0.102297 -0.062328
v -0.299964 0.106620 -0.075217
v -0.299621 0.104995 -0.075890
v -0.299964 0.113766 -0.085912
v -0.299621 0.112522 -0.087156
v -0.299964 0.124461 -0.093058
v -0.299621 0.123788 -0.094683
v -0.299621 0.137350 -0.097381
v -0.298644 0.111468 -0.088210
v -0.298644 0.103618 -0.076461
v -0.297181 0.102697 -0.076842
v -0.298644 0.100835 -0.062472
v -0.297181 0.099858 -0.062568
v -0.298644 0.100835 0.062472
v -0.297181 0.099858 0.062568
v -0.298644 0.103617 0.076461
v -0.297181 0.102697 0.076842
v -0.298644 0.111468 0.088210
v -0.297181 0.110764 0.088914
v -0.298644 0.123217 0.096061
v -0.297181 0.122836 0.096981
v -0.298644 0.137206 0.098843
v -0.297181 0.137110 0.099820
v -0.298644 0.295334 0.098843
v -0.298414 0.297012 0.098614
v -0.297181 0.295334 0.099820
v -0.295456 0.295334 0.100163
v -0.297225 0.297102 0.099406
v -0.295456 0.297059 0.099820
v -0.297135 0.298292 0.098614
v -0.298059 0.297936 0.098258
v -0.295456 0.298521 0.098843
v -0.137328 0.298521 0.098843
v -0.137232 0.297059 0.099820
v -0.123339 0.298521 0.096061
v -0.122958 0.297059 0.096981
v -0.111590 0.298521 0.088210
v -0.110886 0.297059 0.088915
v -0.110639 0.295334 0.089162
v -0.102819 0.297059 0.076842
v -0.102496 0.295334 0.076976
v -0.099980 0.297059 0.062568
v -0.099637 0.295334 0.062602
v -0.099980 0.297059 -0.062568
v -0.099637 0.295334 -0.062602
v -0.102819 0.297059 -0.076842
v -0.102496 0.295334 -0.076976
v -0.110886 0.297059 -0.088914
v -0.110639 0.295334 -0.089162
v -0.122958 0.297059 -0.096981
v -0.122824 0.295334 -0.097304
v -0.137232 0.297059 -0.099820
v -0.295456 0.297059 -0.099820
v -0.102496 0.107297 -0.076976
v -0.099637 0.104396 -0.062602
v -0.100009 0.102528 -0.062602
v -0.099637 0.104396 0.062602
v -0.100009 0.102528 0.062602
v -0.102496 0.107297 0.076976
v -0.102871 0.105413 0.076976
v -0.110639 0.115499 0.089162
v -0.111018 0.113592 0.089162
v -0.122824 0.127719 0.097304
v -0.123206 0.125799 0.097304
v -0.125980 0.125858 0.097932
v -0.122824 0.295334 0.097304
v -0.137198 0.295334 0.100163
v -0.137198 0.137076 0.100163
v -0.295456 0.137076 0.100163
v -0.295456 0.122702 0.097304
v -0.295456 0.110516 0.089162
v -0.127841 0.122702 0.097304
v -0.125921 0.123084 0.097304
v -0.115622 0.110516 0.089162
v -0.113715 0.110895 0.089162
v -0.107419 0.102374 0.076976
v -0.105535 0.102749 0.076976
v -0.104518 0.099515 0.062602
v -0.295456 0.102374 0.076976
v -0.295456 0.099515 0.062602
v -0.295456 0.099515 -0.062602
v -0.104518 0.099515 -0.062602
v -0.102650 0.099886 -0.062602
v -0.101067 0.100944 -0.062602
v -0.102650 0.099886 0.062602
v -0.101067 0.100944 0.062602
v -0.103938 0.103816 0.076976
v -0.112098 0.111976 0.089162
v -0.124294 0.124171 0.097304
v -0.299207 0.297102 0.097424
vn 0.3640 0.0948 -0.9266
vn 0.1392 -0.1264 -0.9822
vn 0.0153 -0.0062 -0.9999
vn 0.0313 0.0039 -0.9995
vn 0.0158 -0.0158 -0.9997
vn -0.0021 0.0021 -1.0000
vn -0.0039 -0.0313 -0.9995
vn 0.0219 -0.0165 -0.9996
vn 0.0807 -0.3714 -0.9250
vn -0.0970 -0.3628 -0.9268
vn 0.0007 -0.3880 -0.9217
vn 0.0986 -0.0987 -0.9902
vn 0.1686 -0.4071 -0.8977
vn 0.4071 -0.1686 -0.8977
vn 0.0986 -0.0986 -0.9902
vn 0.3880 -0.0007 -0.9217
vn 0.2947 -0.2947 -0.9090
vn 0.4719 -0.4006 -0.7854
vn 0.2978 -0.2986 -0.9067
vn 0.6494 -0.2801 -0.7069
vn 0.4105 -0.1729 -0.8953
vn 0.3881 -0.0007 -0.9216
vn 0.8936 -0.2805 -0.3503
vn 0.5618 -0.2456 -0.7899
vn 0.7103 -0.0015 -0.7039
vn 0.7125 -0.5455 -0.4413
vn 0.4048 -0.4187 -0.8129
vn 0.5605 -0.2322 -0.7950
vn 0.3217 -0.8131 -0.4851
vn 0.2332 -0.5163 -0.8240
vn 0.6092 -0.6093 -0.5076
vn 0.2217 -0.5610 -0.7976
vn 0.2486 -0.2797 -0.9273
vn 0.4073 -0.4074 -0.8174
vn -0.0135 -0.9212 -0.3889
vn -0.0298 -0.6237 -0.7811
vn 0.3361 -0.8116 -0.4779
vn -0.0111 -0.7070 -0.7071
vn 0.0865 -0.3868 -0.9181
vn 0.2321 -0.5604 -0.7950
vn 0.1311 -0.7394 -0.6604
vn 0.0088 -0.9249 -0.3802
vn -0.0019 -0.7111 -0.7031
vn 0.1432 -0.4425 -0.8853
vn 0.0097 -0.7109 -0.7033
vn -0.0020 -0.3875 -0.9219
vn -0.3980 -0.8429 -0.3620
vn -0.1655 -0.6409 -0.7495
vn -0.0019 -0.9250 -0.3800
vn -0.3977 -0.6401 -0.6573
vn -0.1660 -0.3050 -0.9378
vn -0.0020 -0.7110 -0.7031
vn -0.3979 -0.3395 -0.8523
vn -0.1492 0.0552 -0.9873
vn -0.0020 -0.3874 -0.9219
vn -0.5092 -0.6669 -0.5439
vn -0.7189 -0.2771 -0.6375
vn -0.3876 -0.3525 -0.8518
vn -0.7188 -0.2536 -0.6473
vn -0.5022 0.0789 -0.8611
vn -0.3831 -0.0137 -0.9236
vn -0.1915 -0.1930 -0.9623
vn -0.0040 -0.0313 -0.9995
vn -0.7074 -0.0100 -0.7067
vn -0.5449 -0.1947 -0.8156
vn -0.3831 -0.0152 -0.9236
vn -0.3831 0.0016 -0.9237
vn -0.3453 0.3453 -0.8726
vn -0.0022 0.0022 -1.0000
vn -0.7355 0.0692 -0.6740
vn -0.4009 0.4022 -0.8231
vn -0.3786 -0.0026 -0.9256
vn -0.9239 -0.0046 -0.3825
vn -0.8155 -0.1951 -0.5449
vn -0.7074 -0.0114 -0.7067
vn -0.8231 0.4022 -0.4009
vn -0.6739 0.0692 -0.7356
vn -0.9257 -0.0021 -0.3783
vn -0.8623 0.3972 -0.3142
vn -0.5976 0.6088 -0.5218
vn -0.6848 0.2501 -0.6844
vn -0.6914 0.2762 -0.6676
vn -0.5773 0.5773 -0.5774
vn -0.3454 0.3454 -0.8726
vn -0.3142 0.8623 -0.3971
vn -0.5217 0.5976 -0.6088
vn -0.6920 0.6683 -0.2728
vn -0.2762 0.6914 -0.6676
vn -0.0693 0.6739 -0.7356
vn -0.4022 0.8231 -0.4009
vn 0.0021 0.9257 -0.3783
vn -0.4022 0.4009 -0.8231
vn -0.0692 0.7355 -0.6740
vn 0.0026 0.3786 -0.9256
vn -0.4009 0.8231 -0.4022
vn -0.7356 0.6739 -0.0688
vn -0.3782 0.9257 0.0024
vn -0.0786 0.9004 -0.4279
vn -0.4280 0.9004 -0.0781
vn 0.0141 0.9998 0.0144
vn 0.1951 0.9624 -0.1892
vn -0.0014 1.0000 -0.0017
vn 0.0060 0.9240 -0.3824
vn 0.1951 0.8167 -0.5431
vn 0.0046 0.9239 -0.3825
vn 0.0114 0.7075 -0.7067
vn -0.0882 0.7672 -0.6353
vn 0.1294 0.9276 -0.3504
vn 0.2681 0.7119 -0.6491
vn -0.0910 0.9360 -0.3401
vn -0.0159 0.9999 -0.0041
vn 0.1448 0.9250 -0.3514
vn 0.1551 0.9277 -0.3397
vn 0.5108 0.7700 -0.3823
vn 0.2682 0.7119 -0.6491
vn 0.0475 0.9363 -0.3480
vn -0.0134 0.9999 -0.0101
vn 0.2691 0.9247 -0.2691
vn 0.3823 0.7700 -0.5108
vn 0.3396 0.9277 -0.1551
vn 0.6491 0.7119 -0.2682
vn 0.0101 0.9999 0.0134
vn 0.3480 0.9363 -0.0475
vn 0.2691 0.9248 -0.2691
vn 0.3505 0.9276 -0.1294
vn 0.6371 0.7660 0.0856
vn 0.6491 0.7119 -0.2681
vn 0.0041 0.9999 0.0159
vn 0.3411 0.9358 0.0895
vn 0.3514 0.9250 -0.1448
vn 0.5426 0.8170 0.1950
vn 0.3825 0.9239 0.0057
vn 0.7066 0.7075 0.0141
vn 0.1886 0.9625 0.1951
vn 0.0013 1.0000 -0.0018
vn 0.3825 0.9239 0.0075
vn 0.6371 0.7660 -0.0855
vn 0.3505 0.9276 0.1294
vn 0.6491 0.7119 0.2681
vn 0.3411 0.9357 -0.0894
vn 0.0041 0.9999 -0.0159
vn 0.3514 0.9250 0.1448
vn 0.6177 0.7706 0.1570
vn 0.2742 0.9274 0.2544
vn 0.4969 0.7115 0.4968
vn 0.3480 0.9363 0.0475
vn 0.0101 0.9999 -0.0134
vn 0.2691 0.9248 0.2691
vn -0.0000 1.0000 -0.0000
vn 0.0013 1.0000 -0.0003
vn -0.0009 1.0000 -0.0014
vn 0.1602 0.9239 0.3475
vn 0.1038 0.9940 -0.0330
vn 0.0001 1.0000 0.0003
vn 0.0216 0.9230 0.3841
vn 0.1087 0.9940 0.0092
vn -0.0000 1.0000 0.0016
vn -0.0006 0.9239 0.3827
vn -0.1935 0.9623 0.1914
vn -0.0018 1.0000 0.0015
vn -0.4280 0.9004 0.0782
vn -0.0786 0.9004 0.4280
vn 0.0141 0.9998 -0.0144
vn -0.1896 0.9623 -0.1950
vn -0.0019 1.0000 -0.0003
vn -0.3826 0.9239 -0.0017
vn -0.7356 0.6739 0.0689
vn -0.4009 0.8231 0.4022
vn -0.3782 0.9257 -0.0024
vn -0.5434 0.8165 -0.1950
vn -0.3827 0.9239 -0.0005
vn -0.7071 0.7071 -0.0015
vn -0.8231 0.4009 0.4022
vn -0.6739 0.7356 0.0689
vn -0.9257 0.3782 -0.0024
vn -0.8145 0.5464 -0.1951
vn -0.7071 0.7071 -0.0003
vn -0.9239 0.3827 -0.0017
vn -0.6739 0.7356 -0.0689
vn -0.8231 0.4009 -0.4022
vn -0.9257 0.3782 0.0024
vn -0.9004 0.4280 -0.0782
vn -0.9004 0.0785 -0.4280
vn -0.9998 -0.0141 0.0144
vn -0.9620 0.1931 -0.1933
vn -0.9239 0.3826 -0.0006
vn -1.0000 0.0019 -0.0015
vn -1.0000 0.0014 -0.0017
vn -0.9619 -0.1951 -0.1913
vn -0.9240 -0.0061 -0.3825
vn -1.0000 -0.0002 0.0004
vn -1.0000 0.0023 -0.0008
vn -1.0000 -0.0004 -0.0003
vn -0.9004 0.0786 0.4280
vn -0.9004 0.4280 0.0781
vn -0.9998 -0.0141 -0.0144
vn -0.9624 -0.1951 0.1892
vn -1.0000 0.0014 0.0017
vn -0.9240 -0.0060 0.3825
vn -0.9360 0.0910 0.3401
vn -0.9999 0.0159 0.0041
vn -0.9250 -0.1448 0.3514
vn -0.9237 -0.2595 0.2818
vn -0.9940 0.0702 0.0833
vn -1.0000 -0.0002 0.0002
vn -0.9239 -0.3474 0.1601
vn -0.9940 0.0331 0.1038
vn -1.0000 -0.0003 0.0001
vn -0.9230 -0.3841 0.0231
vn -0.9940 -0.0093 0.1087
vn -1.0000 -0.0014 -0.0000
vn -0.9239 -0.3826 -0.0057
vn -0.9622 -0.1914 -0.1938
vn -1.0000 -0.0013 -0.0000
vn -0.9358 -0.3411 0.0894
vn -0.9999 -0.0041 0.0159
vn -0.9250 -0.3513 -0.1448
vn -0.9999 0.0085 -0.0145
vn -0.9360 -0.1780 -0.3037
vn -0.9250 -0.3514 -0.1448
vn -0.9999 0.0134 -0.0101
vn -0.9363 -0.0474 -0.3480
vn -0.9247 -0.2691 -0.2691
vn -0.9999 0.0159 -0.0041
vn -0.9360 0.0910 -0.3401
vn -0.9250 -0.1448 -0.3514
vn -0.9276 -0.1294 -0.3505
vn -0.7672 0.0882 -0.6353
vn -0.7119 -0.2681 -0.6491
vn -0.7700 -0.5108 -0.3823
vn -0.9277 -0.1551 -0.3396
vn -0.7119 -0.2682 -0.6491
vn -0.9277 -0.3396 -0.1551
vn -0.7700 -0.3823 -0.5108
vn -0.7119 -0.6491 -0.2682
vn -0.5096 -0.8242 -0.2471
vn -0.7185 -0.5007 -0.4827
vn -0.3874 -0.6519 -0.6519
vn -0.4998 -0.8628 0.0758
vn -0.7188 -0.6473 -0.2537
vn -0.3876 -0.8518 -0.3524
vn -0.7660 -0.6371 0.0855
vn -0.9276 -0.3505 -0.1294
vn -0.7119 -0.6491 -0.2681
vn -0.3829 -0.9236 -0.0170
vn -0.5448 -0.8153 -0.1961
vn -0.7074 -0.7067 -0.0142
vn -0.8170 -0.5426 -0.1950
vn -0.9239 -0.3825 -0.0057
vn -0.7074 -0.7066 -0.0141
vn -0.3749 -0.9265 0.0318
vn -0.5923 -0.7071 0.3862
vn -0.7074 -0.7067 0.0142
vn -0.7030 -0.7107 0.0283
vn -0.8743 -0.4040 0.2691
vn -0.9239 -0.3826 0.0075
vn -0.3786 -0.8503 0.3655
vn -0.5916 -0.5057 0.6280
vn -0.7118 -0.6491 0.2682
vn -0.7700 -0.3823 0.5108
vn -0.9277 -0.3396 0.1551
vn -0.7119 -0.6491 0.2682
vn -0.3784 -0.6456 0.6634
vn -0.5914 -0.2261 0.7740
vn -0.7115 -0.4969 0.4969
vn -0.7706 -0.1570 0.6177
vn -0.9274 -0.2544 0.2742
vn -0.7116 -0.4968 0.4969
vn -0.5022 0.0789 0.8611
vn -0.7188 -0.2537 0.6473
vn -0.3876 -0.3525 0.8518
vn -0.7672 0.0881 0.6353
vn -0.9276 -0.1294 0.3505
vn -0.7119 -0.2681 0.6491
vn -0.5467 -0.1947 0.8144
vn -0.7075 -0.0100 0.7067
vn -0.3831 -0.0151 0.9236
vn -0.8167 -0.1951 0.5431
vn -0.9239 -0.0046 0.3825
vn -0.7075 -0.0114 0.7067
vn -0.6739 0.0692 0.7356
vn -0.8231 0.4022 0.4009
vn -0.9257 -0.0021 0.3783
vn -0.4009 0.4022 0.8231
vn -0.7355 0.0691 0.6740
vn -0.3786 -0.0026 0.9256
vn -0.3830 0.0016 0.9237
vn -0.0022 0.0022 1.0000
vn -0.3453 0.3453 0.8726
vn -0.1935 -0.1929 0.9619
vn -0.3831 -0.0138 0.9236
vn -0.0039 -0.0313 0.9995
vn -0.0692 0.7355 0.6740
vn -0.4022 0.4009 0.8231
vn 0.0026 0.3786 0.9256
vn -0.0016 0.3830 0.9237
vn -0.3454 0.3454 0.8726
vn -0.2762 0.6914 0.6676
vn -0.5773 0.5773 0.5774
vn -0.6914 0.2762 0.6676
vn -0.5774 0.5773 0.5774
vn -0.8623 0.3142 0.3971
vn -0.5976 0.5218 0.6088
vn -0.6683 0.6920 0.2728
vn -0.3972 0.8623 0.3142
vn -0.6088 0.5976 0.5218
vn -0.2501 0.6848 0.6845
vn -0.4022 0.8231 0.4009
vn -0.0692 0.6739 0.7356
vn 0.0020 0.9257 0.3783
vn -0.0001 0.3831 0.9237
vn -0.1959 0.5448 0.8154
vn -0.0018 0.7070 0.7072
vn -0.0004 0.7071 0.7072
vn -0.1953 0.8154 0.5449
vn -0.0021 0.9238 0.3828
vn 0.0282 0.3747 0.9267
vn 0.3862 0.5923 0.7071
vn 0.0114 0.7074 0.7067
vn 0.0255 0.7029 0.7109
vn 0.2691 0.8743 0.4040
vn 0.0061 0.9239 0.3825
vn 0.3655 0.3786 0.8503
vn 0.6280 0.5915 0.5057
vn 0.2682 0.7118 0.6492
vn 0.5108 0.7700 0.3823
vn 0.1551 0.9277 0.3396
vn 0.2682 0.7119 0.6491
vn 0.6634 0.3784 0.6456
vn 0.7740 0.5914 0.2261
vn 0.4969 0.7115 0.4969
vn 0.9388 0.1724 0.2983
vn 0.6573 0.3977 0.6402
vn 0.7111 0.0020 0.7031
vn 0.3985 -0.0089 0.9171
vn 0.7453 0.2185 0.6299
vn 0.3525 0.3876 0.8518
vn 0.9855 0.1564 -0.0655
vn 0.8523 0.3979 0.3396
vn 0.9250 0.0019 0.3799
vn 0.8628 0.4998 -0.0758
vn 0.6473 0.7188 0.2537
vn 0.8518 0.3876 0.3525
vn 0.9616 0.1941 0.1943
vn 0.9235 0.3832 0.0170
vn 0.9998 0.0018 0.0203
vn 0.9236 0.3829 0.0170
vn 0.8153 0.5448 0.1961
vn 0.7067 0.7074 0.0142
vn 0.8523 0.3980 -0.3395
vn 0.9855 0.1564 0.0655
vn 0.9250 0.0019 -0.3800
vn 0.6473 0.7188 -0.2536
vn 0.8628 0.4998 0.0758
vn 0.8518 0.3876 -0.3525
vn 0.6573 0.3977 -0.6401
vn 0.9388 0.1725 -0.2983
vn 0.7111 0.0020 -0.7031
vn 0.5439 0.5092 -0.6670
vn 0.6375 0.7189 -0.2771
vn 0.8517 0.3876 -0.3525
vn 0.3620 0.3980 -0.8429
vn 0.7542 0.1747 -0.6330
vn 0.3874 0.0021 -0.9219
vn 0.2471 0.5096 -0.8242
vn 0.4827 0.7185 -0.5007
vn 0.6519 0.3874 -0.6519
vn -0.0552 0.1493 -0.9873
vn 0.3396 0.3979 -0.8523
vn -0.0789 0.5022 -0.8611
vn 0.2537 0.7188 -0.6473
vn 0.3524 0.3876 -0.8518
vn 0.1929 0.1935 -0.9619
vn 0.0138 0.3831 -0.9236
vn 0.1947 0.5467 -0.8144
vn 0.0100 0.7074 -0.7067
vn 0.0151 0.3831 -0.9236
vn -0.0016 0.3830 -0.9237
vn 0.7109 -0.0097 -0.7033
vn 0.4425 -0.1431 -0.8853
vn 0.3875 0.0020 -0.9219
vn 0.9249 -0.0089 -0.3802
vn 0.7394 -0.1312 -0.6604
vn 0.7111 0.0019 -0.7031
vn 0.9998 -0.0073 -0.0205
vn 0.9313 -0.1090 -0.3475
vn 0.9250 0.0018 -0.3799
vn 0.9781 -0.2010 0.0544
vn 0.8109 -0.3521 -0.4673
vn 0.9247 -0.0018 -0.3806
vn 0.9921 -0.0407 0.1188
vn 0.9235 -0.3828 -0.0251
vn 0.9998 -0.0020 -0.0204
vn 0.9998 -0.0058 0.0196
vn 0.9998 -0.0088 -0.0185
vn 0.9998 0.0018 -0.0203
vn 0.9994 0.0114 0.0332
vn 0.8537 -0.0803 0.5145
vn 0.9236 -0.3825 0.0270
vn 0.9313 -0.1089 0.3475
vn 0.9998 -0.0073 0.0205
vn 0.9250 0.0018 0.3799
vn 0.9212 0.0135 0.3889
vn 0.6237 0.0298 0.7811
vn 0.8116 -0.3361 0.4779
vn 0.7394 -0.1311 0.6604
vn 0.9249 -0.0088 0.3802
vn 0.7111 0.0019 0.7031
vn 0.7070 0.0111 0.7072
vn 0.3868 -0.0865 0.9181
vn 0.5604 -0.2321 0.7950
vn 0.4425 -0.1432 0.8853
vn 0.7109 -0.0097 0.7033
vn 0.3875 0.0020 0.9219
vn 0.4071 -0.1686 0.8977
vn 0.3880 -0.0006 0.9217
vn 0.0987 -0.0986 0.9902
vn 0.0165 -0.0219 0.9996
vn 0.3714 -0.0807 0.9250
vn 0.3628 0.0970 0.9268
vn 0.0435 -0.0057 0.9990
vn 0.4474 0.2190 0.8671
vn 0.0152 0.3830 0.9236
vn -0.0007 0.0021 1.0000
vn -0.1960 0.1913 0.9618
vn -0.0016 0.3830 0.9238
vn 0.0313 0.0039 0.9995
vn -0.0021 0.0021 1.0000
vn 0.0158 -0.0158 0.9997
vn -0.0948 -0.3640 0.9266
vn 0.1264 -0.1392 0.9822
vn 0.0062 -0.0153 0.9999
vn -0.1493 0.0552 0.9873
vn -0.3979 -0.3396 0.8523
vn -0.0021 -0.3874 0.9219
vn 0.0094 -0.7026 0.7115
vn -0.2185 -0.2964 0.9297
vn -0.3873 -0.6519 0.6519
vn 0.0097 -0.7109 0.7033
vn 0.1431 -0.4425 0.8853
vn -0.0020 -0.3875 0.9219
vn 0.0007 -0.3880 0.9217
vn 0.1686 -0.4071 0.8977
vn 0.0986 -0.0986 0.9902
vn 0.0865 -0.3868 0.9181
vn -0.0111 -0.7070 0.7071
vn 0.2321 -0.5605 0.7950
vn -0.0298 -0.6237 0.7811
vn -0.0135 -0.9212 0.3889
vn 0.3361 -0.8116 0.4779
vn 0.0089 -0.9249 0.3802
vn 0.1312 -0.7394 0.6604
vn -0.0019 -0.7111 0.7031
vn 0.0804 -0.8537 0.5145
vn -0.0114 -0.9994 0.0332
vn 0.3825 -0.9235 0.0270
vn 0.0073 -0.9998 0.0205
vn 0.1090 -0.9313 0.3475
vn -0.0018 -0.9250 0.3799
vn 0.0084 -0.9994 0.0325
vn -0.2190 -0.8671 0.4474
vn -0.3830 -0.9235 0.0188
vn 0.0094 -0.9204 0.3910
vn -0.2185 -0.6299 0.7453
vn -0.3876 -0.8518 0.3525
vn -0.1941 -0.9616 -0.1943
vn -0.3832 -0.9235 -0.0170
vn -0.0018 -0.9998 -0.0203
vn 0.0058 -0.9998 -0.0196
vn 0.0088 -0.9998 0.0185
vn -0.0018 -0.9998 0.0203
vn -0.1564 -0.9855 0.0655
vn -0.3979 -0.8523 -0.3396
vn -0.0019 -0.9250 -0.3799
vn 0.1089 -0.9313 -0.3475
vn 0.0073 -0.9998 -0.0205
vn -0.0018 -0.9250 -0.3799
vn -0.0114 -0.9994 -0.0332
vn 0.0803 -0.8537 -0.5145
vn 0.3825 -0.9236 -0.0270
vn 0.3388 -0.9323 0.1270
vn 0.0018 -0.9998 -0.0185
vn 0.3825 -0.9236 -0.0269
vn 0.3688 -0.9287 -0.0392
vn 0.4014 -0.7353 -0.5461
vn 0.7068 -0.7068 -0.0292
vn 0.6683 -0.7325 0.1294
vn 0.3824 -0.9237 -0.0251
vn 0.4014 -0.7353 0.5461
vn 0.3688 -0.9287 0.0391
vn 0.7068 -0.7068 0.0292
vn 0.9287 -0.3688 0.0392
vn 0.7353 -0.4014 0.5461
vn 0.8988 -0.4196 0.1270
vn 0.7067 -0.7070 -0.0273
vn 0.9235 -0.3826 -0.0269
vn 0.8131 -0.3217 0.4851
vn 0.5163 -0.2332 0.8240
vn 0.6093 -0.6092 0.5076
vn 0.2332 -0.5163 0.8240
vn 0.3217 -0.8131 0.4851
vn 0.6092 -0.6093 0.5076
vn 0.5611 -0.2217 0.7975
vn 0.2797 -0.2486 0.9273
vn 0.4074 -0.4073 0.8174
vn 0.2486 -0.2797 0.9273
vn 0.2217 -0.5611 0.7975
vn 0.4073 -0.4074 0.8174
vn 0.2947 -0.2947 0.9090
vn 0.8172 -0.5750 0.0397
vn 0.6032 -0.6233 -0.4976
vn 0.8116 -0.3362 -0.4778
vn 0.1021 -0.1552 -0.9826
vn 0.0314 0.0039 -0.9995
vn 0.3871 -0.0102 -0.9220
vn 0.3604 0.1013 -0.9273
vn 0.0629 -0.0368 -0.9973
vn 0.0102 -0.3871 -0.9220
vn -0.0039 -0.0314 -0.9995
vn 0.1552 -0.1021 -0.9826
vn -0.1644 -0.1197 -0.9791
vn -0.1170 -0.3511 -0.9290
vn 0.5611 -0.2217 -0.7975
vn 0.4074 -0.4073 -0.8174
vn 0.2797 -0.2486 -0.9273
vn 0.7070 0.0111 -0.7071
vn 0.5605 -0.2321 -0.7950
vn 0.3868 -0.0865 -0.9181
vn 0.9212 0.0135 -0.3889
vn 0.8116 -0.3361 -0.4779
vn 0.6237 0.0298 -0.7811
vn 0.8131 -0.3217 -0.4851
vn 0.6093 -0.6092 -0.5076
vn 0.5163 -0.2332 -0.8240
vn 0.5454 -0.7126 -0.4413
vn 0.2322 -0.5605 -0.7950
vn 0.4187 -0.4048 -0.8129
vn 0.4006 -0.4719 -0.7854
vn 0.2986 -0.2978 -0.9067
vn 0.2805 -0.8936 -0.3503
vn 0.0015 -0.7103 -0.7039
vn 0.2456 -0.5618 -0.7899
vn 0.2802 -0.6494 -0.7069
vn 0.0007 -0.3881 -0.9216
vn 0.1729 -0.4105 -0.8953
vn -0.0082 -0.7104 -0.7037
vn 0.0018 -0.9247 -0.3807
vn -0.0964 -0.9111 -0.4009
vn -0.0094 -0.3883 -0.9215
vn -0.0974 -0.6901 -0.7172
vn -0.2185 -0.9297 -0.2964
vn -0.3873 -0.6519 -0.6519
vn 0.0089 -0.7195 -0.6945
vn -0.2185 -0.7453 -0.6299
vn -0.3875 -0.3525 -0.8518
vn 0.0088 -0.3985 -0.9171
vn -0.2190 -0.4474 -0.8671
vn -0.3830 -0.0152 -0.9236
vn 0.0057 -0.0435 -0.9990
vn -0.3784 -0.6456 -0.6634
vn -0.7115 -0.4968 -0.4969
vn -0.5914 -0.2261 -0.7741
vn -0.5924 -0.3862 -0.7071
vn -0.3747 -0.0282 -0.9267
vn -0.1913 0.1960 -0.9618
vn -0.3830 0.0016 -0.9237
vn -0.0021 0.0007 -1.0000
vn -0.5448 0.1958 -0.8154
vn -0.7070 0.0018 -0.7072
vn -0.3831 0.0001 -0.9237
vn -0.6413 -0.0557 -0.7653
vn -0.6950 0.2806 -0.6620
vn -0.3157 0.2459 -0.9164
vn -0.8155 0.1953 -0.5449
vn -0.9238 0.0021 -0.3828
vn -0.7071 0.0004 -0.7071
vn -0.9164 0.2459 -0.3158
vn -0.6860 0.2807 -0.6713
vn -0.7652 -0.0557 -0.6414
vn -0.8623 0.3142 -0.3971
vn -0.6683 0.6920 -0.2729
vn -0.5976 0.5218 -0.6088
vn -0.3972 0.8623 -0.3142
vn -0.2501 0.6848 -0.6845
vn -0.6088 0.5976 -0.5218
vn 0.0557 0.7651 -0.6415
vn -0.2807 0.6860 -0.6713
vn -0.2459 0.9164 -0.3158
vn -0.2459 0.3157 -0.9164
vn -0.2806 0.6950 -0.6620
vn 0.0557 0.6413 -0.7653
vn -0.3158 0.9164 -0.2459
vn -0.6784 0.6692 -0.3031
vn -0.6412 0.7653 0.0560
vn 0.0368 0.9513 -0.3060
vn -0.3580 0.8624 -0.3579
vn -0.3057 0.9514 0.0372
vn -0.0007 0.9239 -0.3827
vn -0.0018 1.0000 -0.0015
vn -0.1934 0.9618 -0.1935
vn -0.0004 0.7071 -0.7072
vn -0.0021 0.9238 -0.3828
vn -0.1953 0.8142 -0.5467
vn 0.0255 0.7029 -0.7109
vn 0.0061 0.9239 -0.3825
vn 0.2691 0.8743 -0.4040
vn 0.0216 0.9230 -0.3842
vn -0.0000 1.0000 -0.0017
vn 0.1087 0.9940 -0.0093
vn 0.0947 0.8736 -0.4773
vn 0.2692 0.9247 -0.2692
vn 0.4906 0.7066 -0.5100
vn 0.1602 0.9239 -0.3474
vn 0.0001 1.0000 -0.0003
vn 0.1038 0.9941 0.0331
vn 0.5100 0.7066 -0.4906
vn 0.4772 0.8737 -0.0947
vn -0.0330 0.9940 -0.1038
vn 0.0002 1.0000 -0.0001
vn 0.3474 0.9239 -0.1602
vn 0.4041 0.8743 -0.2691
vn 0.3826 0.9239 -0.0075
vn 0.7107 0.7030 -0.0283
vn 0.0093 0.9940 -0.1087
vn 0.0014 1.0000 -0.0000
vn 0.3841 0.9230 -0.0231
vn 0.7067 0.7074 -0.0123
vn 0.5472 0.8139 -0.1953
vn 0.3826 0.9239 -0.0057
vn 0.0013 1.0000 -0.0000
vn 0.1941 0.9617 -0.1938
vn 0.7107 0.7030 0.0283
vn 0.3826 0.9239 0.0075
vn 0.4040 0.8743 0.2691
vn 0.3841 0.9230 0.0231
vn 0.0093 0.9940 0.1087
vn 0.6484 0.7069 0.2827
vn 0.3514 0.9249 0.1449
vn 0.2708 0.8737 0.4040
vn 0.3474 0.9239 0.1602
vn 0.0003 1.0000 0.0001
vn -0.0330 0.9941 0.1038
vn 0.0014 1.0000 -0.0009
vn -0.0010 1.0000 0.0021
vn -0.0023 1.0000 -0.0003
vn 0.0002 1.0000 0.0002
vn 0.0002 1.0000 -0.0013
vn 0.0002 1.0000 0.0013
vn -0.0002 1.0000 -0.0003
vn 0.0003 1.0000 0.0002
vn -0.0017 1.0000 -0.0002
vn 0.0003 1.0000 -0.0017
vn -0.0022 1.0000 0.0008
vn 0.0003 1.0000 -0.0013
vn 0.0006 1.0000 0.0012
vn 0.0002 1.0000 -0.0002
vn -0.0015 1.0000 -0.0007
vn 0.0475 0.9363 0.3480
vn 0.2691 0.9247 0.2692
vn -0.0134 0.9999 0.0101
vn -0.0910 0.9360 0.3401
vn 0.1448 0.9250 0.3514
vn -0.0159 0.9999 0.0042
vn 0.1951 0.9619 0.1913
vn 0.0061 0.9240 0.3824
vn -0.0014 1.0000 0.0016
vn -0.3057 0.9514 -0.0372
vn -0.3579 0.8624 0.3580
vn 0.0369 0.9513 0.3060
vn -0.3826 0.9239 0.0006
vn -0.0019 1.0000 0.0015
vn -0.1932 0.9619 0.1933
vn -0.6412 0.7653 -0.0560
vn -0.6784 0.6693 0.3030
vn -0.3158 0.9164 0.2459
vn -0.7071 0.7071 0.0003
vn -0.3827 0.9239 0.0017
vn -0.5464 0.8145 0.1951
vn -0.9164 0.3158 0.2459
vn -0.6693 0.6784 0.3031
vn -0.7653 0.6412 -0.0560
vn -0.9239 0.3827 0.0006
vn -0.7071 0.7071 0.0015
vn -0.8165 0.5434 0.1950
vn -0.7653 0.6412 0.0560
vn -0.6693 0.6784 -0.3030
vn -0.9164 0.3158 -0.2459
vn -0.9514 0.3058 0.0372
vn -0.8624 0.3580 -0.3580
vn -0.9513 -0.0369 -0.3060
vn -1.0000 0.0018 0.0003
vn -0.9239 0.3826 0.0017
vn -0.9623 0.1896 0.1950
vn -0.9623 0.1935 -0.1914
vn -1.0000 0.0018 -0.0015
vn -0.9239 0.0006 -0.3827
vn -1.0000 -0.0000 -0.0005
vn -1.0000 -0.0002 0.0014
vn -1.0000 -0.0002 -0.0014
vn -1.0000 -0.0004 0.0002
vn -1.0000 0.0002 0.0004
vn -1.0000 -0.0004 -0.0002
vn -1.0000 0.0017 0.0002
vn -1.0000 -0.0014 0.0009
vn -1.0000 0.0018 0.0015
vn -1.0000 0.0011 -0.0022
vn -1.0000 0.0024 0.0003
vn -1.0000 -0.0000 -0.0017
vn -1.0000 -0.0005 -0.0000
vn -1.0000 0.0004 -0.0003
vn -1.0000 -0.0003 0.0004
vn -1.0000 -0.0014 0.0001
vn -1.0000 0.0001 0.0005
vn -1.0000 -0.0005 0.0001
vn -1.0000 0.0006 0.0016
vn -1.0000 0.0018 -0.0016
vn -1.0000 0.0024 0.0001
vn -1.0000 -0.0002 -0.0004
vn -0.9513 -0.0369 0.3060
vn -0.8624 0.3580 0.3580
vn -0.9514 0.3057 -0.0372
vn -0.9239 0.0007 0.3827
vn -0.9618 0.1934 0.1935
vn -0.9230 -0.0216 0.3842
vn -1.0000 -0.0000 0.0016
vn -0.9940 -0.1087 0.0092
vn -0.9360 -0.3037 0.1780
vn -0.9250 -0.1448 0.3513
vn -0.9999 -0.0145 -0.0085
vn -0.9363 -0.3480 0.0474
vn -0.9247 -0.2692 0.2691
vn -0.9999 -0.0101 -0.0134
vn -0.9358 -0.3411 -0.0895
vn -0.9250 -0.3513 0.1448
vn -0.9999 -0.0041 -0.0159
vn -0.9619 -0.1913 0.1951
vn -0.9239 -0.3825 0.0075
vn -1.0000 -0.0013 -0.0018
vn -0.9230 -0.3841 -0.0231
vn -0.9940 -0.0093 -0.1087
vn -0.9940 -0.0832 0.0703
vn -1.0000 -0.0002 -0.0002
vn -0.9237 -0.2818 -0.2595
vn -0.9941 -0.1038 0.0330
vn -1.0000 -0.0001 -0.0003
vn -0.9239 -0.1601 -0.3474
vn -0.9940 -0.1087 -0.0093
vn -1.0000 -0.0000 -0.0016
vn -0.9230 -0.0216 -0.3841
vn -0.8743 -0.2691 -0.4041
vn -0.9239 -0.0061 -0.3825
vn -0.7029 -0.0255 -0.7108
vn -0.7066 -0.4906 -0.5100
vn -0.9247 -0.2692 -0.2692
vn -0.8736 -0.0947 -0.4772
vn -0.8736 -0.4773 -0.0947
vn -0.9247 -0.2692 -0.2691
vn -0.7066 -0.5100 -0.4906
vn -0.3785 -0.8504 -0.3655
vn -0.7118 -0.6491 -0.2682
vn -0.5915 -0.5057 -0.6280
vn -0.3749 -0.9265 -0.0318
vn -0.5923 -0.7071 -0.3863
vn -0.7030 -0.7106 -0.0283
vn -0.9239 -0.3826 -0.0075
vn -0.8743 -0.4040 -0.2691
vn -0.5448 -0.8154 0.1955
vn -0.3831 -0.9235 0.0188
vn -0.7075 -0.7066 0.0124
vn -0.7074 -0.7067 0.0123
vn -0.8139 -0.5472 0.1953
vn -0.4998 -0.8628 -0.0758
vn -0.7188 -0.6473 0.2536
vn -0.7660 -0.6371 -0.0856
vn -0.7119 -0.6491 0.2681
vn -0.9276 -0.3505 0.1294
vn -0.5096 -0.8242 0.2471
vn -0.3874 -0.6519 0.6519
vn -0.7185 -0.5007 0.4827
vn -0.7066 -0.5100 0.4906
vn -0.9247 -0.2692 0.2692
vn -0.8736 -0.4772 0.0947
vn -0.5092 -0.6669 0.5439
vn -0.3876 -0.3525 0.8517
vn -0.7189 -0.2771 0.6375
vn -0.7069 -0.2827 0.6484
vn -0.9249 -0.1448 0.3514
vn -0.8737 -0.4040 0.2708
vn -0.3747 -0.0282 0.9267
vn -0.7074 -0.0115 0.7067
vn -0.5923 -0.3862 0.7071
vn -0.7029 -0.0255 0.7108
vn -0.9239 -0.0061 0.3826
vn -0.8743 -0.2691 0.4041
vn -0.3831 0.0001 0.9237
vn -0.7070 0.0018 0.7072
vn -0.5430 0.1959 0.8166
vn -0.7071 0.0004 0.7071
vn -0.9238 0.0021 0.3828
vn -0.8142 0.1953 0.5467
vn -0.7652 -0.0557 0.6414
vn -0.6860 0.2807 0.6713
vn -0.9164 0.2459 0.3158
vn -0.3158 0.2459 0.9164
vn -0.6950 0.2806 0.6620
vn -0.6413 -0.0557 0.7653
vn -0.0022 0.0007 1.0000
vn -0.1892 0.1960 0.9622
vn 0.0557 0.6413 0.7653
vn -0.2806 0.6950 0.6620
vn -0.2459 0.3158 0.9164
vn -0.8623 0.3971 0.3142
vn -0.6848 0.2501 0.6845
vn -0.5976 0.6088 0.5218
vn -0.3142 0.8623 0.3972
vn -0.6921 0.6683 0.2729
vn -0.5218 0.5976 0.6088
vn -0.2459 0.9164 0.3158
vn -0.2807 0.6860 0.6713
vn 0.0557 0.7652 0.6414
vn 0.1947 0.5449 0.8156
vn 0.0152 0.3831 0.9236
vn 0.0100 0.7075 0.7067
vn 0.1951 0.8155 0.5449
vn 0.0114 0.7075 0.7067
vn 0.0046 0.9239 0.3825
vn -0.0789 0.5022 0.8611
vn 0.2536 0.7188 0.6473
vn -0.0882 0.7672 0.6353
vn 0.2681 0.7119 0.6491
vn 0.1294 0.9276 0.3504
vn 0.2471 0.5096 0.8241
vn 0.6519 0.3874 0.6519
vn 0.4827 0.7185 0.5007
vn 0.4906 0.7066 0.5100
vn 0.2692 0.9247 0.2692
vn 0.0947 0.8736 0.4773
vn 0.5439 0.5092 0.6669
vn 0.8517 0.3876 0.3525
vn 0.6375 0.7189 0.2771
vn 0.9204 -0.0094 0.3910
vn 0.6299 0.2185 0.7453
vn 0.3049 0.1660 0.9378
vn 0.7110 0.0020 0.7031
vn 0.6401 0.3977 0.6573
vn 0.9994 -0.0083 0.0325
vn 0.9235 0.3830 0.0188
vn 0.8671 0.2190 0.4474
vn 0.9265 0.3749 0.0318
vn 0.7071 0.5923 0.3862
vn 0.9998 0.0016 -0.0186
vn 0.9236 0.3830 -0.0188
vn 0.9622 0.1886 -0.1963
vn 0.8154 0.5449 -0.1955
vn 0.9235 0.3831 -0.0188
vn 0.7066 0.7075 -0.0124
vn 0.8671 0.2190 -0.4474
vn 0.9235 0.3830 -0.0188
vn 0.9994 -0.0084 -0.0325
vn 0.7071 0.5924 -0.3862
vn 0.7067 0.7074 -0.0142
vn 0.9265 0.3749 -0.0318
vn 0.6299 0.2185 -0.7453
vn 0.8518 0.3875 -0.3525
vn 0.9203 -0.0094 -0.3910
vn 0.6634 0.3784 -0.6456
vn 0.4969 0.7115 -0.4969
vn 0.7741 0.5913 -0.2261
vn 0.2964 0.2185 -0.9297
vn 0.6519 0.3873 -0.6519
vn 0.7026 -0.0094 -0.7115
vn 0.3655 0.3786 -0.8503
vn 0.2682 0.7118 -0.6491
vn 0.6280 0.5915 -0.5057
vn 0.0435 -0.0057 -0.9990
vn 0.0152 0.3830 -0.9236
vn 0.4474 0.2190 -0.8671
vn 0.0281 0.3747 -0.9267
vn 0.0115 0.7074 -0.7067
vn 0.3862 0.5923 -0.7071
vn -0.0007 0.0022 -1.0000
vn -0.1960 0.1892 -0.9622
vn -0.0001 0.3831 -0.9237
vn -0.0018 0.7070 -0.7072
vn -0.1958 0.5430 -0.8166
vn 0.6901 0.0974 -0.7172
vn 0.3883 0.0094 -0.9215
vn 0.9111 0.0964 -0.4009
vn 0.9247 -0.0018 -0.3807
vn 0.7104 0.0082 -0.7037
vn 0.9954 0.0856 -0.0423
vn 0.9998 -0.0019 -0.0204
vn 0.9248 0.0079 -0.3804
vn 0.9994 0.0114 -0.0332
vn 0.9235 -0.3825 -0.0270
vn 0.8537 -0.0804 -0.5145
vn 0.9998 -0.0018 0.0185
vn 0.9236 -0.3825 0.0269
vn 0.9323 -0.3388 -0.1270
vn 0.9998 0.0086 0.0185
vn 0.9998 -0.0019 0.0204
vn 0.9998 0.0057 -0.0197
vn 0.9781 -0.2010 -0.0544
vn 0.9247 -0.0019 0.3806
vn 0.8109 -0.3521 0.4673
vn 0.9248 0.0079 0.3804
vn 0.9954 0.0856 0.0423
vn 0.8936 -0.2805 0.3503
vn 0.7103 -0.0015 0.7039
vn 0.5618 -0.2456 0.7899
vn 0.7104 0.0082 0.7037
vn 0.9247 -0.0018 0.3807
vn 0.9111 0.0964 0.4009
vn 0.6494 -0.2802 0.7069
vn 0.3881 -0.0007 0.9216
vn 0.4105 -0.1729 0.8953
vn 0.3883 0.0094 0.9215
vn 0.6901 0.0974 0.7172
vn 0.3871 -0.0102 0.9220
vn 0.0314 0.0039 0.9995
vn 0.1021 -0.1552 0.9826
vn 0.1197 0.1644 0.9791
vn 0.3511 0.1170 0.9290
vn -0.0552 0.1492 0.9873
vn 0.3874 0.0021 0.9219
vn 0.3395 0.3979 0.8523
vn 0.1930 0.1914 0.9623
vn 0.0137 0.3831 0.9236
vn 0.1552 -0.1021 0.9826
vn -0.0039 -0.0314 0.9995
vn 0.0102 -0.3871 0.9220
vn -0.1013 -0.3604 0.9273
vn 0.0368 -0.0629 0.9973
vn 0.0057 -0.0435 0.9990
vn -0.3830 -0.0152 0.9236
vn -0.2190 -0.4474 0.8671
vn -0.1747 -0.7542 0.6330
vn -0.3980 -0.3620 0.8429
vn -0.0974 -0.6901 0.7172
vn 0.0015 -0.7103 0.7039
vn -0.0094 -0.3883 0.9215
vn 0.1729 -0.4105 0.8953
vn 0.0007 -0.3881 0.9216
vn 0.2802 -0.6494 0.7069
vn 0.2456 -0.5618 0.7899
vn 0.2805 -0.8936 0.3503
vn -0.0964 -0.9111 0.4009
vn 0.0018 -0.9247 0.3807
vn -0.0082 -0.7104 0.7037
vn 0.3521 -0.8109 0.4673
vn 0.0018 -0.9247 0.3806
vn 0.2011 -0.9781 -0.0544
vn -0.0856 -0.9954 0.0423
vn 0.0019 -0.9998 0.0204
vn -0.0079 -0.9248 0.3804
vn -0.1564 -0.9855 -0.0655
vn -0.0019 -0.9250 0.3799
vn -0.3980 -0.8523 0.3395
vn -0.1725 -0.9388 0.2983
vn -0.0020 -0.7111 0.7031
vn -0.3977 -0.6573 0.6401
vn -0.0016 -0.9998 0.0186
vn -0.3830 -0.9236 0.0188
vn -0.1886 -0.9622 0.1963
vn -0.0086 -0.9998 -0.0185
vn 0.0019 -0.9998 -0.0204
vn -0.0057 -0.9998 0.0197
vn 0.0083 -0.9994 -0.0325
vn -0.3830 -0.9235 -0.0188
vn -0.2190 -0.8671 -0.4474
vn -0.0079 -0.9248 -0.3804
vn -0.0856 -0.9954 -0.0423
vn 0.2010 -0.9781 0.0544
vn 0.0019 -0.9247 -0.3806
vn 0.3521 -0.8109 -0.4673
vn 0.3828 -0.9235 0.0250
vn 0.0020 -0.9998 0.0204
vn 0.0407 -0.9921 -0.1188
vn 0.5750 -0.8172 0.0397
vn 0.3362 -0.8116 -0.4778
vn 0.6234 -0.6031 -0.4976
vn 0.7070 -0.7067 0.0273
vn 0.3826 -0.9235 0.0269
vn 0.4196 -0.8988 -0.1270
vn 0.6233 -0.6032 0.4976
vn 0.3362 -0.8116 0.4778
vn 0.5750 -0.8172 -0.0397
vn 0.8172 -0.5750 -0.0397
vn 0.8116 -0.3362 0.4778
vn 0.6031 -0.6234 0.4976
vn 0.9237 -0.3824 0.0251
vn 0.7325 -0.6683 -0.1294
vn 0.7126 -0.5454 0.4413
vn 0.5605 -0.2322 0.7950
vn 0.4048 -0.4187 0.8129
vn 0.4187 -0.4048 0.8129
vn 0.2322 -0.5605 0.7950
vn 0.5455 -0.7125 0.4413
vn 0.4719 -0.4006 0.7854
vn 0.2978 -0.2986 0.9067
vn 0.2986 -0.2978 0.9067
vn 0.4006 -0.4719 0.7854
vn 0.9287 -0.3688 -0.0391
vn 0.7353 -0.4014 -0.5461
vt 0.621521 0.159885
vt 0.544058 0.157403
vt 0.549197 0.148507
vt 0.621521 0.148500
vt 0.621517 0.025553
vt 0.549193 0.025560
vt 0.693849 0.025564
vt 0.698123 0.036954
vt 0.621526 0.036938
vt 0.698989 0.034460
vt 0.699000 0.036686
vt 0.544047 0.159630
vt 0.544925 0.159897
vt 0.699776 0.035900
vt 0.543272 0.158844
vt 0.538465 0.171080
vt 0.539347 0.171288
vt 0.535607 0.182670
vt 0.534736 0.182559
vt 0.537653 0.170432
vt 0.708312 0.059615
vt 0.705395 0.047488
vt 0.709169 0.059239
vt 0.704582 0.048137
vt 0.707441 0.059727
vt 0.703700 0.048345
vt 0.621525 0.059710
vt 0.621526 0.048324
vt 0.226169 0.095379
vt 0.218514 0.069983
vt 0.227988 0.094071
vt 0.217112 0.072368
vt 0.204346 0.053871
vt 0.203577 0.056964
vt 0.187850 0.047924
vt 0.202817 0.060011
vt 0.187641 0.051245
vt 0.013942 0.048157
vt 0.187432 0.054551
vt 0.014012 0.051483
vt 0.011959 0.052093
vt 0.014081 0.054749
vt 0.187225 0.057852
vt 0.012186 0.057644
vt 0.014132 0.057952
vt 0.010957 0.055153
vt 0.012203 0.054929
vt 0.016974 0.917138
vt 0.015747 0.919627
vt 0.015338 0.917462
vt 0.016748 0.922685
vt 0.016992 0.919850
vt 0.018868 0.920030
vt 0.018920 0.916830
vt 0.018800 0.923294
vt 0.015059 0.913957
vt 0.017016 0.913745
vt 0.018924 0.913635
vt 0.191680 0.913632
vt 0.191884 0.916932
vt 0.192091 0.920231
vt 0.206709 0.911748
vt 0.207465 0.914782
vt 0.205953 0.908708
vt 0.220367 0.900086
vt 0.217616 0.895410
vt 0.218993 0.897749
vt 0.227220 0.876861
vt 0.229005 0.878145
vt 0.232207 0.852018
vt 0.225432 0.875576
vt 0.230270 0.851666
vt 0.230269 0.619591
vt 0.232206 0.619239
vt 0.228331 0.619942
vt 0.227219 0.594397
vt 0.229004 0.593114
vt 0.225431 0.595682
vt 0.218992 0.573509
vt 0.220367 0.571175
vt 0.217615 0.575848
vt 0.205952 0.562552
vt 0.228332 0.851315
vt 0.206709 0.559512
vt 0.191884 0.554327
vt 0.191680 0.557628
vt 0.018920 0.554430
vt 0.018924 0.557624
vt 0.017016 0.557514
vt 0.015059 0.557303
vt 0.016974 0.554122
vt 0.012184 0.420929
vt 0.010268 0.417746
vt 0.012226 0.417534
vt 0.010269 0.060827
vt 0.012227 0.061039
vt 0.014137 0.061149
vt 0.014135 0.417424
vt 0.187020 0.061154
vt 0.212975 0.399188
vt 0.220802 0.099236
vt 0.014131 0.420621
vt 0.187019 0.417422
vt 0.187224 0.420725
vt 0.201303 0.412495
vt 0.202060 0.415537
vt 0.214353 0.401529
vt 0.222586 0.380625
vt 0.220797 0.379339
vt 0.225638 0.355411
vt 0.223699 0.355060
vt 0.225638 0.123165
vt 0.223699 0.123515
vt 0.222591 0.097951
vt 0.214355 0.077052
vt 0.212978 0.079393
vt 0.202061 0.063048
vt 0.201303 0.066091
vt 0.215730 0.074713
vt 0.224377 0.096667
vt 0.229518 0.122458
vt 0.227577 0.122812
vt 0.227577 0.355764
vt 0.229518 0.356119
vt 0.224372 0.381909
vt 0.226165 0.383199
vt 0.215729 0.403868
vt 0.217110 0.406214
vt 0.202816 0.418574
vt 0.187639 0.427332
vt 0.203575 0.421620
vt 0.187430 0.424027
vt 0.014011 0.427091
vt 0.014080 0.423824
vt 0.011958 0.426480
vt 0.013941 0.430416
vt 0.187848 0.430654
vt 0.018868 0.551229
vt 0.016748 0.548575
vt 0.018800 0.547965
vt 0.018730 0.544642
vt 0.016991 0.551409
vt 0.015747 0.551632
vt 0.012201 0.423644
vt 0.010955 0.423421
vt 0.010546 0.421253
vt 0.192091 0.551028
vt 0.192299 0.547725
vt 0.207465 0.556478
vt 0.208224 0.553433
vt 0.221747 0.568830
vt 0.232613 0.590520
vt 0.223149 0.566449
vt 0.208993 0.550342
vt 0.236094 0.618529
vt 0.230795 0.591825
vt 0.234145 0.618884
vt 0.236095 0.852728
vt 0.230796 0.879433
vt 0.232614 0.880738
vt 0.234146 0.852373
vt 0.221747 0.902432
vt 0.223150 0.904812
vt 0.208223 0.917827
vt 0.208993 0.920917
vt 0.192507 0.926853
vt 0.192299 0.923534
vt 0.018730 0.926618
vt 0.621521 0.171271
vt 0.621522 0.182657
vt 0.621522 0.194043
vt 0.534276 0.194044
vt 0.534276 0.291295
vt 0.533403 0.194009
vt 0.621522 0.291297
vt 0.534736 0.302780
vt 0.533403 0.291331
vt 0.535608 0.302668
vt 0.621521 0.302683
vt 0.538466 0.314258
vt 0.539348 0.314050
vt 0.621521 0.314069
vt 0.544048 0.325708
vt 0.544926 0.325441
vt 0.621520 0.325455
vt 0.544059 0.327935
vt 0.549199 0.336830
vt 0.192507 0.544407
vt 0.621520 0.336841
vt 0.621514 0.459782
vt 0.549193 0.459771
vt 0.621523 0.202510
vt 0.698987 0.204995
vt 0.693847 0.213891
vt 0.204346 0.424713
vt 0.218514 0.408596
vt 0.621523 0.191124
vt 0.698120 0.202501
vt 0.698998 0.202769
vt 0.703698 0.191110
vt 0.704581 0.191318
vt 0.707439 0.179729
vt 0.708311 0.179840
vt 0.621523 0.179738
vt 0.708771 0.168355
vt 0.709645 0.168390
vt 0.621522 0.168352
vt 0.231468 0.356474
vt 0.227984 0.384505
vt 0.231468 0.122102
vt 0.621524 0.071095
vt 0.708772 0.071100
vt 0.709646 0.071065
vt 0.710521 0.070957
vt 0.710521 0.168498
vt 0.709167 0.180216
vt 0.533880 0.303156
vt 0.532528 0.291438
vt 0.532528 0.193901
vt 0.537654 0.314906
vt 0.705393 0.191967
vt 0.543273 0.326494
vt 0.699773 0.203554
vt 0.533879 0.182183
vt 0.621527 0.025553
vt 0.010548 0.057320
vt 0.015338 0.553798
vt 0.621524 0.213895
s 0
usemtl multitexture
f 143/1/1 5/2/2 1/3/3
f 2/4/4 1/3/5 3/5/6
f 3/5/6 1/3/5 4/6/7
f 1/7/8 6/8/9 23/9/10
f 6/8/11 5/10/12 8/11/13
f 10/12/14 5/2/15 7/13/16
f 8/11/13 5/10/15 9/14/17
f 9/15/17 5/2/15 10/12/14
f 11/16/18 9/15/19 10/12/14
f 12/17/20 10/12/21 7/13/22
f 146/18/23 11/16/24 12/17/25
f 13/19/26 14/20/27 11/16/28
f 17/21/29 14/22/30 15/23/31
f 16/24/32 9/14/33 14/22/34
f 19/25/35 16/24/36 17/21/37
f 18/26/38 8/11/39 16/24/40
f 18/26/41 21/27/42 20/28/43
f 6/8/44 20/28/45 23/9/46
f 103/29/47 20/30/48 21/31/49
f 22/32/50 23/33/51 20/30/52
f 24/34/53 4/35/54 23/33/55
f 22/32/56 25/36/57 24/34/58
f 25/36/59 26/37/60 24/34/58
f 26/37/61 3/38/62 4/35/63
f 27/39/64 28/40/65 26/37/66
f 28/40/67 29/41/68 3/38/69
f 30/42/70 29/41/71 28/40/72
f 100/43/73 30/42/74 27/39/75
f 33/44/76 30/42/77 31/45/78
f 33/44/79 34/46/80 32/47/81
f 32/47/82 34/46/83 29/41/84
f 38/48/85 34/49/86 35/50/87
f 29/51/84 34/49/83 36/52/88
f 37/53/89 38/48/90 40/54/91
f 29/51/92 37/53/93 145/55/94
f 38/48/95 76/56/96 39/57/97
f 40/54/98 39/57/99 41/58/100
f 40/54/101 44/59/102 42/60/103
f 37/53/104 42/60/105 43/61/106
f 43/61/107 45/62/108 46/63/109
f 42/60/110 47/64/111 45/62/112
f 45/62/113 49/65/114 46/63/115
f 45/62/116 50/66/117 48/67/118
f 49/65/119 51/68/120 52/69/121
f 50/66/122 51/68/123 48/67/124
f 51/68/125 55/70/126 52/69/127
f 53/71/128 54/72/129 51/68/130
f 55/70/131 57/73/132 58/74/133
f 54/72/134 59/75/135 57/73/136
f 58/74/137 60/76/138 61/77/139
f 57/73/140 63/78/141 60/76/142
f 61/77/143 62/79/144 129/80/145
f 60/76/146 64/81/147 62/79/148
f 65/82/149 56/83/150 44/59/151
f 66/84/152 64/81/153 65/82/154
f 68/85/155 65/82/156 67/86/157
f 70/87/158 67/86/159 69/88/160
f 71/89/161 70/87/162 69/88/163
f 71/89/164 41/58/165 39/57/166
f 73/90/167 72/91/168 71/89/169
f 73/90/170 39/57/171 76/56/172
f 182/92/173 73/93/174 74/94/175
f 74/94/176 76/95/177 77/96/178
f 76/95/179 33/44/180 77/96/181
f 77/96/182 31/45/183 78/97/184
f 80/98/185 77/96/186 78/97/187
f 79/99/188 31/45/189 100/43/190
f 86/100/191 78/97/192 94/101/193
f 81/102/194 74/94/195 80/98/196
f 81/102/197 82/103/198 83/104/199
f 83/104/200 84/105/201 85/106/202
f 87/107/203 84/105/204 86/100/205
f 89/108/206 86/100/207 88/109/208
f 91/110/209 88/109/210 90/111/211
f 93/112/212 90/111/213 92/113/214
f 93/112/215 94/101/216 95/114/217
f 94/101/218 97/115/219 95/114/220
f 96/116/221 99/117/222 97/115/223
f 98/118/224 100/43/225 99/117/226
f 99/117/227 27/39/228 25/36/229
f 101/119/230 99/117/231 25/36/232
f 95/114/233 101/119/234 102/120/235
f 103/29/236 101/119/237 22/32/238
f 105/121/239 102/120/240 103/29/241
f 104/122/242 95/114/243 102/120/244
f 105/121/245 106/123/246 104/122/247
f 106/123/248 93/112/249 104/122/250
f 107/124/251 108/125/252 106/123/253
f 106/123/254 89/108/255 91/110/256
f 109/126/257 110/127/258 108/125/259
f 110/127/260 89/108/261 108/125/262
f 111/128/263 112/129/264 110/127/265
f 112/129/266 87/107/267 110/127/268
f 115/130/269 112/129/270 113/131/271
f 114/132/272 85/106/273 112/129/274
f 118/133/275 114/132/276 115/130/277
f 116/134/278 83/104/279 114/132/280
f 116/134/281 182/92/282 81/102/283
f 120/135/284 116/134/285 118/133/286
f 118/133/287 119/136/288 120/135/289
f 119/136/290 115/130/291 161/137/292
f 124/138/293 120/139/294 121/140/295
f 119/141/288 121/140/296 120/139/289
f 120/139/297 122/142/298 123/143/299
f 117/144/300 120/135/297 123/145/301
f 182/92/302 123/145/303 75/146/304
f 72/91/305 123/143/306 122/142/307
f 72/91/308 124/138/309 70/87/310
f 121/140/311 125/147/312 124/138/313
f 124/138/314 68/85/315 70/87/316
f 126/148/317 127/149/318 125/147/319
f 125/147/320 66/84/321 68/85/322
f 128/150/323 129/80/324 127/149/325
f 129/80/326 66/84/327 127/149/328
f 130/151/329 61/77/330 129/80/331
f 133/152/332 130/151/333 131/153/334
f 158/154/335 130/151/336 128/150/337
f 135/155/338 132/156/339 133/152/340
f 134/157/341 61/77/342 132/156/343
f 137/158/344 134/157/345 135/155/346
f 134/157/347 55/70/348 58/74/349
f 138/159/350 137/158/351 139/160/352
f 52/69/353 136/161/354 138/159/355
f 140/162/356 139/160/357 141/163/358
f 140/162/359 52/69/360 138/159/361
f 142/164/362 141/163/363 143/165/364
f 142/164/365 49/65/366 140/162/367
f 2/166/368 142/164/369 143/165/364
f 144/167/370 46/63/371 142/164/372
f 3/168/373 144/167/374 2/166/4
f 145/55/375 43/61/376 144/167/377
f 3/168/69 29/51/68 145/55/378
f 141/169/379 7/13/380 143/1/381
f 139/170/382 12/17/383 141/169/384
f 137/171/385 146/18/386 139/170/387
f 147/172/388 13/19/389 146/18/390
f 149/173/391 148/174/392 147/172/393
f 135/175/394 147/172/395 137/171/396
f 149/173/397 152/176/398 150/177/399
f 151/178/400 135/175/401 133/179/402
f 151/178/403 154/180/404 152/176/405
f 153/181/406 133/179/407 131/182/408
f 153/181/409 156/183/410 154/180/411
f 155/184/412 131/182/413 158/185/414
f 156/183/415 155/184/416 157/186/417
f 160/187/418 155/184/419 158/185/420
f 159/188/421 128/150/422 126/148/423
f 119/141/424 126/148/425 121/140/426
f 159/189/427 119/190/428 160/187/429
f 119/190/428 161/191/292 160/187/429
f 162/192/430 157/193/431 160/194/432
f 161/137/433 113/131/434 162/195/435
f 163/196/436 113/131/437 111/128/438
f 163/197/439 164/198/440 162/192/441
f 164/198/442 165/199/443 157/193/444
f 165/199/445 166/200/446 167/201/447
f 167/201/448 168/202/449 169/203/450
f 171/204/451 166/200/452 163/197/453
f 169/203/454 170/205/455 177/206/456
f 172/207/457 168/202/458 171/204/459
f 172/208/460 109/126/461 107/124/462
f 171/209/463 111/128/464 109/126/465
f 172/208/466 105/121/467 173/210/468
f 173/211/469 170/205/470 172/207/471
f 173/210/472 103/29/473 21/31/474
f 19/25/475 173/211/476 21/27/477
f 174/212/478 17/21/479 175/213/480
f 177/206/481 174/212/482 175/213/483
f 175/213/484 15/23/485 176/214/486
f 178/215/487 175/213/488 176/214/486
f 179/216/489 177/206/490 178/215/491
f 150/177/492 179/217/493 178/218/491
f 150/177/494 176/219/495 148/174/496
f 152/176/497 180/220/498 179/217/499
f 180/221/500 169/203/501 179/216/502
f 154/180/503 181/222/504 180/220/505
f 181/223/506 167/201/507 180/221/508
f 165/199/443 181/223/509 157/193/444
f 181/222/509 156/183/415 157/186/444
f 148/174/510 15/224/511 13/19/512
f 1/3/513 2/4/514 143/1/515
f 143/1/516 7/13/16 5/2/517
f 23/9/518 4/225/519 1/7/520
f 1/7/521 5/10/15 6/8/522
f 11/16/523 14/20/524 9/15/525
f 12/17/526 11/16/527 10/12/528
f 146/18/529 13/19/530 11/16/531
f 13/19/532 15/224/533 14/20/534
f 17/21/535 16/24/536 14/22/537
f 16/24/538 8/11/13 9/14/539
f 19/25/540 18/26/541 16/24/542
f 18/26/543 6/8/544 8/11/545
f 18/26/546 19/25/547 21/27/548
f 6/8/549 18/26/541 20/28/550
f 103/29/551 22/32/552 20/30/553
f 22/32/554 24/34/555 23/33/556
f 24/34/557 26/37/558 4/35/559
f 22/32/560 101/119/561 25/36/562
f 25/36/563 27/39/75 26/37/564
f 26/37/565 28/40/566 3/38/567
f 27/39/568 30/42/569 28/40/570
f 30/42/571 32/47/572 29/41/573
f 100/43/574 31/45/575 30/42/576
f 33/44/577 32/47/578 30/42/579
f 33/44/580 35/226/581 34/46/582
f 38/48/583 36/52/584 34/49/585
f 37/53/586 36/52/587 38/48/588
f 29/51/589 36/52/590 37/53/591
f 38/48/592 35/50/593 76/56/594
f 40/54/595 38/48/596 39/57/597
f 40/54/598 41/58/599 44/59/600
f 37/53/601 40/54/602 42/60/603
f 43/61/604 42/60/605 45/62/606
f 42/60/607 44/59/608 47/64/609
f 45/62/610 48/67/611 49/65/612
f 45/62/613 47/64/614 50/66/615
f 49/65/616 48/67/611 51/68/617
f 50/66/618 53/71/619 51/68/620
f 51/68/621 54/72/622 55/70/623
f 53/71/624 56/83/625 54/72/626
f 55/70/627 54/72/622 57/73/628
f 54/72/629 56/83/630 59/75/631
f 58/74/632 57/73/633 60/76/634
f 57/73/635 59/75/630 63/78/636
f 61/77/637 60/76/638 62/79/639
f 60/76/640 63/78/641 64/81/642
f 44/59/643 41/58/599 69/88/644
f 69/88/645 67/86/157 65/82/149
f 65/82/149 64/81/646 63/78/149
f 63/78/149 59/75/630 56/83/647
f 56/83/648 53/71/149 50/66/649
f 50/66/650 47/64/149 44/59/651
f 44/59/652 69/88/653 65/82/149
f 65/82/149 63/78/149 56/83/654
f 56/83/655 50/66/656 44/59/657
f 66/84/658 62/79/659 64/81/660
f 68/85/661 66/84/662 65/82/663
f 70/87/664 68/85/665 67/86/666
f 71/89/667 72/91/668 70/87/669
f 71/89/670 69/88/671 41/58/672
f 73/90/673 75/227/674 72/91/675
f 73/90/676 71/89/677 39/57/678
f 182/92/679 75/146/680 73/93/681
f 74/94/682 73/93/683 76/95/684
f 76/95/685 35/226/686 33/44/687
f 77/96/688 33/44/689 31/45/690
f 80/98/691 74/94/692 77/96/693
f 79/99/694 78/97/695 31/45/696
f 94/101/697 92/113/211 90/111/698
f 90/111/699 88/109/700 86/100/701
f 86/100/702 84/105/191 82/103/703
f 82/103/704 80/98/705 78/97/706
f 78/97/707 79/99/708 98/118/709
f 98/118/710 96/116/193 94/101/711
f 94/101/697 90/111/712 86/100/713
f 86/100/714 82/103/715 78/97/716
f 78/97/717 98/118/718 94/101/700
f 81/102/719 182/92/720 74/94/721
f 81/102/722 80/98/705 82/103/723
f 83/104/724 82/103/725 84/105/726
f 87/107/727 85/106/728 84/105/729
f 89/108/730 87/107/731 86/100/732
f 91/110/733 89/108/734 88/109/735
f 93/112/736 91/110/737 90/111/738
f 93/112/739 92/113/211 94/101/740
f 94/101/741 96/116/742 97/115/743
f 96/116/744 98/118/745 99/117/746
f 98/118/747 79/99/748 100/43/749
f 99/117/750 100/43/751 27/39/752
f 101/119/753 97/115/754 99/117/755
f 95/114/756 97/115/757 101/119/758
f 103/29/759 102/120/760 101/119/761
f 105/121/762 104/122/247 102/120/763
f 104/122/764 93/112/765 95/114/766
f 105/121/767 107/124/768 106/123/769
f 106/123/770 91/110/256 93/112/771
f 107/124/772 109/126/465 108/125/773
f 106/123/774 108/125/775 89/108/776
f 109/126/777 111/128/778 110/127/779
f 110/127/780 87/107/781 89/108/782
f 111/128/783 113/131/784 112/129/785
f 112/129/786 85/106/787 87/107/788
f 115/130/789 114/132/790 112/129/791
f 114/132/792 83/104/793 85/106/794
f 118/133/795 116/134/796 114/132/797
f 116/134/798 81/102/799 83/104/800
f 116/134/801 117/144/802 182/92/803
f 120/135/804 117/144/805 116/134/806
f 119/136/807 118/133/287 115/130/808
f 124/138/809 122/142/810 120/139/811
f 182/92/812 117/144/813 123/145/814
f 72/91/815 75/227/816 123/143/817
f 72/91/818 122/142/819 124/138/820
f 121/140/821 126/148/822 125/147/823
f 124/138/824 125/147/825 68/85/826
f 126/148/827 128/150/337 127/149/828
f 125/147/829 127/149/830 66/84/831
f 128/150/832 130/151/833 129/80/834
f 129/80/835 62/79/836 66/84/837
f 130/151/838 132/156/839 61/77/840
f 133/152/841 132/156/343 130/151/842
f 158/154/843 131/153/844 130/151/845
f 135/155/846 134/157/847 132/156/848
f 134/157/849 58/74/349 61/77/850
f 137/158/851 136/161/852 134/157/853
f 134/157/854 136/161/855 55/70/856
f 138/159/857 136/161/858 137/158/859
f 52/69/860 55/70/861 136/161/862
f 140/162/863 138/159/864 139/160/865
f 140/162/866 49/65/867 52/69/868
f 142/164/869 140/162/870 141/163/871
f 142/164/872 46/63/873 49/65/874
f 2/166/875 144/167/876 142/164/877
f 144/167/878 43/61/879 46/63/880
f 3/168/881 145/55/378 144/167/882
f 145/55/883 37/53/884 43/61/885
f 141/169/886 12/17/25 7/13/887
f 139/170/888 146/18/889 12/17/890
f 137/171/891 147/172/892 146/18/893
f 147/172/894 148/174/895 13/19/896
f 149/173/897 150/177/898 148/174/899
f 135/175/900 149/173/901 147/172/902
f 149/173/903 151/178/904 152/176/905
f 151/178/906 149/173/901 135/175/907
f 151/178/908 153/181/909 154/180/910
f 153/181/911 151/178/912 133/179/913
f 153/181/914 155/184/915 156/183/916
f 155/184/917 153/181/909 131/182/918
f 158/185/919 159/189/920 160/187/921
f 160/187/922 157/186/444 155/184/923
f 159/188/924 158/154/925 128/150/926
f 119/141/927 159/188/427 126/148/928
f 160/194/929 161/228/930 162/192/931
f 162/192/932 164/198/442 157/193/933
f 161/137/934 115/130/935 113/131/936
f 163/196/937 162/195/435 113/131/938
f 163/197/939 166/200/940 164/198/941
f 165/199/942 164/198/943 166/200/944
f 167/201/945 166/200/940 168/202/946
f 171/204/947 168/202/948 166/200/949
f 169/203/950 168/202/951 170/205/952
f 172/207/953 170/205/954 168/202/955
f 172/208/956 171/209/957 109/126/958
f 171/209/959 163/196/960 111/128/961
f 172/208/962 107/124/963 105/121/964
f 173/211/965 174/212/966 170/205/967
f 173/210/968 105/121/969 103/29/970
f 19/25/971 174/212/966 173/211/972
f 174/212/973 19/25/974 17/21/975
f 177/206/976 170/205/977 174/212/978
f 175/213/979 17/21/980 15/23/981
f 178/215/982 177/206/983 175/213/984
f 179/216/985 169/203/986 177/206/987
f 150/177/988 152/176/989 179/217/990
f 150/177/991 178/218/491 176/219/992
f 152/176/993 154/180/994 180/220/995
f 180/221/996 167/201/997 169/203/998
f 154/180/999 156/183/415 181/222/1000
f 181/223/1001 165/199/443 167/201/1002
f 148/174/1003 176/219/486 15/224/1004
