# Blender 5.0.1
# www.blender.org

mtllib ULB.mtl
o corner_ULB
v -0.295654 0.295654 -0.300162
v -0.297379 0.295654 -0.299819
v -0.295654 0.297379 -0.299819
v -0.104342 0.295654 -0.300162
v -0.295654 0.104342 -0.300162
v -0.295654 0.102617 -0.299819
v -0.297379 0.104342 -0.299819
v -0.104342 0.104342 -0.300162
v -0.102617 0.104342 -0.299819
v -0.104342 0.102617 -0.299819
v -0.102574 0.102574 -0.299404
v -0.104342 0.101155 -0.298841
v -0.104342 0.100178 -0.297379
v -0.102664 0.101384 -0.298612
v -0.295654 0.101155 -0.298841
v -0.297332 0.101384 -0.298612
v -0.295654 0.100178 -0.297379
v -0.295654 0.099835 -0.295654
v -0.297422 0.100592 -0.297422
v -0.297379 0.100178 -0.295654
v -0.298612 0.101384 -0.297333
v -0.298256 0.101740 -0.298257
v -0.298612 0.102664 -0.298612
v -0.298841 0.104342 -0.298841
v -0.297422 0.102574 -0.299404
v -0.299404 0.102574 -0.297422
v -0.299818 0.102617 -0.295654
v -0.299818 0.104342 -0.297379
v -0.300161 0.104342 -0.295654
v -0.299818 0.295654 -0.297379
v -0.300161 0.295654 -0.295654
v -0.299404 0.297422 -0.297422
v -0.298841 0.295654 -0.298841
v -0.298612 0.297332 -0.298612
v -0.297422 0.297422 -0.299404
v -0.298256 0.298256 -0.298257
v -0.297332 0.298612 -0.298612
v -0.298612 0.298612 -0.297333
v -0.298841 0.298841 -0.295654
v -0.297422 0.299404 -0.297422
v -0.297379 0.299818 -0.295654
v -0.295654 0.299818 -0.297379
v -0.295654 0.300161 -0.295654
v -0.295654 0.298841 -0.298841
v -0.104342 0.299818 -0.297379
v -0.104342 0.300161 -0.295654
v -0.102574 0.299404 -0.297422
v -0.104342 0.298841 -0.298841
v -0.104342 0.297379 -0.299819
v -0.102664 0.298612 -0.298612
v -0.102574 0.297422 -0.299404
v -0.101740 0.298256 -0.298257
v -0.101384 0.297333 -0.298612
v -0.101384 0.298612 -0.297333
v -0.100592 0.297422 -0.297422
v -0.100178 0.297379 -0.295654
v -0.100178 0.295654 -0.297379
v -0.099835 0.295654 -0.295654
v -0.099835 0.295654 -0.104342
v -0.099835 0.104342 -0.295654
v -0.099835 0.104342 -0.104342
v -0.100178 0.104342 -0.102618
v -0.100178 0.102617 -0.104342
v -0.100677 0.102678 -0.102678
v -0.101346 0.101346 -0.102721
v -0.101346 0.102721 -0.101346
v -0.101750 0.101750 -0.101750
v -0.102721 0.101346 -0.101346
v -0.102678 0.102678 -0.100677
v -0.102678 0.100677 -0.102678
v -0.104342 0.100178 -0.102618
v -0.102617 0.100178 -0.104342
v -0.104342 0.099835 -0.104342
v -0.104342 0.099835 -0.295654
v -0.295654 0.099835 -0.104342
v -0.295654 0.100178 -0.102617
v -0.297379 0.100178 -0.104342
v -0.297422 0.100592 -0.102574
v -0.298841 0.101155 -0.104342
v -0.298612 0.101384 -0.102664
v -0.299818 0.102617 -0.104342
v -0.298841 0.101155 -0.295654
v -0.300161 0.104342 -0.104342
v -0.299404 0.102574 -0.102574
v -0.299818 0.104342 -0.102617
v -0.298612 0.102664 -0.101384
v -0.298841 0.104342 -0.101155
v -0.298256 0.101740 -0.101740
v -0.297422 0.102574 -0.100592
v -0.295654 0.102617 -0.100178
v -0.297379 0.104342 -0.100178
v -0.297332 0.101384 -0.101384
v -0.295654 0.101155 -0.101155
v -0.104342 0.101155 -0.101155
v -0.104342 0.102617 -0.100178
v -0.104342 0.104342 -0.099835
v -0.102617 0.104342 -0.100178
v -0.104342 0.295654 -0.099835
v -0.295654 0.104342 -0.099835
v -0.295654 0.295654 -0.099835
v -0.295654 0.297379 -0.100178
v -0.297379 0.295654 -0.100178
v -0.297422 0.297422 -0.100592
v -0.298612 0.297332 -0.101384
v -0.297332 0.298612 -0.101384
v -0.298256 0.298256 -0.101740
v -0.298612 0.298612 -0.102664
v -0.297422 0.299404 -0.102574
v -0.298841 0.298841 -0.104342
v -0.299404 0.297422 -0.102574
v -0.299818 0.297379 -0.104342
v -0.299818 0.295654 -0.102617
v -0.300161 0.295654 -0.104342
v -0.298841 0.295654 -0.101155
v -0.299818 0.297379 -0.295654
v -0.297379 0.299818 -0.104342
v -0.295654 0.300161 -0.104342
v -0.295654 0.299818 -0.102617
v -0.104342 0.300161 -0.104342
v -0.104342 0.299818 -0.102618
v -0.102617 0.299818 -0.104342
v -0.102574 0.299404 -0.102574
v -0.101155 0.298841 -0.104342
v -0.102617 0.299818 -0.295654
v -0.101155 0.298841 -0.295654
v -0.101384 0.298612 -0.102664
v -0.100178 0.297379 -0.104342
v -0.100592 0.297422 -0.102574
v -0.100178 0.295654 -0.102618
v -0.101384 0.297333 -0.101384
v -0.102574 0.297422 -0.100592
v -0.101155 0.295654 -0.101155
v -0.101740 0.298256 -0.101740
v -0.102664 0.298612 -0.101384
v -0.104342 0.298841 -0.101155
v -0.104342 0.297379 -0.100178
v -0.295654 0.298841 -0.101155
v -0.102617 0.295654 -0.100178
v -0.101155 0.104342 -0.101155
v -0.102617 0.100178 -0.295654
v -0.102574 0.100592 -0.297422
v -0.101155 0.101155 -0.295654
v -0.101384 0.101384 -0.297333
v -0.100178 0.102617 -0.295654
v -0.101155 0.101155 -0.104342
v -0.100592 0.102574 -0.297422
v -0.100178 0.104342 -0.297379
v -0.101384 0.102664 -0.298612
v -0.101155 0.104342 -0.298841
v -0.101740 0.101740 -0.298257
v -0.101155 0.295654 -0.298841
v -0.102617 0.295654 -0.299819
vn -0.4280 0.0782 -0.9004
vn -0.0782 0.4280 -0.9004
vn 0.0141 -0.0141 -0.9998
vn -0.0018 0.0006 -1.0000
vn -0.1913 0.1950 -0.9619
vn -0.3826 0.0018 -0.9239
vn 0.0006 0.0018 -1.0000
vn 0.1950 0.1913 -0.9620
vn 0.0018 0.3826 -0.9239
vn -0.0023 -0.0010 -1.0000
vn 0.0010 0.0023 -1.0000
vn 0.0018 -0.0018 -1.0000
vn -0.0782 -0.4280 -0.9004
vn -0.4280 -0.0782 -0.9004
vn 0.0141 0.0141 -0.9998
vn 0.0005 -0.3826 -0.9239
vn 0.1933 -0.1914 -0.9623
vn 0.4280 -0.0782 -0.9004
vn 0.0781 -0.4280 -0.9004
vn -0.0141 0.0141 -0.9998
vn 0.3826 0.0005 -0.9239
vn 0.1914 0.1933 -0.9623
vn 0.0018 0.0018 -1.0000
vn 0.4022 -0.4009 -0.8231
vn 0.0689 -0.7356 -0.6739
vn -0.0024 -0.3782 -0.9257
vn 0.0003 -0.7071 -0.7071
vn 0.1951 -0.5449 -0.8155
vn 0.0017 -0.3827 -0.9239
vn 0.0689 -0.6739 -0.7356
vn 0.4022 -0.8231 -0.4009
vn -0.0025 -0.9257 -0.3782
vn 0.0005 -0.9239 -0.3827
vn 0.1950 -0.8155 -0.5449
vn 0.0015 -0.7071 -0.7071
vn -0.0689 -0.7356 -0.6739
vn -0.4022 -0.4009 -0.8231
vn 0.0025 -0.3782 -0.9257
vn -0.4022 -0.8231 -0.4009
vn -0.0689 -0.6739 -0.7356
vn 0.0029 -0.9256 -0.3786
vn -0.0018 -1.0000 -0.0018
vn -0.3453 -0.8726 -0.3453
vn -0.0013 -0.9237 -0.3830
vn -0.1950 -0.9623 -0.1896
vn -0.0006 -1.0000 -0.0018
vn -0.7356 -0.6739 -0.0689
vn -0.4009 -0.8231 -0.4022
vn -0.3786 -0.9256 0.0029
vn -0.3830 -0.9237 -0.0013
vn -0.3454 -0.8726 -0.3454
vn -0.5773 -0.5774 -0.5773
vn -0.2761 -0.6676 -0.6914
vn -0.6914 -0.6676 -0.2762
vn -0.3142 -0.3972 -0.8623
vn -0.5218 -0.6088 -0.5976
vn -0.6920 -0.2728 -0.6683
vn -0.8623 -0.3142 -0.3972
vn -0.5976 -0.5218 -0.6088
vn -0.6848 -0.6844 -0.2501
vn -0.4009 -0.4022 -0.8231
vn -0.7356 -0.0689 -0.6739
vn -0.3782 0.0024 -0.9257
vn -0.6739 -0.0689 -0.7356
vn -0.8231 -0.4022 -0.4009
vn -0.9257 0.0024 -0.3782
vn -0.9004 -0.0782 -0.4280
vn -0.9004 -0.4280 -0.0781
vn -0.9998 0.0141 0.0141
vn -0.8231 -0.4009 -0.4022
vn -0.6739 -0.7356 -0.0689
vn -0.9257 -0.3782 0.0024
vn -0.9239 0.0005 -0.3827
vn -0.9623 0.1933 -0.1914
vn -1.0000 0.0018 -0.0018
vn -0.7071 0.0003 -0.7071
vn -0.8155 0.1951 -0.5449
vn -0.9239 0.0018 -0.3827
vn -0.9004 0.4280 -0.0782
vn -0.9004 0.0782 -0.4280
vn -0.9998 -0.0141 0.0141
vn -0.8231 0.4022 -0.4009
vn -0.6739 0.0688 -0.7356
vn -0.9257 -0.0025 -0.3782
vn -0.7356 0.0689 -0.6739
vn -0.4009 0.4022 -0.8231
vn -0.3783 -0.0025 -0.9257
vn -0.3827 0.0005 -0.9239
vn -0.5449 0.1950 -0.8155
vn -0.7071 0.0015 -0.7071
vn -0.3972 0.3142 -0.8623
vn -0.6088 0.5218 -0.5976
vn -0.2728 0.6920 -0.6683
vn -0.8623 0.3972 -0.3142
vn -0.5976 0.6088 -0.5218
vn -0.6683 0.2729 -0.6920
vn -0.3141 0.8623 -0.3972
vn -0.5217 0.5976 -0.6088
vn -0.6920 0.6683 -0.2729
vn -0.4009 0.8231 -0.4023
vn -0.7356 0.6739 -0.0689
vn -0.3782 0.9257 0.0024
vn -0.6739 0.7356 -0.0689
vn -0.8231 0.4009 -0.4022
vn -0.9257 0.3782 0.0024
vn -0.0782 0.9004 -0.4280
vn -0.4280 0.9004 -0.0781
vn 0.0141 0.9998 0.0141
vn -0.0689 0.6739 -0.7356
vn -0.4022 0.8231 -0.4009
vn 0.0024 0.9257 -0.3782
vn 0.0005 0.9239 -0.3826
vn 0.1933 0.9623 -0.1914
vn 0.0018 1.0000 -0.0018
vn 0.0003 0.7071 -0.7071
vn 0.1951 0.8155 -0.5449
vn 0.0017 0.9239 -0.3827
vn 0.4280 0.9004 -0.0782
vn 0.0781 0.9004 -0.4280
vn -0.0141 0.9998 0.0141
vn 0.4022 0.8231 -0.4009
vn 0.0689 0.6739 -0.7356
vn -0.0025 0.9257 -0.3782
vn 0.0689 0.7356 -0.6739
vn 0.4022 0.4009 -0.8231
vn -0.0025 0.3782 -0.9257
vn 0.0005 0.3827 -0.9239
vn 0.1950 0.5449 -0.8155
vn 0.0015 0.7071 -0.7071
vn 0.3142 0.3972 -0.8623
vn 0.5218 0.6088 -0.5976
vn 0.6844 0.2501 -0.6848
vn 0.3972 0.8623 -0.3142
vn 0.6088 0.5976 -0.5218
vn 0.2729 0.6683 -0.6920
vn 0.6676 0.2762 -0.6914
vn 0.5774 0.5773 -0.5773
vn 0.8726 0.3454 -0.3454
vn 0.6676 0.6914 -0.2762
vn 1.0000 0.0018 -0.0018
vn 0.8726 0.3453 -0.3453
vn 0.9238 0.3830 -0.0013
vn 0.8231 0.4009 -0.4022
vn 0.6739 0.7356 -0.0689
vn 0.9256 0.3786 0.0029
vn 0.6739 0.0689 -0.7356
vn 0.8231 0.4022 -0.4009
vn 0.9256 -0.0029 -0.3786
vn 0.9237 0.0013 -0.3830
vn 1.0000 0.0006 -0.0018
vn 0.9619 0.1950 -0.1913
vn 0.9238 0.0013 -0.3830
vn 1.0000 0.0035 0.0023
vn 0.9619 0.1913 0.1954
vn 0.9239 0.3826 0.0017
vn 1.0000 0.0035 0.0035
vn 1.0000 -0.0018 0.0018
vn 1.0000 -0.0035 -0.0035
vn 1.0000 -0.0006 0.0018
vn 0.9619 -0.1950 0.1913
vn 0.9238 -0.0015 0.3828
vn 0.9238 -0.0016 0.3828
vn 0.8755 -0.3417 0.3417
vn 0.9238 -0.3828 0.0016
vn 0.9238 -0.3828 0.0003
vn 0.9626 -0.1915 0.1917
vn 0.7962 -0.4186 0.4369
vn 0.6074 -0.7827 0.1359
vn 0.8996 -0.4329 0.0569
vn 0.6074 -0.1359 0.7827
vn 0.7962 -0.4369 0.4186
vn 0.8996 -0.0570 0.4329
vn 0.8755 -0.3417 0.3418
vn 0.5774 -0.5773 0.5774
vn 0.6768 -0.6768 0.2897
vn 0.6768 -0.2897 0.6768
vn 0.5774 -0.5774 0.5773
vn 0.8755 -0.3418 0.3417
vn 0.3418 -0.8755 0.3417
vn 0.5773 -0.5774 0.5773
vn 0.2897 -0.6768 0.6768
vn 0.3418 -0.3417 0.8755
vn 0.5773 -0.5774 0.5774
vn 0.3417 -0.8755 0.3418
vn 0.3417 -0.3418 0.8755
vn 0.0018 -1.0000 0.0018
vn 0.3417 -0.8755 0.3417
vn 0.0016 -0.9238 0.3828
vn 0.4369 -0.7962 0.4186
vn 0.1359 -0.6074 0.7827
vn 0.0569 -0.8996 0.4329
vn 0.7827 -0.6074 0.1359
vn 0.4186 -0.7962 0.4368
vn 0.4329 -0.8996 0.0569
vn 0.3828 -0.9238 0.0016
vn 0.0018 -1.0000 0.0006
vn 0.1913 -0.9619 0.1950
vn 0.3828 -0.9238 0.0015
vn 0.0003 -0.9238 0.3828
vn 0.1917 -0.9626 0.1915
vn 0.0035 -1.0000 -0.0035
vn -0.0035 -1.0000 0.0035
vn -0.0782 -0.9004 0.4280
vn -0.4280 -0.9004 0.0781
vn 0.0124 -0.9998 -0.0123
vn -0.0018 -1.0000 -0.0006
vn -0.1914 -0.9619 -0.1950
vn -0.4009 -0.8231 0.4022
vn -0.7356 -0.6739 0.0689
vn -0.3782 -0.9257 -0.0024
vn -0.3831 -0.9237 -0.0001
vn -0.5449 -0.8155 -0.1950
vn -0.7071 -0.7071 -0.0015
vn -0.6739 -0.7356 0.0689
vn -0.8231 -0.4009 0.4022
vn -0.9257 -0.3782 -0.0025
vn -0.7071 -0.7071 -0.0003
vn -0.8155 -0.5449 -0.1951
vn -0.9239 -0.3827 -0.0018
vn -0.9004 -0.4280 0.0782
vn -0.9004 -0.0782 0.4280
vn -0.9998 0.0141 -0.0141
vn -0.9239 -0.3826 -0.0005
vn -0.9623 -0.1914 -0.1933
vn -1.0000 -0.0018 -0.0018
vn -0.8231 -0.4022 0.4009
vn -0.6739 -0.0689 0.7356
vn -0.9257 0.0024 0.3782
vn -0.8623 -0.3972 0.3142
vn -0.5976 -0.6088 0.5218
vn -0.6683 -0.2728 0.6920
vn -0.7356 -0.0689 0.6739
vn -0.4009 -0.4022 0.8231
vn -0.3782 0.0024 0.9257
vn -0.3972 -0.3142 0.8623
vn -0.6088 -0.5218 0.5976
vn -0.2728 -0.6920 0.6683
vn -0.4280 -0.0782 0.9004
vn -0.0781 -0.4280 0.9004
vn 0.0123 0.0124 0.9998
vn -0.4022 -0.4009 0.8231
vn -0.0689 -0.7356 0.6739
vn 0.0025 -0.3782 0.9257
vn -0.0689 -0.6739 0.7356
vn -0.4022 -0.8231 0.4009
vn 0.0025 -0.9257 0.3782
vn -0.3142 -0.8623 0.3972
vn -0.5218 -0.5976 0.6088
vn -0.6921 -0.6683 0.2728
vn 0.0006 -0.7071 0.7071
vn 0.1951 -0.8155 0.5449
vn 0.0015 -0.9238 0.3829
vn 0.0003 -0.3829 0.9238
vn 0.1950 -0.5449 0.8155
vn 0.0018 -0.7071 0.7071
vn 0.1359 -0.7827 0.6074
vn 0.4369 -0.4186 0.7962
vn 0.0570 -0.4329 0.8996
vn 0.0006 -0.0018 1.0000
vn 0.1950 -0.1913 0.9619
vn 0.0015 -0.3828 0.9238
vn 0.0016 -0.3828 0.9238
vn 0.3417 -0.3417 0.8755
vn 0.0018 -0.0018 1.0000
vn 0.3828 -0.0016 0.9238
vn 0.3828 -0.0003 0.9238
vn 0.1915 -0.1917 0.9626
vn -0.0018 0.0018 1.0000
vn 0.0035 0.0035 1.0000
vn -0.0035 -0.0035 1.0000
vn 0.0005 0.3826 0.9239
vn 0.1933 0.1914 0.9623
vn -0.0013 0.3830 0.9237
vn -0.3454 0.3453 0.8726
vn -0.3830 0.0013 0.9237
vn -0.3830 0.0001 0.9237
vn -0.1915 0.1917 0.9626
vn -0.4009 0.4022 0.8231
vn -0.7356 0.0689 0.6739
vn -0.3786 -0.0029 0.9256
vn -0.0689 0.7356 0.6739
vn -0.4022 0.4009 0.8231
vn 0.0029 0.3786 0.9256
vn -0.3454 0.3454 0.8726
vn -0.5774 0.5773 0.5774
vn -0.6914 0.2762 0.6676
vn -0.2762 0.6914 0.6676
vn -0.5773 0.5773 0.5774
vn -0.3972 0.8623 0.3142
vn -0.6088 0.5976 0.5218
vn -0.2501 0.6848 0.6844
vn -0.8623 0.3142 0.3972
vn -0.5976 0.5218 0.6088
vn -0.6683 0.6920 0.2729
vn -0.7356 0.6739 0.0689
vn -0.4009 0.8231 0.4022
vn -0.3782 0.9257 -0.0025
vn -0.8231 0.4009 0.4023
vn -0.6739 0.7356 0.0689
vn -0.9257 0.3782 -0.0024
vn -0.9004 0.0782 0.4280
vn -0.9004 0.4280 0.0782
vn -0.9998 -0.0141 -0.0141
vn -0.6739 0.0689 0.7356
vn -0.8231 0.4022 0.4009
vn -0.9257 -0.0025 0.3782
vn -1.0000 0.0006 0.0018
vn -0.9620 0.1950 0.1913
vn -0.9239 0.0018 0.3826
vn -0.9239 0.0005 0.3827
vn -0.8155 0.1950 0.5449
vn -0.7071 0.0015 0.7071
vn -0.7071 0.0003 0.7071
vn -0.5449 0.1951 0.8155
vn -0.3831 0.0013 0.9237
vn -1.0000 0.0018 -0.0006
vn -0.9619 0.1913 -0.1950
vn -0.9239 0.3826 -0.0018
vn -1.0000 -0.0010 0.0023
vn -1.0000 0.0023 -0.0010
vn -0.9239 0.3827 -0.0005
vn -0.8155 0.5449 -0.1950
vn -0.7071 0.7071 -0.0015
vn -0.7071 0.7071 -0.0003
vn -0.5449 0.8155 -0.1951
vn -0.3827 0.9239 -0.0018
vn -0.4280 0.9004 0.0782
vn -0.0781 0.9004 0.4280
vn 0.0141 0.9998 -0.0141
vn -0.1932 0.9619 0.1933
vn -0.3826 0.9239 0.0006
vn -0.0018 1.0000 0.0018
vn 0.0006 1.0000 0.0018
vn 0.1950 0.9619 0.1913
vn 0.0018 0.9239 0.3826
vn -0.0023 1.0000 -0.0010
vn 0.0010 1.0000 0.0023
vn 0.0782 0.9004 0.4280
vn 0.4280 0.9004 0.0782
vn -0.0141 0.9998 -0.0141
vn 0.3826 0.9239 0.0005
vn 0.1914 0.9623 0.1933
vn 0.0018 1.0000 0.0018
vn 0.4009 0.8231 0.4022
vn 0.7356 0.6739 0.0688
vn 0.3782 0.9257 -0.0024
vn 0.7071 0.7071 0.0003
vn 0.5449 0.8155 0.1951
vn 0.3827 0.9239 0.0017
vn 0.7356 0.6739 -0.0689
vn 0.4009 0.8231 -0.4022
vn 0.3782 0.9257 0.0025
vn 0.9239 0.3827 0.0005
vn 0.8155 0.5449 0.1950
vn 0.7071 0.7071 0.0015
vn 0.6739 0.7356 0.0689
vn 0.8231 0.4009 0.4022
vn 0.9257 0.3782 -0.0025
vn 0.9004 0.4280 0.0782
vn 0.9004 0.0781 0.4280
vn 0.9998 -0.0124 -0.0124
vn 0.8231 0.4022 0.4009
vn 0.6739 0.0688 0.7356
vn 0.9257 -0.0025 0.3782
vn 0.8623 0.3972 0.3142
vn 0.5976 0.6088 0.5218
vn 0.6683 0.2728 0.6921
vn 0.7356 0.0689 0.6739
vn 0.4009 0.4022 0.8231
vn 0.3782 -0.0025 0.9257
vn 0.3972 0.3142 0.8623
vn 0.6088 0.5218 0.5976
vn 0.2728 0.6920 0.6683
vn 0.3142 0.8623 0.3972
vn 0.5218 0.5976 0.6088
vn 0.6920 0.6683 0.2728
vn 0.4022 0.4009 0.8231
vn 0.0689 0.7356 0.6739
vn -0.0024 0.3782 0.9257
vn 0.0689 0.6739 0.7356
vn 0.4022 0.8231 0.4009
vn -0.0025 0.9257 0.3782
vn 0.0003 0.7071 0.7071
vn 0.1947 0.5449 0.8156
vn 0.0018 0.3827 0.9239
vn 0.0005 0.9239 0.3827
vn 0.1950 0.8155 0.5449
vn 0.0015 0.7071 0.7071
vn -0.4023 0.8231 0.4009
vn -0.0689 0.6739 0.7356
vn 0.0024 0.9257 0.3782
vn 0.4280 0.0782 0.9004
vn 0.0781 0.4280 0.9004
vn -0.0123 -0.0124 0.9998
vn 0.7071 -0.0006 0.7071
vn 0.5449 -0.1951 0.8155
vn 0.3829 -0.0015 0.9238
vn 0.9238 -0.0003 0.3829
vn 0.8155 -0.1950 0.5449
vn 0.7071 -0.0018 0.7071
vn 0.4186 -0.4369 0.7962
vn 0.7827 -0.1359 0.6074
vn 0.4329 -0.0570 0.8996
vn 0.0782 -0.9004 -0.4280
vn 0.4280 -0.9004 -0.0781
vn -0.0124 -0.9998 0.0123
vn 0.4009 -0.8231 -0.4022
vn 0.7356 -0.6739 -0.0689
vn 0.3782 -0.9257 0.0024
vn 0.3829 -0.9238 0.0003
vn 0.5449 -0.8155 0.1950
vn 0.7071 -0.7071 0.0018
vn 0.6739 -0.7356 -0.0689
vn 0.8231 -0.4009 -0.4022
vn 0.9257 -0.3782 0.0025
vn 0.7071 -0.7071 0.0006
vn 0.8155 -0.5449 0.1951
vn 0.9238 -0.3829 0.0015
vn 0.9004 -0.4280 -0.0782
vn 0.9004 -0.0782 -0.4280
vn 0.9998 0.0123 0.0124
vn 0.8231 -0.4022 -0.4009
vn 0.6739 -0.0688 -0.7356
vn 0.9257 0.0025 -0.3782
vn 0.8623 -0.3972 -0.3142
vn 0.5976 -0.6088 -0.5218
vn 0.6683 -0.2728 -0.6921
vn 0.7356 -0.0689 -0.6739
vn 0.4009 -0.4022 -0.8231
vn 0.3782 0.0025 -0.9257
vn 0.3972 -0.3142 -0.8623
vn 0.6088 -0.5218 -0.5976
vn 0.2729 -0.6920 -0.6683
vn 0.3142 -0.8623 -0.3972
vn 0.5218 -0.5976 -0.6088
vn 0.6920 -0.6683 -0.2729
vn 0.9237 0.0001 -0.3831
vn 0.8155 0.1950 -0.5449
vn 0.7071 0.0015 -0.7071
vn 0.7071 0.0003 -0.7071
vn 0.5449 0.1951 -0.8155
vn 0.3827 0.0017 -0.9239
vn 0.4009 0.4022 -0.8231
vn 0.7356 0.0689 -0.6739
vn 0.3782 -0.0024 -0.9257
vn 0.0782 0.4280 -0.9004
vn 0.4280 0.0781 -0.9004
vn -0.0141 -0.0141 -0.9998
vn -0.4023 0.4009 -0.8231
vn -0.0689 0.7356 -0.6739
vn 0.0024 0.3782 -0.9257
vn -0.3057 -0.0372 -0.9514
vn -0.3580 0.3580 -0.8624
vn 0.0372 0.3057 -0.9514
vn -0.1914 -0.1933 -0.9623
vn -0.0018 -0.0018 -1.0000
vn -0.3826 -0.0005 -0.9239
vn -0.1933 0.1914 -0.9623
vn -0.0018 0.0018 -1.0000
vn -0.0005 0.3827 -0.9239
vn -0.0010 -0.0023 -1.0000
vn 0.0023 0.0010 -1.0000
vn 0.0372 -0.3058 -0.9514
vn -0.3580 -0.3579 -0.8624
vn -0.3057 0.0372 -0.9514
vn -0.1950 -0.1914 -0.9619
vn -0.0017 -0.3827 -0.9239
vn -0.0006 -0.0018 -1.0000
vn 0.3057 0.0372 -0.9514
vn 0.3580 -0.3580 -0.8624
vn -0.0372 -0.3057 -0.9514
vn 0.1913 -0.1950 -0.9619
vn 0.3826 -0.0018 -0.9239
vn 0.0018 -0.0006 -1.0000
vn 0.2459 -0.3158 -0.9164
vn 0.3030 -0.6784 -0.6693
vn -0.0560 -0.6412 -0.7653
vn -0.1950 -0.5449 -0.8155
vn -0.0015 -0.7071 -0.7071
vn -0.0005 -0.3827 -0.9239
vn -0.0560 -0.7653 -0.6412
vn 0.3030 -0.6693 -0.6784
vn 0.2459 -0.9164 -0.3158
vn -0.1951 -0.8155 -0.5449
vn -0.0013 -0.9237 -0.3831
vn -0.0003 -0.7071 -0.7071
vn 0.0560 -0.6412 -0.7653
vn -0.2807 -0.6713 -0.6860
vn -0.2459 -0.3157 -0.9164
vn -0.2459 -0.9164 -0.3158
vn -0.2806 -0.6620 -0.6950
vn 0.0560 -0.7653 -0.6412
vn 0.0006 -0.9239 -0.3826
vn 0.1933 -0.9619 -0.1932
vn -0.6412 -0.7653 0.0560
vn -0.6950 -0.6620 -0.2806
vn -0.3158 -0.9164 -0.2459
vn -0.3972 -0.3142 -0.8623
vn -0.2501 -0.6845 -0.6848
vn -0.6088 -0.5218 -0.5976
vn -0.8623 -0.3972 -0.3142
vn -0.6683 -0.2729 -0.6920
vn -0.5976 -0.6088 -0.5218
vn -0.3157 -0.2459 -0.9164
vn -0.6784 -0.3030 -0.6693
vn -0.6412 0.0560 -0.7653
vn -0.7653 0.0560 -0.6412
vn -0.6693 -0.3030 -0.6784
vn -0.9164 -0.2459 -0.3158
vn -0.9514 0.0372 -0.3058
vn -0.8624 -0.3580 -0.3580
vn -0.9514 -0.3057 0.0372
vn -0.9164 -0.3158 -0.2459
vn -0.6860 -0.6713 -0.2807
vn -0.7653 -0.6412 0.0560
vn -0.9619 -0.1950 -0.1913
vn -0.9239 -0.0018 -0.3826
vn -1.0000 -0.0006 -0.0018
vn -0.8155 -0.1950 -0.5449
vn -0.7072 -0.0015 -0.7070
vn -0.9239 -0.0005 -0.3827
vn -0.9514 0.3057 0.0372
vn -0.8624 0.3580 -0.3580
vn -0.9514 -0.0372 -0.3057
vn -0.9164 0.2459 -0.3157
vn -0.6693 0.3030 -0.6784
vn -0.7654 -0.0560 -0.6412
vn -0.6412 -0.0560 -0.7653
vn -0.6784 0.3030 -0.6693
vn -0.3157 0.2459 -0.9164
vn -0.5449 -0.1951 -0.8155
vn -0.3827 -0.0018 -0.9239
vn -0.7071 -0.0003 -0.7071
vn -0.3142 0.3971 -0.8623
vn -0.6920 0.2729 -0.6683
vn -0.5218 0.6088 -0.5976
vn -0.8623 0.3142 -0.3972
vn -0.6683 0.6920 -0.2729
vn -0.5976 0.5218 -0.6088
vn -0.3972 0.8623 -0.3142
vn -0.2729 0.6683 -0.6920
vn -0.6088 0.5976 -0.5218
vn -0.3157 0.9164 -0.2459
vn -0.6784 0.6693 -0.3030
vn -0.6412 0.7653 0.0560
vn -0.7653 0.6412 0.0560
vn -0.6693 0.6784 -0.3030
vn -0.9164 0.3157 -0.2459
vn 0.0372 0.9514 -0.3057
vn -0.3580 0.8624 -0.3580
vn -0.3057 0.9514 0.0372
vn 0.0560 0.7653 -0.6412
vn -0.3030 0.6693 -0.6784
vn -0.2459 0.9164 -0.3157
vn -0.1950 0.9619 -0.1913
vn -0.0017 0.9239 -0.3826
vn -0.0006 1.0000 -0.0018
vn -0.1950 0.8155 -0.5449
vn -0.0015 0.7071 -0.7071
vn -0.0005 0.9239 -0.3827
vn 0.3057 0.9514 0.0372
vn 0.3580 0.8624 -0.3580
vn -0.0372 0.9514 -0.3057
vn 0.2459 0.9164 -0.3158
vn 0.3030 0.6693 -0.6784
vn -0.0560 0.7653 -0.6412
vn -0.0560 0.6412 -0.7653
vn 0.3030 0.6784 -0.6693
vn 0.2459 0.3157 -0.9164
vn -0.1951 0.5449 -0.8155
vn -0.0017 0.3827 -0.9239
vn -0.0003 0.7071 -0.7071
vn 0.3972 0.3141 -0.8623
vn 0.2729 0.6920 -0.6683
vn 0.6088 0.5217 -0.5976
vn 0.3142 0.8623 -0.3972
vn 0.6844 0.6848 -0.2501
vn 0.5218 0.5976 -0.6088
vn 0.9164 0.3158 -0.2459
vn 0.6620 0.6950 -0.2806
vn 0.7653 0.6412 0.0560
vn 0.7653 -0.0560 -0.6412
vn 0.6620 0.2806 -0.6950
vn 0.9164 0.2459 -0.3157
vn 0.9623 -0.1933 -0.1914
vn 0.9239 -0.0005 -0.3827
vn 0.9626 0.1915 -0.1917
vn 0.9238 0.3830 -0.0001
vn 0.9623 0.1933 0.1914
vn 0.9239 0.0005 0.3826
vn 0.9619 -0.1914 -0.1952
vn 0.9239 -0.3827 -0.0018
vn 1.0000 -0.0035 -0.0023
vn 0.9459 -0.2511 0.2057
vn 0.7397 -0.6308 0.2343
vn 0.8022 -0.5792 -0.1450
vn 0.8021 0.1450 0.5793
vn 0.7397 -0.2343 0.6308
vn 0.9459 -0.2057 0.2511
vn 0.2057 -0.9459 0.2511
vn 0.2343 -0.7397 0.6308
vn -0.1450 -0.8021 0.5793
vn 0.5793 -0.8021 -0.1450
vn 0.6308 -0.7397 0.2343
vn 0.2511 -0.9459 0.2057
vn 0.1914 -0.9623 -0.1933
vn 0.3826 -0.9239 -0.0005
vn -0.1952 -0.9619 0.1913
vn -0.0018 -0.9239 0.3826
vn -0.0023 -1.0000 0.0035
vn 0.0372 -0.9514 0.3057
vn -0.3580 -0.8624 0.3580
vn -0.3057 -0.9514 -0.0372
vn -0.1914 -0.9623 0.1933
vn -0.3826 -0.9239 0.0005
vn -0.3158 -0.9164 0.2459
vn -0.6784 -0.6693 0.3030
vn -0.6412 -0.7653 -0.0560
vn -0.5450 -0.8156 0.1947
vn -0.3827 -0.9239 0.0017
vn -0.7071 -0.7071 0.0003
vn -0.7653 -0.6412 -0.0560
vn -0.6693 -0.6784 0.3030
vn -0.9164 -0.3157 0.2459
vn -0.8155 -0.5449 0.1950
vn -0.7071 -0.7071 0.0015
vn -0.9239 -0.3827 0.0005
vn -0.9514 -0.3058 -0.0372
vn -0.8624 -0.3579 0.3580
vn -0.9514 0.0372 0.3057
vn -0.9619 -0.1913 0.1950
vn -0.9239 -0.3826 0.0018
vn -1.0000 -0.0018 0.0006
vn -0.9164 -0.2459 0.3157
vn -0.6693 -0.3031 0.6784
vn -0.7653 0.0560 0.6412
vn -0.8623 -0.3142 0.3971
vn -0.6683 -0.6921 0.2728
vn -0.5976 -0.5218 0.6088
vn -0.6412 0.0560 0.7653
vn -0.6784 -0.3030 0.6693
vn -0.3158 -0.2459 0.9164
vn -0.3142 -0.3971 0.8623
vn -0.6921 -0.2728 0.6683
vn -0.5218 -0.6088 0.5976
vn -0.3057 0.0372 0.9514
vn -0.3580 -0.3580 0.8624
vn 0.0372 -0.3057 0.9514
vn -0.2459 -0.3158 0.9164
vn -0.3030 -0.6785 0.6692
vn 0.0560 -0.6412 0.7653
vn 0.0560 -0.7653 0.6412
vn -0.3031 -0.6692 0.6784
vn -0.2459 -0.9164 0.3158
vn -0.3972 -0.8623 0.3142
vn -0.2729 -0.6683 0.6920
vn -0.6088 -0.5976 0.5218
vn -0.1950 -0.8155 0.5449
vn -0.0015 -0.7071 0.7071
vn -0.0005 -0.9239 0.3827
vn -0.1949 -0.5449 0.8155
vn -0.0017 -0.3827 0.9239
vn -0.0003 -0.7071 0.7071
vn -0.1450 -0.5793 0.8021
vn 0.2343 -0.6308 0.7397
vn 0.2057 -0.2511 0.9459
vn -0.1933 -0.1914 0.9623
vn -0.0005 -0.3827 0.9239
vn 0.1913 0.1952 0.9619
vn 0.3826 0.0018 0.9239
vn 0.0035 0.0023 1.0000
vn -0.1950 0.1914 0.9620
vn -0.0006 0.0018 1.0000
vn -0.1913 -0.1954 0.9619
vn -0.3826 -0.0018 0.9239
vn -0.0035 -0.0023 1.0000
vn -0.3158 0.2459 0.9164
vn -0.6950 0.2807 0.6620
vn -0.6412 -0.0560 0.7653
vn 0.0560 0.6412 0.7653
vn -0.2806 0.6950 0.6620
vn -0.2459 0.3158 0.9164
vn -0.3142 0.8623 0.3971
vn -0.6920 0.6683 0.2729
vn -0.5218 0.5976 0.6088
vn -0.8623 0.3971 0.3142
vn -0.6848 0.2501 0.6845
vn -0.5976 0.6088 0.5218
vn -0.6412 0.7653 -0.0560
vn -0.6784 0.6693 0.3030
vn -0.3158 0.9164 0.2459
vn -0.9164 0.3157 0.2459
vn -0.6693 0.6784 0.3030
vn -0.7653 0.6412 -0.0560
vn -0.9514 -0.0372 0.3057
vn -0.8624 0.3580 0.3580
vn -0.9514 0.3057 -0.0372
vn -0.7653 -0.0560 0.6412
vn -0.6860 0.2807 0.6713
vn -0.9164 0.2459 0.3158
vn -0.9623 -0.1933 0.1914
vn -1.0000 -0.0018 0.0018
vn -0.9239 -0.0005 0.3826
vn -0.8155 -0.1951 0.5449
vn -0.9239 -0.0017 0.3827
vn -0.7071 -0.0003 0.7071
vn -0.5449 -0.1950 0.8155
vn -0.7071 -0.0015 0.7071
vn -0.3827 -0.0005 0.9239
vn -0.9623 0.1914 0.1933
vn -1.0000 0.0018 0.0018
vn -0.9239 0.3826 0.0005
vn -1.0000 -0.0023 0.0010
vn -1.0000 0.0010 -0.0023
vn -0.8155 0.5449 0.1951
vn -0.9239 0.3827 0.0017
vn -0.7071 0.7071 0.0003
vn -0.5449 0.8155 0.1950
vn -0.7071 0.7071 0.0015
vn -0.3827 0.9239 0.0005
vn -0.3057 0.9514 -0.0372
vn -0.3580 0.8624 0.3580
vn 0.0372 0.9514 0.3057
vn -0.0018 1.0000 -0.0006
vn -0.3826 0.9239 -0.0017
vn -0.1896 0.9623 -0.1950
vn -0.1933 0.9623 0.1914
vn -0.0005 0.9239 0.3826
vn -0.0010 1.0000 -0.0023
vn 0.0023 1.0000 0.0010
vn -0.0372 0.9514 0.3058
vn 0.3580 0.8624 0.3580
vn 0.3057 0.9514 -0.0372
vn 0.1914 0.9619 -0.1950
vn 0.3827 0.9239 -0.0018
vn 0.0018 1.0000 -0.0006
vn 0.3158 0.9164 0.2459
vn 0.6785 0.6692 0.3030
vn 0.6412 0.7653 -0.0560
vn 0.5449 0.8155 -0.1950
vn 0.7071 0.7071 -0.0015
vn 0.3827 0.9239 -0.0005
vn 0.6412 0.7653 0.0560
vn 0.6713 0.6860 -0.2807
vn 0.3158 0.9164 -0.2459
vn 0.8155 0.5449 -0.1951
vn 0.9237 0.3830 -0.0013
vn 0.7071 0.7071 -0.0003
vn 0.7653 0.6412 -0.0560
vn 0.6693 0.6784 0.3030
vn 0.9164 0.3158 0.2459
vn 0.9514 0.3057 -0.0372
vn 0.8624 0.3580 0.3580
vn 0.9514 -0.0372 0.3057
vn 0.9164 0.2459 0.3158
vn 0.6692 0.3031 0.6785
vn 0.7653 -0.0560 0.6412
vn 0.8623 0.3143 0.3971
vn 0.6683 0.6920 0.2728
vn 0.5976 0.5218 0.6088
vn 0.6412 -0.0560 0.7653
vn 0.6784 0.3031 0.6692
vn 0.3158 0.2459 0.9164
vn 0.3142 0.3971 0.8623
vn 0.6921 0.2728 0.6683
vn 0.5218 0.6088 0.5976
vn 0.3971 0.8623 0.3142
vn 0.2728 0.6683 0.6921
vn 0.6088 0.5976 0.5218
vn 0.2459 0.3158 0.9164
vn 0.3030 0.6784 0.6692
vn -0.0560 0.6412 0.7653
vn -0.0560 0.7653 0.6412
vn 0.3031 0.6692 0.6784
vn 0.2459 0.9164 0.3158
vn -0.1950 0.5449 0.8155
vn -0.0015 0.7071 0.7071
vn -0.0001 0.3831 0.9237
vn -0.1951 0.8155 0.5449
vn -0.0018 0.9239 0.3827
vn -0.0003 0.7071 0.7071
vn -0.2459 0.9164 0.3157
vn -0.2807 0.6860 0.6713
vn 0.0560 0.7653 0.6412
vn 0.3057 -0.0372 0.9514
vn 0.3579 0.3580 0.8624
vn -0.0372 0.3057 0.9514
vn 0.5449 0.1950 0.8155
vn 0.7071 0.0015 0.7071
vn 0.3827 0.0005 0.9239
vn 0.8155 0.1949 0.5449
vn 0.9239 0.0018 0.3827
vn 0.7071 0.0003 0.7071
vn 0.2511 -0.2057 0.9459
vn 0.6308 -0.2343 0.7397
vn 0.5792 0.1450 0.8022
vn -0.0372 -0.9514 -0.3057
vn 0.3580 -0.8624 -0.3580
vn 0.3057 -0.9514 0.0372
vn 0.3157 -0.9164 -0.2459
vn 0.6784 -0.6693 -0.3030
vn 0.6412 -0.7653 0.0560
vn 0.5449 -0.8155 -0.1949
vn 0.3827 -0.9239 -0.0018
vn 0.7071 -0.7071 -0.0003
vn 0.7653 -0.6413 0.0560
vn 0.6693 -0.6784 -0.3030
vn 0.9164 -0.3157 -0.2459
vn 0.8155 -0.5449 -0.1950
vn 0.7071 -0.7071 -0.0015
vn 0.9239 -0.3827 -0.0005
vn 0.9514 -0.3057 0.0372
vn 0.8624 -0.3579 -0.3580
vn 0.9514 0.0372 -0.3057
vn 0.9164 -0.2459 -0.3157
vn 0.6693 -0.3030 -0.6784
vn 0.7653 0.0560 -0.6412
vn 0.8623 -0.3142 -0.3971
vn 0.6683 -0.6921 -0.2728
vn 0.5976 -0.5218 -0.6088
vn 0.6412 0.0560 -0.7653
vn 0.6784 -0.3030 -0.6693
vn 0.3158 -0.2459 -0.9164
vn 0.3142 -0.3971 -0.8623
vn 0.6920 -0.2728 -0.6683
vn 0.5218 -0.6088 -0.5976
vn 0.3972 -0.8623 -0.3142
vn 0.2728 -0.6683 -0.6921
vn 0.6088 -0.5976 -0.5218
vn 0.8156 -0.1947 -0.5450
vn 0.9239 -0.0018 -0.3827
vn 0.7071 -0.0003 -0.7071
vn 0.5449 -0.1950 -0.8155
vn 0.7071 -0.0015 -0.7071
vn 0.3827 -0.0005 -0.9239
vn 0.3157 0.2459 -0.9164
vn 0.6713 0.2807 -0.6860
vn 0.6412 -0.0560 -0.7653
vn -0.0372 0.3058 -0.9514
vn 0.3580 0.3580 -0.8624
vn 0.3057 -0.0372 -0.9514
vn -0.2459 0.3158 -0.9164
vn -0.3030 0.6784 -0.6693
vn 0.0560 0.6412 -0.7653
vt 0.511949 0.538974
vt 0.513946 0.535121
vt 0.513978 0.539034
vt 0.511977 0.969692
vt 0.737151 0.538964
vt 0.737221 0.535041
vt 0.514015 0.969556
vt 0.737184 0.969465
vt 0.514014 0.973428
vt 0.737276 0.973135
vt 0.739088 0.969634
vt 0.739156 0.538961
vt 0.739163 0.973273
vt 0.737469 0.976780
vt 0.739769 0.979015
vt 0.737766 0.980570
vt 0.513962 0.977308
vt 0.511935 0.973807
vt 0.511701 0.980535
vt 0.513894 0.981265
vt 0.513823 0.985293
vt 0.237356 0.469568
vt 0.239629 0.472804
vt 0.237426 0.473542
vt 0.237498 0.477590
vt 0.510626 0.976831
vt 0.511957 0.977097
vt 0.239369 0.469352
vt 0.240704 0.469080
vt 0.510186 0.974205
vt 0.239388 0.466051
vt 0.509885 0.969952
vt 0.241436 0.462185
vt 0.239344 0.461928
vt 0.237305 0.465673
vt 0.237305 0.461789
vt 0.239331 0.030462
vt 0.237297 0.030525
vt 0.241401 0.030280
vt 0.237328 0.026596
vt 0.239442 0.026385
vt 0.509885 0.538792
vt 0.511840 0.534910
vt 0.510447 0.532224
vt 0.511739 0.531607
vt 0.240841 0.023691
vt 0.241160 0.026193
vt 0.238578 0.963670
vt 0.239976 0.966366
vt 0.238679 0.966986
vt 0.236559 0.967456
vt 0.236464 0.963458
vt 0.237423 0.022595
vt 0.238468 0.959591
vt 0.236432 0.959530
vt 0.240540 0.959773
vt 0.238445 0.527221
vt 0.236402 0.527357
vt 0.240540 0.526964
vt 0.236405 0.523468
vt 0.238490 0.523094
vt 0.737354 0.531017
vt 0.739350 0.534957
vt 0.513851 0.531139
vt 0.740915 0.532431
vt 0.741054 0.534996
vt 0.239808 0.520065
vt 0.240245 0.522702
vt 0.742835 0.534498
vt 0.238734 0.516338
vt 0.238473 0.519791
vt 0.236606 0.511545
vt 0.236532 0.515594
vt 0.236459 0.519571
vt 0.741165 0.538861
vt 0.743216 0.538727
vt 0.745303 0.538589
vt 0.742949 0.970573
vt 0.011448 0.512203
vt 0.011805 0.516298
vt 0.515306 0.470700
vt 0.515306 0.257842
vt 0.625647 0.470700
vt 0.625647 0.257842
vt 0.736500 0.257635
vt 0.625647 0.256041
vt 0.736326 0.255615
vt 0.737303 0.254941
vt 0.737741 0.256952
vt 0.515306 0.255885
vt 0.738820 0.255478
vt 0.736186 0.253740
vt 0.737620 0.253163
vt 0.738061 0.254015
vt 0.737041 0.253435
vt 0.738542 0.252552
vt 0.737761 0.252046
vt 0.736990 0.251948
vt 0.739938 0.251002
vt 0.738891 0.250667
vt 0.737919 0.250396
vt 0.739584 0.253396
vt 0.515306 0.250015
vt 0.625647 0.251971
vt 0.515306 0.251971
vt 0.740132 0.037158
vt 0.625647 0.250015
vt 0.625647 0.037156
vt 0.515306 0.037156
vt 0.010334 0.475567
vt 0.013188 0.472895
vt 0.012833 0.476982
vt 0.011184 0.471339
vt 0.013484 0.469103
vt 0.011790 0.465595
vt 0.013677 0.465455
vt 0.011863 0.461956
vt 0.013766 0.461784
vt 0.009972 0.462327
vt 0.010579 0.467931
vt 0.010310 0.465812
vt 0.008813 0.466765
vt 0.008006 0.462898
vt 0.009744 0.469542
vt 0.006621 0.468404
vt 0.005888 0.463584
vt 0.008149 0.472620
vt 0.011678 0.468450
vt 0.739112 0.037157
vt 0.736984 0.250208
vt 0.738091 0.037156
vt 0.736045 0.250124
vt 0.737071 0.037156
vt 0.736088 0.251937
vt 0.625647 0.250135
vt 0.736050 0.037156
vt 0.006612 0.526319
vt 0.004217 0.959956
vt 0.004489 0.525632
vt 0.006313 0.959819
vt 0.006693 0.964063
vt 0.005581 0.030185
vt 0.008053 0.026086
vt 0.007673 0.030322
vt 0.009726 0.030456
vt 0.008371 0.959685
vt 0.009976 0.024014
vt 0.009837 0.026583
vt 0.008481 0.963567
vt 0.008619 0.966142
vt 0.010191 0.963608
vt 0.011544 0.026544
vt 0.011339 0.023169
vt 0.012194 0.967574
vt 0.012330 0.963529
vt 0.013543 0.022595
vt 0.013676 0.026626
vt 0.011739 0.030555
vt 0.013748 0.030557
vt 0.010389 0.959587
vt 0.012403 0.959585
vt 0.012385 0.527434
vt 0.010478 0.527261
vt 0.012295 0.523755
vt 0.010404 0.523615
vt 0.012102 0.520099
vt 0.009796 0.517859
vt 0.008944 0.513622
vt 0.006754 0.516576
vt 0.009191 0.521274
vt 0.008354 0.519660
vt 0.007421 0.522444
vt 0.005224 0.520801
vt 0.008921 0.523398
vt 0.010291 0.520754
vt 0.008582 0.526890
vt 0.625647 0.252104
vt 0.625647 0.254072
vt 0.740618 0.983242
vt 0.738121 0.984653
vt 0.742804 0.980299
vt 0.625647 0.253928
vt 0.515306 0.253928
vt 0.742141 0.974442
vt 0.744334 0.976084
vt 0.625647 0.255885
vt 0.745070 0.971259
vt 0.740981 0.970003
vt 0.740374 0.975608
vt 0.740643 0.973489
vt 0.739276 0.976127
vt 0.741209 0.977219
vt 0.241141 0.466444
vt 0.510127 0.534717
vt 0.239544 0.023069
vt 0.240297 0.963863
vt 0.739555 0.531588
vt 0.625648 0.258009
vt 0.009984 0.966992
s 0
usemtl multitexture
f 2/1/1 3/2/2 1/3/3
f 1/3/4 7/4/5 2/1/6
f 4/5/7 3/2/8 49/6/9
f 5/7/10 4/5/11 8/8/12
f 6/9/13 7/4/14 5/7/15
f 10/10/16 5/7/17 8/8/12
f 9/11/18 10/10/19 8/8/20
f 152/12/21 8/8/22 4/5/23
f 11/13/24 12/14/25 10/10/26
f 12/14/27 6/9/28 10/10/29
f 12/14/30 141/15/31 13/16/32
f 13/16/33 15/17/34 12/14/35
f 15/17/36 25/18/37 6/9/38
f 19/19/39 15/17/40 17/20/41
f 18/21/42 19/19/43 17/20/44
f 13/16/45 18/21/46 17/20/44
f 82/22/47 19/23/48 20/24/49
f 20/24/50 19/23/43 18/25/42
f 19/19/51 22/26/52 16/27/53
f 21/28/54 22/29/52 19/23/51
f 25/18/55 22/26/56 23/30/57
f 26/31/58 22/29/59 21/28/60
f 25/18/61 24/32/62 7/4/63
f 24/33/64 26/31/65 28/34/66
f 28/34/67 27/35/68 29/36/69
f 26/31/70 82/22/71 27/35/72
f 30/37/73 29/36/74 31/38/75
f 33/39/76 28/34/77 30/37/78
f 115/40/79 30/37/80 31/38/81
f 32/41/82 33/39/83 30/37/84
f 33/42/85 35/43/86 2/1/87
f 2/1/88 24/32/89 33/42/90
f 35/43/91 36/44/92 37/45/93
f 32/41/94 36/46/95 34/47/96
f 40/48/97 36/49/98 38/50/99
f 40/48/100 39/51/101 41/52/102
f 39/53/103 32/41/104 115/40/105
f 42/54/106 41/52/107 43/55/108
f 44/56/109 40/48/110 42/54/111
f 45/57/112 43/55/113 46/58/114
f 48/59/115 42/54/116 45/57/117
f 124/60/118 45/57/119 46/58/120
f 47/61/121 48/59/122 45/57/123
f 48/62/124 51/63/125 49/6/126
f 49/6/127 44/64/128 48/62/129
f 51/63/130 52/65/131 53/66/132
f 47/61/133 52/67/134 50/68/135
f 53/66/136 52/65/137 55/69/138
f 55/70/138 52/67/137 54/71/139
f 58/72/140 55/70/141 56/73/142
f 55/70/143 125/74/144 56/73/145
f 151/75/146 55/69/147 57/76/148
f 57/76/149 55/69/141 58/77/140
f 58/77/150 147/78/151 57/76/152
f 59/79/153 56/73/154 127/80/155
f 59/81/156 61/82/157 58/83/140
f 58/83/140 61/82/157 60/84/158
f 61/85/159 129/86/160 62/87/161
f 62/87/162 64/88/163 61/85/157
f 61/85/157 64/88/163 63/89/164
f 63/90/165 60/84/166 61/82/157
f 64/88/167 145/91/168 63/89/169
f 139/92/170 64/88/171 62/87/172
f 64/88/173 67/93/174 65/94/175
f 66/95/176 67/93/177 64/88/178
f 70/96/179 67/93/180 68/97/181
f 68/97/181 67/93/174 69/98/182
f 65/94/175 67/93/183 70/96/184
f 69/98/185 67/93/183 66/95/176
f 73/99/186 70/96/187 71/100/188
f 70/96/189 94/101/190 71/100/191
f 145/91/192 70/96/193 72/102/194
f 72/102/195 70/96/187 73/99/186
f 73/103/196 140/104/197 72/105/198
f 71/100/199 75/106/200 73/99/186
f 74/107/201 73/103/186 18/108/42
f 18/108/42 73/103/186 75/109/202
f 76/110/203 77/111/204 75/112/205
f 18/25/206 77/111/207 20/24/50
f 78/113/208 79/114/209 77/111/210
f 20/24/211 79/114/212 82/22/213
f 79/114/214 84/115/215 81/116/216
f 82/22/217 81/116/218 27/35/219
f 81/116/220 85/117/221 83/118/222
f 27/35/223 83/118/224 29/36/225
f 84/115/226 87/119/227 85/117/228
f 84/115/229 88/120/230 86/121/231
f 87/119/232 89/122/233 91/123/234
f 89/122/235 88/120/236 92/124/237
f 91/123/238 90/125/239 99/126/240
f 89/122/241 93/127/242 90/125/243
f 93/127/244 78/113/245 76/110/246
f 78/113/247 88/120/248 80/128/249
f 94/101/250 76/129/251 71/100/252
f 95/130/253 93/131/254 94/101/255
f 94/101/256 69/98/257 95/130/258
f 96/132/259 90/133/260 95/130/261
f 95/130/262 69/98/263 96/132/264
f 96/132/264 69/98/263 97/134/265
f 97/134/266 98/135/267 96/132/264
f 100/108/268 96/132/264 98/135/269
f 99/136/270 96/132/264 100/108/268
f 136/137/271 100/138/272 98/139/269
f 101/140/273 103/141/274 100/138/268
f 100/142/268 103/143/274 102/144/275
f 102/144/276 99/126/277 100/142/268
f 103/143/278 114/145/279 102/144/280
f 137/146/281 103/141/282 101/140/283
f 103/143/284 106/147/285 104/148/286
f 105/149/287 106/150/288 103/141/284
f 108/151/289 106/150/290 105/149/291
f 110/152/292 106/147/293 107/153/294
f 109/154/295 108/151/296 116/155/297
f 110/152/298 109/156/299 111/157/300
f 112/158/301 111/157/302 113/159/303
f 114/145/304 110/152/305 112/158/306
f 113/159/307 85/117/308 112/158/309
f 112/158/310 87/119/311 114/145/312
f 114/145/313 91/123/314 102/144/315
f 31/38/316 111/157/317 115/40/318
f 83/118/319 31/38/320 29/36/225
f 115/40/321 109/156/322 39/53/323
f 39/51/324 116/155/325 41/52/326
f 116/155/327 118/160/328 117/161/329
f 43/55/330 116/155/331 117/161/332
f 119/162/333 118/160/334 120/163/335
f 43/55/336 119/162/337 46/58/114
f 120/163/338 121/164/339 119/162/340
f 121/164/341 46/58/342 119/162/343
f 122/165/344 123/166/345 121/164/346
f 123/166/347 124/60/348 121/164/349
f 125/74/350 47/61/351 124/60/352
f 127/80/353 125/74/354 123/166/355
f 123/166/356 128/167/357 127/80/358
f 127/80/359 129/168/360 59/79/361
f 128/167/362 132/169/363 129/168/364
f 128/167/365 133/170/366 130/171/367
f 132/169/368 131/172/369 138/173/370
f 131/172/371 133/170/372 134/174/373
f 122/165/374 133/170/375 126/175/376
f 131/172/377 135/176/378 136/137/379
f 135/176/380 122/165/381 120/163/382
f 135/176/383 101/140/384 136/137/385
f 120/163/386 137/146/387 135/176/388
f 108/151/389 137/146/390 118/160/391
f 138/173/392 136/137/393 98/139/394
f 139/92/395 138/177/396 97/134/397
f 62/87/398 132/178/399 139/92/400
f 69/98/401 139/92/402 97/134/403
f 13/16/404 140/179/405 74/180/406
f 141/15/407 142/181/408 140/179/409
f 72/105/410 142/182/411 145/183/412
f 142/181/413 146/184/414 144/185/415
f 145/183/416 144/186/417 63/90/418
f 144/185/419 147/78/420 60/187/421
f 146/184/422 149/188/423 147/78/424
f 146/184/425 150/189/426 148/190/427
f 149/188/428 11/13/429 9/11/430
f 11/13/431 150/189/432 14/191/433
f 141/15/434 150/189/435 143/192/436
f 57/76/437 149/188/438 151/75/439
f 151/75/440 9/11/441 152/12/442
f 51/63/443 151/75/444 152/12/445
f 49/6/446 152/12/447 4/5/448
f 35/43/449 44/64/450 3/2/451
f 2/1/452 35/43/453 3/2/454
f 1/3/455 5/7/456 7/4/457
f 4/5/458 1/3/459 3/2/460
f 5/7/461 1/3/459 4/5/462
f 6/9/463 25/18/464 7/4/465
f 10/10/466 6/9/467 5/7/468
f 9/11/469 11/13/470 10/10/471
f 152/12/472 9/11/473 8/8/474
f 11/13/475 14/191/476 12/14/477
f 12/14/478 15/17/479 6/9/480
f 12/14/481 14/191/482 141/15/483
f 13/16/484 17/20/485 15/17/486
f 15/17/487 16/27/488 25/18/489
f 19/19/490 16/27/491 15/17/492
f 13/16/493 74/180/201 18/21/494
f 82/22/495 21/28/496 19/23/497
f 25/18/498 16/27/499 22/26/500
f 26/31/501 23/193/502 22/29/503
f 25/18/504 23/30/505 24/32/506
f 24/33/507 23/193/508 26/31/509
f 28/34/510 26/31/511 27/35/512
f 26/31/513 21/28/514 82/22/515
f 30/37/516 28/34/517 29/36/518
f 33/39/519 24/33/520 28/34/521
f 115/40/522 32/41/523 30/37/524
f 32/41/525 34/47/526 33/39/527
f 33/42/528 34/194/529 35/43/530
f 2/1/531 7/4/532 24/32/533
f 35/43/534 34/194/535 36/44/536
f 32/41/537 38/195/538 36/46/539
f 40/48/540 37/196/541 36/49/542
f 40/48/543 38/50/544 39/51/545
f 39/53/546 38/195/547 32/41/548
f 42/54/549 40/48/550 41/52/551
f 44/56/552 37/196/553 40/48/554
f 45/57/555 42/54/556 43/55/557
f 48/59/558 44/56/559 42/54/560
f 124/60/561 47/61/562 45/57/563
f 47/61/564 50/68/565 48/59/566
f 48/62/567 50/197/568 51/63/569
f 49/6/570 3/2/571 44/64/572
f 51/63/573 50/197/574 52/65/575
f 47/61/576 54/71/577 52/67/578
f 55/70/579 54/71/580 125/74/581
f 151/75/582 53/66/583 55/69/584
f 58/77/585 60/187/158 147/78/586
f 59/79/587 58/72/140 56/73/588
f 61/85/589 59/198/156 129/86/590
f 63/90/591 144/186/592 60/84/593
f 64/88/594 65/94/595 145/91/596
f 139/92/597 66/95/598 64/88/599
f 70/96/600 68/97/601 94/101/602
f 145/91/603 65/94/604 70/96/605
f 73/103/606 74/107/201 140/104/607
f 71/100/608 76/129/609 75/106/610
f 76/110/611 78/113/612 77/111/613
f 18/25/614 75/112/202 77/111/615
f 78/113/616 80/128/617 79/114/618
f 20/24/619 77/111/620 79/114/621
f 79/114/622 80/128/623 84/115/624
f 82/22/625 79/114/626 81/116/627
f 81/116/628 84/115/629 85/117/630
f 27/35/631 81/116/632 83/118/633
f 84/115/634 86/121/635 87/119/636
f 84/115/637 80/128/638 88/120/639
f 87/119/640 86/121/641 89/122/642
f 89/122/643 86/121/644 88/120/645
f 91/123/646 89/122/647 90/125/648
f 89/122/649 92/124/650 93/127/651
f 93/127/652 92/124/653 78/113/654
f 78/113/655 92/124/656 88/120/657
f 94/101/658 93/131/659 76/129/660
f 95/130/661 90/133/662 93/131/663
f 94/101/664 68/97/665 69/98/666
f 96/132/667 99/136/270 90/133/668
f 97/134/669 138/177/670 98/135/671
f 136/137/672 101/140/273 100/138/673
f 102/144/674 91/123/675 99/126/676
f 103/143/677 104/148/678 114/145/679
f 137/146/680 105/149/681 103/141/682
f 108/151/683 107/199/684 106/150/685
f 110/152/686 104/148/687 106/147/688
f 109/154/689 107/199/690 108/151/691
f 110/152/692 107/153/693 109/156/694
f 112/158/695 110/152/696 111/157/697
f 114/145/698 104/148/699 110/152/700
f 113/159/701 83/118/702 85/117/703
f 112/158/704 85/117/705 87/119/706
f 114/145/707 87/119/708 91/123/709
f 31/38/710 113/159/711 111/157/712
f 83/118/713 113/159/711 31/38/714
f 115/40/715 111/157/716 109/156/717
f 39/51/718 109/154/719 116/155/720
f 116/155/721 108/151/722 118/160/723
f 43/55/724 41/52/725 116/155/726
f 119/162/727 117/161/332 118/160/728
f 43/55/729 117/161/332 119/162/730
f 120/163/731 122/165/732 121/164/733
f 121/164/734 124/60/735 46/58/736
f 122/165/737 126/175/738 123/166/739
f 123/166/740 125/74/741 124/60/742
f 125/74/743 54/71/744 47/61/745
f 127/80/746 56/73/747 125/74/748
f 123/166/749 126/175/750 128/167/751
f 127/80/752 128/167/753 129/168/754
f 128/167/755 130/171/756 132/169/757
f 128/167/758 126/175/759 133/170/760
f 132/169/761 130/171/762 131/172/763
f 131/172/764 130/171/765 133/170/766
f 122/165/767 134/174/768 133/170/769
f 131/172/770 134/174/771 135/176/772
f 135/176/773 134/174/774 122/165/775
f 135/176/776 137/146/777 101/140/778
f 120/163/779 118/160/780 137/146/781
f 108/151/782 105/149/783 137/146/784
f 138/173/785 131/172/786 136/137/787
f 139/92/788 132/178/789 138/177/790
f 62/87/791 129/86/792 132/178/793
f 69/98/794 66/95/795 139/92/796
f 13/16/797 141/15/798 140/179/799
f 141/15/800 143/192/801 142/181/802
f 72/105/803 140/104/804 142/182/805
f 142/181/806 143/192/807 146/184/808
f 145/183/809 142/182/810 144/186/811
f 144/185/812 146/184/813 147/78/814
f 146/184/815 148/190/816 149/188/817
f 146/184/818 143/192/819 150/189/820
f 149/188/821 148/190/822 11/13/823
f 11/13/824 148/190/825 150/189/826
f 141/15/827 14/191/828 150/189/829
f 57/76/830 147/78/831 149/188/832
f 151/75/833 149/188/834 9/11/835
f 51/63/836 53/66/837 151/75/838
f 49/6/839 51/63/840 152/12/841
f 35/43/842 37/45/843 44/64/844
