# Blender 5.0.1
# www.blender.org

mtllib material.mtl
o edge_UR
v 0.137231 0.137076 0.100163
v 0.137231 0.295334 0.100163
v 0.295489 0.295334 0.100163
v 0.295489 0.137076 0.100163
v 0.126013 0.125858 0.097932
v 0.127874 0.122702 0.097304
v 0.122857 0.127719 0.097304
v 0.125954 0.123084 0.097304
v 0.124326 0.124171 0.097304
v 0.123238 0.125799 0.097304
v 0.111050 0.113592 0.089162
v 0.110671 0.115499 0.089162
v 0.102903 0.105413 0.076976
v 0.112130 0.111976 0.089162
v 0.103970 0.103816 0.076976
v 0.113747 0.110896 0.089162
v 0.105568 0.102749 0.076976
v 0.115654 0.110516 0.089162
v 0.107452 0.102374 0.076976
v 0.295489 0.110516 0.089162
v 0.295489 0.102374 0.076976
v 0.297214 0.110764 0.088914
v 0.295489 0.122702 0.097304
v 0.297214 0.122836 0.096981
v 0.298676 0.123217 0.096060
v 0.297214 0.137110 0.099820
v 0.298676 0.137206 0.098843
v 0.297214 0.295334 0.099820
v 0.297257 0.297102 0.099406
v 0.298676 0.295334 0.098843
v 0.299653 0.295334 0.097381
v 0.298447 0.297012 0.098614
v 0.299239 0.297102 0.097424
v 0.298091 0.297936 0.098258
v 0.298447 0.298292 0.097334
v 0.297167 0.298292 0.098614
v 0.295489 0.298521 0.098843
v 0.297257 0.299084 0.097424
v 0.297214 0.299498 0.095656
v 0.295489 0.299498 0.097381
v 0.295489 0.299841 0.095656
v 0.137505 0.299498 0.097381
v 0.137361 0.298521 0.098843
v 0.137675 0.299841 0.095656
v 0.123942 0.299498 0.094683
v 0.123372 0.298521 0.096061
v 0.124615 0.299841 0.093058
v 0.112677 0.299498 0.087156
v 0.111623 0.298521 0.088210
v 0.113920 0.299841 0.085912
v 0.105150 0.299498 0.075891
v 0.103772 0.298521 0.076461
v 0.106774 0.299841 0.075218
v 0.102452 0.299498 0.062328
v 0.100990 0.298521 0.062472
v 0.104177 0.299841 0.062158
v 0.102452 0.299498 -0.062328
v 0.100989 0.298521 -0.062472
v 0.104177 0.299841 -0.062158
v 0.105149 0.299498 -0.075890
v 0.103772 0.298521 -0.076461
v 0.112677 0.299498 -0.087156
v 0.106774 0.299841 -0.075217
v 0.113920 0.299841 -0.085912
v 0.124615 0.299841 -0.093058
v 0.123942 0.299498 -0.094683
v 0.137674 0.299841 -0.095656
v 0.137505 0.299498 -0.097381
v 0.295489 0.299841 -0.095656
v 0.295489 0.299498 -0.097381
v 0.297213 0.299498 -0.095656
v 0.297257 0.299084 -0.097424
v 0.298676 0.298521 -0.095656
v 0.299653 0.297059 -0.095656
v 0.298446 0.298292 -0.097334
v 0.298676 0.298521 0.095656
v 0.299653 0.297059 0.095656
v 0.299996 0.295334 0.095656
v 0.299996 0.137520 0.095656
v 0.299996 0.295334 -0.095656
v 0.299653 0.295334 -0.097381
v 0.299996 0.137520 -0.095656
v 0.299653 0.137350 -0.097381
v 0.299996 0.124461 -0.093058
v 0.299653 0.123788 -0.094683
v 0.299996 0.113766 -0.085912
v 0.299653 0.112522 -0.087156
v 0.299996 0.106620 -0.075218
v 0.299653 0.104995 -0.075891
v 0.299996 0.104022 -0.062158
v 0.299653 0.102297 -0.062328
v 0.299996 0.104022 0.062158
v 0.299653 0.102297 0.062328
v 0.299996 0.106620 0.075217
v 0.299653 0.104995 0.075890
v 0.299996 0.113766 0.085912
v 0.299653 0.112522 0.087156
v 0.299996 0.124461 0.093058
v 0.299653 0.123788 0.094683
v 0.299653 0.137350 0.097381
v 0.298676 0.111468 0.088210
v 0.298676 0.103618 0.076461
v 0.297214 0.102697 0.076842
v 0.298676 0.100835 0.062472
v 0.297214 0.099858 0.062568
v 0.298676 0.100835 -0.062472
v 0.297213 0.099858 -0.062568
v 0.298676 0.103617 -0.076461
v 0.297213 0.102697 -0.076842
v 0.298676 0.111468 -0.088210
v 0.297213 0.110764 -0.088915
v 0.298676 0.123217 -0.096061
v 0.297213 0.122836 -0.096981
v 0.298676 0.137206 -0.098843
v 0.297213 0.137110 -0.099820
v 0.298676 0.295334 -0.098843
v 0.298446 0.297012 -0.098614
v 0.297213 0.295334 -0.099820
v 0.295489 0.295334 -0.100163
v 0.297257 0.297102 -0.099406
v 0.295489 0.297059 -0.099820
v 0.297167 0.298292 -0.098614
v 0.298091 0.297936 -0.098258
v 0.295489 0.298521 -0.098843
v 0.137361 0.298521 -0.098843
v 0.137264 0.297059 -0.099820
v 0.123372 0.298521 -0.096060
v 0.122990 0.297059 -0.096981
v 0.111622 0.298521 -0.088210
v 0.110918 0.297059 -0.088914
v 0.110671 0.295334 -0.089162
v 0.102852 0.297059 -0.076842
v 0.102528 0.295334 -0.076976
v 0.100012 0.297059 -0.062568
v 0.099669 0.295334 -0.062602
v 0.100012 0.297059 0.062568
v 0.099669 0.295334 0.062602
v 0.102852 0.297059 0.076842
v 0.102529 0.295334 0.076976
v 0.110918 0.297059 0.088915
v 0.110671 0.295334 0.089162
v 0.122990 0.297059 0.096981
v 0.122857 0.295334 0.097304
v 0.137264 0.297059 0.099820
v 0.295489 0.297059 0.099820
v 0.102529 0.107297 0.076976
v 0.099669 0.104396 0.062602
v 0.100041 0.102528 0.062602
v 0.099669 0.104396 -0.062602
v 0.100041 0.102528 -0.062602
v 0.102528 0.107297 -0.076976
v 0.102903 0.105413 -0.076976
v 0.110671 0.115499 -0.089162
v 0.111050 0.113592 -0.089162
v 0.122856 0.127719 -0.097304
v 0.123238 0.125799 -0.097304
v 0.126013 0.125858 -0.097932
v 0.122856 0.295334 -0.097304
v 0.137230 0.295334 -0.100163
v 0.137230 0.137076 -0.100163
v 0.295489 0.137076 -0.100163
v 0.295489 0.122702 -0.097304
v 0.295489 0.110516 -0.089162
v 0.127873 0.122702 -0.097304
v 0.125954 0.123084 -0.097304
v 0.115654 0.110516 -0.089162
v 0.113747 0.110895 -0.089162
v 0.107451 0.102374 -0.076976
v 0.105567 0.102749 -0.076976
v 0.104550 0.099515 -0.062602
v 0.295489 0.102374 -0.076976
v 0.295489 0.099515 -0.062602
v 0.295489 0.099515 0.062602
v 0.104550 0.099515 0.062602
v 0.102683 0.099886 0.062602
v 0.101099 0.100944 0.062602
v 0.102682 0.099886 -0.062602
v 0.101099 0.100944 -0.062602
v 0.103970 0.103816 -0.076976
v 0.112130 0.111976 -0.089162
v 0.124326 0.124171 -0.097304
v 0.299239 0.297102 -0.097424
vn -0.3640 0.0948 0.9266
vn -0.1392 -0.1264 0.9822
vn -0.0153 -0.0062 0.9999
vn -0.0313 0.0039 0.9995
vn -0.0158 -0.0158 0.9997
vn 0.0022 0.0022 1.0000
vn 0.0039 -0.0313 0.9995
vn -0.0219 -0.0165 0.9996
vn -0.0807 -0.3714 0.9250
vn 0.0970 -0.3628 0.9268
vn -0.0006 -0.3880 0.9217
vn -0.0986 -0.0986 0.9902
vn -0.1686 -0.4071 0.8977
vn -0.4071 -0.1686 0.8977
vn -0.3880 -0.0006 0.9217
vn -0.2947 -0.2947 0.9090
vn -0.4719 -0.4006 0.7854
vn -0.2978 -0.2986 0.9067
vn -0.4071 -0.1687 0.8977
vn -0.6494 -0.2801 0.7069
vn -0.4105 -0.1729 0.8953
vn -0.3881 -0.0007 0.9216
vn -0.8936 -0.2805 0.3503
vn -0.5618 -0.2456 0.7899
vn -0.7103 -0.0015 0.7039
vn -0.7125 -0.5455 0.4413
vn -0.4048 -0.4187 0.8129
vn -0.5605 -0.2322 0.7950
vn -0.3217 -0.8131 0.4851
vn -0.2332 -0.5163 0.8240
vn -0.6092 -0.6093 0.5076
vn -0.2217 -0.5611 0.7975
vn -0.2486 -0.2797 0.9273
vn -0.4073 -0.4074 0.8174
vn 0.0135 -0.9212 0.3889
vn 0.0298 -0.6237 0.7811
vn -0.3361 -0.8116 0.4779
vn 0.0111 -0.7070 0.7071
vn -0.0865 -0.3868 0.9181
vn -0.2321 -0.5604 0.7950
vn -0.1311 -0.7394 0.6604
vn -0.0088 -0.9249 0.3802
vn 0.0019 -0.7111 0.7031
vn -0.1432 -0.4425 0.8853
vn -0.0097 -0.7109 0.7033
vn 0.0020 -0.3875 0.9219
vn 0.3980 -0.8430 0.3620
vn 0.1655 -0.6410 0.7495
vn 0.0019 -0.9250 0.3800
vn 0.3977 -0.6401 0.6573
vn 0.1660 -0.3050 0.9378
vn 0.0020 -0.7110 0.7031
vn 0.3979 -0.3395 0.8523
vn 0.1492 0.0552 0.9873
vn 0.0020 -0.3874 0.9219
vn 0.5092 -0.6670 0.5439
vn 0.7189 -0.2771 0.6375
vn 0.3876 -0.3525 0.8518
vn 0.7188 -0.2536 0.6473
vn 0.5022 0.0789 0.8611
vn 0.3831 -0.0137 0.9236
vn 0.1915 -0.1930 0.9623
vn 0.0040 -0.0313 0.9995
vn 0.7074 -0.0100 0.7067
vn 0.5449 -0.1947 0.8156
vn 0.3831 -0.0152 0.9236
vn 0.3831 0.0016 0.9237
vn 0.3453 0.3453 0.8726
vn 0.7355 0.0692 0.6740
vn 0.4009 0.4022 0.8231
vn 0.3786 -0.0026 0.9256
vn 0.9239 -0.0046 0.3825
vn 0.8155 -0.1951 0.5449
vn 0.7074 -0.0114 0.7067
vn 0.8231 0.4022 0.4009
vn 0.6739 0.0692 0.7356
vn 0.9257 -0.0021 0.3783
vn 0.8623 0.3972 0.3142
vn 0.5976 0.6088 0.5218
vn 0.6848 0.2501 0.6844
vn 0.6914 0.2762 0.6676
vn 0.5773 0.5773 0.5774
vn 0.3454 0.3454 0.8726
vn 0.3142 0.8623 0.3972
vn 0.5218 0.5976 0.6088
vn 0.6920 0.6683 0.2728
vn 0.2761 0.6914 0.6676
vn 0.0692 0.6739 0.7356
vn 0.4022 0.8231 0.4008
vn -0.0021 0.9257 0.3783
vn 0.4022 0.4009 0.8231
vn 0.0692 0.7355 0.6740
vn -0.0026 0.3786 0.9255
vn 0.4009 0.8231 0.4022
vn 0.7356 0.6739 0.0688
vn 0.3782 0.9257 -0.0024
vn 0.0786 0.9004 0.4279
vn 0.4280 0.9004 0.0781
vn -0.0141 0.9998 -0.0144
vn -0.1951 0.9624 0.1892
vn 0.0014 1.0000 0.0017
vn -0.0060 0.9240 0.3824
vn -0.1951 0.8167 0.5431
vn -0.0046 0.9239 0.3825
vn -0.0114 0.7075 0.7067
vn 0.0882 0.7672 0.6353
vn -0.1294 0.9276 0.3504
vn -0.2681 0.7119 0.6491
vn 0.0910 0.9360 0.3401
vn 0.0159 0.9999 0.0041
vn -0.1448 0.9250 0.3514
vn -0.1570 0.7706 0.6177
vn -0.2544 0.9274 0.2742
vn -0.4968 0.7115 0.4969
vn -0.0475 0.9363 0.3480
vn 0.0134 0.9999 0.0101
vn -0.2691 0.9247 0.2691
vn -0.3823 0.7700 0.5108
vn -0.3397 0.9277 0.1551
vn -0.6491 0.7119 0.2682
vn -0.0101 0.9999 -0.0134
vn -0.3480 0.9363 0.0475
vn -0.2691 0.9248 0.2691
vn -0.3505 0.9276 0.1294
vn -0.6371 0.7660 -0.0856
vn -0.6491 0.7119 0.2681
vn -0.0041 0.9999 -0.0159
vn -0.3411 0.9358 -0.0895
vn -0.3514 0.9250 0.1448
vn -0.5426 0.8170 -0.1950
vn -0.3825 0.9239 -0.0057
vn -0.7066 0.7075 -0.0141
vn -0.1886 0.9625 -0.1951
vn -0.0013 1.0000 0.0018
vn -0.3825 0.9239 -0.0075
vn -0.6371 0.7660 0.0855
vn -0.3505 0.9276 -0.1294
vn -0.6491 0.7119 -0.2681
vn -0.3411 0.9357 0.0894
vn -0.0041 0.9999 0.0159
vn -0.3513 0.9250 -0.1448
vn -0.5100 0.7066 -0.4906
vn -0.4773 0.8736 -0.0947
vn -0.2692 0.9247 -0.2691
vn -0.3480 0.9363 -0.0475
vn -0.0101 0.9999 0.0134
vn -0.2691 0.9247 -0.2691
vn -0.0000 1.0000 -0.0005
vn -0.0014 1.0000 0.0003
vn 0.0009 1.0000 0.0014
vn -0.1601 0.9239 -0.3474
vn -0.1038 0.9940 0.0331
vn -0.0001 1.0000 -0.0003
vn -0.0216 0.9230 -0.3842
vn -0.1087 0.9940 -0.0093
vn -0.0000 1.0000 -0.0017
vn 0.0006 0.9238 -0.3828
vn 0.1935 0.9623 -0.1914
vn 0.0018 1.0000 -0.0016
vn 0.4280 0.9004 -0.0782
vn 0.0785 0.9004 -0.4280
vn -0.0141 0.9998 0.0144
vn 0.1896 0.9623 0.1950
vn 0.0019 1.0000 0.0003
vn 0.3826 0.9239 0.0017
vn 0.7356 0.6739 -0.0689
vn 0.4009 0.8231 -0.4022
vn 0.3782 0.9257 0.0024
vn 0.5434 0.8165 0.1950
vn 0.3827 0.9239 0.0005
vn 0.7071 0.7071 0.0015
vn 0.8231 0.4009 -0.4022
vn 0.6739 0.7356 -0.0689
vn 0.9257 0.3782 0.0024
vn 0.8145 0.5464 0.1951
vn 0.7071 0.7071 0.0003
vn 0.9239 0.3827 0.0017
vn 0.6739 0.7356 0.0689
vn 0.8231 0.4009 0.4022
vn 0.9257 0.3782 -0.0024
vn 0.9004 0.4280 0.0782
vn 0.9004 0.0785 0.4280
vn 0.9998 -0.0141 -0.0144
vn 0.9620 0.1931 0.1933
vn 0.9239 0.3826 0.0006
vn 1.0000 0.0019 0.0015
vn 1.0000 0.0014 0.0017
vn 0.9619 -0.1951 0.1913
vn 0.9240 -0.0061 0.3825
vn 1.0000 -0.0002 -0.0004
vn 1.0000 0.0023 0.0008
vn 1.0000 -0.0004 0.0003
vn 0.9004 0.0786 -0.4279
vn 0.9004 0.4280 -0.0781
vn 0.9998 -0.0141 0.0144
vn 0.9624 -0.1951 -0.1892
vn 1.0000 0.0014 -0.0017
vn 0.9240 -0.0060 -0.3825
vn 0.9360 0.0910 -0.3401
vn 0.9999 0.0159 -0.0041
vn 0.9250 -0.1448 -0.3514
vn 0.9237 -0.2595 -0.2818
vn 0.9940 0.0703 -0.0833
vn 1.0000 -0.0002 -0.0002
vn 0.9239 -0.3475 -0.1601
vn 0.9940 0.0330 -0.1038
vn 1.0000 -0.0003 -0.0001
vn 0.9230 -0.3841 -0.0231
vn 0.9940 -0.0093 -0.1087
vn 1.0000 -0.0013 -0.0000
vn 0.9239 -0.3826 0.0057
vn 0.9622 -0.1914 0.1938
vn 0.9357 -0.3412 -0.0894
vn 0.9999 -0.0042 -0.0159
vn 0.9250 -0.3514 0.1448
vn 0.9999 0.0085 0.0145
vn 0.9360 -0.1780 0.3037
vn 0.9250 -0.3513 0.1448
vn 0.9999 0.0134 0.0101
vn 0.9363 -0.0475 0.3480
vn 0.9248 -0.2691 0.2691
vn 0.9999 0.0159 0.0041
vn 0.9360 0.0910 0.3401
vn 0.9250 -0.1448 0.3514
vn 0.9276 -0.1294 0.3505
vn 0.7672 0.0882 0.6353
vn 0.7119 -0.2681 0.6491
vn 0.7700 -0.5109 0.3823
vn 0.9277 -0.1551 0.3397
vn 0.7119 -0.2682 0.6491
vn 0.7706 -0.6177 0.1570
vn 0.9274 -0.2742 0.2544
vn 0.7116 -0.4969 0.4968
vn 0.5096 -0.8242 0.2471
vn 0.7186 -0.5007 0.4827
vn 0.3874 -0.6519 0.6518
vn 0.4998 -0.8628 -0.0758
vn 0.7188 -0.6473 0.2537
vn 0.3876 -0.8518 0.3524
vn 0.7660 -0.6371 -0.0855
vn 0.9276 -0.3505 0.1294
vn 0.7119 -0.6491 0.2681
vn 0.5471 -0.8139 0.1955
vn 0.7075 -0.7066 0.0124
vn 0.3831 -0.9235 0.0188
vn 0.8170 -0.5426 0.1950
vn 0.9239 -0.3825 0.0057
vn 0.7075 -0.7066 0.0141
vn 0.3749 -0.9265 -0.0318
vn 0.5923 -0.7070 -0.3863
vn 0.7074 -0.7067 -0.0142
vn 0.7030 -0.7106 -0.0283
vn 0.8743 -0.4040 -0.2691
vn 0.9239 -0.3826 -0.0075
vn 0.5092 -0.5439 -0.6669
vn 0.7189 -0.6375 -0.2771
vn 0.3876 -0.8518 -0.3525
vn 0.7700 -0.3823 -0.5108
vn 0.9277 -0.3397 -0.1551
vn 0.7119 -0.6491 -0.2682
vn 0.3784 -0.6456 -0.6634
vn 0.5914 -0.2261 -0.7740
vn 0.7115 -0.4969 -0.4969
vn 0.7706 -0.1570 -0.6177
vn 0.9274 -0.2544 -0.2742
vn 0.7116 -0.4968 -0.4969
vn 0.5022 0.0789 -0.8611
vn 0.7188 -0.2537 -0.6473
vn 0.3876 -0.3525 -0.8518
vn 0.7672 0.0882 -0.6353
vn 0.9276 -0.1294 -0.3505
vn 0.7119 -0.2681 -0.6491
vn 0.5467 -0.1947 -0.8144
vn 0.7075 -0.0100 -0.7067
vn 0.3831 -0.0151 -0.9236
vn 0.8167 -0.1951 -0.5431
vn 0.9239 -0.0046 -0.3825
vn 0.7074 -0.0114 -0.7067
vn 0.6739 0.0692 -0.7356
vn 0.8231 0.4022 -0.4009
vn 0.9257 -0.0021 -0.3783
vn 0.4009 0.4022 -0.8231
vn 0.7355 0.0691 -0.6740
vn 0.3786 -0.0026 -0.9256
vn 0.3830 0.0016 -0.9237
vn 0.0022 0.0022 -1.0000
vn 0.3453 0.3453 -0.8726
vn 0.1935 -0.1929 -0.9619
vn 0.3831 -0.0138 -0.9236
vn 0.0039 -0.0313 -0.9995
vn 0.0692 0.7355 -0.6740
vn 0.4022 0.4009 -0.8231
vn -0.0026 0.3786 -0.9256
vn 0.0016 0.3830 -0.9237
vn 0.3454 0.3454 -0.8726
vn 0.2762 0.6914 -0.6676
vn 0.5773 0.5773 -0.5774
vn 0.6914 0.2762 -0.6676
vn 0.8623 0.3142 -0.3972
vn 0.5976 0.5218 -0.6088
vn 0.6683 0.6920 -0.2728
vn 0.3972 0.8623 -0.3142
vn 0.6088 0.5976 -0.5218
vn 0.2501 0.6848 -0.6845
vn 0.4022 0.8231 -0.4009
vn 0.0692 0.6739 -0.7356
vn -0.0020 0.9257 -0.3783
vn 0.0001 0.3831 -0.9237
vn 0.1959 0.5448 -0.8154
vn 0.0018 0.7070 -0.7072
vn 0.0004 0.7071 -0.7072
vn 0.1953 0.8154 -0.5449
vn 0.0021 0.9238 -0.3828
vn -0.0282 0.3747 -0.9267
vn -0.3862 0.5923 -0.7071
vn -0.0114 0.7074 -0.7067
vn -0.0255 0.7029 -0.7109
vn -0.2691 0.8743 -0.4040
vn -0.0061 0.9239 -0.3825
vn -0.6670 0.5092 -0.5439
vn -0.2771 0.7189 -0.6375
vn -0.3525 0.3876 -0.8517
vn -0.2827 0.7069 -0.6484
vn -0.4041 0.8737 -0.2708
vn -0.1449 0.9249 -0.3514
vn -0.6634 0.3784 -0.6456
vn -0.7740 0.5914 -0.2261
vn -0.4969 0.7115 -0.4969
vn -0.7195 -0.0089 -0.6945
vn -0.9298 0.2185 -0.2964
vn -0.6519 0.3873 -0.6519
vn -0.3985 -0.0089 -0.9171
vn -0.7453 0.2185 -0.6299
vn -0.3525 0.3876 -0.8518
vn -0.9855 0.1564 0.0655
vn -0.8523 0.3979 -0.3396
vn -0.9250 0.0019 -0.3799
vn -0.8628 0.4998 0.0758
vn -0.6473 0.7188 -0.2537
vn -0.8518 0.3876 -0.3525
vn -0.9616 0.1941 -0.1943
vn -0.9235 0.3832 -0.0170
vn -0.9998 0.0018 -0.0203
vn -0.9236 0.3829 -0.0170
vn -0.8153 0.5448 -0.1961
vn -0.7067 0.7074 -0.0142
vn -0.8523 0.3979 0.3395
vn -0.9855 0.1564 -0.0655
vn -0.9250 0.0019 0.3799
vn -0.6473 0.7188 0.2536
vn -0.8628 0.4998 -0.0758
vn -0.8518 0.3876 0.3525
vn -0.6573 0.3977 0.6401
vn -0.9388 0.1725 0.2983
vn -0.7111 0.0020 0.7031
vn -0.5007 0.7185 0.4827
vn -0.8241 0.5096 0.2471
vn -0.6519 0.3874 0.6519
vn -0.3620 0.3980 0.8430
vn -0.7542 0.1747 0.6330
vn -0.3874 0.0021 0.9219
vn -0.2471 0.5096 0.8242
vn -0.4827 0.7185 0.5007
vn 0.0552 0.1493 0.9873
vn -0.3396 0.3979 0.8523
vn 0.0789 0.5022 0.8611
vn -0.2537 0.7188 0.6473
vn -0.3524 0.3876 0.8518
vn -0.1929 0.1935 0.9619
vn -0.0138 0.3831 0.9236
vn -0.1947 0.5467 0.8144
vn -0.0100 0.7074 0.7067
vn -0.0151 0.3831 0.9236
vn 0.0016 0.3830 0.9237
vn -0.7109 -0.0097 0.7033
vn -0.4425 -0.1431 0.8853
vn -0.3875 0.0020 0.9219
vn -0.9249 -0.0089 0.3802
vn -0.7394 -0.1312 0.6604
vn -0.7111 0.0019 0.7031
vn -0.9998 -0.0073 0.0205
vn -0.9313 -0.1090 0.3475
vn -0.9250 0.0018 0.3799
vn -0.9781 -0.2011 -0.0544
vn -0.8109 -0.3521 0.4673
vn -0.9247 -0.0018 0.3806
vn -0.9921 -0.0407 -0.1188
vn -0.9235 -0.3828 0.0251
vn -0.9998 -0.0020 0.0204
vn -0.9998 -0.0058 -0.0196
vn -0.9998 -0.0088 0.0185
vn -0.9998 0.0018 0.0203
vn -0.9994 0.0114 -0.0332
vn -0.8537 -0.0803 -0.5145
vn -0.9236 -0.3825 -0.0270
vn -0.9313 -0.1089 -0.3475
vn -0.9998 -0.0073 -0.0205
vn -0.9250 0.0018 -0.3799
vn -0.9212 0.0135 -0.3889
vn -0.6237 0.0298 -0.7811
vn -0.8116 -0.3361 -0.4779
vn -0.7394 -0.1311 -0.6604
vn -0.9249 -0.0088 -0.3802
vn -0.7111 0.0019 -0.7031
vn -0.7070 0.0111 -0.7071
vn -0.3868 -0.0865 -0.9181
vn -0.5604 -0.2321 -0.7950
vn -0.4425 -0.1432 -0.8853
vn -0.7109 -0.0097 -0.7033
vn -0.3875 0.0020 -0.9219
vn -0.4071 -0.1686 -0.8977
vn -0.3880 -0.0006 -0.9217
vn -0.0987 -0.0986 -0.9902
vn -0.0165 -0.0219 -0.9996
vn -0.3714 -0.0807 -0.9250
vn -0.3628 0.0970 -0.9268
vn -0.0435 -0.0057 -0.9990
vn -0.4474 0.2190 -0.8671
vn -0.0152 0.3830 -0.9236
vn 0.0007 0.0021 -1.0000
vn 0.1960 0.1913 -0.9618
vn 0.0016 0.3830 -0.9238
vn -0.0313 0.0039 -0.9995
vn 0.0021 0.0021 -1.0000
vn -0.0158 -0.0158 -0.9997
vn 0.0948 -0.3640 -0.9266
vn -0.1264 -0.1392 -0.9822
vn -0.0062 -0.0153 -0.9999
vn 0.1493 0.0552 -0.9873
vn 0.3979 -0.3396 -0.8523
vn 0.0021 -0.3874 -0.9219
vn 0.1660 -0.3050 -0.9378
vn 0.3977 -0.6402 -0.6573
vn 0.0020 -0.7110 -0.7031
vn -0.0097 -0.7109 -0.7033
vn -0.1432 -0.4425 -0.8853
vn 0.0020 -0.3875 -0.9219
vn -0.0007 -0.3880 -0.9217
vn -0.1686 -0.4070 -0.8977
vn -0.0986 -0.0986 -0.9902
vn -0.0865 -0.3868 -0.9181
vn 0.0111 -0.7070 -0.7071
vn -0.2321 -0.5605 -0.7950
vn 0.0298 -0.6237 -0.7811
vn 0.0135 -0.9212 -0.3889
vn -0.3361 -0.8116 -0.4779
vn -0.0089 -0.9249 -0.3802
vn -0.1312 -0.7394 -0.6604
vn 0.0019 -0.7111 -0.7031
vn -0.0804 -0.8537 -0.5145
vn 0.0114 -0.9994 -0.0332
vn -0.3825 -0.9235 -0.0270
vn -0.0073 -0.9998 -0.0205
vn -0.1090 -0.9313 -0.3475
vn 0.0018 -0.9250 -0.3799
vn -0.0084 -0.9994 -0.0325
vn 0.2190 -0.8671 -0.4474
vn 0.3830 -0.9236 -0.0188
vn -0.0094 -0.9203 -0.3910
vn 0.2185 -0.6299 -0.7453
vn 0.3875 -0.8518 -0.3525
vn 0.1941 -0.9616 0.1943
vn 0.3832 -0.9235 0.0170
vn 0.0018 -0.9998 0.0203
vn -0.0058 -0.9998 0.0196
vn -0.0088 -0.9998 -0.0185
vn 0.0018 -0.9998 -0.0203
vn 0.1564 -0.9855 -0.0655
vn 0.3979 -0.8523 0.3396
vn 0.0019 -0.9250 0.3799
vn -0.1089 -0.9313 0.3475
vn -0.0073 -0.9998 0.0205
vn 0.0018 -0.9250 0.3799
vn 0.0114 -0.9994 0.0332
vn -0.0803 -0.8537 0.5145
vn -0.3825 -0.9236 0.0270
vn -0.3388 -0.9323 -0.1270
vn -0.0018 -0.9998 0.0185
vn -0.3825 -0.9236 0.0269
vn -0.3687 -0.9287 0.0392
vn -0.4014 -0.7353 0.5461
vn -0.7068 -0.7068 0.0292
vn -0.6683 -0.7325 -0.1294
vn -0.3824 -0.9237 0.0251
vn -0.4014 -0.7353 -0.5461
vn -0.3688 -0.9287 -0.0391
vn -0.7068 -0.7068 -0.0292
vn -0.9287 -0.3688 -0.0392
vn -0.7353 -0.4014 -0.5461
vn -0.8988 -0.4196 -0.1270
vn -0.7067 -0.7070 0.0273
vn -0.9235 -0.3826 0.0269
vn -0.8131 -0.3217 -0.4851
vn -0.5163 -0.2332 -0.8240
vn -0.6093 -0.6092 -0.5076
vn -0.2332 -0.5163 -0.8240
vn -0.3217 -0.8131 -0.4851
vn -0.6092 -0.6092 -0.5076
vn -0.5611 -0.2217 -0.7975
vn -0.2797 -0.2486 -0.9273
vn -0.4074 -0.4073 -0.8174
vn -0.2486 -0.2797 -0.9273
vn -0.2217 -0.5611 -0.7975
vn -0.4073 -0.4074 -0.8174
vn -0.1686 -0.4071 -0.8977
vn -0.2947 -0.2947 -0.9090
vn -0.8172 -0.5750 -0.0397
vn -0.6032 -0.6233 0.4976
vn -0.8116 -0.3362 0.4778
vn -0.1021 -0.1552 0.9826
vn -0.0314 0.0039 0.9995
vn -0.3871 -0.0102 0.9220
vn -0.3604 0.1013 0.9273
vn -0.3880 -0.0007 0.9217
vn -0.0629 -0.0368 0.9973
vn -0.0102 -0.3871 0.9220
vn 0.0039 -0.0314 0.9995
vn -0.1552 -0.1021 0.9826
vn 0.1644 -0.1197 0.9791
vn 0.1170 -0.3511 0.9290
vn -0.5611 -0.2217 0.7975
vn -0.4074 -0.4073 0.8174
vn -0.2797 -0.2486 0.9273
vn -0.7070 0.0111 0.7071
vn -0.5604 -0.2321 0.7950
vn -0.3868 -0.0865 0.9181
vn -0.9212 0.0135 0.3889
vn -0.8116 -0.3361 0.4779
vn -0.6237 0.0298 0.7811
vn -0.8131 -0.3217 0.4851
vn -0.6093 -0.6092 0.5076
vn -0.5163 -0.2332 0.8240
vn -0.5454 -0.7126 0.4413
vn -0.2322 -0.5605 0.7950
vn -0.4187 -0.4048 0.8129
vn -0.4006 -0.4719 0.7854
vn -0.2986 -0.2978 0.9067
vn -0.2805 -0.8936 0.3503
vn -0.0015 -0.7103 0.7039
vn -0.2456 -0.5618 0.7899
vn -0.2802 -0.6494 0.7069
vn -0.0007 -0.3881 0.9216
vn -0.1729 -0.4105 0.8953
vn 0.0082 -0.7104 0.7037
vn -0.0018 -0.9247 0.3807
vn 0.0964 -0.9111 0.4009
vn 0.0094 -0.3883 0.9215
vn 0.0974 -0.6901 0.7172
vn 0.2185 -0.9298 0.2964
vn 0.3873 -0.6519 0.6519
vn -0.0089 -0.7195 0.6945
vn 0.2185 -0.7453 0.6299
vn 0.3875 -0.3525 0.8518
vn -0.0088 -0.3985 0.9171
vn 0.2190 -0.4474 0.8671
vn 0.3830 -0.0152 0.9236
vn -0.0057 -0.0435 0.9990
vn 0.3784 -0.6456 0.6634
vn 0.7115 -0.4969 0.4969
vn 0.5914 -0.2261 0.7741
vn 0.5924 -0.3862 0.7071
vn 0.3747 -0.0282 0.9267
vn 0.1913 0.1960 0.9618
vn 0.3830 0.0016 0.9237
vn 0.0022 0.0007 1.0000
vn 0.5448 0.1958 0.8154
vn 0.7070 0.0018 0.7072
vn 0.3831 0.0001 0.9237
vn 0.6413 -0.0557 0.7653
vn 0.6950 0.2806 0.6620
vn 0.3157 0.2459 0.9164
vn 0.8155 0.1953 0.5449
vn 0.9238 0.0021 0.3828
vn 0.7071 0.0004 0.7071
vn 0.9164 0.2459 0.3158
vn 0.6860 0.2807 0.6713
vn 0.7652 -0.0557 0.6414
vn 0.8623 0.3142 0.3972
vn 0.6683 0.6920 0.2729
vn 0.5976 0.5218 0.6088
vn 0.3971 0.8623 0.3142
vn 0.2501 0.6848 0.6845
vn 0.6088 0.5976 0.5218
vn -0.0557 0.7651 0.6414
vn 0.2807 0.6860 0.6713
vn 0.2459 0.9164 0.3158
vn 0.2459 0.3157 0.9164
vn 0.2806 0.6950 0.6620
vn -0.0557 0.6413 0.7653
vn 0.3157 0.9164 0.2459
vn 0.6784 0.6693 0.3031
vn 0.6412 0.7654 -0.0560
vn -0.0368 0.9513 0.3060
vn 0.3580 0.8624 0.3580
vn 0.3057 0.9514 -0.0372
vn 0.0007 0.9239 0.3827
vn 0.0018 1.0000 0.0015
vn 0.1934 0.9618 0.1935
vn 0.0004 0.7071 0.7072
vn 0.0021 0.9238 0.3828
vn 0.1953 0.8142 0.5467
vn -0.0255 0.7029 0.7109
vn -0.0061 0.9239 0.3825
vn -0.2691 0.8743 0.4040
vn -0.0216 0.9230 0.3842
vn -0.0000 1.0000 0.0017
vn -0.1087 0.9940 0.0093
vn -0.2827 0.7069 0.6484
vn -0.1449 0.9249 0.3514
vn -0.4041 0.8737 0.2708
vn -0.1602 0.9239 0.3474
vn -0.0001 1.0000 0.0003
vn -0.1038 0.9941 -0.0331
vn -0.5100 0.7066 0.4906
vn -0.2692 0.9247 0.2692
vn -0.4773 0.8736 0.0947
vn 0.0330 0.9940 0.1038
vn -0.0002 1.0000 0.0001
vn -0.3474 0.9239 0.1602
vn -0.4040 0.8743 0.2691
vn -0.3826 0.9239 0.0075
vn -0.7106 0.7030 0.0283
vn -0.0093 0.9940 0.1087
vn -0.0014 1.0000 -0.0000
vn -0.3841 0.9230 0.0231
vn -0.7067 0.7074 0.0123
vn -0.5472 0.8139 0.1953
vn -0.3826 0.9239 0.0057
vn -0.0013 1.0000 -0.0000
vn -0.1941 0.9617 0.1938
vn -0.7107 0.7030 -0.0283
vn -0.3826 0.9239 -0.0075
vn -0.4040 0.8743 -0.2690
vn -0.3841 0.9230 -0.0231
vn -0.0093 0.9940 -0.1087
vn -0.3823 0.7700 -0.5108
vn -0.6491 0.7119 -0.2682
vn -0.3397 0.9277 -0.1551
vn -0.3474 0.9239 -0.1602
vn -0.0003 1.0000 -0.0001
vn 0.0330 0.9940 -0.1038
vn -0.0014 1.0000 0.0009
vn 0.0010 1.0000 -0.0021
vn 0.0023 1.0000 0.0003
vn -0.0005 1.0000 0.0001
vn 0.0004 1.0000 -0.0003
vn -0.0003 1.0000 -0.0003
vn -0.0003 1.0000 0.0004
vn -0.0002 1.0000 0.0014
vn -0.0002 1.0000 -0.0014
vn -0.0004 1.0000 0.0002
vn 0.0002 1.0000 0.0004
vn -0.0004 1.0000 -0.0002
vn -0.0002 1.0000 0.0004
vn 0.0017 1.0000 0.0002
vn -0.0003 1.0000 0.0017
vn 0.0022 1.0000 -0.0008
vn -0.0004 1.0000 -0.0003
vn 0.0002 1.0000 -0.0004
vn -0.0003 1.0000 0.0014
vn -0.0006 1.0000 -0.0013
vn -0.0003 1.0000 0.0003
vn 0.0015 1.0000 0.0007
vn -0.0474 0.9363 -0.3480
vn -0.2691 0.9247 -0.2692
vn 0.0134 0.9999 -0.0101
vn 0.0910 0.9360 -0.3401
vn -0.1448 0.9250 -0.3514
vn 0.0159 0.9999 -0.0041
vn -0.1951 0.9619 -0.1913
vn -0.0061 0.9240 -0.3824
vn 0.0014 1.0000 -0.0016
vn 0.3057 0.9514 0.0372
vn 0.3580 0.8624 -0.3580
vn -0.0369 0.9513 -0.3059
vn 0.3826 0.9239 -0.0006
vn 0.0019 1.0000 -0.0015
vn 0.1931 0.9619 -0.1933
vn 0.6412 0.7653 0.0560
vn 0.6784 0.6693 -0.3030
vn 0.3158 0.9164 -0.2459
vn 0.7071 0.7071 -0.0003
vn 0.3827 0.9239 -0.0017
vn 0.5464 0.8145 -0.1951
vn 0.9164 0.3158 -0.2459
vn 0.6693 0.6784 -0.3031
vn 0.7653 0.6412 0.0560
vn 0.9239 0.3827 -0.0005
vn 0.7071 0.7071 -0.0015
vn 0.8165 0.5434 -0.1950
vn 0.7653 0.6412 -0.0560
vn 0.6692 0.6784 0.3030
vn 0.9164 0.3158 0.2459
vn 0.9514 0.3057 -0.0372
vn 0.8624 0.3580 0.3580
vn 0.9513 -0.0369 0.3060
vn 1.0000 0.0018 -0.0003
vn 0.9239 0.3826 -0.0017
vn 0.9623 0.1896 -0.1950
vn 0.9623 0.1935 0.1914
vn 1.0000 0.0018 0.0015
vn 0.9239 0.0006 0.3827
vn 1.0000 -0.0000 0.0005
vn 1.0000 -0.0014 -0.0000
vn 1.0000 -0.0002 -0.0014
vn 1.0000 -0.0002 0.0014
vn 1.0000 -0.0004 -0.0002
vn 1.0000 0.0002 -0.0004
vn 1.0000 -0.0004 0.0002
vn 1.0000 0.0017 -0.0002
vn 1.0000 -0.0014 -0.0009
vn 1.0000 0.0018 -0.0015
vn 1.0000 0.0011 0.0022
vn 1.0000 0.0024 -0.0003
vn 1.0000 -0.0000 0.0017
vn 1.0000 -0.0005 -0.0000
vn 1.0000 0.0004 0.0003
vn 1.0000 -0.0003 0.0003
vn 1.0000 -0.0003 -0.0004
vn 1.0000 -0.0014 -0.0001
vn 1.0000 0.0001 -0.0005
vn 1.0000 -0.0005 -0.0001
vn 1.0000 0.0006 -0.0016
vn 1.0000 0.0018 0.0016
vn 1.0000 0.0024 -0.0002
vn 1.0000 -0.0002 0.0004
vn 0.9513 -0.0369 -0.3060
vn 0.8624 0.3580 -0.3579
vn 0.9514 0.3057 0.0372
vn 0.9239 0.0007 -0.3827
vn 0.9618 0.1934 -0.1935
vn 0.9230 -0.0216 -0.3842
vn 1.0000 -0.0000 -0.0016
vn 0.9940 -0.1087 -0.0093
vn 0.9360 -0.3037 -0.1780
vn 0.9250 -0.1448 -0.3513
vn 0.9999 -0.0145 0.0085
vn 0.9363 -0.3480 -0.0474
vn 0.9247 -0.2691 -0.2691
vn 0.9999 -0.0101 0.0134
vn 0.9357 -0.3411 0.0895
vn 0.9250 -0.3514 -0.1448
vn 0.9999 -0.0042 0.0159
vn 0.9619 -0.1913 -0.1951
vn 0.9239 -0.3825 -0.0075
vn 1.0000 -0.0013 0.0018
vn 0.9230 -0.3841 0.0231
vn 0.9940 -0.0092 0.1087
vn 0.9940 -0.0833 -0.0703
vn 1.0000 -0.0002 0.0002
vn 0.9237 -0.2818 0.2595
vn 0.9940 -0.1038 -0.0330
vn 1.0000 -0.0001 0.0002
vn 0.9239 -0.1602 0.3474
vn 0.9940 -0.1087 0.0093
vn 1.0000 -0.0000 0.0016
vn 0.9230 -0.0216 0.3841
vn 0.8743 -0.2691 0.4041
vn 0.9239 -0.0061 0.3825
vn 0.7029 -0.0255 0.7109
vn 0.7066 -0.4906 0.5100
vn 0.9247 -0.2692 0.2692
vn 0.8736 -0.0947 0.4773
vn 0.7069 -0.6484 0.2827
vn 0.9249 -0.3514 0.1448
vn 0.8737 -0.2708 0.4040
vn 0.3785 -0.8504 0.3655
vn 0.7118 -0.6491 0.2682
vn 0.5915 -0.5057 0.6280
vn 0.3749 -0.9265 0.0318
vn 0.7074 -0.7067 0.0142
vn 0.5923 -0.7071 0.3863
vn 0.7030 -0.7106 0.0283
vn 0.9239 -0.3826 0.0075
vn 0.8743 -0.4040 0.2690
vn 0.3830 -0.9236 -0.0170
vn 0.7074 -0.7067 -0.0141
vn 0.5425 -0.8169 -0.1961
vn 0.7074 -0.7067 -0.0123
vn 0.8139 -0.5472 -0.1953
vn 0.4998 -0.8628 0.0758
vn 0.7188 -0.6473 -0.2536
vn 0.7660 -0.6371 0.0856
vn 0.7119 -0.6491 -0.2681
vn 0.9276 -0.3505 -0.1294
vn 0.3784 -0.6634 -0.6456
vn 0.7115 -0.4969 -0.4968
vn 0.5913 -0.7741 -0.2261
vn 0.7066 -0.5100 -0.4906
vn 0.9247 -0.2692 -0.2692
vn 0.8736 -0.4772 -0.0947
vn 0.5092 -0.6670 -0.5439
vn 0.7189 -0.2771 -0.6375
vn 0.7069 -0.2827 -0.6484
vn 0.9249 -0.1449 -0.3514
vn 0.8737 -0.4040 -0.2708
vn 0.3747 -0.0282 -0.9267
vn 0.7074 -0.0115 -0.7067
vn 0.5923 -0.3862 -0.7071
vn 0.7029 -0.0255 -0.7108
vn 0.9239 -0.0061 -0.3826
vn 0.8743 -0.2691 -0.4041
vn 0.3831 0.0001 -0.9237
vn 0.7070 0.0018 -0.7072
vn 0.5430 0.1959 -0.8166
vn 0.7071 0.0004 -0.7071
vn 0.9238 0.0021 -0.3828
vn 0.8142 0.1953 -0.5467
vn 0.7652 -0.0557 -0.6414
vn 0.6860 0.2807 -0.6713
vn 0.9164 0.2459 -0.3158
vn 0.3158 0.2459 -0.9164
vn 0.6950 0.2806 -0.6620
vn 0.6413 -0.0557 -0.7653
vn 0.0022 0.0007 -1.0000
vn 0.1892 0.1960 -0.9622
vn -0.0556 0.6413 -0.7653
vn 0.2806 0.6950 -0.6620
vn 0.2459 0.3158 -0.9164
vn 0.8623 0.3972 -0.3142
vn 0.6848 0.2501 -0.6845
vn 0.5976 0.6088 -0.5218
vn 0.3142 0.8623 -0.3972
vn 0.6920 0.6683 -0.2729
vn 0.5218 0.5976 -0.6088
vn 0.2459 0.9164 -0.3158
vn 0.2807 0.6860 -0.6713
vn -0.0557 0.7652 -0.6414
vn -0.1947 0.5449 -0.8156
vn -0.0152 0.3831 -0.9236
vn -0.0100 0.7075 -0.7067
vn -0.1951 0.8155 -0.5449
vn -0.0114 0.7075 -0.7067
vn -0.0046 0.9239 -0.3825
vn 0.0789 0.5022 -0.8611
vn -0.2536 0.7188 -0.6473
vn 0.0882 0.7672 -0.6353
vn -0.2681 0.7119 -0.6491
vn -0.1294 0.9276 -0.3504
vn -0.6456 0.3784 -0.6634
vn -0.2261 0.5913 -0.7741
vn -0.1570 0.7706 -0.6177
vn -0.4968 0.7116 -0.4969
vn -0.2544 0.9274 -0.2742
vn -0.5439 0.5092 -0.6669
vn -0.8517 0.3876 -0.3525
vn -0.6375 0.7189 -0.2771
vn -0.6409 0.1655 -0.7495
vn -0.9250 0.0019 -0.3800
vn -0.8429 0.3980 -0.3620
vn -0.3050 0.1660 -0.9378
vn -0.7110 0.0020 -0.7031
vn -0.6401 0.3977 -0.6573
vn -0.9994 -0.0083 -0.0325
vn -0.9235 0.3830 -0.0188
vn -0.8671 0.2190 -0.4474
vn -0.9265 0.3749 -0.0318
vn -0.7071 0.5923 -0.3862
vn -0.9998 0.0016 0.0186
vn -0.9236 0.3830 0.0188
vn -0.9622 0.1886 0.1963
vn -0.8154 0.5449 0.1955
vn -0.9235 0.3831 0.0188
vn -0.7066 0.7075 0.0124
vn -0.8671 0.2190 0.4474
vn -0.9235 0.3830 0.0188
vn -0.9994 -0.0084 0.0325
vn -0.7071 0.5923 0.3862
vn -0.7067 0.7074 0.0142
vn -0.9265 0.3749 0.0318
vn -0.6299 0.2185 0.7453
vn -0.9203 -0.0094 0.3910
vn -0.5057 0.5915 0.6280
vn -0.6491 0.7118 0.2682
vn -0.8503 0.3786 0.3655
vn -0.2964 0.2185 0.9297
vn -0.6519 0.3873 0.6519
vn -0.7026 -0.0094 0.7115
vn -0.3655 0.3786 0.8503
vn -0.2682 0.7118 0.6491
vn -0.6280 0.5915 0.5057
vn -0.0435 -0.0057 0.9990
vn -0.0152 0.3830 0.9236
vn -0.4474 0.2190 0.8671
vn -0.0281 0.3747 0.9267
vn -0.0115 0.7074 0.7067
vn -0.3862 0.5923 0.7071
vn 0.0007 0.0022 1.0000
vn 0.1960 0.1892 0.9622
vn 0.0001 0.3831 0.9237
vn 0.0018 0.7070 0.7072
vn 0.1958 0.5430 0.8166
vn -0.6901 0.0974 0.7172
vn -0.3883 0.0094 0.9215
vn -0.9111 0.0964 0.4009
vn -0.9247 -0.0018 0.3807
vn -0.7104 0.0082 0.7037
vn -0.9954 0.0856 0.0423
vn -0.9998 -0.0019 0.0204
vn -0.9248 0.0079 0.3804
vn -0.9994 0.0114 0.0332
vn -0.9236 -0.3825 0.0270
vn -0.8537 -0.0803 0.5145
vn -0.9998 -0.0018 -0.0185
vn -0.9236 -0.3825 -0.0269
vn -0.9323 -0.3388 0.1270
vn -0.9998 0.0086 -0.0185
vn -0.9998 -0.0019 -0.0204
vn -0.9998 0.0057 0.0197
vn -0.9781 -0.2010 0.0544
vn -0.9247 -0.0019 -0.3806
vn -0.8109 -0.3521 -0.4673
vn -0.9248 0.0079 -0.3804
vn -0.9954 0.0856 -0.0423
vn -0.8936 -0.2805 -0.3503
vn -0.7103 -0.0015 -0.7039
vn -0.5618 -0.2456 -0.7899
vn -0.7104 0.0082 -0.7037
vn -0.9247 -0.0018 -0.3807
vn -0.9111 0.0964 -0.4009
vn -0.6494 -0.2802 -0.7069
vn -0.3881 -0.0007 -0.9216
vn -0.4105 -0.1729 -0.8953
vn -0.3883 0.0094 -0.9215
vn -0.6901 0.0974 -0.7172
vn -0.3871 -0.0102 -0.9220
vn -0.0314 0.0039 -0.9995
vn -0.1021 -0.1552 -0.9826
vn -0.1197 0.1644 -0.9791
vn -0.3511 0.1170 -0.9290
vn 0.0552 0.1492 -0.9873
vn -0.3874 0.0021 -0.9219
vn -0.3395 0.3979 -0.8523
vn -0.1930 0.1914 -0.9623
vn -0.0137 0.3831 -0.9236
vn -0.1552 -0.1021 -0.9826
vn 0.0039 -0.0314 -0.9995
vn -0.0102 -0.3871 -0.9220
vn 0.1013 -0.3604 -0.9273
vn -0.0368 -0.0629 -0.9973
vn -0.0057 -0.0435 -0.9990
vn 0.3830 -0.0152 -0.9236
vn 0.2190 -0.4474 -0.8671
vn -0.0089 -0.3985 -0.9171
vn 0.2185 -0.7453 -0.6299
vn 0.0974 -0.6901 -0.7172
vn -0.0015 -0.7103 -0.7039
vn 0.0094 -0.3883 -0.9215
vn -0.1729 -0.4105 -0.8953
vn -0.0007 -0.3881 -0.9216
vn -0.2801 -0.6494 -0.7069
vn -0.2456 -0.5618 -0.7899
vn -0.2805 -0.8936 -0.3503
vn 0.0964 -0.9111 -0.4009
vn -0.0018 -0.9247 -0.3807
vn 0.0082 -0.7104 -0.7037
vn -0.3521 -0.8109 -0.4673
vn -0.0018 -0.9247 -0.3806
vn -0.2011 -0.9781 0.0544
vn 0.0856 -0.9954 -0.0423
vn -0.0019 -0.9998 -0.0204
vn 0.0079 -0.9248 -0.3804
vn 0.1564 -0.9855 0.0655
vn 0.0019 -0.9250 -0.3800
vn 0.3980 -0.8523 -0.3395
vn 0.1724 -0.9388 -0.2983
vn 0.0020 -0.7111 -0.7031
vn 0.3977 -0.6573 -0.6401
vn 0.0016 -0.9998 -0.0186
vn 0.1886 -0.9622 -0.1963
vn 0.0086 -0.9998 0.0185
vn -0.0019 -0.9998 0.0204
vn 0.0057 -0.9998 -0.0197
vn -0.0083 -0.9994 0.0325
vn 0.3830 -0.9235 0.0188
vn 0.2190 -0.8671 0.4474
vn 0.0079 -0.9248 0.3804
vn 0.0856 -0.9954 0.0423
vn -0.2010 -0.9781 -0.0544
vn -0.0019 -0.9247 0.3806
vn -0.3521 -0.8109 0.4673
vn -0.3828 -0.9235 -0.0250
vn -0.0020 -0.9998 -0.0204
vn -0.0407 -0.9921 0.1188
vn -0.5750 -0.8172 -0.0397
vn -0.3362 -0.8116 0.4778
vn -0.6234 -0.6031 0.4976
vn -0.7070 -0.7067 -0.0273
vn -0.3826 -0.9235 -0.0269
vn -0.4196 -0.8988 0.1270
vn -0.6233 -0.6032 -0.4976
vn -0.3362 -0.8116 -0.4778
vn -0.5750 -0.8172 0.0397
vn -0.8172 -0.5750 0.0397
vn -0.8116 -0.3362 -0.4778
vn -0.6031 -0.6234 -0.4976
vn -0.9237 -0.3824 -0.0250
vn -0.7325 -0.6683 0.1294
vn -0.7126 -0.5454 -0.4413
vn -0.5605 -0.2322 -0.7950
vn -0.4048 -0.4187 -0.8129
vn -0.4187 -0.4048 -0.8129
vn -0.2322 -0.5605 -0.7950
vn -0.5455 -0.7125 -0.4413
vn -0.4719 -0.4006 -0.7854
vn -0.2978 -0.2986 -0.9067
vn -0.2986 -0.2978 -0.9067
vn -0.1687 -0.4071 -0.8977
vn -0.4007 -0.4719 -0.7854
vn -0.9287 -0.3688 0.0391
vn -0.7353 -0.4014 0.5461
vt 0.621521 0.159885
vt 0.544058 0.157403
vt 0.549197 0.148507
vt 0.621521 0.148500
vt 0.621517 0.025553
vt 0.549193 0.025560
vt 0.693849 0.025564
vt 0.698123 0.036954
vt 0.621526 0.036938
vt 0.698989 0.034460
vt 0.699000 0.036686
vt 0.544047 0.159630
vt 0.544925 0.159897
vt 0.699776 0.035900
vt 0.543272 0.158844
vt 0.538465 0.171080
vt 0.539347 0.171288
vt 0.535607 0.182670
vt 0.534736 0.182559
vt 0.537653 0.170432
vt 0.708312 0.059615
vt 0.705395 0.047488
vt 0.709169 0.059239
vt 0.704582 0.048137
vt 0.707441 0.059727
vt 0.703700 0.048345
vt 0.621525 0.059710
vt 0.621526 0.048324
vt 0.481091 0.592457
vt 0.473435 0.567061
vt 0.482910 0.591149
vt 0.472034 0.569446
vt 0.459268 0.550949
vt 0.458498 0.554042
vt 0.442771 0.545003
vt 0.457739 0.557089
vt 0.442562 0.548324
vt 0.268864 0.545235
vt 0.442354 0.551629
vt 0.268934 0.548561
vt 0.266881 0.549171
vt 0.269003 0.551827
vt 0.442147 0.554930
vt 0.267107 0.554722
vt 0.269054 0.555030
vt 0.265878 0.552231
vt 0.267124 0.552007
vt 0.016974 0.917138
vt 0.015747 0.919627
vt 0.015338 0.917462
vt 0.016748 0.922685
vt 0.016992 0.919850
vt 0.018868 0.920030
vt 0.018920 0.916830
vt 0.018800 0.923294
vt 0.015059 0.913957
vt 0.017016 0.913745
vt 0.018924 0.913635
vt 0.191680 0.913632
vt 0.191884 0.916932
vt 0.192091 0.920231
vt 0.206709 0.911748
vt 0.207465 0.914782
vt 0.205953 0.908708
vt 0.218993 0.897749
vt 0.220367 0.900086
vt 0.217616 0.895410
vt 0.227220 0.876861
vt 0.229005 0.878145
vt 0.232207 0.852018
vt 0.225432 0.875576
vt 0.230270 0.851666
vt 0.230269 0.619591
vt 0.232206 0.619239
vt 0.228331 0.619942
vt 0.227219 0.594397
vt 0.229004 0.593114
vt 0.225431 0.595682
vt 0.220367 0.571175
vt 0.218992 0.573509
vt 0.217615 0.575848
vt 0.205952 0.562552
vt 0.228332 0.851315
vt 0.206709 0.559512
vt 0.191884 0.554327
vt 0.191680 0.557628
vt 0.018920 0.554430
vt 0.018924 0.557624
vt 0.017016 0.557514
vt 0.015059 0.557303
vt 0.016974 0.554122
vt 0.267106 0.918007
vt 0.265189 0.914824
vt 0.267147 0.914612
vt 0.265191 0.557905
vt 0.267149 0.558117
vt 0.269058 0.558227
vt 0.269057 0.914502
vt 0.441942 0.558232
vt 0.467897 0.896266
vt 0.475724 0.596314
vt 0.269053 0.917699
vt 0.441941 0.914501
vt 0.442145 0.917804
vt 0.456224 0.909573
vt 0.456981 0.912615
vt 0.469275 0.898607
vt 0.477508 0.877703
vt 0.475718 0.876417
vt 0.480560 0.852489
vt 0.478621 0.852138
vt 0.480560 0.620243
vt 0.478620 0.620593
vt 0.477513 0.595029
vt 0.469277 0.574130
vt 0.467899 0.576471
vt 0.456982 0.560127
vt 0.456225 0.563169
vt 0.470652 0.571792
vt 0.479299 0.593745
vt 0.484439 0.619536
vt 0.482498 0.619890
vt 0.484439 0.853197
vt 0.482498 0.852842
vt 0.479294 0.878987
vt 0.472031 0.903292
vt 0.481086 0.880277
vt 0.470650 0.900946
vt 0.457737 0.915652
vt 0.442560 0.924411
vt 0.458497 0.918698
vt 0.442352 0.921105
vt 0.268933 0.924169
vt 0.269001 0.920902
vt 0.266879 0.923558
vt 0.268862 0.927494
vt 0.442769 0.927732
vt 0.018868 0.551229
vt 0.016748 0.548575
vt 0.018800 0.547965
vt 0.018730 0.544642
vt 0.016991 0.551409
vt 0.015747 0.551632
vt 0.267123 0.920722
vt 0.265877 0.920499
vt 0.265468 0.918331
vt 0.192091 0.551028
vt 0.192299 0.547725
vt 0.207465 0.556478
vt 0.221747 0.568830
vt 0.208224 0.553433
vt 0.223149 0.566449
vt 0.230795 0.591825
vt 0.208993 0.550342
vt 0.236094 0.618529
vt 0.232613 0.590520
vt 0.234145 0.618884
vt 0.236095 0.852728
vt 0.230796 0.879433
vt 0.232614 0.880738
vt 0.234146 0.852373
vt 0.221747 0.902432
vt 0.223150 0.904812
vt 0.208223 0.917827
vt 0.208993 0.920917
vt 0.192507 0.926853
vt 0.192299 0.923534
vt 0.018730 0.926618
vt 0.621521 0.171271
vt 0.621522 0.182657
vt 0.621522 0.194043
vt 0.534276 0.194044
vt 0.534276 0.291295
vt 0.533403 0.194009
vt 0.621522 0.291297
vt 0.534736 0.302780
vt 0.533403 0.291331
vt 0.535608 0.302668
vt 0.621521 0.302683
vt 0.538466 0.314258
vt 0.539348 0.314050
vt 0.621521 0.314069
vt 0.544048 0.325708
vt 0.544926 0.325441
vt 0.621520 0.325455
vt 0.544059 0.327935
vt 0.549199 0.336830
vt 0.192507 0.544407
vt 0.621520 0.336841
vt 0.621514 0.459782
vt 0.549193 0.459771
vt 0.621523 0.202510
vt 0.698987 0.204995
vt 0.693847 0.213891
vt 0.459268 0.921791
vt 0.473435 0.905674
vt 0.621523 0.191124
vt 0.698120 0.202501
vt 0.698998 0.202769
vt 0.703698 0.191110
vt 0.704581 0.191318
vt 0.707439 0.179729
vt 0.708311 0.179840
vt 0.621523 0.179738
vt 0.708771 0.168355
vt 0.709645 0.168390
vt 0.621522 0.168352
vt 0.486389 0.853553
vt 0.482906 0.881583
vt 0.486389 0.619181
vt 0.621524 0.071095
vt 0.708772 0.071100
vt 0.709646 0.071065
vt 0.710521 0.070957
vt 0.710521 0.168498
vt 0.709167 0.180216
vt 0.533880 0.303156
vt 0.532528 0.291438
vt 0.532528 0.193901
vt 0.537654 0.314906
vt 0.705393 0.191967
vt 0.543273 0.326494
vt 0.699773 0.203554
vt 0.533879 0.182183
vt 0.621527 0.025553
vt 0.265469 0.554398
vt 0.015338 0.553798
vt 0.621524 0.213895
s 0
usemtl multitexture
f 143/1/1 5/2/2 1/3/3
f 2/4/4 1/3/5 3/5/6
f 3/5/6 1/3/5 4/6/7
f 1/7/8 6/8/9 23/9/10
f 6/8/11 5/10/12 8/11/13
f 10/12/14 5/2/12 7/13/15
f 8/11/13 5/10/12 9/14/16
f 9/15/16 5/2/12 10/12/14
f 11/16/17 9/15/18 10/12/19
f 12/17/20 10/12/21 7/13/22
f 146/18/23 11/16/24 12/17/25
f 13/19/26 14/20/27 11/16/28
f 17/21/29 14/22/30 15/23/31
f 16/24/32 9/14/33 14/22/34
f 19/25/35 16/24/36 17/21/37
f 18/26/38 8/11/39 16/24/40
f 18/26/41 21/27/42 20/28/43
f 6/8/44 20/28/45 23/9/46
f 103/29/47 20/30/48 21/31/49
f 22/32/50 23/33/51 20/30/52
f 24/34/53 4/35/54 23/33/55
f 22/32/56 25/36/57 24/34/58
f 25/36/59 26/37/60 24/34/58
f 26/37/61 3/38/62 4/35/63
f 27/39/64 28/40/65 26/37/66
f 28/40/67 29/41/68 3/38/6
f 30/42/69 29/41/70 28/40/71
f 100/43/72 30/42/73 27/39/74
f 33/44/75 30/42/76 31/45/77
f 33/44/78 34/46/79 32/47/80
f 32/47/81 34/46/82 29/41/83
f 38/48/84 34/49/85 35/50/86
f 29/51/83 34/49/82 36/52/87
f 37/53/88 38/48/89 40/54/90
f 29/51/91 37/53/92 145/55/93
f 38/48/94 76/56/95 39/57/96
f 40/54/97 39/57/98 41/58/99
f 40/54/100 44/59/101 42/60/102
f 37/53/103 42/60/104 43/61/105
f 43/61/106 45/62/107 46/63/108
f 42/60/109 47/64/110 45/62/111
f 46/63/112 48/65/113 49/66/114
f 45/62/115 50/67/116 48/65/117
f 49/66/118 51/68/119 52/69/120
f 50/67/121 51/68/122 48/65/123
f 51/68/124 55/70/125 52/69/126
f 53/71/127 54/72/128 51/68/129
f 55/70/130 57/73/131 58/74/132
f 54/72/133 59/75/134 57/73/135
f 58/74/136 60/76/137 61/77/138
f 57/73/139 63/78/140 60/76/141
f 129/79/142 60/76/143 62/80/144
f 60/76/145 64/81/146 62/80/147
f 65/82/148 56/83/149 44/59/150
f 66/84/151 64/81/152 65/82/153
f 68/85/154 65/82/155 67/86/156
f 70/87/157 67/86/158 69/88/159
f 71/89/160 70/87/161 69/88/162
f 71/89/163 41/58/164 39/57/165
f 73/90/166 72/91/167 71/89/168
f 73/90/169 39/57/170 76/56/171
f 182/92/172 73/93/173 74/94/174
f 74/94/175 76/95/176 77/96/177
f 76/95/178 33/44/179 77/96/180
f 77/96/181 31/45/182 78/97/183
f 80/98/184 77/96/185 78/97/186
f 79/99/187 31/45/188 100/43/189
f 86/100/190 78/97/191 94/101/192
f 81/102/193 74/94/194 80/98/195
f 81/102/196 82/103/197 83/104/198
f 83/104/199 84/105/200 85/106/201
f 87/107/202 84/105/203 86/100/204
f 89/108/205 86/100/206 88/109/207
f 91/110/208 88/109/209 90/111/210
f 93/112/211 90/111/212 92/113/210
f 93/112/213 94/101/214 95/114/215
f 94/101/216 97/115/217 95/114/218
f 96/116/219 99/117/220 97/115/221
f 98/118/222 100/43/223 99/117/224
f 99/117/225 27/39/226 25/36/227
f 101/119/228 99/117/229 25/36/230
f 102/120/231 97/115/232 101/119/233
f 103/29/234 101/119/235 22/32/236
f 105/121/237 102/120/238 103/29/239
f 104/122/240 95/114/241 102/120/242
f 107/123/243 104/122/244 105/121/245
f 106/124/246 93/112/247 104/122/248
f 107/123/249 108/125/250 106/124/251
f 106/124/252 89/108/253 91/110/254
f 111/126/255 108/125/256 109/127/257
f 110/128/258 89/108/259 108/125/260
f 111/126/261 112/129/262 110/128/263
f 112/129/264 87/107/265 110/128/266
f 115/130/267 112/129/268 113/131/269
f 114/132/270 85/106/271 112/129/272
f 118/133/273 114/132/274 115/130/275
f 116/134/276 83/104/277 114/132/278
f 116/134/279 182/92/280 81/102/281
f 120/135/282 116/134/283 118/133/284
f 118/133/285 119/136/286 120/135/287
f 119/136/288 115/130/289 161/137/290
f 124/138/291 120/139/292 121/140/293
f 119/141/286 121/140/294 120/139/287
f 120/139/295 122/142/296 123/143/297
f 117/144/298 120/135/295 123/145/297
f 182/92/299 123/145/300 75/146/301
f 72/91/302 123/143/303 122/142/304
f 72/91/305 124/138/306 70/87/307
f 121/140/308 125/147/309 124/138/310
f 124/138/311 68/85/312 70/87/313
f 126/148/314 127/149/315 125/147/316
f 125/147/317 66/84/318 68/85/319
f 130/150/320 127/149/321 128/151/322
f 127/149/323 62/80/324 66/84/325
f 130/150/326 61/77/327 129/79/328
f 131/152/329 132/153/330 130/150/331
f 158/154/332 130/150/333 128/151/334
f 135/155/335 132/153/336 133/156/337
f 134/157/338 61/77/339 132/153/340
f 137/158/341 134/157/342 135/155/343
f 134/157/344 55/70/345 58/74/346
f 138/159/347 137/158/348 139/160/349
f 52/69/350 136/161/351 138/159/352
f 140/162/353 139/160/354 141/163/355
f 49/66/356 138/159/357 140/162/358
f 142/164/359 141/163/360 143/165/361
f 142/164/362 49/66/363 140/162/358
f 2/166/364 142/164/365 143/165/361
f 144/167/366 46/63/367 142/164/368
f 3/168/369 144/167/370 2/166/4
f 145/55/371 43/61/372 144/167/373
f 3/168/6 29/51/68 145/55/374
f 141/169/375 7/13/376 143/1/377
f 139/170/378 12/17/379 141/169/380
f 137/171/381 146/18/382 139/170/383
f 147/172/384 13/19/385 146/18/386
f 149/173/387 148/174/388 147/172/389
f 135/175/390 147/172/391 137/171/392
f 149/173/393 152/176/394 150/177/395
f 151/178/396 135/175/397 133/179/398
f 151/178/399 154/180/400 152/176/401
f 153/181/402 133/179/403 131/182/404
f 153/181/405 156/183/406 154/180/407
f 155/184/408 131/182/409 158/185/410
f 156/183/411 155/184/412 157/186/413
f 160/187/414 155/184/415 158/185/416
f 159/188/417 128/151/418 126/148/419
f 119/141/420 126/148/421 121/140/422
f 159/189/423 119/190/424 160/187/425
f 119/190/424 161/191/290 160/187/425
f 162/192/426 157/193/427 160/194/428
f 161/137/429 113/131/430 162/195/431
f 162/195/432 111/126/433 163/196/434
f 163/197/435 164/198/436 162/192/437
f 164/198/438 165/199/439 157/193/440
f 165/199/441 166/200/442 167/201/443
f 167/201/444 168/202/445 169/203/446
f 171/204/447 166/200/448 163/197/449
f 169/203/450 170/205/451 177/206/452
f 172/207/453 168/202/454 171/204/455
f 172/208/456 109/127/457 107/123/458
f 171/209/459 111/126/460 109/127/461
f 172/208/462 105/121/463 173/210/464
f 173/211/465 170/205/466 172/207/467
f 173/210/468 103/29/469 21/31/470
f 19/25/471 173/211/472 21/27/473
f 174/212/474 17/21/475 175/213/476
f 177/206/477 174/212/478 175/213/479
f 175/213/480 15/23/481 176/214/482
f 178/215/483 175/213/484 176/214/482
f 179/216/485 177/206/486 178/215/487
f 150/177/488 179/217/489 178/218/487
f 150/177/490 176/219/491 148/174/492
f 152/176/493 180/220/494 179/217/495
f 180/221/496 169/203/497 179/216/498
f 154/180/499 181/222/500 180/220/501
f 181/223/502 167/201/503 180/221/504
f 165/199/505 181/223/506 157/193/440
f 181/222/506 156/183/411 157/186/440
f 148/174/507 15/224/508 13/19/509
f 1/3/510 2/4/511 143/1/512
f 143/1/513 7/13/514 5/2/515
f 23/9/516 4/225/517 1/7/518
f 1/7/519 5/10/12 6/8/520
f 11/16/521 14/20/522 9/15/523
f 12/17/524 11/16/525 10/12/526
f 146/18/527 13/19/528 11/16/529
f 13/19/530 15/224/531 14/20/532
f 17/21/533 16/24/534 14/22/535
f 16/24/536 8/11/13 9/14/537
f 19/25/538 18/26/539 16/24/540
f 18/26/541 6/8/542 8/11/543
f 18/26/544 19/25/545 21/27/546
f 6/8/547 18/26/539 20/28/548
f 103/29/549 22/32/550 20/30/551
f 22/32/552 24/34/553 23/33/554
f 24/34/555 26/37/556 4/35/557
f 22/32/558 101/119/559 25/36/560
f 25/36/561 27/39/74 26/37/562
f 26/37/563 28/40/564 3/38/565
f 27/39/566 30/42/567 28/40/568
f 30/42/569 32/47/570 29/41/571
f 100/43/572 31/45/573 30/42/574
f 33/44/575 32/47/576 30/42/577
f 33/44/578 35/226/579 34/46/580
f 38/48/581 36/52/582 34/49/583
f 37/53/584 36/52/585 38/48/586
f 29/51/587 36/52/588 37/53/589
f 38/48/590 35/50/591 76/56/592
f 40/54/593 38/48/594 39/57/595
f 40/54/596 41/58/597 44/59/598
f 37/53/599 40/54/600 42/60/601
f 43/61/602 42/60/603 45/62/604
f 42/60/605 44/59/606 47/64/607
f 46/63/608 45/62/609 48/65/610
f 45/62/611 47/64/612 50/67/613
f 49/66/614 48/65/615 51/68/616
f 50/67/617 53/71/618 51/68/619
f 51/68/620 54/72/621 55/70/622
f 53/71/623 56/83/624 54/72/625
f 55/70/626 54/72/621 57/73/627
f 54/72/628 56/83/629 59/75/630
f 58/74/631 57/73/632 60/76/633
f 57/73/634 59/75/629 63/78/635
f 129/79/636 61/77/637 60/76/638
f 60/76/639 63/78/640 64/81/641
f 44/59/642 41/58/597 69/88/643
f 69/88/644 67/86/156 65/82/645
f 65/82/646 64/81/647 63/78/648
f 63/78/148 59/75/624 56/83/649
f 56/83/650 53/71/651 50/67/652
f 50/67/653 47/64/654 44/59/655
f 44/59/656 69/88/657 65/82/658
f 65/82/659 63/78/653 56/83/660
f 56/83/661 50/67/662 44/59/663
f 66/84/664 62/80/665 64/81/666
f 68/85/667 66/84/668 65/82/669
f 70/87/670 68/85/671 67/86/672
f 71/89/673 72/91/674 70/87/675
f 71/89/676 69/88/677 41/58/678
f 73/90/679 75/227/680 72/91/681
f 73/90/682 71/89/683 39/57/684
f 182/92/685 75/146/686 73/93/687
f 74/94/688 73/93/689 76/95/690
f 76/95/691 35/226/692 33/44/693
f 77/96/694 33/44/695 31/45/696
f 80/98/697 74/94/698 77/96/699
f 79/99/700 78/97/701 31/45/702
f 94/101/703 92/113/704 90/111/705
f 90/111/706 88/109/707 86/100/708
f 86/100/709 84/105/190 82/103/710
f 82/103/711 80/98/712 78/97/713
f 78/97/714 79/99/715 98/118/716
f 98/118/717 96/116/718 94/101/719
f 94/101/703 90/111/720 86/100/721
f 86/100/722 82/103/723 78/97/724
f 78/97/725 98/118/726 94/101/707
f 81/102/727 182/92/728 74/94/729
f 81/102/730 80/98/712 82/103/731
f 83/104/732 82/103/733 84/105/734
f 87/107/735 85/106/736 84/105/737
f 89/108/738 87/107/739 86/100/740
f 91/110/741 89/108/742 88/109/743
f 93/112/744 91/110/745 90/111/746
f 93/112/747 92/113/210 94/101/748
f 94/101/749 96/116/750 97/115/751
f 96/116/752 98/118/753 99/117/754
f 98/118/755 79/99/756 100/43/757
f 99/117/758 100/43/759 27/39/760
f 101/119/761 97/115/762 99/117/763
f 102/120/764 95/114/765 97/115/766
f 103/29/767 102/120/768 101/119/769
f 105/121/770 104/122/771 102/120/772
f 104/122/773 93/112/774 95/114/775
f 107/123/776 106/124/777 104/122/778
f 106/124/779 91/110/254 93/112/780
f 107/123/781 109/127/257 108/125/782
f 106/124/783 108/125/784 89/108/785
f 111/126/786 110/128/787 108/125/788
f 110/128/789 87/107/790 89/108/791
f 111/126/792 113/131/269 112/129/793
f 112/129/794 85/106/795 87/107/796
f 115/130/797 114/132/798 112/129/799
f 114/132/800 83/104/801 85/106/802
f 118/133/803 116/134/804 114/132/805
f 116/134/806 81/102/807 83/104/808
f 116/134/809 117/144/810 182/92/811
f 120/135/812 117/144/813 116/134/814
f 119/136/815 118/133/285 115/130/816
f 124/138/817 122/142/818 120/139/819
f 182/92/820 117/144/821 123/145/822
f 72/91/823 75/227/824 123/143/825
f 72/91/826 122/142/827 124/138/828
f 121/140/829 126/148/830 125/147/831
f 124/138/832 125/147/833 68/85/834
f 126/148/835 128/151/334 127/149/836
f 125/147/837 127/149/838 66/84/839
f 130/150/840 129/79/328 127/149/841
f 127/149/842 129/79/843 62/80/844
f 130/150/845 132/153/846 61/77/847
f 131/152/848 133/156/849 132/153/850
f 158/154/851 131/152/852 130/150/853
f 135/155/854 134/157/855 132/153/856
f 134/157/857 58/74/346 61/77/858
f 137/158/859 136/161/860 134/157/861
f 134/157/862 136/161/863 55/70/864
f 138/159/865 136/161/866 137/158/867
f 52/69/868 55/70/869 136/161/870
f 140/162/871 138/159/352 139/160/872
f 49/66/873 52/69/874 138/159/875
f 142/164/876 140/162/877 141/163/878
f 142/164/879 46/63/880 49/66/881
f 2/166/882 144/167/883 142/164/884
f 144/167/885 43/61/886 46/63/887
f 3/168/888 145/55/374 144/167/889
f 145/55/890 37/53/891 43/61/892
f 141/169/893 12/17/25 7/13/894
f 139/170/895 146/18/896 12/17/897
f 137/171/898 147/172/899 146/18/900
f 147/172/901 148/174/902 13/19/903
f 149/173/904 150/177/905 148/174/906
f 135/175/907 149/173/908 147/172/909
f 149/173/910 151/178/911 152/176/912
f 151/178/913 149/173/908 135/175/914
f 151/178/915 153/181/916 154/180/917
f 153/181/918 151/178/919 133/179/920
f 153/181/921 155/184/922 156/183/923
f 155/184/924 153/181/916 131/182/925
f 158/185/926 159/189/927 160/187/928
f 160/187/929 157/186/440 155/184/930
f 159/188/931 158/154/932 128/151/933
f 119/141/934 159/188/423 126/148/935
f 160/194/936 161/228/937 162/192/938
f 162/192/939 164/198/438 157/193/940
f 161/137/941 115/130/942 113/131/943
f 162/195/944 113/131/269 111/126/945
f 163/197/946 166/200/947 164/198/948
f 165/199/949 164/198/950 166/200/951
f 167/201/952 166/200/947 168/202/953
f 171/204/954 168/202/955 166/200/956
f 169/203/957 168/202/958 170/205/959
f 172/207/960 170/205/961 168/202/962
f 172/208/963 171/209/964 109/127/965
f 171/209/966 163/196/967 111/126/968
f 172/208/969 107/123/458 105/121/970
f 173/211/971 174/212/972 170/205/973
f 173/210/974 105/121/975 103/29/976
f 19/25/977 174/212/972 173/211/978
f 174/212/979 19/25/980 17/21/981
f 177/206/982 170/205/983 174/212/984
f 175/213/985 17/21/986 15/23/987
f 178/215/988 177/206/989 175/213/990
f 179/216/991 169/203/992 177/206/993
f 150/177/994 152/176/995 179/217/996
f 150/177/997 178/218/487 176/219/998
f 152/176/999 154/180/1000 180/220/1001
f 180/221/1002 167/201/1003 169/203/1004
f 154/180/1005 156/183/411 181/222/1006
f 181/223/1007 165/199/1008 167/201/1009
f 148/174/1010 176/219/482 15/224/1011
