# Blender 5.0.1
# www.blender.org

mtllib material.mtl
o corner_URB
v 0.295654 0.300161 -0.295654
v 0.297379 0.299818 -0.295654
v 0.295654 0.299818 -0.297379
v 0.104342 0.300161 -0.295654
v 0.295654 0.300161 -0.104342
v 0.295654 0.299818 -0.102617
v 0.297379 0.299818 -0.104342
v 0.104342 0.300161 -0.104342
v 0.102617 0.299818 -0.104342
v 0.104342 0.299818 -0.102617
v 0.102574 0.299404 -0.102574
v 0.104342 0.298841 -0.101155
v 0.104342 0.297379 -0.100178
v 0.102664 0.298612 -0.101384
v 0.295654 0.298841 -0.101155
v 0.297332 0.298612 -0.101384
v 0.295654 0.297379 -0.100178
v 0.295654 0.295654 -0.099835
v 0.297422 0.297422 -0.100592
v 0.297379 0.295654 -0.100178
v 0.298612 0.297332 -0.101384
v 0.298256 0.298256 -0.101740
v 0.298612 0.298612 -0.102664
v 0.298841 0.298841 -0.104342
v 0.297422 0.299404 -0.102574
v 0.299404 0.297422 -0.102574
v 0.299818 0.295654 -0.102617
v 0.299818 0.297379 -0.104342
v 0.300161 0.295654 -0.104342
v 0.299818 0.297379 -0.295654
v 0.300161 0.295654 -0.295654
v 0.299404 0.297422 -0.297422
v 0.298841 0.298841 -0.295654
v 0.298612 0.298612 -0.297333
v 0.297422 0.299404 -0.297422
v 0.298256 0.298256 -0.298256
v 0.297332 0.298612 -0.298612
v 0.298612 0.297332 -0.298612
v 0.298841 0.295654 -0.298841
v 0.297422 0.297422 -0.299404
v 0.297379 0.295654 -0.299818
v 0.295654 0.297379 -0.299818
v 0.295654 0.295654 -0.300161
v 0.295654 0.298841 -0.298841
v 0.104342 0.297379 -0.299818
v 0.104342 0.295654 -0.300161
v 0.102574 0.297422 -0.299404
v 0.104342 0.298841 -0.298841
v 0.104342 0.299818 -0.297379
v 0.102664 0.298612 -0.298612
v 0.102574 0.299404 -0.297422
v 0.101740 0.298256 -0.298256
v 0.101384 0.298612 -0.297333
v 0.101384 0.297332 -0.298612
v 0.100592 0.297422 -0.297422
v 0.100178 0.295654 -0.297379
v 0.100178 0.297379 -0.295654
v 0.099835 0.295654 -0.295654
v 0.099835 0.104342 -0.295654
v 0.099835 0.295654 -0.104342
v 0.099835 0.104342 -0.104342
v 0.100178 0.102617 -0.104342
v 0.100178 0.104342 -0.102617
v 0.100677 0.102678 -0.102678
v 0.101346 0.102720 -0.101346
v 0.101346 0.101345 -0.102721
v 0.101750 0.101750 -0.101750
v 0.102720 0.101346 -0.101346
v 0.102678 0.100676 -0.102678
v 0.102678 0.102678 -0.100677
v 0.104342 0.102617 -0.100178
v 0.102617 0.104342 -0.100178
v 0.104342 0.104342 -0.099835
v 0.104342 0.295654 -0.099835
v 0.295654 0.104342 -0.099835
v 0.295654 0.102617 -0.100178
v 0.297379 0.104342 -0.100178
v 0.297422 0.102574 -0.100592
v 0.298841 0.104342 -0.101155
v 0.298612 0.102664 -0.101384
v 0.299818 0.104342 -0.102617
v 0.298841 0.295654 -0.101155
v 0.300161 0.104342 -0.104342
v 0.299404 0.102574 -0.102574
v 0.299818 0.102617 -0.104342
v 0.298612 0.101384 -0.102664
v 0.298841 0.101155 -0.104342
v 0.298256 0.101740 -0.101740
v 0.297422 0.100592 -0.102574
v 0.295654 0.100178 -0.102617
v 0.297379 0.100178 -0.104342
v 0.297332 0.101384 -0.101384
v 0.295654 0.101155 -0.101155
v 0.104342 0.101155 -0.101155
v 0.104342 0.100178 -0.102617
v 0.104342 0.099835 -0.104342
v 0.102617 0.100178 -0.104342
v 0.104342 0.099835 -0.295654
v 0.295654 0.099835 -0.104342
v 0.295654 0.099835 -0.295654
v 0.295654 0.100178 -0.297379
v 0.297379 0.100178 -0.295654
v 0.297422 0.100592 -0.297422
v 0.298612 0.101384 -0.297333
v 0.297332 0.101384 -0.298612
v 0.298256 0.101740 -0.298256
v 0.298612 0.102664 -0.298612
v 0.297422 0.102574 -0.299404
v 0.298841 0.104342 -0.298841
v 0.299404 0.102574 -0.297422
v 0.299818 0.104342 -0.297379
v 0.299818 0.102617 -0.295654
v 0.300161 0.104342 -0.295654
v 0.298841 0.101155 -0.295654
v 0.299818 0.295654 -0.297379
v 0.297379 0.104342 -0.299818
v 0.295654 0.104342 -0.300161
v 0.295654 0.102617 -0.299818
v 0.104342 0.104342 -0.300161
v 0.104342 0.102617 -0.299818
v 0.102617 0.104342 -0.299818
v 0.102574 0.102574 -0.299404
v 0.101155 0.104342 -0.298841
v 0.102617 0.295654 -0.299818
v 0.101155 0.295654 -0.298841
v 0.101384 0.102664 -0.298612
v 0.100178 0.104342 -0.297379
v 0.100592 0.102574 -0.297422
v 0.100178 0.102617 -0.295654
v 0.101384 0.101384 -0.297333
v 0.102574 0.100592 -0.297422
v 0.101155 0.101155 -0.295654
v 0.101740 0.101740 -0.298256
v 0.102664 0.101384 -0.298612
v 0.104342 0.101155 -0.298841
v 0.104342 0.100178 -0.297379
v 0.295654 0.101155 -0.298841
v 0.102617 0.100178 -0.295654
v 0.101155 0.101155 -0.104342
v 0.102617 0.295654 -0.100178
v 0.102574 0.297422 -0.100592
v 0.101155 0.295654 -0.101155
v 0.101384 0.297332 -0.101384
v 0.100178 0.295654 -0.102617
v 0.101155 0.104342 -0.101155
v 0.100592 0.297422 -0.102574
v 0.100178 0.297379 -0.104342
v 0.101384 0.298612 -0.102664
v 0.101155 0.298841 -0.104342
v 0.101740 0.298256 -0.101740
v 0.101155 0.298841 -0.295654
v 0.102617 0.299818 -0.295654
vn 0.4280 0.9004 -0.0782
vn 0.0782 0.9004 -0.4280
vn -0.0141 0.9998 0.0141
vn 0.0018 1.0000 -0.0006
vn 0.1913 0.9620 -0.1950
vn 0.3826 0.9239 -0.0018
vn 0.1950 0.9623 -0.1896
vn 0.0006 1.0000 -0.0018
vn 0.0017 0.9239 -0.3826
vn 0.0023 1.0000 0.0010
vn -0.0010 1.0000 -0.0023
vn -0.0018 1.0000 0.0018
vn 0.0782 0.9004 0.4280
vn 0.4280 0.9004 0.0782
vn -0.0141 0.9998 -0.0141
vn -0.0005 0.9239 0.3826
vn -0.1933 0.9623 0.1914
vn -0.4280 0.9004 0.0782
vn -0.0782 0.9004 0.4280
vn 0.0141 0.9998 -0.0141
vn -0.3827 0.9239 -0.0005
vn -0.1914 0.9623 -0.1933
vn -0.0018 1.0000 -0.0018
vn -0.4022 0.8231 0.4009
vn -0.0689 0.6739 0.7356
vn 0.0024 0.9257 0.3782
vn -0.0003 0.7071 0.7071
vn -0.1951 0.8155 0.5449
vn -0.0018 0.9239 0.3827
vn -0.0689 0.7356 0.6739
vn -0.4022 0.4009 0.8231
vn 0.0025 0.3782 0.9257
vn -0.0005 0.3827 0.9239
vn -0.1950 0.5449 0.8155
vn -0.0015 0.7071 0.7071
vn 0.0689 0.6739 0.7356
vn 0.4022 0.8231 0.4009
vn -0.0025 0.9257 0.3782
vn 0.4022 0.4009 0.8231
vn 0.0689 0.7356 0.6739
vn -0.0029 0.3786 0.9256
vn 0.0018 0.0018 1.0000
vn 0.3453 0.3454 0.8726
vn 0.0013 0.3830 0.9237
vn -0.0023 0.0035 1.0000
vn -0.1954 0.1913 0.9619
vn -0.0018 0.3826 0.9239
vn 0.7356 0.0689 0.6739
vn 0.4009 0.4022 0.8231
vn 0.3786 -0.0029 0.9256
vn 0.3830 0.0013 0.9238
vn 0.3454 0.3454 0.8726
vn 0.5773 0.5773 0.5774
vn 0.2762 0.6914 0.6677
vn 0.6914 0.2762 0.6676
vn 0.5774 0.5773 0.5774
vn 0.3142 0.8623 0.3972
vn 0.5218 0.5976 0.6088
vn 0.6920 0.6683 0.2728
vn 0.8623 0.3972 0.3141
vn 0.5976 0.6088 0.5217
vn 0.6848 0.2502 0.6844
vn 0.4009 0.8231 0.4023
vn 0.7356 0.6739 0.0689
vn 0.3782 0.9257 -0.0024
vn 0.6739 0.7356 0.0689
vn 0.8231 0.4009 0.4022
vn 0.9257 0.3782 -0.0024
vn 0.9004 0.4280 0.0782
vn 0.9004 0.0781 0.4280
vn 0.9998 -0.0141 -0.0141
vn 0.8231 0.4022 0.4009
vn 0.6739 0.0689 0.7356
vn 0.9257 -0.0024 0.3782
vn 0.9239 0.3826 -0.0005
vn 0.9623 0.1914 -0.1933
vn 1.0000 0.0018 -0.0018
vn 0.7071 0.7071 -0.0003
vn 0.8155 0.5449 -0.1951
vn 0.9239 0.3827 -0.0018
vn 0.9004 0.0782 -0.4280
vn 0.9004 0.4280 -0.0782
vn 0.9998 -0.0141 0.0141
vn 0.8231 0.4009 -0.4022
vn 0.6739 0.7356 -0.0688
vn 0.9257 0.3782 0.0024
vn 0.7356 0.6739 -0.0689
vn 0.4009 0.8231 -0.4022
vn 0.3783 0.9257 0.0024
vn 0.3827 0.9239 -0.0005
vn 0.5449 0.8155 -0.1950
vn 0.7071 0.7071 -0.0015
vn 0.3972 0.8623 -0.3142
vn 0.6088 0.5976 -0.5218
vn 0.2728 0.6683 -0.6920
vn 0.8623 0.3142 -0.3972
vn 0.5976 0.5217 -0.6088
vn 0.6683 0.6920 -0.2728
vn 0.3141 0.3972 -0.8623
vn 0.5217 0.6088 -0.5976
vn 0.6920 0.2729 -0.6683
vn 0.4009 0.4022 -0.8231
vn 0.7356 0.0689 -0.6739
vn 0.3782 -0.0024 -0.9257
vn 0.6739 0.0689 -0.7356
vn 0.8231 0.4023 -0.4009
vn 0.9257 -0.0024 -0.3782
vn 0.0782 0.4280 -0.9004
vn 0.4280 0.0781 -0.9004
vn -0.0141 -0.0141 -0.9998
vn 0.0689 0.7356 -0.6739
vn 0.4022 0.4009 -0.8231
vn -0.0025 0.3782 -0.9257
vn -0.0005 0.3826 -0.9239
vn -0.1933 0.1914 -0.9623
vn -0.0018 0.0018 -1.0000
vn -0.0003 0.7071 -0.7071
vn -0.1951 0.5449 -0.8155
vn -0.0017 0.3827 -0.9239
vn -0.4280 0.0782 -0.9004
vn -0.0781 0.4280 -0.9004
vn 0.0141 -0.0141 -0.9998
vn -0.4022 0.4009 -0.8231
vn -0.0689 0.7356 -0.6739
vn 0.0025 0.3782 -0.9257
vn -0.0689 0.6738 -0.7357
vn -0.4022 0.8231 -0.4009
vn 0.0024 0.9257 -0.3782
vn 0.1950 0.8165 -0.5434
vn 0.0005 0.9239 -0.3827
vn 0.0015 0.7071 -0.7071
vn -0.3141 0.8623 -0.3972
vn -0.5218 0.5976 -0.6088
vn -0.6844 0.6848 -0.2502
vn -0.3972 0.3142 -0.8623
vn -0.6088 0.5218 -0.5976
vn -0.2729 0.6920 -0.6683
vn -0.6676 0.6914 -0.2762
vn -0.5774 0.5773 -0.5773
vn -0.8726 0.3454 -0.3454
vn -0.5774 0.5773 -0.5774
vn -0.6676 0.2762 -0.6914
vn -1.0000 0.0018 -0.0018
vn -0.8726 0.3453 -0.3453
vn -0.9238 0.0013 -0.3830
vn -0.8231 0.4022 -0.4009
vn -0.6739 0.0689 -0.7356
vn -0.9256 -0.0029 -0.3786
vn -0.6739 0.7356 -0.0689
vn -0.8231 0.4009 -0.4022
vn -0.9256 0.3786 0.0029
vn -0.9237 0.3830 -0.0013
vn -0.8726 0.3453 -0.3454
vn -1.0000 0.0018 -0.0006
vn -0.9619 0.1913 -0.1950
vn -0.9238 0.3830 -0.0013
vn -1.0000 -0.0023 -0.0035
vn -0.9619 -0.1954 -0.1913
vn -0.9239 -0.0017 -0.3826
vn -1.0000 -0.0035 -0.0035
vn -1.0000 -0.0018 0.0018
vn -1.0000 0.0035 0.0035
vn -1.0000 -0.0018 0.0006
vn -0.9619 -0.1913 0.1950
vn -0.9238 -0.3828 0.0015
vn -0.9238 -0.3828 0.0016
vn -0.8755 -0.3417 0.3417
vn -0.9238 -0.0016 0.3828
vn -0.9238 -0.0003 0.3828
vn -0.9626 -0.1917 0.1915
vn -0.7962 -0.4369 0.4186
vn -0.6074 -0.1359 0.7827
vn -0.8996 -0.0569 0.4329
vn -0.6074 -0.7827 0.1359
vn -0.7962 -0.4186 0.4368
vn -0.8996 -0.4329 0.0569
vn -0.8755 -0.3418 0.3417
vn -0.5774 -0.5774 0.5773
vn -0.6768 -0.2897 0.6768
vn -0.6768 -0.6768 0.2898
vn -0.5774 -0.5773 0.5774
vn -0.3418 -0.3417 0.8755
vn -0.5773 -0.5773 0.5774
vn -0.2897 -0.6768 0.6768
vn -0.2898 -0.6768 0.6768
vn -0.3418 -0.8755 0.3417
vn -0.5773 -0.5774 0.5774
vn -0.3417 -0.3418 0.8755
vn -0.3417 -0.8755 0.3418
vn -0.5773 -0.5774 0.5773
vn -0.6768 -0.6768 0.2897
vn -0.0018 -0.0018 1.0000
vn -0.3417 -0.3417 0.8755
vn -0.0016 -0.3828 0.9238
vn -0.4369 -0.4186 0.7962
vn -0.1359 -0.7827 0.6074
vn -0.0570 -0.4329 0.8996
vn -0.7827 -0.1359 0.6074
vn -0.4186 -0.4368 0.7962
vn -0.4329 -0.0569 0.8996
vn -0.3828 -0.0016 0.9238
vn -0.0018 -0.0006 1.0000
vn -0.1913 -0.1950 0.9619
vn -0.3828 -0.0015 0.9238
vn -0.0003 -0.3828 0.9238
vn -0.1917 -0.1915 0.9626
vn -0.0035 0.0035 1.0000
vn 0.0035 -0.0035 1.0000
vn 0.0782 -0.4280 0.9004
vn 0.4280 -0.0782 0.9004
vn -0.0124 0.0123 0.9998
vn 0.0018 0.0006 1.0000
vn 0.1914 0.1950 0.9619
vn 0.3830 0.0013 0.9237
vn 0.4009 -0.4022 0.8231
vn 0.7356 -0.0689 0.6739
vn 0.3782 0.0024 0.9257
vn 0.3831 0.0001 0.9237
vn 0.5449 0.1950 0.8155
vn 0.7071 0.0015 0.7072
vn 0.6739 -0.0689 0.7356
vn 0.8231 -0.4022 0.4009
vn 0.9257 0.0025 0.3782
vn 0.7071 0.0003 0.7071
vn 0.8155 0.1951 0.5449
vn 0.9239 0.0018 0.3827
vn 0.9004 -0.0782 0.4280
vn 0.9004 -0.4280 0.0782
vn 0.9998 0.0141 -0.0141
vn 0.9239 0.0005 0.3826
vn 0.9623 0.1933 0.1914
vn 1.0000 0.0018 0.0018
vn 0.8231 -0.4009 0.4023
vn 0.6739 -0.7356 0.0688
vn 0.9257 -0.3782 -0.0024
vn 0.8623 -0.3142 0.3971
vn 0.5976 -0.5218 0.6088
vn 0.6683 -0.6920 0.2728
vn 0.7356 -0.6739 0.0689
vn 0.4009 -0.8231 0.4022
vn 0.3782 -0.9257 -0.0025
vn 0.3972 -0.8623 0.3142
vn 0.6088 -0.5976 0.5218
vn 0.2728 -0.6683 0.6920
vn 0.4280 -0.9004 0.0782
vn 0.0781 -0.9004 0.4280
vn -0.0123 -0.9998 -0.0124
vn 0.4022 -0.8231 0.4009
vn 0.0689 -0.6739 0.7356
vn -0.0024 -0.9257 0.3782
vn 0.0689 -0.7356 0.6739
vn 0.4022 -0.4009 0.8231
vn -0.0025 -0.3782 0.9257
vn 0.3142 -0.3972 0.8623
vn 0.5218 -0.6088 0.5976
vn 0.6920 -0.2728 0.6683
vn -0.0006 -0.7071 0.7071
vn -0.1951 -0.5449 0.8155
vn -0.0015 -0.3829 0.9238
vn -0.0003 -0.9238 0.3829
vn -0.1950 -0.8155 0.5449
vn -0.0018 -0.7071 0.7071
vn -0.1359 -0.6074 0.7827
vn -0.4369 -0.7962 0.4186
vn -0.0569 -0.8996 0.4329
vn -0.0006 -1.0000 0.0018
vn -0.1950 -0.9619 0.1913
vn -0.0015 -0.9238 0.3828
vn -0.0016 -0.9238 0.3828
vn -0.3417 -0.8755 0.3417
vn -0.0018 -1.0000 0.0018
vn -0.3828 -0.9238 0.0016
vn -0.3828 -0.9238 0.0003
vn -0.1915 -0.9626 0.1917
vn 0.0018 -1.0000 -0.0018
vn -0.0035 -1.0000 -0.0035
vn 0.0035 -1.0000 0.0035
vn -0.0005 -0.9239 -0.3827
vn -0.1933 -0.9623 -0.1914
vn 0.0013 -0.9237 -0.3830
vn 0.3453 -0.8726 -0.3453
vn 0.3454 -0.8726 -0.3453
vn 0.3830 -0.9237 -0.0013
vn 0.3830 -0.9237 -0.0001
vn 0.1915 -0.9626 -0.1917
vn 0.4009 -0.8231 -0.4022
vn 0.7356 -0.6739 -0.0689
vn 0.3785 -0.9256 0.0029
vn 0.0689 -0.6739 -0.7356
vn 0.4022 -0.8231 -0.4009
vn -0.0029 -0.9256 -0.3786
vn 0.3454 -0.8726 -0.3454
vn 0.5774 -0.5774 -0.5773
vn 0.6914 -0.6676 -0.2762
vn 0.2762 -0.6676 -0.6914
vn 0.5773 -0.5774 -0.5773
vn 0.3972 -0.3141 -0.8623
vn 0.6088 -0.5218 -0.5976
vn 0.2501 -0.6844 -0.6848
vn 0.8623 -0.3972 -0.3142
vn 0.5976 -0.6087 -0.5218
vn 0.6683 -0.2728 -0.6920
vn 0.7356 -0.0689 -0.6739
vn 0.4009 -0.4022 -0.8231
vn 0.3782 0.0025 -0.9257
vn 0.8231 -0.4022 -0.4009
vn 0.6739 -0.0689 -0.7356
vn 0.9257 0.0025 -0.3782
vn 0.9004 -0.4280 -0.0782
vn 0.9004 -0.0782 -0.4280
vn 0.9998 0.0141 0.0141
vn 0.6739 -0.7356 -0.0689
vn 0.8231 -0.4009 -0.4022
vn 0.9257 -0.3782 0.0025
vn 1.0000 -0.0018 -0.0006
vn 0.9619 -0.1913 -0.1950
vn 0.9239 -0.3826 -0.0018
vn 0.9239 -0.3827 -0.0005
vn 0.8155 -0.5449 -0.1950
vn 0.7071 -0.7071 -0.0015
vn 0.5464 -0.8145 0.1947
vn 0.7071 -0.7071 0.0003
vn 0.3827 -0.9239 0.0017
vn 1.0000 0.0006 -0.0018
vn 0.9619 0.1950 -0.1914
vn 0.9239 0.0018 -0.3827
vn 1.0000 -0.0023 0.0010
vn 1.0000 0.0010 -0.0023
vn 0.9239 0.0005 -0.3827
vn 0.8155 0.1950 -0.5449
vn 0.7071 0.0015 -0.7071
vn 0.7071 0.0003 -0.7071
vn 0.5449 0.1951 -0.8155
vn 0.3827 0.0017 -0.9239
vn 0.4280 -0.0782 -0.9004
vn 0.0781 -0.4280 -0.9004
vn -0.0141 0.0141 -0.9998
vn 0.3826 0.0005 -0.9239
vn 0.1914 0.1933 -0.9623
vn 0.0018 0.0018 -1.0000
vn -0.0006 -0.0018 -1.0000
vn -0.1950 -0.1913 -0.9620
vn -0.0018 -0.3826 -0.9239
vn 0.0023 0.0010 -1.0000
vn -0.0010 -0.0023 -1.0000
vn -0.0782 -0.4280 -0.9004
vn -0.4280 -0.0781 -0.9004
vn 0.0141 0.0141 -0.9998
vn -0.3826 -0.0005 -0.9239
vn -0.1914 -0.1933 -0.9623
vn -0.0018 -0.0018 -1.0000
vn -0.4009 -0.4022 -0.8231
vn -0.7356 -0.0688 -0.6739
vn -0.3782 0.0025 -0.9257
vn -0.7071 -0.0003 -0.7071
vn -0.5449 -0.1951 -0.8155
vn -0.3827 -0.0018 -0.9239
vn -0.7356 0.0689 -0.6739
vn -0.4009 0.4022 -0.8231
vn -0.3782 -0.0025 -0.9257
vn -0.9239 -0.0005 -0.3827
vn -0.8155 -0.1950 -0.5449
vn -0.7071 -0.0015 -0.7071
vn -0.6739 -0.0689 -0.7356
vn -0.8231 -0.4022 -0.4009
vn -0.9257 0.0024 -0.3782
vn -0.9004 -0.0782 -0.4280
vn -0.9004 -0.4280 -0.0781
vn -0.9998 0.0124 0.0124
vn -0.8231 -0.4009 -0.4022
vn -0.6739 -0.7356 -0.0689
vn -0.9257 -0.3782 0.0024
vn -0.8623 -0.3142 -0.3972
vn -0.5976 -0.5218 -0.6088
vn -0.6683 -0.6921 -0.2728
vn -0.7356 -0.6739 -0.0689
vn -0.4009 -0.8231 -0.4022
vn -0.3782 -0.9257 0.0025
vn -0.3972 -0.8623 -0.3142
vn -0.6088 -0.5976 -0.5218
vn -0.2729 -0.6683 -0.6920
vn -0.3142 -0.3972 -0.8623
vn -0.5218 -0.6088 -0.5976
vn -0.6920 -0.2728 -0.6683
vn -0.4022 -0.8231 -0.4009
vn -0.0689 -0.6739 -0.7356
vn 0.0024 -0.9257 -0.3782
vn -0.0689 -0.7356 -0.6739
vn -0.4022 -0.4009 -0.8231
vn 0.0025 -0.3782 -0.9257
vn -0.0003 -0.7071 -0.7071
vn -0.1947 -0.8156 -0.5449
vn -0.0018 -0.9239 -0.3827
vn -0.0005 -0.3827 -0.9239
vn -0.1950 -0.5449 -0.8155
vn -0.0015 -0.7071 -0.7071
vn 0.4022 -0.4009 -0.8231
vn 0.0689 -0.7356 -0.6739
vn -0.0024 -0.3782 -0.9257
vn -0.4280 -0.9004 -0.0782
vn -0.0781 -0.9004 -0.4280
vn 0.0123 -0.9998 0.0124
vn -0.7071 -0.7071 0.0006
vn -0.5449 -0.8155 0.1951
vn -0.3829 -0.9238 0.0015
vn -0.9238 -0.3829 0.0003
vn -0.8155 -0.5449 0.1950
vn -0.7071 -0.7071 0.0018
vn -0.4186 -0.7962 0.4369
vn -0.7827 -0.6074 0.1359
vn -0.4329 -0.8996 0.0570
vn -0.0782 0.4280 0.9004
vn -0.4280 0.0782 0.9004
vn 0.0124 -0.0123 0.9998
vn -0.4009 0.4022 0.8231
vn -0.7356 0.0689 0.6739
vn -0.3782 -0.0025 0.9257
vn -0.3829 -0.0003 0.9238
vn -0.5449 -0.1950 0.8155
vn -0.7071 -0.0018 0.7071
vn -0.6739 0.0689 0.7356
vn -0.8231 0.4022 0.4009
vn -0.9257 -0.0025 0.3782
vn -0.8145 0.1949 0.5464
vn -0.7071 0.0003 0.7071
vn -0.9239 0.0017 0.3827
vn -0.9004 0.0782 0.4280
vn -0.9004 0.4280 0.0782
vn -0.9998 -0.0124 -0.0123
vn -0.8231 0.4009 0.4022
vn -0.6739 0.7356 0.0689
vn -0.9257 0.3782 -0.0024
vn -0.8623 0.3142 0.3972
vn -0.5976 0.5218 0.6088
vn -0.6683 0.6920 0.2728
vn -0.7356 0.6739 0.0689
vn -0.4009 0.8231 0.4022
vn -0.3782 0.9257 -0.0025
vn -0.3972 0.8623 0.3142
vn -0.6088 0.5976 0.5218
vn -0.2729 0.6683 0.6920
vn -0.3142 0.3972 0.8623
vn -0.5218 0.6088 0.5976
vn -0.6920 0.2729 0.6683
vn -0.9237 0.3831 -0.0001
vn -0.8155 0.5449 -0.1950
vn -0.7071 0.7071 -0.0015
vn -0.7071 0.7071 -0.0003
vn -0.5449 0.8155 -0.1951
vn -0.3827 0.9239 -0.0017
vn -0.4009 0.8231 -0.4022
vn -0.7356 0.6739 -0.0689
vn -0.3782 0.9257 0.0024
vn -0.0782 0.9004 -0.4280
vn -0.4280 0.9004 -0.0781
vn 0.0141 0.9998 0.0141
vn 0.4023 0.8231 -0.4009
vn 0.0689 0.6739 -0.7356
vn -0.0024 0.9257 -0.3782
vn 0.3058 0.9514 0.0372
vn 0.3580 0.8624 -0.3580
vn -0.0372 0.9514 -0.3057
vn 0.1914 0.9623 0.1933
vn 0.0018 1.0000 0.0018
vn 0.3827 0.9239 0.0005
vn -0.0005 0.9239 -0.3826
vn -0.1933 0.9619 -0.1932
vn 0.0010 1.0000 0.0023
vn 0.0018 1.0000 -0.0018
vn -0.0023 1.0000 -0.0010
vn -0.0372 0.9514 0.3058
vn 0.3580 0.8624 0.3579
vn 0.3057 0.9514 -0.0372
vn 0.1950 0.9619 0.1913
vn 0.0018 0.9239 0.3826
vn 0.0006 1.0000 0.0018
vn -0.3057 0.9514 -0.0372
vn -0.3580 0.8624 0.3580
vn 0.0372 0.9514 0.3057
vn -0.1913 0.9620 0.1950
vn -0.3826 0.9239 0.0017
vn -0.0018 1.0000 0.0006
vn -0.2459 0.9164 0.3158
vn -0.3030 0.6693 0.6784
vn 0.0560 0.7653 0.6412
vn 0.1950 0.8155 0.5449
vn 0.0015 0.7071 0.7071
vn 0.0005 0.9239 0.3827
vn 0.0560 0.6412 0.7653
vn -0.3030 0.6784 0.6693
vn -0.2458 0.3157 0.9164
vn 0.1951 0.5449 0.8155
vn 0.0013 0.3831 0.9237
vn 0.0003 0.7071 0.7071
vn -0.0560 0.7653 0.6412
vn 0.2807 0.6860 0.6713
vn 0.2458 0.9164 0.3157
vn 0.2459 0.3157 0.9164
vn 0.2806 0.6950 0.6620
vn -0.0560 0.6412 0.7653
vn 0.1917 0.1915 0.9626
vn 0.0001 0.3830 0.9237
vn 0.6412 -0.0560 0.7653
vn 0.6950 0.2806 0.6620
vn 0.3158 0.2459 0.9164
vn 0.3972 0.8623 0.3142
vn 0.2501 0.6848 0.6845
vn 0.6088 0.5976 0.5218
vn 0.8623 0.3142 0.3972
vn 0.6683 0.6920 0.2729
vn 0.5976 0.5218 0.6088
vn 0.3157 0.9164 0.2459
vn 0.6784 0.6693 0.3030
vn 0.6412 0.7653 -0.0560
vn 0.7653 0.6412 -0.0560
vn 0.6693 0.6784 0.3030
vn 0.9164 0.3158 0.2459
vn 0.9514 0.3057 -0.0372
vn 0.8624 0.3580 0.3580
vn 0.9514 -0.0372 0.3057
vn 0.9164 0.2459 0.3158
vn 0.6860 0.2807 0.6713
vn 0.7653 -0.0560 0.6412
vn 0.9619 0.1913 0.1950
vn 0.9239 0.3826 0.0018
vn 1.0000 0.0018 0.0006
vn 0.8155 0.5449 0.1950
vn 0.7072 0.7070 0.0015
vn 0.9239 0.3827 0.0005
vn 0.9514 -0.0372 -0.3057
vn 0.8624 0.3580 -0.3579
vn 0.9514 0.3057 0.0372
vn 0.9164 0.3157 -0.2459
vn 0.6693 0.6784 -0.3030
vn 0.7653 0.6412 0.0560
vn 0.6412 0.7653 0.0560
vn 0.6784 0.6693 -0.3030
vn 0.3157 0.9165 -0.2458
vn 0.5449 0.8155 0.1951
vn 0.3827 0.9239 0.0017
vn 0.7071 0.7071 0.0003
vn 0.3142 0.8623 -0.3972
vn 0.6920 0.6683 -0.2729
vn 0.5218 0.5976 -0.6088
vn 0.8623 0.3972 -0.3142
vn 0.6683 0.2728 -0.6920
vn 0.5976 0.6088 -0.5218
vn 0.3971 0.3142 -0.8623
vn 0.2729 0.6920 -0.6683
vn 0.6088 0.5218 -0.5976
vn 0.3157 0.2459 -0.9164
vn 0.6784 0.3030 -0.6693
vn 0.6412 -0.0560 -0.7653
vn 0.7653 -0.0560 -0.6412
vn 0.6693 0.3030 -0.6784
vn 0.9164 0.2459 -0.3157
vn -0.0372 0.3058 -0.9514
vn 0.3580 0.3580 -0.8624
vn 0.3057 -0.0372 -0.9514
vn -0.0560 0.6412 -0.7653
vn 0.3030 0.6784 -0.6693
vn 0.2458 0.3157 -0.9164
vn 0.1950 0.1913 -0.9619
vn 0.0018 0.3826 -0.9239
vn 0.0006 0.0018 -1.0000
vn 0.1950 0.5449 -0.8155
vn 0.0005 0.3827 -0.9239
vn -0.3057 -0.0372 -0.9514
vn -0.3579 0.3580 -0.8624
vn 0.0372 0.3057 -0.9514
vn -0.2459 0.3158 -0.9164
vn -0.3030 0.6784 -0.6692
vn 0.0560 0.6412 -0.7653
vn 0.0560 0.7653 -0.6412
vn -0.3030 0.6693 -0.6784
vn -0.2458 0.9164 -0.3157
vn -0.0017 0.9239 -0.3827
vn -0.1951 0.8145 -0.5464
vn -0.3971 0.8623 -0.3142
vn -0.2729 0.6683 -0.6920
vn -0.6088 0.5976 -0.5218
vn -0.3142 0.3971 -0.8623
vn -0.6845 0.2501 -0.6848
vn -0.5218 0.6088 -0.5976
vn -0.9164 0.2459 -0.3158
vn -0.6620 0.2806 -0.6950
vn -0.7653 -0.0560 -0.6412
vn -0.7653 0.6412 0.0560
vn -0.6620 0.6950 -0.2806
vn -0.9164 0.3157 -0.2459
vn -0.9623 0.1914 0.1933
vn -0.9239 0.3827 0.0005
vn -0.9626 0.1917 -0.1915
vn -0.9238 0.0001 -0.3830
vn -0.9623 -0.1914 -0.1933
vn -0.9239 -0.3826 -0.0005
vn -0.9619 0.1952 0.1914
vn -1.0000 0.0023 0.0035
vn -0.9459 -0.2057 0.2511
vn -0.7397 -0.2343 0.6308
vn -0.8021 0.1450 0.5793
vn -0.8021 -0.5793 -0.1449
vn -0.7397 -0.6308 0.2343
vn -0.9459 -0.2511 0.2056
vn -0.2057 -0.2511 0.9459
vn -0.2343 -0.6308 0.7397
vn 0.1450 -0.5792 0.8022
vn -0.5793 0.1450 0.8021
vn -0.6308 -0.2343 0.7397
vn -0.2511 -0.2057 0.9459
vn -0.1914 0.1933 0.9623
vn -0.3826 0.0005 0.9239
vn 0.1952 -0.1913 0.9619
vn 0.0018 -0.3826 0.9239
vn 0.0023 -0.0035 1.0000
vn -0.0372 -0.3057 0.9514
vn 0.3580 -0.3579 0.8624
vn 0.3057 0.0372 0.9514
vn 0.1914 -0.1933 0.9623
vn 0.3826 -0.0005 0.9239
vn 0.3158 -0.2459 0.9164
vn 0.6784 -0.3030 0.6693
vn 0.6412 0.0560 0.7653
vn 0.5450 -0.1947 0.8156
vn 0.3827 -0.0018 0.9239
vn 0.7071 -0.0003 0.7071
vn 0.7653 0.0560 0.6412
vn 0.6693 -0.3030 0.6784
vn 0.9164 -0.2459 0.3157
vn 0.8155 -0.1950 0.5449
vn 0.7071 -0.0015 0.7071
vn 0.9239 -0.0005 0.3827
vn 0.9514 0.0372 0.3057
vn 0.8624 -0.3580 0.3580
vn 0.9514 -0.3057 -0.0372
vn 0.9619 -0.1950 0.1913
vn 0.9239 -0.0018 0.3826
vn 1.0000 -0.0006 0.0018
vn 0.9164 -0.3157 0.2459
vn 0.6693 -0.6784 0.3030
vn 0.7653 -0.6412 -0.0560
vn 0.8623 -0.3972 0.3142
vn 0.6683 -0.2729 0.6921
vn 0.5976 -0.6088 0.5218
vn 0.6412 -0.7653 -0.0560
vn 0.6784 -0.6693 0.3030
vn 0.3158 -0.9164 0.2458
vn 0.3142 -0.8623 0.3971
vn 0.6920 -0.6683 0.2729
vn 0.5218 -0.5976 0.6088
vn 0.3057 -0.9514 -0.0372
vn 0.3580 -0.8624 0.3580
vn -0.0372 -0.9514 0.3057
vn 0.2459 -0.9164 0.3158
vn 0.3030 -0.6692 0.6784
vn -0.0560 -0.7653 0.6412
vn -0.0560 -0.6412 0.7653
vn 0.3031 -0.6784 0.6693
vn 0.2459 -0.3158 0.9164
vn 0.3971 -0.3143 0.8623
vn 0.2729 -0.6920 0.6683
vn 0.6088 -0.5218 0.5976
vn 0.1950 -0.5449 0.8155
vn 0.0015 -0.7071 0.7071
vn 0.0005 -0.3827 0.9239
vn 0.1949 -0.8155 0.5449
vn 0.0017 -0.9239 0.3827
vn 0.0003 -0.7071 0.7071
vn 0.1450 -0.8021 0.5793
vn -0.2343 -0.7397 0.6308
vn -0.2057 -0.9459 0.2511
vn 0.1933 -0.9623 0.1914
vn 0.0005 -0.9239 0.3827
vn -0.1913 -0.9619 -0.1952
vn -0.3826 -0.9239 -0.0018
vn -0.0035 -1.0000 -0.0023
vn 0.1950 -0.9619 -0.1913
vn 0.0006 -1.0000 -0.0018
vn 0.1913 -0.9619 0.1954
vn 0.3826 -0.9239 0.0018
vn 0.0035 -1.0000 0.0023
vn 0.3158 -0.9164 -0.2459
vn 0.6950 -0.6620 -0.2806
vn 0.6412 -0.7653 0.0560
vn -0.0560 -0.7653 -0.6412
vn 0.2806 -0.6620 -0.6950
vn 0.2459 -0.9164 -0.3157
vn 0.3142 -0.3972 -0.8623
vn 0.6920 -0.2729 -0.6683
vn 0.5218 -0.6088 -0.5976
vn 0.8623 -0.3142 -0.3971
vn 0.6848 -0.6845 -0.2501
vn 0.5976 -0.5218 -0.6087
vn 0.6412 0.0560 -0.7653
vn 0.6784 -0.3030 -0.6693
vn 0.3158 -0.2458 -0.9164
vn 0.9164 -0.2459 -0.3157
vn 0.6693 -0.3030 -0.6784
vn 0.7653 0.0560 -0.6412
vn 0.9514 -0.3057 0.0372
vn 0.8624 -0.3579 -0.3580
vn 0.9514 0.0372 -0.3057
vn 0.7653 -0.6412 0.0560
vn 0.6860 -0.6713 -0.2807
vn 0.9164 -0.3157 -0.2459
vn 0.9623 -0.1914 0.1933
vn 1.0000 -0.0018 0.0018
vn 0.9239 -0.3826 0.0005
vn 0.8155 -0.5449 0.1951
vn 0.9239 -0.3827 0.0017
vn 0.5434 -0.8165 -0.1950
vn 0.9623 -0.1933 -0.1914
vn 1.0000 -0.0018 -0.0018
vn 0.9239 -0.0005 -0.3826
vn 1.0000 -0.0010 0.0023
vn 1.0000 0.0023 -0.0010
vn 0.8155 -0.1951 -0.5449
vn 0.9239 -0.0018 -0.3827
vn 0.7071 -0.0003 -0.7071
vn 0.5449 -0.1950 -0.8155
vn 0.7071 -0.0015 -0.7071
vn 0.3827 -0.0005 -0.9239
vn 0.3057 0.0372 -0.9514
vn 0.3580 -0.3580 -0.8624
vn -0.0372 -0.3057 -0.9514
vn 0.1913 -0.1950 -0.9619
vn 0.3826 -0.0017 -0.9239
vn 0.0018 -0.0006 -1.0000
vn 0.1933 -0.1914 -0.9623
vn 0.0018 -0.0018 -1.0000
vn 0.0005 -0.3826 -0.9239
vn 0.0010 0.0023 -1.0000
vn -0.0023 -0.0010 -1.0000
vn 0.0372 -0.3057 -0.9514
vn -0.3580 -0.3580 -0.8624
vn -0.3057 0.0372 -0.9514
vn -0.1913 0.1950 -0.9619
vn -0.3826 0.0018 -0.9239
vn -0.0018 0.0006 -1.0000
vn -0.3158 -0.2459 -0.9164
vn -0.6784 -0.3030 -0.6692
vn -0.6412 0.0560 -0.7653
vn -0.5449 0.1950 -0.8155
vn -0.7071 0.0015 -0.7071
vn -0.3827 0.0005 -0.9239
vn -0.6412 -0.0560 -0.7653
vn -0.6713 0.2807 -0.6860
vn -0.3158 0.2459 -0.9164
vn -0.8155 0.1951 -0.5449
vn -0.9237 0.0013 -0.3830
vn -0.7071 0.0003 -0.7071
vn -0.7653 0.0560 -0.6412
vn -0.6693 -0.3030 -0.6784
vn -0.9164 -0.2459 -0.3158
vn -0.9514 0.0372 -0.3057
vn -0.8624 -0.3580 -0.3580
vn -0.9514 -0.3057 0.0372
vn -0.9164 -0.3158 -0.2459
vn -0.6693 -0.6784 -0.3030
vn -0.7653 -0.6412 0.0560
vn -0.8623 -0.3971 -0.3142
vn -0.6683 -0.2728 -0.6920
vn -0.5976 -0.6088 -0.5218
vn -0.6412 -0.7653 0.0560
vn -0.6784 -0.6692 -0.3031
vn -0.3158 -0.9164 -0.2459
vn -0.3142 -0.8623 -0.3971
vn -0.6920 -0.6683 -0.2729
vn -0.5218 -0.5976 -0.6088
vn -0.3971 -0.3142 -0.8623
vn -0.2729 -0.6920 -0.6683
vn -0.6088 -0.5218 -0.5976
vn -0.2459 -0.9164 -0.3158
vn -0.3030 -0.6693 -0.6784
vn 0.0560 -0.7653 -0.6412
vn 0.0560 -0.6412 -0.7653
vn -0.3031 -0.6784 -0.6692
vn -0.2459 -0.3158 -0.9164
vn 0.1950 -0.8155 -0.5449
vn 0.0015 -0.7071 -0.7071
vn 0.0001 -0.9237 -0.3831
vn 0.1951 -0.5449 -0.8155
vn 0.0017 -0.3827 -0.9239
vn 0.0003 -0.7071 -0.7071
vn 0.2459 -0.3157 -0.9164
vn 0.2807 -0.6713 -0.6860
vn -0.0560 -0.6412 -0.7653
vn -0.3057 -0.9514 0.0372
vn -0.3579 -0.8624 -0.3580
vn 0.0372 -0.9514 -0.3057
vn -0.5449 -0.8155 -0.1950
vn -0.7071 -0.7071 -0.0015
vn -0.3827 -0.9239 -0.0005
vn -0.8155 -0.5449 -0.1949
vn -0.9239 -0.3827 -0.0017
vn -0.7071 -0.7071 -0.0003
vn -0.2511 -0.9459 0.2057
vn -0.6308 -0.7397 0.2343
vn -0.5793 -0.8021 -0.1450
vn 0.0372 0.3057 0.9514
vn -0.3580 0.3579 0.8624
vn -0.3057 -0.0372 0.9514
vn -0.3158 0.2459 0.9164
vn -0.6784 0.3030 0.6693
vn -0.6412 -0.0560 0.7653
vn -0.5449 0.1949 0.8155
vn -0.3827 0.0018 0.9239
vn -0.7653 -0.0560 0.6412
vn -0.6692 0.3030 0.6784
vn -0.9164 0.2459 0.3157
vn -0.9238 -0.0003 0.3829
vn -0.8165 -0.1950 0.5434
vn -0.9514 -0.0372 0.3057
vn -0.8624 0.3580 0.3579
vn -0.9514 0.3057 -0.0372
vn -0.9164 0.3157 0.2459
vn -0.6693 0.6784 0.3030
vn -0.7653 0.6412 -0.0560
vn -0.8623 0.3972 0.3142
vn -0.6683 0.2728 0.6921
vn -0.5976 0.6088 0.5218
vn -0.6412 0.7653 -0.0560
vn -0.6784 0.6693 0.3030
vn -0.3157 0.9164 0.2459
vn -0.3142 0.8623 0.3971
vn -0.6921 0.6683 0.2728
vn -0.5218 0.5976 0.6088
vn -0.3972 0.3142 0.8623
vn -0.2728 0.6920 0.6683
vn -0.6088 0.5218 0.5976
vn -0.8156 0.5449 0.1947
vn -0.9239 0.3827 0.0017
vn -0.7071 0.7071 0.0003
vn -0.5449 0.8155 0.1950
vn -0.7071 0.7071 0.0015
vn -0.3827 0.9239 0.0005
vn -0.3158 0.9164 -0.2459
vn -0.6713 0.6860 -0.2807
vn -0.6412 0.7653 0.0560
vn 0.0372 0.9514 -0.3057
vn -0.3580 0.8624 -0.3580
vn -0.3057 0.9514 0.0372
vn 0.2459 0.9164 -0.3157
vn 0.3030 0.6693 -0.6784
vn -0.0560 0.7653 -0.6412
vt 0.011655 0.526572
vt 0.013651 0.522719
vt 0.013683 0.526632
vt 0.011682 0.957291
vt 0.236926 0.522639
vt 0.013721 0.957155
vt 0.236856 0.526563
vt 0.236889 0.957064
vt 0.013719 0.961027
vt 0.236981 0.960733
vt 0.238794 0.957232
vt 0.238861 0.526560
vt 0.238868 0.960872
vt 0.237174 0.964379
vt 0.239474 0.966613
vt 0.237471 0.968168
vt 0.013667 0.964907
vt 0.011640 0.961405
vt 0.011406 0.968134
vt 0.013599 0.968863
vt 0.013528 0.972891
vt 0.237826 0.972251
vt 0.484736 0.968940
vt 0.487009 0.972177
vt 0.484806 0.972915
vt 0.484878 0.976963
vt 0.010331 0.964430
vt 0.011662 0.964695
vt 0.486749 0.968724
vt 0.488084 0.968453
vt 0.009891 0.961803
vt 0.486768 0.965423
vt 0.009590 0.957550
vt 0.488816 0.961558
vt 0.486724 0.961300
vt 0.484685 0.965046
vt 0.484685 0.961161
vt 0.486711 0.529835
vt 0.484677 0.529898
vt 0.488781 0.529653
vt 0.484708 0.525968
vt 0.486822 0.525758
vt 0.009590 0.526390
vt 0.011545 0.522508
vt 0.010152 0.519822
vt 0.011444 0.519205
vt 0.488221 0.523064
vt 0.488540 0.525566
vt 0.738873 0.976071
vt 0.740271 0.978768
vt 0.738974 0.979387
vt 0.736854 0.979857
vt 0.736759 0.975860
vt 0.484803 0.521968
vt 0.738763 0.971992
vt 0.736727 0.971932
vt 0.740835 0.972175
vt 0.738740 0.539622
vt 0.736697 0.539759
vt 0.740835 0.539365
vt 0.736700 0.535870
vt 0.738785 0.535495
vt 0.237059 0.518615
vt 0.239056 0.522556
vt 0.013556 0.518737
vt 0.240620 0.520029
vt 0.240759 0.522594
vt 0.740103 0.532466
vt 0.740540 0.535103
vt 0.242540 0.522097
vt 0.739029 0.528739
vt 0.738768 0.532192
vt 0.736901 0.523947
vt 0.736827 0.527996
vt 0.736754 0.531972
vt 0.240870 0.526460
vt 0.242921 0.526325
vt 0.245008 0.526187
vt 0.242654 0.958171
vt 0.511743 0.524604
vt 0.512100 0.528700
vt 0.515306 0.470700
vt 0.515306 0.257842
vt 0.625647 0.470700
vt 0.625647 0.257842
vt 0.736500 0.257635
vt 0.625647 0.256041
vt 0.736326 0.255615
vt 0.737303 0.254941
vt 0.737741 0.256952
vt 0.515306 0.255885
vt 0.738820 0.255478
vt 0.736186 0.253740
vt 0.737620 0.253163
vt 0.738061 0.254015
vt 0.737041 0.253435
vt 0.738542 0.252552
vt 0.737761 0.252046
vt 0.736990 0.251948
vt 0.739938 0.251002
vt 0.738891 0.250667
vt 0.737919 0.250396
vt 0.739584 0.253396
vt 0.515306 0.250015
vt 0.625647 0.251971
vt 0.515306 0.251971
vt 0.740132 0.037158
vt 0.625647 0.250015
vt 0.625647 0.037156
vt 0.515306 0.037156
vt 0.257714 0.974939
vt 0.260568 0.972268
vt 0.260213 0.976355
vt 0.258564 0.970711
vt 0.260864 0.968476
vt 0.259170 0.964968
vt 0.261057 0.964827
vt 0.259243 0.961329
vt 0.261146 0.961156
vt 0.257352 0.961700
vt 0.257959 0.967304
vt 0.257690 0.965185
vt 0.256193 0.966137
vt 0.255386 0.962271
vt 0.257124 0.968914
vt 0.254001 0.967777
vt 0.253268 0.962957
vt 0.255529 0.971992
vt 0.259058 0.967823
vt 0.739112 0.037157
vt 0.736984 0.250208
vt 0.738091 0.037156
vt 0.736045 0.250124
vt 0.737071 0.037156
vt 0.736088 0.251937
vt 0.625647 0.250135
vt 0.736050 0.037156
vt 0.506907 0.538720
vt 0.504512 0.972358
vt 0.504784 0.538033
vt 0.506608 0.972221
vt 0.506988 0.976465
vt 0.252962 0.529558
vt 0.255433 0.525459
vt 0.255053 0.529694
vt 0.257106 0.529828
vt 0.508666 0.972087
vt 0.257356 0.523387
vt 0.257217 0.525956
vt 0.508776 0.975968
vt 0.508914 0.978544
vt 0.510486 0.976010
vt 0.258924 0.525917
vt 0.258719 0.522542
vt 0.512488 0.979975
vt 0.512625 0.975931
vt 0.260923 0.521968
vt 0.261056 0.525999
vt 0.259119 0.529927
vt 0.261128 0.529929
vt 0.510684 0.971988
vt 0.512698 0.971987
vt 0.512680 0.539835
vt 0.510773 0.539663
vt 0.512590 0.536157
vt 0.510699 0.536016
vt 0.512397 0.532501
vt 0.510091 0.530261
vt 0.509239 0.526024
vt 0.507049 0.528977
vt 0.509486 0.533676
vt 0.508649 0.532062
vt 0.507716 0.534845
vt 0.505519 0.533203
vt 0.509216 0.535799
vt 0.510586 0.533155
vt 0.508877 0.539292
vt 0.625647 0.252104
vt 0.625647 0.254072
vt 0.240323 0.970840
vt 0.242509 0.967898
vt 0.625647 0.253928
vt 0.515306 0.253928
vt 0.241846 0.962040
vt 0.244039 0.963682
vt 0.625647 0.255885
vt 0.244775 0.958858
vt 0.240686 0.957601
vt 0.240079 0.963206
vt 0.240348 0.961088
vt 0.238981 0.963726
vt 0.240914 0.964818
vt 0.488521 0.965816
vt 0.009832 0.522315
vt 0.486924 0.522442
vt 0.740592 0.976265
vt 0.239260 0.519186
vt 0.625648 0.258009
vt 0.510279 0.979393
s 0
usemtl multitexture
f 2/1/1 3/2/2 1/3/3
f 1/3/4 7/4/5 2/1/6
f 49/5/7 1/3/8 3/2/9
f 5/6/10 4/7/11 8/8/12
f 6/9/13 7/4/14 5/6/15
f 10/10/16 5/6/17 8/8/12
f 9/11/18 10/10/19 8/8/20
f 152/12/21 8/8/22 4/7/23
f 11/13/24 12/14/25 10/10/26
f 12/14/27 6/9/28 10/10/29
f 12/14/30 141/15/31 13/16/32
f 13/16/33 15/17/34 12/14/35
f 15/17/36 25/18/37 6/9/38
f 19/19/39 15/17/40 17/20/41
f 18/21/42 19/19/43 17/20/44
f 74/22/45 17/20/46 13/16/47
f 82/23/48 19/24/49 20/25/50
f 20/25/51 19/24/43 18/26/42
f 19/19/52 22/27/53 16/28/54
f 21/29/55 22/30/56 19/24/52
f 25/18/57 22/27/58 23/31/59
f 26/32/60 22/30/61 21/29/62
f 25/18/63 24/33/64 7/4/65
f 24/34/66 26/32/67 28/35/68
f 28/35/69 27/36/70 29/37/71
f 26/32/72 82/23/73 27/36/74
f 30/38/75 29/37/76 31/39/77
f 33/40/78 28/35/79 30/38/80
f 115/41/81 30/38/82 31/39/83
f 32/42/84 33/40/85 30/38/86
f 33/43/87 35/44/88 2/1/89
f 2/1/90 24/33/91 33/43/92
f 35/44/93 36/45/94 37/46/95
f 32/42/96 36/47/97 34/48/98
f 40/49/99 36/50/100 38/51/101
f 40/49/102 39/52/103 41/53/104
f 39/54/105 32/42/106 115/41/107
f 42/55/108 41/53/109 43/56/110
f 44/57/111 40/49/112 42/55/113
f 45/58/114 43/56/115 46/59/116
f 48/60/117 42/55/118 45/58/119
f 124/61/120 45/58/121 46/59/122
f 47/62/123 48/60/124 45/58/125
f 48/63/126 51/64/127 49/5/128
f 48/63/129 3/2/130 44/65/131
f 51/64/132 52/66/133 53/67/134
f 47/62/135 52/68/136 50/69/137
f 53/67/138 52/66/139 55/70/140
f 55/71/140 52/68/141 54/72/142
f 58/73/143 55/71/144 56/74/145
f 55/71/146 125/75/147 56/74/148
f 151/76/149 55/70/150 57/77/151
f 57/77/152 55/70/153 58/78/143
f 58/78/154 147/79/155 57/77/156
f 59/80/157 56/74/158 127/81/159
f 59/82/160 61/83/161 58/84/143
f 58/84/143 61/83/161 60/85/162
f 61/86/163 129/87/164 62/88/165
f 62/88/166 64/89/167 61/86/161
f 61/86/161 64/89/167 63/90/168
f 63/91/169 60/85/170 61/83/161
f 64/89/171 145/92/172 63/90/173
f 139/93/174 64/89/175 62/88/176
f 64/89/177 67/94/178 65/95/179
f 66/96/180 67/94/181 64/89/167
f 70/97/182 67/94/183 68/98/184
f 68/98/185 67/94/178 69/99/186
f 65/95/179 67/94/187 70/97/188
f 69/99/189 67/94/190 66/96/191
f 73/100/192 70/97/193 71/101/194
f 70/97/195 94/102/196 71/101/197
f 145/92/198 70/97/199 72/103/200
f 72/103/201 70/97/193 73/100/192
f 73/104/202 140/105/203 72/106/204
f 71/101/205 75/107/206 73/100/192
f 74/108/207 73/104/192 18/109/42
f 18/109/42 73/104/192 75/110/208
f 76/111/209 77/112/210 75/113/211
f 18/26/212 77/112/213 20/25/214
f 78/114/215 79/115/216 77/112/217
f 20/25/218 79/115/219 82/23/220
f 79/115/221 84/116/222 81/117/223
f 82/23/224 81/117/225 27/36/226
f 81/117/227 85/118/228 83/119/229
f 27/36/230 83/119/231 29/37/232
f 84/116/233 87/120/234 85/118/235
f 84/116/236 88/121/237 86/122/238
f 87/120/239 89/123/240 91/124/241
f 89/123/242 88/121/243 92/125/244
f 91/124/245 90/126/246 99/127/247
f 89/123/248 93/128/249 90/126/250
f 93/128/251 78/114/252 76/111/253
f 78/114/254 88/121/255 80/129/256
f 94/102/257 76/130/258 71/101/259
f 95/131/260 93/132/261 94/102/262
f 94/102/263 69/99/264 95/131/265
f 96/133/266 90/134/267 95/131/268
f 95/131/269 69/99/270 96/133/271
f 96/133/271 69/99/270 97/135/272
f 97/135/273 98/136/274 96/133/271
f 100/109/275 96/133/271 98/136/276
f 99/137/277 96/133/271 100/109/275
f 136/138/278 100/139/279 98/140/276
f 101/141/280 103/142/281 100/139/275
f 100/143/275 103/144/282 102/145/283
f 102/145/284 99/127/285 100/143/275
f 103/144/286 114/146/287 102/145/288
f 137/147/289 103/142/290 101/141/291
f 103/144/292 106/148/293 104/149/294
f 105/150/295 106/151/296 103/142/292
f 108/152/297 106/151/298 105/150/299
f 110/153/300 106/148/301 107/154/302
f 109/155/303 108/152/304 116/156/305
f 110/153/306 109/157/307 111/158/308
f 112/159/309 111/158/310 113/160/311
f 114/146/312 110/153/313 112/159/314
f 113/160/315 85/118/316 112/159/317
f 112/159/318 87/120/319 114/146/320
f 102/145/321 87/120/322 91/124/323
f 31/39/324 111/158/325 115/41/326
f 83/119/327 31/39/328 29/37/232
f 115/41/329 109/157/330 39/54/331
f 39/52/332 116/156/333 41/53/334
f 116/156/335 118/161/336 117/162/337
f 41/53/338 117/162/339 43/56/340
f 119/163/341 118/161/342 120/164/343
f 43/56/344 119/163/345 46/59/116
f 120/164/346 121/165/347 119/163/348
f 121/165/349 46/59/350 119/163/351
f 122/166/352 123/167/353 121/165/354
f 123/167/355 124/61/356 121/165/357
f 125/75/358 47/62/359 124/61/360
f 127/81/361 125/75/362 123/167/363
f 123/167/364 128/168/365 127/81/366
f 127/81/367 129/169/368 59/80/369
f 128/168/370 132/170/371 129/169/372
f 128/168/373 133/171/374 130/172/375
f 132/170/376 131/173/377 138/174/378
f 131/173/379 133/171/380 134/175/381
f 122/166/382 133/171/383 126/176/384
f 131/173/385 135/177/386 136/138/387
f 135/177/388 122/166/389 120/164/390
f 135/177/391 101/141/392 136/138/393
f 120/164/394 137/147/395 135/177/396
f 108/152/397 137/147/398 118/161/399
f 138/174/400 136/138/401 98/140/402
f 139/93/403 138/178/404 97/135/405
f 62/88/406 132/179/407 139/93/408
f 69/99/409 139/93/410 97/135/411
f 13/16/412 140/180/413 74/22/414
f 141/15/415 142/181/416 140/180/417
f 72/106/418 142/182/419 145/183/420
f 142/181/421 146/184/422 144/185/423
f 63/91/424 142/182/425 144/186/426
f 144/185/427 147/79/428 60/187/429
f 146/184/430 149/188/431 147/79/432
f 146/184/433 150/189/434 148/190/435
f 149/188/436 11/13/437 9/11/438
f 11/13/439 150/189/440 14/191/441
f 141/15/442 150/189/443 143/192/444
f 57/77/445 149/188/446 151/76/447
f 151/76/448 9/11/449 152/12/450
f 51/64/451 151/76/452 152/12/453
f 49/5/454 152/12/455 4/7/456
f 35/44/457 44/65/458 3/2/459
f 2/1/460 35/44/461 3/2/462
f 1/3/463 5/6/464 7/4/465
f 49/5/466 4/7/23 1/3/467
f 5/6/468 1/3/469 4/7/470
f 6/9/471 25/18/472 7/4/473
f 10/10/474 6/9/475 5/6/476
f 9/11/477 11/13/478 10/10/479
f 152/12/480 9/11/481 8/8/482
f 11/13/483 14/191/484 12/14/485
f 12/14/486 15/17/487 6/9/488
f 12/14/489 14/191/490 141/15/491
f 13/16/492 17/20/493 15/17/494
f 15/17/495 16/28/496 25/18/497
f 19/19/498 16/28/499 15/17/500
f 74/22/501 18/21/42 17/20/502
f 82/23/503 21/29/504 19/24/505
f 25/18/506 16/28/507 22/27/508
f 26/32/509 23/193/510 22/30/511
f 25/18/512 23/31/513 24/33/514
f 24/34/515 23/193/516 26/32/517
f 28/35/518 26/32/519 27/36/520
f 26/32/521 21/29/522 82/23/523
f 30/38/524 28/35/525 29/37/526
f 33/40/527 24/34/528 28/35/529
f 115/41/530 32/42/531 30/38/532
f 32/42/533 34/48/534 33/40/535
f 33/43/536 34/194/537 35/44/538
f 2/1/539 7/4/540 24/33/541
f 35/44/542 34/194/543 36/45/544
f 32/42/545 38/195/546 36/47/547
f 40/49/548 37/196/549 36/50/550
f 40/49/551 38/51/552 39/52/553
f 39/54/554 38/195/555 32/42/556
f 42/55/557 40/49/558 41/53/559
f 44/57/560 37/196/561 40/49/562
f 45/58/563 42/55/564 43/56/565
f 48/60/566 44/57/131 42/55/567
f 124/61/568 47/62/569 45/58/570
f 47/62/571 50/69/572 48/60/573
f 48/63/574 50/197/575 51/64/576
f 48/63/117 49/5/577 3/2/578
f 51/64/579 50/197/580 52/66/581
f 47/62/582 54/72/583 52/68/584
f 55/71/585 54/72/586 125/75/587
f 151/76/588 53/67/589 55/70/590
f 58/78/591 60/187/162 147/79/592
f 59/80/593 58/73/143 56/74/594
f 61/86/595 59/198/160 129/87/596
f 63/91/597 144/186/426 60/85/598
f 64/89/599 65/95/600 145/92/601
f 139/93/602 66/96/603 64/89/604
f 70/97/605 68/98/606 94/102/607
f 145/92/608 65/95/609 70/97/610
f 73/104/611 74/108/207 140/105/612
f 71/101/613 76/130/614 75/107/615
f 76/111/616 78/114/617 77/112/618
f 18/26/619 75/113/208 77/112/620
f 78/114/621 80/129/622 79/115/623
f 20/25/624 77/112/625 79/115/626
f 79/115/627 80/129/628 84/116/629
f 82/23/630 79/115/631 81/117/632
f 81/117/633 84/116/634 85/118/635
f 27/36/636 81/117/637 83/119/638
f 84/116/639 86/122/640 87/120/641
f 84/116/642 80/129/643 88/121/644
f 87/120/645 86/122/646 89/123/647
f 89/123/648 86/122/649 88/121/650
f 91/124/651 89/123/652 90/126/653
f 89/123/654 92/125/655 93/128/656
f 93/128/657 92/125/658 78/114/659
f 78/114/660 92/125/661 88/121/662
f 94/102/663 93/132/664 76/130/665
f 95/131/666 90/134/667 93/132/668
f 94/102/669 68/98/670 69/99/671
f 96/133/672 99/137/277 90/134/673
f 97/135/674 138/178/675 98/136/676
f 136/138/677 101/141/280 100/139/678
f 102/145/679 91/124/680 99/127/681
f 103/144/682 104/149/683 114/146/684
f 137/147/685 105/150/686 103/142/687
f 108/152/688 107/199/689 106/151/690
f 110/153/691 104/149/692 106/148/693
f 109/155/694 107/199/695 108/152/696
f 110/153/697 107/154/698 109/157/699
f 112/159/700 110/153/701 111/158/702
f 114/146/703 104/149/704 110/153/705
f 113/160/706 83/119/707 85/118/708
f 112/159/709 85/118/710 87/120/322
f 102/145/284 114/146/320 87/120/711
f 31/39/712 113/160/713 111/158/714
f 83/119/715 113/160/713 31/39/716
f 115/41/717 111/158/718 109/157/719
f 39/52/720 109/155/721 116/156/722
f 116/156/723 108/152/724 118/161/725
f 41/53/726 116/156/727 117/162/728
f 119/163/729 117/162/730 118/161/731
f 43/56/732 117/162/730 119/163/733
f 120/164/734 122/166/735 121/165/736
f 121/165/737 124/61/738 46/59/739
f 122/166/740 126/176/741 123/167/742
f 123/167/743 125/75/744 124/61/745
f 125/75/746 54/72/747 47/62/748
f 127/81/749 56/74/750 125/75/751
f 123/167/752 126/176/753 128/168/754
f 127/81/755 128/168/756 129/169/757
f 128/168/758 130/172/759 132/170/760
f 128/168/761 126/176/762 133/171/763
f 132/170/764 130/172/765 131/173/766
f 131/173/767 130/172/768 133/171/769
f 122/166/770 134/175/771 133/171/772
f 131/173/773 134/175/774 135/177/775
f 135/177/776 134/175/777 122/166/778
f 135/177/779 137/147/780 101/141/781
f 120/164/782 118/161/783 137/147/784
f 108/152/785 105/150/786 137/147/787
f 138/174/788 131/173/789 136/138/790
f 139/93/791 132/179/792 138/178/793
f 62/88/794 129/87/795 132/179/796
f 69/99/797 66/96/798 139/93/799
f 13/16/800 141/15/801 140/180/802
f 141/15/803 143/192/804 142/181/805
f 72/106/806 140/105/807 142/182/425
f 142/181/808 143/192/809 146/184/810
f 63/91/811 145/183/420 142/182/812
f 144/185/813 146/184/814 147/79/815
f 146/184/816 148/190/817 149/188/818
f 146/184/819 143/192/820 150/189/821
f 149/188/822 148/190/823 11/13/824
f 11/13/825 148/190/826 150/189/827
f 141/15/828 14/191/829 150/189/830
f 57/77/831 147/79/832 149/188/833
f 151/76/834 149/188/835 9/11/836
f 51/64/837 53/67/838 151/76/839
f 49/5/840 51/64/841 152/12/842
f 35/44/843 37/46/844 44/65/845
