# Blender 5.0.1
# www.blender.org

mtllib material.mtl
o corner_URF
v 0.295654 0.295654 0.300162
v 0.297379 0.295654 0.299818
v 0.295654 0.297379 0.299818
v 0.104342 0.295654 0.300162
v 0.295654 0.104342 0.300162
v 0.295654 0.102617 0.299818
v 0.297379 0.104342 0.299818
v 0.104342 0.104342 0.300162
v 0.102617 0.104342 0.299819
v 0.104342 0.102617 0.299819
v 0.102574 0.102574 0.299404
v 0.104342 0.101155 0.298841
v 0.104342 0.100178 0.297379
v 0.102664 0.101384 0.298612
v 0.295654 0.101155 0.298841
v 0.297332 0.101384 0.298612
v 0.295654 0.100178 0.297379
v 0.295654 0.099835 0.295654
v 0.297422 0.100592 0.297422
v 0.297379 0.100178 0.295654
v 0.298612 0.101384 0.297333
v 0.298256 0.101740 0.298256
v 0.298612 0.102664 0.298612
v 0.298841 0.104342 0.298841
v 0.297422 0.102574 0.299404
v 0.299404 0.102574 0.297422
v 0.299818 0.102617 0.295654
v 0.299818 0.104342 0.297379
v 0.300161 0.104342 0.295654
v 0.299818 0.295654 0.297379
v 0.300161 0.295654 0.295654
v 0.299404 0.297422 0.297422
v 0.298841 0.295654 0.298841
v 0.298612 0.297332 0.298612
v 0.297422 0.297422 0.299404
v 0.298256 0.298256 0.298256
v 0.297332 0.298612 0.298612
v 0.298612 0.298612 0.297333
v 0.298841 0.298841 0.295654
v 0.297422 0.299404 0.297422
v 0.297379 0.299818 0.295654
v 0.295654 0.299818 0.297379
v 0.295654 0.300161 0.295654
v 0.295654 0.298841 0.298841
v 0.104342 0.299818 0.297379
v 0.104342 0.300161 0.295654
v 0.102574 0.299404 0.297422
v 0.104342 0.298841 0.298841
v 0.104342 0.297379 0.299819
v 0.102664 0.298612 0.298612
v 0.102574 0.297422 0.299404
v 0.101740 0.298256 0.298257
v 0.101384 0.297333 0.298612
v 0.101384 0.298612 0.297333
v 0.100592 0.297422 0.297422
v 0.100178 0.297379 0.295654
v 0.100178 0.295654 0.297379
v 0.099835 0.295654 0.295654
v 0.099835 0.295654 0.104342
v 0.099835 0.104342 0.295654
v 0.099835 0.104342 0.104342
v 0.100178 0.104342 0.102618
v 0.100178 0.102617 0.104342
v 0.100676 0.102678 0.102678
v 0.101345 0.101346 0.102721
v 0.101345 0.102721 0.101346
v 0.101750 0.101750 0.101750
v 0.102720 0.101346 0.101346
v 0.102678 0.102678 0.100677
v 0.102678 0.100677 0.102678
v 0.104342 0.100178 0.102618
v 0.102617 0.100178 0.104342
v 0.104342 0.099835 0.104342
v 0.104342 0.099835 0.295654
v 0.295654 0.099835 0.104342
v 0.295654 0.100178 0.102617
v 0.297379 0.100178 0.104342
v 0.297422 0.100592 0.102574
v 0.298841 0.101155 0.104342
v 0.298612 0.101384 0.102664
v 0.299818 0.102617 0.104342
v 0.298841 0.101155 0.295654
v 0.300161 0.104342 0.104342
v 0.299404 0.102574 0.102574
v 0.299818 0.104342 0.102617
v 0.298612 0.102664 0.101384
v 0.298841 0.104342 0.101155
v 0.298256 0.101740 0.101740
v 0.297422 0.102574 0.100592
v 0.295654 0.102617 0.100178
v 0.297379 0.104342 0.100178
v 0.297332 0.101384 0.101384
v 0.295654 0.101155 0.101155
v 0.104342 0.101155 0.101155
v 0.104342 0.102617 0.100178
v 0.104342 0.104342 0.099835
v 0.102617 0.104342 0.100178
v 0.104342 0.295654 0.099835
v 0.295654 0.104342 0.099835
v 0.295654 0.295654 0.099835
v 0.295654 0.297379 0.100178
v 0.297379 0.295654 0.100178
v 0.297422 0.297422 0.100592
v 0.298612 0.297332 0.101384
v 0.297332 0.298612 0.101384
v 0.298256 0.298256 0.101740
v 0.298612 0.298612 0.102664
v 0.297422 0.299404 0.102574
v 0.298841 0.298841 0.104342
v 0.299404 0.297422 0.102574
v 0.299818 0.297379 0.104342
v 0.299818 0.295654 0.102617
v 0.300161 0.295654 0.104342
v 0.298841 0.295654 0.101155
v 0.299818 0.297379 0.295654
v 0.297379 0.299818 0.104342
v 0.295654 0.300161 0.104342
v 0.295654 0.299818 0.102617
v 0.104342 0.300161 0.104342
v 0.104342 0.299818 0.102618
v 0.102617 0.299818 0.104342
v 0.102574 0.299404 0.102574
v 0.101155 0.298841 0.104342
v 0.102617 0.299818 0.295654
v 0.101155 0.298841 0.295654
v 0.101384 0.298612 0.102664
v 0.100178 0.297379 0.104342
v 0.100592 0.297422 0.102574
v 0.100178 0.295654 0.102618
v 0.101384 0.297333 0.101384
v 0.102574 0.297422 0.100592
v 0.101155 0.295654 0.101155
v 0.101740 0.298256 0.101740
v 0.102664 0.298612 0.101384
v 0.104342 0.298841 0.101155
v 0.104342 0.297379 0.100178
v 0.295654 0.298841 0.101155
v 0.102617 0.295654 0.100178
v 0.101155 0.104342 0.101155
v 0.102617 0.100178 0.295654
v 0.102574 0.100592 0.297422
v 0.101155 0.101155 0.295654
v 0.101384 0.101384 0.297333
v 0.100178 0.102617 0.295654
v 0.101155 0.101155 0.104342
v 0.100592 0.102574 0.297422
v 0.100178 0.104342 0.297379
v 0.101384 0.102664 0.298612
v 0.101155 0.104342 0.298841
v 0.101740 0.101740 0.298257
v 0.101155 0.295654 0.298841
v 0.102617 0.295654 0.299819
vn 0.4280 0.0782 0.9004
vn 0.0781 0.4280 0.9004
vn -0.0141 -0.0141 0.9998
vn 0.0018 0.0006 1.0000
vn 0.1913 0.1950 0.9619
vn 0.3826 0.0017 0.9239
vn -0.0006 0.0018 1.0000
vn -0.1950 0.1913 0.9620
vn -0.0018 0.3826 0.9239
vn -0.0010 -0.0023 1.0000
vn 0.0023 0.0010 1.0000
vn -0.0018 0.0018 1.0000
vn 0.0782 -0.4280 0.9004
vn 0.4280 -0.0782 0.9004
vn -0.0141 0.0141 0.9998
vn -0.0005 -0.3826 0.9239
vn -0.1933 -0.1914 0.9623
vn -0.0018 -0.0018 1.0000
vn -0.4280 -0.0782 0.9004
vn -0.0781 -0.4280 0.9004
vn 0.0141 0.0141 0.9998
vn -0.3826 0.0005 0.9239
vn -0.1914 0.1933 0.9623
vn -0.4022 -0.4009 0.8231
vn -0.0689 -0.7356 0.6739
vn 0.0024 -0.3782 0.9257
vn -0.0003 -0.7071 0.7071
vn -0.1951 -0.5449 0.8155
vn -0.0017 -0.3827 0.9239
vn -0.0689 -0.6739 0.7356
vn -0.4022 -0.8231 0.4009
vn 0.0025 -0.9257 0.3782
vn -0.0005 -0.9239 0.3827
vn -0.1950 -0.8155 0.5449
vn -0.0015 -0.7071 0.7071
vn 0.0689 -0.7356 0.6739
vn 0.4022 -0.4009 0.8231
vn -0.0025 -0.3782 0.9257
vn 0.4022 -0.8231 0.4009
vn 0.0689 -0.6739 0.7356
vn -0.0029 -0.9256 0.3786
vn 0.0018 -1.0000 0.0018
vn 0.3453 -0.8726 0.3453
vn 0.0013 -0.9237 0.3830
vn 0.1950 -0.9623 0.1896
vn 0.0006 -1.0000 0.0018
vn 0.7356 -0.6739 0.0689
vn 0.4009 -0.8231 0.4022
vn 0.3786 -0.9256 -0.0029
vn 0.3830 -0.9237 0.0013
vn 0.3453 -0.8726 0.3454
vn 0.3454 -0.8726 0.3454
vn 0.5773 -0.5774 0.5773
vn 0.2762 -0.6676 0.6914
vn 0.6914 -0.6676 0.2762
vn 0.3142 -0.3972 0.8623
vn 0.5218 -0.6088 0.5976
vn 0.6920 -0.2728 0.6683
vn 0.8623 -0.3142 0.3972
vn 0.5976 -0.5218 0.6088
vn 0.6848 -0.6845 0.2501
vn 0.4009 -0.4022 0.8231
vn 0.7356 -0.0689 0.6739
vn 0.3782 0.0024 0.9257
vn 0.6739 -0.0689 0.7356
vn 0.8231 -0.4022 0.4009
vn 0.9257 0.0025 0.3782
vn 0.9004 -0.0782 0.4280
vn 0.9004 -0.4280 0.0782
vn 0.9998 0.0141 -0.0141
vn 0.8231 -0.4009 0.4023
vn 0.6739 -0.7356 0.0689
vn 0.9257 -0.3782 -0.0024
vn 0.9239 0.0005 0.3826
vn 0.9623 0.1933 0.1914
vn 1.0000 0.0018 0.0018
vn 0.7072 0.0003 0.7071
vn 0.8155 0.1951 0.5449
vn 0.9239 0.0018 0.3827
vn 0.9004 0.4280 0.0782
vn 0.9004 0.0781 0.4280
vn 0.9998 -0.0141 -0.0141
vn 0.8231 0.4022 0.4009
vn 0.6739 0.0688 0.7356
vn 0.9257 -0.0024 0.3782
vn 0.7356 0.0689 0.6739
vn 0.4009 0.4022 0.8231
vn 0.3783 -0.0024 0.9257
vn 0.3827 0.0005 0.9239
vn 0.5449 0.1950 0.8155
vn 0.7071 0.0015 0.7071
vn 0.3972 0.3142 0.8623
vn 0.6088 0.5218 0.5976
vn 0.2729 0.6920 0.6683
vn 0.8623 0.3972 0.3142
vn 0.5976 0.6088 0.5217
vn 0.6683 0.2729 0.6920
vn 0.3142 0.8623 0.3972
vn 0.5217 0.5976 0.6088
vn 0.6920 0.6683 0.2729
vn 0.4009 0.8231 0.4023
vn 0.7356 0.6739 0.0689
vn 0.3782 0.9257 -0.0024
vn 0.6739 0.7356 0.0689
vn 0.8231 0.4009 0.4023
vn 0.9257 0.3782 -0.0024
vn 0.0782 0.9004 0.4280
vn 0.4280 0.9004 0.0781
vn -0.0141 0.9998 -0.0141
vn 0.0689 0.6739 0.7356
vn 0.4022 0.8231 0.4009
vn -0.0024 0.9257 0.3782
vn -0.0005 0.9239 0.3826
vn -0.1933 0.9623 0.1914
vn -0.0018 1.0000 0.0018
vn -0.0003 0.7071 0.7071
vn -0.1951 0.8155 0.5449
vn -0.0017 0.9239 0.3827
vn -0.4280 0.9004 0.0782
vn -0.0781 0.9004 0.4280
vn 0.0141 0.9998 -0.0141
vn -0.4022 0.8231 0.4009
vn -0.0689 0.6739 0.7356
vn 0.0025 0.9257 0.3782
vn -0.0689 0.7356 0.6739
vn -0.4022 0.4009 0.8231
vn 0.0024 0.3782 0.9257
vn -0.0005 0.3827 0.9239
vn -0.1950 0.5449 0.8155
vn -0.0015 0.7071 0.7071
vn -0.3141 0.3972 0.8623
vn -0.5217 0.6088 0.5976
vn -0.6844 0.2502 0.6848
vn -0.3972 0.8623 0.3142
vn -0.6088 0.5976 0.5218
vn -0.2728 0.6683 0.6920
vn -0.6676 0.2762 0.6914
vn -0.5774 0.5773 0.5773
vn -0.8726 0.3454 0.3454
vn -0.6676 0.6914 0.2762
vn -1.0000 0.0018 0.0018
vn -0.8726 0.3453 0.3453
vn -0.9238 0.3830 0.0013
vn -0.8231 0.4009 0.4022
vn -0.6739 0.7356 0.0689
vn -0.9256 0.3786 -0.0029
vn -0.6739 0.0689 0.7356
vn -0.8231 0.4022 0.4009
vn -0.9256 -0.0029 0.3786
vn -0.9237 0.0014 0.3830
vn -1.0000 0.0006 0.0018
vn -0.9619 0.1950 0.1913
vn -0.9237 0.0013 0.3830
vn -1.0000 0.0035 -0.0023
vn -0.9619 0.1913 -0.1954
vn -0.9239 0.3826 -0.0017
vn -1.0000 0.0035 -0.0035
vn -1.0000 -0.0018 -0.0018
vn -1.0000 -0.0035 0.0035
vn -1.0000 -0.0006 -0.0018
vn -0.9619 -0.1950 -0.1913
vn -0.9238 -0.0015 -0.3828
vn -0.9238 -0.0016 -0.3828
vn -0.8755 -0.3417 -0.3417
vn -0.9238 -0.3828 -0.0016
vn -0.9238 -0.3828 -0.0003
vn -0.9626 -0.1915 -0.1917
vn -0.7962 -0.4186 -0.4369
vn -0.6074 -0.7827 -0.1359
vn -0.8996 -0.4329 -0.0569
vn -0.6074 -0.1359 -0.7827
vn -0.7962 -0.4369 -0.4186
vn -0.8997 -0.0570 -0.4329
vn -0.8755 -0.3417 -0.3418
vn -0.5774 -0.5773 -0.5774
vn -0.6768 -0.6768 -0.2897
vn -0.6768 -0.2898 -0.6767
vn -0.5774 -0.5773 -0.5773
vn -0.8755 -0.3418 -0.3417
vn -0.3418 -0.8755 -0.3417
vn -0.5773 -0.5774 -0.5773
vn -0.2897 -0.6768 -0.6768
vn -0.2898 -0.6768 -0.6768
vn -0.5773 -0.5773 -0.5774
vn -0.3418 -0.3417 -0.8755
vn -0.6768 -0.6768 -0.2898
vn -0.5773 -0.5774 -0.5774
vn -0.3417 -0.8755 -0.3418
vn -0.3417 -0.3418 -0.8755
vn -0.6767 -0.2897 -0.6768
vn -0.0018 -1.0000 -0.0018
vn -0.3417 -0.8755 -0.3417
vn -0.0016 -0.9238 -0.3828
vn -0.4369 -0.7962 -0.4186
vn -0.1359 -0.6074 -0.7827
vn -0.0570 -0.8996 -0.4329
vn -0.7827 -0.6074 -0.1359
vn -0.4186 -0.7962 -0.4369
vn -0.4329 -0.8996 -0.0569
vn -0.3828 -0.9238 -0.0016
vn -0.0018 -1.0000 -0.0006
vn -0.1913 -0.9619 -0.1950
vn -0.3828 -0.9238 -0.0015
vn -0.0003 -0.9238 -0.3828
vn -0.1917 -0.9626 -0.1915
vn -0.0035 -1.0000 0.0035
vn 0.0035 -1.0000 -0.0035
vn 0.0782 -0.9004 -0.4280
vn 0.4280 -0.9004 -0.0781
vn -0.0124 -0.9998 0.0123
vn 0.0018 -1.0000 0.0006
vn 0.1914 -0.9619 0.1950
vn 0.4009 -0.8231 -0.4022
vn 0.7356 -0.6739 -0.0689
vn 0.3782 -0.9257 0.0024
vn 0.3831 -0.9237 0.0001
vn 0.5449 -0.8155 0.1950
vn 0.7071 -0.7071 0.0015
vn 0.6739 -0.7356 -0.0689
vn 0.8231 -0.4009 -0.4022
vn 0.9257 -0.3782 0.0024
vn 0.7071 -0.7071 0.0003
vn 0.8155 -0.5449 0.1951
vn 0.9239 -0.3827 0.0018
vn 0.9004 -0.4280 -0.0782
vn 0.9004 -0.0782 -0.4280
vn 0.9998 0.0141 0.0141
vn 0.9239 -0.3826 0.0005
vn 0.9623 -0.1914 0.1933
vn 1.0000 -0.0018 0.0018
vn 0.8231 -0.4022 -0.4009
vn 0.6739 -0.0688 -0.7356
vn 0.9257 0.0024 -0.3782
vn 0.8623 -0.3972 -0.3142
vn 0.5976 -0.6088 -0.5218
vn 0.6683 -0.2728 -0.6921
vn 0.7356 -0.0689 -0.6739
vn 0.4009 -0.4022 -0.8231
vn 0.3782 0.0025 -0.9257
vn 0.3972 -0.3142 -0.8623
vn 0.6088 -0.5218 -0.5976
vn 0.2728 -0.6920 -0.6683
vn 0.4280 -0.0782 -0.9004
vn 0.0782 -0.4280 -0.9004
vn -0.0123 0.0124 -0.9998
vn 0.4022 -0.4009 -0.8231
vn 0.0689 -0.7356 -0.6739
vn -0.0025 -0.3782 -0.9257
vn 0.0689 -0.6739 -0.7356
vn 0.4022 -0.8231 -0.4009
vn -0.0025 -0.9257 -0.3782
vn 0.3142 -0.8623 -0.3971
vn 0.5218 -0.5976 -0.6088
vn 0.6921 -0.6683 -0.2728
vn -0.0006 -0.7071 -0.7071
vn -0.1951 -0.8155 -0.5449
vn -0.0015 -0.9238 -0.3829
vn -0.0003 -0.3829 -0.9238
vn -0.1950 -0.5449 -0.8155
vn -0.0018 -0.7071 -0.7071
vn -0.1359 -0.7827 -0.6074
vn -0.4369 -0.4186 -0.7962
vn -0.0570 -0.4329 -0.8996
vn -0.0006 -0.0018 -1.0000
vn -0.1950 -0.1913 -0.9619
vn -0.0015 -0.3828 -0.9238
vn -0.0016 -0.3828 -0.9238
vn -0.3417 -0.3417 -0.8755
vn -0.0018 -0.0018 -1.0000
vn -0.3828 -0.0016 -0.9238
vn -0.3828 -0.0003 -0.9238
vn -0.1915 -0.1917 -0.9626
vn 0.0018 0.0018 -1.0000
vn -0.0035 0.0035 -1.0000
vn 0.0035 -0.0035 -1.0000
vn -0.0005 0.3826 -0.9239
vn -0.1933 0.1914 -0.9623
vn 0.0013 0.3830 -0.9237
vn 0.3454 0.3453 -0.8726
vn 0.3830 0.0013 -0.9237
vn 0.3830 0.0001 -0.9237
vn 0.1915 0.1917 -0.9626
vn 0.4009 0.4022 -0.8231
vn 0.7356 0.0689 -0.6739
vn 0.3786 -0.0029 -0.9256
vn 0.0689 0.7356 -0.6739
vn 0.4022 0.4009 -0.8231
vn -0.0029 0.3786 -0.9256
vn 0.3454 0.3454 -0.8726
vn 0.5773 0.5773 -0.5774
vn 0.6914 0.2762 -0.6676
vn 0.2762 0.6914 -0.6676
vn 0.3972 0.8623 -0.3142
vn 0.6088 0.5976 -0.5218
vn 0.2502 0.6848 -0.6844
vn 0.8623 0.3142 -0.3972
vn 0.5976 0.5218 -0.6088
vn 0.6683 0.6920 -0.2728
vn 0.7356 0.6739 -0.0689
vn 0.4009 0.8231 -0.4022
vn 0.3782 0.9257 0.0025
vn 0.8231 0.4009 -0.4022
vn 0.6739 0.7356 -0.0689
vn 0.9257 0.3782 0.0024
vn 0.9004 0.0782 -0.4280
vn 0.9004 0.4280 -0.0782
vn 0.9998 -0.0141 0.0141
vn 0.6739 0.0689 -0.7356
vn 0.8231 0.4022 -0.4009
vn 0.9257 -0.0025 -0.3782
vn 1.0000 0.0006 -0.0018
vn 0.9620 0.1950 -0.1913
vn 0.9239 0.0018 -0.3826
vn 0.9239 0.0005 -0.3827
vn 0.8155 0.1950 -0.5449
vn 0.7071 0.0015 -0.7071
vn 0.7071 0.0003 -0.7071
vn 0.5449 0.1951 -0.8155
vn 0.3831 0.0013 -0.9237
vn 1.0000 0.0018 0.0006
vn 0.9619 0.1913 0.1950
vn 0.9239 0.3826 0.0018
vn 1.0000 -0.0010 -0.0023
vn 1.0000 0.0023 0.0010
vn 0.9239 0.3827 0.0005
vn 0.8155 0.5449 0.1950
vn 0.7071 0.7071 0.0015
vn 0.7071 0.7071 0.0003
vn 0.5449 0.8155 0.1951
vn 0.3827 0.9239 0.0017
vn 0.4280 0.9004 -0.0782
vn 0.0781 0.9004 -0.4280
vn -0.0141 0.9998 0.0141
vn 0.3826 0.9239 0.0005
vn 0.1914 0.9623 0.1933
vn 0.0018 1.0000 0.0018
vn -0.0006 1.0000 -0.0018
vn -0.1950 0.9619 -0.1913
vn -0.0017 0.9239 -0.3826
vn -0.0010 1.0000 0.0023
vn 0.0023 1.0000 -0.0010
vn -0.0018 1.0000 -0.0018
vn -0.0782 0.9004 -0.4280
vn -0.4280 0.9004 -0.0782
vn 0.0141 0.9998 0.0141
vn -0.3826 0.9239 -0.0005
vn -0.1914 0.9623 -0.1933
vn -0.4009 0.8231 -0.4022
vn -0.7356 0.6739 -0.0688
vn -0.3781 0.9257 0.0025
vn -0.7071 0.7071 -0.0003
vn -0.5449 0.8155 -0.1951
vn -0.3827 0.9239 -0.0017
vn -0.7356 0.6739 0.0689
vn -0.4009 0.8231 0.4022
vn -0.3782 0.9257 -0.0025
vn -0.9239 0.3827 -0.0005
vn -0.8155 0.5449 -0.1950
vn -0.7071 0.7071 -0.0015
vn -0.6739 0.7356 -0.0689
vn -0.8231 0.4009 -0.4022
vn -0.9257 0.3782 0.0025
vn -0.9004 0.4280 -0.0782
vn -0.9004 0.0781 -0.4280
vn -0.9998 -0.0124 0.0124
vn -0.8231 0.4022 -0.4009
vn -0.6739 0.0688 -0.7356
vn -0.9257 -0.0025 -0.3782
vn -0.8623 0.3972 -0.3142
vn -0.5976 0.6088 -0.5218
vn -0.6683 0.2729 -0.6920
vn -0.7356 0.0689 -0.6739
vn -0.4009 0.4022 -0.8231
vn -0.3782 -0.0025 -0.9257
vn -0.3972 0.3142 -0.8623
vn -0.6088 0.5218 -0.5976
vn -0.2728 0.6920 -0.6683
vn -0.3142 0.8623 -0.3972
vn -0.5218 0.5976 -0.6088
vn -0.6920 0.6683 -0.2728
vn -0.4022 0.4009 -0.8231
vn -0.0689 0.7356 -0.6739
vn 0.0024 0.3782 -0.9257
vn -0.0689 0.6739 -0.7356
vn -0.4022 0.8231 -0.4009
vn 0.0025 0.9257 -0.3782
vn -0.0003 0.7071 -0.7071
vn -0.1947 0.5449 -0.8156
vn -0.0018 0.3827 -0.9239
vn 0.1950 0.8165 -0.5434
vn 0.0005 0.9239 -0.3827
vn 0.0015 0.7071 -0.7071
vn 0.4023 0.8231 -0.4009
vn 0.0689 0.6739 -0.7356
vn -0.0024 0.9257 -0.3782
vn -0.4280 0.0782 -0.9004
vn -0.0781 0.4280 -0.9004
vn 0.0123 -0.0124 -0.9998
vn -0.7071 -0.0006 -0.7071
vn -0.5449 -0.1951 -0.8155
vn -0.3829 -0.0015 -0.9238
vn -0.9238 -0.0003 -0.3829
vn -0.8155 -0.1950 -0.5449
vn -0.7071 -0.0018 -0.7071
vn -0.4186 -0.4369 -0.7962
vn -0.7827 -0.1359 -0.6074
vn -0.4329 -0.0570 -0.8996
vn -0.0782 -0.9004 0.4280
vn -0.4280 -0.9004 0.0781
vn 0.0124 -0.9998 -0.0123
vn -0.4009 -0.8231 0.4022
vn -0.7356 -0.6739 0.0689
vn -0.3782 -0.9257 -0.0024
vn -0.3829 -0.9238 -0.0003
vn -0.5449 -0.8155 -0.1950
vn -0.7071 -0.7071 -0.0018
vn -0.6739 -0.7356 0.0689
vn -0.8231 -0.4009 0.4022
vn -0.9257 -0.3782 -0.0025
vn -0.7071 -0.7071 -0.0006
vn -0.8155 -0.5449 -0.1951
vn -0.9238 -0.3829 -0.0015
vn -0.9004 -0.4280 0.0782
vn -0.9004 -0.0782 0.4280
vn -0.9998 0.0123 -0.0124
vn -0.8231 -0.4022 0.4009
vn -0.6739 -0.0689 0.7356
vn -0.9257 0.0024 0.3782
vn -0.8623 -0.3972 0.3142
vn -0.5976 -0.6088 0.5218
vn -0.6683 -0.2728 0.6921
vn -0.7356 -0.0689 0.6739
vn -0.4009 -0.4022 0.8231
vn -0.3782 0.0025 0.9257
vn -0.3972 -0.3142 0.8623
vn -0.6088 -0.5218 0.5976
vn -0.2729 -0.6920 0.6683
vn -0.3142 -0.8623 0.3972
vn -0.5218 -0.5976 0.6088
vn -0.6920 -0.6683 0.2729
vn -0.9237 0.0001 0.3831
vn -0.8155 0.1950 0.5449
vn -0.7071 0.0015 0.7071
vn -0.7071 0.0003 0.7071
vn -0.5449 0.1951 0.8155
vn -0.3827 0.0018 0.9239
vn -0.4009 0.4022 0.8231
vn -0.7356 0.0689 0.6739
vn -0.3782 -0.0024 0.9257
vn -0.0782 0.4280 0.9004
vn -0.4280 0.0781 0.9004
vn 0.0141 -0.0141 0.9998
vn 0.4023 0.4009 0.8231
vn 0.0689 0.7356 0.6739
vn -0.0024 0.3782 0.9257
vn 0.3058 -0.0372 0.9514
vn 0.3580 0.3580 0.8624
vn -0.0372 0.3057 0.9514
vn 0.1914 -0.1933 0.9623
vn 0.0018 -0.0018 1.0000
vn 0.3826 -0.0005 0.9239
vn 0.1933 0.1914 0.9623
vn 0.0018 0.0018 1.0000
vn 0.0005 0.3826 0.9239
vn -0.0023 -0.0010 1.0000
vn 0.0010 0.0023 1.0000
vn -0.0372 -0.3057 0.9514
vn 0.3580 -0.3579 0.8624
vn 0.3057 0.0372 0.9514
vn 0.1950 -0.1913 0.9620
vn 0.0018 -0.3826 0.9239
vn 0.0006 -0.0018 1.0000
vn -0.3057 0.0372 0.9514
vn -0.3580 -0.3580 0.8624
vn 0.0372 -0.3057 0.9514
vn -0.1913 -0.1950 0.9619
vn -0.3826 -0.0018 0.9239
vn -0.0018 -0.0006 1.0000
vn -0.2459 -0.3158 0.9164
vn -0.3030 -0.6784 0.6693
vn 0.0560 -0.6412 0.7653
vn 0.1950 -0.5449 0.8155
vn 0.0015 -0.7071 0.7071
vn 0.0005 -0.3827 0.9239
vn 0.0560 -0.7653 0.6412
vn -0.3030 -0.6693 0.6784
vn -0.2459 -0.9164 0.3158
vn 0.1951 -0.8155 0.5449
vn 0.0013 -0.9237 0.3831
vn 0.0003 -0.7071 0.7071
vn -0.0560 -0.6412 0.7653
vn 0.2807 -0.6713 0.6860
vn 0.2459 -0.3157 0.9164
vn 0.2459 -0.9164 0.3158
vn 0.2806 -0.6620 0.6950
vn -0.0560 -0.7653 0.6412
vn -0.0006 -0.9239 0.3826
vn -0.1933 -0.9619 0.1932
vn 0.6412 -0.7653 -0.0560
vn 0.6950 -0.6620 0.2806
vn 0.3158 -0.9164 0.2459
vn 0.3972 -0.3142 0.8623
vn 0.2501 -0.6845 0.6848
vn 0.6088 -0.5218 0.5976
vn 0.8623 -0.3971 0.3142
vn 0.6683 -0.2729 0.6920
vn 0.5976 -0.6088 0.5218
vn 0.3157 -0.2459 0.9164
vn 0.6784 -0.3030 0.6693
vn 0.6412 0.0560 0.7653
vn 0.7653 0.0560 0.6412
vn 0.6693 -0.3030 0.6784
vn 0.9164 -0.2458 0.3157
vn 0.9514 0.0372 0.3058
vn 0.8624 -0.3580 0.3580
vn 0.9514 -0.3057 -0.0372
vn 0.9164 -0.3157 0.2459
vn 0.6860 -0.6713 0.2807
vn 0.7653 -0.6412 -0.0560
vn 0.9619 -0.1950 0.1913
vn 0.9239 -0.0018 0.3826
vn 1.0000 -0.0006 0.0018
vn 0.8155 -0.1950 0.5449
vn 0.7072 -0.0015 0.7071
vn 0.9239 -0.0005 0.3827
vn 0.9514 0.3057 -0.0372
vn 0.8624 0.3580 0.3580
vn 0.9514 -0.0372 0.3057
vn 0.9164 0.2459 0.3157
vn 0.6693 0.3030 0.6784
vn 0.7653 -0.0560 0.6412
vn 0.6412 -0.0560 0.7653
vn 0.6784 0.3030 0.6693
vn 0.3157 0.2458 0.9164
vn 0.5449 -0.1951 0.8155
vn 0.3827 -0.0017 0.9239
vn 0.7071 -0.0003 0.7071
vn 0.3142 0.3971 0.8623
vn 0.6920 0.2728 0.6683
vn 0.5218 0.6088 0.5976
vn 0.8623 0.3142 0.3972
vn 0.6683 0.6920 0.2729
vn 0.5976 0.5218 0.6088
vn 0.3972 0.8623 0.3142
vn 0.2729 0.6683 0.6920
vn 0.6088 0.5976 0.5218
vn 0.3157 0.9164 0.2459
vn 0.6784 0.6693 0.3030
vn 0.6412 0.7653 -0.0560
vn 0.7653 0.6412 -0.0560
vn 0.6693 0.6784 0.3030
vn 0.9164 0.3157 0.2459
vn -0.0372 0.9514 0.3057
vn 0.3580 0.8624 0.3580
vn 0.3057 0.9514 -0.0372
vn -0.0560 0.7653 0.6412
vn 0.3030 0.6693 0.6784
vn 0.2459 0.9164 0.3158
vn 0.1950 0.9619 0.1913
vn 0.0017 0.9239 0.3826
vn 0.0006 1.0000 0.0018
vn 0.1950 0.8155 0.5449
vn 0.0015 0.7071 0.7071
vn 0.0005 0.9239 0.3827
vn -0.3057 0.9514 -0.0372
vn -0.3580 0.8624 0.3580
vn 0.0372 0.9514 0.3057
vn -0.2459 0.9164 0.3158
vn -0.3030 0.6692 0.6784
vn 0.0560 0.7653 0.6412
vn 0.0560 0.6412 0.7653
vn -0.3030 0.6784 0.6693
vn -0.2458 0.3157 0.9164
vn 0.1951 0.5449 0.8155
vn 0.0018 0.3827 0.9239
vn 0.0003 0.7071 0.7071
vn -0.3971 0.3142 0.8623
vn -0.2729 0.6920 0.6683
vn -0.6088 0.5217 0.5976
vn -0.3142 0.8623 0.3971
vn -0.6844 0.6848 0.2501
vn -0.5218 0.5976 0.6088
vn -0.9164 0.3157 0.2459
vn -0.6620 0.6950 0.2806
vn -0.7653 0.6412 -0.0560
vn -0.7653 -0.0560 0.6412
vn -0.6620 0.2806 0.6950
vn -0.9164 0.2459 0.3157
vn -0.9623 -0.1933 0.1914
vn -0.9239 -0.0005 0.3827
vn -0.9626 0.1915 0.1917
vn -0.9237 0.3830 0.0001
vn -0.9623 0.1933 -0.1914
vn -0.9239 0.0005 -0.3826
vn -0.9619 -0.1914 0.1952
vn -0.9239 -0.3827 0.0018
vn -1.0000 -0.0035 0.0023
vn -0.9459 -0.2511 -0.2057
vn -0.7397 -0.6308 -0.2343
vn -0.8022 -0.5792 0.1450
vn -0.8021 0.1449 -0.5793
vn -0.7397 -0.2343 -0.6308
vn -0.9459 -0.2057 -0.2511
vn -0.2057 -0.9459 -0.2511
vn -0.2343 -0.7397 -0.6308
vn 0.1450 -0.8022 -0.5792
vn -0.5793 -0.8021 0.1450
vn -0.6308 -0.7397 -0.2343
vn -0.2511 -0.9459 -0.2057
vn -0.1914 -0.9623 0.1933
vn -0.3826 -0.9239 0.0005
vn 0.1952 -0.9619 -0.1913
vn 0.0018 -0.9239 -0.3826
vn 0.0023 -1.0000 -0.0035
vn -0.0372 -0.9514 -0.3057
vn 0.3580 -0.8624 -0.3580
vn 0.3057 -0.9514 0.0372
vn 0.1914 -0.9623 -0.1933
vn 0.3826 -0.9239 -0.0005
vn 0.3158 -0.9164 -0.2459
vn 0.6784 -0.6693 -0.3030
vn 0.6412 -0.7653 0.0560
vn 0.5450 -0.8156 -0.1947
vn 0.3827 -0.9239 -0.0017
vn 0.7071 -0.7071 -0.0003
vn 0.7653 -0.6412 0.0560
vn 0.6692 -0.6784 -0.3030
vn 0.9164 -0.3157 -0.2459
vn 0.8155 -0.5449 -0.1950
vn 0.7071 -0.7071 -0.0015
vn 0.9239 -0.3827 -0.0005
vn 0.9514 -0.3058 0.0372
vn 0.8624 -0.3579 -0.3580
vn 0.9514 0.0372 -0.3057
vn 0.9619 -0.1913 -0.1950
vn 0.9239 -0.3826 -0.0018
vn 1.0000 -0.0018 -0.0006
vn 0.9164 -0.2459 -0.3157
vn 0.6693 -0.3030 -0.6784
vn 0.7653 0.0560 -0.6412
vn 0.8623 -0.3143 -0.3971
vn 0.6683 -0.6920 -0.2729
vn 0.5976 -0.5218 -0.6088
vn 0.6412 0.0560 -0.7653
vn 0.6784 -0.3030 -0.6693
vn 0.3158 -0.2459 -0.9164
vn 0.3142 -0.3971 -0.8623
vn 0.6921 -0.2728 -0.6683
vn 0.5218 -0.6088 -0.5976
vn 0.3057 0.0372 -0.9514
vn 0.3579 -0.3580 -0.8624
vn -0.0372 -0.3057 -0.9514
vn 0.2459 -0.3158 -0.9164
vn 0.3030 -0.6784 -0.6692
vn -0.0560 -0.6412 -0.7653
vn -0.0560 -0.7653 -0.6412
vn 0.3031 -0.6692 -0.6784
vn 0.2459 -0.9164 -0.3158
vn 0.3972 -0.8623 -0.3143
vn 0.2728 -0.6683 -0.6921
vn 0.6087 -0.5976 -0.5218
vn 0.1950 -0.8155 -0.5449
vn 0.0015 -0.7071 -0.7071
vn 0.0005 -0.9239 -0.3827
vn 0.1949 -0.5449 -0.8155
vn 0.0017 -0.3827 -0.9239
vn 0.0003 -0.7071 -0.7071
vn 0.1450 -0.5793 -0.8021
vn -0.2343 -0.6308 -0.7397
vn -0.2057 -0.2511 -0.9459
vn 0.1933 -0.1914 -0.9623
vn 0.0005 -0.3827 -0.9239
vn -0.1913 0.1952 -0.9619
vn -0.3826 0.0018 -0.9239
vn -0.0035 0.0023 -1.0000
vn 0.1950 0.1914 -0.9620
vn 0.0006 0.0018 -1.0000
vn 0.1913 -0.1954 -0.9619
vn 0.3826 -0.0017 -0.9239
vn 0.0035 -0.0023 -1.0000
vn 0.3158 0.2459 -0.9164
vn 0.6950 0.2806 -0.6620
vn 0.6412 -0.0560 -0.7653
vn -0.0560 0.6412 -0.7653
vn 0.2806 0.6950 -0.6620
vn 0.2459 0.3158 -0.9164
vn 0.3142 0.8623 -0.3972
vn 0.6920 0.6683 -0.2729
vn 0.5218 0.5976 -0.6088
vn 0.8623 0.3972 -0.3142
vn 0.6848 0.2501 -0.6845
vn 0.5976 0.6088 -0.5218
vn 0.6412 0.7653 0.0560
vn 0.6784 0.6693 -0.3030
vn 0.3158 0.9164 -0.2458
vn 0.9164 0.3158 -0.2459
vn 0.6693 0.6784 -0.3030
vn 0.7653 0.6412 0.0560
vn 0.9514 -0.0372 -0.3057
vn 0.8624 0.3580 -0.3579
vn 0.9514 0.3057 0.0372
vn 0.7653 -0.0560 -0.6412
vn 0.6860 0.2807 -0.6713
vn 0.9164 0.2459 -0.3157
vn 0.9623 -0.1933 -0.1914
vn 1.0000 -0.0018 -0.0018
vn 0.9239 -0.0005 -0.3826
vn 0.8155 -0.1951 -0.5449
vn 0.9239 -0.0017 -0.3827
vn 0.7071 -0.0003 -0.7071
vn 0.5449 -0.1950 -0.8155
vn 0.7071 -0.0015 -0.7071
vn 0.3827 -0.0005 -0.9239
vn 0.9623 0.1914 -0.1933
vn 1.0000 0.0018 -0.0018
vn 0.9239 0.3826 -0.0005
vn 1.0000 -0.0023 -0.0010
vn 1.0000 0.0010 0.0023
vn 0.8155 0.5449 -0.1951
vn 0.9239 0.3827 -0.0017
vn 0.7071 0.7071 -0.0003
vn 0.5449 0.8155 -0.1950
vn 0.7071 0.7071 -0.0015
vn 0.3827 0.9239 -0.0005
vn 0.3057 0.9514 0.0372
vn 0.3580 0.8624 -0.3580
vn -0.0372 0.9514 -0.3057
vn 0.1913 0.9619 -0.1950
vn 0.3826 0.9239 -0.0017
vn 0.0018 1.0000 -0.0006
vn 0.1933 0.9623 -0.1914
vn 0.0018 1.0000 -0.0018
vn 0.0005 0.9239 -0.3826
vn -0.0023 1.0000 0.0010
vn 0.0010 1.0000 -0.0023
vn 0.0372 0.9514 -0.3058
vn -0.3580 0.8624 -0.3580
vn -0.3057 0.9514 0.0372
vn -0.1913 0.9620 0.1950
vn -0.3826 0.9239 0.0018
vn -0.0018 1.0000 0.0006
vn -0.3158 0.9164 -0.2459
vn -0.6784 0.6692 -0.3031
vn -0.6412 0.7653 0.0560
vn -0.5449 0.8155 0.1950
vn -0.7071 0.7071 0.0015
vn -0.3827 0.9239 0.0005
vn -0.6412 0.7653 -0.0560
vn -0.6713 0.6860 0.2807
vn -0.3158 0.9164 0.2459
vn -0.8155 0.5449 0.1951
vn -0.9237 0.3830 0.0013
vn -0.7071 0.7071 0.0003
vn -0.7653 0.6412 0.0560
vn -0.6693 0.6784 -0.3030
vn -0.9164 0.3158 -0.2459
vn -0.9514 0.3057 0.0372
vn -0.8624 0.3580 -0.3580
vn -0.9514 -0.0372 -0.3057
vn -0.9164 0.2459 -0.3158
vn -0.6692 0.3031 -0.6784
vn -0.7653 -0.0560 -0.6412
vn -0.8623 0.3143 -0.3971
vn -0.6683 0.6920 -0.2729
vn -0.5976 0.5218 -0.6088
vn -0.6412 -0.0560 -0.7653
vn -0.6784 0.3031 -0.6692
vn -0.3158 0.2459 -0.9164
vn -0.3142 0.3971 -0.8623
vn -0.6921 0.2728 -0.6683
vn -0.5218 0.6088 -0.5976
vn -0.3971 0.8623 -0.3142
vn -0.2728 0.6683 -0.6921
vn -0.6088 0.5976 -0.5218
vn -0.2459 0.3158 -0.9164
vn -0.3030 0.6784 -0.6692
vn 0.0560 0.6412 -0.7653
vn 0.0560 0.7653 -0.6412
vn -0.3031 0.6692 -0.6784
vn -0.2459 0.9164 -0.3158
vn 0.1950 0.5449 -0.8155
vn 0.0001 0.3831 -0.9237
vn -0.0017 0.9239 -0.3827
vn -0.1951 0.8145 -0.5464
vn 0.2459 0.9164 -0.3157
vn 0.2807 0.6860 -0.6713
vn -0.0560 0.7653 -0.6412
vn -0.3057 -0.0372 -0.9514
vn -0.3579 0.3580 -0.8624
vn 0.0372 0.3057 -0.9514
vn -0.5449 0.1950 -0.8155
vn -0.7071 0.0015 -0.7071
vn -0.3827 0.0005 -0.9239
vn -0.8155 0.1949 -0.5449
vn -0.9239 0.0018 -0.3827
vn -0.7071 0.0003 -0.7071
vn -0.2511 -0.2057 -0.9459
vn -0.6308 -0.2343 -0.7397
vn -0.5792 0.1450 -0.8022
vn 0.0372 -0.9514 0.3057
vn -0.3580 -0.8624 0.3580
vn -0.3057 -0.9514 -0.0372
vn -0.3158 -0.9164 0.2459
vn -0.6784 -0.6693 0.3030
vn -0.6412 -0.7653 -0.0560
vn -0.5449 -0.8155 0.1949
vn -0.3827 -0.9239 0.0018
vn -0.7071 -0.7071 0.0003
vn -0.7653 -0.6412 -0.0560
vn -0.6693 -0.6784 0.3030
vn -0.9164 -0.3157 0.2459
vn -0.8155 -0.5449 0.1950
vn -0.7071 -0.7071 0.0015
vn -0.9239 -0.3827 0.0005
vn -0.9514 -0.3057 -0.0372
vn -0.8624 -0.3579 0.3580
vn -0.9514 0.0372 0.3057
vn -0.9164 -0.2459 0.3157
vn -0.6693 -0.3030 0.6784
vn -0.7653 0.0560 0.6412
vn -0.8623 -0.3142 0.3971
vn -0.6683 -0.6920 0.2729
vn -0.5976 -0.5218 0.6088
vn -0.6412 0.0560 0.7653
vn -0.6784 -0.3030 0.6693
vn -0.3157 -0.2458 0.9164
vn -0.3142 -0.3971 0.8623
vn -0.6920 -0.2728 0.6683
vn -0.5218 -0.6088 0.5976
vn -0.3971 -0.8623 0.3142
vn -0.2728 -0.6683 0.6920
vn -0.6088 -0.5976 0.5218
vn -0.8156 -0.1947 0.5449
vn -0.9239 -0.0017 0.3827
vn -0.7071 -0.0003 0.7071
vn -0.5449 -0.1950 0.8155
vn -0.7071 -0.0015 0.7071
vn -0.3827 -0.0005 0.9239
vn -0.3157 0.2459 0.9164
vn -0.6713 0.2807 0.6860
vn -0.6412 -0.0560 0.7653
vn 0.0372 0.3057 0.9514
vn -0.3580 0.3580 0.8624
vn -0.3057 -0.0372 0.9514
vn 0.2459 0.3158 0.9164
vn 0.3030 0.6784 0.6693
vn -0.0560 0.6412 0.7653
vt 0.761949 0.538974
vt 0.763946 0.535121
vt 0.763978 0.539034
vt 0.761977 0.969692
vt 0.987151 0.538964
vt 0.987221 0.535041
vt 0.987184 0.969465
vt 0.764014 0.973428
vt 0.764015 0.969556
vt 0.987276 0.973135
vt 0.989088 0.969634
vt 0.989156 0.538961
vt 0.989163 0.973273
vt 0.987469 0.976780
vt 0.989769 0.979015
vt 0.987766 0.980570
vt 0.763962 0.977308
vt 0.761935 0.973807
vt 0.761701 0.980535
vt 0.763894 0.981265
vt 0.763823 0.985293
vt 0.487329 0.961724
vt 0.489601 0.964961
vt 0.487399 0.965699
vt 0.487470 0.969747
vt 0.760626 0.976831
vt 0.761957 0.977097
vt 0.489342 0.961508
vt 0.490677 0.961236
vt 0.760186 0.974205
vt 0.489361 0.958207
vt 0.759885 0.969952
vt 0.491409 0.954342
vt 0.489317 0.954084
vt 0.487277 0.957830
vt 0.487277 0.953945
vt 0.489304 0.522619
vt 0.487270 0.522682
vt 0.491374 0.522437
vt 0.487301 0.518752
vt 0.489415 0.518541
vt 0.759885 0.538792
vt 0.761840 0.534910
vt 0.760447 0.532224
vt 0.761739 0.531607
vt 0.490813 0.515848
vt 0.491133 0.518350
vt 0.238578 0.963670
vt 0.239976 0.966366
vt 0.238679 0.966986
vt 0.236559 0.967456
vt 0.236464 0.963458
vt 0.487396 0.514752
vt 0.238468 0.959591
vt 0.236432 0.959530
vt 0.240540 0.959773
vt 0.238445 0.527221
vt 0.236402 0.527357
vt 0.240540 0.526964
vt 0.236405 0.523468
vt 0.238490 0.523094
vt 0.987354 0.531017
vt 0.989350 0.534957
vt 0.763851 0.531139
vt 0.990915 0.532431
vt 0.991054 0.534996
vt 0.239808 0.520065
vt 0.240245 0.522702
vt 0.992835 0.534498
vt 0.238734 0.516338
vt 0.238473 0.519791
vt 0.236606 0.511545
vt 0.236532 0.515594
vt 0.236459 0.519571
vt 0.991165 0.538861
vt 0.993216 0.538727
vt 0.995303 0.538589
vt 0.992949 0.970573
vt 0.011448 0.512203
vt 0.011805 0.516298
vt 0.515306 0.470700
vt 0.515306 0.257842
vt 0.625647 0.470700
vt 0.625647 0.257842
vt 0.736500 0.257635
vt 0.625647 0.256041
vt 0.736326 0.255615
vt 0.737303 0.254941
vt 0.737741 0.256952
vt 0.515306 0.255885
vt 0.738820 0.255478
vt 0.736186 0.253740
vt 0.737620 0.253163
vt 0.738061 0.254015
vt 0.737041 0.253435
vt 0.738542 0.252552
vt 0.737761 0.252046
vt 0.736990 0.251948
vt 0.739938 0.251002
vt 0.738891 0.250667
vt 0.737919 0.250396
vt 0.739584 0.253396
vt 0.515306 0.250015
vt 0.625647 0.251971
vt 0.515306 0.251971
vt 0.740132 0.037158
vt 0.625647 0.250015
vt 0.625647 0.037156
vt 0.515306 0.037156
vt 0.260307 0.967723
vt 0.263161 0.965052
vt 0.262805 0.969139
vt 0.261157 0.963495
vt 0.263457 0.961259
vt 0.261763 0.957752
vt 0.263649 0.957611
vt 0.261836 0.954113
vt 0.263739 0.953940
vt 0.259945 0.954484
vt 0.260552 0.960088
vt 0.260283 0.957969
vt 0.258786 0.958921
vt 0.257979 0.955055
vt 0.259717 0.961698
vt 0.256594 0.960560
vt 0.255860 0.955741
vt 0.258121 0.964776
vt 0.261650 0.960607
vt 0.739112 0.037157
vt 0.736984 0.250208
vt 0.738091 0.037156
vt 0.736045 0.250124
vt 0.737071 0.037156
vt 0.736088 0.251937
vt 0.625647 0.250135
vt 0.736050 0.037156
vt 0.006612 0.526319
vt 0.004217 0.959956
vt 0.004489 0.525632
vt 0.006313 0.959819
vt 0.006693 0.964063
vt 0.255554 0.522341
vt 0.258025 0.518243
vt 0.257645 0.522478
vt 0.259699 0.522612
vt 0.008371 0.959685
vt 0.259949 0.516171
vt 0.259810 0.518740
vt 0.008481 0.963567
vt 0.008619 0.966142
vt 0.010191 0.963608
vt 0.261516 0.518701
vt 0.261311 0.515326
vt 0.012194 0.967574
vt 0.012330 0.963529
vt 0.263515 0.514752
vt 0.263649 0.518783
vt 0.261712 0.522711
vt 0.263720 0.522713
vt 0.010389 0.959587
vt 0.012403 0.959585
vt 0.012385 0.527434
vt 0.010478 0.527261
vt 0.012295 0.523755
vt 0.010404 0.523615
vt 0.012102 0.520099
vt 0.009796 0.517859
vt 0.008944 0.513622
vt 0.006754 0.516576
vt 0.009191 0.521274
vt 0.008354 0.519660
vt 0.007421 0.522444
vt 0.005224 0.520801
vt 0.008921 0.523398
vt 0.010291 0.520754
vt 0.008582 0.526890
vt 0.625647 0.252104
vt 0.625647 0.254072
vt 0.990618 0.983242
vt 0.988121 0.984653
vt 0.992804 0.980299
vt 0.625647 0.253928
vt 0.515306 0.253928
vt 0.992141 0.974442
vt 0.994334 0.976084
vt 0.625647 0.255885
vt 0.995070 0.971259
vt 0.990981 0.970003
vt 0.990374 0.975608
vt 0.990643 0.973489
vt 0.989276 0.976127
vt 0.991209 0.977219
vt 0.491114 0.958600
vt 0.760127 0.534717
vt 0.489517 0.515226
vt 0.240297 0.963863
vt 0.989555 0.531588
vt 0.625648 0.258009
vt 0.009984 0.966992
s 0
usemtl multitexture
f 2/1/1 3/2/2 1/3/3
f 1/3/4 7/4/5 2/1/6
f 4/5/7 3/2/8 49/6/9
f 8/7/10 1/3/11 4/5/12
f 6/8/13 7/4/14 5/9/15
f 10/10/16 5/9/17 8/7/18
f 9/11/19 10/10/20 8/7/21
f 152/12/22 8/7/23 4/5/12
f 11/13/24 12/14/25 10/10/26
f 12/14/27 6/8/28 10/10/29
f 12/14/30 141/15/31 13/16/32
f 13/16/33 15/17/34 12/14/35
f 15/17/36 25/18/37 6/8/38
f 19/19/39 15/17/40 17/20/41
f 18/21/42 19/19/43 17/20/44
f 13/16/45 18/21/46 17/20/44
f 82/22/47 19/23/48 20/24/49
f 20/24/50 19/23/51 18/25/42
f 19/19/52 22/26/53 16/27/54
f 21/28/55 22/29/53 19/23/52
f 25/18/56 22/26/57 23/30/58
f 26/31/59 22/29/60 21/28/61
f 25/18/62 24/32/63 7/4/64
f 24/33/65 26/31/66 28/34/67
f 28/34/68 27/35/69 29/36/70
f 26/31/71 82/22/72 27/35/73
f 30/37/74 29/36/75 31/38/76
f 33/39/77 28/34/78 30/37/79
f 115/40/80 30/37/81 31/38/82
f 32/41/83 33/39/84 30/37/85
f 33/42/86 35/43/87 2/1/88
f 2/1/89 24/32/90 33/42/91
f 35/43/92 36/44/93 37/45/94
f 32/41/95 36/46/96 34/47/97
f 40/48/98 36/49/99 38/50/100
f 40/48/101 39/51/102 41/52/103
f 39/53/104 32/41/105 115/40/106
f 42/54/107 41/52/108 43/55/109
f 44/56/110 40/48/111 42/54/112
f 45/57/113 43/55/114 46/58/115
f 48/59/116 42/54/117 45/57/118
f 124/60/119 45/57/120 46/58/121
f 47/61/122 48/59/123 45/57/124
f 48/62/125 51/63/126 49/6/127
f 49/6/128 44/64/129 48/62/130
f 51/63/131 52/65/132 53/66/133
f 47/61/134 52/67/135 50/68/136
f 53/66/137 52/65/138 55/69/139
f 55/70/139 52/67/138 54/71/140
f 58/72/141 55/70/142 56/73/143
f 55/70/144 125/74/145 56/73/146
f 151/75/147 55/69/148 57/76/149
f 57/76/150 55/69/142 58/77/141
f 58/77/151 147/78/152 57/76/153
f 59/79/154 56/73/155 127/80/156
f 59/81/157 61/82/158 58/83/141
f 58/83/141 61/82/158 60/84/159
f 61/85/160 129/86/161 62/87/162
f 62/87/163 64/88/164 61/85/158
f 61/85/158 64/88/164 63/89/165
f 63/90/166 60/84/167 61/82/158
f 64/88/168 145/91/169 63/89/170
f 139/92/171 64/88/172 62/87/173
f 64/88/174 67/93/175 65/94/176
f 66/95/177 67/93/178 64/88/179
f 70/96/180 67/93/181 68/97/182
f 68/97/183 67/93/184 69/98/185
f 65/94/186 67/93/187 70/96/188
f 69/98/189 67/93/184 66/95/190
f 73/99/191 70/96/192 71/100/193
f 70/96/194 94/101/195 71/100/196
f 145/91/197 70/96/198 72/102/199
f 72/102/200 70/96/192 73/99/191
f 73/103/201 140/104/202 72/105/203
f 71/100/204 75/106/205 73/99/191
f 74/107/206 73/103/191 18/108/42
f 18/108/42 73/103/191 75/109/207
f 76/110/208 77/111/209 75/112/210
f 18/25/211 77/111/212 20/24/50
f 78/113/213 79/114/214 77/111/215
f 20/24/216 79/114/217 82/22/218
f 79/114/219 84/115/220 81/116/221
f 82/22/222 81/116/223 27/35/224
f 81/116/225 85/117/226 83/118/227
f 27/35/228 83/118/229 29/36/230
f 84/115/231 87/119/232 85/117/233
f 84/115/234 88/120/235 86/121/236
f 87/119/237 89/122/238 91/123/239
f 89/122/240 88/120/241 92/124/242
f 91/123/243 90/125/244 99/126/245
f 89/122/246 93/127/247 90/125/248
f 93/127/249 78/113/250 76/110/251
f 78/113/252 88/120/253 80/128/254
f 94/101/255 76/129/256 71/100/257
f 95/130/258 93/131/259 94/101/260
f 94/101/261 69/98/262 95/130/263
f 96/132/264 90/133/265 95/130/266
f 95/130/267 69/98/268 96/132/269
f 96/132/269 69/98/268 97/134/270
f 97/134/271 98/135/272 96/132/269
f 100/108/273 96/132/269 98/135/274
f 99/136/275 96/132/269 100/108/273
f 136/137/276 100/138/277 98/139/274
f 101/140/278 103/141/279 100/138/273
f 100/142/273 103/143/279 102/144/280
f 102/144/281 99/126/282 100/142/273
f 103/143/283 114/145/284 102/144/285
f 137/146/286 103/141/287 101/140/288
f 103/143/289 106/147/290 104/148/291
f 105/149/292 106/150/290 103/141/289
f 108/151/293 106/150/294 105/149/295
f 110/152/296 106/147/297 107/153/298
f 109/154/299 108/151/300 116/155/301
f 110/152/302 109/156/303 111/157/304
f 112/158/305 111/157/306 113/159/307
f 114/145/308 110/152/309 112/158/310
f 113/159/311 85/117/312 112/158/313
f 112/158/314 87/119/315 114/145/316
f 114/145/317 91/123/318 102/144/319
f 31/38/320 111/157/321 115/40/322
f 83/118/323 31/38/324 29/36/230
f 115/40/325 109/156/326 39/53/327
f 39/51/328 116/155/329 41/52/330
f 116/155/331 118/160/332 117/161/333
f 41/52/334 117/161/335 43/55/336
f 119/162/337 118/160/338 120/163/339
f 46/58/340 117/161/341 119/162/342
f 120/163/343 121/164/344 119/162/345
f 121/164/346 46/58/347 119/162/342
f 122/165/348 123/166/349 121/164/350
f 123/166/351 124/60/352 121/164/353
f 125/74/354 47/61/355 124/60/356
f 127/80/357 125/74/358 123/166/359
f 123/166/360 128/167/361 127/80/362
f 127/80/363 129/168/364 59/79/365
f 128/167/366 132/169/367 129/168/368
f 128/167/369 133/170/370 130/171/371
f 132/169/372 131/172/373 138/173/374
f 131/172/375 133/170/376 134/174/377
f 122/165/378 133/170/379 126/175/380
f 131/172/381 135/176/382 136/137/383
f 135/176/384 122/165/385 120/163/386
f 135/176/387 101/140/388 136/137/389
f 135/176/390 118/160/391 137/146/392
f 108/151/393 137/146/394 118/160/395
f 138/173/396 136/137/397 98/139/398
f 139/92/399 138/177/400 97/134/401
f 62/87/402 132/178/403 139/92/404
f 69/98/405 139/92/406 97/134/407
f 13/16/408 140/179/409 74/180/410
f 141/15/411 142/181/412 140/179/413
f 72/105/414 142/182/415 145/183/416
f 142/181/417 146/184/418 144/185/419
f 145/183/420 144/186/421 63/90/422
f 144/185/423 147/78/424 60/187/425
f 146/184/426 149/188/427 147/78/428
f 146/184/429 150/189/430 148/190/431
f 149/188/432 11/13/433 9/11/434
f 11/13/435 150/189/436 14/191/437
f 141/15/438 150/189/439 143/192/440
f 57/76/441 149/188/442 151/75/443
f 151/75/444 9/11/445 152/12/446
f 51/63/447 151/75/448 152/12/449
f 49/6/450 152/12/451 4/5/452
f 35/43/453 44/64/454 3/2/455
f 2/1/456 35/43/457 3/2/458
f 1/3/459 5/9/460 7/4/461
f 4/5/462 1/3/463 3/2/464
f 8/7/465 5/9/460 1/3/466
f 6/8/467 25/18/468 7/4/469
f 10/10/470 6/8/471 5/9/472
f 9/11/473 11/13/474 10/10/475
f 152/12/476 9/11/477 8/7/478
f 11/13/479 14/191/480 12/14/481
f 12/14/482 15/17/483 6/8/484
f 12/14/485 14/191/486 141/15/487
f 13/16/488 17/20/489 15/17/490
f 15/17/491 16/27/492 25/18/493
f 19/19/494 16/27/495 15/17/496
f 13/16/497 74/180/206 18/21/498
f 82/22/499 21/28/500 19/23/501
f 25/18/502 16/27/503 22/26/504
f 26/31/505 23/193/506 22/29/507
f 25/18/508 23/30/509 24/32/510
f 24/33/511 23/193/512 26/31/513
f 28/34/514 26/31/515 27/35/516
f 26/31/517 21/28/518 82/22/519
f 30/37/520 28/34/521 29/36/522
f 33/39/523 24/33/524 28/34/525
f 115/40/526 32/41/527 30/37/528
f 32/41/529 34/47/530 33/39/531
f 33/42/532 34/194/533 35/43/534
f 2/1/535 7/4/536 24/32/537
f 35/43/538 34/194/539 36/44/540
f 32/41/541 38/195/542 36/46/543
f 40/48/544 37/196/545 36/49/546
f 40/48/547 38/50/548 39/51/549
f 39/53/550 38/195/551 32/41/552
f 42/54/553 40/48/554 41/52/555
f 44/56/556 37/196/557 40/48/558
f 45/57/559 42/54/560 43/55/561
f 48/59/562 44/56/563 42/54/564
f 124/60/565 47/61/566 45/57/567
f 47/61/568 50/68/569 48/59/570
f 48/62/571 50/197/572 51/63/573
f 49/6/574 3/2/575 44/64/576
f 51/63/577 50/197/578 52/65/579
f 47/61/580 54/71/581 52/67/582
f 55/70/583 54/71/584 125/74/585
f 151/75/586 53/66/587 55/69/588
f 58/77/589 60/187/159 147/78/590
f 59/79/591 58/72/141 56/73/592
f 61/85/593 59/198/157 129/86/594
f 63/90/595 144/186/596 60/84/597
f 64/88/598 65/94/599 145/91/600
f 139/92/601 66/95/602 64/88/603
f 70/96/604 68/97/605 94/101/606
f 145/91/607 65/94/608 70/96/609
f 73/103/610 74/107/206 140/104/611
f 71/100/612 76/129/613 75/106/614
f 76/110/615 78/113/616 77/111/617
f 18/25/618 75/112/207 77/111/619
f 78/113/620 80/128/621 79/114/622
f 20/24/623 77/111/624 79/114/625
f 79/114/626 80/128/627 84/115/628
f 82/22/629 79/114/630 81/116/631
f 81/116/632 84/115/633 85/117/634
f 27/35/635 81/116/636 83/118/637
f 84/115/638 86/121/639 87/119/640
f 84/115/641 80/128/642 88/120/643
f 87/119/644 86/121/645 89/122/646
f 89/122/647 86/121/648 88/120/649
f 91/123/650 89/122/651 90/125/652
f 89/122/653 92/124/654 93/127/655
f 93/127/656 92/124/657 78/113/658
f 78/113/659 92/124/660 88/120/661
f 94/101/662 93/131/663 76/129/664
f 95/130/665 90/133/666 93/131/667
f 94/101/668 68/97/669 69/98/670
f 96/132/671 99/136/275 90/133/672
f 97/134/673 138/177/674 98/135/675
f 136/137/676 101/140/278 100/138/677
f 102/144/678 91/123/679 99/126/680
f 103/143/681 104/148/682 114/145/683
f 137/146/684 105/149/685 103/141/686
f 108/151/687 107/199/688 106/150/689
f 110/152/690 104/148/691 106/147/692
f 109/154/693 107/199/694 108/151/695
f 110/152/696 107/153/697 109/156/698
f 112/158/699 110/152/700 111/157/701
f 114/145/702 104/148/703 110/152/704
f 113/159/705 83/118/706 85/117/707
f 112/158/708 85/117/709 87/119/710
f 114/145/711 87/119/712 91/123/713
f 31/38/714 113/159/715 111/157/716
f 83/118/717 113/159/715 31/38/718
f 115/40/719 111/157/720 109/156/721
f 39/51/722 109/154/723 116/155/724
f 116/155/725 108/151/726 118/160/727
f 41/52/728 116/155/729 117/161/730
f 119/162/731 117/161/732 118/160/733
f 46/58/734 43/55/336 117/161/735
f 120/163/736 122/165/737 121/164/738
f 121/164/739 124/60/740 46/58/741
f 122/165/742 126/175/743 123/166/744
f 123/166/745 125/74/746 124/60/747
f 125/74/748 54/71/749 47/61/750
f 127/80/751 56/73/752 125/74/753
f 123/166/754 126/175/755 128/167/756
f 127/80/757 128/167/758 129/168/759
f 128/167/760 130/171/761 132/169/762
f 128/167/763 126/175/764 133/170/765
f 132/169/766 130/171/767 131/172/768
f 131/172/769 130/171/770 133/170/771
f 122/165/772 134/174/773 133/170/774
f 131/172/775 134/174/776 135/176/777
f 135/176/778 134/174/779 122/165/780
f 135/176/781 137/146/392 101/140/782
f 135/176/387 120/163/783 118/160/784
f 108/151/785 105/149/786 137/146/787
f 138/173/788 131/172/789 136/137/790
f 139/92/791 132/178/792 138/177/793
f 62/87/794 129/86/795 132/178/796
f 69/98/797 66/95/798 139/92/799
f 13/16/800 141/15/801 140/179/802
f 141/15/803 143/192/804 142/181/805
f 72/105/806 140/104/807 142/182/808
f 142/181/809 143/192/810 146/184/811
f 145/183/812 142/182/813 144/186/814
f 144/185/815 146/184/816 147/78/817
f 146/184/818 148/190/819 149/188/820
f 146/184/821 143/192/822 150/189/823
f 149/188/824 148/190/825 11/13/826
f 11/13/827 148/190/828 150/189/829
f 141/15/830 14/191/831 150/189/832
f 57/76/833 147/78/834 149/188/835
f 151/75/836 149/188/837 9/11/838
f 51/63/839 53/66/840 151/75/841
f 49/6/842 51/63/843 152/12/844
f 35/43/845 37/45/846 44/64/847
